<?xml version="1.0" standalone="no"?>
<!DOCTYPE svg PUBLIC "-//W3C//DTD SVG 1.1//EN" "http://www.w3.org/Graphics/SVG/1.1/DTD/svg11.dtd" >
<svg>
<metadata>
Created by FontForge 20090622 at Sat Aug 19 12:22:10 2017
 By deploy user
Copyright (c) 2017 by TypeType. Designers Ivan Gladkikh, Pavel Emelyanov. Technical designers Olexa Volochay, Nadyr Rakhimov, Dmitriy Greshnev. All rights reserved.
</metadata>
<defs>
<font id="TTNorms-ExtraLight" horiz-adv-x="580" >
  <font-face 
    font-family="TT Norms Thin"
    font-weight="200"
    font-stretch="normal"
    units-per-em="1000"
    panose-1="2 0 8 3 2 0 0 2 0 3"
    ascent="800"
    descent="-200"
    x-height="480"
    cap-height="700"
    bbox="-120 -220 1438 965"
    underline-thickness="50"
    underline-position="-50"
    unicode-range="U+000D-U+FB06"
  />
<missing-glyph horiz-adv-x="0" 
 />
    <glyph glyph-name="f_f" unicode="ff" horiz-adv-x="560" 
d="M525 480v-30h-120v-450h-30v450h-230v-450h-30v450h-80v30h80v85q0 59 31 92t84 33q16 0 31 -4t22 -8l7 -3v-30q-25 15 -60 15q-38 0 -61.5 -25.5t-23.5 -69.5v-85h230v105q0 59 31 92t84 33q16 0 31 -4t22 -8l7 -3v-30q-25 15 -60 15q-38 0 -61.5 -25.5t-23.5 -69.5
v-105h120z" />
    <glyph glyph-name="uniFB01" unicode="fi" horiz-adv-x="505" 
d="M405 480v-480h-30v450h-230v-450h-30v450h-80v30h80v105q0 59 31 92t84 33q16 0 31 -4t22 -8l7 -3v-30q-25 15 -60 15q-38 0 -61.5 -25.5t-23.5 -69.5v-105h260zM415 655q0 -25 -25 -25t-25 25t25 25t25 -25z" />
    <glyph glyph-name="f_f_i" unicode="ffi" horiz-adv-x="770" 
d="M405 450v-450h-30v450h-230v-450h-30v450h-80v30h80v85q0 59 31 92t84 33q16 0 31 -4t22 -8l7 -3v-30q-25 15 -60 15q-38 0 -61.5 -25.5t-23.5 -69.5v-85h230v105q0 59 31 92t84 33q16 0 31 -4t22 -8l7 -3v-30q-25 15 -60 15q-38 0 -61.5 -25.5t-23.5 -69.5v-105h265
v-480h-30v450h-235zM680 655q0 -25 -25 -25t-25 25t25 25t25 -25z" />
    <glyph glyph-name=".notdef" horiz-adv-x="0" 
 />
    <glyph glyph-name=".null" horiz-adv-x="0" 
 />
    <glyph glyph-name=".null" horiz-adv-x="0" 
 />
    <glyph glyph-name="nonmarkingreturn" horiz-adv-x="333" 
 />
    <glyph glyph-name="CR" unicode="&#xd;" horiz-adv-x="0" 
 />
    <glyph glyph-name="space" unicode=" " horiz-adv-x="180" 
 />
    <glyph glyph-name="exclam" unicode="!" horiz-adv-x="290" 
d="M160 150h-30v550h30v-550zM170 25q0 -25 -25 -25t-25 25t25 25t25 -25z" />
    <glyph glyph-name="quotedbl" unicode="&#x22;" horiz-adv-x="325" 
d="M105 700v-210h-30v210h30zM250 700v-210h-30v210h30z" />
    <glyph glyph-name="numbersign" unicode="#" horiz-adv-x="705" 
d="M25 225l5 30h155l35 190h-150l5 30h150l45 225h30l-45 -225h241l44 225h30l-45 -225h155l-5 -30h-155l-35 -190h150l-5 -30h-150l-45 -225h-30l45 225h-240l-45 -225h-30l45 225h-155zM250 445l-35 -190h240l35 190h-240z" />
    <glyph glyph-name="dollar" unicode="$" horiz-adv-x="550" 
d="M460 185q0 42 -22 72t-56.5 46.5t-76.5 29t-84.5 26.5t-77 32.5t-56.5 52t-22 81.5q0 73 54.5 125.5t145.5 58.5v101h30v-100q53 -2 99 -23.5t66 -41.5l20 -20l-25 -25q-2 3 -6.5 8.5t-20.5 19.5t-34 24.5t-47.5 19t-61.5 8.5q-87 0 -138.5 -44.5t-51.5 -110.5
q0 -41 22 -70t56.5 -45t77 -28.5t84.5 -26.5t76.5 -33t56.5 -53.5t22 -83.5q0 -76 -55.5 -131.5t-144.5 -62.5v-101h-30v100q-41 1 -77.5 11.5t-59.5 25t-40.5 29t-24.5 24.5l-8 10l25 25q2 -4 6.5 -10.5t21.5 -22.5t37 -28.5t53.5 -23t71.5 -10.5q88 0 141.5 47.5
t53.5 117.5z" />
    <glyph glyph-name="percent" unicode="%" horiz-adv-x="760" 
d="M145 0l440 700h30l-440 -700h-30zM310 555q0 55 -33 90t-82 35t-82 -35t-33 -90t33 -90t82 -35t82 35t33 90zM340 555q0 -67 -42 -111t-103 -44t-103 44t-42 111t42 111t103 44t103 -44t42 -111zM680 145q0 55 -33 90t-82 35t-82 -35t-33 -90t33 -90t82 -35t82 35t33 90z
M710 145q0 -67 -42 -111t-103 -44t-103 44t-42 111t42 111t103 44t103 -44t42 -111z" />
    <glyph glyph-name="ampersand" unicode="&#x26;" horiz-adv-x="610" 
d="M395 560q0 -48 -36.5 -98t-72.5 -76l-36 -26l196 -230q7 9 16.5 26t26 71.5t16.5 112.5h30q0 -64 -17.5 -121.5t-34.5 -82.5l-17 -26q6 -9 16.5 -22.5t38 -35.5t49.5 -22l30 5v-30q-15 -5 -30 -5q-29 0 -59 21t-45 42l-16 21l-7.5 -10t-22.5 -22.5t-38 -29t-53 -22.5
t-69 -10q-81 0 -135.5 50.5t-54.5 119.5q0 34 14.5 67.5t35 57t41 42.5t35.5 29l14 9l-30.5 32t-49 72t-30.5 91q0 63 44.5 106.5t105.5 43.5q62 0 103.5 -43t41.5 -107zM430 105l-205 240q-5 -3 -13.5 -9t-30 -25.5t-38 -40t-30 -51t-13.5 -59.5q0 -58 45 -99t115 -41
q32 0 61.5 9t48.5 21t33 24.5t21 21.5zM130 560q0 -34 26 -79t52 -73l27 -28q5 4 14 10t31.5 26t39.5 40t31 49t14 55q0 52 -32.5 86t-82.5 34t-85 -34t-35 -86z" />
    <glyph glyph-name="quotesingle" unicode="'" horiz-adv-x="180" 
d="M105 700v-210h-30v210h30z" />
    <glyph glyph-name="parenleft" unicode="(" horiz-adv-x="325" 
d="M110 250q0 -77 17.5 -152t42.5 -127.5t50 -94t42 -61.5l18 -20l-25 -15l-19 22t-42 61t-53 98.5t-42 130t-19 158.5t18 157.5t44 131.5t51.5 96.5t43.5 63.5l18 21l25 -15q-7 -7 -18.5 -21t-40.5 -60t-51.5 -95.5t-41 -125.5t-18.5 -153z" />
    <glyph glyph-name="parenright" unicode=")" horiz-adv-x="325" 
d="M215 250q0 77 -17.5 152t-42.5 127.5t-50 94t-43 61.5l-17 20l25 15l19 -22t42 -61t53 -98.5t42 -130t19 -158.5t-18 -157.5t-43.5 -131.5t-51.5 -96.5t-44 -63.5l-18 -21l-25 15q7 7 18.5 21t40.5 60t51.5 95.5t41 125.5t18.5 153z" />
    <glyph glyph-name="asterisk" unicode="*" horiz-adv-x="390" 
d="M345 575l-135 -35l90 -115l-20 -15l-85 115l-85 -115l-20 15l90 115l-135 35l10 25l130 -40l-5 140h30l-5 -140l130 40z" />
    <glyph glyph-name="plus" unicode="+" horiz-adv-x="500" 
d="M235 505h30v-195h190v-30h-190v-195h-30v195h-190v30h190v195z" />
    <glyph glyph-name="comma" unicode="," horiz-adv-x="180" 
d="M80 50l35 -20l-95 -150l-20 10z" />
    <glyph glyph-name="hyphen" unicode="-" horiz-adv-x="410" 
d="M365 310v-30h-320v30h320z" />
    <glyph glyph-name="period" unicode="." horiz-adv-x="190" 
d="M120 25q0 -25 -25 -25t-25 25t25 25t25 -25z" />
    <glyph glyph-name="slash" unicode="/" horiz-adv-x="410" 
d="M375 710l-310 -920h-30l310 920h30z" />
    <glyph glyph-name="zero" unicode="0" horiz-adv-x="660" 
d="M565 350q0 149 -71 239.5t-164 90.5t-164 -90.5t-71 -239.5t71 -239.5t164 -90.5t164 90.5t71 239.5zM595 350q0 -161 -80.5 -260.5t-184.5 -99.5t-184.5 99.5t-80.5 260.5t80.5 260.5t184.5 99.5t184.5 -99.5t80.5 -260.5z" />
    <glyph glyph-name="one" unicode="1" horiz-adv-x="330" 
d="M185 700h25v-700h-30v640q-1 -3 -4 -7.5t-14.5 -17.5t-25.5 -23t-38.5 -19.5t-52.5 -12.5v30q44 4 79 31.5t48 52.5z" />
    <glyph glyph-name="two" unicode="2" horiz-adv-x="540" 
d="M480 0h-430q0 53 22 98.5t57.5 79t78 64.5l85 60t78 59.5t57.5 70t22 83.5q0 69 -52 117t-133 48q-42 0 -75.5 -13.5t-51 -32.5t-29.5 -38t-15 -32l-4 -14l-30 10q1 6 4.5 16t19 36t36 46t59 36t86.5 16q92 0 153.5 -57.5t61.5 -137.5q0 -64 -38.5 -117.5t-94.5 -93
l-113 -78t-101.5 -89t-52.5 -107.5h400v-30z" />
    <glyph glyph-name="three" unicode="3" horiz-adv-x="530" 
d="M315 370q6 -1 16 -3.5t36 -15.5t46 -31.5t36 -54t16 -80.5q0 -81 -62 -138t-158 -57q-39 0 -75 11t-59.5 26t-41.5 30.5t-26 26.5l-8 11l25 20q2 -4 7 -10.5t22 -22.5t37 -28.5t52 -23t67 -10.5q84 0 137 48t53 117q0 73 -52.5 121.5t-137.5 48.5h-65v30h65
q77 0 123.5 42.5t46.5 107.5q0 62 -46.5 103.5t-123.5 41.5q-31 0 -59.5 -8t-48 -20t-34 -24t-21.5 -20l-7 -8l-25 20q3 4 8.5 10t24 21.5t39.5 27.5t54.5 21.5t68.5 9.5q88 0 144 -51t56 -124q0 -38 -13.5 -69t-32.5 -48t-38 -28.5t-33 -15.5z" />
    <glyph glyph-name="four" unicode="4" horiz-adv-x="545" 
d="M415 200h90v-30h-90v-170h-30v170h-365v36l365 494h30v-500zM385 200v455l-335 -455h335z" />
    <glyph glyph-name="five" unicode="5" 
d="M295 435q90 0 152.5 -63.5t62.5 -156.5q0 -98 -63.5 -161.5t-161.5 -63.5q-39 0 -74.5 10.5t-58.5 25t-40 29t-24 25.5l-8 10l25 25q2 -4 6.5 -10.5t21 -22.5t35.5 -28.5t50.5 -23t66.5 -10.5q86 0 140.5 54.5t54.5 140.5q0 82 -53 136t-132 54q-32 0 -61 -9.5t-47 -22.5
t-31.5 -26t-19.5 -23l-6 -9h-25l25 385h335v-30h-305l-25 -310q2 3 6.5 8t19.5 18t32 23t45 18t57 8z" />
    <glyph glyph-name="six" unicode="6" horiz-adv-x="565" 
d="M280 430q93 0 159 -65t66 -155t-66 -155t-159 -65t-159 65t-66 155q0 36 12.5 73.5t24.5 56.5l13 20l215 340h35l-195 -305q45 35 120 35zM475 210q0 79 -56.5 134.5t-138.5 55.5t-138.5 -55.5t-56.5 -134.5t56.5 -134.5t138.5 -55.5t138.5 55.5t56.5 134.5z" />
    <glyph glyph-name="seven" unicode="7" horiz-adv-x="460" 
d="M25 700h415v-30l-325 -670h-30l325 670h-385v30z" />
    <glyph glyph-name="eight" unicode="8" horiz-adv-x="570" 
d="M285 710q78 0 131.5 -51.5t53.5 -123.5q0 -35 -12.5 -64t-30 -45t-35 -27t-30.5 -15l-12 -4q6 -1 16 -4.5t36 -18t46 -33.5t36 -55t16 -79q0 -84 -61 -142t-154 -58t-154 58t-61 142q0 43 15.5 78.5t37.5 55.5t44 33.5t37 18.5l16 4q-5 1 -13 4t-28.5 15t-36.5 27.5
t-29 44.5t-13 64q0 72 53.5 123.5t131.5 51.5zM285 20q81 0 133 49t52 121q0 73 -52 124t-133 51t-133 -51t-52 -124q0 -72 52 -121t133 -49zM285 680q-67 0 -111 -42t-44 -103q0 -57 44.5 -98.5t110.5 -41.5t110.5 41.5t44.5 98.5q0 61 -44 103t-111 42z" />
    <glyph glyph-name="nine" unicode="9" horiz-adv-x="565" 
d="M285 270q-93 0 -159 65t-66 155t66 155t159 65t159 -65t66 -155q0 -36 -12.5 -73.5t-25.5 -56.5l-12 -20l-215 -340h-35l195 305q-45 -35 -120 -35zM90 490q0 -79 56.5 -134.5t138.5 -55.5t138.5 55.5t56.5 134.5t-56.5 134.5t-138.5 55.5t-138.5 -55.5t-56.5 -134.5z
" />
    <glyph glyph-name="colon" unicode=":" horiz-adv-x="190" 
d="M120 25q0 -25 -25 -25t-25 25t25 25t25 -25zM120 455q0 -25 -25 -25t-25 25t25 25t25 -25z" />
    <glyph glyph-name="semicolon" unicode=";" horiz-adv-x="190" 
d="M120 455q0 -25 -25 -25t-25 25t25 25t25 -25zM80 50l35 -20l-95 -150l-20 10z" />
    <glyph glyph-name="less" unicode="&#x3c;" horiz-adv-x="490" 
d="M55 230v30l380 200v-30l-350 -185l350 -185v-30z" />
    <glyph glyph-name="equal" unicode="=" horiz-adv-x="500" 
d="M445 225v-30h-390v30h390zM445 395v-30h-390v30h390z" />
    <glyph glyph-name="greater" unicode="&#x3e;" horiz-adv-x="490" 
d="M435 260v-30l-380 -200v30l350 185l-350 185v30z" />
    <glyph glyph-name="question" unicode="?" horiz-adv-x="505" 
d="M255 150h-30v40q0 47 20.5 85t50 64l59 51.5t50 59.5t20.5 75q0 63 -48.5 109t-126.5 46q-42 0 -75.5 -14t-51.5 -34t-29.5 -39.5t-15.5 -33.5l-3 -14l-30 10q1 6 4.5 16.5t19 37.5t36 47t59 37t86.5 17q89 0 147 -55t58 -130q0 -48 -20.5 -85.5t-50 -62.5l-59 -49.5
t-50 -59t-20.5 -78.5v-40zM215 25q0 25 25 25t25 -25t-25 -25t-25 25z" />
    <glyph glyph-name="at" unicode="@" horiz-adv-x="885" 
d="M435 400q-58 0 -96.5 -42.5t-38.5 -112.5t38.5 -112.5t96.5 -42.5q54 0 92 43t38 112t-38 112t-92 43zM435 430q27 0 50 -9t37 -21t24.5 -24.5t14.5 -21.5l4 -9v80h30v-218q0 -59 23 -88t62 -29q45 0 75 44.5t30 135.5q0 139 -97.5 234.5t-242.5 95.5q-139 0 -242 -104
t-103 -246t102.5 -246t239.5 -104q57 0 109 19t75 37l24 19l20 -25q-3 -3 -10 -8.5t-29 -19.5t-47 -24.5t-63.5 -19t-78.5 -8.5q-148 0 -260 113.5t-112 266.5t112.5 266.5t262.5 113.5q157 0 263.5 -104.5t106.5 -255.5q0 -103 -39 -156.5t-96 -53.5q-40 0 -67.5 24
t-34.5 48l-8 23q-1 -4 -4 -10.5t-14.5 -22.5t-25.5 -28.5t-38.5 -23t-52.5 -10.5q-69 0 -117 52t-48 133t48 133t117 52z" />
    <glyph glyph-name="A" unicode="A" horiz-adv-x="670" 
d="M510 245l-175 420l-175 -420h350zM520 215h-370l-90 -215h-30l290 700h30l290 -700h-30z" />
    <glyph glyph-name="B" unicode="B" horiz-adv-x="655" 
d="M445 375v-5q6 -1 15.5 -3t33.5 -14t42.5 -29t33.5 -51.5t15 -77.5q0 -87 -56 -141t-149 -54h-265v700h250q82 0 133.5 -49.5t51.5 -125.5q0 -35 -11 -63.5t-26.5 -44t-30.5 -25.5t-26 -14zM145 30h235q82 0 128.5 44.5t46.5 120.5q0 72 -47 116t-128 44h-235v-325z
M365 670h-220v-285h220q74 0 114.5 37.5t40.5 102.5q0 64 -42 104.5t-113 40.5z" />
    <glyph glyph-name="C" unicode="C" horiz-adv-x="745" 
d="M60 350q0 149 103.5 254.5t246.5 105.5q53 0 102.5 -15.5t82 -37.5t57.5 -44t36 -37l12 -16l-25 -20q-4 6 -11 15.5t-32 33.5t-53 42.5t-74 33.5t-95 15q-132 0 -226 -96t-94 -234t94 -234t226 -96q49 0 94.5 14.5t75 35t52 41t32.5 35.5l11 14l25 -20q-4 -6 -12 -16
t-35.5 -36t-58.5 -46t-81 -36t-103 -16q-143 0 -246.5 105.5t-103.5 254.5z" />
    <glyph glyph-name="D" unicode="D" horiz-adv-x="730" 
d="M115 700h190q160 0 262.5 -99.5t102.5 -250.5t-102.5 -250.5t-262.5 -99.5h-190v700zM305 670h-160v-640h160q149 0 242 90t93 230t-93 230t-242 90z" />
    <glyph glyph-name="E" unicode="E" horiz-adv-x="625" 
d="M145 30h440v-30h-470v700h460v-30h-430v-290h350v-30h-350v-320z" />
    <glyph glyph-name="F" unicode="F" horiz-adv-x="600" 
d="M115 700h455v-30h-425v-300h345v-30h-345v-340h-30v700z" />
    <glyph glyph-name="G" unicode="G" horiz-adv-x="785" 
d="M700 560l-25 -20q-4 6 -11 15.5t-32 33.5t-53 42.5t-74 33.5t-95 15q-132 0 -226 -96t-94 -234t93.5 -234t226.5 -96q49 0 94.5 14t75 33.5t52 39.5t32.5 34l11 14v160h-200v30h230v-200q-4 -6 -12.5 -16.5t-36.5 -37.5t-60 -47t-82.5 -37t-103.5 -17q-144 0 -247 105.5
t-103 254.5t103.5 254.5t246.5 105.5q53 0 102.5 -15.5t82 -37.5t57.5 -44t36 -37z" />
    <glyph glyph-name="H" unicode="H" horiz-adv-x="740" 
d="M115 0v700h30v-330h450v330h30v-700h-30v340h-450v-340h-30z" />
    <glyph glyph-name="I" unicode="I" horiz-adv-x="260" 
d="M115 0v700h30v-700h-30z" />
    <glyph glyph-name="J" unicode="J" horiz-adv-x="480" 
d="M345 700h30v-500q0 -90 -58 -150t-142 -60q-49 0 -90 19t-58 37l-17 19l25 25q2 -3 5.5 -7.5t16.5 -16.5t28 -21.5t39 -17t51 -7.5q72 0 121 50.5t49 129.5v500z" />
    <glyph glyph-name="K" unicode="K" horiz-adv-x="645" 
d="M145 240l415 460h40l-260 -290l285 -410h-35l-270 390l-175 -190v-200h-30v700h30v-460z" />
    <glyph glyph-name="L" unicode="L" horiz-adv-x="550" 
d="M530 0h-415v700h30v-670h385v-30z" />
    <glyph glyph-name="M" unicode="M" horiz-adv-x="910" 
d="M140 700l315 -435l315 435h25v-700h-30v645l-310 -431l-310 431v-645h-30v700h25z" />
    <glyph glyph-name="N" unicode="N" horiz-adv-x="775" 
d="M625 700h30v-700h-25l-485 645v-645h-30v700h25l485 -645v645z" />
    <glyph glyph-name="O" unicode="O" horiz-adv-x="820" 
d="M730 350q0 138 -94 234t-226 96t-226 -96t-94 -234t94 -234t226 -96t226 96t94 234zM760 350q0 -149 -103.5 -254.5t-246.5 -105.5t-246.5 105.5t-103.5 254.5t103.5 254.5t246.5 105.5t246.5 -105.5t103.5 -254.5z" />
    <glyph glyph-name="P" unicode="P" horiz-adv-x="635" 
d="M115 700h240q97 0 158.5 -59.5t61.5 -150.5t-61.5 -150.5t-158.5 -59.5h-210v-280h-30v700zM355 670h-210v-360h210q86 0 138 50.5t52 129.5t-52 129.5t-138 50.5z" />
    <glyph glyph-name="Q" unicode="Q" horiz-adv-x="820" 
d="M760 350q0 -67 -21.5 -126t-52.5 -94.5t-62 -62t-52 -37.5l-22 -10q2 -5 6 -14t19.5 -31.5t35.5 -39.5t56 -31t78 -14l60 5v-30q-25 -5 -60 -5q-48 0 -88 15.5t-63.5 37.5t-40 44t-22.5 37l-6 16q-55 -20 -115 -20q-143 0 -246.5 105.5t-103.5 254.5t103.5 254.5
t246.5 105.5t246.5 -105.5t103.5 -254.5zM730 350q0 138 -94 234t-226 96t-226 -96t-94 -234t94 -234t226 -96t226 96t94 234z" />
    <glyph glyph-name="R" unicode="R" horiz-adv-x="655" 
d="M115 700h255q93 0 151.5 -56.5t58.5 -143.5q0 -48 -16.5 -85.5t-40 -57t-47 -32.5t-40.5 -17l-16 -3l175 -305h-35l-170 300h-245v-300h-30v700zM370 670h-225v-340h225q82 0 131 47t49 123t-49 123t-131 47z" />
    <glyph glyph-name="S" unicode="S" horiz-adv-x="550" 
d="M460 185q0 42 -22 72t-56.5 46.5t-76.5 29t-84.5 26.5t-77 32.5t-56.5 52t-22 81.5q0 77 61 131t159 54q35 0 68 -9t55 -21t39 -24.5t25 -21.5l8 -9l-25 -25q-2 3 -6.5 8.5t-20.5 19.5t-34 24.5t-47.5 19t-61.5 8.5q-87 0 -138.5 -44.5t-51.5 -110.5q0 -41 22 -70
t56.5 -45t77 -28.5t84.5 -26.5t76.5 -33t56.5 -53.5t22 -83.5q0 -81 -63 -138t-162 -57q-41 0 -78.5 10.5t-61.5 25t-41.5 29t-25.5 25.5l-8 10l25 25q2 -4 6.5 -10.5t21.5 -22.5t37 -28.5t53.5 -23t71.5 -10.5q88 0 141.5 47.5t53.5 117.5z" />
    <glyph glyph-name="T" unicode="T" horiz-adv-x="540" 
d="M20 700h500v-30h-235v-670h-30v670h-235v30z" />
    <glyph glyph-name="U" unicode="U" horiz-adv-x="750" 
d="M375 20q102 0 171 70.5t69 176.5v433h30v-433q0 -117 -78.5 -197t-191.5 -80t-191.5 80t-78.5 197v433h30v-433q0 -106 69 -176.5t171 -70.5z" />
    <glyph glyph-name="V" unicode="V" horiz-adv-x="640" 
d="M305 0l-275 700h30l260 -655l260 655h30l-275 -700h-30z" />
    <glyph glyph-name="W" unicode="W" horiz-adv-x="980" 
d="M490 635l-205 -635h-30l-225 700h30l210 -650l210 650h20l210 -650l210 650h30l-225 -700h-30z" />
    <glyph glyph-name="X" unicode="X" horiz-adv-x="610" 
d="M530 700h35l-245 -340l260 -360h-35l-240 335l-240 -335h-35l260 360l-245 340h35l225 -315z" />
    <glyph glyph-name="Y" unicode="Y" horiz-adv-x="610" 
d="M65 700l240 -420l240 420h35l-260 -455v-245h-30v245l-260 455h35z" />
    <glyph glyph-name="Z" unicode="Z" horiz-adv-x="565" 
d="M480 670h-425v30h460v-30l-440 -640h450v-30h-485v30z" />
    <glyph glyph-name="bracketleft" unicode="[" horiz-adv-x="340" 
d="M140 680v-860h155v-30h-185v920h185v-30h-155z" />
    <glyph glyph-name="backslash" unicode="\" horiz-adv-x="410" 
d="M345 -210l-310 920h30l310 -920h-30z" />
    <glyph glyph-name="bracketright" unicode="]" horiz-adv-x="340" 
d="M200 -180v860h-155v30h185v-920h-185v30h155z" />
    <glyph glyph-name="asciicircum" unicode="^" horiz-adv-x="380" 
d="M175 700h30l120 -275h-30l-105 240l-105 -240h-30z" />
    <glyph glyph-name="underscore" unicode="_" horiz-adv-x="315" 
d="M325 -120v-30h-335v30h335z" />
    <glyph glyph-name="grave" unicode="`" horiz-adv-x="170" 
d="M65 690l75 -125h-25l-85 125h35z" />
    <glyph glyph-name="a" unicode="a" horiz-adv-x="505" 
d="M185 265l195 35v5q0 71 -40.5 113t-104.5 42q-42 0 -78.5 -19t-51.5 -37l-15 -19l-20 20q2 3 6.5 9t20 20.5t33 26t46 20.5t59.5 9q76 0 125.5 -51.5t49.5 -133.5v-305h-30v100l-6 -11.5t-19.5 -26.5t-34 -33.5t-51 -26.5t-69.5 -12q-69 0 -114.5 40.5t-45.5 94.5
q0 114 145 140zM200 19q75 0 127.5 54t52.5 132v65l-195 -35q-56 -10 -85.5 -39t-29.5 -71q0 -43 36 -74.5t94 -31.5z" />
    <glyph glyph-name="b" unicode="b" horiz-adv-x="595" 
d="M120 700v-340q2 5 7 14t22.5 31.5t38.5 39.5t55 31t72 14q85 0 152.5 -74t67.5 -176t-67.5 -176t-152.5 -74q-38 0 -72 13.5t-55.5 32.5t-37.5 38t-23 32l-7 14v-120h-30v700h30zM315 460q-77 0 -136 -64t-59 -156t59 -156t136 -64q74 0 132 64.5t58 155.5t-58 155.5
t-132 64.5z" />
    <glyph glyph-name="c" unicode="c" horiz-adv-x="520" 
d="M80 240q0 -93 60.5 -156.5t144.5 -63.5q29 0 56.5 9.5t45.5 22.5t31.5 26t19.5 22l7 10l25 -20l-8 -11t-22.5 -24t-37.5 -30t-51.5 -24t-65.5 -11q-95 0 -165 73t-70 177t70 177t165 73q34 0 65 -10.5t52 -25t37 -29t23 -25.5l8 -10l-25 -20q-2 4 -6.5 10t-19.5 21.5
t-32 27.5t-45 21.5t-57 9.5q-84 0 -144.5 -63.5t-60.5 -156.5z" />
    <glyph glyph-name="d" unicode="d" horiz-adv-x="595" 
d="M465 360v340h30v-700h-30v120q-2 -5 -7 -14t-22.5 -31.5t-38.5 -39.5t-55 -31t-72 -14q-85 0 -152.5 74t-67.5 176t67.5 176t152.5 74q38 0 72 -13.5t55.5 -32.5t37.5 -38t23 -32zM270 460q-74 0 -132 -64.5t-58 -155.5t58 -155.5t132 -64.5q77 0 136 64t59 156t-59 156
t-136 64z" />
    <glyph glyph-name="e" unicode="e" horiz-adv-x="550" 
d="M495 225h-415q4 -86 63 -145.5t142 -59.5q30 0 57.5 9.5t45.5 22.5t31.5 26t19.5 22l6 10l25 -20l-8 -11t-22 -24t-37 -30t-52 -24t-66 -11q-95 0 -165 73t-70 177q0 103 68.5 176.5t156.5 73.5t154 -72t66 -178v-15zM275 460q-76 0 -135.5 -61.5t-59.5 -143.5h385
q-4 89 -59 147t-131 58z" />
    <glyph glyph-name="f" unicode="f" horiz-adv-x="300" 
d="M265 480v-30h-120v-450h-30v450h-80v30h80v105q0 59 31 92t84 33q16 0 31 -4t22 -8l7 -3v-30q-25 15 -60 15q-38 0 -61.5 -25.5t-23.5 -69.5v-105h120z" />
    <glyph glyph-name="g" unicode="g" 
d="M80 250q0 -88 56 -149t129 -61t131.5 62.5t58.5 147.5t-58.5 147.5t-131.5 62.5t-129 -61t-56 -149zM455 30v105q-2 -5 -6.5 -13.5t-21.5 -30t-37 -38t-53.5 -30t-71.5 -13.5q-84 0 -149.5 70.5t-65.5 169.5t65.5 169.5t149.5 70.5q38 0 71.5 -13t54 -31t36 -36.5
t21.5 -31.5l7 -13v115h30v-450q0 -103 -64 -171.5t-156 -68.5q-35 0 -66.5 10.5t-52.5 25t-36.5 29t-22.5 25.5l-7 10l20 20q2 -4 6.5 -10t20.5 -21.5t33.5 -27.5t46 -21.5t58.5 -9.5q80 0 135 59.5t55 150.5z" />
    <glyph glyph-name="h" unicode="h" 
d="M120 700v-320l5.5 11.5t17.5 26.5t32 33.5t50 26.5t70 12q80 0 135 -58t55 -147v-285h-30v285q0 78 -45.5 126.5t-114.5 48.5q-76 0 -125.5 -52.5t-49.5 -137.5v-270h-30v700h30z" />
    <glyph glyph-name="i" unicode="i" horiz-adv-x="220" 
d="M90 0v480h30v-480h-30zM130 655q0 -25 -25 -25t-25 25t25 25t25 -25z" />
    <glyph glyph-name="j" unicode="j" horiz-adv-x="220" 
d="M90 -85v565h30v-565q0 -55 -33 -90t-82 -35q-16 0 -31 4t-22 8l-7 3v30q25 -15 60 -15q38 0 61.5 25.5t23.5 69.5zM130 655q0 -25 -25 -25t-25 25t25 25t25 -25z" />
    <glyph glyph-name="k" unicode="k" horiz-adv-x="495" 
d="M120 125v-125h-30v700h30v-535l285 315h40l-180 -195l205 -285h-35l-185 260h-5z" />
    <glyph glyph-name="l" unicode="l" horiz-adv-x="220" 
d="M120 700v-700h-30v700h30z" />
    <glyph glyph-name="m" unicode="m" horiz-adv-x="870" 
d="M745 0v285q0 81 -42.5 128t-107.5 47q-62 0 -106 -51t-44 -134v-275h-30v285q0 81 -42.5 128t-107.5 47q-62 0 -106 -51t-44 -134v-275h-30v480h30v-85q1 4 4.5 10.5t15.5 22.5t27.5 28.5t43 23t59.5 10.5q36 0 66.5 -12.5t48 -30t29.5 -35t17 -30.5l4 -12q1 5 4.5 13
t16.5 28.5t29.5 36.5t47.5 29t67 13q77 0 128.5 -56.5t51.5 -148.5v-285h-30z" />
    <glyph glyph-name="n" unicode="n" horiz-adv-x="575" 
d="M115 480v-100l5.5 11.5t17.5 26.5t32 33.5t50 26.5t70 12q80 0 135 -58t55 -147v-285h-30v285q0 78 -45.5 126.5t-114.5 48.5q-76 0 -125.5 -52.5t-49.5 -137.5v-270h-30v480h30z" />
    <glyph glyph-name="o" unicode="o" 
d="M490 240q0 92 -61 156t-144 64q-84 0 -144.5 -63.5t-60.5 -156.5t60.5 -156.5t144.5 -63.5t144.5 63.5t60.5 156.5zM520 240q0 -104 -70 -177t-165 -73t-165 73t-70 177t70 177t165 73t165 -73t70 -177z" />
    <glyph glyph-name="p" unicode="p" horiz-adv-x="590" 
d="M115 120v-330h-30v690h30v-120q2 5 7 14t22.5 31.5t38.5 39.5t55 31t72 14q85 0 152.5 -74t67.5 -176t-67.5 -176t-152.5 -74q-38 0 -72 13.5t-55.5 32.5t-37.5 38t-23 32zM310 20q74 0 132 64.5t58 155.5t-58 155.5t-132 64.5q-77 0 -136 -64t-59 -156t59 -156t136 -64z
" />
    <glyph glyph-name="q" unicode="q" horiz-adv-x="590" 
d="M465 -210v330q-2 -5 -7 -14t-22.5 -31.5t-38.5 -39.5t-55 -31t-72 -14q-85 0 -152.5 74t-67.5 176t67.5 176t152.5 74q38 0 72 -13.5t55.5 -32.5t37.5 -38t23 -32l7 -14v120h30v-690h-30zM270 20q77 0 136 64t59 156t-59 156t-136 64q-74 0 -132 -64.5t-58 -155.5
t58 -155.5t132 -64.5z" />
    <glyph glyph-name="r" unicode="r" horiz-adv-x="335" 
d="M310 460h-20q-76 0 -125.5 -52.5t-49.5 -137.5v-270h-30v480h30v-100l5.5 11.5t17.5 26.5t32 33.5t50 26.5t70 12h20v-30z" />
    <glyph glyph-name="s" unicode="s" horiz-adv-x="430" 
d="M360 420l-25 -25q-5 7 -14.5 18t-42 29t-68.5 18q-51 0 -85.5 -30.5t-34.5 -69.5q0 -34 29 -55.5t70 -32.5t82 -24t70 -41t29 -72q0 -61 -46 -103t-119 -42q-47 0 -88 20t-59 40l-18 20l25 25q2 -3 6 -8t17.5 -18t28.5 -23t39 -18t49 -8q62 0 98.5 32.5t36.5 82.5
q0 36 -29 58t-70 33.5l-82 24t-70 39.5t-29 70q0 50 44 90t106 40q42 0 79.5 -17.5t54.5 -34.5z" />
    <glyph glyph-name="t" unicode="t" horiz-adv-x="335" 
d="M125 515v125h30v-160h110v-30h-110v-335q0 -44 23.5 -69.5t61.5 -25.5q16 0 31 4t22 8l7 3v-30q-25 -15 -60 -15q-53 0 -84 33t-31 92v335h-100v30h70q30 0 30 35z" />
    <glyph glyph-name="u" unicode="u" 
d="M450 0v100l-5.5 -11.5t-18.5 -26.5t-33 -33.5t-50 -26.5t-68 -12q-80 0 -135 58t-55 147v285h30v-285q0 -78 45.5 -126.5t114.5 -48.5q72 0 123.5 53.5t51.5 131.5v275h30v-480h-30z" />
    <glyph glyph-name="v" unicode="v" horiz-adv-x="470" 
d="M245 0h-30l-195 480h30l180 -440l180 440h30z" />
    <glyph glyph-name="w" unicode="w" horiz-adv-x="700" 
d="M335 480h20l140 -435l145 435h30l-160 -480h-30l-135 420l-135 -420h-30l-160 480h30l145 -435z" />
    <glyph glyph-name="x" unicode="x" horiz-adv-x="450" 
d="M235 250l185 -250h-35l-165 225l-165 -225h-35l185 250l-170 230h35l150 -205l150 205h35z" />
    <glyph glyph-name="y" unicode="y" horiz-adv-x="470" 
d="M175 -100l40 100l-195 480h30l180 -440l180 440h30l-235 -580q-23 -58 -52 -84t-73 -26q-11 0 -21 2.5t-15 5.5l-4 2v30q15 -10 40 -10q63 0 95 80z" />
    <glyph glyph-name="z" unicode="z" horiz-adv-x="430" 
d="M385 480v-30l-325 -420h335v-30h-370v30l325 420h-315v30h350z" />
    <glyph glyph-name="braceleft" unicode="{" horiz-adv-x="355" 
d="M65 235v30q41 0 63 20.5t22 54.5v245q0 125 135 125h25v-30h-25q-56 0 -80.5 -23t-24.5 -72v-245q0 -26 -8.5 -45t-21 -28t-21 -12.5t-13.5 -4.5q4 -1 9.5 -2.5t15.5 -8t18 -15.5t14.5 -26t6.5 -38v-245q0 -49 24.5 -72t80.5 -23h25v-30h-25q-135 0 -135 125v245
q0 34 -22 54.5t-63 20.5z" />
    <glyph glyph-name="bar" unicode="|" horiz-adv-x="320" 
d="M175 710v-920h-30v920h30z" />
    <glyph glyph-name="braceright" unicode="}" horiz-adv-x="355" 
d="M290 265v-30q-41 0 -63 -20.5t-22 -54.5v-245q0 -125 -135 -125h-25v30h25q56 0 80.5 23t24.5 72v245q0 21 6.5 38t14.5 26t18 15.5t15.5 8t9.5 2.5q-5 1 -13.5 4.5t-21 12.5t-21 28t-8.5 45v245q0 49 -24.5 72t-80.5 23h-25v30h25q135 0 135 -125v-245q0 -34 22 -54.5
t63 -20.5z" />
    <glyph glyph-name="asciitilde" unicode="~" horiz-adv-x="520" 
d="M165 315q-29 0 -51.5 -16.5t-30.5 -32.5l-8 -16l-25 15q1 3 4 8.5t13.5 19.5t22.5 24.5t32.5 19t42.5 8.5q32 0 59 -11.5t43.5 -26t39.5 -26t48 -11.5q29 0 51.5 16t30.5 32l8 17l25 -15q-1 -3 -4 -8.5t-13.5 -19.5t-22.5 -24.5t-32.5 -19t-42.5 -8.5q-40 0 -72 19
t-59.5 37.5t-58.5 18.5z" />
    <glyph glyph-name="nbspace" unicode="&#xa0;" horiz-adv-x="180" 
 />
    <glyph glyph-name="exclamdown" unicode="&#xa1;" horiz-adv-x="280" 
d="M125 330h30v-540h-30v540zM165 455q0 -25 -25 -25t-25 25t25 25t25 -25z" />
    <glyph glyph-name="cent" unicode="&#xa2;" horiz-adv-x="520" 
d="M80 240q0 -93 60.5 -156.5t144.5 -63.5q29 0 56.5 9.5t45.5 22.5t31.5 26t19.5 22l7 10l25 -20q-2 -4 -7 -10t-21 -22t-34.5 -29t-47.5 -24.5t-60 -14.5v-100h-30v100q-91 8 -155.5 79t-64.5 171t64.5 171t155.5 79v100h30v-100q31 -3 59.5 -14t48 -25.5t34 -28
t21.5 -22.5l7 -10l-25 -20q-2 4 -6.5 10t-19.5 21.5t-32 27.5t-45 21.5t-57 9.5q-84 0 -144.5 -63.5t-60.5 -156.5z" />
    <glyph glyph-name="sterling" unicode="&#xa3;" horiz-adv-x="545" 
d="M145 505q0 89 55 147t135 58q31 0 59.5 -8t48 -20t34 -24t21.5 -20l7 -8l-20 -20q-2 3 -6.5 7.5t-19 16.5t-30.5 21.5t-41.5 17t-52.5 7.5q-69 0 -114.5 -48.5t-45.5 -126.5v-165h210v-30h-210v-195q0 -29 -11.5 -50t-22.5 -28l-11 -7h375v-30h-445v30q34 0 59.5 25.5
t25.5 59.5v195h-70v30h70v165z" />
    <glyph glyph-name="currency" unicode="&#xa4;" horiz-adv-x="650" 
d="M50 300v30h90v370h240q93 0 151.5 -56.5t58.5 -143.5t-58.5 -143.5t-151.5 -56.5h-210v-120h270v-30h-270v-150h-30v150h-90v30h90v120h-90zM380 670h-210v-340h210q82 0 131 47t49 123t-49 123t-131 47z" />
    <glyph glyph-name="yen" unicode="&#xa5;" horiz-adv-x="610" 
d="M65 700l240 -415l240 415h35l-235 -405h145v-30h-160l-10 -20v-80h170v-30h-170v-135h-30v135h-170v30h170v80l-10 20h-160v30h145l-235 405h35z" />
    <glyph glyph-name="brokenbar" unicode="&#xa6;" horiz-adv-x="320" 
d="M145 170h30v-380h-30v380zM175 330h-30v380h30v-380z" />
    <glyph glyph-name="section" unicode="&#xa7;" horiz-adv-x="520" 
d="M425 280q0 24 -11 44.5t-25.5 33.5t-40.5 26.5t-45 20.5l-51 18t-47 17q-4 -1 -11.5 -3.5t-26.5 -12t-33.5 -21.5t-26.5 -34.5t-12 -48.5q0 -24 11 -44.5t26 -34t41.5 -27t45.5 -20.5l50.5 -18l45.5 -16q4 1 11.5 3.5t26.5 11.5t33.5 21.5t26.5 34.5t12 49zM255 -80
q62 0 98.5 31.5t36.5 78.5q0 41 -33.5 69t-81.5 45.5l-95.5 36t-81 53.5t-33.5 86q0 29 11.5 53.5t27.5 39t32 24.5t28 14l11 4q-3 1 -8 3.5t-18 12t-23 21t-18 31.5t-8 42q0 58 47.5 101.5t117.5 43.5q42 0 81 -17.5t56 -34.5l18 -18l-25 -25q-6 7 -16.5 18t-44 29
t-69.5 18q-58 0 -96.5 -34.5t-38.5 -80.5q0 -42 33.5 -70t81 -43.5t95.5 -33t81.5 -52t33.5 -86.5q0 -29 -11.5 -54t-27.5 -39t-32 -24.5t-28 -14.5l-11 -3q3 -1 8 -4t18 -13.5t23 -22.5t18 -32.5t8 -42.5q0 -58 -46 -99t-119 -41q-29 0 -57.5 9t-48 21t-34.5 24.5t-23 21.5
l-7 9l25 25q2 -3 6.5 -8.5t18.5 -19.5t30 -24.5t40.5 -19t49.5 -8.5z" />
    <glyph glyph-name="dieresis" unicode="&#xa8;" horiz-adv-x="270" 
d="M30 640q0 25 25 25t25 -25t-25 -25t-25 25zM190 640q0 25 25 25t25 -25t-25 -25t-25 25z" />
    <glyph glyph-name="copyright" unicode="&#xa9;" horiz-adv-x="850" 
d="M100 350q0 -138 95 -234t230 -96t230 96t95 234t-95 234t-230 96t-230 -96t-95 -234zM285 350q0 -70 43 -115t107 -45q22 0 43 6.5t34 16t23.5 19.5t14.5 16l5 7l20 -20l-5.5 -8t-16.5 -18t-28 -23t-39 -18t-51 -8q-76 0 -128 54t-52 136t52 136t128 54q42 0 77 -19
t49 -37l14 -19l-20 -20q-2 3 -5 7t-14 15.5t-24 20t-34 15.5t-43 7q-64 0 -107 -45t-43 -115zM780 350q0 -150 -104 -255t-251 -105t-251 105t-104 255t104 255t251 105t251 -105t104 -255z" />
    <glyph glyph-name="ordfeminine" unicode="&#xaa;" horiz-adv-x="325" 
d="M120 405q-37 0 -63.5 24.5t-26.5 55.5q0 34 25 58t70 32l105 20v15q0 70 -75 70q-22 0 -42 -10t-29 -20l-9 -10l-25 20q4 6 12.5 14t36 22t56.5 14q48 0 76.5 -27.5t28.5 -72.5v-195h-30v50q-1 -2 -3.5 -6.5t-12 -14.5t-21 -18t-31.5 -14.5t-42 -6.5zM230 565l-105 -20
q-65 -13 -65 -60q0 -20 18 -35t47 -15q48 0 76.5 31.5t28.5 81.5v17z" />
    <glyph glyph-name="guillemotleft" unicode="&#xab;" horiz-adv-x="415" 
d="M200 395l-110 -155l110 -155h-35l-110 155l110 155h35zM360 395l-110 -155l110 -155h-35l-110 155l110 155h35z" />
    <glyph glyph-name="logicalnot" unicode="&#xac;" horiz-adv-x="455" 
d="M405 370v-170h-30v140h-325v30h355z" />
    <glyph glyph-name="uni00AD" unicode="&#xad;" horiz-adv-x="410" 
d="M365 310v-30h-320v30h320z" />
    <glyph glyph-name="registered" unicode="&#xae;" horiz-adv-x="850" 
d="M485 325l90 -160h-35l-85 155h-110v-155h-30v370h125q56 0 88 -30.5t32 -79.5q0 -38 -19 -63t-37 -31zM345 505v-155h95q44 0 67 20t23 55q0 80 -90 80h-95zM100 350q0 -138 95 -234t230 -96t230 96t95 234t-95 234t-230 96t-230 -96t-95 -234zM780 350q0 -150 -104 -255
t-251 -105t-251 105t-104 255t104 255t251 105t251 -105t104 -255z" />
    <glyph glyph-name="macron" unicode="&#xaf;" horiz-adv-x="320" 
d="M290 680v-30h-260v30h260z" />
    <glyph glyph-name="degree" unicode="&#xb0;" horiz-adv-x="350" 
d="M300 585q0 -53 -36 -89t-89 -36t-89 36t-36 89t36 89t89 36t89 -36t36 -89zM270 585q0 41 -27 68t-68 27t-68 -27t-27 -68t27 -68t68 -27t68 27t27 68z" />
    <glyph glyph-name="plusminus" unicode="&#xb1;" horiz-adv-x="500" 
d="M50 61v29h400v-29h-400zM235 590h30v-195h190v-30h-190v-195h-30v195h-190v30h190v195z" />
    <glyph glyph-name="twosuperior" unicode="&#xb2;" horiz-adv-x="275" 
d="M245 450h-225q0 41 20 73t49 52t57.5 37.5t48.5 40.5t20 51q0 31 -21 51t-54 20q-29 0 -50 -15t-28 -30l-7 -15l-30 10q1 3 3 8.5t11.5 19.5t21 24.5t33 19t46.5 8.5q45 0 75 -29t30 -71q0 -33 -17.5 -59t-44 -43.5l-54 -34t-50.5 -39t-30 -49.5h196v-30z" />
    <glyph glyph-name="threesuperior" unicode="&#xb3;" horiz-adv-x="285" 
d="M195 635q2 -1 6.5 -2t14.5 -7.5t18 -15t14.5 -24.5t6.5 -36q0 -45 -31 -75t-79 -30q-36 0 -67 15t-44 30l-14 15l20 20q4 -6 12.5 -14t36 -22t56.5 -14q37 0 58.5 20.5t21.5 54.5q0 31 -21.5 50.5t-58.5 19.5h-50v30h45q33 0 51.5 17.5t18.5 47.5q0 27 -19.5 43.5
t-55.5 16.5q-24 0 -45.5 -10t-30.5 -20l-9 -10l-20 20q4 6 12.5 14t36 22t56.5 14q48 0 76.5 -25.5t28.5 -64.5q0 -17 -4.5 -31.5t-11 -23t-13.5 -14.5t-11 -8z" />
    <glyph glyph-name="acute" unicode="&#xb4;" horiz-adv-x="170" 
d="M30 565l75 125h35l-85 -125h-25z" />
    <glyph glyph-name="mu" unicode="&#xb5;" 
d="M525 -5q-38 0 -61.5 24.5t-23.5 65.5v15q-2 -4 -5 -11.5t-16.5 -26.5t-30.5 -33.5t-47 -26.5t-66 -12q-31 0 -58.5 9.5t-45.5 22.5t-31 26t-19 22l-6 10v-290h-30v690h30v-290q0 -74 46 -122t114 -48q70 0 117.5 53t47.5 132v275h30v-395q0 -26 16 -43t39 -17l30 5v-30
q-10 -5 -30 -5z" />
    <glyph glyph-name="paragraph" unicode="&#xb6;" horiz-adv-x="510" 
d="M210 -100v490q-60 0 -107.5 47.5t-47.5 107.5t47.5 107.5t107.5 47.5h185v-800h-30v770h-125v-770h-30z" />
    <glyph glyph-name="periodcentered" unicode="&#xb7;" horiz-adv-x="180" 
d="M115 250q0 -25 -25 -25t-25 25t25 25t25 -25z" />
    <glyph glyph-name="cedilla" unicode="&#xb8;" horiz-adv-x="220" 
d="M110 20h25l-40 -80q10 5 25 5q30 0 50 -20t20 -50q0 -31 -24 -53t-61 -22q-18 0 -37 6t-28 12l-10 7l15 20q25 -20 60 -20q25 0 42.5 15.5t17.5 34.5t-13 32t-32 13q-9 0 -17.5 -2.5t-12.5 -5.5l-5 -2l-20 20z" />
    <glyph glyph-name="onesuperior" unicode="&#xb9;" horiz-adv-x="195" 
d="M110 800h25v-350h-30v300q-25 -30 -75 -35v30q22 2 42 16t29 27z" />
    <glyph glyph-name="ordmasculine" unicode="&#xba;" horiz-adv-x="350" 
d="M60 555q0 -55 33 -90t82 -35t82 35t33 90t-33 90t-82 35t-82 -35t-33 -90zM320 555q0 -67 -42 -111t-103 -44t-103 44t-42 111t42 111t103 44t103 -44t42 -111z" />
    <glyph glyph-name="guillemotright" unicode="&#xbb;" horiz-adv-x="415" 
d="M325 240l-110 155h35l110 -155l-110 -155h-35zM165 240l-110 155h35l110 -155l-110 -155h-35z" />
    <glyph glyph-name="onequarter" unicode="&#xbc;" horiz-adv-x="665" 
d="M75 0l440 700h30l-440 -700h-30zM120 700h25v-350h-30v300q-25 -30 -75 -35v30q22 2 42 16t29 27zM570 120h50v-30h-50v-90h-30v90h-175v30l170 230h35v-230zM540 120v195l-145 -195h145z" />
    <glyph glyph-name="onehalf" unicode="&#xbd;" horiz-adv-x="690" 
d="M75 0l440 700h30l-440 -700h-30zM120 700h25v-350h-30v300q-25 -30 -75 -35v30q22 2 42 16t29 27zM640 0h-225q0 41 20 73t48.5 52t57.5 37.5t49 40.5t20 51q0 31 -21 51t-54 20q-29 0 -50 -15t-28 -30l-7 -15l-30 10q1 3 3 8.5t11.5 19.5t21 24.5t33 19t46.5 8.5
q45 0 75 -29t30 -71q0 -33 -17.5 -59t-44 -43.5l-54 -34t-50.5 -39t-30 -49.5h196v-30z" />
    <glyph glyph-name="threequarters" unicode="&#xbe;" horiz-adv-x="730" 
d="M135 0l440 700h30l-440 -700h-30zM635 120h50v-30h-50v-90h-30v90h-175v30l170 230h35v-230zM605 120v195l-145 -195h145zM205 535q2 -1 6.5 -2t14.5 -7.5t18 -15t14.5 -24.5t6.5 -36q0 -45 -31 -75t-79 -30q-36 0 -67 15t-44 30l-14 15l20 20q4 -6 12.5 -14t36 -22
t56.5 -14q37 0 58.5 20.5t21.5 54.5q0 31 -21.5 50.5t-58.5 19.5h-50v30h45q33 0 51.5 17.5t18.5 47.5q0 27 -19.5 43.5t-55.5 16.5q-24 0 -45.5 -10t-30.5 -20l-9 -10l-20 20q4 6 12.5 14t36 22t56.5 14q48 0 76.5 -25.5t28.5 -64.5q0 -17 -4.5 -31.5t-11 -23t-13.5 -14.5
t-11 -8z" />
    <glyph glyph-name="questiondown" unicode="&#xbf;" horiz-adv-x="445" 
d="M235 330h30v-40q0 -47 -20.5 -84t-50 -61.5l-59 -48.5t-50 -57t-20.5 -74q0 -63 48.5 -109t126.5 -46q42 0 75.5 14t51 34t29.5 39.5t16 33.5l3 14l30 -10q-1 -6 -4.5 -16.5t-19 -37.5t-36 -47t-59 -37t-86.5 -17q-89 0 -147 55t-58 130q0 48 20.5 84.5t50 60l59 46.5
t50 56.5t20.5 77.5v40zM275 455q0 -25 -25 -25t-25 25t25 25t25 -25z" />
    <glyph glyph-name="Agrave" unicode="&#xc0;" horiz-adv-x="670" 
d="M510 245l-175 420l-175 -420h350zM520 215h-370l-90 -215h-30l290 700h30l290 -700h-30zM270 920l75 -125h-25l-85 125h35z" />
    <glyph glyph-name="Aacute" unicode="&#xc1;" horiz-adv-x="670" 
d="M510 245l-175 420l-175 -420h350zM520 215h-370l-90 -215h-30l290 700h30l290 -700h-30zM325 795l75 125h35l-85 -125h-25z" />
    <glyph glyph-name="Acircumflex" unicode="&#xc2;" horiz-adv-x="670" 
d="M510 245l-175 420l-175 -420h350zM520 215h-370l-90 -215h-30l290 700h30l290 -700h-30zM350 920l105 -125h-35l-85 100l-85 -100h-35l105 125h30z" />
    <glyph glyph-name="Atilde" unicode="&#xc3;" horiz-adv-x="670" 
d="M510 245l-175 420l-175 -420h350zM520 215h-370l-90 -215h-30l290 700h30l290 -700h-30zM275 875q-20 0 -30 -16t-10 -59h-30q0 105 70 105q22 0 40.5 -11.5t30 -26t27 -26t32.5 -11.5q20 0 30 16t10 59h30q0 -105 -70 -105q-22 0 -40.5 11.5t-30 26t-27 26t-32.5 11.5z
" />
    <glyph glyph-name="Adieresis" unicode="&#xc4;" horiz-adv-x="670" 
d="M510 245l-175 420l-175 -420h350zM520 215h-370l-90 -215h-30l290 700h30l290 -700h-30zM230 860q0 25 25 25t25 -25t-25 -25t-25 25zM390 860q0 25 25 25t25 -25t-25 -25t-25 25z" />
    <glyph glyph-name="Aring" unicode="&#xc5;" horiz-adv-x="670" 
d="M510 245l-175 420l-175 -420h350zM520 215h-370l-90 -215h-30l290 700h30l290 -700h-30zM270 860q0 -26 19.5 -45.5t45.5 -19.5t45.5 19.5t19.5 45.5t-19.5 45.5t-45.5 19.5t-45.5 -19.5t-19.5 -45.5zM430 860q0 -38 -29 -66.5t-66 -28.5t-66 28.5t-29 66.5t29 66.5
t66 28.5t66 -28.5t29 -66.5z" />
    <glyph glyph-name="AE" unicode="&#xc6;" horiz-adv-x="940" 
d="M515 30h385v-30h-415v225h-345l-125 -225h-35l390 700h520v-30h-375v-290h295v-30h-295v-320zM390 670l-235 -415h330v415h-95z" />
    <glyph glyph-name="Ccedilla" unicode="&#xc7;" horiz-adv-x="745" 
d="M60 350q0 149 103.5 254.5t246.5 105.5q53 0 102.5 -15.5t82 -37.5t57.5 -44t36 -37l12 -16l-25 -20q-4 6 -11 15.5t-32 33.5t-53 42.5t-74 33.5t-95 15q-132 0 -226 -96t-94 -234t94 -234t226 -96q49 0 94.5 14.5t75 35t52 41t32.5 35.5l11 14l25 -20q-4 -6 -12 -16
t-35 -35.5t-57.5 -45t-79.5 -36t-101 -17.5l-25 -50q10 5 25 5q30 0 50 -20t20 -50q0 -31 -24 -53t-61 -22q-18 0 -37 6t-29 12l-9 7l15 20q25 -20 60 -20q25 0 42.5 15.5t17.5 34.5t-13 32t-32 13q-9 0 -17.5 -2.5t-13.5 -5.5l-4 -2l-20 20l30 61q-137 8 -233.5 111.5
t-96.5 247.5z" />
    <glyph glyph-name="Egrave" unicode="&#xc8;" horiz-adv-x="625" 
d="M145 30h440v-30h-470v700h460v-30h-430v-290h350v-30h-350v-320zM295 920l75 -125h-25l-85 125h35z" />
    <glyph glyph-name="Eacute" unicode="&#xc9;" horiz-adv-x="625" 
d="M145 30h440v-30h-470v700h460v-30h-430v-290h350v-30h-350v-320zM325 795l75 125h35l-85 -125h-25z" />
    <glyph glyph-name="Ecircumflex" unicode="&#xca;" horiz-adv-x="625" 
d="M145 30h440v-30h-470v700h460v-30h-430v-290h350v-30h-350v-320zM360 915l105 -125h-35l-85 100l-85 -100h-35l105 125h30z" />
    <glyph glyph-name="Edieresis" unicode="&#xcb;" horiz-adv-x="625" 
d="M145 30h440v-30h-470v700h460v-30h-430v-290h350v-30h-350v-320zM240 860q0 25 25 25t25 -25t-25 -25t-25 25zM400 860q0 25 25 25t25 -25t-25 -25t-25 25z" />
    <glyph glyph-name="Igrave" unicode="&#xcc;" horiz-adv-x="260" 
d="M115 0v700h30v-700h-30zM70 925l75 -125h-25l-85 125h35z" />
    <glyph glyph-name="Iacute" unicode="&#xcd;" horiz-adv-x="260" 
d="M115 0v700h30v-700h-30zM120 795l75 125h35l-85 -125h-25z" />
    <glyph glyph-name="Icircumflex" unicode="&#xce;" horiz-adv-x="260" 
d="M115 0v700h30v-700h-30zM145 915l105 -125h-35l-85 100l-85 -100h-35l105 125h30z" />
    <glyph glyph-name="Idieresis" unicode="&#xcf;" horiz-adv-x="260" 
d="M115 0v700h30v-700h-30zM25 860q0 25 25 25t25 -25t-25 -25t-25 25zM185 860q0 25 25 25t25 -25t-25 -25t-25 25z" />
    <glyph glyph-name="Eth" unicode="&#xd0;" horiz-adv-x="745" 
d="M130 700h190q160 0 262.5 -99.5t102.5 -250.5t-102.5 -250.5t-262.5 -99.5h-190v335h-105v30h105v335zM320 670h-160v-305h180v-30h-180v-305h160q149 0 242 90t93 230t-93 230t-242 90z" />
    <glyph glyph-name="Ntilde" unicode="&#xd1;" horiz-adv-x="770" 
d="M625 700h30v-700h-25l-485 645v-645h-30v700h25l485 -645v645zM325 875q-20 0 -30 -16t-10 -59h-30q0 105 70 105q22 0 40.5 -11.5t30 -26t27 -26t32.5 -11.5q20 0 30 16t10 59h30q0 -105 -70 -105q-22 0 -40.5 11.5t-30 26t-27 26t-32.5 11.5z" />
    <glyph glyph-name="Ograve" unicode="&#xd2;" horiz-adv-x="820" 
d="M730 350q0 138 -94 234t-226 96t-226 -96t-94 -234t94 -234t226 -96t226 96t94 234zM760 350q0 -149 -103.5 -254.5t-246.5 -105.5t-246.5 105.5t-103.5 254.5t103.5 254.5t246.5 105.5t246.5 -105.5t103.5 -254.5zM350 920l75 -125h-25l-85 125h35z" />
    <glyph glyph-name="Oacute" unicode="&#xd3;" horiz-adv-x="820" 
d="M730 350q0 138 -94 234t-226 96t-226 -96t-94 -234t94 -234t226 -96t226 96t94 234zM760 350q0 -149 -103.5 -254.5t-246.5 -105.5t-246.5 105.5t-103.5 254.5t103.5 254.5t246.5 105.5t246.5 -105.5t103.5 -254.5zM395 795l75 125h35l-85 -125h-25z" />
    <glyph glyph-name="Ocircumflex" unicode="&#xd4;" horiz-adv-x="820" 
d="M730 350q0 138 -94 234t-226 96t-226 -96t-94 -234t94 -234t226 -96t226 96t94 234zM760 350q0 -149 -103.5 -254.5t-246.5 -105.5t-246.5 105.5t-103.5 254.5t103.5 254.5t246.5 105.5t246.5 -105.5t103.5 -254.5zM425 915l105 -125h-35l-85 100l-85 -100h-35l105 125
h30z" />
    <glyph glyph-name="Otilde" unicode="&#xd5;" horiz-adv-x="820" 
d="M730 350q0 138 -94 234t-226 96t-226 -96t-94 -234t94 -234t226 -96t226 96t94 234zM760 350q0 -149 -103.5 -254.5t-246.5 -105.5t-246.5 105.5t-103.5 254.5t103.5 254.5t246.5 105.5t246.5 -105.5t103.5 -254.5zM350 875q-20 0 -30 -16t-10 -59h-30q0 105 70 105
q22 0 40.5 -11.5t30 -26t27 -26t32.5 -11.5q20 0 30 16t10 59h30q0 -105 -70 -105q-22 0 -40.5 11.5t-30 26t-27 26t-32.5 11.5z" />
    <glyph glyph-name="Odieresis" unicode="&#xd6;" horiz-adv-x="820" 
d="M730 350q0 138 -94 234t-226 96t-226 -96t-94 -234t94 -234t226 -96t226 96t94 234zM760 350q0 -149 -103.5 -254.5t-246.5 -105.5t-246.5 105.5t-103.5 254.5t103.5 254.5t246.5 105.5t246.5 -105.5t103.5 -254.5zM305 860q0 25 25 25t25 -25t-25 -25t-25 25zM465 860
q0 25 25 25t25 -25t-25 -25t-25 25z" />
    <glyph glyph-name="multiply" unicode="&#xd7;" horiz-adv-x="420" 
d="M210 285l-140 -140l-25 25l140 140l-140 140l25 25l140 -140l140 140l25 -25l-140 -140l140 -140l-25 -25z" />
    <glyph glyph-name="Oslash" unicode="&#xd8;" horiz-adv-x="820" 
d="M760 350q0 -149 -103.5 -254.5t-246.5 -105.5q-135 0 -235 94l-90 -94l-25 20l93 96q-93 103 -93 244q0 149 103.5 254.5t246.5 105.5q133 0 235 -94l90 94l25 -20l-93 -97q93 -104 93 -243zM730 350q0 128 -84 222l-451 -467q91 -85 215 -85q132 0 226 96t94 234z
M90 350q0 -127 83 -223l451 468q-91 85 -214 85q-132 0 -226 -96t-94 -234z" />
    <glyph glyph-name="Ugrave" unicode="&#xd9;" horiz-adv-x="750" 
d="M375 20q102 0 171 70.5t69 176.5v433h30v-433q0 -117 -78.5 -197t-191.5 -80t-191.5 80t-78.5 197v433h30v-433q0 -106 69 -176.5t171 -70.5zM320 925l75 -125h-25l-85 125h35z" />
    <glyph glyph-name="Uacute" unicode="&#xda;" horiz-adv-x="750" 
d="M375 20q102 0 171 70.5t69 176.5v433h30v-433q0 -117 -78.5 -197t-191.5 -80t-191.5 80t-78.5 197v433h30v-433q0 -106 69 -176.5t171 -70.5zM355 795l75 125h35l-85 -125h-25z" />
    <glyph glyph-name="Ucircumflex" unicode="&#xdb;" horiz-adv-x="750" 
d="M375 20q102 0 171 70.5t69 176.5v433h30v-433q0 -117 -78.5 -197t-191.5 -80t-191.5 80t-78.5 197v433h30v-433q0 -106 69 -176.5t171 -70.5zM390 915l105 -125h-35l-85 100l-85 -100h-35l105 125h30z" />
    <glyph glyph-name="Udieresis" unicode="&#xdc;" horiz-adv-x="750" 
d="M375 20q102 0 171 70.5t69 176.5v433h30v-433q0 -117 -78.5 -197t-191.5 -80t-191.5 80t-78.5 197v433h30v-433q0 -106 69 -176.5t171 -70.5zM265 860q0 25 25 25t25 -25t-25 -25t-25 25zM425 860q0 25 25 25t25 -25t-25 -25t-25 25z" />
    <glyph glyph-name="Yacute" unicode="&#xdd;" horiz-adv-x="610" 
d="M65 700l240 -420l240 420h35l-260 -455v-245h-30v245l-260 455h35zM295 795l75 125h35l-85 -125h-25z" />
    <glyph glyph-name="Thorn" unicode="&#xde;" horiz-adv-x="635" 
d="M145 580v-440h165q104 0 169.5 62.5t65.5 157.5t-65.5 157.5t-169.5 62.5h-165zM145 610h165q115 0 190 -72t75 -178t-75 -178t-190 -72h-165v-130h-30v740h30v-110z" />
    <glyph glyph-name="germandbls" unicode="&#xdf;" horiz-adv-x="570" 
d="M350 385q6 -1 16.5 -4t37.5 -16.5t47 -32t37 -54t17 -78.5q0 -83 -59.5 -141.5t-145.5 -58.5h-30v30h30q75 0 125 49t50 121q0 68 -50.5 116.5t-124.5 48.5h-30v30h5q63 0 106.5 42.5t43.5 102.5q0 57 -43.5 98.5t-106.5 41.5q-67 0 -111 -42t-44 -103v-535h-30v535
q0 72 53.5 123.5t131.5 51.5q74 0 127 -51t53 -119q0 -32 -11 -60t-26.5 -44.5t-30.5 -28.5t-26 -17z" />
    <glyph glyph-name="agrave" unicode="&#xe0;" horiz-adv-x="505" 
d="M185 265l195 35v5q0 71 -40.5 113t-104.5 42q-42 0 -78.5 -19t-51.5 -37l-15 -19l-20 20q2 3 6.5 9t20 20.5t33 26t46 20.5t59.5 9q76 0 125.5 -51.5t49.5 -133.5v-305h-30v100l-6 -11.5t-19.5 -26.5t-34 -33.5t-51 -26.5t-69.5 -12q-69 0 -114.5 40.5t-45.5 94.5
q0 114 145 140zM200 19q75 0 127.5 54t52.5 132v65l-195 -35q-56 -10 -85.5 -39t-29.5 -71q0 -43 36 -74.5t94 -31.5zM190 695l75 -125h-25l-85 125h35z" />
    <glyph glyph-name="aacute" unicode="&#xe1;" horiz-adv-x="505" 
d="M185 265l195 35v5q0 71 -40.5 113t-104.5 42q-42 0 -78.5 -19t-51.5 -37l-15 -19l-20 20q2 3 6.5 9t20 20.5t33 26t46 20.5t59.5 9q76 0 125.5 -51.5t49.5 -133.5v-305h-30v100l-6 -11.5t-19.5 -26.5t-34 -33.5t-51 -26.5t-69.5 -12q-69 0 -114.5 40.5t-45.5 94.5
q0 114 145 140zM200 19q75 0 127.5 54t52.5 132v65l-195 -35q-56 -10 -85.5 -39t-29.5 -71q0 -43 36 -74.5t94 -31.5zM230 565l75 125h35l-85 -125h-25z" />
    <glyph glyph-name="acircumflex" unicode="&#xe2;" horiz-adv-x="505" 
d="M185 265l195 35v5q0 71 -40.5 113t-104.5 42q-42 0 -78.5 -19t-51.5 -37l-15 -19l-20 20q2 3 6.5 9t20 20.5t33 26t46 20.5t59.5 9q76 0 125.5 -51.5t49.5 -133.5v-305h-30v100l-6 -11.5t-19.5 -26.5t-34 -33.5t-51 -26.5t-69.5 -12q-69 0 -114.5 40.5t-45.5 94.5
q0 114 145 140zM200 19q75 0 127.5 54t52.5 132v65l-195 -35q-56 -10 -85.5 -39t-29.5 -71q0 -43 36 -74.5t94 -31.5zM265 690l105 -125h-35l-85 100l-85 -100h-35l105 125h30z" />
    <glyph glyph-name="atilde" unicode="&#xe3;" horiz-adv-x="505" 
d="M185 265l195 35v5q0 71 -40.5 113t-104.5 42q-42 0 -78.5 -19t-51.5 -37l-15 -19l-20 20q2 3 6.5 9t20 20.5t33 26t46 20.5t59.5 9q76 0 125.5 -51.5t49.5 -133.5v-305h-30v100l-6 -11.5t-19.5 -26.5t-34 -33.5t-51 -26.5t-69.5 -12q-69 0 -114.5 40.5t-45.5 94.5
q0 114 145 140zM200 19q75 0 127.5 54t52.5 132v65l-195 -35q-56 -10 -85.5 -39t-29.5 -71q0 -43 36 -74.5t94 -31.5zM185 645q-20 0 -30 -16t-10 -59h-30q0 105 70 105q22 0 40.5 -11.5t30 -26t27 -26t32.5 -11.5q20 0 30 16t10 59h30q0 -105 -70 -105q-22 0 -40.5 11.5
t-30 26t-27 26t-32.5 11.5z" />
    <glyph glyph-name="adieresis" unicode="&#xe4;" horiz-adv-x="505" 
d="M185 265l195 35v5q0 71 -40.5 113t-104.5 42q-42 0 -78.5 -19t-51.5 -37l-15 -19l-20 20q2 3 6.5 9t20 20.5t33 26t46 20.5t59.5 9q76 0 125.5 -51.5t49.5 -133.5v-305h-30v100l-6 -11.5t-19.5 -26.5t-34 -33.5t-51 -26.5t-69.5 -12q-69 0 -114.5 40.5t-45.5 94.5
q0 114 145 140zM200 19q75 0 127.5 54t52.5 132v65l-195 -35q-56 -10 -85.5 -39t-29.5 -71q0 -43 36 -74.5t94 -31.5zM145 635q0 25 25 25t25 -25t-25 -25t-25 25zM305 635q0 25 25 25t25 -25t-25 -25t-25 25z" />
    <glyph glyph-name="aring" unicode="&#xe5;" horiz-adv-x="505" 
d="M185 265l195 35v5q0 71 -40.5 113t-104.5 42q-42 0 -78.5 -19t-51.5 -37l-15 -19l-20 20q2 3 6.5 9t20 20.5t33 26t46 20.5t59.5 9q76 0 125.5 -51.5t49.5 -133.5v-305h-30v100l-6 -11.5t-19.5 -26.5t-34 -33.5t-51 -26.5t-69.5 -12q-69 0 -114.5 40.5t-45.5 94.5
q0 114 145 140zM200 19q75 0 127.5 54t52.5 132v65l-195 -35q-56 -10 -85.5 -39t-29.5 -71q0 -43 36 -74.5t94 -31.5zM190 640q0 -26 19.5 -45.5t45.5 -19.5t45.5 19.5t19.5 45.5t-19.5 45.5t-45.5 19.5t-45.5 -19.5t-19.5 -45.5zM350 640q0 -38 -29 -66.5t-66 -28.5
t-66 28.5t-29 66.5t29 66.5t66 28.5t66 -28.5t29 -66.5z" />
    <glyph glyph-name="ae" unicode="&#xe6;" horiz-adv-x="855" 
d="M800 235h-390q4 -93 59 -154t131 -61q29 0 56 9t44 21.5t30 25t19 21.5l6 9l25 -16q-2 -4 -7 -11t-22 -24t-36 -30t-50 -24t-65 -11q-42 0 -78 15.5t-57.5 37.5t-37 44t-21.5 37l-6 16l-5.5 -16t-19 -36t-36 -46t-57.5 -36t-82 -16q-69 0 -114.5 40.5t-45.5 94.5
q0 58 45 99t115 41h180v40q0 67 -42 111t-103 44q-42 0 -78.5 -19t-51.5 -37l-15 -19l-20 20q2 3 6.5 9t20 20.5t33 26t46 20.5t59.5 9q39 0 71 -14t49.5 -34t29.5 -39.5t16 -33.5l4 -14q2 5 6.5 14.5t21 32.5t36 41t52.5 32.5t69 14.5q81 0 145.5 -71.5t64.5 -173.5v-10z
M590 460q-69 0 -124.5 -59t-55.5 -136h360q-4 81 -57.5 138t-122.5 57zM200 20q75 0 127.5 53.5t52.5 132.5v29h-180q-58 0 -94 -32t-36 -78q0 -43 36 -74t94 -31z" />
    <glyph glyph-name="ccedilla" unicode="&#xe7;" horiz-adv-x="520" 
d="M80 240q0 -93 60.5 -156.5t144.5 -63.5q29 0 56.5 9.5t45.5 22.5t31.5 26t19.5 22l7 10l25 -20l-8 -10.5t-22 -23.5t-36.5 -30t-50.5 -24t-63 -12l-25 -50q10 5 25 5q30 0 50 -20t20 -50q0 -31 -24 -53t-61 -22q-18 0 -37 6t-28 12l-10 7l15 20q25 -20 60 -20
q25 0 42.5 15.5t17.5 34.5t-13 32t-32 13q-9 0 -17.5 -2.5t-12.5 -5.5l-5 -2l-20 20l30 61q-89 8 -152 79.5t-63 169.5q0 104 70 177t165 73q34 0 65 -10.5t52 -25t37 -29t23 -25.5l8 -10l-25 -20q-2 4 -6.5 10t-19.5 21.5t-32 27.5t-45 21.5t-57 9.5q-84 0 -144.5 -63.5
t-60.5 -156.5z" />
    <glyph glyph-name="egrave" unicode="&#xe8;" horiz-adv-x="550" 
d="M495 225h-415q4 -86 63 -145.5t142 -59.5q30 0 57.5 9.5t45.5 22.5t31.5 26t19.5 22l6 10l25 -20l-8 -11t-22 -24t-37 -30t-52 -24t-66 -11q-95 0 -165 73t-70 177q0 103 68.5 176.5t156.5 73.5t154 -72t66 -178v-15zM275 460q-76 0 -135.5 -61.5t-59.5 -143.5h385
q-4 89 -59 147t-131 58zM220 690l75 -125h-25l-85 125h35z" />
    <glyph glyph-name="eacute" unicode="&#xe9;" horiz-adv-x="550" 
d="M495 225h-415q4 -86 63 -145.5t142 -59.5q30 0 57.5 9.5t45.5 22.5t31.5 26t19.5 22l6 10l25 -20l-8 -11t-22 -24t-37 -30t-52 -24t-66 -11q-95 0 -165 73t-70 177q0 103 68.5 176.5t156.5 73.5t154 -72t66 -178v-15zM275 460q-76 0 -135.5 -61.5t-59.5 -143.5h385
q-4 89 -59 147t-131 58zM260 565l75 125h35l-85 -125h-25z" />
    <glyph glyph-name="ecircumflex" unicode="&#xea;" horiz-adv-x="550" 
d="M495 225h-415q4 -86 63 -145.5t142 -59.5q30 0 57.5 9.5t45.5 22.5t31.5 26t19.5 22l6 10l25 -20l-8 -11t-22 -24t-37 -30t-52 -24t-66 -11q-95 0 -165 73t-70 177q0 103 68.5 176.5t156.5 73.5t154 -72t66 -178v-15zM275 460q-76 0 -135.5 -61.5t-59.5 -143.5h385
q-4 89 -59 147t-131 58zM290 690l105 -125h-35l-85 100l-85 -100h-35l105 125h30z" />
    <glyph glyph-name="edieresis" unicode="&#xeb;" horiz-adv-x="550" 
d="M495 225h-415q4 -86 63 -145.5t142 -59.5q30 0 57.5 9.5t45.5 22.5t31.5 26t19.5 22l6 10l25 -20l-8 -11t-22 -24t-37 -30t-52 -24t-66 -11q-95 0 -165 73t-70 177q0 103 68.5 176.5t156.5 73.5t154 -72t66 -178v-15zM275 460q-76 0 -135.5 -61.5t-59.5 -143.5h385
q-4 89 -59 147t-131 58zM170 635q0 25 25 25t25 -25t-25 -25t-25 25zM330 635q0 25 25 25t25 -25t-25 -25t-25 25z" />
    <glyph glyph-name="igrave" unicode="&#xec;" horiz-adv-x="220" 
d="M45 695l75 -125h-25l-85 125h35zM120 480v-480h-30v480h30z" />
    <glyph glyph-name="iacute" unicode="&#xed;" horiz-adv-x="220" 
d="M90 565l75 125h35l-85 -125h-25zM120 480v-480h-30v480h30z" />
    <glyph glyph-name="icircumflex" unicode="&#xee;" horiz-adv-x="220" 
d="M120 480v-480h-30v480h30zM120 690l105 -125h-35l-85 100l-85 -100h-35l105 125h30z" />
    <glyph glyph-name="idieresis" unicode="&#xef;" horiz-adv-x="220" 
d="M0 635q0 25 25 25t25 -25t-25 -25t-25 25zM160 635q0 25 25 25t25 -25t-25 -25t-25 25zM120 480v-480h-30v480h30z" />
    <glyph glyph-name="eth" unicode="&#xf0;" horiz-adv-x="570" 
d="M405 755l-110 -77q8 -5 22 -14.5t49.5 -44t62.5 -75t49 -108t22 -141.5q0 -140 -67.5 -222.5t-162.5 -82.5q-87 0 -153.5 69.5t-66.5 165.5t68 168t152 72q42 0 78 -16t57.5 -38.5t37 -45.5t21.5 -39l6 -16q-1 67 -22 128t-49 100t-56.5 68t-48.5 42l-19 13l-115 -86
l-15 25l110 78q-29 18 -62.5 33.5t-52.5 22.5l-20 6l15 25q70 -25 140 -70l115 85zM460 225q0 85 -58.5 147.5t-131.5 62.5t-131.5 -62.5t-58.5 -147.5t57 -145t133 -60t133 60t57 145z" />
    <glyph glyph-name="ntilde" unicode="&#xf1;" horiz-adv-x="575" 
d="M115 480v-100l5.5 11.5t17.5 26.5t32 33.5t50 26.5t70 12q80 0 135 -58t55 -147v-285h-30v285q0 78 -45.5 126.5t-114.5 48.5q-76 0 -125.5 -52.5t-49.5 -137.5v-270h-30v480h30zM225 645q-20 0 -30 -16t-10 -59h-30q0 105 70 105q22 0 40.5 -11.5t30 -26t27 -26
t32.5 -11.5q20 0 30 16t10 59h30q0 -105 -70 -105q-22 0 -40.5 11.5t-30 26t-27 26t-32.5 11.5z" />
    <glyph glyph-name="ograve" unicode="&#xf2;" 
d="M490 240q0 92 -61 156t-144 64q-84 0 -144.5 -63.5t-60.5 -156.5t60.5 -156.5t144.5 -63.5t144.5 63.5t60.5 156.5zM520 240q0 -104 -70 -177t-165 -73t-165 73t-70 177t70 177t165 73t165 -73t70 -177zM225 695l75 -125h-25l-85 125h35z" />
    <glyph glyph-name="oacute" unicode="&#xf3;" 
d="M490 240q0 92 -61 156t-144 64q-84 0 -144.5 -63.5t-60.5 -156.5t60.5 -156.5t144.5 -63.5t144.5 63.5t60.5 156.5zM520 240q0 -104 -70 -177t-165 -73t-165 73t-70 177t70 177t165 73t165 -73t70 -177zM270 565l75 125h35l-85 -125h-25z" />
    <glyph glyph-name="ocircumflex" unicode="&#xf4;" 
d="M490 240q0 92 -61 156t-144 64q-84 0 -144.5 -63.5t-60.5 -156.5t60.5 -156.5t144.5 -63.5t144.5 63.5t60.5 156.5zM520 240q0 -104 -70 -177t-165 -73t-165 73t-70 177t70 177t165 73t165 -73t70 -177zM300 690l105 -125h-35l-85 100l-85 -100h-35l105 125h30z" />
    <glyph glyph-name="otilde" unicode="&#xf5;" 
d="M490 240q0 92 -61 156t-144 64q-84 0 -144.5 -63.5t-60.5 -156.5t60.5 -156.5t144.5 -63.5t144.5 63.5t60.5 156.5zM520 240q0 -104 -70 -177t-165 -73t-165 73t-70 177t70 177t165 73t165 -73t70 -177zM220 645q-20 0 -30 -16t-10 -59h-30q0 105 70 105q22 0 40.5 -11.5
t30 -26t27 -26t32.5 -11.5q20 0 30 16t10 59h30q0 -105 -70 -105q-22 0 -40.5 11.5t-30 26t-27 26t-32.5 11.5z" />
    <glyph glyph-name="odieresis" unicode="&#xf6;" 
d="M490 240q0 92 -61 156t-144 64q-84 0 -144.5 -63.5t-60.5 -156.5t60.5 -156.5t144.5 -63.5t144.5 63.5t60.5 156.5zM520 240q0 -104 -70 -177t-165 -73t-165 73t-70 177t70 177t165 73t165 -73t70 -177zM175 635q0 25 25 25t25 -25t-25 -25t-25 25zM335 635q0 25 25 25
t25 -25t-25 -25t-25 25z" />
    <glyph glyph-name="divide" unicode="&#xf7;" horiz-adv-x="490" 
d="M445 310v-30h-400v30h400zM220 480q0 25 25 25t25 -25t-25 -25t-25 25zM220 110q0 25 25 25t25 -25t-25 -25t-25 25z" />
    <glyph glyph-name="oslash" unicode="&#xf8;" 
d="M520 240q0 -104 -70 -177t-165 -73q-90 0 -158 65l-67 -70l-20 20l68 71q-58 69 -58 164q0 104 70 177t165 73q89 0 157 -66l68 71l20 -20l-68 -72q58 -69 58 -163zM80 240q0 -83 49 -143l293 306q-59 57 -137 57q-84 0 -144.5 -63.5t-60.5 -156.5zM490 240q0 80 -49 142
l-293 -306q59 -56 137 -56q84 0 144.5 63.5t60.5 156.5z" />
    <glyph glyph-name="ugrave" unicode="&#xf9;" 
d="M450 0v100l-5.5 -11.5t-18.5 -26.5t-33 -33.5t-50 -26.5t-68 -12q-80 0 -135 58t-55 147v285h30v-285q0 -78 45.5 -126.5t114.5 -48.5q72 0 123.5 53.5t51.5 131.5v275h30v-480h-30zM225 695l75 -125h-25l-85 125h35z" />
    <glyph glyph-name="uacute" unicode="&#xfa;" 
d="M450 0v100l-5.5 -11.5t-18.5 -26.5t-33 -33.5t-50 -26.5t-68 -12q-80 0 -135 58t-55 147v285h30v-285q0 -78 45.5 -126.5t114.5 -48.5q72 0 123.5 53.5t51.5 131.5v275h30v-480h-30zM265 565l75 125h35l-85 -125h-25z" />
    <glyph glyph-name="ucircumflex" unicode="&#xfb;" 
d="M450 0v100l-5.5 -11.5t-18.5 -26.5t-33 -33.5t-50 -26.5t-68 -12q-80 0 -135 58t-55 147v285h30v-285q0 -78 45.5 -126.5t114.5 -48.5q72 0 123.5 53.5t51.5 131.5v275h30v-480h-30zM300 690l105 -125h-35l-85 100l-85 -100h-35l105 125h30z" />
    <glyph glyph-name="udieresis" unicode="&#xfc;" 
d="M450 0v100l-5.5 -11.5t-18.5 -26.5t-33 -33.5t-50 -26.5t-68 -12q-80 0 -135 58t-55 147v285h30v-285q0 -78 45.5 -126.5t114.5 -48.5q72 0 123.5 53.5t51.5 131.5v275h30v-480h-30zM175 630q0 25 25 25t25 -25t-25 -25t-25 25zM335 630q0 25 25 25t25 -25t-25 -25
t-25 25z" />
    <glyph glyph-name="yacute" unicode="&#xfd;" horiz-adv-x="470" 
d="M175 -100l40 100l-195 480h30l180 -440l180 440h30l-235 -580q-23 -58 -52 -84t-73 -26q-11 0 -21 2.5t-15 5.5l-4 2v30q15 -10 40 -10q63 0 95 80zM225 565l75 125h35l-85 -125h-25z" />
    <glyph glyph-name="thorn" unicode="&#xfe;" horiz-adv-x="595" 
d="M120 120v-330h-30v910h30v-340q2 5 7 14t22.5 31.5t38.5 39.5t55 31t72 14q85 0 152.5 -74t67.5 -176t-67.5 -176t-152.5 -74q-38 0 -72 13.5t-55.5 32.5t-37.5 38t-23 32zM315 20q74 0 132 64.5t58 155.5t-58 155.5t-132 64.5q-77 0 -136 -64t-59 -156t59 -156t136 -64z
" />
    <glyph glyph-name="ydieresis" unicode="&#xff;" horiz-adv-x="470" 
d="M175 -100l40 100l-195 480h30l180 -440l180 440h30l-235 -580q-23 -58 -52 -84t-73 -26q-11 0 -21 2.5t-15 5.5l-4 2v30q15 -10 40 -10q63 0 95 80zM125 635q0 25 25 25t25 -25t-25 -25t-25 25zM285 635q0 25 25 25t25 -25t-25 -25t-25 25z" />
    <glyph glyph-name="Amacron" unicode="&#x100;" horiz-adv-x="670" 
d="M510 245l-175 420l-175 -420h350zM520 215h-370l-90 -215h-30l290 700h30l290 -700h-30zM465 875v-30h-260v30h260z" />
    <glyph glyph-name="amacron" unicode="&#x101;" horiz-adv-x="505" 
d="M185 265l195 35v5q0 71 -40.5 113t-104.5 42q-42 0 -78.5 -19t-51.5 -37l-15 -19l-20 20q2 3 6.5 9t20 20.5t33 26t46 20.5t59.5 9q76 0 125.5 -51.5t49.5 -133.5v-305h-30v100l-6 -11.5t-19.5 -26.5t-34 -33.5t-51 -26.5t-69.5 -12q-69 0 -114.5 40.5t-45.5 94.5
q0 114 145 140zM200 19q75 0 127.5 54t52.5 132v65l-195 -35q-56 -10 -85.5 -39t-29.5 -71q0 -43 36 -74.5t94 -31.5zM385 655v-30h-260v30h260z" />
    <glyph glyph-name="Abreve" unicode="&#x102;" horiz-adv-x="670" 
d="M510 245l-175 420l-175 -420h350zM520 215h-370l-90 -215h-30l290 700h30l290 -700h-30zM335 825q45 0 70 25t25 70h30q0 -56 -34.5 -90.5t-90.5 -34.5t-90.5 34.5t-34.5 90.5h30q0 -45 25 -70t70 -25z" />
    <glyph glyph-name="abreve" unicode="&#x103;" horiz-adv-x="505" 
d="M185 265l195 35v5q0 71 -40.5 113t-104.5 42q-42 0 -78.5 -19t-51.5 -37l-15 -19l-20 20q2 3 6.5 9t20 20.5t33 26t46 20.5t59.5 9q76 0 125.5 -51.5t49.5 -133.5v-305h-30v100l-6 -11.5t-19.5 -26.5t-34 -33.5t-51 -26.5t-69.5 -12q-69 0 -114.5 40.5t-45.5 94.5
q0 114 145 140zM200 19q75 0 127.5 54t52.5 132v65l-195 -35q-56 -10 -85.5 -39t-29.5 -71q0 -43 36 -74.5t94 -31.5zM250 595q45 0 70 25t25 70h30q0 -56 -34.5 -90.5t-90.5 -34.5t-90.5 34.5t-34.5 90.5h30q0 -45 25 -70t70 -25z" />
    <glyph glyph-name="Aogonek" unicode="&#x104;" horiz-adv-x="670" 
d="M615 0h-5l-90 215h-370l-90 -215h-30l290 700h30l290 -700q-8 -7 -19.5 -19.5t-31 -44.5t-19.5 -56q0 -23 17 -39t43 -16q16 0 31 5t22 10l7 5v-25q-25 -20 -60 -20q-37 0 -61 23t-24 57q0 29 17.5 59t35.5 45zM510 245l-175 420l-175 -420h350z" />
    <glyph glyph-name="aogonek" unicode="&#x105;" horiz-adv-x="505" 
d="M410 0h-5q-8 -7 -19.5 -19.5t-31 -44.5t-19.5 -56q0 -23 17 -39t43 -16q16 0 31 5t22 10l7 5v-25q-25 -20 -60 -20q-37 0 -61 23t-24 57q0 29 17.5 59t34.5 45l18 16v100l-6 -11.5t-19.5 -26.5t-34 -33.5t-51 -26.5t-69.5 -12q-69 0 -114.5 40.5t-45.5 94.5
q0 114 145 140l195 35v5q0 71 -40.5 113t-104.5 42q-42 0 -78.5 -19t-51.5 -37l-15 -19l-20 20q2 3 6.5 9t20 20.5t33 26t46 20.5t59.5 9q76 0 125.5 -51.5t49.5 -133.5v-305zM200 19q75 0 127.5 54t52.5 132v65l-195 -35q-56 -10 -85.5 -39t-29.5 -71q0 -43 36 -74.5
t94 -31.5z" />
    <glyph glyph-name="Cacute" unicode="&#x106;" horiz-adv-x="745" 
d="M60 350q0 149 103.5 254.5t246.5 105.5q53 0 102.5 -15.5t82 -37.5t57.5 -44t36 -37l12 -16l-25 -20q-4 6 -11 15.5t-32 33.5t-53 42.5t-74 33.5t-95 15q-132 0 -226 -96t-94 -234t94 -234t226 -96q49 0 94.5 14.5t75 35t52 41t32.5 35.5l11 14l25 -20q-4 -6 -12 -16
t-35.5 -36t-58.5 -46t-81 -36t-103 -16q-143 0 -246.5 105.5t-103.5 254.5zM395 795l75 125h35l-85 -125h-25z" />
    <glyph glyph-name="cacute" unicode="&#x107;" horiz-adv-x="520" 
d="M80 240q0 -93 60.5 -156.5t144.5 -63.5q29 0 56.5 9.5t45.5 22.5t31.5 26t19.5 22l7 10l25 -20l-8 -11t-22.5 -24t-37.5 -30t-51.5 -24t-65.5 -11q-95 0 -165 73t-70 177t70 177t165 73q34 0 65 -10.5t52 -25t37 -29t23 -25.5l8 -10l-25 -20q-2 4 -6.5 10t-19.5 21.5
t-32 27.5t-45 21.5t-57 9.5q-84 0 -144.5 -63.5t-60.5 -156.5zM270 565l75 125h35l-85 -125h-25z" />
    <glyph glyph-name="Ccircumflex" unicode="&#x108;" horiz-adv-x="745" 
d="M60 350q0 149 103.5 254.5t246.5 105.5q53 0 102.5 -15.5t82 -37.5t57.5 -44t36 -37l12 -16l-25 -20q-4 6 -11 15.5t-32 33.5t-53 42.5t-74 33.5t-95 15q-132 0 -226 -96t-94 -234t94 -234t226 -96q49 0 94.5 14.5t75 35t52 41t32.5 35.5l11 14l25 -20q-4 -6 -12 -16
t-35.5 -36t-58.5 -46t-81 -36t-103 -16q-143 0 -246.5 105.5t-103.5 254.5zM425 920l105 -125h-35l-85 100l-85 -100h-35l105 125h30z" />
    <glyph glyph-name="ccircumflex" unicode="&#x109;" horiz-adv-x="520" 
d="M80 240q0 -93 60.5 -156.5t144.5 -63.5q29 0 56.5 9.5t45.5 22.5t31.5 26t19.5 22l7 10l25 -20l-8 -11t-22.5 -24t-37.5 -30t-51.5 -24t-65.5 -11q-95 0 -165 73t-70 177t70 177t165 73q34 0 65 -10.5t52 -25t37 -29t23 -25.5l8 -10l-25 -20q-2 4 -6.5 10t-19.5 21.5
t-32 27.5t-45 21.5t-57 9.5q-84 0 -144.5 -63.5t-60.5 -156.5zM295 690l105 -125h-35l-85 100l-85 -100h-35l105 125h30z" />
    <glyph glyph-name="Ccaron" unicode="&#x10c;" horiz-adv-x="745" 
d="M60 350q0 149 103.5 254.5t246.5 105.5q53 0 102.5 -15.5t82 -37.5t57.5 -44t36 -37l12 -16l-25 -20q-4 6 -11 15.5t-32 33.5t-53 42.5t-74 33.5t-95 15q-132 0 -226 -96t-94 -234t94 -234t226 -96q49 0 94.5 14.5t75 35t52 41t32.5 35.5l11 14l25 -20q-4 -6 -12 -16
t-35.5 -36t-58.5 -46t-81 -36t-103 -16q-143 0 -246.5 105.5t-103.5 254.5zM530 920l-105 -125h-30l-105 125h35l85 -100l85 100h35z" />
    <glyph glyph-name="ccaron" unicode="&#x10d;" horiz-adv-x="520" 
d="M80 240q0 -93 60.5 -156.5t144.5 -63.5q29 0 56.5 9.5t45.5 22.5t31.5 26t19.5 22l7 10l25 -20l-8 -11t-22.5 -24t-37.5 -30t-51.5 -24t-65.5 -11q-95 0 -165 73t-70 177t70 177t165 73q34 0 65 -10.5t52 -25t37 -29t23 -25.5l8 -10l-25 -20q-2 4 -6.5 10t-19.5 21.5
t-32 27.5t-45 21.5t-57 9.5q-84 0 -144.5 -63.5t-60.5 -156.5zM400 690l-105 -125h-30l-105 125h35l85 -100l85 100h35z" />
    <glyph glyph-name="Dcaron" unicode="&#x10e;" horiz-adv-x="730" 
d="M115 700h190q160 0 262.5 -99.5t102.5 -250.5t-102.5 -250.5t-262.5 -99.5h-190v700zM305 670h-160v-640h160q149 0 242 90t93 230t-93 230t-242 90zM473 920l-105 -125h-30l-105 125h35l85 -100l85 100h35z" />
    <glyph glyph-name="dcaron" unicode="&#x10f;" horiz-adv-x="625" 
d="M465 360v340h30v-700h-30v120q-2 -5 -7 -14t-22.5 -31.5t-38.5 -39.5t-55 -31t-72 -14q-85 0 -152.5 74t-67.5 176t67.5 176t152.5 74q38 0 72 -13.5t55.5 -32.5t37.5 -38t23 -32zM270 460q-74 0 -132 -64.5t-58 -155.5t58 -155.5t132 -64.5q77 0 136 64t59 156t-59 156
t-136 64zM575 570l45 130h35l-55 -130h-25z" />
    <glyph glyph-name="Dcroat" unicode="&#x110;" horiz-adv-x="745" 
d="M130 700h190q160 0 262.5 -99.5t102.5 -250.5t-102.5 -250.5t-262.5 -99.5h-190v335h-105v30h105v335zM320 670h-160v-305h180v-30h-180v-305h160q149 0 242 90t93 230t-93 230t-242 90z" />
    <glyph glyph-name="dcroat" unicode="&#x111;" horiz-adv-x="605" 
d="M315 595h150v105h30v-105h80v-30h-80v-565h-30v115q-2 -5 -7 -13.5t-22.5 -30t-38.5 -38t-55 -30t-72 -13.5q-84 0 -152 72t-68 168t68 168t152 72q38 0 72 -13t55.5 -31t37.5 -36.5t23 -31.5l7 -13v220h-150v30zM270 440q-73 0 -131.5 -62.5t-58.5 -147.5t58.5 -147.5
t131.5 -62.5q76 0 135.5 62.5t59.5 147.5t-59.5 147.5t-135.5 62.5z" />
    <glyph glyph-name="Emacron" unicode="&#x112;" horiz-adv-x="625" 
d="M145 30h440v-30h-470v700h460v-30h-430v-290h350v-30h-350v-320zM480 875v-30h-260v30h260z" />
    <glyph glyph-name="emacron" unicode="&#x113;" horiz-adv-x="550" 
d="M495 225h-415q4 -86 63 -145.5t142 -59.5q30 0 57.5 9.5t45.5 22.5t31.5 26t19.5 22l6 10l25 -20l-8 -11t-22 -24t-37 -30t-52 -24t-66 -11q-95 0 -165 73t-70 177q0 103 68.5 176.5t156.5 73.5t154 -72t66 -178v-15zM275 460q-76 0 -135.5 -61.5t-59.5 -143.5h385
q-4 89 -59 147t-131 58zM410 645v-30h-260v30h260z" />
    <glyph glyph-name="Edotaccent" unicode="&#x116;" horiz-adv-x="625" 
d="M145 30h440v-30h-470v700h460v-30h-430v-290h350v-30h-350v-320zM320 860q0 25 25 25t25 -25t-25 -25q-11 0 -18 7.5t-7 17.5z" />
    <glyph glyph-name="edotaccent" unicode="&#x117;" horiz-adv-x="550" 
d="M495 225h-415q4 -86 63 -145.5t142 -59.5q30 0 57.5 9.5t45.5 22.5t31.5 26t19.5 22l6 10l25 -20l-8 -11t-22 -24t-37 -30t-52 -24t-66 -11q-95 0 -165 73t-70 177q0 103 68.5 176.5t156.5 73.5t154 -72t66 -178v-15zM275 460q-76 0 -135.5 -61.5t-59.5 -143.5h385
q-4 89 -59 147t-131 58zM255 630q0 25 25 25t25 -25t-25 -25q-11 0 -18 7.5t-7 17.5z" />
    <glyph glyph-name="Eogonek" unicode="&#x118;" horiz-adv-x="625" 
d="M560 0h-445v700h460v-30h-430v-290h350v-30h-350v-320h440v-30q-8 -7 -19.5 -19.5t-31 -44.5t-19.5 -56q0 -23 17 -39t43 -16q16 0 31 5t22 10l7 5v-25q-25 -20 -60 -20q-37 0 -61 23t-24 57q0 29 17.5 59t34.5 45z" />
    <glyph glyph-name="eogonek" unicode="&#x119;" horiz-adv-x="550" 
d="M495 225h-415q4 -86 63 -145.5t142 -59.5q30 0 57.5 9.5t45.5 22.5t31.5 26t19.5 22l6 10l25 -20q-2 -4 -7 -10t-21 -22t-34 -29t-47.5 -24.5t-60.5 -13.5q-60 -60 -60 -111q0 -23 17 -39t43 -16q16 0 31 5t22 10l7 5v-25q-25 -20 -60 -20q-37 0 -61 23t-24 57
q0 55 58 110q-91 5 -157 77t-66 173q0 103 68.5 176.5t156.5 73.5t154 -72t66 -178v-15zM275 460q-76 0 -135.5 -61.5t-59.5 -143.5h385q-4 89 -59 147t-131 58z" />
    <glyph glyph-name="Ecaron" unicode="&#x11a;" horiz-adv-x="625" 
d="M145 30h440v-30h-470v700h460v-30h-430v-290h350v-30h-350v-320zM465 915l-105 -125h-30l-105 125h35l85 -100l85 100h35z" />
    <glyph glyph-name="ecaron" unicode="&#x11b;" horiz-adv-x="550" 
d="M495 225h-415q4 -86 63 -145.5t142 -59.5q30 0 57.5 9.5t45.5 22.5t31.5 26t19.5 22l6 10l25 -20l-8 -11t-22 -24t-37 -30t-52 -24t-66 -11q-95 0 -165 73t-70 177q0 103 68.5 176.5t156.5 73.5t154 -72t66 -178v-15zM275 460q-76 0 -135.5 -61.5t-59.5 -143.5h385
q-4 89 -59 147t-131 58zM395 690l-105 -125h-30l-105 125h35l85 -100l85 100h35z" />
    <glyph glyph-name="Gbreve" unicode="&#x11e;" horiz-adv-x="785" 
d="M700 560l-25 -20q-4 6 -11 15.5t-32 33.5t-53 42.5t-74 33.5t-95 15q-132 0 -226 -96t-94 -234t93.5 -234t226.5 -96q49 0 94.5 14t75 33.5t52 39.5t32.5 34l11 14v160h-200v30h230v-200q-4 -6 -12.5 -16.5t-36.5 -37.5t-60 -47t-82.5 -37t-103.5 -17q-144 0 -247 105.5
t-103 254.5t103.5 254.5t246.5 105.5q53 0 102.5 -15.5t82 -37.5t57.5 -44t36 -37zM405 825q45 0 70 25t25 70h30q0 -56 -34.5 -90.5t-90.5 -34.5t-90.5 34.5t-34.5 90.5h30q0 -45 25 -70t70 -25z" />
    <glyph glyph-name="gbreve" unicode="&#x11f;" 
d="M80 250q0 -88 56 -149t129 -61t131.5 62.5t58.5 147.5t-58.5 147.5t-131.5 62.5t-129 -61t-56 -149zM455 30v105q-2 -5 -6.5 -13.5t-21.5 -30t-37 -38t-53.5 -30t-71.5 -13.5q-84 0 -149.5 70.5t-65.5 169.5t65.5 169.5t149.5 70.5q38 0 71.5 -13t54 -31t36 -36.5
t21.5 -31.5l7 -13v115h30v-450q0 -103 -64 -171.5t-156 -68.5q-35 0 -66.5 10.5t-52.5 25t-36.5 29t-22.5 25.5l-7 10l20 20q2 -4 6.5 -10t20.5 -21.5t33.5 -27.5t46 -21.5t58.5 -9.5q80 0 135 59.5t55 150.5zM290 595q45 0 70 25t25 70h30q0 -56 -34.5 -90.5t-90.5 -34.5
t-90.5 34.5t-34.5 90.5h30q0 -45 25 -70t70 -25z" />
    <glyph glyph-name="Gcommaaccent" unicode="&#x122;" horiz-adv-x="785" 
d="M700 560l-25 -20q-4 6 -11 15.5t-32 33.5t-53 42.5t-74 33.5t-95 15q-132 0 -226 -96t-94 -234t93.5 -234t226.5 -96q49 0 94.5 14t75 33.5t52 39.5t32.5 34l11 14v160h-200v30h230v-200q-4 -6 -12.5 -16.5t-36.5 -37.5t-60 -47t-82.5 -37t-103.5 -17q-144 0 -247 105.5
t-103 254.5t103.5 254.5t246.5 105.5q53 0 102.5 -15.5t82 -37.5t57.5 -44t36 -37zM350 -210l45 130h35l-55 -130h-25z" />
    <glyph glyph-name="gcommaaccent" unicode="&#x123;" 
d="M80 250q0 -88 56 -149t129 -61t131.5 62.5t58.5 147.5t-58.5 147.5t-131.5 62.5t-129 -61t-56 -149zM455 30v105q-2 -5 -6.5 -13.5t-21.5 -30t-37 -38t-53.5 -30t-71.5 -13.5q-84 0 -149.5 70.5t-65.5 169.5t65.5 169.5t149.5 70.5q38 0 71.5 -13t54 -31t36 -36.5
t21.5 -31.5l7 -13v115h30v-450q0 -103 -64 -171.5t-156 -68.5q-35 0 -66.5 10.5t-52.5 25t-36.5 29t-22.5 25.5l-7 10l20 20q2 -4 6.5 -10t20.5 -21.5t33.5 -27.5t46 -21.5t58.5 -9.5q80 0 135 59.5t55 150.5zM340 690l-45 -130h-35l55 130h25z" />
    <glyph glyph-name="Imacron" unicode="&#x12a;" horiz-adv-x="260" 
d="M115 0v700h30v-700h-30zM260 875v-30h-260v30h260z" />
    <glyph glyph-name="imacron" unicode="&#x12b;" horiz-adv-x="220" 
d="M235 645v-30h-260v30h260zM120 480v-480h-30v480h30z" />
    <glyph glyph-name="Iogonek" unicode="&#x12e;" horiz-adv-x="260" 
d="M115 0v700h30v-700q-8 -7 -19.5 -19.5t-31 -44.5t-19.5 -56q0 -23 17 -39t43 -16q16 0 31 5t22 10l7 5v-25q-25 -20 -60 -20q-37 0 -61 23t-24 57q0 29 17.5 59t34.5 45l18 16h-5z" />
    <glyph glyph-name="iogonek" unicode="&#x12f;" horiz-adv-x="220" 
d="M90 0v480h30v-480q-8 -7 -19.5 -19.5t-31 -44.5t-19.5 -56q0 -23 17 -39t43 -16q16 0 31 5t22 10l7 5v-25q-25 -20 -60 -20q-37 0 -61 23t-24 57q0 29 17.5 59t35.5 45l17 16h-5zM130 655q0 -25 -25 -25t-25 25t25 25t25 -25z" />
    <glyph glyph-name="Idotaccent" unicode="&#x130;" horiz-adv-x="260" 
d="M115 0v700h30v-700h-30zM105 860q0 25 25 25t25 -25t-25 -25q-11 0 -18 7.5t-7 17.5z" />
    <glyph glyph-name="dotlessi" unicode="&#x131;" horiz-adv-x="220" 
d="M120 480v-480h-30v480h30z" />
    <glyph glyph-name="i_j" unicode="&#x133;" horiz-adv-x="455" 
d="M325 -85v100q-35 -25 -85 -25q-61 0 -105.5 46.5t-44.5 113.5v330h30v-330q0 -55 35.5 -92.5t84.5 -37.5q22 0 43.5 7.5t31.5 14.5l10 8v430h30v-565q0 -55 -33 -90t-82 -35q-16 0 -31 4t-22 8l-7 3v30q25 -15 60 -15q38 0 61.5 25.5t23.5 69.5zM130 655q0 -25 -25 -25
t-25 25t25 25t25 -25zM365 655q0 -25 -25 -25t-25 25t25 25t25 -25z" />
    <glyph glyph-name="Kcommaaccent" unicode="&#x136;" horiz-adv-x="645" 
d="M145 240l415 460h40l-260 -290l285 -410h-35l-270 390l-175 -190v-200h-30v700h30v-460zM290 -210l45 130h35l-55 -130h-25z" />
    <glyph glyph-name="kcommaaccent" unicode="&#x137;" horiz-adv-x="495" 
d="M120 125v-125h-30v700h30v-535l285 315h40l-180 -195l205 -285h-35l-185 260h-5zM210 -210l45 130h35l-55 -130h-25z" />
    <glyph glyph-name="Lacute" unicode="&#x139;" horiz-adv-x="550" 
d="M530 0h-415v700h30v-670h385v-30zM120 795l75 125h35l-85 -125h-25z" />
    <glyph glyph-name="lacute" unicode="&#x13a;" horiz-adv-x="225" 
d="M120 700v-700h-30v700h30zM95 795l75 125h35l-85 -125h-25z" />
    <glyph glyph-name="Lcommaaccent" unicode="&#x13b;" horiz-adv-x="550" 
d="M530 0h-415v700h30v-670h385v-30zM275 -210l45 130h35l-55 -130h-25z" />
    <glyph glyph-name="lcommaaccent" unicode="&#x13c;" horiz-adv-x="225" 
d="M120 700v-700h-30v700h30zM45 -210l45 130h35l-55 -130h-25z" />
    <glyph glyph-name="Lcaron" unicode="&#x13d;" horiz-adv-x="550" 
d="M530 0h-415v700h30v-670h385v-30zM275 570l45 130h35l-55 -130h-25z" />
    <glyph glyph-name="lcaron" unicode="&#x13e;" horiz-adv-x="245" 
d="M120 700v-700h-30v700h30zM195 570l45 130h35l-55 -130h-25z" />
    <glyph glyph-name="Lslash" unicode="&#x141;" horiz-adv-x="585" 
d="M565 0h-415v315l-115 -70l-15 25l130 80v350h30v-335l165 100l15 -25l-180 -110v-300h385v-30z" />
    <glyph glyph-name="lslash" unicode="&#x142;" horiz-adv-x="325" 
d="M170 700v-300l130 80l15 -25l-145 -85v-370h-30v350l-125 -80l-15 25l140 90v315h30z" />
    <glyph glyph-name="Nacute" unicode="&#x143;" horiz-adv-x="770" 
d="M625 700h30v-700h-25l-485 645v-645h-30v700h25l485 -645v645zM375 795l75 125h35l-85 -125h-25z" />
    <glyph glyph-name="nacute" unicode="&#x144;" horiz-adv-x="575" 
d="M115 480v-100l5.5 11.5t17.5 26.5t32 33.5t50 26.5t70 12q80 0 135 -58t55 -147v-285h-30v285q0 78 -45.5 126.5t-114.5 48.5q-76 0 -125.5 -52.5t-49.5 -137.5v-270h-30v480h30zM275 565l75 125h35l-85 -125h-25z" />
    <glyph glyph-name="Ncommaaccent" unicode="&#x145;" horiz-adv-x="770" 
d="M625 700h30v-700h-25l-485 645v-645h-30v700h25l485 -645v645zM330 -210l45 130h35l-55 -130h-25z" />
    <glyph glyph-name="ncommaaccent" unicode="&#x146;" horiz-adv-x="575" 
d="M115 480v-100l5.5 11.5t17.5 26.5t32 33.5t50 26.5t70 12q80 0 135 -58t55 -147v-285h-30v285q0 78 -45.5 126.5t-114.5 48.5q-76 0 -125.5 -52.5t-49.5 -137.5v-270h-30v480h30zM230 -210l45 130h35l-55 -130h-25z" />
    <glyph glyph-name="Ncaron" unicode="&#x147;" horiz-adv-x="770" 
d="M625 700h30v-700h-25l-485 645v-645h-30v700h25l485 -645v645zM505 915l-105 -125h-30l-105 125h35l85 -100l85 100h35z" />
    <glyph glyph-name="ncaron" unicode="&#x148;" horiz-adv-x="575" 
d="M115 480v-100l5.5 11.5t17.5 26.5t32 33.5t50 26.5t70 12q80 0 135 -58t55 -147v-285h-30v285q0 78 -45.5 126.5t-114.5 48.5q-76 0 -125.5 -52.5t-49.5 -137.5v-270h-30v480h30zM405 690l-105 -125h-30l-105 125h35l85 -100l85 100h35z" />
    <glyph glyph-name="Omacron" unicode="&#x14c;" horiz-adv-x="820" 
d="M730 350q0 138 -94 234t-226 96t-226 -96t-94 -234t94 -234t226 -96t226 96t94 234zM760 350q0 -149 -103.5 -254.5t-246.5 -105.5t-246.5 105.5t-103.5 254.5t103.5 254.5t246.5 105.5t246.5 -105.5t103.5 -254.5zM545 875v-30h-260v30h260z" />
    <glyph glyph-name="omacron" unicode="&#x14d;" 
d="M490 240q0 92 -61 156t-144 64q-84 0 -144.5 -63.5t-60.5 -156.5t60.5 -156.5t144.5 -63.5t144.5 63.5t60.5 156.5zM520 240q0 -104 -70 -177t-165 -73t-165 73t-70 177t70 177t165 73t165 -73t70 -177zM415 645v-30h-260v30h260z" />
    <glyph glyph-name="Ohungarumlaut" unicode="&#x150;" horiz-adv-x="820" 
d="M730 350q0 138 -94 234t-226 96t-226 -96t-94 -234t94 -234t226 -96t226 96t94 234zM760 350q0 -149 -103.5 -254.5t-246.5 -105.5t-246.5 105.5t-103.5 254.5t103.5 254.5t246.5 105.5t246.5 -105.5t103.5 -254.5zM330 790l75 125h35l-85 -125h-25zM465 790l75 125h35
l-85 -125h-25z" />
    <glyph glyph-name="ohungarumlaut" unicode="&#x151;" 
d="M490 240q0 92 -61 156t-144 64q-84 0 -144.5 -63.5t-60.5 -156.5t60.5 -156.5t144.5 -63.5t144.5 63.5t60.5 156.5zM520 240q0 -104 -70 -177t-165 -73t-165 73t-70 177t70 177t165 73t165 -73t70 -177zM210 565l75 125h35l-85 -125h-25zM345 565l75 125h35l-85 -125h-25
z" />
    <glyph glyph-name="OE" unicode="&#x152;" horiz-adv-x="980" 
d="M555 30h385v-30h-515q-160 0 -262.5 99.5t-102.5 250.5t102.5 250.5t262.5 99.5h505v-30h-375v-290h295v-30h-295v-320zM425 30h100v640h-100q-149 0 -242 -90t-93 -230t93 -230t242 -90z" />
    <glyph glyph-name="oe" unicode="&#x153;" horiz-adv-x="935" 
d="M880 225h-390q4 -85 61 -145t129 -60q30 0 56.5 9.5t43 22.5t28.5 26t17 22l5 10l25 -20q-2 -4 -6.5 -11t-20 -24t-34 -30t-49.5 -24t-65 -11q-41 0 -77 16.5t-58.5 40t-39 47t-23.5 40.5l-7 16q-2 -7 -7 -17.5t-23.5 -38t-40 -48.5t-57.5 -38.5t-77 -17.5
q-85 0 -152.5 74t-67.5 176t67.5 176t152.5 74q41 0 77 -16.5t58.5 -40t39 -47t23.5 -40.5l7 -16q2 7 7 17.5t22.5 38t38.5 48.5t55 38.5t72 17.5q82 0 146 -72.5t64 -177.5v-15zM270 20q72 0 131 64.5t59 155.5t-58 155.5t-132 64.5t-132 -64.5t-58 -155.5t58 -155.5
t132 -64.5zM670 460q-66 0 -123 -62.5t-57 -142.5h360q-4 88 -57.5 146.5t-122.5 58.5z" />
    <glyph glyph-name="Racute" unicode="&#x154;" horiz-adv-x="655" 
d="M115 700h255q93 0 151.5 -56.5t58.5 -143.5q0 -48 -16.5 -85.5t-40 -57t-47 -32.5t-40.5 -17l-16 -3l175 -305h-35l-170 300h-245v-300h-30v700zM370 670h-225v-340h225q82 0 131 47t49 123t-49 123t-131 47zM325 795l75 125h35l-85 -125h-25z" />
    <glyph glyph-name="racute" unicode="&#x155;" horiz-adv-x="335" 
d="M310 460h-20q-76 0 -125.5 -52.5t-49.5 -137.5v-270h-30v480h30v-100l5.5 11.5t17.5 26.5t32 33.5t50 26.5t70 12h20v-30zM185 565l75 125h35l-85 -125h-25z" />
    <glyph glyph-name="Rcommaaccent" unicode="&#x156;" horiz-adv-x="655" 
d="M115 700h255q93 0 151.5 -56.5t58.5 -143.5q0 -48 -16.5 -85.5t-40 -57t-47 -32.5t-40.5 -17l-16 -3l175 -305h-35l-170 300h-245v-300h-30v700zM370 670h-225v-340h225q82 0 131 47t49 123t-49 123t-131 47zM280 -210l45 130h35l-55 -130h-25z" />
    <glyph glyph-name="rcommaaccent" unicode="&#x157;" horiz-adv-x="335" 
d="M310 460h-20q-76 0 -125.5 -52.5t-49.5 -137.5v-270h-30v480h30v-100l5.5 11.5t17.5 26.5t32 33.5t50 26.5t70 12h20v-30zM40 -210l45 130h35l-55 -130h-25z" />
    <glyph glyph-name="Rcaron" unicode="&#x158;" horiz-adv-x="655" 
d="M115 700h255q93 0 151.5 -56.5t58.5 -143.5q0 -48 -16.5 -85.5t-40 -57t-47 -32.5t-40.5 -17l-16 -3l175 -305h-35l-170 300h-245v-300h-30v700zM370 670h-225v-340h225q82 0 131 47t49 123t-49 123t-131 47zM455 915l-105 -125h-30l-105 125h35l85 -100l85 100h35z" />
    <glyph glyph-name="rcaron" unicode="&#x159;" horiz-adv-x="335" 
d="M310 460h-20q-76 0 -125.5 -52.5t-49.5 -137.5v-270h-30v480h30v-100l5.5 11.5t17.5 26.5t32 33.5t50 26.5t70 12h20v-30zM310 690l-105 -125h-30l-105 125h35l85 -100l85 100h35z" />
    <glyph glyph-name="Sacute" unicode="&#x15a;" horiz-adv-x="550" 
d="M460 185q0 42 -22 72t-56.5 46.5t-76.5 29t-84.5 26.5t-77 32.5t-56.5 52t-22 81.5q0 77 61 131t159 54q35 0 68 -9t55 -21t39 -24.5t25 -21.5l8 -9l-25 -25q-2 3 -6.5 8.5t-20.5 19.5t-34 24.5t-47.5 19t-61.5 8.5q-87 0 -138.5 -44.5t-51.5 -110.5q0 -41 22 -70
t56.5 -45t77 -28.5t84.5 -26.5t76.5 -33t56.5 -53.5t22 -83.5q0 -81 -63 -138t-162 -57q-41 0 -78.5 10.5t-61.5 25t-41.5 29t-25.5 25.5l-8 10l25 25q2 -4 6.5 -10.5t21.5 -22.5t37 -28.5t53.5 -23t71.5 -10.5q88 0 141.5 47.5t53.5 117.5zM265 795l75 125h35l-85 -125h-25
z" />
    <glyph glyph-name="sacute" unicode="&#x15b;" horiz-adv-x="430" 
d="M360 420l-25 -25q-5 7 -14.5 18t-42 29t-68.5 18q-51 0 -85.5 -30.5t-34.5 -69.5q0 -34 29 -55.5t70 -32.5t82 -24t70 -41t29 -72q0 -61 -46 -103t-119 -42q-47 0 -88 20t-59 40l-18 20l25 25q2 -3 6 -8t17.5 -18t28.5 -23t39 -18t49 -8q62 0 98.5 32.5t36.5 82.5
q0 36 -29 58t-70 33.5l-82 24t-70 39.5t-29 70q0 50 44 90t106 40q42 0 79.5 -17.5t54.5 -34.5zM200 565l75 125h35l-85 -125h-25z" />
    <glyph glyph-name="Scedilla" unicode="&#x15e;" horiz-adv-x="550" 
d="M460 185q0 42 -22 72t-56.5 46.5t-76.5 29t-84.5 26.5t-77 32.5t-56.5 52t-22 81.5q0 77 61 131t159 54q35 0 68 -9t55 -21t39 -24.5t25 -21.5l8 -9l-25 -25q-2 3 -6.5 8.5t-20.5 19.5t-34 24.5t-47.5 19t-61.5 8.5q-87 0 -138.5 -44.5t-51.5 -110.5q0 -41 22 -70
t56.5 -45t77 -28.5t84.5 -26.5t76.5 -33t56.5 -53.5t22 -83.5q0 -77 -57 -132.5t-148 -61.5l-25 -51q10 5 25 5q30 0 50 -20t20 -50q0 -31 -24 -53t-61 -22q-18 0 -37 6t-29 12l-9 7l15 20q25 -20 60 -20q25 0 42.5 15.5t17.5 34.5t-13 32t-32 13q-9 0 -17.5 -2.5
t-13.5 -5.5l-4 -2l-20 20l30 60q-41 1 -77.5 11.5t-59.5 25t-40.5 29t-24.5 24.5l-8 10l25 25q2 -4 6.5 -10.5t21.5 -22.5t37 -28.5t53.5 -23t71.5 -10.5q88 0 141.5 47.5t53.5 117.5z" />
    <glyph glyph-name="scedilla" unicode="&#x15f;" horiz-adv-x="430" 
d="M360 420l-25 -25q-5 7 -14.5 18t-42 29t-68.5 18q-51 0 -85.5 -30.5t-34.5 -69.5q0 -34 29 -55.5t70 -32.5t82 -24t70 -41t29 -72q0 -58 -41.5 -99t-108.5 -45l-25 -51q10 5 25 5q30 0 50 -20t20 -50q0 -31 -24 -53t-61 -22q-18 0 -37 6t-28 12l-10 7l15 20
q25 -20 60 -20q25 0 42.5 15.5t17.5 34.5t-13 32t-32 13q-9 0 -17.5 -2.5t-12.5 -5.5l-5 -2l-20 20l30 60q-44 2 -82.5 22t-55.5 39l-17 19l25 25q2 -3 6 -8t17.5 -18t28.5 -23t39 -18t49 -8q62 0 98.5 32.5t36.5 82.5q0 36 -29 58t-70 33.5l-82 24t-70 39.5t-29 70
q0 50 44 90t106 40q42 0 79.5 -17.5t54.5 -34.5z" />
    <glyph glyph-name="Scaron" unicode="&#x160;" horiz-adv-x="550" 
d="M460 185q0 42 -22 72t-56.5 46.5t-76.5 29t-84.5 26.5t-77 32.5t-56.5 52t-22 81.5q0 77 61 131t159 54q35 0 68 -9t55 -21t39 -24.5t25 -21.5l8 -9l-25 -25q-2 3 -6.5 8.5t-20.5 19.5t-34 24.5t-47.5 19t-61.5 8.5q-87 0 -138.5 -44.5t-51.5 -110.5q0 -41 22 -70
t56.5 -45t77 -28.5t84.5 -26.5t76.5 -33t56.5 -53.5t22 -83.5q0 -81 -63 -138t-162 -57q-41 0 -78.5 10.5t-61.5 25t-41.5 29t-25.5 25.5l-8 10l25 25q2 -4 6.5 -10.5t21.5 -22.5t37 -28.5t53.5 -23t71.5 -10.5q88 0 141.5 47.5t53.5 117.5zM400 915l-105 -125h-30l-105 125
h35l85 -100l85 100h35z" />
    <glyph glyph-name="scaron" unicode="&#x161;" horiz-adv-x="430" 
d="M360 420l-25 -25q-5 7 -14.5 18t-42 29t-68.5 18q-51 0 -85.5 -30.5t-34.5 -69.5q0 -34 29 -55.5t70 -32.5t82 -24t70 -41t29 -72q0 -61 -46 -103t-119 -42q-47 0 -88 20t-59 40l-18 20l25 25q2 -3 6 -8t17.5 -18t28.5 -23t39 -18t49 -8q62 0 98.5 32.5t36.5 82.5
q0 36 -29 58t-70 33.5l-82 24t-70 39.5t-29 70q0 50 44 90t106 40q42 0 79.5 -17.5t54.5 -34.5zM330 690l-105 -125h-30l-105 125h35l85 -100l85 100h35z" />
    <glyph glyph-name="Tcommaaccent" unicode="&#x162;" horiz-adv-x="540" 
d="M20 700h500v-30h-235v-670h-30v670h-235v30zM210 -210l45 130h35l-55 -130h-25z" />
    <glyph glyph-name="tcommaaccent" unicode="&#x163;" horiz-adv-x="335" 
d="M125 515v125h30v-160h110v-30h-110v-335q0 -44 23.5 -69.5t61.5 -25.5q16 0 31 4t22 8l7 3v-30q-25 -15 -60 -15q-53 0 -84 33t-31 92v335h-100v30h70q30 0 30 35zM150 -210l45 130h35l-55 -130h-25z" />
    <glyph glyph-name="Tcaron" unicode="&#x164;" horiz-adv-x="540" 
d="M20 700h500v-30h-235v-670h-30v670h-235v30zM390 920l-105 -125h-30l-105 125h35l85 -100l85 100h35z" />
    <glyph glyph-name="tcaron" unicode="&#x165;" horiz-adv-x="345" 
d="M125 515v125h30v-160h110v-30h-110v-335q0 -44 23.5 -69.5t61.5 -25.5q16 0 31 4t22 8l7 3v-30q-25 -15 -60 -15q-53 0 -84 33t-31 92v335h-100v30h70q30 0 30 35zM295 570l45 130h35l-55 -130h-25z" />
    <glyph glyph-name="Umacron" unicode="&#x16a;" horiz-adv-x="750" 
d="M375 20q102 0 171 70.5t69 176.5v433h30v-433q0 -117 -78.5 -197t-191.5 -80t-191.5 80t-78.5 197v433h30v-433q0 -106 69 -176.5t171 -70.5zM505 875v-30h-260v30h260z" />
    <glyph glyph-name="umacron" unicode="&#x16b;" 
d="M450 0v100l-5.5 -11.5t-18.5 -26.5t-33 -33.5t-50 -26.5t-68 -12q-80 0 -135 58t-55 147v285h30v-285q0 -78 45.5 -126.5t114.5 -48.5q72 0 123.5 53.5t51.5 131.5v275h30v-480h-30zM415 645v-30h-260v30h260z" />
    <glyph glyph-name="Uring" unicode="&#x16e;" horiz-adv-x="750" 
d="M375 20q102 0 171 70.5t69 176.5v433h30v-433q0 -117 -78.5 -197t-191.5 -80t-191.5 80t-78.5 197v433h30v-433q0 -106 69 -176.5t171 -70.5zM315 870q0 -26 19.5 -45.5t45.5 -19.5t45.5 19.5t19.5 45.5t-19.5 45.5t-45.5 19.5t-45.5 -19.5t-19.5 -45.5zM475 870
q0 -38 -28.5 -66.5t-66.5 -28.5t-66.5 28.5t-28.5 66.5t28.5 66.5t66.5 28.5t66.5 -28.5t28.5 -66.5z" />
    <glyph glyph-name="uring" unicode="&#x16f;" 
d="M450 0v100l-5.5 -11.5t-18.5 -26.5t-33 -33.5t-50 -26.5t-68 -12q-80 0 -135 58t-55 147v285h30v-285q0 -78 45.5 -126.5t114.5 -48.5q72 0 123.5 53.5t51.5 131.5v275h30v-480h-30zM220 640q0 -26 19.5 -45.5t45.5 -19.5t45.5 19.5t19.5 45.5t-19.5 45.5t-45.5 19.5
t-45.5 -19.5t-19.5 -45.5zM380 640q0 -38 -29 -66.5t-66 -28.5t-66 28.5t-29 66.5t29 66.5t66 28.5t66 -28.5t29 -66.5z" />
    <glyph glyph-name="Uhungarumlaut" unicode="&#x170;" horiz-adv-x="750" 
d="M375 20q102 0 171 70.5t69 176.5v433h30v-433q0 -117 -78.5 -197t-191.5 -80t-191.5 80t-78.5 197v433h30v-433q0 -106 69 -176.5t171 -70.5zM285 795l75 125h35l-85 -125h-25zM420 795l75 125h35l-85 -125h-25z" />
    <glyph glyph-name="uhungarumlaut" unicode="&#x171;" 
d="M450 0v100l-5.5 -11.5t-18.5 -26.5t-33 -33.5t-50 -26.5t-68 -12q-80 0 -135 58t-55 147v285h30v-285q0 -78 45.5 -126.5t114.5 -48.5q72 0 123.5 53.5t51.5 131.5v275h30v-480h-30zM195 565l75 125h35l-85 -125h-25zM330 565l75 125h35l-85 -125h-25z" />
    <glyph glyph-name="Uogonek" unicode="&#x172;" horiz-adv-x="750" 
d="M375 20q102 0 171 70.5t69 176.5v433h30v-433q0 -110 -70 -188t-174 -87q-61 -64 -61 -112q0 -23 17 -39t43 -16q16 0 31 5t22 10l7 5v-25q-25 -20 -60 -20q-37 0 -61 23t-24 57q0 55 58 110q-112 1 -190 80.5t-78 196.5v433h30v-433q0 -106 69 -176.5t171 -70.5z" />
    <glyph glyph-name="uogonek" unicode="&#x173;" 
d="M450 0v100l-5.5 -11.5t-18.5 -26.5t-33 -33.5t-50 -26.5t-68 -12q-80 0 -135 58t-55 147v285h30v-285q0 -78 45.5 -126.5t114.5 -48.5q72 0 123.5 53.5t51.5 131.5v275h30v-480h-5q-8 -7 -19.5 -19.5t-31 -44.5t-19.5 -56q0 -23 17 -39t43 -16q16 0 31 5t22 10l7 5v-25
q-25 -20 -60 -20q-37 0 -61 23t-24 57q0 29 17.5 59t34.5 45z" />
    <glyph glyph-name="Ydieresis" unicode="&#x178;" horiz-adv-x="610" 
d="M65 700l240 -420l240 420h35l-260 -455v-245h-30v245l-260 455h35zM200 860q0 25 25 25t25 -25t-25 -25t-25 25zM360 860q0 25 25 25t25 -25t-25 -25t-25 25z" />
    <glyph glyph-name="Zacute" unicode="&#x179;" horiz-adv-x="565" 
d="M480 670h-425v30h460v-30l-440 -640h450v-30h-485v30zM270 795l75 125h35l-85 -125h-25z" />
    <glyph glyph-name="zacute" unicode="&#x17a;" horiz-adv-x="430" 
d="M385 480v-30l-325 -420h335v-30h-370v30l325 420h-315v30h350zM195 565l75 125h35l-85 -125h-25z" />
    <glyph glyph-name="Zdotaccent" unicode="&#x17b;" horiz-adv-x="565" 
d="M480 670h-425v30h460v-30l-440 -640h450v-30h-485v30zM260 860q0 25 25 25t25 -25t-25 -25q-11 0 -18 7.5t-7 17.5z" />
    <glyph glyph-name="zdotaccent" unicode="&#x17c;" horiz-adv-x="430" 
d="M385 480v-30l-325 -420h335v-30h-370v30l325 420h-315v30h350zM185 625q0 25 25 25t25 -25t-25 -25q-11 0 -18 7.5t-7 17.5z" />
    <glyph glyph-name="Zcaron" unicode="&#x17d;" horiz-adv-x="565" 
d="M480 670h-425v30h460v-30l-440 -640h450v-30h-485v30zM410 920l-105 -125h-30l-105 125h35l85 -100l85 100h35z" />
    <glyph glyph-name="zcaron" unicode="&#x17e;" horiz-adv-x="430" 
d="M385 480v-30l-325 -420h335v-30h-370v30l325 420h-315v30h350zM330 690l-105 -125h-30l-105 125h35l85 -100l85 100h35z" />
    <glyph glyph-name="florin" unicode="&#x192;" horiz-adv-x="345" 
d="M190 350l-85 -440q-23 -120 -120 -120q-16 0 -32 4t-25 8l-8 3v30q30 -15 65 -15q72 0 90 90l85 440h-90v30h95l40 210q23 120 120 120q16 0 32 -4t25 -8l8 -3v-30q-30 15 -65 15q-73 0 -90 -90l-40 -210h125v-30h-130z" />
    <glyph glyph-name="Scommaaccent" unicode="&#x218;" horiz-adv-x="550" 
d="M460 185q0 42 -22 72t-56.5 46.5t-76.5 29t-84.5 26.5t-77 32.5t-56.5 52t-22 81.5q0 77 61 131t159 54q35 0 68 -9t55 -21t39 -24.5t25 -21.5l8 -9l-25 -25q-2 3 -6.5 8.5t-20.5 19.5t-34 24.5t-47.5 19t-61.5 8.5q-87 0 -138.5 -44.5t-51.5 -110.5q0 -41 22 -70
t56.5 -45t77 -28.5t84.5 -26.5t76.5 -33t56.5 -53.5t22 -83.5q0 -81 -63 -138t-162 -57q-41 0 -78.5 10.5t-61.5 25t-41.5 29t-25.5 25.5l-8 10l25 25q2 -4 6.5 -10.5t21.5 -22.5t37 -28.5t53.5 -23t71.5 -10.5q88 0 141.5 47.5t53.5 117.5zM215 -210l45 130h35l-55 -130
h-25z" />
    <glyph glyph-name="scommaaccent" unicode="&#x219;" horiz-adv-x="430" 
d="M360 420l-25 -25q-5 7 -14.5 18t-42 29t-68.5 18q-51 0 -85.5 -30.5t-34.5 -69.5q0 -34 29 -55.5t70 -32.5t82 -24t70 -41t29 -72q0 -61 -46 -103t-119 -42q-47 0 -88 20t-59 40l-18 20l25 25q2 -3 6 -8t17.5 -18t28.5 -23t39 -18t49 -8q62 0 98.5 32.5t36.5 82.5
q0 36 -29 58t-70 33.5l-82 24t-70 39.5t-29 70q0 50 44 90t106 40q42 0 79.5 -17.5t54.5 -34.5zM150 -210l45 130h35l-55 -130h-25z" />
    <glyph glyph-name="uni021A" unicode="&#x21a;" horiz-adv-x="540" 
d="M20 700h500v-30h-235v-670h-30v670h-235v30zM210 -210l45 130h35l-55 -130h-25z" />
    <glyph glyph-name="uni021B" unicode="&#x21b;" horiz-adv-x="335" 
d="M125 515v125h30v-160h110v-30h-110v-335q0 -44 23.5 -69.5t61.5 -25.5q16 0 31 4t22 8l7 3v-30q-25 -15 -60 -15q-53 0 -84 33t-31 92v335h-100v30h70q30 0 30 35zM150 -210l45 130h35l-55 -130h-25z" />
    <glyph glyph-name="afii57929" unicode="&#x2bc;" horiz-adv-x="140" 
d="M30 570l45 130h35l-55 -130h-25z" />
    <glyph glyph-name="circumflex" unicode="&#x2c6;" horiz-adv-x="300" 
d="M165 690l105 -125h-35l-85 100l-85 -100h-35l105 125h30z" />
    <glyph glyph-name="caron" unicode="&#x2c7;" horiz-adv-x="300" 
d="M270 690l-105 -125h-30l-105 125h35l85 -100l85 100h35z" />
    <glyph glyph-name="breve" unicode="&#x2d8;" horiz-adv-x="310" 
d="M155 595q45 0 70 25t25 70h30q0 -56 -34.5 -90.5t-90.5 -34.5t-90.5 34.5t-34.5 90.5h30q0 -45 25 -70t70 -25z" />
    <glyph glyph-name="dotaccent" unicode="&#x2d9;" horiz-adv-x="110" 
d="M30 640q0 25 25 25t25 -25t-25 -25q-11 0 -18 7.5t-7 17.5z" />
    <glyph glyph-name="ring" unicode="&#x2da;" horiz-adv-x="250" 
d="M60 600q0 -26 19.5 -45.5t45.5 -19.5t45.5 19.5t19.5 45.5t-19.5 45.5t-45.5 19.5t-45.5 -19.5t-19.5 -45.5zM220 600q0 -38 -29 -66.5t-66 -28.5t-66 28.5t-29 66.5t29 66.5t66 28.5t66 -28.5t29 -66.5z" />
    <glyph glyph-name="ogonek" unicode="&#x2db;" horiz-adv-x="205" 
d="M100 0h25q-8 -7 -19.5 -19.5t-31 -44.5t-19.5 -56q0 -23 17 -39t43 -16q16 0 31 5t22 10l7 5v-25q-25 -20 -60 -20q-37 0 -61 23t-24 57q0 29 17.5 59t34.5 45z" />
    <glyph glyph-name="tilde" unicode="&#x2dc;" horiz-adv-x="330" 
d="M100 655q-20 0 -30 -16t-10 -59h-30q0 105 70 105q22 0 40.5 -11.5t30 -26t27 -26t32.5 -11.5q20 0 30 16t10 59h30q0 -105 -70 -105q-22 0 -40.5 11.5t-30 26t-27 26t-32.5 11.5z" />
    <glyph glyph-name="hungarumlaut" unicode="&#x2dd;" horiz-adv-x="305" 
d="M30 565l75 125h35l-85 -125h-25zM165 565l75 125h35l-85 -125h-25z" />
    <glyph glyph-name="afii10023" unicode="&#x401;" horiz-adv-x="625" 
d="M145 30h440v-30h-470v700h460v-30h-430v-290h350v-30h-350v-320zM240 860q0 25 25 25t25 -25t-25 -25t-25 25zM400 860q0 25 25 25t25 -25t-25 -25t-25 25z" />
    <glyph glyph-name="afii10051" unicode="&#x402;" horiz-adv-x="705" 
d="M630 215q0 -104 -58.5 -164.5t-156.5 -60.5v30q87 0 136 51t49 144q0 89 -48.5 139.5t-131.5 50.5q-51 0 -101 -20t-75 -40l-24 -20v-325h-30v670h-190v30h410v-30h-190v-305q10 8 27 19.5t69.5 31t103.5 19.5q94 0 152 -59.5t58 -160.5z" />
    <glyph glyph-name="afii10052" unicode="&#x403;" horiz-adv-x="545" 
d="M310 795l75 125h35l-85 -125h-25zM115 0v700h415v-30h-385v-670h-30z" />
    <glyph glyph-name="afii10053" unicode="&#x404;" horiz-adv-x="745" 
d="M675 160l25 -20q-4 -6 -12 -16t-35.5 -36t-58.5 -46t-81 -36t-103 -16q-143 0 -246.5 105.5t-103.5 254.5t103.5 254.5t246.5 105.5q53 0 102.5 -15.5t82 -37.5t57.5 -44t36 -37l12 -16l-25 -20q-4 6 -11 15.5t-32 33.5t-53 42.5t-74 33.5t-95 15q-130 0 -223 -91
t-97 -219h395v-30h-395q4 -135 96.5 -227.5t223.5 -92.5q49 0 94.5 14.5t75 35t52 41t32.5 35.5z" />
    <glyph glyph-name="afii10054" unicode="&#x405;" horiz-adv-x="550" 
d="M460 185q0 42 -22 72t-56.5 46.5t-76.5 29t-84.5 26.5t-77 32.5t-56.5 52t-22 81.5q0 77 61 131t159 54q35 0 68 -9t55 -21t39 -24.5t25 -21.5l8 -9l-25 -25q-2 3 -6.5 8.5t-20.5 19.5t-34 24.5t-47.5 19t-61.5 8.5q-87 0 -138.5 -44.5t-51.5 -110.5q0 -41 22 -70
t56.5 -45t77 -28.5t84.5 -26.5t76.5 -33t56.5 -53.5t22 -83.5q0 -81 -63 -138t-162 -57q-41 0 -78.5 10.5t-61.5 25t-41.5 29t-25.5 25.5l-8 10l25 25q2 -4 6.5 -10.5t21.5 -22.5t37 -28.5t53.5 -23t71.5 -10.5q88 0 141.5 47.5t53.5 117.5z" />
    <glyph glyph-name="afii10055" unicode="&#x406;" horiz-adv-x="260" 
d="M115 0v700h30v-700h-30z" />
    <glyph glyph-name="afii10056" unicode="&#x407;" horiz-adv-x="260" 
d="M115 0v700h30v-700h-30zM25 860q0 25 25 25t25 -25t-25 -25t-25 25zM185 860q0 25 25 25t25 -25t-25 -25t-25 25z" />
    <glyph glyph-name="afii10057" unicode="&#x408;" horiz-adv-x="480" 
d="M345 700h30v-500q0 -90 -58 -150t-142 -60q-49 0 -90 19t-58 37l-17 19l25 25q2 -3 5.5 -7.5t16.5 -16.5t28 -21.5t39 -17t51 -7.5q72 0 121 50.5t49 129.5v500z" />
    <glyph glyph-name="afii10058" unicode="&#x409;" horiz-adv-x="1060" 
d="M780 0h-225v670h-335v-180q0 -151 -13.5 -254t-38.5 -154.5t-53 -71.5t-65 -20q-13 0 -27 2.5t-21 5.5l-7 2v30q25 -10 50 -10q31 0 54.5 18t45.5 66t33.5 145t11.5 241v210h395v-280h195q97 0 158.5 -59.5t61.5 -150.5t-61.5 -150.5t-158.5 -59.5zM585 30h195
q86 0 138 50.5t52 129.5t-52 129.5t-138 50.5h-195v-360z" />
    <glyph glyph-name="afii10059" unicode="&#x40a;" horiz-adv-x="1055" 
d="M775 0h-225v390h-405v-390h-30v700h30v-280h405v280h30v-280h195q97 0 158.5 -59.5t61.5 -150.5t-61.5 -150.5t-158.5 -59.5zM580 30h195q86 0 138 50.5t52 129.5t-52 129.5t-138 50.5h-195v-360z" />
    <glyph glyph-name="afii10060" unicode="&#x40b;" horiz-adv-x="725" 
d="M600 0v225q0 83 -49 131.5t-131 48.5q-51 0 -101 -20t-75 -40l-24 -20v-325h-30v670h-190v30h410v-30h-190v-305q10 8 27 19.5t69.5 31t103.5 19.5q94 0 152 -58t58 -152v-225h-30z" />
    <glyph glyph-name="afii10061" unicode="&#x40c;" horiz-adv-x="645" 
d="M145 240l415 460h40l-260 -290l285 -410h-35l-270 390l-175 -190v-200h-30v700h30v-460zM325 795l75 125h35l-85 -125h-25z" />
    <glyph glyph-name="afii10062" unicode="&#x40e;" horiz-adv-x="590" 
d="M300 825q41 0 68 27t27 68h30q0 -52 -36.5 -88.5t-88.5 -36.5t-88.5 36.5t-36.5 88.5h30q0 -41 27 -68t68 -27zM310 230l225 470h30l-270 -565q-36 -74 -76 -109.5t-94 -35.5q-13 0 -27 2.5t-21 5.5l-7 2v30q25 -10 55 -10q90 0 141 115l29 65l-270 500h30z" />
    <glyph glyph-name="afii10145" unicode="&#x40f;" horiz-adv-x="740" 
d="M625 700v-700h-240v-150h-30v150h-240v700h30v-670h450v670h30z" />
    <glyph glyph-name="afii10017" unicode="&#x410;" horiz-adv-x="670" 
d="M510 245l-175 420l-175 -420h350zM520 215h-370l-90 -215h-30l290 700h30l290 -700h-30z" />
    <glyph glyph-name="afii10018" unicode="&#x411;" horiz-adv-x="635" 
d="M145 670v-260h215q89 0 152 -61t63 -144t-63 -144t-152 -61h-245v700h405v-30h-375zM145 30h215q78 0 131.5 51.5t53.5 123.5t-53.5 123.5t-131.5 51.5h-215v-350z" />
    <glyph glyph-name="afii10019" unicode="&#x412;" horiz-adv-x="655" 
d="M445 375v-5q6 -1 15.5 -3t33.5 -14t42.5 -29t33.5 -51.5t15 -77.5q0 -87 -56 -141t-149 -54h-265v700h250q82 0 133.5 -49.5t51.5 -125.5q0 -35 -11 -63.5t-26.5 -44t-30.5 -25.5t-26 -14zM145 30h235q82 0 128.5 44.5t46.5 120.5q0 72 -47 116t-128 44h-235v-325z
M365 670h-220v-285h220q74 0 114.5 37.5t40.5 102.5q0 64 -42 104.5t-113 40.5z" />
    <glyph glyph-name="afii10020" unicode="&#x413;" horiz-adv-x="545" 
d="M115 0v700h415v-30h-385v-670h-30z" />
    <glyph glyph-name="afii10021" unicode="&#x414;" horiz-adv-x="695" 
d="M0 30h40q5 4 14 13.5t31.5 47.5t39.5 85.5t31 131.5t14 182v210h400v-670h90v-180h-30v150h-600v-150h-30v180zM200 490q0 -95 -13 -177.5t-31 -132t-36.5 -85.5t-31.5 -51l-13 -14h465v640h-340v-180z" />
    <glyph glyph-name="afii10022" unicode="&#x415;" horiz-adv-x="625" 
d="M145 30h440v-30h-470v700h460v-30h-430v-290h350v-30h-350v-320z" />
    <glyph glyph-name="afii10024" unicode="&#x416;" horiz-adv-x="930" 
d="M605 390l-125 -135v-255h-30v255l-125 135l-270 -390h-35l285 410l-260 290h40l365 -405v405h30v-405l365 405h40l-260 -290l285 -410h-35z" />
    <glyph glyph-name="afii10025" unicode="&#x417;" horiz-adv-x="550" 
d="M330 370q6 -1 16.5 -3.5t37.5 -15.5t47 -30.5t37 -52.5t17 -78q0 -81 -65.5 -140.5t-164.5 -59.5q-42 0 -80 10.5t-62.5 25t-43 29t-26.5 25.5l-8 10l25 25q2 -4 7 -10.5t22.5 -22.5t38.5 -28.5t55 -23t72 -10.5q88 0 144 50t56 120t-54.5 117.5t-145.5 47.5h-80v30h80
q84 0 132 41.5t48 103.5q0 63 -49 106.5t-131 43.5q-32 0 -62 -9t-49.5 -21t-34.5 -24.5t-22 -21.5l-7 -9l-25 25q3 4 8.5 10t25 21.5t41 27.5t55.5 21.5t70 9.5q93 0 151.5 -53t58.5 -127q0 -38 -14 -68.5t-33.5 -46.5t-39.5 -27t-34 -14z" />
    <glyph glyph-name="afii10026" unicode="&#x418;" horiz-adv-x="770" 
d="M115 700h30v-645l485 645h25v-700h-30v645l-485 -645h-25v700z" />
    <glyph glyph-name="afii10027" unicode="&#x419;" horiz-adv-x="770" 
d="M385 825q41 0 68 27t27 68h30q0 -52 -36 -88.5t-89 -36.5t-89 36.5t-36 88.5h30q0 -41 27 -68t68 -27zM115 700h30v-645l485 645h25v-700h-30v645l-485 -645h-25v700z" />
    <glyph glyph-name="afii10028" unicode="&#x41a;" horiz-adv-x="645" 
d="M145 240l415 460h40l-260 -290l285 -410h-35l-270 390l-175 -190v-200h-30v700h30v-460z" />
    <glyph glyph-name="afii10029" unicode="&#x41b;" horiz-adv-x="725" 
d="M610 700v-700h-30v670h-360v-180q0 -151 -13.5 -254t-38.5 -154.5t-53 -71.5t-65 -20q-13 0 -27 2.5t-21 5.5l-7 2v30q25 -10 50 -10q31 0 54.5 18t45.5 66t33.5 145t11.5 241v210h420z" />
    <glyph glyph-name="afii10030" unicode="&#x41c;" horiz-adv-x="910" 
d="M140 700l315 -435l315 435h25v-700h-30v645l-310 -431l-310 431v-645h-30v700h25z" />
    <glyph glyph-name="afii10031" unicode="&#x41d;" horiz-adv-x="740" 
d="M115 0v700h30v-330h450v330h30v-700h-30v340h-450v-340h-30z" />
    <glyph glyph-name="afii10032" unicode="&#x41e;" horiz-adv-x="820" 
d="M730 350q0 138 -94 234t-226 96t-226 -96t-94 -234t94 -234t226 -96t226 96t94 234zM760 350q0 -149 -103.5 -254.5t-246.5 -105.5t-246.5 105.5t-103.5 254.5t103.5 254.5t246.5 105.5t246.5 -105.5t103.5 -254.5z" />
    <glyph glyph-name="afii10033" unicode="&#x41f;" horiz-adv-x="740" 
d="M625 700v-700h-30v670h-450v-670h-30v700h510z" />
    <glyph glyph-name="afii10034" unicode="&#x420;" horiz-adv-x="635" 
d="M115 700h240q97 0 158.5 -59.5t61.5 -150.5t-61.5 -150.5t-158.5 -59.5h-210v-280h-30v700zM355 670h-210v-360h210q86 0 138 50.5t52 129.5t-52 129.5t-138 50.5z" />
    <glyph glyph-name="afii10035" unicode="&#x421;" horiz-adv-x="745" 
d="M60 350q0 149 103.5 254.5t246.5 105.5q53 0 102.5 -15.5t82 -37.5t57.5 -44t36 -37l12 -16l-25 -20q-4 6 -11 15.5t-32 33.5t-53 42.5t-74 33.5t-95 15q-132 0 -226 -96t-94 -234t94 -234t226 -96q49 0 94.5 14.5t75 35t52 41t32.5 35.5l11 14l25 -20q-4 -6 -12 -16
t-35.5 -36t-58.5 -46t-81 -36t-103 -16q-143 0 -246.5 105.5t-103.5 254.5z" />
    <glyph glyph-name="afii10036" unicode="&#x422;" horiz-adv-x="540" 
d="M20 700h500v-30h-235v-670h-30v670h-235v30z" />
    <glyph glyph-name="afii10037" unicode="&#x423;" horiz-adv-x="590" 
d="M310 230l225 470h30l-270 -565q-36 -74 -76 -109.5t-94 -35.5q-13 0 -27 2.5t-21 5.5l-7 2v30q25 -10 55 -10q90 0 141 115l29 65l-270 500h30z" />
    <glyph glyph-name="afii10038" unicode="&#x424;" horiz-adv-x="840" 
d="M405 104v511q-145 -4 -230 -77t-85 -178t85 -178.5t230 -77.5zM435 75v-95h-30v95q-156 4 -250.5 86t-94.5 199t94.5 199t250.5 86v75h30v-75q156 -4 250.5 -86t94.5 -199t-94.5 -199t-250.5 -86zM435 615v-511q145 4 230 77.5t85 178.5t-85 178t-230 77z" />
    <glyph glyph-name="afii10039" unicode="&#x425;" horiz-adv-x="610" 
d="M530 700h35l-245 -340l260 -360h-35l-240 335l-240 -335h-35l260 360l-245 340h35l225 -315z" />
    <glyph glyph-name="afii10040" unicode="&#x426;" horiz-adv-x="745" 
d="M115 0v700h30v-670h440v670h30v-670h90v-180h-30v150h-560z" />
    <glyph glyph-name="afii10041" unicode="&#x427;" horiz-adv-x="695" 
d="M135 700v-210q0 -94 55.5 -149.5t149.5 -55.5q56 0 108.5 21.5t77.5 42.5l24 21v330h30v-700h-30v330q-3 -3 -9.5 -8t-28 -18t-44.5 -23t-58 -18t-70 -8q-105 0 -170 65t-65 170v210h30z" />
    <glyph glyph-name="afii10042" unicode="&#x428;" horiz-adv-x="1000" 
d="M115 0v700h30v-670h340v670h30v-670h340v670h30v-700h-770z" />
    <glyph glyph-name="afii10043" unicode="&#x429;" horiz-adv-x="1015" 
d="M115 0v700h30v-670h340v670h30v-670h340v670h30v-670h90v-180h-30v150h-830z" />
    <glyph glyph-name="afii10044" unicode="&#x42a;" horiz-adv-x="685" 
d="M405 0h-230v670h-175v30h205v-280h200q97 0 158.5 -59.5t61.5 -150.5t-61.5 -150.5t-158.5 -59.5zM205 30h200q86 0 138 50.5t52 129.5t-52 129.5t-138 50.5h-200v-360z" />
    <glyph glyph-name="afii10045" unicode="&#x42b;" horiz-adv-x="860" 
d="M745 0h-30v700h30v-700zM345 0h-230v700h30v-280h200q97 0 158.5 -59.5t61.5 -150.5t-61.5 -150.5t-158.5 -59.5zM145 30h200q86 0 138 50.5t52 129.5t-52 129.5t-138 50.5h-200v-360z" />
    <glyph glyph-name="afii10046" unicode="&#x42c;" horiz-adv-x="635" 
d="M355 0h-240v700h30v-280h210q97 0 158.5 -59.5t61.5 -150.5t-61.5 -150.5t-158.5 -59.5zM145 30h210q86 0 138 50.5t52 129.5t-52 129.5t-138 50.5h-210v-360z" />
    <glyph glyph-name="afii10047" unicode="&#x42d;" horiz-adv-x="735" 
d="M35 140l25 20q4 -6 11 -15.5t32 -33.5t53 -42.5t74 -33.5t95 -15q131 0 223.5 92.5t96.5 227.5h-395v30h395q-4 128 -97 219t-223 91q-49 0 -94.5 -14.5t-75 -35t-52 -41t-33.5 -35.5l-10 -14l-25 20q4 6 12 16t35.5 36t58.5 46t81 36t103 16q143 0 246.5 -105.5
t103.5 -254.5t-103.5 -254.5t-246.5 -105.5q-53 0 -102.5 15.5t-82 37.5t-57.5 44t-37 37z" />
    <glyph glyph-name="afii10048" unicode="&#x42e;" horiz-adv-x="1030" 
d="M145 700v-330h165q4 138 103 239t227 101q134 0 232 -104.5t98 -255.5t-98 -255.5t-232 -104.5q-132 0 -229 102t-101 248h-165v-340h-30v700h30zM340 350q0 -140 89 -235t211 -95t211 95t89 235t-89 235t-211 95t-211 -95t-89 -235z" />
    <glyph glyph-name="afii10049" unicode="&#x42f;" horiz-adv-x="655" 
d="M285 700h255v-700h-30v300h-245l-170 -300h-35l175 305q-7 1 -17.5 3.5t-38 16t-48.5 33t-38.5 57t-17.5 85.5q0 87 58.5 143.5t151.5 56.5zM510 670h-225q-82 0 -131 -47t-49 -123t49 -123t131 -47h225v340z" />
    <glyph glyph-name="afii10065" unicode="&#x430;" horiz-adv-x="505" 
d="M185 265l195 35v5q0 71 -40.5 113t-104.5 42q-42 0 -78.5 -19t-51.5 -37l-15 -19l-20 20q2 3 6.5 9t20 20.5t33 26t46 20.5t59.5 9q76 0 125.5 -51.5t49.5 -133.5v-305h-30v100l-6 -11.5t-19.5 -26.5t-34 -33.5t-51 -26.5t-69.5 -12q-69 0 -114.5 40.5t-45.5 94.5
q0 114 145 140zM200 19q75 0 127.5 54t52.5 132v65l-195 -35q-56 -10 -85.5 -39t-29.5 -71q0 -43 36 -74.5t94 -31.5z" />
    <glyph glyph-name="afii10066" unicode="&#x431;" horiz-adv-x="565" 
d="M505 230q0 -100 -66 -170t-154 -70q-95 0 -162.5 82.5t-67.5 222.5q0 178 66 269.5t174 110.5q51 9 91 22.5t54 22.5l15 10l15 -25q-55 -40 -170 -60q-97 -17 -155.5 -98.5t-59.5 -236.5q2 6 6.5 16.5t21.5 37.5t38 47t58.5 37t80.5 17q84 0 149.5 -69.5t65.5 -165.5z
M95 230q0 -83 57.5 -146.5t132.5 -63.5q77 0 133.5 61t56.5 149q0 85 -56 145t-129 60q-74 0 -134.5 -60.5t-60.5 -144.5z" />
    <glyph glyph-name="afii10067" unicode="&#x432;" horiz-adv-x="510" 
d="M85 480h205q63 0 99 -34t36 -91q0 -38 -17.5 -64t-35.5 -33l-17 -8l10 -2.5t21.5 -9.5t27.5 -19.5t21.5 -33.5t9.5 -50q0 -61 -39 -98t-106 -37h-215v480zM300 235h-185v-205h185q56 0 85.5 28t29.5 77q0 46 -29.5 73t-85.5 27zM395 355q0 95 -105 95h-175v-185h175
q51 0 78 24t27 66z" />
    <glyph glyph-name="afii10068" unicode="&#x433;" horiz-adv-x="400" 
d="M380 480v-30h-265v-450h-30v480h295z" />
    <glyph glyph-name="afii10069" unicode="&#x434;" horiz-adv-x="545" 
d="M510 30v-150h-29v120h-456v-120h-30v150h40q4 4 10 11.5t21.5 35.5t27.5 61t21.5 87.5t9.5 114.5v140h305v-450h80zM155 450v-110q0 -57 -9 -110t-21.5 -88t-24.5 -61.5t-21 -38.5l-9 -12h330v420h-245z" />
    <glyph glyph-name="afii10070" unicode="&#x435;" horiz-adv-x="550" 
d="M495 225h-415q4 -86 63 -145.5t142 -59.5q30 0 57.5 9.5t45.5 22.5t31.5 26t19.5 22l6 10l25 -20l-8 -11t-22 -24t-37 -30t-52 -24t-66 -11q-95 0 -165 73t-70 177q0 103 68.5 176.5t156.5 73.5t154 -72t66 -178v-15zM275 460q-76 0 -135.5 -61.5t-59.5 -143.5h385
q-4 89 -59 147t-131 58z" />
    <glyph glyph-name="afii10072" unicode="&#x436;" horiz-adv-x="710" 
d="M365 160v-160h-30v160l-95 100h-5l-185 -260h-35l205 285l-180 195h40l255 -280v280h30v-280l255 280h40l-180 -195l205 -285h-35l-185 260h-5z" />
    <glyph glyph-name="afii10073" unicode="&#x437;" horiz-adv-x="430" 
d="M345 365q0 -40 -22.5 -68.5t-44.5 -37.5l-23 -9l11.5 -3t26.5 -11t33.5 -21t26.5 -35.5t12 -52.5q0 -56 -47 -96.5t-123 -40.5q-31 0 -59 9t-46.5 21t-32.5 24.5t-21 21.5l-6 9l25 25l5.5 -8.5t16.5 -19.5t28 -24.5t39 -19t51 -8.5q65 0 102.5 31t37.5 76q0 46 -37.5 77
t-102.5 31h-50v30h50q55 0 87.5 28.5t32.5 71.5q0 39 -33 67t-87 28q-24 0 -46 -6.5t-36.5 -16t-26 -19.5t-16.5 -16l-5 -7l-25 25q2 3 6.5 7.5t19.5 16.5t31.5 21.5t43 17t54.5 7.5q65 0 107.5 -37t42.5 -88z" />
    <glyph glyph-name="afii10074" unicode="&#x438;" 
d="M460 480h25v-480h-30v430l-345 -430h-25v480h30v-430z" />
    <glyph glyph-name="afii10075" unicode="&#x439;" 
d="M285 595q45 0 70 25t25 70h30q0 -56 -34.5 -90.5t-90.5 -34.5t-90.5 34.5t-34.5 90.5h30q0 -45 25 -70t70 -25zM460 480h25v-480h-30v430l-345 -430h-25v480h30v-430z" />
    <glyph glyph-name="afii10076" unicode="&#x43a;" horiz-adv-x="490" 
d="M115 125v-125h-30v480h30v-315l285 315h40l-180 -195l205 -285h-35l-185 260h-5z" />
    <glyph glyph-name="afii10077" unicode="&#x43b;" horiz-adv-x="555" 
d="M135 480h325v-480h-30v450h-265v-110q0 -107 -9.5 -178.5t-27.5 -107.5t-38.5 -50t-49.5 -14q-11 0 -22.5 2.5t-17.5 5.5l-5 2v29q20 -9 40 -9q31 0 51 21t34.5 94.5t14.5 204.5v140z" />
    <glyph glyph-name="afii10078" unicode="&#x43c;" horiz-adv-x="650" 
d="M320 145l-205 280v-425h-30v480h25l210 -285l210 285h25v-480h-30v425z" />
    <glyph glyph-name="afii10079" unicode="&#x43d;" horiz-adv-x="570" 
d="M445 0v230h-330v-230h-30v480h30v-220h330v220h30v-480h-30z" />
    <glyph glyph-name="afii10080" unicode="&#x43e;" 
d="M490 240q0 92 -61 156t-144 64q-84 0 -144.5 -63.5t-60.5 -156.5t60.5 -156.5t144.5 -63.5t144.5 63.5t60.5 156.5zM520 240q0 -104 -70 -177t-165 -73t-165 73t-70 177t70 177t165 73t165 -73t70 -177z" />
    <glyph glyph-name="afii10081" unicode="&#x43f;" horiz-adv-x="570" 
d="M446 0v450h-331v-450h-30v480h390v-480h-29z" />
    <glyph glyph-name="afii10082" unicode="&#x440;" horiz-adv-x="590" 
d="M115 120v-330h-30v690h30v-120q2 5 7 14t22.5 31.5t38.5 39.5t55 31t72 14q85 0 152.5 -74t67.5 -176t-67.5 -176t-152.5 -74q-38 0 -72 13.5t-55.5 32.5t-37.5 38t-23 32zM310 20q74 0 132 64.5t58 155.5t-58 155.5t-132 64.5q-77 0 -136 -64t-59 -156t59 -156t136 -64z
" />
    <glyph glyph-name="afii10083" unicode="&#x441;" horiz-adv-x="520" 
d="M80 240q0 -93 60.5 -156.5t144.5 -63.5q29 0 56.5 9.5t45.5 22.5t31.5 26t19.5 22l7 10l25 -20l-8 -11t-22.5 -24t-37.5 -30t-51.5 -24t-65.5 -11q-95 0 -165 73t-70 177t70 177t165 73q34 0 65 -10.5t52 -25t37 -29t23 -25.5l8 -10l-25 -20q-2 4 -6.5 10t-19.5 21.5
t-32 27.5t-45 21.5t-57 9.5q-84 0 -144.5 -63.5t-60.5 -156.5z" />
    <glyph glyph-name="afii10084" unicode="&#x442;" horiz-adv-x="440" 
d="M15 450v30h400v-30h-185v-450h-30v450h-185z" />
    <glyph glyph-name="afii10085" unicode="&#x443;" horiz-adv-x="470" 
d="M175 -100l40 100l-195 480h30l180 -440l180 440h30l-235 -580q-23 -58 -52 -84t-73 -26q-11 0 -21 2.5t-15 5.5l-4 2v30q15 -10 40 -10q63 0 95 80z" />
    <glyph glyph-name="afii10086" unicode="&#x444;" horiz-adv-x="690" 
d="M325 -210v200q-118 0 -194 72t-76 178t76 178t194 72v210h30v-210q118 0 194 -72t76 -178t-76 -178t-194 -72v-200h-30zM595 240q0 95 -66.5 157.5t-173.5 62.5v-440q107 0 173.5 62.5t66.5 157.5zM85 240q0 -95 66.5 -157.5t173.5 -62.5v440q-107 0 -173.5 -62.5
t-66.5 -157.5z" />
    <glyph glyph-name="afii10087" unicode="&#x445;" horiz-adv-x="450" 
d="M235 250l185 -250h-35l-165 225l-165 -225h-35l185 250l-170 230h35l150 -205l150 205h35z" />
    <glyph glyph-name="afii10088" unicode="&#x446;" 
d="M85 0v480h30v-450h321v450h29v-450h80v-150h-29v120h-431z" />
    <glyph glyph-name="afii10089" unicode="&#x447;" horiz-adv-x="535" 
d="M410 0v215q-7 -5 -19.5 -12.5t-54.5 -20t-86 -12.5q-82 0 -128.5 45.5t-46.5 124.5v140h30v-140q0 -68 37 -104t108 -36q44 0 84 12.5t58 25.5l18 12v230h30v-480h-30z" />
    <glyph glyph-name="afii10090" unicode="&#x448;" horiz-adv-x="780" 
d="M85 0v480h30v-450h255v450h30v-450h256v450h29v-480h-600z" />
    <glyph glyph-name="afii10091" unicode="&#x449;" horiz-adv-x="800" 
d="M85 0v480h30v-450h255v450h30v-450h255v450h30v-450h80v-150h-30v120h-650z" />
    <glyph glyph-name="afii10092" unicode="&#x44a;" horiz-adv-x="520" 
d="M470 150q0 -65 -45.5 -107.5t-119.5 -42.5h-170v450h-140v30h170v-175h140q74 0 119.5 -43.5t45.5 -111.5zM165 30h140q63 0 99 33t36 87q0 57 -36 91t-99 34h-140v-245z" />
    <glyph glyph-name="afii10093" unicode="&#x44b;" horiz-adv-x="670" 
d="M575 480v-480h-30v480h30zM115 30h140q63 0 99 33t36 87q0 57 -36 91t-99 34h-140v-245zM420 150q0 -65 -45.5 -107.5t-119.5 -42.5h-170v480h30v-175h140q74 0 119.5 -43.5t45.5 -111.5z" />
    <glyph glyph-name="afii10094" unicode="&#x44c;" horiz-adv-x="480" 
d="M115 30h150q63 0 99 33t36 87q0 57 -36 91t-99 34h-150v-245zM430 150q0 -65 -45.5 -107.5t-119.5 -42.5h-180v480h30v-175h150q74 0 119.5 -43.5t45.5 -111.5z" />
    <glyph glyph-name="afii10095" unicode="&#x44d;" horiz-adv-x="510" 
d="M30 90l25 20q2 -4 6.5 -10t19.5 -21.5t32 -27.5t45 -21.5t57 -9.5q83 0 142 61t63 154h-260v30h260q-8 80 -67.5 137.5t-137.5 57.5q-29 0 -56.5 -9.5t-45.5 -22.5t-31.5 -26t-19.5 -22l-7 -10l-25 20l8 11t22.5 24t37.5 30t51.5 24t65.5 11q95 0 165 -73t70 -177
t-70 -177t-165 -73q-34 0 -65 10.5t-52 25t-37 29t-23 25.5z" />
    <glyph glyph-name="afii10096" unicode="&#x44e;" horiz-adv-x="750" 
d="M690 240q0 -107 -66.5 -178.5t-158.5 -71.5q-91 0 -156 68t-69 172h-125v-230h-30v480h30v-220h125q7 97 72.5 163.5t152.5 66.5q92 0 158.5 -71.5t66.5 -178.5zM270 240q0 -96 57 -158t138 -62t138 62t57 158t-57 158t-138 62t-138 -62t-57 -158z" />
    <glyph glyph-name="afii10097" unicode="&#x44f;" horiz-adv-x="500" 
d="M50 330q0 65 45.5 107.5t119.5 42.5h190v-480h-30v185h-180l-110 -185h-35l115 190q-5 1 -12.5 4t-27.5 14t-35 25t-27.5 40t-12.5 57zM375 450h-160q-63 0 -99 -33t-36 -87q0 -50 36.5 -82.5t98.5 -32.5h160v235z" />
    <glyph glyph-name="afii10071" unicode="&#x451;" horiz-adv-x="550" 
d="M495 225h-415q4 -86 63 -145.5t142 -59.5q30 0 57.5 9.5t45.5 22.5t31.5 26t19.5 22l6 10l25 -20l-8 -11t-22 -24t-37 -30t-52 -24t-66 -11q-95 0 -165 73t-70 177q0 103 68.5 176.5t156.5 73.5t154 -72t66 -178v-15zM275 460q-76 0 -135.5 -61.5t-59.5 -143.5h385
q-4 89 -59 147t-131 58zM166 631q0 25 25 25t25 -25t-25 -25t-25 25zM326 631q0 25 25 25t25 -25t-25 -25t-25 25z" />
    <glyph glyph-name="afii10099" unicode="&#x452;" horiz-adv-x="575" 
d="M135 700v-105h155v-30h-155v-230l5.5 11.5t17.5 26.5t32 33.5t50 26.5t70 12q81 0 140.5 -65t59.5 -160q0 -103 -57.5 -166.5t-142.5 -63.5v30q73 0 121.5 54.5t48.5 145.5q0 84 -50.5 139.5t-119.5 55.5q-76 0 -125.5 -52.5t-49.5 -137.5v-225h-30v565h-90v30h90v105h30
z" />
    <glyph glyph-name="afii10100" unicode="&#x453;" horiz-adv-x="400" 
d="M215 565l75 125h35l-85 -125h-25zM380 480v-30h-265v-450h-30v480h295z" />
    <glyph glyph-name="afii10101" unicode="&#x454;" horiz-adv-x="520" 
d="M445 110l25 -20l-8 -11t-22.5 -24t-37.5 -30t-51.5 -24t-65.5 -11q-95 0 -165 73t-70 177t70 177t165 73q34 0 65 -10.5t52 -25t37 -29t23 -25.5l8 -10l-25 -20q-2 4 -6.5 10t-19.5 21.5t-32 27.5t-45 21.5t-57 9.5q-78 0 -137.5 -57.5t-67.5 -137.5h260v-30h-260
q4 -93 63 -154t142 -61q29 0 56.5 9.5t45.5 22.5t31.5 26t19.5 22z" />
    <glyph glyph-name="afii10102" unicode="&#x455;" horiz-adv-x="430" 
d="M360 420l-25 -25q-5 7 -14.5 18t-42 29t-68.5 18q-51 0 -85.5 -30.5t-34.5 -69.5q0 -34 29 -55.5t70 -32.5t82 -24t70 -41t29 -72q0 -61 -46 -103t-119 -42q-47 0 -88 20t-59 40l-18 20l25 25q2 -3 6 -8t17.5 -18t28.5 -23t39 -18t49 -8q62 0 98.5 32.5t36.5 82.5
q0 36 -29 58t-70 33.5l-82 24t-70 39.5t-29 70q0 50 44 90t106 40q42 0 79.5 -17.5t54.5 -34.5z" />
    <glyph glyph-name="afii10103" unicode="&#x456;" horiz-adv-x="220" 
d="M90 0v480h30v-480h-30zM130 655q0 -25 -25 -25t-25 25t25 25t25 -25z" />
    <glyph glyph-name="afii10104" unicode="&#x457;" horiz-adv-x="220" 
d="M0 632q0 25 25 25t25 -25t-25 -25t-25 25zM160 632q0 25 25 25t25 -25t-25 -25t-25 25zM120 480v-480h-30v480h30z" />
    <glyph glyph-name="afii10105" unicode="&#x458;" horiz-adv-x="220" 
d="M90 -85v565h30v-565q0 -55 -33 -90t-82 -35q-16 0 -31 4t-22 8l-7 3v30q25 -15 60 -15q38 0 61.5 25.5t23.5 69.5zM130 655q0 -25 -25 -25t-25 25t25 25t25 -25z" />
    <glyph glyph-name="afii10106" unicode="&#x459;" horiz-adv-x="785" 
d="M735 140q0 -62 -44 -101t-121 -39h-165v450h-240v-110q0 -107 -9.5 -178.5t-27.5 -107.5t-38.5 -50t-49.5 -14q-11 0 -22.5 2.5t-17.5 5.5l-5 2v29q20 -9 40 -9q31 0 51 21t34.5 94.5t14.5 204.5v140h300v-195h135q78 0 121.5 -40t43.5 -105zM435 30h135q66 0 100.5 30
t34.5 80q0 54 -34.5 84.5t-100.5 30.5h-135v-225z" />
    <glyph glyph-name="afii10107" unicode="&#x45a;" horiz-adv-x="790" 
d="M740 140q0 -62 -44 -101t-121 -39h-165v255h-295v-255h-30v480h30v-195h295v195h30v-195h135q78 0 121.5 -40t43.5 -105zM440 30h135q66 0 100.5 30t34.5 80q0 54 -34.5 84.5t-100.5 30.5h-135v-225z" />
    <glyph glyph-name="afii10108" unicode="&#x45b;" horiz-adv-x="595" 
d="M135 700v-105h155v-30h-155v-230l5.5 11.5t17.5 26.5t32 33.5t50 26.5t70 12q80 0 135 -58t55 -147v-240h-30v240q0 78 -45.5 126.5t-114.5 48.5q-76 0 -125.5 -52.5t-49.5 -137.5v-225h-30v565h-90v30h90v105h30z" />
    <glyph glyph-name="afii10109" unicode="&#x45c;" horiz-adv-x="490" 
d="M235 565l75 125h35l-85 -125h-25zM115 125v-125h-30v480h30v-315l285 315h40l-180 -195l205 -285h-35l-185 260h-5z" />
    <glyph glyph-name="afii10110" unicode="&#x45e;" horiz-adv-x="470" 
d="M175 -100l40 100l-195 480h30l180 -440l180 440h30l-235 -580q-23 -58 -52 -84t-73 -26q-11 0 -21 2.5t-15 5.5l-4 2v30q15 -10 40 -10q63 0 95 80zM230 595q45 0 70 25t25 70h30q0 -56 -34.5 -90.5t-90.5 -34.5t-90.5 34.5t-34.5 90.5h30q0 -45 25 -70t70 -25z" />
    <glyph glyph-name="afii10193" unicode="&#x45f;" horiz-adv-x="570" 
d="M85 0v480h30v-450h331v450h29v-480h-180v-120h-30v120h-180z" />
    <glyph glyph-name="afii10050" unicode="&#x490;" horiz-adv-x="545" 
d="M500 700v140h30v-170h-385v-670h-30v700h385z" />
    <glyph glyph-name="afii10098" unicode="&#x491;" horiz-adv-x="400" 
d="M85 0v480h265v120h30v-150h-265v-450h-30z" />
    <glyph glyph-name="uni1E9E" unicode="&#x1e9e;" horiz-adv-x="650" 
d="M545 670l-195 -260h10q96 0 158 -59t62 -146t-62 -146t-158 -59h-45v30h45q85 0 137.5 49.5t52.5 125.5t-52.5 125.5t-137.5 49.5h-45v30l195 260h-205q-72 0 -116 -46.5t-44 -128.5v-495h-30v495q0 92 54 148.5t136 56.5h240v-30z" />
    <glyph glyph-name="endash" unicode="&#x2013;" horiz-adv-x="465" 
d="M420 310v-30h-375v30h375z" />
    <glyph glyph-name="emdash" unicode="&#x2014;" horiz-adv-x="705" 
d="M660 310v-30h-615v30h615z" />
    <glyph glyph-name="quoteleft" unicode="&#x2018;" horiz-adv-x="190" 
d="M70 545l-35 20l100 155l20 -10z" />
    <glyph glyph-name="quoteright" unicode="&#x2019;" horiz-adv-x="190" 
d="M120 720l35 -20l-100 -155l-20 10z" />
    <glyph glyph-name="quotesinglbase" unicode="&#x201a;" horiz-adv-x="180" 
d="M80 55l35 -20l-95 -155l-20 10z" />
    <glyph glyph-name="quotedblleft" unicode="&#x201c;" horiz-adv-x="320" 
d="M70 545l-35 20l100 155l20 -10zM200 545l-35 20l100 155l20 -10z" />
    <glyph glyph-name="quotedblright" unicode="&#x201d;" horiz-adv-x="320" 
d="M250 720l35 -20l-100 -155l-20 10zM120 720l35 -20l-100 -155l-20 10z" />
    <glyph glyph-name="quotedblbase" unicode="&#x201e;" horiz-adv-x="305" 
d="M80 55l35 -20l-95 -155l-20 10zM205 55l35 -20l-95 -155l-20 10z" />
    <glyph glyph-name="dagger" unicode="&#x2020;" horiz-adv-x="410" 
d="M190 555v145h30v-145h130v-30h-130v-325h-30v325h-130v30h130z" />
    <glyph glyph-name="daggerdbl" unicode="&#x2021;" horiz-adv-x="410" 
d="M190 555v145h30v-145h130v-30h-130v-150h130v-30h-130v-145h-30v145h-130v30h130v150h-130v30h130z" />
    <glyph glyph-name="bullet" unicode="&#x2022;" horiz-adv-x="370" 
d="M115 240q0 30 20 50t50 20t50 -20t20 -50t-20 -50t-50 -20t-50 20t-20 50z" />
    <glyph glyph-name="ellipsis" unicode="&#x2026;" 
d="M120 25q0 -25 -25 -25t-25 25t25 25t25 -25zM315 25q0 -25 -25 -25t-25 25t25 25t25 -25zM510 25q0 -25 -25 -25t-25 25t25 25t25 -25z" />
    <glyph glyph-name="perthousand" unicode="&#x2030;" horiz-adv-x="1105" 
d="M145 0l440 700h30l-440 -700h-30zM310 555q0 55 -33 90t-82 35t-82 -35t-33 -90t33 -90t82 -35t82 35t33 90zM340 555q0 -67 -42 -111t-103 -44t-103 44t-42 111t42 111t103 44t103 -44t42 -111zM680 145q0 55 -33 90t-82 35t-82 -35t-33 -90t33 -90t82 -35t82 35t33 90z
M710 145q0 -67 -42 -111t-103 -44t-103 44t-42 111t42 111t103 44t103 -44t42 -111zM1025 145q0 55 -33 90t-82 35t-82 -35t-33 -90t33 -90t82 -35t82 35t33 90zM1055 145q0 -67 -42 -111t-103 -44t-103 44t-42 111t42 111t103 44t103 -44t42 -111z" />
    <glyph glyph-name="guilsinglleft" unicode="&#x2039;" horiz-adv-x="260" 
d="M90 240l115 -155h-35l-115 155l115 155h35z" />
    <glyph glyph-name="guilsinglright" unicode="&#x203a;" horiz-adv-x="260" 
d="M170 240l-115 155h35l115 -155l-115 -155h-35z" />
    <glyph glyph-name="fraction" unicode="&#x2044;" horiz-adv-x="230" 
d="M-120 0l440 700h30l-440 -700h-30z" />
    <glyph glyph-name="zerosuperior" unicode="&#x2070;" horiz-adv-x="350" 
d="M70 625q0 -71 30.5 -110.5t74.5 -39.5t74.5 39.5t30.5 110.5t-30.5 110.5t-74.5 39.5t-74.5 -39.5t-30.5 -110.5zM310 625q0 -83 -40 -131.5t-95 -48.5t-95 48.5t-40 131.5t40 131.5t95 48.5t95 -48.5t40 -131.5z" />
    <glyph glyph-name="foursuperior" unicode="&#x2074;" horiz-adv-x="295" 
d="M225 570h50v-30h-50v-90h-30v90h-175v30l170 230h35v-230zM195 570v195l-145 -195h145z" />
    <glyph glyph-name="fivesuperior" unicode="&#x2075;" horiz-adv-x="270" 
d="M135 670q49 0 82 -33t33 -82q0 -45 -33.5 -77.5t-81.5 -32.5q-36 0 -67 13.5t-44 27.5l-14 14l20 20q4 -5 12.5 -12.5t36 -20t56.5 -12.5q37 0 61 23t24 57q0 37 -24 61t-61 24q-20 0 -37.5 -9t-25.5 -17l-7 -9h-30l15 195h180v-30h-150l-10 -125q25 25 65 25z" />
    <glyph glyph-name="sixsuperior" unicode="&#x2076;" horiz-adv-x="280" 
d="M140 685q49 0 84.5 -35.5t35.5 -84.5t-35.5 -84.5t-84.5 -35.5t-84.5 35.5t-35.5 84.5q0 20 7.5 41.5t14.5 32.5l8 11l95 150h30l-75 -125q15 10 40 10zM230 565q0 38 -26 64t-64 26t-64 -26.5t-26 -63.5t26 -63.5t64 -26.5t64 26.5t26 63.5z" />
    <glyph glyph-name="sevensuperior" unicode="&#x2077;" horiz-adv-x="260" 
d="M20 800h220v-30l-140 -320h-30l140 320h-190v30z" />
    <glyph glyph-name="eightsuperior" unicode="&#x2078;" horiz-adv-x="270" 
d="M135 475q36 0 60.5 21.5t24.5 48.5q0 31 -24 53t-61 22t-61 -22t-24 -53q0 -27 24.5 -48.5t60.5 -21.5zM135 650q30 0 50 19t20 46t-18.5 43.5t-51.5 16.5t-51.5 -16.5t-18.5 -43.5t20 -46t50 -19zM135 445q-47 0 -81 30.5t-34 69.5q0 33 17.5 55.5t34.5 28.5l18 6
q-2 1 -6 2.5t-13.5 8.5t-16.5 15t-13 22.5t-6 31.5q0 38 28 64t72 26t72 -26t28 -64q0 -17 -5.5 -31.5t-13.5 -23t-16.5 -14.5t-13.5 -8l-6 -3l7.5 -2.5t16.5 -8t21.5 -15.5t17 -26t7.5 -38q0 -39 -33.5 -69.5t-81.5 -30.5z" />
    <glyph glyph-name="ninesuperior" unicode="&#x2079;" horiz-adv-x="280" 
d="M140 565q-49 0 -84.5 35.5t-35.5 84.5t35.5 84.5t84.5 35.5t84.5 -35.5t35.5 -84.5q0 -20 -7.5 -41.5t-14.5 -32.5l-8 -11l-95 -150h-30l75 125q-15 -10 -40 -10zM50 685q0 -38 26 -64t64 -26t64 26.5t26 63.5t-26 63.5t-64 26.5t-64 -26.5t-26 -63.5z" />
    <glyph glyph-name="zeroinferior" unicode="&#x2080;" horiz-adv-x="350" 
d="M70 75q0 -71 30.5 -110.5t74.5 -39.5t74.5 39.5t30.5 110.5t-30.5 110.5t-74.5 39.5t-74.5 -39.5t-30.5 -110.5zM310 75q0 -83 -40 -131.5t-95 -48.5t-95 48.5t-40 131.5t40 131.5t95 48.5t95 -48.5t40 -131.5z" />
    <glyph glyph-name="oneinferior" unicode="&#x2081;" horiz-adv-x="195" 
d="M110 250h25v-350h-30v300q-25 -30 -75 -35v30q22 2 42 16t29 27z" />
    <glyph glyph-name="twoinferior" unicode="&#x2082;" horiz-adv-x="275" 
d="M245 -100h-225q0 41 20 73t49 52t57.5 37.5t48.5 40.5t20 51q0 31 -21 51t-54 20q-29 0 -50 -15t-28 -30l-7 -15l-30 10q1 3 3 8.5t11.5 19.5t21 24.5t33 19t46.5 8.5q45 0 75 -29t30 -71q0 -33 -17.5 -59t-44 -43.5l-54 -34t-50.5 -39t-30 -49.5h196v-30z" />
    <glyph glyph-name="threeinferior" unicode="&#x2083;" horiz-adv-x="285" 
d="M195 85q2 -1 6.5 -2t14.5 -7.5t18 -15t14.5 -24.5t6.5 -36q0 -45 -31 -75t-79 -30q-36 0 -67 15t-44 30l-14 15l20 20q4 -6 12.5 -14t36 -22t56.5 -14q37 0 58.5 20.5t21.5 54.5q0 31 -21.5 50.5t-58.5 19.5h-50v30h45q33 0 51.5 17.5t18.5 47.5q0 27 -19.5 43.5
t-55.5 16.5q-24 0 -45.5 -10t-30.5 -20l-9 -10l-20 20q4 6 12.5 14t36 22t56.5 14q48 0 76.5 -25.5t28.5 -64.5q0 -17 -4.5 -31.5t-11 -23t-13.5 -14.5t-11 -8z" />
    <glyph glyph-name="fourinferior" unicode="&#x2084;" horiz-adv-x="295" 
d="M225 20h50v-30h-50v-90h-30v90h-175v30l170 230h35v-230zM195 20v195l-145 -195h145z" />
    <glyph glyph-name="fiveinferior" unicode="&#x2085;" horiz-adv-x="270" 
d="M135 120q49 0 82 -33t33 -82q0 -45 -33.5 -77.5t-81.5 -32.5q-36 0 -67 13.5t-44 27.5l-14 14l20 20q4 -5 12.5 -12.5t36 -20t56.5 -12.5q37 0 61 23t24 57q0 37 -24 61t-61 24q-20 0 -37.5 -9t-25.5 -17l-7 -9h-30l15 195h180v-30h-150l-10 -125q25 25 65 25z" />
    <glyph glyph-name="sixinferior" unicode="&#x2086;" horiz-adv-x="280" 
d="M140 135q49 0 84.5 -35.5t35.5 -84.5t-35.5 -84.5t-84.5 -35.5t-84.5 35.5t-35.5 84.5q0 20 7.5 41.5t14.5 32.5l8 11l95 150h30l-75 -125q15 10 40 10zM230 15q0 38 -26 64t-64 26t-64 -26.5t-26 -63.5t26 -63.5t64 -26.5t64 26.5t26 63.5z" />
    <glyph glyph-name="seveninferior" unicode="&#x2087;" horiz-adv-x="260" 
d="M20 250h220v-30l-140 -320h-30l140 320h-190v30z" />
    <glyph glyph-name="eightinferior" unicode="&#x2088;" horiz-adv-x="270" 
d="M135 -75q36 0 60.5 21.5t24.5 48.5q0 31 -24 53t-61 22t-61 -22t-24 -53q0 -27 24.5 -48.5t60.5 -21.5zM135 100q30 0 50 19t20 46t-18.5 43.5t-51.5 16.5t-51.5 -16.5t-18.5 -43.5t20 -46t50 -19zM135 -105q-47 0 -81 30.5t-34 69.5q0 33 17.5 55.5t34.5 28.5l18 6
q-2 1 -6 2.5t-13.5 8.5t-16.5 15t-13 22.5t-6 31.5q0 38 28 64t72 26t72 -26t28 -64q0 -17 -5.5 -31.5t-13.5 -23t-16.5 -14.5t-13.5 -8l-6 -3l7.5 -2.5t16.5 -8t21.5 -15.5t17 -26t7.5 -38q0 -39 -33.5 -69.5t-81.5 -30.5z" />
    <glyph glyph-name="nineinferior" unicode="&#x2089;" horiz-adv-x="280" 
d="M140 15q-49 0 -84.5 35.5t-35.5 84.5t35.5 84.5t84.5 35.5t84.5 -35.5t35.5 -84.5q0 -20 -7.5 -41.5t-14.5 -32.5l-8 -11l-95 -150h-30l75 125q-15 -10 -40 -10zM50 135q0 -38 26 -64t64 -26t64 26.5t26 63.5t-26 63.5t-64 26.5t-64 -26.5t-26 -63.5z" />
    <glyph glyph-name="Euro" unicode="&#x20ac;" horiz-adv-x="740" 
d="M160 350l5 -65h276v-30h-271q20 -94 100 -164.5t185 -70.5q36 0 71 11t59 26t43 30.5t28 26.5l9 11l25 -25l-11 -11.5t-30 -26.5t-48.5 -33.5t-65 -26.5t-80.5 -12q-116 0 -204 78t-111 187h-100v30h95q-5 30 -5 65l5 65h-95v30h100q23 109 111 187t204 78q41 0 80 -11.5
t66 -27.5t48 -32t31 -27l10 -12l-25 -25q-3 4 -9.5 11t-27 25.5t-43.5 32t-58.5 25t-71.5 11.5q-105 0 -185 -70.5t-100 -164.5h271v-30h-276q-5 -30 -5 -65z" />
    <glyph glyph-name="uni20B4" unicode="&#x20b4;" horiz-adv-x="630" 
d="M75 415v30h375q35 35 35 80q0 66 -51.5 110.5t-138.5 44.5q-50 0 -92.5 -20t-60.5 -40l-17 -20l-25 25q3 3 8.5 9t24 20.5t39.5 26t54.5 20.5t68.5 9q98 0 159 -54t61 -131q0 -20 -6.5 -40t-12.5 -30l-6 -10h65v-30h-480zM555 285v-30h-375q-35 -35 -35 -80
q0 -66 51.5 -110.5t138.5 -44.5q50 0 92.5 20t60.5 40l17 20l25 -25q-3 -3 -8.5 -9t-24 -20.5t-39.5 -26t-54.5 -20.5t-68.5 -9q-98 0 -159 54t-61 131q0 20 6.5 40t12.5 30l6 10h-65v30h480z" />
    <glyph glyph-name="uni20BD" unicode="&#x20bd;" horiz-adv-x="650" 
d="M50 300v30h90v370h240q93 0 151.5 -56.5t58.5 -143.5t-58.5 -143.5t-151.5 -56.5h-210v-120h270v-30h-270v-150h-30v150h-90v30h90v120h-90zM380 670h-210v-340h210q82 0 131 47t49 123t-49 123t-131 47z" />
    <glyph glyph-name="afii61352" unicode="&#x2116;" horiz-adv-x="1100" 
d="M765 0v30h270v-30h-270zM610 700h30v-700h-25l-470 645v-645h-30v700h25l470 -645v645zM1015 325q0 55 -33 90t-82 35t-82 -35t-33 -90t33 -90t82 -35t82 35t33 90zM1045 325q0 -67 -42 -111t-103 -44t-103 44t-42 111t42 111t103 44t103 -44t42 -111z" />
    <glyph glyph-name="trademark" unicode="&#x2122;" horiz-adv-x="675" 
d="M455 480l-115 165v-245h-30v300h25l120 -170l120 170h25v-300h-30v245zM20 670v30h230v-30h-100v-270h-30v270h-100z" />
    <glyph glyph-name="minus" unicode="&#x2212;" horiz-adv-x="490" 
d="M445 310v-30h-400v30h400z" />
    <glyph glyph-name="approxequal" unicode="&#x2248;" horiz-adv-x="530" 
d="M170 400q-29 0 -52.5 -16t-33.5 -32l-9 -17l-25 15q2 3 5 8.5t14 19.5t24 24.5t34 19t43 8.5q32 0 58.5 -11.5t42 -26t39 -26t50.5 -11.5q29 0 52.5 16.5t33.5 32.5l9 16l25 -15q-2 -3 -5 -8.5t-14 -19.5t-24 -24.5t-34 -19t-43 -8.5q-40 0 -70.5 18.5t-58.5 37.5t-61 19
zM170 235q-29 0 -52.5 -16.5t-33.5 -32.5l-9 -16l-25 15q2 3 5 8.5t14 19.5t24 24.5t34 19t43 8.5q40 0 70.5 -18.5t58.5 -37.5t61 -19q29 0 52.5 16t33.5 32l9 17l25 -15q-2 -3 -5 -8.5t-14 -19.5t-24 -24.5t-34 -19t-43 -8.5q-32 0 -58.5 11.5t-42 26t-39 26t-50.5 11.5z
" />
    <glyph glyph-name="notequal" unicode="&#x2260;" horiz-adv-x="500" 
d="M445 225v-30h-235l-60 -115h-35l60 115h-120v30h135l80 140h-215v30h230l60 115h35l-60 -115h125v-30h-140l-80 -140h220z" />
    <glyph glyph-name="lessequal" unicode="&#x2264;" horiz-adv-x="490" 
d="M55 340v20l380 180v-30l-345 -160l345 -160v-30zM55 35v30h380v-30h-380z" />
    <glyph glyph-name="greaterequal" unicode="&#x2265;" horiz-adv-x="490" 
d="M435 360v-20l-380 -180v30l345 160l-345 160v30zM435 65v-30h-380v30h380z" />
    <glyph glyph-name="commaaccent" unicode="&#xf6c3;" horiz-adv-x="140" 
d="M30 -210l45 130h35l-55 -130h-25z" />
    <glyph glyph-name="cyrBreve" unicode="&#xf6d1;" horiz-adv-x="310" 
d="M155 825q41 0 68 27t27 68h30q0 -52 -36 -88.5t-89 -36.5t-89 36.5t-36 88.5h30q0 -41 27 -68t68 -27z" />
    <glyph glyph-name="cyrbreve" unicode="&#xf6d4;" horiz-adv-x="310" 
d="M155 595q45 0 70 25t25 70h30q0 -56 -34.5 -90.5t-90.5 -34.5t-90.5 34.5t-34.5 90.5h30q0 -45 25 -70t70 -25z" />
    <glyph glyph-name="uniFB02" unicode="&#xfb02;" horiz-adv-x="520" 
d="M390 0v550q0 55 -35.5 92.5t-84.5 37.5q-53 0 -89 -37t-36 -93v-70h120v-30h-120v-450h-30v450h-80v30h80v70q0 67 45.5 113.5t109.5 46.5q61 0 105.5 -46.5t44.5 -113.5v-550h-30z" />
    <glyph glyph-name="s_t" unicode="&#xfb06;" horiz-adv-x="760" 
d="M360 420l-25 -25q-5 7 -14.5 18t-42 29t-68.5 18q-51 0 -85.5 -30.5t-34.5 -69.5q0 -34 29 -55.5t70 -32.5t82 -24t70 -41t29 -72q0 -61 -46 -103t-119 -42q-47 0 -88 20t-59 40l-18 20l25 25q2 -3 6 -8t17.5 -18t28.5 -23t39 -18t49 -8q62 0 98.5 32.5t36.5 82.5
q0 36 -29 58t-70 33.5l-82 24t-70 39.5t-29 70q0 50 44 90t106 40q16 0 31 -2.5t22 -5.5l7 -2q-15 26 -15 75q0 64 47.5 109.5t117.5 45.5q68 0 114 -46t46 -114v-70h110v-30h-110v-335q0 -44 23.5 -69.5t61.5 -25.5q16 0 31 4t22 8l7 3v-30q-25 -15 -60 -15q-53 0 -84 33
t-31 92v335h-100v30h100v70q0 56 -37 93t-93 37q-59 0 -97 -36t-38 -89q0 -29 8.5 -54t17.5 -35l9 -11q11 -7 21 -15.5t15 -13.5z" />
    <glyph glyph-name="Germandbls" horiz-adv-x="650" 
d="M545 670l-195 -260h10q96 0 158 -59t62 -146t-62 -146t-158 -59h-45v30h45q85 0 137.5 49.5t52.5 125.5t-52.5 125.5t-137.5 49.5h-45v30l195 260h-205q-72 0 -116 -46.5t-44 -128.5v-495h-30v495q0 92 54 148.5t136 56.5h240v-30z" />
    <glyph glyph-name="I.alt" horiz-adv-x="360" 
d="M45 670v30h270v-30h-120v-640h120v-30h-270v30h120v640h-120z" />
    <glyph glyph-name="Igrave.alt" horiz-adv-x="360" 
d="M120 920l75 -125h-25l-85 125h35zM45 670v30h270v-30h-120v-640h120v-30h-270v30h120v640h-120z" />
    <glyph glyph-name="Iacute.alt" horiz-adv-x="360" 
d="M165 795l75 125h35l-85 -125h-25zM45 670v30h270v-30h-120v-640h120v-30h-270v30h120v640h-120z" />
    <glyph glyph-name="Icircumflex.alt" horiz-adv-x="360" 
d="M195 920l105 -125h-35l-85 100l-85 -100h-35l105 125h30zM45 670v30h270v-30h-120v-640h120v-30h-270v30h120v640h-120z" />
    <glyph glyph-name="Idieresis.alt" horiz-adv-x="360" 
d="M75 860q0 25 25 25t25 -25t-25 -25t-25 25zM235 860q0 25 25 25t25 -25t-25 -25t-25 25zM45 670v30h270v-30h-120v-640h120v-30h-270v30h120v640h-120z" />
    <glyph glyph-name="Idotaccent.alt" horiz-adv-x="360" 
d="M155 860q0 25 25 25t25 -25t-25 -25q-11 0 -18 7.5t-7 17.5zM45 670v30h270v-30h-120v-640h120v-30h-270v30h120v640h-120z" />
    <glyph glyph-name="Imacron.alt" horiz-adv-x="360" 
d="M310 875v-30h-260v30h260zM45 670v30h270v-30h-120v-640h120v-30h-270v30h120v640h-120z" />
    <glyph glyph-name="Iogonek.alt" horiz-adv-x="360" 
d="M290 0h-245v30h120v640h-120v30h270v-30h-120v-640h120v-30q-8 -7 -19.5 -19.5t-31 -44.5t-19.5 -56q0 -23 17 -39t43 -16q16 0 31 5t22 10l7 5v-25q-25 -20 -60 -20q-37 0 -61 23t-24 57q0 29 17.5 59t34.5 45z" />
    <glyph glyph-name="at.case" horiz-adv-x="885" 
d="M435 500q-58 0 -96.5 -42.5t-38.5 -112.5t38.5 -112.5t96.5 -42.5q54 0 92 43t38 112t-38 112t-92 43zM435 530q27 0 50 -9t37 -21t24.5 -24.5t14.5 -21.5l4 -9v80h30v-218q0 -59 23 -88t62 -29q45 0 75 44.5t30 135.5q0 139 -97.5 234.5t-242.5 95.5q-139 0 -242 -104
t-103 -246t102.5 -246t239.5 -104q57 0 109 19t75 37l24 19l20 -25q-3 -3 -10 -8.5t-29 -19.5t-47 -24.5t-63.5 -19t-78.5 -8.5q-148 0 -260 113.5t-112 266.5t112.5 266.5t262.5 113.5q157 0 263.5 -104.5t106.5 -255.5q0 -103 -39 -156.5t-96 -53.5q-40 0 -67.5 24
t-34.5 48l-8 23q-1 -4 -4 -10.5t-14.5 -22.5t-25.5 -28.5t-38.5 -23t-52.5 -10.5q-69 0 -117 52t-48 133t48 133t117 52z" />
    <glyph glyph-name="parenleft.case" horiz-adv-x="325" 
d="M110 350q0 -77 17.5 -152t42.5 -127.5t50 -94t42 -61.5l18 -20l-25 -15l-19 22t-42 61t-53 98.5t-42 130t-19 158.5t18 157.5t44 131.5t51.5 96.5t43.5 63.5l18 21l25 -15q-7 -7 -18.5 -21t-40.5 -60t-51.5 -95.5t-41 -125.5t-18.5 -153z" />
    <glyph glyph-name="parenright.case" horiz-adv-x="325" 
d="M215 350q0 77 -17.5 152t-42.5 127.5t-50 94t-43 61.5l-17 20l25 15l19 -22t42 -61t53 -98.5t42 -130t19 -158.5t-18 -157.5t-43.5 -131.5t-51.5 -96.5t-44 -63.5l-18 -21l-25 15q7 7 18.5 21t40.5 60t51.5 95.5t41 125.5t18.5 153z" />
    <glyph glyph-name="bracketleft.case" horiz-adv-x="340" 
d="M140 780v-860h155v-30h-185v920h185v-30h-155z" />
    <glyph glyph-name="bracketright.case" horiz-adv-x="340" 
d="M200 -80v860h-155v30h185v-920h-185v30h155z" />
    <glyph glyph-name="braceleft.case" horiz-adv-x="355" 
d="M65 335v30q41 0 63 20.5t22 54.5v245q0 125 135 125h25v-30h-25q-56 0 -80.5 -23t-24.5 -72v-245q0 -26 -8.5 -45t-21 -28t-21 -12.5t-13.5 -4.5q4 -1 9.5 -2.5t15.5 -8t18 -15.5t14.5 -26t6.5 -38v-245q0 -49 24.5 -72t80.5 -23h25v-30h-25q-135 0 -135 125v245
q0 34 -22 54.5t-63 20.5z" />
    <glyph glyph-name="braceright.case" horiz-adv-x="355" 
d="M290 365v-30q-41 0 -63 -20.5t-22 -54.5v-245q0 -125 -135 -125h-25v30h25q56 0 80.5 23t24.5 72v245q0 21 6.5 38t14.5 26t18 15.5t15.5 8t9.5 2.5q-5 1 -13.5 4.5t-21 12.5t-21 28t-8.5 45v245q0 49 -24.5 72t-80.5 23h-25v30h25q135 0 135 -125v-245q0 -34 22 -54.5
t63 -20.5z" />
    <glyph glyph-name="exclamdown.case" horiz-adv-x="290" 
d="M130 550h30v-550h-30v550zM170 675q0 -25 -25 -25t-25 25t25 25t25 -25z" />
    <glyph glyph-name="questiondown.case" horiz-adv-x="505" 
d="M250 550h30v-40q0 -47 -20.5 -85t-50 -64l-59 -51.5t-50 -59.5t-20.5 -75q0 -63 48.5 -109t126.5 -46q42 0 75.5 14t51.5 33.5t29.5 39.5t14.5 34l4 14l30 -10q-1 -6 -4.5 -16.5t-19 -37.5t-36 -47t-59 -37t-86.5 -17q-89 0 -147 55t-58 130q0 48 20.5 85.5t50 62.5
l59 49.5t50 59t20.5 78.5v40zM290 675q0 -25 -25 -25t-25 25t25 25t25 -25z" />
    <glyph glyph-name="guillemotleft.case" horiz-adv-x="415" 
d="M200 505l-110 -155l110 -155h-35l-110 155l110 155h35zM360 505l-110 -155l110 -155h-35l-110 155l110 155h35z" />
    <glyph glyph-name="guillemotright.case" horiz-adv-x="415" 
d="M325 350l-110 155h35l110 -155l-110 -155h-35zM165 350l-110 155h35l110 -155l-110 -155h-35z" />
    <glyph glyph-name="guilsinglleft.case" horiz-adv-x="260" 
d="M90 350l115 -155h-35l-115 155l115 155h35z" />
    <glyph glyph-name="guilsinglright.case" horiz-adv-x="260" 
d="M170 350l-115 155h35l115 -155l-115 -155h-35z" />
    <glyph glyph-name="hyphen.case" horiz-adv-x="410" 
d="M365 332v-30h-320v30h320z" />
    <glyph glyph-name="endash.case" horiz-adv-x="465" 
d="M420 364v-30h-375v30h375z" />
    <glyph glyph-name="emdash.case" horiz-adv-x="705" 
d="M660 364v-30h-615v30h615z" />
    <glyph glyph-name="periodcentered.case" horiz-adv-x="180" 
d="M115 360q0 -25 -25 -25t-25 25t25 25t25 -25z" />
    <glyph glyph-name="zero.tab" horiz-adv-x="610" 
d="M540 350q0 149 -71 239.5t-164 90.5t-164 -90.5t-71 -239.5t71 -239.5t164 -90.5t164 90.5t71 239.5zM570 350q0 -161 -80.5 -260.5t-184.5 -99.5t-184.5 99.5t-80.5 260.5t80.5 260.5t184.5 99.5t184.5 -99.5t80.5 -260.5z" />
    <glyph glyph-name="one.tab" horiz-adv-x="610" 
d="M330 700h25v-700h-30v640q-1 -3 -4 -7.5t-14.5 -17.5t-25.5 -23t-38.5 -19.5t-52.5 -12.5v30q44 4 79 31.5t48 52.5z" />
    <glyph glyph-name="two.tab" horiz-adv-x="610" 
d="M525 0h-430q0 53 22 98.5t57.5 79t78 64.5l85 60t78 59.5t57.5 70t22 83.5q0 69 -52 117t-133 48q-42 0 -75.5 -13.5t-51 -32.5t-29.5 -38t-16 -32l-3 -14l-30 10q1 6 4.5 16t19 36t36 46t59 36t86.5 16q92 0 153.5 -57.5t61.5 -137.5q0 -64 -38.5 -117.5t-94.5 -93
l-113 -78t-101.5 -89t-52.5 -107.5h400v-30z" />
    <glyph glyph-name="three.tab" horiz-adv-x="610" 
d="M365 370q6 -1 16 -3.5t36 -15.5t46 -31.5t36 -54t16 -80.5q0 -81 -62 -138t-158 -57q-39 0 -75 11t-59.5 26t-41.5 30.5t-26 26.5l-8 11l25 20q2 -4 7 -10.5t22 -22.5t37 -28.5t52 -23t67 -10.5q84 0 137 48t53 117q0 73 -52.5 121.5t-137.5 48.5h-65v30h65
q77 0 123.5 42.5t46.5 107.5q0 62 -46.5 103.5t-123.5 41.5q-31 0 -59.5 -8t-48 -20t-34 -24t-21.5 -20l-7 -8l-25 20q3 4 8.5 10t24 21.5t39.5 27.5t54.5 21.5t68.5 9.5q88 0 144 -51t56 -124q0 -38 -13.5 -69t-32.5 -48t-38 -28.5t-33 -15.5z" />
    <glyph glyph-name="four.tab" horiz-adv-x="610" 
d="M465 200h90v-30h-90v-170h-30v170h-365v36l365 494h30v-500zM435 200v455l-335 -455h335z" />
    <glyph glyph-name="five.tab" horiz-adv-x="610" 
d="M310 435q90 0 152.5 -63.5t62.5 -156.5q0 -98 -63.5 -161.5t-161.5 -63.5q-39 0 -74.5 10.5t-58.5 25t-40 29t-25 25.5l-7 10l25 25q2 -4 6.5 -10.5t21 -22.5t35.5 -28.5t50.5 -23t66.5 -10.5q86 0 140.5 54.5t54.5 140.5q0 82 -53 136t-132 54q-32 0 -61 -9.5t-47 -22.5
t-31.5 -26t-19.5 -23l-6 -9h-25l25 385h335v-30h-305l-25 -310q2 3 6.5 8t19.5 18t32 23t45 18t57 8z" />
    <glyph glyph-name="six.tab" horiz-adv-x="610" 
d="M300 430q93 0 159 -65t66 -155t-66 -155t-159 -65t-159 65t-66 155q0 36 12.5 73.5t24.5 56.5l13 20l215 340h35l-195 -305q45 35 120 35zM495 210q0 79 -56.5 134.5t-138.5 55.5t-138.5 -55.5t-56.5 -134.5t56.5 -134.5t138.5 -55.5t138.5 55.5t56.5 134.5z" />
    <glyph glyph-name="seven.tab" horiz-adv-x="610" 
d="M100 700h415v-30l-325 -670h-30l325 670h-385v30z" />
    <glyph glyph-name="eight.tab" horiz-adv-x="610" 
d="M305 710q78 0 131.5 -51.5t53.5 -123.5q0 -35 -12.5 -64t-30 -45t-35 -27t-30.5 -15l-12 -4q6 -1 16 -4.5t36 -18t46 -33.5t36 -55t16 -79q0 -84 -61 -142t-154 -58t-154 58t-61 142q0 43 15.5 78.5t37.5 55.5t44 33.5t37 18.5l16 4q-5 1 -13 4t-28.5 15t-36.5 27.5
t-29 44.5t-13 64q0 72 53.5 123.5t131.5 51.5zM305 20q81 0 133 49t52 121q0 73 -52 124t-133 51t-133 -51t-52 -124q0 -72 52 -121t133 -49zM305 680q-67 0 -111 -42t-44 -103q0 -57 44.5 -98.5t110.5 -41.5t110.5 41.5t44.5 98.5q0 61 -44 103t-111 42z" />
    <glyph glyph-name="nine.tab" horiz-adv-x="610" 
d="M310 270q-93 0 -159 65t-66 155t66 155t159 65t159 -65t66 -155q0 -36 -12.5 -73.5t-24.5 -56.5l-13 -20l-215 -340h-35l195 305q-45 -35 -120 -35zM115 490q0 -79 56.5 -134.5t138.5 -55.5t138.5 55.5t56.5 134.5t-56.5 134.5t-138.5 55.5t-138.5 -55.5t-56.5 -134.5z
" />
    <glyph glyph-name="lslash.alt" horiz-adv-x="345" 
d="M145 115v236l-130 -81l-15 25l145 90v315h30v-300l130 80l15 -25l-145 -89v-251q0 -44 23.5 -69.5t61.5 -25.5q16 0 31 4t22 8l7 3v-30q-25 -15 -60 -15q-49 0 -82 35t-33 90z" />
    <glyph glyph-name="afii10110.alt" horiz-adv-x="470" 
d="M230 595q45 0 70 25t25 70h30q0 -56 -34.5 -90.5t-90.5 -34.5t-90.5 34.5t-34.5 90.5h30q0 -45 25 -70t70 -25zM130 -210l85 210l-195 480h30l180 -440l180 440h30l-280 -690h-30z" />
    <glyph glyph-name="agrave.alt" horiz-adv-x="515" 
d="M185 265l195 35v5q0 71 -40.5 113t-104.5 42q-42 0 -78.5 -19t-51.5 -37l-15 -19l-20 20q2 3 6.5 9t20 20.5t33 26t46 20.5t59.5 9q76 0 125.5 -51.5t49.5 -133.5v-220q0 -26 16 -43t39 -17l30 5v-30q-10 -5 -30 -5q-38 0 -61.5 24.5t-23.5 65.5v15l-6 -11.5t-19.5 -26.5
t-34 -33.5t-51 -26.5t-69.5 -12q-69 0 -114.5 40.5t-45.5 94.5q0 114 145 140zM200 19q75 0 127.5 54t52.5 132v65l-195 -35q-56 -10 -85.5 -39t-29.5 -71q0 -43 36 -74.5t94 -31.5zM200 695l75 -125h-25l-85 125h35z" />
    <glyph glyph-name="aacute.alt" horiz-adv-x="515" 
d="M185 265l195 35v5q0 71 -40.5 113t-104.5 42q-42 0 -78.5 -19t-51.5 -37l-15 -19l-20 20q2 3 6.5 9t20 20.5t33 26t46 20.5t59.5 9q76 0 125.5 -51.5t49.5 -133.5v-220q0 -26 16 -43t39 -17l30 5v-30q-10 -5 -30 -5q-38 0 -61.5 24.5t-23.5 65.5v15l-6 -11.5t-19.5 -26.5
t-34 -33.5t-51 -26.5t-69.5 -12q-69 0 -114.5 40.5t-45.5 94.5q0 114 145 140zM200 19q75 0 127.5 54t52.5 132v65l-195 -35q-56 -10 -85.5 -39t-29.5 -71q0 -43 36 -74.5t94 -31.5zM235 565l75 125h35l-85 -125h-25z" />
    <glyph glyph-name="abreve.alt" horiz-adv-x="515" 
d="M185 265l195 35v5q0 71 -40.5 113t-104.5 42q-42 0 -78.5 -19t-51.5 -37l-15 -19l-20 20q2 3 6.5 9t20 20.5t33 26t46 20.5t59.5 9q76 0 125.5 -51.5t49.5 -133.5v-220q0 -26 16 -43t39 -17l30 5v-30q-10 -5 -30 -5q-38 0 -61.5 24.5t-23.5 65.5v15l-6 -11.5t-19.5 -26.5
t-34 -33.5t-51 -26.5t-69.5 -12q-69 0 -114.5 40.5t-45.5 94.5q0 114 145 140zM200 19q75 0 127.5 54t52.5 132v65l-195 -35q-56 -10 -85.5 -39t-29.5 -71q0 -43 36 -74.5t94 -31.5zM255 595q45 0 70 25t25 70h30q0 -56 -34.5 -90.5t-90.5 -34.5t-90.5 34.5t-34.5 90.5h30
q0 -45 25 -70t70 -25z" />
    <glyph glyph-name="acircumflex.alt" horiz-adv-x="515" 
d="M185 265l195 35v5q0 71 -40.5 113t-104.5 42q-42 0 -78.5 -19t-51.5 -37l-15 -19l-20 20q2 3 6.5 9t20 20.5t33 26t46 20.5t59.5 9q76 0 125.5 -51.5t49.5 -133.5v-220q0 -26 16 -43t39 -17l30 5v-30q-10 -5 -30 -5q-38 0 -61.5 24.5t-23.5 65.5v15l-6 -11.5t-19.5 -26.5
t-34 -33.5t-51 -26.5t-69.5 -12q-69 0 -114.5 40.5t-45.5 94.5q0 114 145 140zM200 19q75 0 127.5 54t52.5 132v65l-195 -35q-56 -10 -85.5 -39t-29.5 -71q0 -43 36 -74.5t94 -31.5zM275 690l105 -125h-35l-85 100l-85 -100h-35l105 125h30z" />
    <glyph glyph-name="adieresis.alt" horiz-adv-x="515" 
d="M185 265l195 35v5q0 71 -40.5 113t-104.5 42q-42 0 -78.5 -19t-51.5 -37l-15 -19l-20 20q2 3 6.5 9t20 20.5t33 26t46 20.5t59.5 9q76 0 125.5 -51.5t49.5 -133.5v-220q0 -26 16 -43t39 -17l30 5v-30q-10 -5 -30 -5q-38 0 -61.5 24.5t-23.5 65.5v15l-6 -11.5t-19.5 -26.5
t-34 -33.5t-51 -26.5t-69.5 -12q-69 0 -114.5 40.5t-45.5 94.5q0 114 145 140zM200 19q75 0 127.5 54t52.5 132v65l-195 -35q-56 -10 -85.5 -39t-29.5 -71q0 -43 36 -74.5t94 -31.5zM155 630q0 25 25 25t25 -25t-25 -25t-25 25zM315 630q0 25 25 25t25 -25t-25 -25t-25 25z
" />
    <glyph glyph-name="amacron.alt" horiz-adv-x="515" 
d="M185 265l195 35v5q0 71 -40.5 113t-104.5 42q-42 0 -78.5 -19t-51.5 -37l-15 -19l-20 20q2 3 6.5 9t20 20.5t33 26t46 20.5t59.5 9q76 0 125.5 -51.5t49.5 -133.5v-220q0 -26 16 -43t39 -17l30 5v-30q-10 -5 -30 -5q-38 0 -61.5 24.5t-23.5 65.5v15l-6 -11.5t-19.5 -26.5
t-34 -33.5t-51 -26.5t-69.5 -12q-69 0 -114.5 40.5t-45.5 94.5q0 114 145 140zM200 19q75 0 127.5 54t52.5 132v65l-195 -35q-56 -10 -85.5 -39t-29.5 -71q0 -43 36 -74.5t94 -31.5zM390 655v-30h-260v30h260z" />
    <glyph glyph-name="aogonek.alt" horiz-adv-x="515" 
d="M200 19q75 0 127.5 54t52.5 132v65l-195 -35q-56 -10 -85.5 -39t-29.5 -71q0 -43 36 -74.5t94 -31.5zM380 85v15l-6 -11.5t-19.5 -26.5t-34 -33.5t-51 -26.5t-69.5 -12q-69 0 -114.5 40.5t-45.5 94.5q0 114 145 140l195 35v5q0 71 -40.5 113t-104.5 42q-42 0 -78.5 -19
t-51.5 -37l-15 -19l-20 20q2 3 6.5 9t20 20.5t33 26t46 20.5t59.5 9q76 0 125.5 -51.5t49.5 -133.5v-220q0 -26 16 -43t39 -17l30 5v-30q-9 -4 -26 -5q-64 -64 -64 -115q0 -23 17 -39t43 -16q16 0 31 5t22 10l7 5v-25q-25 -20 -60 -20q-37 0 -61 23t-24 57q0 25 14.5 52.5
t27.5 41.5t24 23q-30 6 -48 29t-18 59z" />
    <glyph glyph-name="aring.alt" horiz-adv-x="515" 
d="M200 640q0 -26 19.5 -45.5t45.5 -19.5t45.5 19.5t19.5 45.5t-19.5 45.5t-45.5 19.5t-45.5 -19.5t-19.5 -45.5zM360 640q0 -38 -29 -66.5t-66 -28.5t-66 28.5t-29 66.5t29 66.5t66 28.5t66 -28.5t29 -66.5zM185 265l195 35v5q0 71 -40.5 113t-104.5 42q-42 0 -78.5 -19
t-51.5 -37l-15 -19l-20 20q2 3 6.5 9t20 20.5t33 26t46 20.5t59.5 9q76 0 125.5 -51.5t49.5 -133.5v-220q0 -26 16 -43t39 -17l30 5v-30q-10 -5 -30 -5q-38 0 -61.5 24.5t-23.5 65.5v15l-6 -11.5t-19.5 -26.5t-34 -33.5t-51 -26.5t-69.5 -12q-69 0 -114.5 40.5t-45.5 94.5
q0 114 145 140zM200 19q75 0 127.5 54t52.5 132v65l-195 -35q-56 -10 -85.5 -39t-29.5 -71q0 -43 36 -74.5t94 -31.5z" />
    <glyph glyph-name="atilde.alt" horiz-adv-x="515" 
d="M185 265l195 35v5q0 71 -40.5 113t-104.5 42q-42 0 -78.5 -19t-51.5 -37l-15 -19l-20 20q2 3 6.5 9t20 20.5t33 26t46 20.5t59.5 9q76 0 125.5 -51.5t49.5 -133.5v-220q0 -26 16 -43t39 -17l30 5v-30q-10 -5 -30 -5q-38 0 -61.5 24.5t-23.5 65.5v15l-6 -11.5t-19.5 -26.5
t-34 -33.5t-51 -26.5t-69.5 -12q-69 0 -114.5 40.5t-45.5 94.5q0 114 145 140zM200 19q75 0 127.5 54t52.5 132v65l-195 -35q-56 -10 -85.5 -39t-29.5 -71q0 -43 36 -74.5t94 -31.5zM190 645q-20 0 -30 -16t-10 -59h-30q0 105 70 105q22 0 40.5 -11.5t30 -26t27 -26
t32.5 -11.5q20 0 30 16t10 59h30q0 -105 -70 -105q-22 0 -40.5 11.5t-30 26t-27 26t-32.5 11.5z" />
    <glyph glyph-name="lacute.alt" horiz-adv-x="280" 
d="M90 795l75 125h35l-85 -125h-25zM90 115v585h30v-585q0 -44 23.5 -69.5t61.5 -25.5q16 0 31 4t22 8l7 3v-30q-25 -15 -60 -15q-49 0 -82 35t-33 90z" />
    <glyph glyph-name="lcaron.alt" horiz-adv-x="280" 
d="M90 115v585h30v-585q0 -44 23.5 -69.5t61.5 -25.5q16 0 31 4t22 8l7 3v-30q-25 -15 -60 -15q-49 0 -82 35t-33 90zM195 570l45 130h35l-55 -130h-25z" />
    <glyph glyph-name="lcommaaccent.alt" horiz-adv-x="280" 
d="M90 115v585h30v-585q0 -44 23.5 -69.5t61.5 -25.5q16 0 31 4t22 8l7 3v-30q-25 -15 -60 -15q-49 0 -82 35t-33 90zM115 -210l45 130h35l-55 -130h-25z" />
    <glyph glyph-name="yacute.alt" horiz-adv-x="575" 
d="M265 565l75 125h35l-85 -125h-25zM450 10v130q-2 -5 -5.5 -12.5t-17.5 -27.5t-32 -35t-50 -27.5t-70 -12.5q-81 0 -135.5 58t-54.5 147v250h30v-250q0 -78 45.5 -126.5t114.5 -48.5q72 0 123.5 53.5t51.5 134.5v237h30v-470q0 -96 -59 -158t-146 -62q-35 0 -67 10.5
t-52.5 25t-36 29t-22.5 25.5l-7 10l25 20q2 -4 6 -10t18.5 -21.5t31.5 -27.5t45 -21.5t59 -9.5q76 0 125.5 52.5t49.5 137.5z" />
    <glyph glyph-name="ydieresis.alt" horiz-adv-x="575" 
d="M450 10v130q-2 -5 -5.5 -12.5t-17.5 -27.5t-32 -35t-50 -27.5t-70 -12.5q-81 0 -135.5 58t-54.5 147v250h30v-250q0 -78 45.5 -126.5t114.5 -48.5q72 0 123.5 53.5t51.5 134.5v237h30v-470q0 -96 -59 -158t-146 -62q-35 0 -67 10.5t-52.5 25t-36 29t-22.5 25.5l-7 10
l25 20q2 -4 6 -10t18.5 -21.5t31.5 -27.5t45 -21.5t59 -9.5q76 0 125.5 52.5t49.5 137.5zM175 630q0 25 25 25t25 -25t-25 -25t-25 25zM335 630q0 25 25 25t25 -25t-25 -25t-25 25z" />
    <glyph glyph-name="ugrave.alt" horiz-adv-x="575" 
d="M235 695l75 -125h-25l-85 125h35zM525 -5q-38 0 -61.5 24.5t-23.5 65.5v15q-2 -4 -5 -11.5t-16.5 -26.5t-30.5 -33.5t-47 -26.5t-66 -12q-79 0 -134.5 57.5t-55.5 142.5v290h30v-290q0 -74 46 -122t114 -48q70 0 117.5 53t47.5 132v275h30v-395q0 -26 16 -43t39 -17l30 5
v-30q-10 -5 -30 -5z" />
    <glyph glyph-name="uacute.alt" horiz-adv-x="575" 
d="M270 565l75 125h35l-85 -125h-25zM525 -5q-38 0 -61.5 24.5t-23.5 65.5v15q-2 -4 -5 -11.5t-16.5 -26.5t-30.5 -33.5t-47 -26.5t-66 -12q-79 0 -134.5 57.5t-55.5 142.5v290h30v-290q0 -74 46 -122t114 -48q70 0 117.5 53t47.5 132v275h30v-395q0 -26 16 -43t39 -17l30 5
v-30q-10 -5 -30 -5z" />
    <glyph glyph-name="ucircumflex.alt" horiz-adv-x="575" 
d="M525 -5q-38 0 -61.5 24.5t-23.5 65.5v15q-2 -4 -5 -11.5t-16.5 -26.5t-30.5 -33.5t-47 -26.5t-66 -12q-79 0 -134.5 57.5t-55.5 142.5v290h30v-290q0 -74 46 -122t114 -48q70 0 117.5 53t47.5 132v275h30v-395q0 -26 16 -43t39 -17l30 5v-30q-10 -5 -30 -5zM300 690
l105 -125h-35l-85 100l-85 -100h-35l105 125h30z" />
    <glyph glyph-name="udieresis.alt" horiz-adv-x="575" 
d="M525 -5q-38 0 -61.5 24.5t-23.5 65.5v15q-2 -4 -5 -11.5t-16.5 -26.5t-30.5 -33.5t-47 -26.5t-66 -12q-79 0 -134.5 57.5t-55.5 142.5v290h30v-290q0 -74 46 -122t114 -48q70 0 117.5 53t47.5 132v275h30v-395q0 -26 16 -43t39 -17l30 5v-30q-10 -5 -30 -5zM175 630
q0 25 25 25t25 -25t-25 -25t-25 25zM335 630q0 25 25 25t25 -25t-25 -25t-25 25z" />
    <glyph glyph-name="uhungarumlaut.alt" horiz-adv-x="575" 
d="M525 -5q-38 0 -61.5 24.5t-23.5 65.5v15q-2 -4 -5 -11.5t-16.5 -26.5t-30.5 -33.5t-47 -26.5t-66 -12q-79 0 -134.5 57.5t-55.5 142.5v290h30v-290q0 -74 46 -122t114 -48q70 0 117.5 53t47.5 132v275h30v-395q0 -26 16 -43t39 -17l30 5v-30q-10 -5 -30 -5zM195 565
l75 125h35l-85 -125h-25zM330 565l75 125h35l-85 -125h-25z" />
    <glyph glyph-name="umacron.alt" horiz-adv-x="575" 
d="M525 -5q-38 0 -61.5 24.5t-23.5 65.5v15q-2 -4 -5 -11.5t-16.5 -26.5t-30.5 -33.5t-47 -26.5t-66 -12q-79 0 -134.5 57.5t-55.5 142.5v290h30v-290q0 -74 46 -122t114 -48q70 0 117.5 53t47.5 132v275h30v-395q0 -26 16 -43t39 -17l30 5v-30q-10 -5 -30 -5zM415 645v-30
h-260v30h260z" />
    <glyph glyph-name="uogonek.alt" horiz-adv-x="575" 
d="M555 0q-9 -4 -26 -5q-64 -64 -64 -115q0 -23 17 -39t43 -16q16 0 31 5t22 10l7 5v-25q-25 -20 -60 -20q-37 0 -61 23t-24 57q0 25 14.5 52.5t27.5 41.5t24 23q-30 6 -48 29t-18 59v15q-2 -4 -5 -11.5t-16.5 -26.5t-30.5 -33.5t-47 -26.5t-66 -12q-79 0 -134.5 57.5
t-55.5 142.5v290h30v-290q0 -74 46 -122t114 -48q70 0 117.5 53t47.5 132v275h30v-395q0 -26 16 -43t39 -17l30 5v-30z" />
    <glyph glyph-name="uring.alt" horiz-adv-x="575" 
d="M220 640q0 -26 19.5 -45.5t45.5 -19.5t45.5 19.5t19.5 45.5t-19.5 45.5t-45.5 19.5t-45.5 -19.5t-19.5 -45.5zM380 640q0 -38 -29 -66.5t-66 -28.5t-66 28.5t-29 66.5t29 66.5t66 28.5t66 -28.5t29 -66.5zM525 -5q-38 0 -61.5 24.5t-23.5 65.5v15q-2 -4 -5 -11.5
t-16.5 -26.5t-30.5 -33.5t-47 -26.5t-66 -12q-79 0 -134.5 57.5t-55.5 142.5v290h30v-290q0 -74 46 -122t114 -48q70 0 117.5 53t47.5 132v275h30v-395q0 -26 16 -43t39 -17l30 5v-30q-10 -5 -30 -5z" />
    <glyph glyph-name="a.alt" horiz-adv-x="515" 
d="M185 265l195 35v5q0 71 -40.5 113t-104.5 42q-42 0 -78.5 -19t-51.5 -37l-15 -19l-20 20q2 3 6.5 9t20 20.5t33 26t46 20.5t59.5 9q76 0 125.5 -51.5t49.5 -133.5v-220q0 -26 16 -43t39 -17l30 5v-30q-10 -5 -30 -5q-38 0 -61.5 24.5t-23.5 65.5v15l-6 -11.5t-19.5 -26.5
t-34 -33.5t-51 -26.5t-69.5 -12q-69 0 -114.5 40.5t-45.5 94.5q0 114 145 140zM200 19q75 0 127.5 54t52.5 132v65l-195 -35q-56 -10 -85.5 -39t-29.5 -71q0 -43 36 -74.5t94 -31.5z" />
    <glyph glyph-name="l.alt" horiz-adv-x="280" 
d="M90 115v585h30v-585q0 -44 23.5 -69.5t61.5 -25.5q16 0 31 4t22 8l7 3v-30q-25 -15 -60 -15q-49 0 -82 35t-33 90z" />
    <glyph glyph-name="afii10085.alt" horiz-adv-x="470" 
d="M130 -210l85 210l-195 480h30l180 -440l180 440h30l-280 -690h-30z" />
    <glyph glyph-name="y.alt" horiz-adv-x="575" 
d="M450 10v130q-2 -5 -5.5 -12.5t-17.5 -27.5t-32 -35t-50 -27.5t-70 -12.5q-81 0 -135.5 58t-54.5 147v250h30v-250q0 -78 45.5 -126.5t114.5 -48.5q72 0 123.5 53.5t51.5 134.5v237h30v-470q0 -96 -59 -158t-146 -62q-35 0 -67 10.5t-52.5 25t-36 29t-22.5 25.5l-7 10
l25 20q2 -4 6 -10t18.5 -21.5t31.5 -27.5t45 -21.5t59 -9.5q76 0 125.5 52.5t49.5 137.5z" />
    <glyph glyph-name="u.alt" horiz-adv-x="575" 
d="M525 -5q-38 0 -61.5 24.5t-23.5 65.5v15q-2 -4 -5 -11.5t-16.5 -26.5t-30.5 -33.5t-47 -26.5t-66 -12q-79 0 -134.5 57.5t-55.5 142.5v290h30v-290q0 -74 46 -122t114 -48q70 0 117.5 53t47.5 132v275h30v-395q0 -26 16 -43t39 -17l30 5v-30q-10 -5 -30 -5z" />
    <glyph glyph-name="afii10065.alt" horiz-adv-x="515" 
d="M185 265l195 35v5q0 71 -40.5 113t-104.5 42q-42 0 -78.5 -19t-51.5 -37l-15 -19l-20 20q2 3 6.5 9t20 20.5t33 26t46 20.5t59.5 9q76 0 125.5 -51.5t49.5 -133.5v-220q0 -26 16 -43t39 -17l30 5v-30q-10 -5 -30 -5q-38 0 -61.5 24.5t-23.5 65.5v15l-6 -11.5t-19.5 -26.5
t-34 -33.5t-51 -26.5t-69.5 -12q-69 0 -114.5 40.5t-45.5 94.5q0 114 145 140zM200 19q75 0 127.5 54t52.5 132v65l-195 -35q-56 -10 -85.5 -39t-29.5 -71q0 -43 36 -74.5t94 -31.5z" />
    <glyph glyph-name="c_t" horiz-adv-x="840" 
d="M630 480v65q0 60 -36.5 97.5t-93.5 37.5q-59 0 -97 -36t-38 -89q0 -29 8.5 -54t17.5 -35l9 -11q20 -13 37.5 -29.5t24.5 -25.5l8 -10l-25 -20q-2 4 -6.5 10t-19.5 21.5t-32 27.5t-45 21.5t-57 9.5q-84 0 -144.5 -63.5t-60.5 -156.5t60.5 -156.5t144.5 -63.5
q29 0 56.5 9.5t45.5 22.5t31.5 26t19.5 22l7 10l25 -20l-8 -11t-22.5 -24t-37.5 -30t-51.5 -24t-65.5 -11q-95 0 -165 73t-70 177t70 177t165 73q16 0 32 -2.5t25 -5.5l8 -2q-15 25 -15 75q0 64 47.5 109.5t117.5 45.5q68 0 114 -47t46 -118v-65h110v-30h-110v-335
q0 -44 23.5 -69.5t61.5 -25.5q16 0 31 4t22 8l7 3v-30q-25 -15 -60 -15q-53 0 -84 33t-31 92v335h-100v30h100z" />
    <glyph glyph-name="s_p" horiz-adv-x="1020" 
d="M545 120v-330h-30v760q0 59 -32.5 94.5t-82.5 35.5q-49 0 -82 -35t-33 -90q0 -29 8.5 -54t17.5 -35l9 -11q11 -7 21 -15.5t15 -13.5l4 -6l-25 -25q-5 7 -14.5 18t-42 29t-68.5 18q-51 0 -85.5 -30.5t-34.5 -69.5q0 -34 29 -55.5t70 -32.5t82 -24t70 -41t29 -72
q0 -61 -46 -103t-119 -42q-47 0 -88 20t-59 40l-18 20l25 25q2 -3 6 -8t17.5 -18t28.5 -23t39 -18t49 -8q62 0 98.5 32.5t36.5 82.5q0 36 -29 58t-70 33.5l-82 24t-70 39.5t-29 70q0 50 44 90t106 40q39 0 59 -10q-14 28 -14 75q0 67 42 111t103 44t103 -45t42 -115v-190
q2 5 7 14t22.5 31.5t38.5 39.5t55 31t72 14q85 0 152.5 -74t67.5 -176t-67.5 -176t-152.5 -74q-38 0 -72 13.5t-55.5 32.5t-37.5 38t-23 32zM740 20q74 0 132 64.5t58 155.5t-58 155.5t-132 64.5q-77 0 -136 -64t-59 -156t59 -156t136 -64z" />
    <glyph glyph-name="f_t" horiz-adv-x="595" 
d="M385 515v125h30v-160h110v-30h-110v-335q0 -44 23.5 -69.5t61.5 -25.5q16 0 31 4t22 8l7 3v-30q-25 -15 -60 -15q-53 0 -84 33t-31 92v335h-240v-450h-30v450h-80v30h80v105q0 59 31 92t84 33q16 0 31 -4t22 -8l7 -3v-30q-25 15 -60 15q-38 0 -61.5 -25.5t-23.5 -69.5
v-105h210q30 0 30 35z" />
    <glyph glyph-name="zero.dnom" horiz-adv-x="350" 
d="M70 175q0 -71 30.5 -110.5t74.5 -39.5t74.5 39.5t30.5 110.5t-30.5 110.5t-74.5 39.5t-74.5 -39.5t-30.5 -110.5zM310 175q0 -83 -40 -131.5t-95 -48.5t-95 48.5t-40 131.5t40 131.5t95 48.5t95 -48.5t40 -131.5z" />
    <glyph glyph-name="one.dnom" horiz-adv-x="195" 
d="M110 350h25v-350h-30v300q-25 -30 -75 -35v30q22 2 42 16t29 27z" />
    <glyph glyph-name="two.dnom" horiz-adv-x="275" 
d="M245 0h-225q0 41 20 73t49 52t57.5 37.5t48.5 40.5t20 51q0 31 -21 51t-54 20q-29 0 -50 -15t-28 -30l-7 -15l-30 10q1 3 3 8.5t11.5 19.5t21 24.5t33 19t46.5 8.5q45 0 75 -29t30 -71q0 -33 -17.5 -59t-44 -43.5l-54 -34t-50.5 -39t-30 -49.5h196v-30z" />
    <glyph glyph-name="three.dnom" horiz-adv-x="285" 
d="M195 185q2 -1 6.5 -2t14.5 -7.5t18 -15t14.5 -24.5t6.5 -36q0 -45 -31 -75t-79 -30q-36 0 -67 15t-44 30l-14 15l20 20q4 -6 12.5 -14t36 -22t56.5 -14q37 0 58.5 20.5t21.5 54.5q0 31 -21.5 50.5t-58.5 19.5h-50v30h45q33 0 51.5 17.5t18.5 47.5q0 27 -19.5 43.5
t-55.5 16.5q-24 0 -45.5 -10t-30.5 -20l-9 -10l-20 20q4 6 12.5 14t36 22t56.5 14q48 0 76.5 -25.5t28.5 -64.5q0 -17 -4.5 -31.5t-11 -23t-13.5 -14.5t-11 -8z" />
    <glyph glyph-name="four.dnom" horiz-adv-x="295" 
d="M225 120h50v-30h-50v-90h-30v90h-175v30l170 230h35v-230zM195 120v195l-145 -195h145z" />
    <glyph glyph-name="five.dnom" horiz-adv-x="270" 
d="M135 220q49 0 82 -33t33 -82q0 -45 -33.5 -77.5t-81.5 -32.5q-36 0 -67 13.5t-44 27.5l-14 14l20 20q4 -5 12.5 -12.5t36 -20t56.5 -12.5q37 0 61 23t24 57q0 37 -24 61t-61 24q-20 0 -37.5 -9t-25.5 -17l-7 -9h-30l15 195h180v-30h-150l-10 -125q25 25 65 25z" />
    <glyph glyph-name="six.dnom" horiz-adv-x="280" 
d="M140 235q49 0 84.5 -35.5t35.5 -84.5t-35.5 -84.5t-84.5 -35.5t-84.5 35.5t-35.5 84.5q0 20 7.5 41.5t14.5 32.5l8 11l95 150h30l-75 -125q15 10 40 10zM230 115q0 38 -26 64t-64 26t-64 -26.5t-26 -63.5t26 -63.5t64 -26.5t64 26.5t26 63.5z" />
    <glyph glyph-name="seven.dnom" horiz-adv-x="260" 
d="M20 350h220v-30l-140 -320h-30l140 320h-190v30z" />
    <glyph glyph-name="eight.dnom" horiz-adv-x="270" 
d="M135 25q36 0 60.5 21.5t24.5 48.5q0 31 -24 53t-61 22t-61 -22t-24 -53q0 -27 24.5 -48.5t60.5 -21.5zM135 200q30 0 50 19t20 46t-18.5 43.5t-51.5 16.5t-51.5 -16.5t-18.5 -43.5t20 -46t50 -19zM135 -5q-47 0 -81 30.5t-34 69.5q0 33 17.5 55.5t34.5 28.5l18 6
q-2 1 -6 2.5t-13.5 8.5t-16.5 15t-13 22.5t-6 31.5q0 38 28 64t72 26t72 -26t28 -64q0 -17 -5.5 -31.5t-13.5 -23t-16.5 -14.5t-13.5 -8l-6 -3l7.5 -2.5t16.5 -8t21.5 -15.5t17 -26t7.5 -38q0 -39 -33.5 -69.5t-81.5 -30.5z" />
    <glyph glyph-name="nine.dnom" horiz-adv-x="280" 
d="M140 115q-49 0 -84.5 35.5t-35.5 84.5t35.5 84.5t84.5 35.5t84.5 -35.5t35.5 -84.5q0 -20 -7.5 -41.5t-14.5 -32.5l-8 -11l-95 -150h-30l75 125q-15 -10 -40 -10zM50 235q0 -38 26 -64t64 -26t64 26.5t26 63.5t-26 63.5t-64 26.5t-64 -26.5t-26 -63.5z" />
    <glyph glyph-name="zero.numr" horiz-adv-x="350" 
d="M70 525q0 -71 30.5 -110.5t74.5 -39.5t74.5 39.5t30.5 110.5t-30.5 110.5t-74.5 39.5t-74.5 -39.5t-30.5 -110.5zM310 525q0 -83 -40 -131.5t-95 -48.5t-95 48.5t-40 131.5t40 131.5t95 48.5t95 -48.5t40 -131.5z" />
    <glyph glyph-name="one.numr" horiz-adv-x="195" 
d="M110 700h25v-350h-30v300q-25 -30 -75 -35v30q22 2 42 16t29 27z" />
    <glyph glyph-name="two.numr" horiz-adv-x="275" 
d="M245 350h-225q0 41 20 73t49 52t57.5 37.5t48.5 40.5t20 51q0 31 -21 51t-54 20q-29 0 -50 -15t-28 -30l-7 -15l-30 10q1 3 3 8.5t11.5 19.5t21 24.5t33 19t46.5 8.5q45 0 75 -29t30 -71q0 -33 -17.5 -59t-44 -43.5l-54 -34t-50.5 -39t-30 -49.5h196v-30z" />
    <glyph glyph-name="three.numr" horiz-adv-x="285" 
d="M195 535q2 -1 6.5 -2t14.5 -7.5t18 -15t14.5 -24.5t6.5 -36q0 -45 -31 -75t-79 -30q-36 0 -67 15t-44 30l-14 15l20 20q4 -6 12.5 -14t36 -22t56.5 -14q37 0 58.5 20.5t21.5 54.5q0 31 -21.5 50.5t-58.5 19.5h-50v30h45q33 0 51.5 17.5t18.5 47.5q0 27 -19.5 43.5
t-55.5 16.5q-24 0 -45.5 -10t-30.5 -20l-9 -10l-20 20q4 6 12.5 14t36 22t56.5 14q48 0 76.5 -25.5t28.5 -64.5q0 -17 -4.5 -31.5t-11 -23t-13.5 -14.5t-11 -8z" />
    <glyph glyph-name="four.numr" horiz-adv-x="295" 
d="M225 470h50v-30h-50v-90h-30v90h-175v30l170 230h35v-230zM195 470v195l-145 -195h145z" />
    <glyph glyph-name="five.numr" horiz-adv-x="270" 
d="M135 570q49 0 82 -33t33 -82q0 -45 -33.5 -77.5t-81.5 -32.5q-36 0 -67 13.5t-44 27.5l-14 14l20 20q4 -5 12.5 -12.5t36 -20t56.5 -12.5q37 0 61 23t24 57q0 37 -24 61t-61 24q-20 0 -37.5 -9t-25.5 -17l-7 -9h-30l15 195h180v-30h-150l-10 -125q25 25 65 25z" />
    <glyph glyph-name="six.numr" horiz-adv-x="280" 
d="M140 585q49 0 84.5 -35.5t35.5 -84.5t-35.5 -84.5t-84.5 -35.5t-84.5 35.5t-35.5 84.5q0 20 7.5 41.5t14.5 32.5l8 11l95 150h30l-75 -125q15 10 40 10zM230 465q0 38 -26 64t-64 26t-64 -26.5t-26 -63.5t26 -63.5t64 -26.5t64 26.5t26 63.5z" />
    <glyph glyph-name="seven.numr" horiz-adv-x="260" 
d="M20 700h220v-30l-140 -320h-30l140 320h-190v30z" />
    <glyph glyph-name="eight.numr" horiz-adv-x="270" 
d="M135 375q36 0 60.5 21.5t24.5 48.5q0 31 -24 53t-61 22t-61 -22t-24 -53q0 -27 24.5 -48.5t60.5 -21.5zM135 550q30 0 50 19t20 46t-18.5 43.5t-51.5 16.5t-51.5 -16.5t-18.5 -43.5t20 -46t50 -19zM135 345q-47 0 -81 30.5t-34 69.5q0 33 17.5 55.5t34.5 28.5l18 6
q-2 1 -6 2.5t-13.5 8.5t-16.5 15t-13 22.5t-6 31.5q0 38 28 64t72 26t72 -26t28 -64q0 -17 -5.5 -31.5t-13.5 -23t-16.5 -14.5t-13.5 -8l-6 -3l7.5 -2.5t16.5 -8t21.5 -15.5t17 -26t7.5 -38q0 -39 -33.5 -69.5t-81.5 -30.5z" />
    <glyph glyph-name="nine.numr" horiz-adv-x="280" 
d="M140 465q-49 0 -84.5 35.5t-35.5 84.5t35.5 84.5t84.5 35.5t84.5 -35.5t35.5 -84.5q0 -20 -7.5 -41.5t-14.5 -32.5l-8 -11l-95 -150h-30l75 125q-15 -10 -40 -10zM50 585q0 -38 26 -64t64 -26t64 26.5t26 63.5t-26 63.5t-64 26.5t-64 -26.5t-26 -63.5z" />
    <glyph glyph-name="foundryicon" horiz-adv-x="1538" 
d="M278 460v-31h-72v-199h-35v199h-71v31h178zM519 396q32 0 54.5 -25t22.5 -59q0 -36 -22.5 -60.5t-54.5 -24.5q-29 0 -47 21v-79h-34v224h24l9 -19q19 22 48 22zM516 258q19 0 33 16t14 38q0 21 -14 36.5t-33 15.5t-33 -15.5t-14 -36.5q0 -22 13.5 -38t33.5 -16zM333 277
l44 116h37l-77 -190q-16 -34 -49 -34q-7 0 -10 1v28q23 0 31 20l6 16l-63 159h37zM701 396q32 0 54 -24.5t22 -58.5l-1 -15h-119q2 -17 14.5 -29t29.5 -12q27 0 37 17h35q-9 -22 -28.5 -34.5t-43.5 -12.5q-32 0 -55 24.5t-23 60.5q0 35 23 59.5t55 24.5zM657 325h88
q-1 17 -14.5 28.5t-29.5 11.5t-29 -11t-15 -29zM939 460v-31h-72v-199h-35v199h-71v31h178zM1180 396q32 0 54.5 -25t22.5 -59q0 -36 -22.5 -60.5t-54.5 -24.5q-29 0 -47 21v-79h-34v224h24l9 -19q19 22 48 22zM1177 258q19 0 33 16t14 38q0 21 -14 36.5t-33 15.5t-33 -15.5
t-14 -36.5q0 -22 13.5 -38t33.5 -16zM994 277l44 116h37l-77 -190q-16 -34 -49 -34q-7 0 -10 1v28q23 0 31 20l6 16l-63 159h37zM1362 396q32 0 54 -24.5t22 -58.5l-1 -15h-119q2 -17 14.5 -29t29.5 -12q27 0 37 17h35q-9 -22 -28.5 -34.5t-43.5 -12.5q-32 0 -55 24.5
t-23 60.5q0 35 23 59.5t55 24.5zM1318 325h88q-1 17 -14.5 28.5t-29.5 11.5t-29 -11t-15 -29z" />
    </font>
</defs>
</svg>
