<?xml version="1.0" standalone="no"?>
<!DOCTYPE svg PUBLIC "-//W3C//DTD SVG 1.1//EN" "http://www.w3.org/Graphics/SVG/1.1/DTD/svg11.dtd" >
<svg>
<metadata>
Created by FontForge 20090622 at Sat Aug 19 12:21:48 2017
 By deploy user
Copyright (c) 2017 by TypeType. Designers Ivan Gladkikh, Pavel Emelyanov. Technical designers Olexa Volochay, Nadyr Rakhimov, Dmitriy Greshnev. All rights reserved.
</metadata>
<defs>
<font id="TTNorms-ExtraBoldItalic" horiz-adv-x="610" >
  <font-face 
    font-family="TT Norms ExtraBold"
    font-weight="800"
    font-style="italic"
    font-stretch="normal"
    units-per-em="1000"
    panose-1="2 0 5 3 5 0 0 9 0 4"
    ascent="800"
    descent="-200"
    x-height="490"
    cap-height="700"
    bbox="-225 -245 1438 995"
    underline-thickness="50"
    underline-position="-50"
    unicode-range="U+000D-U+FB06"
  />
<missing-glyph horiz-adv-x="0" 
 />
    <glyph glyph-name="f_f" unicode="ff" horiz-adv-x="720" 
d="M749 470l-31 -150h-105l-68 -320h-170l68 320h-165l-68 -320h-170l68 320h-65l31 150h65l9 40q40 190 211 190q24 0 49.5 -4t38.5 -8l13 -3l-31 -145q-18 10 -48 10q-26 0 -43 -13.5t-22 -36.5l-7 -30h165l13 60q41 190 212 190q24 0 49 -4t38 -8l13 -3l-30 -145
q-18 10 -48 10q-26 0 -43.5 -13.5t-22.5 -36.5l-11 -50h105z" />
    <glyph glyph-name="uniFB01" unicode="fi" horiz-adv-x="660" 
d="M644 470l-99 -470h-170l68 320h-165l-68 -320h-170l68 320h-65l31 150h65l11 50q41 190 213 190q24 0 49 -4t38 -8l12 -3l-31 -145q-17 10 -47 10q-56 0 -66 -50l-9 -40h335zM494 624q0 39 31 70t75 31q39 0 63.5 -23.5t24.5 -56.5q0 -40 -31.5 -70t-73.5 -30
q-40 0 -64.5 22.5t-24.5 56.5z" />
    <glyph glyph-name="f_f_i" unicode="ffi" horiz-adv-x="1000" 
d="M984 470l-99 -470h-170l68 320h-170l-68 -320h-170l68 320h-165l-68 -320h-170l68 320h-65l31 150h65l9 40q40 190 210 190q24 0 49.5 -4t38.5 -8l14 -3l-31 -145q-18 9 -48 10q-55 1 -65 -50l-7 -30h165l13 60q41 190 211 190q24 0 49.5 -4t38.5 -8l13 -3l-30 -145
q-18 10 -48 10q-56 0 -66 -50l-11 -50h340zM834 624q0 39 31 70t75 31q39 0 63.5 -23.5t24.5 -56.5q0 -40 -31.5 -70t-73.5 -30q-40 0 -64.5 22.5t-24.5 56.5z" />
    <glyph glyph-name=".notdef" horiz-adv-x="0" 
 />
    <glyph glyph-name=".null" horiz-adv-x="0" 
 />
    <glyph glyph-name=".null" horiz-adv-x="0" 
 />
    <glyph glyph-name="nonmarkingreturn" horiz-adv-x="333" 
 />
    <glyph glyph-name="CR" unicode="&#xd;" horiz-adv-x="0" 
 />
    <glyph glyph-name="space" unicode=" " horiz-adv-x="210" 
 />
    <glyph glyph-name="exclam" unicode="!" horiz-adv-x="350" 
d="M246 220h-140l72 480h200zM54 69q0 39 31 70t75 31q39 0 63.5 -23.5t24.5 -56.5q0 -40 -31.5 -70t-73.5 -30q-40 0 -64.5 22.5t-24.5 56.5z" />
    <glyph glyph-name="quotedbl" unicode="&#x22;" horiz-adv-x="460" 
d="M303 700l-53 -250h-150l53 250h150zM513 700l-53 -250h-150l53 250h150z" />
    <glyph glyph-name="numbersign" unicode="#" horiz-adv-x="760" 
d="M6 170l50 120h120l51 120h-115l50 120h115l71 170h150l-71 -170h115l71 170h150l-71 -170h120l-50 -120h-120l-51 -120h115l-50 -120h-115l-71 -170h-150l71 170h-115l-71 -170h-150l71 170h-120zM377 410l-51 -120h115l51 120h-115z" />
    <glyph glyph-name="dollar" unicode="$" 
d="M279 140q38 0 65 17t27 53q0 21 -28 40t-67.5 37t-79 41t-67.5 62.5t-28 90.5q0 88 64.5 154.5t176.5 80.5l18 84h160l-20 -94q43 -12 78.5 -33.5t49.5 -36.5l13 -16l-128 -110q-5 6 -15 14t-40 22t-61 14q-36 0 -59 -16.5t-23 -40.5q0 -21 27.5 -39.5t67.5 -35.5
t79.5 -39.5t67 -61.5t27.5 -90q0 -99 -62 -167.5t-176 -84.5l-18 -85h-160l19 91q-56 13 -103.5 40t-67.5 48l-20 21l129 111l7.5 -7.5t20.5 -17t33 -22t42.5 -17t50.5 -7.5z" />
    <glyph glyph-name="percent" unicode="%" horiz-adv-x="860" 
d="M280 605q-27 0 -47 -20t-20 -48q0 -22 15.5 -37t41.5 -15t46.5 19.5t20.5 47.5q0 23 -15.5 38t-41.5 15zM459 559q0 -74 -59 -129t-142 -55q-72 0 -119.5 45.5t-47.5 109.5q0 74 58.5 129.5t142.5 55.5q73 0 120 -46t47 -110zM85 0l583 700h165l-583 -700h-165zM648 215
q-27 0 -47 -20t-20 -48q0 -22 15.5 -37t41.5 -15t46.5 19.5t20.5 47.5q0 23 -15.5 38t-41.5 15zM827 169q0 -74 -59 -129t-142 -55q-72 0 -119.5 45.5t-47.5 109.5q0 74 58.5 129.5t142.5 55.5q73 0 120 -46t47 -110z" />
    <glyph glyph-name="ampersand" unicode="&#x26;" horiz-adv-x="675" 
d="M565 157q18 -22 48 -22l26 5l-29 -140q-34 -20 -79 -20q-36 0 -65 17.5t-40 34.5l-12 18q-8 -8 -22.5 -19.5t-64 -31t-102.5 -19.5q-89 0 -145.5 49.5t-56.5 117.5q0 43 18.5 82.5t45.5 65.5t53.5 45.5t45.5 28.5l18 9q-6 7 -15 19.5t-23.5 49t-14.5 68.5q0 83 64 144
t161 61q83 0 135 -46t52 -108q0 -32 -16 -64.5t-38.5 -56t-45 -43t-38.5 -28.5l-16 -10l57 -90q34 36 44 81h160q-11 -51 -37 -100.5t-47 -73.5zM262 120q22 0 44 9t33 19l11 9l-73 113q-3 0 -20.5 -11.5t-36.5 -36.5t-19 -51q0 -22 16.5 -36.5t44.5 -14.5zM335 449l32 25
t24 28.5t13 38.5q0 17 -13 28t-32 11q-25 0 -41.5 -16.5t-16.5 -42.5q0 -16 8.5 -34t16.5 -28z" />
    <glyph glyph-name="quotesingle" unicode="'" horiz-adv-x="250" 
d="M303 700l-53 -250h-150l53 250h150z" />
    <glyph glyph-name="parenleft" unicode="(" horiz-adv-x="390" 
d="M243 250q-14 -64 -14 -131q0 -72 15.5 -140.5t31.5 -100.5l16 -33l-147 -80q-4 6 -10 17.5t-22 48.5t-28.5 76t-22.5 97.5t-10 116.5q0 103 31 204t74.5 172.5t88 127t74.5 83.5t31 27l113 -80q-7 -7 -19 -20t-44 -56t-59.5 -87.5t-56 -111t-42.5 -130.5z" />
    <glyph glyph-name="parenright" unicode=")" horiz-adv-x="390" 
d="M163 250q14 64 14 130q0 72 -15.5 141t-31.5 101l-16 33l147 80q4 -6 10 -17.5t22 -48.5t28 -76.5t22 -98.5t10 -117q0 -75 -16.5 -149.5t-42.5 -133.5t-58 -112.5t-64 -92.5t-58 -67t-42.5 -43t-16.5 -14l-112 80q7 7 19 20t44 56t59 87.5t55.5 111t42.5 130.5z" />
    <glyph glyph-name="asterisk" unicode="*" horiz-adv-x="410" 
d="M373 700l-31 -100l102 35l12 -110l-101 -28l50 -72l-105 -75l-43 90l-77 -90l-85 75l80 77l-89 23l58 110l88 -35l11 100h130z" />
    <glyph glyph-name="plus" unicode="+" horiz-adv-x="530" 
d="M406 525l-33 -155h155l-33 -155h-155l-33 -155h-150l33 155h-155l33 155h155l33 155h150z" />
    <glyph glyph-name="comma" unicode="," horiz-adv-x="285" 
d="M98 172l121 -82l-187 -220l-98 61z" />
    <glyph glyph-name="hyphen" unicode="-" horiz-adv-x="435" 
d="M433 370l-32 -150h-365l32 150h365z" />
    <glyph glyph-name="period" unicode="." horiz-adv-x="270" 
d="M10 69q0 39 31 70t75 31q39 0 63.5 -23.5t24.5 -56.5q0 -40 -31.5 -70t-73.5 -30q-40 0 -64.5 22.5t-24.5 56.5z" />
    <glyph glyph-name="slash" unicode="/" horiz-adv-x="525" 
d="M600 710l-490 -920h-169l490 920h169z" />
    <glyph glyph-name="zero" unicode="0" horiz-adv-x="710" 
d="M418 551q-40 0 -73 -28t-51.5 -71t-28.5 -87t-10 -81q0 -65 27 -99.5t68 -34.5q55 0 109 71.5t54 197.5q0 64 -27.5 98t-67.5 34zM705 418q0 -74 -25 -150.5t-69.5 -141t-116.5 -105.5t-157 -41q-117 0 -195.5 85t-78.5 219q0 96 32 179.5t84 138.5t117.5 86.5
t133.5 31.5q117 0 196 -84.5t79 -217.5z" />
    <glyph glyph-name="one" unicode="1" horiz-adv-x="415" 
d="M273 700h165l-148 -700h-190l104 490h-115l24 115q29 4 56 15.5t45 24.5t32 25.5t20 21.5z" />
    <glyph glyph-name="two" unicode="2" horiz-adv-x="605" 
d="M505 0h-520q15 83 53 149.5t84 104.5t97 70.5t92.5 54t68.5 49.5t27 61q0 23 -16 37t-47 14q-29 0 -55 -16.5t-37 -32.5l-12 -16l-144 75q3 7 10 18.5t32.5 40.5t55.5 51.5t81.5 41t108.5 18.5q97 0 163.5 -58.5t66.5 -137.5q0 -62 -24 -110t-63.5 -79t-80 -55l-83 -50
t-62.5 -50h242z" />
    <glyph glyph-name="three" unicode="3" horiz-adv-x="590" 
d="M468 360q4 -2 9.5 -5t21 -15.5t27 -27.5t21 -40.5t9.5 -53.5q0 -97 -84.5 -167.5t-221.5 -70.5q-52 0 -98 12t-75 29t-51 33.5t-32 28.5l-9 12l129 111q6 -7 17.5 -18t47.5 -29.5t74 -18.5q48 0 75.5 23.5t27.5 58.5q0 24 -20 41t-57 17h-75l32 150h72q37 0 62.5 22
t25.5 52q0 23 -18.5 39.5t-47.5 16.5q-31 0 -62 -14t-46 -28l-15 -13l-87 110q3 4 9.5 11t30.5 25.5t51 32t71.5 25t93.5 11.5q99 0 163.5 -56.5t64.5 -127.5q0 -22 -5 -42t-12.5 -35.5t-18 -29t-22 -23.5t-23 -18t-21.5 -13t-18 -8.5t-12 -4.5z" />
    <glyph glyph-name="four" unicode="4" horiz-adv-x="625" 
d="M543 275h75l-34 -160h-75l-24 -115h-190l24 115h-315l37 175l367 410h225zM353 275l44 205l-179 -205h135z" />
    <glyph glyph-name="five" unicode="5" horiz-adv-x="625" 
d="M404 460q82 0 136 -58t54 -139q0 -124 -87 -203.5t-224 -79.5q-52 0 -98.5 12t-76 29t-52 33.5t-32.5 28.5l-9 12l131 113q6 -6 17 -16t45.5 -26t70.5 -16q54 0 83 27.5t29 74.5q0 30 -21 49t-58 19q-27 0 -51.5 -10t-35.5 -20l-11 -10l-126 20l110 400h450l-34 -160
h-282l-28 -100q35 20 100 20z" />
    <glyph glyph-name="six" unicode="6" horiz-adv-x="635" 
d="M598 700l-191 -220q90 -9 145.5 -73t55.5 -147q0 -117 -90.5 -198.5t-227.5 -81.5q-107 0 -179.5 63.5t-72.5 149.5q0 54 24.5 108t49.5 81l24 28l252 290h210zM307 140q43 0 75.5 31.5t32.5 75.5q0 30 -21.5 51.5t-53.5 21.5q-43 0 -76 -31t-33 -74q0 -31 21.5 -53
t54.5 -22z" />
    <glyph glyph-name="seven" unicode="7" horiz-adv-x="555" 
d="M133 700h495l-32 -150l-376 -550h-205l363 530h-281z" />
    <glyph glyph-name="eight" unicode="8" horiz-adv-x="630" 
d="M302 140q45 0 75 25.5t30 60.5q0 26 -22 45t-57 19q-45 0 -75 -25.5t-30 -60.5q0 -27 21.5 -45.5t57.5 -18.5zM366 440q36 0 61 20t25 46q0 21 -18 37.5t-47 16.5q-37 0 -62 -20.5t-25 -46.5q0 -21 18.5 -37t47.5 -16zM281 -20q-108 0 -178 60t-70 139q0 31 8.5 58.5
t22 48t30 37.5t32 28t29.5 19l21 12l8 3l-16 13.5t-26 39t-16 64.5q0 86 79.5 152t201.5 66q96 0 161 -57t65 -127q-1 -108 -119 -172l8.5 -5.5t19 -16t23.5 -27t18.5 -38t8.5 -49.5q0 -104 -87 -176t-224 -72z" />
    <glyph glyph-name="nine" unicode="9" horiz-adv-x="635" 
d="M95 0l191 220q-90 9 -145.5 73t-55.5 147q0 117 90.5 198.5t227.5 81.5q107 0 179.5 -63.5t72.5 -149.5q0 -53 -24.5 -107.5t-48.5 -81.5l-25 -28l-252 -290h-210zM386 560q-43 0 -75.5 -31.5t-32.5 -75.5q0 -30 21.5 -51.5t53.5 -21.5q43 0 76 31t33 74q0 31 -21.5 53
t-54.5 22z" />
    <glyph glyph-name="colon" unicode=":" horiz-adv-x="270" 
d="M79 399q0 39 31 70t75 31q39 0 63.5 -23.5t24.5 -56.5q0 -40 -31.5 -70t-73.5 -30q-40 0 -64.5 22.5t-24.5 56.5zM10 69q0 39 31 70t75 31q39 0 63.5 -23.5t24.5 -56.5q0 -40 -31.5 -70t-73.5 -30q-40 0 -64.5 22.5t-24.5 56.5z" />
    <glyph glyph-name="semicolon" unicode=";" horiz-adv-x="295" 
d="M105 399q0 39 31 70t75 31q39 0 63.5 -23.5t24.5 -56.5q0 -40 -31.5 -70t-73.5 -30q-40 0 -64.5 22.5t-24.5 56.5zM98 172l121 -82l-187 -220l-98 61z" />
    <glyph glyph-name="less" unicode="&#x3c;" horiz-adv-x="520" 
d="M29 185l25 120l491 190l-33 -160l-260 -95l219 -95l-33 -150z" />
    <glyph glyph-name="equal" unicode="=" horiz-adv-x="495" 
d="M470 260l-30 -140h-425l30 140h425zM514 470l-29 -140h-425l29 140h425z" />
    <glyph glyph-name="greater" unicode="&#x3e;" horiz-adv-x="520" 
d="M504 305l-25 -120l-491 -190l33 160l261 95l-220 95l33 150z" />
    <glyph glyph-name="question" unicode="?" horiz-adv-x="565" 
d="M189 244q0 51 32 89.5t70 58t70 45t32 53.5q0 19 -16 32t-42 13q-33 0 -59.5 -15t-35.5 -30l-10 -15l-144 75q3 7 9 18.5t30 40.5t53.5 51.5t80.5 41t110 18.5q105 0 171 -61t66 -136q0 -52 -23 -94t-57 -68.5t-68 -48.5t-60.5 -45t-31.5 -47h-175q-2 11 -2 24zM152 69
q0 39 31 70t75 31q39 0 63.5 -23.5t24.5 -56.5q0 -40 -31.5 -70t-73.5 -30q-40 0 -64.5 22.5t-24.5 56.5z" />
    <glyph glyph-name="at" unicode="@" horiz-adv-x="900" 
d="M459 315q-31 0 -55 -25t-24 -60q0 -23 15.5 -39t38.5 -16q30 0 54.5 24.5t24.5 58.5q0 24 -15.5 40.5t-38.5 16.5zM459 430q24 0 45 -10t30 -20l9 -10l7 35h115l-42 -200q-5 -19 6 -37t32 -18q33 0 60 37t27 116q0 91 -69 151.5t-175 60.5q-85 0 -163 -44.5t-126 -121
t-48 -163.5q0 -99 65 -170t165 -71q49 0 95.5 15.5t68.5 31.5l22 15l58 -86l-12 -9t-34 -21t-54 -26t-71.5 -20.5t-86.5 -9.5q-142 0 -238 99.5t-96 235.5q0 121 66.5 226.5t176 167t230.5 61.5q149 0 248.5 -88.5t99.5 -215.5q0 -129 -66 -205t-156 -76q-23 0 -42.5 6.5
t-31 15t-19.5 17.5t-11 15l-3 7q-5 -7 -15.5 -17t-46.5 -27t-76 -17q-61 0 -101 41.5t-40 104.5q0 97 61 160.5t136 63.5z" />
    <glyph glyph-name="A" unicode="A" horiz-adv-x="740" 
d="M461 300l-22 205l-108 -205h130zM479 150h-230l-81 -150h-213l413 700h210l117 -700h-197z" />
    <glyph glyph-name="B" unicode="B" horiz-adv-x="710" 
d="M393 0h-358l148 700h305q95 0 154.5 -51t59.5 -117q0 -36 -13 -66.5t-31 -49t-36 -32t-31 -18.5l-13 -5q4 -2 10 -5.5t22.5 -16.5t29 -28t22.5 -40t10 -52q0 -91 -76.5 -155t-202.5 -64zM256 150h134q38 0 63 22.5t25 58.5q0 25 -18.5 42t-47.5 17h-126zM442 550h-101
l-25 -120h109q33 0 54 19t21 50q0 21 -16 36t-42 15z" />
    <glyph glyph-name="C" unicode="C" horiz-adv-x="750" 
d="M495 550q-98 0 -169.5 -70t-71.5 -170q0 -69 46 -114.5t119 -45.5q34 0 67 10t56.5 24t42 28.5t27.5 24.5l10 10l88 -127l-13.5 -15.5t-39 -33.5t-64.5 -42.5t-88.5 -33.5t-111.5 -15q-142 0 -237 96t-95 224q0 172 132.5 296t317.5 124q56 0 106.5 -14.5t83 -35t57 -41
t34.5 -35.5l11 -14l-135 -114q-2 3 -6.5 9t-20 20.5t-34 25.5t-49 20t-63.5 9z" />
    <glyph glyph-name="D" unicode="D" horiz-adv-x="760" 
d="M183 700h255q137 0 228 -90t91 -213q0 -169 -125.5 -283t-305.5 -114h-291zM413 530h-76l-76 -360h78q84 0 154 62.5t70 153.5q0 62 -41.5 103t-108.5 41z" />
    <glyph glyph-name="E" unicode="E" horiz-adv-x="670" 
d="M259 160h360l-34 -160h-550l148 700h540l-34 -160h-350l-23 -110h270l-32 -150h-270z" />
    <glyph glyph-name="F" unicode="F" horiz-adv-x="650" 
d="M183 700h540l-36 -170h-350l-24 -115h270l-36 -170h-270l-52 -245h-190z" />
    <glyph glyph-name="G" unicode="G" horiz-adv-x="810" 
d="M398 -20q-142 0 -239.5 96t-97.5 224q0 172 134 296t319 124q56 0 106.5 -14.5t82 -35t55.5 -41t34 -35.5l11 -14l-135 -114q-2 3 -6.5 9t-20.5 20.5t-34 25.5t-48 20t-62 9q-98 0 -170.5 -70.5t-72.5 -172.5q0 -68 46 -112.5t119 -44.5q36 0 67.5 11t45.5 23l14 11
l16 75h-110l25 120h300l-57 -270q-5 -6 -14.5 -15.5t-41 -33.5t-66.5 -42.5t-89.5 -33.5t-110.5 -15z" />
    <glyph glyph-name="H" unicode="H" horiz-adv-x="795" 
d="M818 700l-148 -700h-190l57 270h-255l-57 -270h-190l148 700h190l-55 -260h255l55 260h190z" />
    <glyph glyph-name="I" unicode="I" horiz-adv-x="350" 
d="M35 0l148 700h190l-148 -700h-190z" />
    <glyph glyph-name="J" unicode="J" horiz-adv-x="525" 
d="M363 700h190l-97 -460q-25 -118 -102 -189t-188 -71q-38 0 -73 9.5t-58.5 22.5t-41.5 26t-26 22l-8 10l140 115q2 -4 7 -10t23 -15.5t40 -9.5q34 0 61 24.5t36 65.5z" />
    <glyph glyph-name="K" unicode="K" horiz-adv-x="730" 
d="M364 268l-102 -93l-37 -175h-190l148 700h190l-55 -259l270 259h235l-311 -296l183 -404h-210z" />
    <glyph glyph-name="L" unicode="L" horiz-adv-x="600" 
d="M535 0h-500l148 700h190l-112 -530h310z" />
    <glyph glyph-name="M" unicode="M" horiz-adv-x="930" 
d="M456 170l-143 245l-88 -415h-190l148 700h158l157 -275l273 275h182l-148 -700h-190l88 415z" />
    <glyph glyph-name="N" unicode="N" horiz-adv-x="815" 
d="M648 700h190l-148 -700h-161l-222 390l-82 -390h-190l148 700h162l220 -390z" />
    <glyph glyph-name="O" unicode="O" horiz-adv-x="860" 
d="M481 550q-89 0 -155.5 -67t-66.5 -158q0 -75 50 -125t128 -50q88 0 155 65t67 160q0 74 -50 124.5t-128 50.5zM857 387q0 -105 -59 -199t-157.5 -151t-208.5 -57q-159 0 -265 98t-106 235q0 162 128 284.5t297 122.5q159 0 265 -98t106 -235z" />
    <glyph glyph-name="P" unicode="P" horiz-adv-x="695" 
d="M183 700h301q98 0 163 -62.5t65 -147.5q0 -123 -86 -201.5t-216 -78.5h-141l-44 -210h-190zM451 530h-114l-32 -150h122q38 0 64.5 26t26.5 61q0 25 -19 44t-48 19z" />
    <glyph glyph-name="Q" unicode="Q" horiz-adv-x="860" 
d="M857 387q0 -114 -70 -214.5t-180 -152.5q42 -45 132 -45h25l-32 -150h-35q-60 0 -110.5 16t-79 36t-50.5 46t-28 38t-9 20q-155 4 -257 100.5t-102 231.5q0 162 128 284.5t297 122.5q159 0 265 -98t106 -235zM481 550q-89 0 -155.5 -67t-66.5 -158q0 -75 50 -125t128 -50
q88 0 155 65t67 160q0 74 -50 124.5t-128 50.5z" />
    <glyph glyph-name="R" unicode="R" horiz-adv-x="720" 
d="M35 0l148 700h314q96 0 161 -62t65 -146q0 -53 -17.5 -97t-42.5 -68.5t-49.5 -42t-41.5 -23.5l-18 -6l91 -255h-196l-73 220h-105l-46 -220h-190zM438 390q36 0 63.5 22t27.5 58q0 25 -18 42.5t-47 17.5h-127l-30 -140h131z" />
    <glyph glyph-name="S" unicode="S" 
d="M279 140q38 0 65 17t27 53q0 21 -28 40t-67.5 37t-79 41t-67.5 62.5t-28 90.5q0 99 79.5 169t215.5 70q48 0 90.5 -10.5t69.5 -25t47.5 -29t28.5 -25.5l9 -10l-128 -110q-5 6 -15 14t-40 22t-61 14q-36 0 -59 -16.5t-23 -40.5q0 -21 27.5 -39.5t67.5 -35.5t79.5 -39.5
t67 -61.5t27.5 -90q0 -113 -80.5 -185t-223.5 -72q-52 0 -100 12.5t-80 30t-56.5 35t-35.5 30.5l-12 12l129 111l7.5 -7.5t20.5 -17t33 -22t42.5 -17t50.5 -7.5z" />
    <glyph glyph-name="T" unicode="T" horiz-adv-x="620" 
d="M123 700h580l-36 -170h-195l-112 -530h-190l112 530h-195z" />
    <glyph glyph-name="U" unicode="U" horiz-adv-x="790" 
d="M389 150q52 0 95.5 40t56.5 100l87 410h190l-87 -410q-29 -135 -125 -222.5t-231 -87.5q-141 0 -226 90.5t-58 219.5l87 410h190l-87 -410q-12 -59 21 -99.5t87 -40.5z" />
    <glyph glyph-name="V" unicode="V" horiz-adv-x="720" 
d="M205 0l-102 700h195l50 -480l250 480h215l-398 -700h-210z" />
    <glyph glyph-name="W" unicode="W" horiz-adv-x="1070" 
d="M571 405l-214 -405h-177l-77 700h195l32 -424l216 424h161l35 -424l210 424h211l-370 -700h-179z" />
    <glyph glyph-name="X" unicode="X" horiz-adv-x="705" 
d="M364 235l-189 -235h-220l307 365l-139 335h200l77 -205l163 205h220l-281 -335l153 -365h-200z" />
    <glyph glyph-name="Y" unicode="Y" horiz-adv-x="685" 
d="M573 700h215l-345 -450l-53 -250h-190l53 250l-155 450h195l84 -270z" />
    <glyph glyph-name="Z" unicode="Z" horiz-adv-x="660" 
d="M416 530h-289l36 170h545l-36 -170l-380 -360h314l-36 -170h-570l36 170z" />
    <glyph glyph-name="bracketleft" unicode="[" horiz-adv-x="395" 
d="M324 560l-132 -620h110l-32 -150h-280l195 920h280l-31 -150h-110z" />
    <glyph glyph-name="backslash" unicode="\" horiz-adv-x="525" 
d="M246 -210l-111 920h159l111 -920h-159z" />
    <glyph glyph-name="bracketright" unicode="]" horiz-adv-x="395" 
d="M87 -60l132 620h-110l31 150h280l-195 -920h-279l31 150h110z" />
    <glyph glyph-name="asciicircum" unicode="^" horiz-adv-x="450" 
d="M263 700h130l70 -305h-136l-30 140l-90 -140h-144z" />
    <glyph glyph-name="underscore" unicode="_" horiz-adv-x="350" 
d="M297 -80l-32 -155h-369l32 155h369z" />
    <glyph glyph-name="grave" unicode="`" horiz-adv-x="325" 
d="M313 711l48 -161h-140l-85 161h177z" />
    <glyph glyph-name="a" unicode="a" horiz-adv-x="636" 
d="M291 140q47 0 81 37t34 86q0 36 -24.5 61.5t-57.5 25.5q-44 0 -78.5 -36t-34.5 -89q0 -35 24 -60t56 -25zM442 424l14 66h170l-104 -490h-170l11 54q-2 -3 -6 -7t-17 -15t-28.5 -19.5t-40 -15.5t-51.5 -7q-77 0 -132.5 60t-55.5 146q0 131 83 217.5t189 86.5
q27 0 51.5 -8t39.5 -19t26 -22t16 -19z" />
    <glyph glyph-name="b" unicode="b" horiz-adv-x="635" 
d="M349 350q-47 0 -81 -37t-34 -86q0 -36 24.5 -61.5t57.5 -25.5q44 0 78.5 36t34.5 89q0 35 -24 60t-56 25zM198 66l-13 -66h-170l148 700h170l-56 -264q2 3 6 7t17 15t28.5 19.5t40 15.5t51.5 7q77 0 132.5 -60t55.5 -146q0 -131 -83 -217.5t-189 -86.5q-27 0 -51.5 8
t-39.5 19t-26 22t-16 19z" />
    <glyph glyph-name="c" unicode="c" horiz-adv-x="540" 
d="M32 209q0 118 92.5 204.5t217.5 86.5q39 0 75 -10.5t59 -25t40.5 -29t25.5 -25.5l8 -10l-118 -101q-4 6 -11 14.5t-32.5 22.5t-54.5 14q-52 0 -88.5 -35.5t-36.5 -88.5q0 -36 24.5 -61t63.5 -25q29 0 56 14t40 28l13 13l80 -108q-3 -4 -9.5 -10.5t-27.5 -23t-44.5 -29.5
t-61 -23.5t-76.5 -10.5q-97 0 -166 66t-69 153z" />
    <glyph glyph-name="d" unicode="d" horiz-adv-x="635" 
d="M289 140q47 0 81 37t34 86q0 36 -24.5 61.5t-57.5 25.5q-44 0 -78.5 -36t-34.5 -89q0 -35 24 -60t56 -25zM440 424l58 276h170l-148 -700h-170l11 54q-2 -3 -6 -7t-17 -15t-28.5 -19.5t-40 -15.5t-51.5 -7q-77 0 -132.5 60t-55.5 146q0 131 83 217.5t189 86.5
q27 0 51.5 -8t39.5 -19t26 -22t16 -19z" />
    <glyph glyph-name="e" unicode="e" horiz-adv-x="580" 
d="M537 200h-337q7 -34 34.5 -54.5t69.5 -20.5q31 0 61 12t44 24l14 12l52 -112q-3 -3 -9 -7.5t-26.5 -17t-42.5 -22t-57.5 -17t-71.5 -7.5q-100 0 -168.5 64t-68.5 152q0 121 91.5 207.5t214.5 86.5q95 0 158.5 -56t63.5 -139q0 -52 -22 -105zM317 370q-66 0 -100 -70h176
q-1 30 -22 50t-54 20z" />
    <glyph glyph-name="f" unicode="f" horiz-adv-x="385" 
d="M414 470l-31 -150h-105l-68 -320h-170l68 320h-65l31 150h65l11 50q41 190 207 190q29 0 55 -4t38 -8l12 -3l-31 -145q-18 10 -48 10q-26 0 -43 -13.5t-22 -36.5l-9 -40h105z" />
    <glyph glyph-name="g" unicode="g" horiz-adv-x="620" 
d="M351 55l7 29q-2 -3 -6.5 -7t-19 -15t-30.5 -19.5t-41.5 -15.5t-51.5 -7q-69 0 -122 59t-53 139q0 115 80 198.5t173 83.5q43 0 78.5 -19t50.5 -38l14 -19l14 66h170l-93 -435q-24 -112 -111.5 -188.5t-204.5 -76.5q-44 0 -83.5 11t-64.5 26t-44 30.5t-27 26.5l-9 11
l113 98q4 -6 12 -16t37 -26t65 -16q56 0 95.5 33t51.5 87zM318 350q-41 0 -73 -30.5t-32 -74.5q0 -31 22.5 -53t54.5 -22q43 0 74.5 31t31.5 73q0 31 -23 53.5t-55 22.5z" />
    <glyph glyph-name="h" unicode="h" horiz-adv-x="615" 
d="M333 700l-56 -265q6 7 17.5 18t49 29t77.5 18q67 0 109 -42.5t42 -113.5q0 -26 -6 -54l-61 -290h-170l55 260q2 14 2 19q0 28 -17.5 44.5t-43.5 16.5q-34 0 -59.5 -27.5t-35.5 -72.5l-51 -240h-170l148 700h170z" />
    <glyph glyph-name="i" unicode="i" horiz-adv-x="300" 
d="M289 490l-104 -490h-170l104 490h170zM135 624q0 39 31 70t75 31q39 0 63.5 -23.5t24.5 -56.5q0 -40 -31.5 -70t-73.5 -30q-40 0 -64.5 22.5t-24.5 56.5z" />
    <glyph glyph-name="j" unicode="j" horiz-adv-x="300" 
d="M15 0l104 490h170l-110 -515q-18 -85 -76.5 -135t-137.5 -50q-26 0 -50 4t-35 8l-11 3l32 150q23 -10 48 -10q22 0 41.5 16.5t24.5 38.5zM135 624q0 39 31 70t75 31q39 0 63.5 -23.5t24.5 -56.5q0 -40 -31.5 -70t-73.5 -30q-40 0 -64.5 22.5t-24.5 56.5z" />
    <glyph glyph-name="k" unicode="k" horiz-adv-x="575" 
d="M404 277l126 -277h-181l-79 175l-60 -54l-25 -121h-170l148 700h170l-79 -374l173 164h202z" />
    <glyph glyph-name="l" unicode="l" horiz-adv-x="300" 
d="M333 700l-148 -700h-170l148 700h170z" />
    <glyph glyph-name="m" unicode="m" horiz-adv-x="890" 
d="M610 0l55 260q7 37 -6.5 56t-44.5 19q-27 0 -50.5 -25.5t-32.5 -69.5l-51 -240h-170l55 260q7 37 -6.5 56t-44.5 19q-27 0 -50.5 -25.5t-32.5 -69.5l-51 -240h-170l104 490h170l-12 -55q5 7 14.5 18t43 29t71.5 18q28 0 51.5 -8t37 -20t23 -24t13.5 -20l3 -8q8 9 22 22.5
t58.5 35.5t91.5 22q79 0 120 -56.5t20 -153.5l-61 -290h-170z" />
    <glyph glyph-name="n" unicode="n" 
d="M284 490l-12 -55q6 7 17.5 18t49 29t77.5 18q67 0 109 -42.5t42 -113.5q0 -26 -6 -54l-61 -290h-170l55 260q2 14 2 19q0 28 -17.5 44.5t-43.5 16.5q-34 0 -59.5 -27.5t-35.5 -72.5l-51 -240h-170l104 490h170z" />
    <glyph glyph-name="o" unicode="o" 
d="M321 350q-44 0 -78 -37.5t-34 -83.5q0 -38 23.5 -63.5t59.5 -25.5q42 0 77 36.5t35 85.5q0 39 -23.5 63.5t-59.5 24.5zM582 267q0 -110 -89.5 -193.5t-206.5 -83.5q-111 0 -182.5 69.5t-71.5 164.5q0 109 89 192.5t207 83.5q111 0 182.5 -69t71.5 -164z" />
    <glyph glyph-name="p" unicode="p" horiz-adv-x="630" 
d="M344 350q-47 0 -81 -37t-34 -86q0 -36 24.5 -61.5t57.5 -25.5q44 0 78.5 36t34.5 89q0 35 -24 60t-56 25zM193 66l-58 -276h-170l149 700h170l-12 -54q2 3 6 7t17 15t28.5 19.5t40 15.5t51.5 7q77 0 132.5 -60t55.5 -146q0 -131 -83 -217.5t-189 -86.5q-27 0 -51.5 8
t-39.5 19t-26 22t-16 19z" />
    <glyph glyph-name="q" unicode="q" horiz-adv-x="630" 
d="M289 140q47 0 81 37t34 86q0 36 -24.5 61.5t-57.5 25.5q-44 0 -78.5 -36t-34.5 -89q0 -35 24 -60t56 -25zM440 424l13 66h170l-148 -700h-170l56 264q-2 -3 -6 -7t-17 -15t-28.5 -19.5t-40 -15.5t-51.5 -7q-77 0 -132.5 60t-55.5 146q0 131 83 217.5t189 86.5
q27 0 51.5 -8t39.5 -19t26 -22t16 -19z" />
    <glyph glyph-name="r" unicode="r" horiz-adv-x="405" 
d="M403 320q-18 10 -48 10q-49 0 -84 -33t-48 -92l-43 -205h-170l104 490h170l-12 -56q7 7 19 17t50.5 27t78.5 17h20z" />
    <glyph glyph-name="s" unicode="s" horiz-adv-x="470" 
d="M480 425l-102 -89q-30 29 -70 29q-22 0 -34.5 -8.5t-12.5 -21.5q0 -10 17.5 -20t42.5 -20.5t49.5 -25t42 -40.5t17.5 -60q0 -77 -61.5 -128t-171.5 -51q-43 0 -81 10t-61.5 24t-40.5 27.5t-24 23.5l-7 10l102 88q3 -5 10 -13t30 -21.5t50 -13.5q22 0 34.5 8.5t12.5 21.5
q0 10 -17.5 20t-42 20.5t-49.5 25t-42.5 40.5t-17.5 60q0 77 61.5 128t171.5 51q58 0 106.5 -19t67.5 -37z" />
    <glyph glyph-name="t" unicode="t" horiz-adv-x="425" 
d="M185 545l18 85h150l-31 -150h100l-32 -150h-100l-30 -140q-11 -50 39 -50q12 0 26.5 2.5t22.5 5.5l8 2l-30 -145q-42 -15 -97 -15q-84 0 -122.5 49t-18.5 141l32 150h-75l32 150h35q27 0 47 17.5t26 47.5z" />
    <glyph glyph-name="u" unicode="u" horiz-adv-x="615" 
d="M330 0l10 50q-6 -7 -16.5 -17t-46.5 -26.5t-76 -16.5q-69 0 -112.5 42t-43.5 112q0 24 6 51l63 295h170l-57 -265q-2 -12 -2 -17q0 -27 16 -42.5t43 -15.5q34 0 61 24.5t36 65.5l53 250h170l-104 -490h-170z" />
    <glyph glyph-name="v" unicode="v" horiz-adv-x="540" 
d="M310 0h-180l-76 490h172l30 -285l150 285h188z" />
    <glyph glyph-name="w" unicode="w" horiz-adv-x="790" 
d="M381 490h123l27 -250l133 250h180l-272 -490h-144l-33 239l-133 -239h-144l-64 490h167l27 -250z" />
    <glyph glyph-name="x" unicode="x" horiz-adv-x="530" 
d="M249 140l-114 -140h-185l208 250l-94 240h178l43 -130l98 130h191l-196 -240l102 -250h-175z" />
    <glyph glyph-name="y" unicode="y" horiz-adv-x="540" 
d="M113 -10l18 24l-77 476h172l31 -285l151 285h186l-289 -490q-65 -110 -125 -160t-130 -50q-24 0 -48 4t-36 8l-12 3l31 150q19 -10 49 -10q48 0 79 45z" />
    <glyph glyph-name="z" unicode="z" horiz-adv-x="510" 
d="M519 490l-32 -150l-241 -190h210l-31 -150h-440l31 150l242 190h-191l32 150h420z" />
    <glyph glyph-name="braceleft" unicode="{" horiz-adv-x="430" 
d="M42 175l32 150q30 0 54 20t30 50l26 120q42 195 206 195h110l-34 -160h-45q-23 0 -42.5 -17t-24.5 -43l-24 -110q-6 -31 -20 -55.5t-29.5 -38t-29.5 -22.5t-23 -12l-10 -2q2 0 4.5 -1t11 -5.5t14.5 -10t14.5 -16t11.5 -23.5t5 -32t-4 -42l-23 -110q-6 -26 6.5 -43
t35.5 -17h45l-34 -160h-90q-85 0 -124.5 50t-19.5 145l26 120q6 30 -9.5 50t-45.5 20z" />
    <glyph glyph-name="bar" unicode="|" horiz-adv-x="405" 
d="M395 710l-195 -920h-175l195 920h175z" />
    <glyph glyph-name="braceright" unicode="}" horiz-adv-x="430" 
d="M404 325l-32 -150q-30 0 -54.5 -20t-30.5 -50l-26 -120q-41 -195 -206 -195h-109l33 160h45q23 0 42.5 17t25.5 43l23 110q6 31 20 55.5t29.5 38t30 22.5t23.5 12l10 2q-3 1 -8 3t-19 11t-20.5 22.5t-13 37.5t2.5 56l24 110q5 26 -7.5 43t-35.5 17h-45l34 160h90
q85 0 124.5 -50t19.5 -145l-26 -120q-6 -30 10 -50t46 -20z" />
    <glyph glyph-name="asciitilde" unicode="~" horiz-adv-x="580" 
d="M228 250q-24 0 -49 -11t-38 -23l-13 -11l-89 75q2 5 6.5 12.5t20 27.5t33.5 35t47.5 27.5t61.5 12.5q48 0 99.5 -25t80.5 -25q24 0 49 11.5t37 22.5l13 11l89 -75q-2 -5 -6.5 -12.5t-20 -27.5t-33.5 -35t-47.5 -27.5t-61.5 -12.5q-48 0 -99 25t-80 25z" />
    <glyph glyph-name="nbspace" unicode="&#xa0;" horiz-adv-x="210" 
 />
    <glyph glyph-name="exclamdown" unicode="&#xa1;" horiz-adv-x="330" 
d="M107 270h140l-72 -480h-200zM299 421q0 -39 -31 -70t-75 -31q-39 0 -63.5 23.5t-24.5 56.5q0 40 31.5 70t73.5 30q40 0 64.5 -22.5t24.5 -56.5z" />
    <glyph glyph-name="cent" unicode="&#xa2;" horiz-adv-x="530" 
d="M475 76q-6 -7 -18 -17t-50 -31.5t-78 -30.5l-21 -97h-155l23 107q-65 26 -104.5 82.5t-39.5 123.5q0 100 70.5 179t176.5 101l20 92h155l-21 -99q33 -11 60 -30t38 -32l11 -14l-117 -100q-3 4 -9.5 11t-30 18t-52.5 11q-52 0 -88 -35.5t-36 -88.5q0 -36 24.5 -61
t63.5 -25q28 0 52 11.5t35 22.5l10 12z" />
    <glyph glyph-name="sterling" unicode="&#xa3;" horiz-adv-x="600" 
d="M172 480q23 112 95 176t186 64q39 0 76 -10t61 -24t42 -27.5t26 -23.5l9 -10l-149 -120q-27 35 -77 35q-33 0 -59.5 -23t-34.5 -56l-12 -61h155l-26 -120h-155l-13 -60q-4 -18 -11 -31.5t-13 -18.5l-5 -5h298l-35 -165h-520l35 165q28 0 47 15t24 40l13 60h-60l26 120h60
z" />
    <glyph glyph-name="currency" unicode="&#xa4;" horiz-adv-x="720" 
d="M345 400h116q38 0 64 24t26 60q0 24 -17 40t-46 16h-114zM451 265h-135l-10 -45h200l-28 -135h-200l-18 -85h-190l18 85h-70l28 135h70l10 45h-70l29 135h70l63 300h298q101 0 165.5 -59t64.5 -138q0 -106 -81 -172t-214 -66z" />
    <glyph glyph-name="yen" unicode="&#xa5;" horiz-adv-x="685" 
d="M582 245h-140l-9 -40h140l-26 -125h-140l-17 -80h-190l17 80h-140l26 125h140l9 40h-140l26 125h73l-113 330h195l83 -270l197 270h215l-254 -330h74z" />
    <glyph glyph-name="brokenbar" unicode="&#xa6;" horiz-adv-x="405" 
d="M106 170h175l-81 -380h-175zM315 330h-175l80 380h175z" />
    <glyph glyph-name="section" unicode="&#xa7;" horiz-adv-x="565" 
d="M576 640l-104 -85q-30 31 -74 31q-26 0 -40 -12.5t-14 -31.5q0 -15 20 -30t48.5 -30t57 -34t48.5 -49t20 -68q0 -32 -12.5 -60.5t-30 -46.5t-36 -31.5t-30 -19.5t-13.5 -6q6 -5 14.5 -13.5t23 -35.5t14.5 -55q0 -77 -69.5 -130t-183.5 -53q-44 0 -82 11t-61 26t-40 30.5
t-24 26.5l-7 11l100 83q4 -6 12.5 -15t35.5 -23.5t56 -14.5q34 0 51.5 15.5t17.5 41.5q0 18 -21.5 35t-52 33t-60.5 35t-51.5 49t-21.5 68q0 32 12.5 59.5t30.5 44.5t36 29.5t30 17.5l13 5q-5 4 -12 12.5t-19 34t-12 51.5q0 70 67 122t175 52q38 0 71 -8t53.5 -20t35.5 -24
t22 -20zM321 240q21 6 36.5 22.5t15.5 39.5t-22 42.5t-44 27.5l-22 8q-21 -6 -36.5 -22.5t-15.5 -39.5t22 -42.5t44 -27.5z" />
    <glyph glyph-name="dieresis" unicode="&#xa8;" horiz-adv-x="460" 
d="M118 628q0 35 30 63.5t67 28.5q32 0 54 -23t22 -54q0 -36 -30 -64.5t-67 -28.5q-32 0 -54 23.5t-22 54.5zM348 628q0 35 30 63.5t67 28.5q32 0 54 -23t22 -54q0 -36 -30 -64.5t-67 -28.5q-32 0 -54 23.5t-22 54.5z" />
    <glyph glyph-name="copyright" unicode="&#xa9;" horiz-adv-x="870" 
d="M264 319q0 94 71 162.5t170 68.5q32 0 59 -8t43.5 -20t28.5 -24t17 -20l5 -8l-81 -67q-2 5 -7.5 12t-26 18.5t-47.5 11.5q-43 0 -79 -34.5t-36 -76.5q0 -32 23 -55.5t56 -23.5q27 0 50 12.5t33 25.5l10 13l57 -74q-2 -3 -6.5 -8.5t-20.5 -20t-34 -25t-47.5 -19.5
t-61.5 -9q-74 0 -125 50t-51 119zM497 630q-125 0 -223 -92.5t-98 -215.5q0 -103 73.5 -178t180.5 -75q127 0 223.5 94t96.5 216q0 103 -73 177t-180 74zM852 390q0 -79 -33.5 -154t-90 -131t-136 -90.5t-166.5 -34.5q-155 0 -253.5 96t-98.5 234q0 168 126.5 289t299.5 121
q155 0 253.5 -95.5t98.5 -234.5z" />
    <glyph glyph-name="ordfeminine" unicode="&#xaa;" horiz-adv-x="387" 
d="M298 520l-63 -15q-13 -3 -23 -13t-10 -22q0 -20 28 -20q19 0 40.5 19t25.5 41zM171 370q-39 0 -62.5 23.5t-23.5 63.5q0 44 35 74t94 39l98 15v4q0 26 -39 26q-22 0 -42.5 -7.5t-29.5 -15.5l-9 -8l-51 66q6 7 17.5 17t51 26.5t84.5 16.5q60 0 94 -28t34 -78q0 -20 -4 -39
l-40 -185h-110l8 35q-4 -5 -12.5 -12.5t-36 -20t-56.5 -12.5z" />
    <glyph glyph-name="guillemotleft" unicode="&#xab;" horiz-adv-x="595" 
d="M610 420l-176 -187l87 -173h-154l-91 180l168 180h166zM375 420l-176 -187l87 -173h-154l-91 180l168 180h166z" />
    <glyph glyph-name="logicalnot" unicode="&#xac;" horiz-adv-x="490" 
d="M500 425l-56 -265h-150l24 115h-270l32 150h420z" />
    <glyph glyph-name="uni00AD" unicode="&#xad;" horiz-adv-x="435" 
d="M433 370l-32 -150h-365l32 150h365z" />
    <glyph glyph-name="registered" unicode="&#xae;" horiz-adv-x="870" 
d="M549 305l50 -145h-117l-37 110h-38l-23 -110h-115l80 380h173q51 0 84.5 -34t33.5 -80q0 -41 -23 -71.5t-45 -40.5zM442 435l-13 -60h52q16 0 28 10.5t12 23.5q0 11 -8 18.5t-21 7.5h-50zM497 630q-125 0 -223 -92.5t-98 -215.5q0 -103 73.5 -178t180.5 -75
q127 0 223.5 94t96.5 216q0 103 -73 177t-180 74zM852 390q0 -79 -33.5 -154t-90 -131t-136 -90.5t-166.5 -34.5q-155 0 -253.5 96t-98.5 234q0 168 126.5 289t299.5 121q155 0 253.5 -95.5t98.5 -234.5z" />
    <glyph glyph-name="macron" unicode="&#xaf;" horiz-adv-x="390" 
d="M470 730l-28 -130h-330l28 130h330z" />
    <glyph glyph-name="degree" unicode="&#xb0;" horiz-adv-x="400" 
d="M279 611q-23 0 -43 -19t-20 -44q0 -21 14 -35t35 -14q25 0 44.5 19t19.5 44q0 21 -14 35t-36 14zM440 566q0 -65 -56 -115.5t-127 -50.5q-65 0 -109 42.5t-44 100.5q0 65 55 116t128 51q66 0 109.5 -43t43.5 -101z" />
    <glyph glyph-name="plusminus" unicode="&#xb1;" horiz-adv-x="530" 
d="M215 330h-155l33 155h155l30 145h150l-30 -145h155l-33 -155h-155l-31 -145h-150zM-10 0l29 140h460l-29 -140h-460z" />
    <glyph glyph-name="twosuperior" unicode="&#xb2;" horiz-adv-x="340" 
d="M414 709q0 -35 -16.5 -62t-37 -41t-48.5 -31.5t-40 -29.5h103l-22 -105h-275q10 49 35 86t53.5 57.5t55.5 36t44.5 30t17.5 30.5q0 20 -25 20q-11 0 -22.5 -8t-16.5 -16l-6 -7l-86 39q2 4 6 10.5t18 23t30.5 29.5t45 23.5t59.5 10.5q57 0 92 -27.5t35 -68.5z" />
    <glyph glyph-name="threesuperior" unicode="&#xb3;" horiz-adv-x="345" 
d="M343 626q5 -2 12.5 -6t20 -21t12.5 -39q0 -52 -45 -88.5t-117 -36.5q-48 0 -84.5 16.5t-48.5 32.5l-12 16l71 62q26 -32 71 -32q18 0 30 10.5t12 23.5q0 26 -41 26h-34l17 80h35q40 0 40 26q0 19 -32 19q-13 0 -28.5 -7.5t-23.5 -14.5l-9 -7l-45 64q5 6 15 15t47.5 24.5
t81.5 15.5q55 0 89 -28.5t34 -63.5q0 -11 -2.5 -20.5t-6.5 -17.5t-9 -14.5t-11 -11.5t-11.5 -9t-10.5 -6.5t-9 -4t-6 -2.5z" />
    <glyph glyph-name="acute" unicode="&#xb4;" horiz-adv-x="325" 
d="M99 550l118 161h184l-155 -161h-147z" />
    <glyph glyph-name="mu" unicode="&#xb5;" horiz-adv-x="615" 
d="M599 490l-67 -315q-8 -30 23 -30l21 5l-30 -145q-27 -15 -67 -15q-47 0 -74 19t-31 37l-4 19q-3 -3 -8.5 -8t-24 -18t-38.5 -23t-50.5 -18t-61.5 -8h-10l-42 -200h-170l149 700h170l-56 -260q-7 -36 9.5 -58t47.5 -22t56.5 25t34.5 65l53 250h170z" />
    <glyph glyph-name="paragraph" unicode="&#xb6;" horiz-adv-x="670" 
d="M153 -100l90 420q-66 0 -110 49.5t-44 114.5q0 86 72.5 151t161.5 65h370l-170 -800h-150l134 630h-70l-134 -630h-150z" />
    <glyph glyph-name="periodcentered" unicode="&#xb7;" horiz-adv-x="210" 
d="M15 239q0 39 31 70t75 31q39 0 63.5 -23.5t24.5 -56.5q0 -40 -31.5 -70t-73.5 -30q-40 0 -64.5 22.5t-24.5 56.5z" />
    <glyph glyph-name="cedilla" unicode="&#xb8;" horiz-adv-x="310" 
d="M89 20h82l-47 -65q3 0 9 -1.5t20 -7t25 -13t20 -23t9 -35.5q0 -53 -38.5 -86.5t-102.5 -33.5q-33 0 -63.5 12.5t-44.5 24.5l-14 13l52 64q24 -29 59 -29q42 0 42 31q0 19 -27 19l-25 -5l-23 35z" />
    <glyph glyph-name="onesuperior" unicode="&#xb9;" horiz-adv-x="240" 
d="M220 800h105l-77 -360h-120l48 225h-60l18 85q23 2 44.5 14.5t31.5 23.5z" />
    <glyph glyph-name="ordmasculine" unicode="&#xba;" horiz-adv-x="400" 
d="M207 534q0 -23 16.5 -38.5t40.5 -15.5q27 0 47 20t20 49q0 22 -15 36.5t-41 14.5q-27 0 -47.5 -19t-20.5 -47zM251 370q-62 0 -111 45t-49 111q0 72 61 128t136 56q68 0 114 -46.5t46 -109.5q0 -72 -60.5 -128t-136.5 -56z" />
    <glyph glyph-name="guillemotright" unicode="&#xbb;" horiz-adv-x="595" 
d="M-3 60l176 187l-87 173h154l91 -180l-168 -180h-166zM232 60l176 187l-87 173h154l91 -180l-168 -180h-166z" />
    <glyph glyph-name="onequarter" unicode="&#xbc;" horiz-adv-x="750" 
d="M25 0l578 700h165l-577 -700h-166zM209 700h105l-77 -360h-120l48 225h-60l18 85q23 2 44.5 14.5t31.5 23.5zM727 360l-42 -195h35l-21 -100h-35l-14 -65h-115l14 65h-155l20 95l190 200h123zM520 160h54l17 80z" />
    <glyph glyph-name="onehalf" unicode="&#xbd;" horiz-adv-x="790" 
d="M25 0l578 700h165l-577 -700h-166zM209 700h105l-77 -360h-120l48 225h-60l18 85q23 2 44.5 14.5t31.5 23.5zM773 269q0 -35 -16.5 -62t-37 -41t-48.5 -31.5t-40 -29.5h103l-22 -105h-275q10 49 35 86t53.5 57.5t55.5 36t44.5 30t17.5 30.5q0 20 -25 20q-11 0 -22.5 -8
t-17.5 -16l-5 -7l-86 39q2 4 6 10.5t18 23t30.5 29.5t45 23.5t59.5 10.5q57 0 92 -27.5t35 -68.5z" />
    <glyph glyph-name="threequarters" unicode="&#xbe;" horiz-adv-x="805" 
d="M80 0l578 700h165l-577 -700h-166zM781 360l-42 -195h35l-21 -100h-35l-14 -65h-115l14 65h-155l20 95l190 200h123zM574 160h54l17 80zM317 526q5 -2 12.5 -6t20 -21t12.5 -39q0 -52 -45 -88.5t-117 -36.5q-48 0 -84.5 16.5t-48.5 32.5l-12 16l71 62q26 -32 71 -32
q18 0 30 10.5t12 23.5q0 26 -41 26h-34l17 80h35q40 0 40 26q0 19 -32 19q-13 0 -28.5 -7.5t-23.5 -14.5l-9 -7l-45 64q5 6 15 15t47.5 24.5t81.5 15.5q55 0 89 -28.5t34 -63.5q0 -11 -2.5 -20.5t-6.5 -17.5t-9 -14.5t-11 -11.5t-11.5 -9t-10.5 -6.5t-9 -4t-6 -2.5z" />
    <glyph glyph-name="questiondown" unicode="&#xbf;" horiz-adv-x="500" 
d="M379 246q0 -51 -32 -89.5t-70 -58t-70 -45t-32 -53.5q0 -19 16 -32t42 -13q33 0 59.5 15t35.5 30l10 15l144 -75q-3 -7 -9 -18.5t-30 -40.5t-53.5 -51.5t-80.5 -41t-110 -18.5q-105 0 -171 61t-66 136q0 52 23 94t57 68.5t68 48.5t60.5 45t31.5 47h175q2 -11 2 -24z
M416 421q0 -39 -31 -70t-75 -31q-39 0 -63.5 23.5t-24.5 56.5q0 40 31.5 70t73.5 30q40 0 64.5 -22.5t24.5 -56.5z" />
    <glyph glyph-name="Agrave" unicode="&#xc0;" horiz-adv-x="740" 
d="M461 300l-22 205l-108 -205h130zM479 150h-230l-81 -150h-213l413 700h210l117 -700h-197zM490 941l48 -161h-140l-85 161h177z" />
    <glyph glyph-name="Aacute" unicode="&#xc1;" horiz-adv-x="740" 
d="M461 300l-22 205l-108 -205h130zM479 150h-230l-81 -150h-213l413 700h210l117 -700h-197zM420 780l118 161h184l-155 -161h-147z" />
    <glyph glyph-name="Acircumflex" unicode="&#xc2;" horiz-adv-x="740" 
d="M461 300l-22 205l-108 -205h130zM479 150h-230l-81 -150h-213l413 700h210l117 -700h-197zM497 850l-64 -70h-163l162 160h152l96 -160h-146z" />
    <glyph glyph-name="Atilde" unicode="&#xc3;" horiz-adv-x="740" 
d="M461 300l-22 205l-108 -205h130zM479 150h-230l-81 -150h-213l413 700h210l117 -700h-197zM437 820q-35 0 -46 -50h-105q19 86 55.5 128t83.5 42q36 0 69.5 -25t47.5 -25q35 0 46 50h105q-37 -170 -138 -170q-36 0 -70 25t-48 25z" />
    <glyph glyph-name="Adieresis" unicode="&#xc4;" horiz-adv-x="740" 
d="M461 300l-22 205l-108 -205h130zM479 150h-230l-81 -150h-213l413 700h210l117 -700h-197zM297 848q0 35 30 63.5t67 28.5q32 0 54 -23t22 -54q0 -36 -30 -64.5t-67 -28.5q-32 0 -54 23.5t-22 54.5zM527 848q0 35 30 63.5t67 28.5q32 0 54 -23t22 -54q0 -36 -30 -64.5
t-67 -28.5q-32 0 -54 23.5t-22 54.5z" />
    <glyph glyph-name="Aring" unicode="&#xc5;" horiz-adv-x="740" 
d="M461 300l-22 205l-108 -205h130zM479 150h-230l-81 -150h-213l413 700h210l117 -700h-197zM499 910q-18 0 -30.5 -13t-12.5 -34q0 -33 39 -33q17 0 30.5 13t13.5 33q0 34 -40 34zM630 879q0 -52 -43.5 -90.5t-99.5 -38.5q-55 0 -89 31.5t-34 77.5q0 53 42.5 92t100.5 39
q55 0 89 -32.5t34 -78.5z" />
    <glyph glyph-name="AE" unicode="&#xc6;" horiz-adv-x="1020" 
d="M644 160h325l-34 -160h-515l32 155h-214l-117 -155h-206l538 700h620l-34 -160h-315l-23 -110h235l-32 -150h-235zM530 540l-174 -230h129l49 230h-4z" />
    <glyph glyph-name="Ccedilla" unicode="&#xc7;" horiz-adv-x="750" 
d="M495 550q-98 0 -169.5 -70t-71.5 -170q0 -69 46 -114.5t119 -45.5q34 0 67 10t56.5 24t42 28.5t27.5 24.5l10 10l88 -127q-4 -6 -13 -15t-38.5 -33t-63 -42t-87 -33.5t-109.5 -16.5l-18 -25q3 0 9 -1.5t20 -7t25 -13t20 -23t9 -35.5q0 -53 -38.5 -86.5t-102.5 -33.5
q-33 0 -63.5 12.5t-44.5 24.5l-14 13l52 64q24 -29 59 -29q42 0 42 31q0 19 -27 19l-25 -5l-23 35l45 67q-116 23 -189.5 112.5t-73.5 200.5q0 172 132.5 296t317.5 124q56 0 106.5 -14.5t83 -35t57 -41t34.5 -35.5l11 -14l-135 -114q-2 3 -6.5 9t-20 20.5t-34 25.5t-49 20
t-63.5 9z" />
    <glyph glyph-name="Egrave" unicode="&#xc8;" horiz-adv-x="670" 
d="M259 160h360l-34 -160h-550l148 700h540l-34 -160h-350l-23 -110h270l-32 -150h-270zM491 941l48 -161h-140l-85 161h177z" />
    <glyph glyph-name="Eacute" unicode="&#xc9;" horiz-adv-x="670" 
d="M259 160h360l-34 -160h-550l148 700h540l-34 -160h-350l-23 -110h270l-32 -150h-270zM379 780l118 161h184l-155 -161h-147z" />
    <glyph glyph-name="Ecircumflex" unicode="&#xca;" horiz-adv-x="670" 
d="M259 160h360l-34 -160h-550l148 700h540l-34 -160h-350l-23 -110h270l-32 -150h-270zM491 850l-64 -70h-163l162 160h152l96 -160h-146z" />
    <glyph glyph-name="Edieresis" unicode="&#xcb;" horiz-adv-x="670" 
d="M259 160h360l-34 -160h-550l148 700h540l-34 -160h-350l-23 -110h270l-32 -150h-270zM287 848q0 35 30 63.5t67 28.5q32 0 54 -23t22 -54q0 -36 -30 -64.5t-67 -28.5q-32 0 -54 23.5t-22 54.5zM517 848q0 35 30 63.5t67 28.5q32 0 54 -23t22 -54q0 -36 -30 -64.5
t-67 -28.5q-32 0 -54 23.5t-22 54.5z" />
    <glyph glyph-name="Igrave" unicode="&#xcc;" horiz-adv-x="350" 
d="M35 0l148 700h190l-148 -700h-190zM302 941l48 -161h-140l-85 161h177z" />
    <glyph glyph-name="Iacute" unicode="&#xcd;" horiz-adv-x="350" 
d="M35 0l148 700h190l-148 -700h-190zM213 780l118 161h184l-155 -161h-147z" />
    <glyph glyph-name="Icircumflex" unicode="&#xce;" horiz-adv-x="350" 
d="M35 0l148 700h190l-148 -700h-190zM308 850l-64 -70h-163l162 160h152l96 -160h-146z" />
    <glyph glyph-name="Idieresis" unicode="&#xcf;" horiz-adv-x="350" 
d="M35 0l148 700h190l-148 -700h-190zM104 848q0 35 30 63.5t67 28.5q32 0 54 -23t22 -54q0 -36 -30 -64.5t-67 -28.5q-32 0 -54 23.5t-22 54.5zM334 848q0 35 30 63.5t67 28.5q32 0 54 -23t22 -54q0 -36 -30 -64.5t-67 -28.5q-32 0 -54 23.5t-22 54.5z" />
    <glyph glyph-name="Eth" unicode="&#xd0;" horiz-adv-x="780" 
d="M203 700h255q137 0 228 -90t91 -213q0 -169 -125.5 -283t-305.5 -114h-291l59 280h-75l30 140h74zM433 530h-76l-24 -110h116l-30 -140h-115l-23 -110h78q84 0 154 62.5t70 153.5q0 62 -41.5 103t-108.5 41z" />
    <glyph glyph-name="Ntilde" unicode="&#xd1;" horiz-adv-x="815" 
d="M648 700h190l-148 -700h-161l-222 390l-82 -390h-190l148 700h162l220 -390zM477 820q-35 0 -46 -50h-105q19 86 55.5 128t83.5 42q36 0 69.5 -25t47.5 -25q35 0 46 50h105q-37 -170 -138 -170q-36 0 -70 25t-48 25z" />
    <glyph glyph-name="Ograve" unicode="&#xd2;" horiz-adv-x="860" 
d="M481 550q-89 0 -155.5 -67t-66.5 -158q0 -75 50 -125t128 -50q88 0 155 65t67 160q0 74 -50 124.5t-128 50.5zM857 387q0 -105 -59 -199t-157.5 -151t-208.5 -57q-159 0 -265 98t-106 235q0 162 128 284.5t297 122.5q159 0 265 -98t106 -235zM536 941l48 -161h-140
l-85 161h177z" />
    <glyph glyph-name="Oacute" unicode="&#xd3;" horiz-adv-x="860" 
d="M481 550q-89 0 -155.5 -67t-66.5 -158q0 -75 50 -125t128 -50q88 0 155 65t67 160q0 74 -50 124.5t-128 50.5zM857 387q0 -105 -59 -199t-157.5 -151t-208.5 -57q-159 0 -265 98t-106 235q0 162 128 284.5t297 122.5q159 0 265 -98t106 -235zM431 780l118 161h184
l-155 -161h-147z" />
    <glyph glyph-name="Ocircumflex" unicode="&#xd4;" horiz-adv-x="860" 
d="M481 550q-89 0 -155.5 -67t-66.5 -158q0 -75 50 -125t128 -50q88 0 155 65t67 160q0 74 -50 124.5t-128 50.5zM857 387q0 -105 -59 -199t-157.5 -151t-208.5 -57q-159 0 -265 98t-106 235q0 162 128 284.5t297 122.5q159 0 265 -98t106 -235zM543 850l-64 -70h-163
l162 160h152l96 -160h-146z" />
    <glyph glyph-name="Otilde" unicode="&#xd5;" horiz-adv-x="860" 
d="M481 550q-89 0 -155.5 -67t-66.5 -158q0 -75 50 -125t128 -50q88 0 155 65t67 160q0 74 -50 124.5t-128 50.5zM857 387q0 -105 -59 -199t-157.5 -151t-208.5 -57q-159 0 -265 98t-106 235q0 162 128 284.5t297 122.5q159 0 265 -98t106 -235zM486 825q-35 0 -46 -50h-105
q19 86 55.5 128t83.5 42q36 0 69.5 -25t47.5 -25q35 0 46 50h105q-37 -170 -138 -170q-36 0 -70 25t-48 25z" />
    <glyph glyph-name="Odieresis" unicode="&#xd6;" horiz-adv-x="860" 
d="M481 550q-89 0 -155.5 -67t-66.5 -158q0 -75 50 -125t128 -50q88 0 155 65t67 160q0 74 -50 124.5t-128 50.5zM857 387q0 -105 -59 -199t-157.5 -151t-208.5 -57q-159 0 -265 98t-106 235q0 162 128 284.5t297 122.5q159 0 265 -98t106 -235zM332 848q0 35 30 63.5
t67 28.5q32 0 54 -23t22 -54q0 -36 -30 -64.5t-67 -28.5q-32 0 -54 23.5t-22 54.5zM562 848q0 35 30 63.5t67 28.5q32 0 54 -23t22 -54q0 -36 -30 -64.5t-67 -28.5q-32 0 -54 23.5t-22 54.5z" />
    <glyph glyph-name="multiply" unicode="&#xd7;" horiz-adv-x="510" 
d="M37 196l138 114l-98 125l113 94l95 -120l146 121l85 -104l-141 -116l100 -126l-113 -94l-95 120l-145 -120z" />
    <glyph glyph-name="Oslash" unicode="&#xd8;" horiz-adv-x="860" 
d="M857 387q0 -105 -59 -199t-157.5 -151t-208.5 -57q-139 0 -240 77l-118 -94l-78 99l111 88q-46 75 -46 163q0 162 128 284.5t297 122.5q139 0 240 -77l119 94l78 -99l-112 -89q46 -78 46 -162zM659 375q0 22 -7 48l-311 -248q42 -25 96 -25q88 0 155 65t67 160zM481 550
q-89 0 -155.5 -67t-66.5 -158q0 -25 6 -49l312 248q-44 26 -96 26z" />
    <glyph glyph-name="Ugrave" unicode="&#xd9;" horiz-adv-x="790" 
d="M389 150q52 0 95.5 40t56.5 100l87 410h190l-87 -410q-29 -135 -125 -222.5t-231 -87.5q-141 0 -226 90.5t-58 219.5l87 410h190l-87 -410q-12 -59 21 -99.5t87 -40.5zM523 941l48 -161h-140l-85 161h177z" />
    <glyph glyph-name="Uacute" unicode="&#xda;" horiz-adv-x="790" 
d="M389 150q52 0 95.5 40t56.5 100l87 410h190l-87 -410q-29 -135 -125 -222.5t-231 -87.5q-141 0 -226 90.5t-58 219.5l87 410h190l-87 -410q-12 -59 21 -99.5t87 -40.5zM433 780l118 161h184l-155 -161h-147z" />
    <glyph glyph-name="Ucircumflex" unicode="&#xdb;" horiz-adv-x="790" 
d="M389 150q52 0 95.5 40t56.5 100l87 410h190l-87 -410q-29 -135 -125 -222.5t-231 -87.5q-141 0 -226 90.5t-58 219.5l87 410h190l-87 -410q-12 -59 21 -99.5t87 -40.5zM523 850l-64 -70h-163l162 160h152l96 -160h-146z" />
    <glyph glyph-name="Udieresis" unicode="&#xdc;" horiz-adv-x="790" 
d="M389 150q52 0 95.5 40t56.5 100l87 410h190l-87 -410q-29 -135 -125 -222.5t-231 -87.5q-141 0 -226 90.5t-58 219.5l87 410h190l-87 -410q-12 -59 21 -99.5t87 -40.5zM322 848q0 35 30 63.5t67 28.5q32 0 54 -23t22 -54q0 -36 -30 -64.5t-67 -28.5q-32 0 -54 23.5
t-22 54.5zM552 848q0 35 30 63.5t67 28.5q32 0 54 -23t22 -54q0 -36 -30 -64.5t-67 -28.5q-32 0 -54 23.5t-22 54.5z" />
    <glyph glyph-name="Yacute" unicode="&#xdd;" horiz-adv-x="685" 
d="M573 700h215l-345 -450l-53 -250h-190l53 250l-155 450h195l84 -270zM363 780l118 161h184l-155 -161h-147z" />
    <glyph glyph-name="Thorn" unicode="&#xde;" horiz-adv-x="685" 
d="M362 645h47q118 0 195.5 -74t77.5 -173q0 -135 -106.5 -229t-260.5 -94h-75l-20 -95h-190l158 740h190zM329 490l-56 -260h29q90 0 139 42t49 117q0 46 -35.5 73.5t-104.5 27.5h-21z" />
    <glyph glyph-name="germandbls" unicode="&#xdf;" horiz-adv-x="625" 
d="M496 380l10 -5t22 -15.5t28 -27.5t22 -40t10 -53q0 -101 -81.5 -170t-207.5 -69h-54l32 155h47q35 0 59.5 23t24.5 54q0 24 -17.5 41t-42.5 17h-42l31 145h13q33 0 57 21.5t24 47.5q0 23 -17 39.5t-43 16.5q-31 0 -53.5 -20.5t-29.5 -54.5l-103 -485h-170l103 485
q22 103 95.5 164t186.5 61q90 0 147 -49.5t57 -116.5q0 -24 -6 -46.5t-16 -38.5t-21.5 -29.5t-23 -22.5t-21.5 -15.5t-15 -9.5z" />
    <glyph glyph-name="agrave" unicode="&#xe0;" horiz-adv-x="636" 
d="M291 140q47 0 81 37t34 86q0 36 -24.5 61.5t-57.5 25.5q-44 0 -78.5 -36t-34.5 -89q0 -35 24 -60t56 -25zM442 424l14 66h170l-104 -490h-170l11 54q-2 -3 -6 -7t-17 -15t-28.5 -19.5t-40 -15.5t-51.5 -7q-77 0 -132.5 60t-55.5 146q0 131 83 217.5t189 86.5
q27 0 51.5 -8t39.5 -19t26 -22t16 -19zM383 716l48 -161h-140l-85 161h177z" />
    <glyph glyph-name="aacute" unicode="&#xe1;" horiz-adv-x="636" 
d="M291 140q47 0 81 37t34 86q0 36 -24.5 61.5t-57.5 25.5q-44 0 -78.5 -36t-34.5 -89q0 -35 24 -60t56 -25zM442 424l14 66h170l-104 -490h-170l11 54q-2 -3 -6 -7t-17 -15t-28.5 -19.5t-40 -15.5t-51.5 -7q-77 0 -132.5 60t-55.5 146q0 131 83 217.5t189 86.5
q27 0 51.5 -8t39.5 -19t26 -22t16 -19zM281 555l118 161h184l-155 -161h-147z" />
    <glyph glyph-name="acircumflex" unicode="&#xe2;" horiz-adv-x="636" 
d="M291 140q47 0 81 37t34 86q0 36 -24.5 61.5t-57.5 25.5q-44 0 -78.5 -36t-34.5 -89q0 -35 24 -60t56 -25zM442 424l14 66h170l-104 -490h-170l11 54q-2 -3 -6 -7t-17 -15t-28.5 -19.5t-40 -15.5t-51.5 -7q-77 0 -132.5 60t-55.5 146q0 131 83 217.5t189 86.5
q27 0 51.5 -8t39.5 -19t26 -22t16 -19zM395 625l-64 -70h-163l162 160h152l96 -160h-146z" />
    <glyph glyph-name="atilde" unicode="&#xe3;" horiz-adv-x="636" 
d="M291 140q47 0 81 37t34 86q0 36 -24.5 61.5t-57.5 25.5q-44 0 -78.5 -36t-34.5 -89q0 -35 24 -60t56 -25zM442 424l14 66h170l-104 -490h-170l11 54q-2 -3 -6 -7t-17 -15t-28.5 -19.5t-40 -15.5t-51.5 -7q-77 0 -132.5 60t-55.5 146q0 131 83 217.5t189 86.5
q27 0 51.5 -8t39.5 -19t26 -22t16 -19zM333 595q-35 0 -46 -50h-105q19 86 55.5 128t83.5 42q36 0 69.5 -25t47.5 -25q35 0 46 50h105q-37 -170 -138 -170q-36 0 -70 25t-48 25z" />
    <glyph glyph-name="adieresis" unicode="&#xe4;" horiz-adv-x="636" 
d="M291 140q47 0 81 37t34 86q0 36 -24.5 61.5t-57.5 25.5q-44 0 -78.5 -36t-34.5 -89q0 -35 24 -60t56 -25zM442 424l14 66h170l-104 -490h-170l11 54q-2 -3 -6 -7t-17 -15t-28.5 -19.5t-40 -15.5t-51.5 -7q-77 0 -132.5 60t-55.5 146q0 131 83 217.5t189 86.5
q27 0 51.5 -8t39.5 -19t26 -22t16 -19zM185 623q0 35 30 63.5t67 28.5q32 0 54 -23t22 -54q0 -36 -30 -64.5t-67 -28.5q-32 0 -54 23.5t-22 54.5zM415 623q0 35 30 63.5t67 28.5q32 0 54 -23t22 -54q0 -36 -30 -64.5t-67 -28.5q-32 0 -54 23.5t-22 54.5z" />
    <glyph glyph-name="aring" unicode="&#xe5;" horiz-adv-x="636" 
d="M291 140q47 0 81 37t34 86q0 36 -24.5 61.5t-57.5 25.5q-44 0 -78.5 -36t-34.5 -89q0 -35 24 -60t56 -25zM442 424l14 66h170l-104 -490h-170l11 54q-2 -3 -6 -7t-17 -15t-28.5 -19.5t-40 -15.5t-51.5 -7q-77 0 -132.5 60t-55.5 146q0 131 83 217.5t189 86.5
q27 0 51.5 -8t39.5 -19t26 -22t16 -19zM382 695q-18 0 -30.5 -13t-12.5 -34q0 -33 39 -33q17 0 30.5 13t13.5 33q0 34 -40 34zM513 664q0 -52 -43.5 -90.5t-99.5 -38.5q-55 0 -89 31.5t-34 77.5q0 53 42.5 92t100.5 39q55 0 89 -32.5t34 -78.5z" />
    <glyph glyph-name="ae" unicode="&#xe6;" horiz-adv-x="860" 
d="M296 500q45 0 80.5 -19t47.5 -37l13 -19q8 8 23 20.5t63 33.5t98 21q92 0 155 -56t63 -139q0 -15 -2.5 -32t-6.5 -30t-8 -23.5t-6.5 -15.5t-3.5 -4h-330q0 -26 27 -50.5t72 -24.5q29 0 59 12.5t46 24.5l16 13l52 -113q-10 -8 -27.5 -20t-72.5 -32t-110 -20q-34 0 -64 9
t-48.5 21t-32.5 24.5t-20 21.5l-6 9l-9 -9t-26 -20.5t-42.5 -26t-58 -20.5t-73.5 -9q-79 0 -124 38.5t-45 91.5q0 73 62 118t180 57l97 10q2 10 2 14q0 21 -17.5 33.5t-48.5 12.5q-29 0 -57 -13t-42 -26l-14 -13l-69 95q3 4 9 10t26.5 22t43 28t58 22t71.5 10zM601 370
q-33 0 -62.5 -21.5t-44.5 -53.5h178v7q0 28 -20 48t-51 20zM205 120q38 0 67 25t37 65l-71 -5q-35 -2 -55.5 -18t-20.5 -36q0 -12 12 -21.5t31 -9.5z" />
    <glyph glyph-name="ccedilla" unicode="&#xe7;" horiz-adv-x="540" 
d="M32 209q0 118 92.5 204.5t217.5 86.5q39 0 75 -10.5t59 -25t40.5 -29t25.5 -25.5l8 -10l-118 -101q-4 6 -11 14.5t-32.5 22.5t-54.5 14q-52 0 -88.5 -35.5t-36.5 -88.5q0 -36 24.5 -61t63.5 -25q29 0 56 14t40 28l13 13l80 -108q-3 -4 -9 -10t-26.5 -22.5t-43 -29
t-58.5 -23.5t-74 -12l-25 -35q3 0 9 -1.5t20 -7t25 -13t20 -23t9 -35.5q0 -53 -38.5 -86.5t-102.5 -33.5q-33 0 -63.5 12.5t-44.5 24.5l-14 13l52 64q24 -29 59 -29q42 0 42 31q0 19 -27 19l-25 -5l-23 35l53 79q-74 21 -121.5 80t-47.5 130z" />
    <glyph glyph-name="egrave" unicode="&#xe8;" horiz-adv-x="580" 
d="M537 200h-337q7 -34 34.5 -54.5t69.5 -20.5q31 0 61 12t44 24l14 12l52 -112q-3 -3 -9 -7.5t-26.5 -17t-42.5 -22t-57.5 -17t-71.5 -7.5q-100 0 -168.5 64t-68.5 152q0 121 91.5 207.5t214.5 86.5q95 0 158.5 -56t63.5 -139q0 -52 -22 -105zM317 370q-66 0 -100 -70h176
q-1 30 -22 50t-54 20zM376 716l48 -161h-140l-85 161h177z" />
    <glyph glyph-name="eacute" unicode="&#xe9;" horiz-adv-x="580" 
d="M537 200h-337q7 -34 34.5 -54.5t69.5 -20.5q31 0 61 12t44 24l14 12l52 -112q-3 -3 -9 -7.5t-26.5 -17t-42.5 -22t-57.5 -17t-71.5 -7.5q-100 0 -168.5 64t-68.5 152q0 121 91.5 207.5t214.5 86.5q95 0 158.5 -56t63.5 -139q0 -52 -22 -105zM317 370q-66 0 -100 -70h176
q-1 30 -22 50t-54 20zM276 555l118 161h184l-155 -161h-147z" />
    <glyph glyph-name="ecircumflex" unicode="&#xea;" horiz-adv-x="580" 
d="M537 200h-337q7 -34 34.5 -54.5t69.5 -20.5q31 0 61 12t44 24l14 12l52 -112q-3 -3 -9 -7.5t-26.5 -17t-42.5 -22t-57.5 -17t-71.5 -7.5q-100 0 -168.5 64t-68.5 152q0 121 91.5 207.5t214.5 86.5q95 0 158.5 -56t63.5 -139q0 -52 -22 -105zM317 370q-66 0 -100 -70h176
q-1 30 -22 50t-54 20zM373 625l-64 -70h-163l162 160h152l96 -160h-146z" />
    <glyph glyph-name="edieresis" unicode="&#xeb;" horiz-adv-x="580" 
d="M537 200h-337q7 -34 34.5 -54.5t69.5 -20.5q31 0 61 12t44 24l14 12l52 -112q-3 -3 -9 -7.5t-26.5 -17t-42.5 -22t-57.5 -17t-71.5 -7.5q-100 0 -168.5 64t-68.5 152q0 121 91.5 207.5t214.5 86.5q95 0 158.5 -56t63.5 -139q0 -52 -22 -105zM317 370q-66 0 -100 -70h176
q-1 30 -22 50t-54 20zM166 623q0 35 30 63.5t67 28.5q32 0 54 -23t22 -54q0 -36 -30 -64.5t-67 -28.5q-32 0 -54 23.5t-22 54.5zM396 623q0 35 30 63.5t67 28.5q32 0 54 -23t22 -54q0 -36 -30 -64.5t-67 -28.5q-32 0 -54 23.5t-22 54.5z" />
    <glyph glyph-name="igrave" unicode="&#xec;" horiz-adv-x="300" 
d="M235 716l48 -161h-140l-85 161h177zM289 490l-104 -490h-170l104 490h170z" />
    <glyph glyph-name="iacute" unicode="&#xed;" horiz-adv-x="300" 
d="M141 555l118 161h184l-155 -161h-147zM289 490l-104 -490h-170l104 490h170z" />
    <glyph glyph-name="icircumflex" unicode="&#xee;" horiz-adv-x="300" 
d="M289 490l-104 -490h-170l104 490h170zM229 625l-64 -70h-163l162 160h152l96 -160h-146z" />
    <glyph glyph-name="idieresis" unicode="&#xef;" horiz-adv-x="300" 
d="M30 623q0 35 30 63.5t67 28.5q32 0 54 -23t22 -54q0 -36 -30 -64.5t-67 -28.5q-32 0 -54 23.5t-22 54.5zM260 623q0 35 30 63.5t67 28.5q32 0 54 -23t22 -54q0 -36 -30 -64.5t-67 -28.5q-32 0 -54 23.5t-22 54.5zM289 490l-104 -490h-170l104 490h170z" />
    <glyph glyph-name="eth" unicode="&#xf0;" 
d="M434 413q-3 41 -19.5 77.5t-30.5 53.5l-15 16l-119 -65l-46 90l57 35q-37 15 -74 25l66 125q51 -13 91.5 -28t55.5 -24l15 -8l126 75l51 -90l-91 -55l8.5 -11t20 -31.5t25 -51.5t19.5 -69.5t9 -86.5q0 -187 -94 -293.5t-236 -106.5q-96 0 -163 65t-67 148
q0 110 82.5 188.5t188.5 78.5q27 0 51.5 -6t40 -14t27 -16.5t16.5 -14.5zM271 140q41 0 72.5 32.5t31.5 75.5q0 30 -20 51t-49 21q-39 0 -72 -32t-33 -75q0 -31 20.5 -52t49.5 -21z" />
    <glyph glyph-name="ntilde" unicode="&#xf1;" 
d="M284 490l-12 -55q6 7 17.5 18t49 29t77.5 18q67 0 109 -42.5t42 -113.5q0 -26 -6 -54l-61 -290h-170l55 260q2 14 2 19q0 28 -17.5 44.5t-43.5 16.5q-34 0 -59.5 -27.5t-35.5 -72.5l-51 -240h-170l104 490h170zM334 595q-35 0 -46 -50h-105q19 86 55.5 128t83.5 42
q36 0 69.5 -25t47.5 -25q35 0 46 50h105q-37 -170 -138 -170q-36 0 -70 25t-48 25z" />
    <glyph glyph-name="ograve" unicode="&#xf2;" 
d="M321 350q-44 0 -78 -37.5t-34 -83.5q0 -38 23.5 -63.5t59.5 -25.5q42 0 77 36.5t35 85.5q0 39 -23.5 63.5t-59.5 24.5zM582 267q0 -110 -89.5 -193.5t-206.5 -83.5q-111 0 -182.5 69.5t-71.5 164.5q0 109 89 192.5t207 83.5q111 0 182.5 -69t71.5 -164zM380 716l48 -161
h-140l-85 161h177z" />
    <glyph glyph-name="oacute" unicode="&#xf3;" 
d="M321 350q-44 0 -78 -37.5t-34 -83.5q0 -38 23.5 -63.5t59.5 -25.5q42 0 77 36.5t35 85.5q0 39 -23.5 63.5t-59.5 24.5zM582 267q0 -110 -89.5 -193.5t-206.5 -83.5q-111 0 -182.5 69.5t-71.5 164.5q0 109 89 192.5t207 83.5q111 0 182.5 -69t71.5 -164zM283 555l118 161
h184l-155 -161h-147z" />
    <glyph glyph-name="ocircumflex" unicode="&#xf4;" 
d="M321 350q-44 0 -78 -37.5t-34 -83.5q0 -38 23.5 -63.5t59.5 -25.5q42 0 77 36.5t35 85.5q0 39 -23.5 63.5t-59.5 24.5zM582 267q0 -110 -89.5 -193.5t-206.5 -83.5q-111 0 -182.5 69.5t-71.5 164.5q0 109 89 192.5t207 83.5q111 0 182.5 -69t71.5 -164zM371 625l-64 -70
h-163l162 160h152l96 -160h-146z" />
    <glyph glyph-name="otilde" unicode="&#xf5;" 
d="M321 350q-44 0 -78 -37.5t-34 -83.5q0 -38 23.5 -63.5t59.5 -25.5q42 0 77 36.5t35 85.5q0 39 -23.5 63.5t-59.5 24.5zM582 267q0 -110 -89.5 -193.5t-206.5 -83.5q-111 0 -182.5 69.5t-71.5 164.5q0 109 89 192.5t207 83.5q111 0 182.5 -69t71.5 -164zM309 595
q-35 0 -46 -50h-105q19 86 55.5 128t83.5 42q36 0 69.5 -25t47.5 -25q35 0 46 50h105q-37 -170 -138 -170q-36 0 -70 25t-48 25z" />
    <glyph glyph-name="odieresis" unicode="&#xf6;" 
d="M321 350q-44 0 -78 -37.5t-34 -83.5q0 -38 23.5 -63.5t59.5 -25.5q42 0 77 36.5t35 85.5q0 39 -23.5 63.5t-59.5 24.5zM582 267q0 -110 -89.5 -193.5t-206.5 -83.5q-111 0 -182.5 69.5t-71.5 164.5q0 109 89 192.5t207 83.5q111 0 182.5 -69t71.5 -164zM172 623
q0 35 30 63.5t67 28.5q32 0 54 -23t22 -54q0 -36 -30 -64.5t-67 -28.5q-32 0 -54 23.5t-22 54.5zM402 623q0 35 30 63.5t67 28.5q32 0 54 -23t22 -54q0 -36 -30 -64.5t-67 -28.5q-32 0 -54 23.5t-22 54.5z" />
    <glyph glyph-name="divide" unicode="&#xf7;" horiz-adv-x="530" 
d="M226 480q0 36 31.5 62.5t72.5 26.5q39 0 64 -23.5t25 -54.5q0 -37 -30 -64t-74 -27q-40 0 -64.5 24t-24.5 56zM525 355l-26 -120h-460l26 120h460zM145 100q0 36 31.5 62.5t72.5 26.5q39 0 64 -23.5t25 -54.5q0 -37 -30 -64t-74 -27q-40 0 -64.5 24t-24.5 56z" />
    <glyph glyph-name="oslash" unicode="&#xf8;" 
d="M582 267q0 -110 -90.5 -193.5t-205.5 -83.5q-81 0 -147 42l-87 -74l-65 84l78 67q-33 53 -33 115q0 109 89.5 192.5t206.5 83.5q80 0 146 -42l87 74l65 -84l-77 -66q33 -55 33 -115zM292 140q41 0 76 35t36 83l-135 -115q11 -3 23 -3zM321 350q-43 0 -77 -36.5t-35 -81.5
l135 115q-12 3 -23 3z" />
    <glyph glyph-name="ugrave" unicode="&#xf9;" horiz-adv-x="615" 
d="M330 0l10 50q-6 -7 -16.5 -17t-46.5 -26.5t-76 -16.5q-69 0 -112.5 42t-43.5 112q0 24 6 51l63 295h170l-57 -265q-2 -12 -2 -17q0 -27 16 -42.5t43 -15.5q34 0 61 24.5t36 65.5l53 250h170l-104 -490h-170zM386 716l48 -161h-140l-85 161h177z" />
    <glyph glyph-name="uacute" unicode="&#xfa;" horiz-adv-x="615" 
d="M330 0l10 50q-6 -7 -16.5 -17t-46.5 -26.5t-76 -16.5q-69 0 -112.5 42t-43.5 112q0 24 6 51l63 295h170l-57 -265q-2 -12 -2 -17q0 -27 16 -42.5t43 -15.5q34 0 61 24.5t36 65.5l53 250h170l-104 -490h-170zM286 555l118 161h184l-155 -161h-147z" />
    <glyph glyph-name="ucircumflex" unicode="&#xfb;" horiz-adv-x="615" 
d="M330 0l10 50q-6 -7 -16.5 -17t-46.5 -26.5t-76 -16.5q-69 0 -112.5 42t-43.5 112q0 24 6 51l63 295h170l-57 -265q-2 -12 -2 -17q0 -27 16 -42.5t43 -15.5q34 0 61 24.5t36 65.5l53 250h170l-104 -490h-170zM380 625l-64 -70h-163l162 160h152l96 -160h-146z" />
    <glyph glyph-name="udieresis" unicode="&#xfc;" horiz-adv-x="615" 
d="M330 0l10 50q-6 -7 -16.5 -17t-46.5 -26.5t-76 -16.5q-69 0 -112.5 42t-43.5 112q0 24 6 51l63 295h170l-57 -265q-2 -12 -2 -17q0 -27 16 -42.5t43 -15.5q34 0 61 24.5t36 65.5l53 250h170l-104 -490h-170zM174 623q0 35 30 63.5t67 28.5q32 0 54 -23t22 -54
q0 -36 -30 -64.5t-67 -28.5q-32 0 -54 23.5t-22 54.5zM404 623q0 35 30 63.5t67 28.5q32 0 54 -23t22 -54q0 -36 -30 -64.5t-67 -28.5q-32 0 -54 23.5t-22 54.5z" />
    <glyph glyph-name="yacute" unicode="&#xfd;" horiz-adv-x="540" 
d="M113 -10l18 24l-77 476h172l31 -285l151 285h186l-289 -490q-65 -110 -125 -160t-130 -50q-24 0 -48 4t-36 8l-12 3l31 150q19 -10 49 -10q48 0 79 45zM244 555l118 161h184l-155 -161h-147z" />
    <glyph glyph-name="thorn" unicode="&#xfe;" horiz-adv-x="640" 
d="M354 350q-47 0 -81 -37t-34 -86q0 -36 24.5 -61.5t57.5 -25.5q44 0 78.5 36t34.5 89q0 35 -24 60t-56 25zM203 66l-58 -276h-170l193 910h170l-56 -264q2 3 6 7t17 15t28.5 19.5t40 15.5t51.5 7q77 0 132.5 -60t55.5 -146q0 -131 -83 -217.5t-189 -86.5q-27 0 -51.5 8
t-39.5 19t-26 22t-16 19z" />
    <glyph glyph-name="ydieresis" unicode="&#xff;" horiz-adv-x="540" 
d="M113 -10l18 24l-77 476h172l31 -285l151 285h186l-289 -490q-65 -110 -125 -160t-130 -50q-24 0 -48 4t-36 8l-12 3l31 150q19 -10 49 -10q48 0 79 45zM139 623q0 35 30 63.5t67 28.5q32 0 54 -23t22 -54q0 -36 -30 -64.5t-67 -28.5q-32 0 -54 23.5t-22 54.5zM369 623
q0 35 30 63.5t67 28.5q32 0 54 -23t22 -54q0 -36 -30 -64.5t-67 -28.5q-32 0 -54 23.5t-22 54.5z" />
    <glyph glyph-name="Amacron" unicode="&#x100;" horiz-adv-x="740" 
d="M461 300l-22 205l-108 -205h130zM479 150h-230l-81 -150h-213l413 700h210l117 -700h-197zM676 935l-28 -130h-330l28 130h330z" />
    <glyph glyph-name="amacron" unicode="&#x101;" horiz-adv-x="636" 
d="M291 140q47 0 81 37t34 86q0 36 -24.5 61.5t-57.5 25.5q-44 0 -78.5 -36t-34.5 -89q0 -35 24 -60t56 -25zM442 424l14 66h170l-104 -490h-170l11 54q-2 -3 -6 -7t-17 -15t-28.5 -19.5t-40 -15.5t-51.5 -7q-77 0 -132.5 60t-55.5 146q0 131 83 217.5t189 86.5
q27 0 51.5 -8t39.5 -19t26 -22t16 -19zM566 715l-28 -130h-330l28 130h330z" />
    <glyph glyph-name="Abreve" unicode="&#x102;" horiz-adv-x="740" 
d="M461 300l-22 205l-108 -205h130zM479 150h-230l-81 -150h-213l413 700h210l117 -700h-197zM492 780q-75 0 -119 46.5t-30 113.5h120q-4 -22 7.5 -36t34.5 -14q22 0 37.5 13.5t20.5 36.5h120q-15 -70 -66.5 -115t-124.5 -45z" />
    <glyph glyph-name="abreve" unicode="&#x103;" horiz-adv-x="636" 
d="M291 140q47 0 81 37t34 86q0 36 -24.5 61.5t-57.5 25.5q-44 0 -78.5 -36t-34.5 -89q0 -35 24 -60t56 -25zM442 424l14 66h170l-104 -490h-170l11 54q-2 -3 -6 -7t-17 -15t-28.5 -19.5t-40 -15.5t-51.5 -7q-77 0 -132.5 60t-55.5 146q0 131 83 217.5t189 86.5
q27 0 51.5 -8t39.5 -19t26 -22t16 -19zM374 555q-75 0 -119 46.5t-30 113.5h120q-4 -22 7.5 -36t34.5 -14q22 0 37.5 13.5t20.5 36.5h120q-15 -70 -66.5 -115t-124.5 -45z" />
    <glyph glyph-name="Aogonek" unicode="&#x104;" horiz-adv-x="740" 
d="M498 0l-19 150h-230l-81 -150h-213l413 700h210l117 -700h-122q-53 -57 -53 -110q0 -30 33 -30q13 0 26.5 4t20.5 8l6 3l-19 -90q-39 -20 -94 -20q-46 0 -72.5 25t-26.5 64q0 18 6 35.5t15 31.5t20 26.5t22 22t20.5 16.5t14.5 10zM461 300l-22 205l-108 -205h130z" />
    <glyph glyph-name="aogonek" unicode="&#x105;" horiz-adv-x="636" 
d="M291 140q47 0 81 37t34 86q0 36 -24.5 61.5t-57.5 25.5q-44 0 -78.5 -36t-34.5 -89q0 -35 24 -60t56 -25zM352 0l11 54q-2 -3 -6 -7t-17 -15t-28.5 -19.5t-40 -15.5t-51.5 -7q-77 0 -132.5 60t-55.5 146q0 131 83 217.5t189 86.5q27 0 51.5 -8t39.5 -19t26 -22t16 -19
l5 -8l14 66h170l-104 -490h-95q-53 -57 -53 -110q0 -30 33 -30q13 0 26.5 4t20.5 8l6 3l-19 -90q-39 -20 -94 -20q-46 0 -72.5 25t-26.5 64q0 18 6 35.5t15 31.5t20 26.5t22 22t20.5 16.5t14.5 10z" />
    <glyph glyph-name="Cacute" unicode="&#x106;" horiz-adv-x="750" 
d="M495 550q-98 0 -169.5 -70t-71.5 -170q0 -69 46 -114.5t119 -45.5q34 0 67 10t56.5 24t42 28.5t27.5 24.5l10 10l88 -127l-13.5 -15.5t-39 -33.5t-64.5 -42.5t-88.5 -33.5t-111.5 -15q-142 0 -237 96t-95 224q0 172 132.5 296t317.5 124q56 0 106.5 -14.5t83 -35t57 -41
t34.5 -35.5l11 -14l-135 -114q-2 3 -6.5 9t-20 20.5t-34 25.5t-49 20t-63.5 9zM441 780l118 161h184l-155 -161h-147z" />
    <glyph glyph-name="cacute" unicode="&#x107;" horiz-adv-x="540" 
d="M32 209q0 118 92.5 204.5t217.5 86.5q39 0 75 -10.5t59 -25t40.5 -29t25.5 -25.5l8 -10l-118 -101q-4 6 -11 14.5t-32.5 22.5t-54.5 14q-52 0 -88.5 -35.5t-36.5 -88.5q0 -36 24.5 -61t63.5 -25q29 0 56 14t40 28l13 13l80 -108q-3 -4 -9.5 -10.5t-27.5 -23t-44.5 -29.5
t-61 -23.5t-76.5 -10.5q-97 0 -166 66t-69 153zM271 555l118 161h184l-155 -161h-147z" />
    <glyph glyph-name="Ccircumflex" unicode="&#x108;" horiz-adv-x="750" 
d="M495 550q-98 0 -169.5 -70t-71.5 -170q0 -69 46 -114.5t119 -45.5q34 0 67 10t56.5 24t42 28.5t27.5 24.5l10 10l88 -127l-13.5 -15.5t-39 -33.5t-64.5 -42.5t-88.5 -33.5t-111.5 -15q-142 0 -237 96t-95 224q0 172 132.5 296t317.5 124q56 0 106.5 -14.5t83 -35t57 -41
t34.5 -35.5l11 -14l-135 -114q-2 3 -6.5 9t-20 20.5t-34 25.5t-49 20t-63.5 9zM540 850l-64 -70h-163l162 160h152l96 -160h-146z" />
    <glyph glyph-name="ccircumflex" unicode="&#x109;" horiz-adv-x="540" 
d="M32 209q0 118 92.5 204.5t217.5 86.5q39 0 75 -10.5t59 -25t40.5 -29t25.5 -25.5l8 -10l-118 -101q-4 6 -11 14.5t-32.5 22.5t-54.5 14q-52 0 -88.5 -35.5t-36.5 -88.5q0 -36 24.5 -61t63.5 -25q29 0 56 14t40 28l13 13l80 -108q-3 -4 -9.5 -10.5t-27.5 -23t-44.5 -29.5
t-61 -23.5t-76.5 -10.5q-97 0 -166 66t-69 153zM373 625l-64 -70h-163l162 160h152l96 -160h-146z" />
    <glyph glyph-name="Ccaron" unicode="&#x10c;" horiz-adv-x="750" 
d="M495 550q-98 0 -169.5 -70t-71.5 -170q0 -69 46 -114.5t119 -45.5q34 0 67 10t56.5 24t42 28.5t27.5 24.5l10 10l88 -127l-13.5 -15.5t-39 -33.5t-64.5 -42.5t-88.5 -33.5t-111.5 -15q-142 0 -237 96t-95 224q0 172 132.5 296t317.5 124q56 0 106.5 -14.5t83 -35t57 -41
t34.5 -35.5l11 -14l-135 -114q-2 3 -6.5 9t-20 20.5t-34 25.5t-49 20t-63.5 9zM537 870l64 70h163l-162 -160h-152l-96 160h146z" />
    <glyph glyph-name="ccaron" unicode="&#x10d;" horiz-adv-x="540" 
d="M32 209q0 118 92.5 204.5t217.5 86.5q39 0 75 -10.5t59 -25t40.5 -29t25.5 -25.5l8 -10l-118 -101q-4 6 -11 14.5t-32.5 22.5t-54.5 14q-52 0 -88.5 -35.5t-36.5 -88.5q0 -36 24.5 -61t63.5 -25q29 0 56 14t40 28l13 13l80 -108q-3 -4 -9.5 -10.5t-27.5 -23t-44.5 -29.5
t-61 -23.5t-76.5 -10.5q-97 0 -166 66t-69 153zM361 645l64 70h163l-162 -160h-152l-96 160h146z" />
    <glyph glyph-name="Dcaron" unicode="&#x10e;" horiz-adv-x="760" 
d="M183 700h255q137 0 228 -90t91 -213q0 -169 -125.5 -283t-305.5 -114h-291zM413 530h-76l-76 -360h78q84 0 154 62.5t70 153.5q0 62 -41.5 103t-108.5 41zM458 870l64 70h163l-162 -160h-152l-96 160h146z" />
    <glyph glyph-name="dcaron" unicode="&#x10f;" horiz-adv-x="720" 
d="M289 140q47 0 81 37t34 86q0 36 -24.5 61.5t-57.5 25.5q-44 0 -78.5 -36t-34.5 -89q0 -35 24 -60t56 -25zM440 424l58 276h170l-148 -700h-170l11 54q-2 -3 -6 -7t-17 -15t-28.5 -19.5t-40 -15.5t-51.5 -7q-77 0 -132.5 60t-55.5 146q0 131 83 217.5t189 86.5
q27 0 51.5 -8t39.5 -19t26 -22t16 -19zM658 540l81 160h164l-109 -160h-136z" />
    <glyph glyph-name="Dcroat" unicode="&#x110;" horiz-adv-x="780" 
d="M203 700h255q137 0 228 -90t91 -213q0 -169 -125.5 -283t-305.5 -114h-291l59 280h-75l30 140h74zM433 530h-76l-24 -110h116l-30 -140h-115l-23 -110h78q84 0 154 62.5t70 153.5q0 62 -41.5 103t-108.5 41z" />
    <glyph glyph-name="dcroat" unicode="&#x111;" horiz-adv-x="630" 
d="M334 490l30 145h105l14 65h170l-14 -65h75l-30 -145h-75l-104 -490h-170l10 50q-6 -7 -16.5 -17t-48 -26.5t-79.5 -16.5q-74 0 -127 57.5t-53 137.5q0 117 78 196t178 79q29 0 54 -7t40.5 -17.5t26 -21t14.5 -17.5l5 -7l22 100h-105zM274 130q43 0 76.5 34t33.5 82
q0 32 -20.5 53t-52.5 21q-43 0 -77 -33.5t-34 -81.5q0 -32 21 -53.5t53 -21.5z" />
    <glyph glyph-name="Emacron" unicode="&#x112;" horiz-adv-x="670" 
d="M259 160h360l-34 -160h-550l148 700h540l-34 -160h-350l-23 -110h270l-32 -150h-270zM659 935l-28 -130h-330l28 130h330z" />
    <glyph glyph-name="emacron" unicode="&#x113;" horiz-adv-x="580" 
d="M537 200h-337q7 -34 34.5 -54.5t69.5 -20.5q31 0 61 12t44 24l14 12l52 -112q-3 -3 -9 -7.5t-26.5 -17t-42.5 -22t-57.5 -17t-71.5 -7.5q-100 0 -168.5 64t-68.5 152q0 121 91.5 207.5t214.5 86.5q95 0 158.5 -56t63.5 -139q0 -52 -22 -105zM317 370q-66 0 -100 -70h176
q-1 30 -22 50t-54 20zM544 705l-28 -130h-330l28 130h330z" />
    <glyph glyph-name="Edotaccent" unicode="&#x116;" horiz-adv-x="670" 
d="M259 160h360l-34 -160h-550l148 700h540l-34 -160h-350l-23 -110h270l-32 -150h-270zM578 870q0 -39 -31.5 -69.5t-73.5 -30.5q-40 0 -64.5 22.5t-24.5 56.5q0 41 31.5 71t74.5 30q39 0 63.5 -23.5t24.5 -56.5z" />
    <glyph glyph-name="edotaccent" unicode="&#x117;" horiz-adv-x="580" 
d="M537 200h-337q7 -34 34.5 -54.5t69.5 -20.5q31 0 61 12t44 24l14 12l52 -112q-3 -3 -9 -7.5t-26.5 -17t-42.5 -22t-57.5 -17t-71.5 -7.5q-100 0 -168.5 64t-68.5 152q0 121 91.5 207.5t214.5 86.5q95 0 158.5 -56t63.5 -139q0 -52 -22 -105zM317 370q-66 0 -100 -70h176
q-1 30 -22 50t-54 20zM468 651q0 -39 -31.5 -69.5t-73.5 -30.5q-40 0 -64.5 22.5t-24.5 56.5q0 41 31.5 71t74.5 30q39 0 63.5 -23.5t24.5 -56.5z" />
    <glyph glyph-name="Eogonek" unicode="&#x118;" horiz-adv-x="670" 
d="M510 0h-475l148 700h540l-34 -160h-350l-23 -110h270l-32 -150h-270l-25 -120h360l-34 -160q-53 -57 -53 -110q0 -30 33 -30q13 0 26.5 4t20.5 8l6 3l-19 -90q-39 -20 -94 -20q-46 0 -72.5 25t-26.5 64q0 18 6 35.5t15 31.5t20 26.5t22 22t20.5 16.5t14.5 10z" />
    <glyph glyph-name="eogonek" unicode="&#x119;" horiz-adv-x="580" 
d="M537 200h-337q7 -34 34.5 -54.5t69.5 -20.5q31 0 61 12.5t44 24.5l14 12l52 -113q-7 -7 -21.5 -17.5t-60.5 -29.5t-96 -23q-45 -55 -45 -101q0 -30 33 -30q13 0 26.5 4t20.5 8l6 3l-19 -90q-39 -20 -94 -20q-46 0 -72.5 25t-26.5 64q0 32 20 64t38.5 48t36.5 28
q-83 15 -136.5 75.5t-53.5 136.5q0 121 91.5 207.5t214.5 86.5q95 0 158.5 -56t63.5 -139q0 -52 -22 -105zM317 370q-66 0 -100 -70h176q-1 30 -22 50t-54 20z" />
    <glyph glyph-name="Ecaron" unicode="&#x11a;" horiz-adv-x="670" 
d="M259 160h360l-34 -160h-550l148 700h540l-34 -160h-350l-23 -110h270l-32 -150h-270zM475 870l64 70h163l-162 -160h-152l-96 160h146z" />
    <glyph glyph-name="ecaron" unicode="&#x11b;" horiz-adv-x="580" 
d="M537 200h-337q7 -34 34.5 -54.5t69.5 -20.5q31 0 61 12t44 24l14 12l52 -112q-3 -3 -9 -7.5t-26.5 -17t-42.5 -22t-57.5 -17t-71.5 -7.5q-100 0 -168.5 64t-68.5 152q0 121 91.5 207.5t214.5 86.5q95 0 158.5 -56t63.5 -139q0 -52 -22 -105zM317 370q-66 0 -100 -70h176
q-1 30 -22 50t-54 20zM365 645l64 70h163l-162 -160h-152l-96 160h146z" />
    <glyph glyph-name="Gbreve" unicode="&#x11e;" horiz-adv-x="810" 
d="M398 -20q-142 0 -239.5 96t-97.5 224q0 172 134 296t319 124q56 0 106.5 -14.5t82 -35t55.5 -41t34 -35.5l11 -14l-135 -114q-2 3 -6.5 9t-20.5 20.5t-34 25.5t-48 20t-62 9q-98 0 -170.5 -70.5t-72.5 -172.5q0 -68 46 -112.5t119 -44.5q36 0 67.5 11t45.5 23l14 11
l16 75h-110l25 120h300l-57 -270q-5 -6 -14.5 -15.5t-41 -33.5t-66.5 -42.5t-89.5 -33.5t-110.5 -15zM529 780q-75 0 -119 46.5t-30 113.5h120q-4 -22 7.5 -36t34.5 -14q22 0 37.5 13.5t20.5 36.5h120q-15 -70 -66.5 -115t-124.5 -45z" />
    <glyph glyph-name="gbreve" unicode="&#x11f;" horiz-adv-x="620" 
d="M351 55l7 29q-2 -3 -6.5 -7t-19 -15t-30.5 -19.5t-41.5 -15.5t-51.5 -7q-69 0 -122 59t-53 139q0 115 80 198.5t173 83.5q43 0 78.5 -19t50.5 -38l14 -19l14 66h170l-93 -435q-24 -112 -111.5 -188.5t-204.5 -76.5q-44 0 -83.5 11t-64.5 26t-44 30.5t-27 26.5l-9 11
l113 98q4 -6 12 -16t37 -26t65 -16q56 0 95.5 33t51.5 87zM318 350q-41 0 -73 -30.5t-32 -74.5q0 -31 22.5 -53t54.5 -22q43 0 74.5 31t31.5 73q0 31 -23 53.5t-55 22.5zM375 555q-75 0 -119 46.5t-30 113.5h120q-4 -22 7.5 -36t34.5 -14q22 0 37.5 13.5t20.5 36.5h120
q-15 -70 -66.5 -115t-124.5 -45z" />
    <glyph glyph-name="Gcommaaccent" unicode="&#x122;" horiz-adv-x="810" 
d="M398 -20q-142 0 -239.5 96t-97.5 224q0 172 134 296t319 124q56 0 106.5 -14.5t82 -35t55.5 -41t34 -35.5l11 -14l-135 -114q-2 3 -6.5 9t-20.5 20.5t-34 25.5t-48 20t-62 9q-98 0 -170.5 -70.5t-72.5 -172.5q0 -68 46 -112.5t119 -44.5q36 0 67.5 11t45.5 23l14 11
l16 75h-110l25 120h300l-57 -270q-5 -6 -14.5 -15.5t-41 -33.5t-66.5 -42.5t-89.5 -33.5t-110.5 -15zM227 -240l81 160h164l-109 -160h-136z" />
    <glyph glyph-name="gcommaaccent" unicode="&#x123;" horiz-adv-x="620" 
d="M351 55l7 29q-2 -3 -6.5 -7t-19 -15t-30.5 -19.5t-41.5 -15.5t-51.5 -7q-69 0 -122 59t-53 139q0 115 80 198.5t173 83.5q43 0 78.5 -19t50.5 -38l14 -19l14 66h170l-93 -435q-24 -112 -111.5 -188.5t-204.5 -76.5q-44 0 -83.5 11t-64.5 26t-44 30.5t-27 26.5l-9 11
l113 98q4 -6 12 -16t37 -26t65 -16q56 0 95.5 33t51.5 87zM318 350q-41 0 -73 -30.5t-32 -74.5q0 -31 22.5 -53t54.5 -22q43 0 74.5 31t31.5 73q0 31 -23 53.5t-55 22.5zM511 715l-82 -160h-164l107 160h139z" />
    <glyph glyph-name="Imacron" unicode="&#x12a;" horiz-adv-x="350" 
d="M35 0l148 700h190l-148 -700h-190zM487 935l-28 -130h-330l28 130h330z" />
    <glyph glyph-name="imacron" unicode="&#x12b;" horiz-adv-x="300" 
d="M408 705l-28 -130h-330l28 130h330zM289 490l-104 -490h-170l104 490h170z" />
    <glyph glyph-name="Iogonek" unicode="&#x12e;" horiz-adv-x="350" 
d="M35 0l148 700h190l-148 -700h-115q-53 -57 -53 -110q0 -30 33 -30q13 0 26.5 4t19.5 8l7 3l-19 -90q-39 -20 -94 -20q-46 0 -72.5 25t-26.5 64q0 18 6 35.5t15 31.5t20 26.5t22 22t20.5 16.5t15.5 10z" />
    <glyph glyph-name="iogonek" unicode="&#x12f;" horiz-adv-x="300" 
d="M15 0l104 490h170l-104 -490h-95q-53 -57 -53 -110q0 -30 33 -30q13 0 26.5 4t19.5 8l7 3l-19 -90q-39 -20 -94 -20q-46 0 -72.5 25t-26.5 64q0 18 6 35.5t15 31.5t20 26.5t22 22t20.5 16.5t15.5 10zM135 624q0 39 31 70t75 31q39 0 63.5 -23.5t24.5 -56.5
q0 -40 -31.5 -70t-73.5 -30q-40 0 -64.5 22.5t-24.5 56.5z" />
    <glyph glyph-name="Idotaccent" unicode="&#x130;" horiz-adv-x="350" 
d="M35 0l148 700h190l-148 -700h-190zM403 870q0 -39 -31.5 -69.5t-73.5 -30.5q-40 0 -64.5 22.5t-24.5 56.5q0 41 31.5 71t74.5 30q39 0 63.5 -23.5t24.5 -56.5z" />
    <glyph glyph-name="dotlessi" unicode="&#x131;" horiz-adv-x="300" 
d="M289 490l-104 -490h-170l104 490h170z" />
    <glyph glyph-name="i_j" unicode="&#x133;" horiz-adv-x="605" 
d="M351 150l73 340h170l-110 -515q-21 -95 -71.5 -140t-142.5 -45q-24 0 -49.5 4t-38.5 8l-14 3l29 135q20 -10 40 -10q38 0 57 18.5t29 66.5q-47 -20 -109 -20q-76 0 -119.5 40t-43.5 110q0 27 6 55l62 290h170l-61 -285q-5 -30 8.5 -50t47.5 -20q16 0 32.5 3.5t25.5 7.5z
M135 624q0 39 31 70t75 31q39 0 63.5 -23.5t24.5 -56.5q0 -40 -31.5 -70t-73.5 -30q-40 0 -64.5 22.5t-24.5 56.5zM439 624q0 39 31 70t75 31q39 0 63.5 -23.5t24.5 -56.5q0 -40 -31.5 -70t-73.5 -30q-40 0 -64.5 22.5t-24.5 56.5z" />
    <glyph glyph-name="Kcommaaccent" unicode="&#x136;" horiz-adv-x="730" 
d="M364 268l-102 -93l-37 -175h-190l148 700h190l-55 -259l270 259h235l-311 -296l183 -404h-210zM186 -240l81 160h164l-109 -160h-136z" />
    <glyph glyph-name="kcommaaccent" unicode="&#x137;" horiz-adv-x="575" 
d="M404 277l126 -277h-181l-79 175l-60 -54l-25 -121h-170l148 700h170l-79 -374l173 164h202zM103 -240l81 160h164l-109 -160h-136z" />
    <glyph glyph-name="Lacute" unicode="&#x139;" horiz-adv-x="600" 
d="M535 0h-500l148 700h190l-112 -530h310zM221 780l118 161h184l-155 -161h-147z" />
    <glyph glyph-name="lacute" unicode="&#x13a;" horiz-adv-x="300" 
d="M333 700l-148 -700h-170l148 700h170zM190 780l118 161h184l-155 -161h-147z" />
    <glyph glyph-name="Lcommaaccent" unicode="&#x13b;" horiz-adv-x="600" 
d="M535 0h-500l148 700h190l-112 -530h310zM122 -240l81 160h164l-109 -160h-136z" />
    <glyph glyph-name="lcommaaccent" unicode="&#x13c;" horiz-adv-x="300" 
d="M333 700l-148 -700h-170l148 700h170zM-77 -240l81 160h164l-109 -160h-136z" />
    <glyph glyph-name="Lcaron" unicode="&#x13d;" horiz-adv-x="600" 
d="M535 0h-500l148 700h190l-112 -530h310zM384 540l82 160h164l-109 -160h-137z" />
    <glyph glyph-name="lcaron" unicode="&#x13e;" horiz-adv-x="390" 
d="M333 700l-148 -700h-170l148 700h170zM329 540l82 160h164l-109 -160h-137z" />
    <glyph glyph-name="Lslash" unicode="&#x141;" horiz-adv-x="660" 
d="M595 0h-500l44 210l-83 -40l-50 145l174 85l63 300h190l-42 -200l83 40l49 -145l-173 -85l-29 -140h310z" />
    <glyph glyph-name="lslash" unicode="&#x142;" horiz-adv-x="400" 
d="M383 700l-44 -210l84 45l48 -130l-170 -90l-66 -315h-170l45 215l-78 -40l-48 130l163 85l66 310h170z" />
    <glyph glyph-name="Nacute" unicode="&#x143;" horiz-adv-x="815" 
d="M648 700h190l-148 -700h-161l-222 390l-82 -390h-190l148 700h162l220 -390zM432 780l118 161h184l-155 -161h-147z" />
    <glyph glyph-name="nacute" unicode="&#x144;" 
d="M284 490l-12 -55q6 7 17.5 18t49 29t77.5 18q67 0 109 -42.5t42 -113.5q0 -26 -6 -54l-61 -290h-170l55 260q2 14 2 19q0 28 -17.5 44.5t-43.5 16.5q-34 0 -59.5 -27.5t-35.5 -72.5l-51 -240h-170l104 490h170zM299 555l118 161h184l-155 -161h-147z" />
    <glyph glyph-name="Ncommaaccent" unicode="&#x145;" horiz-adv-x="815" 
d="M648 700h190l-148 -700h-161l-222 390l-82 -390h-190l148 700h162l220 -390zM215 -240l81 160h164l-109 -160h-136z" />
    <glyph glyph-name="ncommaaccent" unicode="&#x146;" 
d="M284 490l-12 -55q6 7 17.5 18t49 29t77.5 18q67 0 109 -42.5t42 -113.5q0 -26 -6 -54l-61 -290h-170l55 260q2 14 2 19q0 28 -17.5 44.5t-43.5 16.5q-34 0 -59.5 -27.5t-35.5 -72.5l-51 -240h-170l104 490h170zM85 -240l81 160h164l-109 -160h-136z" />
    <glyph glyph-name="Ncaron" unicode="&#x147;" horiz-adv-x="815" 
d="M648 700h190l-148 -700h-161l-222 390l-82 -390h-190l148 700h162l220 -390zM518 870l64 70h163l-162 -160h-152l-96 160h146z" />
    <glyph glyph-name="ncaron" unicode="&#x148;" 
d="M284 490l-12 -55q6 7 17.5 18t49 29t77.5 18q67 0 109 -42.5t42 -113.5q0 -26 -6 -54l-61 -290h-170l55 260q2 14 2 19q0 28 -17.5 44.5t-43.5 16.5q-34 0 -59.5 -27.5t-35.5 -72.5l-51 -240h-170l104 490h170zM373 645l64 70h163l-162 -160h-152l-96 160h146z" />
    <glyph glyph-name="Omacron" unicode="&#x14c;" horiz-adv-x="860" 
d="M481 550q-89 0 -155.5 -67t-66.5 -158q0 -75 50 -125t128 -50q88 0 155 65t67 160q0 74 -50 124.5t-128 50.5zM857 387q0 -105 -59 -199t-157.5 -151t-208.5 -57q-159 0 -265 98t-106 235q0 162 128 284.5t297 122.5q159 0 265 -98t106 -235zM719 935l-28 -130h-330
l28 130h330z" />
    <glyph glyph-name="omacron" unicode="&#x14d;" 
d="M321 350q-44 0 -78 -37.5t-34 -83.5q0 -38 23.5 -63.5t59.5 -25.5q42 0 77 36.5t35 85.5q0 39 -23.5 63.5t-59.5 24.5zM582 267q0 -110 -89.5 -193.5t-206.5 -83.5q-111 0 -182.5 69.5t-71.5 164.5q0 109 89 192.5t207 83.5q111 0 182.5 -69t71.5 -164zM541 705l-28 -130
h-330l28 130h330z" />
    <glyph glyph-name="Ohungarumlaut" unicode="&#x150;" horiz-adv-x="860" 
d="M481 550q-89 0 -155.5 -67t-66.5 -158q0 -75 50 -125t128 -50q88 0 155 65t67 160q0 74 -50 124.5t-128 50.5zM857 387q0 -105 -59 -199t-157.5 -151t-208.5 -57q-159 0 -265 98t-106 235q0 162 128 284.5t297 122.5q159 0 265 -98t106 -235zM349 780l122 160h164
l-159 -160h-127zM559 780l122 160h164l-159 -160h-127z" />
    <glyph glyph-name="ohungarumlaut" unicode="&#x151;" 
d="M321 350q-44 0 -78 -37.5t-34 -83.5q0 -38 23.5 -63.5t59.5 -25.5q42 0 77 36.5t35 85.5q0 39 -23.5 63.5t-59.5 24.5zM582 267q0 -110 -89.5 -193.5t-206.5 -83.5q-111 0 -182.5 69.5t-71.5 164.5q0 109 89 192.5t207 83.5q111 0 182.5 -69t71.5 -164zM182 555l122 160
h164l-159 -160h-127zM392 555l122 160h164l-159 -160h-127z" />
    <glyph glyph-name="OE" unicode="&#x152;" horiz-adv-x="1015" 
d="M644 160h320l-34 -160h-540q-138 0 -233 90t-95 211q0 107 58.5 199t159.5 146t218 54h570l-34 -160h-310l-23 -110h230l-32 -150h-230zM498 530q-98 0 -171 -59.5t-73 -156.5q0 -64 47 -104t129 -40h26l76 360h-34z" />
    <glyph glyph-name="oe" unicode="&#x153;" horiz-adv-x="940" 
d="M334 500q49 0 93 -19t63 -37l20 -19q3 3 8.5 8t24 18t38.5 23t51.5 18t63.5 8q95 0 159 -56t64 -139q0 -29 -5 -50l-17 -55h-335q0 -30 24.5 -52.5t74.5 -22.5q31 0 61.5 12.5t45.5 24.5l14 13l52 -113q-9 -8 -25.5 -20t-70.5 -32t-112 -20q-56 0 -98.5 19t-57.5 37
l-15 19q-3 -3 -8.5 -8t-24 -18t-39.5 -23t-53 -18t-66 -8q-97 0 -164.5 63t-67.5 149q0 124 87 211t215 87zM283 140q42 0 76.5 36.5t34.5 87.5q0 36 -21.5 61t-52.5 25q-42 0 -76.5 -37t-34.5 -89q0 -35 21.5 -59.5t52.5 -24.5zM682 370q-33 0 -59.5 -19.5t-41.5 -50.5h172
q-1 31 -19.5 50.5t-51.5 19.5z" />
    <glyph glyph-name="Racute" unicode="&#x154;" horiz-adv-x="720" 
d="M35 0l148 700h314q96 0 161 -62t65 -146q0 -53 -17.5 -97t-42.5 -68.5t-49.5 -42t-41.5 -23.5l-18 -6l91 -255h-196l-73 220h-105l-46 -220h-190zM438 390q36 0 63.5 22t27.5 58q0 25 -18 42.5t-47 17.5h-127l-30 -140h131zM373 780l118 161h184l-155 -161h-147z" />
    <glyph glyph-name="racute" unicode="&#x155;" horiz-adv-x="405" 
d="M403 320q-18 10 -48 10q-49 0 -84 -33t-48 -92l-43 -205h-170l104 490h170l-12 -56q7 7 19 17t50.5 27t78.5 17h20zM206 555l118 161h184l-155 -161h-147z" />
    <glyph glyph-name="Rcommaaccent" unicode="&#x156;" horiz-adv-x="720" 
d="M35 0l148 700h314q96 0 161 -62t65 -146q0 -53 -17.5 -97t-42.5 -68.5t-49.5 -42t-41.5 -23.5l-18 -6l91 -255h-196l-73 220h-105l-46 -220h-190zM438 390q36 0 63.5 22t27.5 58q0 25 -18 42.5t-47 17.5h-127l-30 -140h131zM169 -240l81 160h164l-109 -160h-136z" />
    <glyph glyph-name="rcommaaccent" unicode="&#x157;" horiz-adv-x="405" 
d="M403 320q-18 10 -48 10q-49 0 -84 -33t-48 -92l-43 -205h-170l104 490h170l-12 -56q7 7 19 17t50.5 27t78.5 17h20zM-85 -240l81 160h164l-109 -160h-136z" />
    <glyph glyph-name="Rcaron" unicode="&#x158;" horiz-adv-x="720" 
d="M35 0l148 700h314q96 0 161 -62t65 -146q0 -53 -17.5 -97t-42.5 -68.5t-49.5 -42t-41.5 -23.5l-18 -6l91 -255h-196l-73 220h-105l-46 -220h-190zM438 390q36 0 63.5 22t27.5 58q0 25 -18 42.5t-47 17.5h-127l-30 -140h131zM458 870l64 70h163l-162 -160h-152l-96 160
h146z" />
    <glyph glyph-name="rcaron" unicode="&#x159;" horiz-adv-x="405" 
d="M403 320q-18 10 -48 10q-49 0 -84 -33t-48 -92l-43 -205h-170l104 490h170l-12 -56q7 7 19 17t50.5 27t78.5 17h20zM296 645l64 70h163l-162 -160h-152l-96 160h146z" />
    <glyph glyph-name="Sacute" unicode="&#x15a;" 
d="M279 140q38 0 65 17t27 53q0 21 -28 40t-67.5 37t-79 41t-67.5 62.5t-28 90.5q0 99 79.5 169t215.5 70q48 0 90.5 -10.5t69.5 -25t47.5 -29t28.5 -25.5l9 -10l-128 -110q-5 6 -15 14t-40 22t-61 14q-36 0 -59 -16.5t-23 -40.5q0 -21 27.5 -39.5t67.5 -35.5t79.5 -39.5
t67 -61.5t27.5 -90q0 -113 -80.5 -185t-223.5 -72q-52 0 -100 12.5t-80 30t-56.5 35t-35.5 30.5l-12 12l129 111l7.5 -7.5t20.5 -17t33 -22t42.5 -17t50.5 -7.5zM333 780l118 161h184l-155 -161h-147z" />
    <glyph glyph-name="sacute" unicode="&#x15b;" horiz-adv-x="470" 
d="M480 425l-102 -89q-30 29 -70 29q-22 0 -34.5 -8.5t-12.5 -21.5q0 -10 17.5 -20t42.5 -20.5t49.5 -25t42 -40.5t17.5 -60q0 -77 -61.5 -128t-171.5 -51q-43 0 -81 10t-61.5 24t-40.5 27.5t-24 23.5l-7 10l102 88q3 -5 10 -13t30 -21.5t50 -13.5q22 0 34.5 8.5t12.5 21.5
q0 10 -17.5 20t-42 20.5t-49.5 25t-42.5 40.5t-17.5 60q0 77 61.5 128t171.5 51q58 0 106.5 -19t67.5 -37zM217 555l118 161h184l-155 -161h-147z" />
    <glyph glyph-name="Scedilla" unicode="&#x15e;" 
d="M279 140q38 0 65 17t27 53q0 21 -28 40t-67.5 37t-79 41t-67.5 62.5t-28 90.5q0 99 79.5 169t215.5 70q48 0 90.5 -10.5t69.5 -25t47.5 -29t28.5 -25.5l9 -10l-128 -110q-5 6 -15 14t-40 22t-61 14q-36 0 -59 -16.5t-23 -40.5q0 -21 27.5 -39.5t67.5 -35.5t79.5 -39.5
t67 -61.5t27.5 -90q0 -110 -77 -181.5t-214 -75.5l-18 -25q3 0 9 -1.5t20 -7t25 -13t20 -23t9 -35.5q0 -53 -38.5 -86.5t-102.5 -33.5q-33 0 -63.5 12.5t-44.5 24.5l-14 13l52 64q24 -29 59 -29q42 0 42 31q0 19 -27 19l-25 -5l-23 35l43 65q-40 6 -77.5 20t-62.5 30t-44 31
t-28 24l-8 10l129 111l7.5 -7.5t20.5 -17t33 -22t42.5 -17t50.5 -7.5z" />
    <glyph glyph-name="scedilla" unicode="&#x15f;" horiz-adv-x="470" 
d="M480 425l-102 -89q-30 29 -70 29q-22 0 -34.5 -8.5t-12.5 -21.5q0 -10 17.5 -20t42.5 -20.5t49.5 -25t42 -40.5t17.5 -60q0 -74 -56 -124t-158 -54l-25 -36q3 0 9 -1.5t20 -7t25 -13t20 -23t9 -35.5q0 -53 -38.5 -86.5t-102.5 -33.5q-33 0 -63.5 12.5t-44.5 24.5l-14 13
l52 64q24 -29 59 -29q42 0 42 31q0 19 -27 19l-25 -5l-23 35l50 75q-31 5 -59 16.5t-45 23.5t-29.5 23.5t-17.5 19.5l-5 7l102 88q3 -5 10 -13t30 -21.5t50 -13.5q22 0 34.5 8.5t12.5 21.5q0 10 -17.5 20t-42 20.5t-49.5 25t-42.5 40.5t-17.5 60q0 77 61.5 128t171.5 51
q58 0 106.5 -19t67.5 -37z" />
    <glyph glyph-name="Scaron" unicode="&#x160;" 
d="M279 140q38 0 65 17t27 53q0 21 -28 40t-67.5 37t-79 41t-67.5 62.5t-28 90.5q0 99 79.5 169t215.5 70q48 0 90.5 -10.5t69.5 -25t47.5 -29t28.5 -25.5l9 -10l-128 -110q-5 6 -15 14t-40 22t-61 14q-36 0 -59 -16.5t-23 -40.5q0 -21 27.5 -39.5t67.5 -35.5t79.5 -39.5
t67 -61.5t27.5 -90q0 -113 -80.5 -185t-223.5 -72q-52 0 -100 12.5t-80 30t-56.5 35t-35.5 30.5l-12 12l129 111l7.5 -7.5t20.5 -17t33 -22t42.5 -17t50.5 -7.5zM419 870l64 70h163l-162 -160h-152l-96 160h146z" />
    <glyph glyph-name="scaron" unicode="&#x161;" horiz-adv-x="470" 
d="M480 425l-102 -89q-30 29 -70 29q-22 0 -34.5 -8.5t-12.5 -21.5q0 -10 17.5 -20t42.5 -20.5t49.5 -25t42 -40.5t17.5 -60q0 -77 -61.5 -128t-171.5 -51q-43 0 -81 10t-61.5 24t-40.5 27.5t-24 23.5l-7 10l102 88q3 -5 10 -13t30 -21.5t50 -13.5q22 0 34.5 8.5t12.5 21.5
q0 10 -17.5 20t-42 20.5t-49.5 25t-42.5 40.5t-17.5 60q0 77 61.5 128t171.5 51q58 0 106.5 -19t67.5 -37zM308 645l64 70h163l-162 -160h-152l-96 160h146z" />
    <glyph glyph-name="Tcommaaccent" unicode="&#x162;" horiz-adv-x="620" 
d="M123 700h580l-36 -170h-195l-112 -530h-190l112 530h-195zM83 -240l81 160h164l-109 -160h-136z" />
    <glyph glyph-name="tcommaaccent" unicode="&#x163;" horiz-adv-x="425" 
d="M185 545l18 85h150l-31 -150h100l-32 -150h-100l-30 -140q-11 -50 39 -50q12 0 26.5 2.5t22.5 5.5l8 2l-30 -145q-42 -15 -97 -15q-84 0 -122.5 49t-18.5 141l32 150h-75l32 150h35q27 0 47 17.5t26 47.5zM28 -240l81 160h164l-109 -160h-136z" />
    <glyph glyph-name="Tcaron" unicode="&#x164;" horiz-adv-x="620" 
d="M123 700h580l-36 -170h-195l-112 -530h-190l112 530h-195zM430 870l64 70h163l-162 -160h-152l-96 160h146z" />
    <glyph glyph-name="tcaron" unicode="&#x165;" horiz-adv-x="455" 
d="M185 545l18 85h150l-31 -150h100l-32 -150h-100l-30 -140q-11 -50 39 -50q12 0 26.5 2.5t22.5 5.5l8 2l-30 -145q-42 -15 -97 -15q-84 0 -122.5 49t-18.5 141l32 150h-75l32 150h35q27 0 47 17.5t26 47.5zM394 540l82 160h164l-109 -160h-137z" />
    <glyph glyph-name="Umacron" unicode="&#x16a;" horiz-adv-x="790" 
d="M389 150q52 0 95.5 40t56.5 100l87 410h190l-87 -410q-29 -135 -125 -222.5t-231 -87.5q-141 0 -226 90.5t-58 219.5l87 410h190l-87 -410q-12 -59 21 -99.5t87 -40.5zM704 935l-28 -130h-330l28 130h330z" />
    <glyph glyph-name="umacron" unicode="&#x16b;" horiz-adv-x="615" 
d="M330 0l10 50q-6 -7 -16.5 -17t-46.5 -26.5t-76 -16.5q-69 0 -112.5 42t-43.5 112q0 24 6 51l63 295h170l-57 -265q-2 -12 -2 -17q0 -27 16 -42.5t43 -15.5q34 0 61 24.5t36 65.5l53 250h170l-104 -490h-170zM558 705l-28 -130h-330l28 130h330z" />
    <glyph glyph-name="Uring" unicode="&#x16e;" horiz-adv-x="790" 
d="M389 150q52 0 95.5 40t56.5 100l87 410h190l-87 -410q-29 -135 -125 -222.5t-231 -87.5q-141 0 -226 90.5t-58 219.5l87 410h190l-87 -410q-12 -59 21 -99.5t87 -40.5zM529 915q-18 0 -30.5 -13t-12.5 -34q0 -33 39 -33q17 0 30.5 13t13.5 33q0 34 -40 34zM660 884
q0 -52 -43.5 -90.5t-99.5 -38.5q-55 0 -89 31.5t-34 77.5q0 53 42.5 92t100.5 39q55 0 89 -32.5t34 -78.5z" />
    <glyph glyph-name="uring" unicode="&#x16f;" horiz-adv-x="615" 
d="M330 0l10 50q-6 -7 -16.5 -17t-46.5 -26.5t-76 -16.5q-69 0 -112.5 42t-43.5 112q0 24 6 51l63 295h170l-57 -265q-2 -12 -2 -17q0 -27 16 -42.5t43 -15.5q34 0 61 24.5t36 65.5l53 250h170l-104 -490h-170zM382 695q-18 0 -30.5 -13t-12.5 -34q0 -33 39 -33
q17 0 30.5 13t13.5 33q0 34 -40 34zM513 664q0 -52 -43.5 -90.5t-99.5 -38.5q-55 0 -89 31.5t-34 77.5q0 53 42.5 92t100.5 39q55 0 89 -32.5t34 -78.5z" />
    <glyph glyph-name="Uhungarumlaut" unicode="&#x170;" horiz-adv-x="790" 
d="M389 150q52 0 95.5 40t56.5 100l87 410h190l-87 -410q-29 -135 -125 -222.5t-231 -87.5q-141 0 -226 90.5t-58 219.5l87 410h190l-87 -410q-12 -59 21 -99.5t87 -40.5zM331 780l122 160h164l-159 -160h-127zM541 780l122 160h164l-159 -160h-127z" />
    <glyph glyph-name="uhungarumlaut" unicode="&#x171;" horiz-adv-x="615" 
d="M330 0l10 50q-6 -7 -16.5 -17t-46.5 -26.5t-76 -16.5q-69 0 -112.5 42t-43.5 112q0 24 6 51l63 295h170l-57 -265q-2 -12 -2 -17q0 -27 16 -42.5t43 -15.5q34 0 61 24.5t36 65.5l53 250h170l-104 -490h-170zM191 555l122 160h164l-159 -160h-127zM401 555l122 160h164
l-159 -160h-127z" />
    <glyph glyph-name="Uogonek" unicode="&#x172;" horiz-adv-x="790" 
d="M389 150q52 0 95.5 40t56.5 100l87 410h190l-87 -410q-28 -129 -116.5 -214.5t-214.5 -94.5q-37 -52 -37 -91q0 -30 33 -30q13 0 26.5 4t19.5 8l7 3l-19 -90q-39 -20 -94 -20q-46 0 -72.5 25t-26.5 64q0 69 81 131q-119 18 -185 104t-42 201l87 410h190l-87 -410
q-12 -59 21 -99.5t87 -40.5z" />
    <glyph glyph-name="uogonek" unicode="&#x173;" horiz-adv-x="615" 
d="M330 0l10 50q-6 -7 -16.5 -17t-46.5 -26.5t-76 -16.5q-69 0 -112.5 42t-43.5 112q0 24 6 51l63 295h170l-57 -265q-2 -12 -2 -17q0 -27 16 -42.5t43 -15.5q34 0 61 24.5t36 65.5l53 250h170l-104 -490h-95q-53 -57 -53 -110q0 -30 33 -30q13 0 26.5 4t20.5 8l6 3l-19 -90
q-39 -20 -94 -20q-46 0 -72.5 25t-26.5 64q0 18 6 35.5t15 31.5t20 26.5t22 22t20.5 16.5t14.5 10z" />
    <glyph glyph-name="Ydieresis" unicode="&#x178;" horiz-adv-x="685" 
d="M573 700h215l-345 -450l-53 -250h-190l53 250l-155 450h195l84 -270zM260 848q0 35 30 63.5t67 28.5q32 0 54 -23t22 -54q0 -36 -30 -64.5t-67 -28.5q-32 0 -54 23.5t-22 54.5zM490 848q0 35 30 63.5t67 28.5q32 0 54 -23t22 -54q0 -36 -30 -64.5t-67 -28.5
q-32 0 -54 23.5t-22 54.5z" />
    <glyph glyph-name="Zacute" unicode="&#x179;" horiz-adv-x="660" 
d="M416 530h-289l36 170h545l-36 -170l-380 -360h314l-36 -170h-570l36 170zM361 780l118 161h184l-155 -161h-147z" />
    <glyph glyph-name="zacute" unicode="&#x17a;" horiz-adv-x="510" 
d="M519 490l-32 -150l-241 -190h210l-31 -150h-440l31 150l242 190h-191l32 150h420zM234 555l118 161h184l-155 -161h-147z" />
    <glyph glyph-name="Zdotaccent" unicode="&#x17b;" horiz-adv-x="660" 
d="M416 530h-289l36 170h545l-36 -170l-380 -360h314l-36 -170h-570l36 170zM546 870q0 -39 -31.5 -69.5t-73.5 -30.5q-40 0 -64.5 22.5t-24.5 56.5q0 41 31.5 71t74.5 30q39 0 63.5 -23.5t24.5 -56.5z" />
    <glyph glyph-name="zdotaccent" unicode="&#x17c;" horiz-adv-x="510" 
d="M519 490l-32 -150l-241 -190h210l-31 -150h-440l31 150l242 190h-191l32 150h420zM423 645q0 -39 -31.5 -69.5t-73.5 -30.5q-40 0 -64.5 22.5t-24.5 56.5q0 41 31.5 71t74.5 30q39 0 63.5 -23.5t24.5 -56.5z" />
    <glyph glyph-name="Zcaron" unicode="&#x17d;" horiz-adv-x="660" 
d="M416 530h-289l36 170h545l-36 -170l-380 -360h314l-36 -170h-570l36 170zM458 870l64 70h163l-162 -160h-152l-96 160h146z" />
    <glyph glyph-name="zcaron" unicode="&#x17e;" horiz-adv-x="510" 
d="M519 490l-32 -150l-241 -190h210l-31 -150h-440l31 150l242 190h-191l32 150h420zM324 645l64 70h163l-162 -160h-152l-96 160h146z" />
    <glyph glyph-name="florin" unicode="&#x192;" horiz-adv-x="415" 
d="M384 515l-33 -85h90l-32 -150h-115l-126 -310q-42 -104 -87.5 -142t-132.5 -38q-22 0 -45.5 4t-36.5 8l-12 3l31 145q18 -10 48 -10q54 0 74 50l117 290h-60l32 150h85l42 105q42 104 87.5 142t133.5 38q22 0 45.5 -3.5t36.5 -7.5l12 -4l-31 -145q-17 10 -47 10
q-58 0 -76 -50z" />
    <glyph glyph-name="Scommaaccent" unicode="&#x218;" 
d="M279 140q38 0 65 17t27 53q0 21 -28 40t-67.5 37t-79 41t-67.5 62.5t-28 90.5q0 99 79.5 169t215.5 70q48 0 90.5 -10.5t69.5 -25t47.5 -29t28.5 -25.5l9 -10l-128 -110q-5 6 -15 14t-40 22t-61 14q-36 0 -59 -16.5t-23 -40.5q0 -21 27.5 -39.5t67.5 -35.5t79.5 -39.5
t67 -61.5t27.5 -90q0 -113 -80.5 -185t-223.5 -72q-52 0 -100 12.5t-80 30t-56.5 35t-35.5 30.5l-12 12l129 111l7.5 -7.5t20.5 -17t33 -22t42.5 -17t50.5 -7.5zM108 -240l81 160h164l-109 -160h-136z" />
    <glyph glyph-name="scommaaccent" unicode="&#x219;" horiz-adv-x="470" 
d="M480 425l-102 -89q-30 29 -70 29q-22 0 -34.5 -8.5t-12.5 -21.5q0 -10 17.5 -20t42.5 -20.5t49.5 -25t42 -40.5t17.5 -60q0 -77 -61.5 -128t-171.5 -51q-43 0 -81 10t-61.5 24t-40.5 27.5t-24 23.5l-7 10l102 88q3 -5 10 -13t30 -21.5t50 -13.5q22 0 34.5 8.5t12.5 21.5
q0 10 -17.5 20t-42 20.5t-49.5 25t-42.5 40.5t-17.5 60q0 77 61.5 128t171.5 51q58 0 106.5 -19t67.5 -37zM17 -240l81 160h164l-109 -160h-136z" />
    <glyph glyph-name="uni021A" unicode="&#x21a;" horiz-adv-x="620" 
d="M123 700h580l-36 -170h-195l-112 -530h-190l112 530h-195zM83 -240l81 160h164l-109 -160h-136z" />
    <glyph glyph-name="uni021B" unicode="&#x21b;" horiz-adv-x="425" 
d="M185 545l18 85h150l-31 -150h100l-32 -150h-100l-30 -140q-11 -50 39 -50q12 0 26.5 2.5t22.5 5.5l8 2l-30 -145q-42 -15 -97 -15q-84 0 -122.5 49t-18.5 141l32 150h-75l32 150h35q27 0 47 17.5t26 47.5zM28 -240l81 160h164l-109 -160h-136z" />
    <glyph glyph-name="afii57929" unicode="&#x2bc;" horiz-adv-x="270" 
d="M99 550l82 160h164l-109 -160h-137z" />
    <glyph glyph-name="circumflex" unicode="&#x2c6;" horiz-adv-x="470" 
d="M328 620l-64 -70h-163l162 160h152l96 -160h-146z" />
    <glyph glyph-name="caron" unicode="&#x2c7;" horiz-adv-x="470" 
d="M318 640l64 70h163l-162 -160h-152l-96 160h146z" />
    <glyph glyph-name="breve" unicode="&#x2d8;" horiz-adv-x="400" 
d="M284 550q-75 0 -119 46.5t-30 113.5h120q-4 -22 7.5 -36t34.5 -14q22 0 37.5 13.5t20.5 36.5h120q-15 -70 -66.5 -115t-124.5 -45z" />
    <glyph glyph-name="dotaccent" unicode="&#x2d9;" horiz-adv-x="250" 
d="M313 650q0 -39 -31.5 -69.5t-73.5 -30.5q-40 0 -64.5 22.5t-24.5 56.5q0 41 31.5 71t74.5 30q39 0 63.5 -23.5t24.5 -56.5z" />
    <glyph glyph-name="ring" unicode="&#x2da;" horiz-adv-x="320" 
d="M246 650q-18 0 -30.5 -13t-12.5 -34q0 -33 39 -33q17 0 30.5 13t13.5 33q0 34 -40 34zM377 619q0 -52 -43.5 -90.5t-99.5 -38.5q-55 0 -89 31.5t-34 77.5q0 53 42.5 92t100.5 39q55 0 89 -32.5t34 -78.5z" />
    <glyph glyph-name="ogonek" unicode="&#x2db;" horiz-adv-x="270" 
d="M60 0h75q-53 -57 -53 -110q0 -30 33 -30q13 0 26.5 4t20.5 8l6 3l-19 -90q-39 -20 -94 -20q-46 0 -72.5 25t-26.5 64q0 18 6 35.5t15 31.5t20 26.5t22 22t20.5 16.5t14.5 10z" />
    <glyph glyph-name="tilde" unicode="&#x2dc;" horiz-adv-x="430" 
d="M252 600q-35 0 -46 -50h-105q19 86 55.5 128t83.5 42q36 0 69.5 -25t47.5 -25q35 0 46 50h105q-37 -170 -138 -170q-36 0 -70 25t-48 25z" />
    <glyph glyph-name="hungarumlaut" unicode="&#x2dd;" horiz-adv-x="520" 
d="M99 550l122 160h164l-159 -160h-127zM309 550l122 160h164l-159 -160h-127z" />
    <glyph glyph-name="afii10023" unicode="&#x401;" horiz-adv-x="670" 
d="M259 160h360l-34 -160h-550l148 700h540l-34 -160h-350l-23 -110h270l-32 -150h-270zM287 848q0 35 30 63.5t67 28.5q32 0 54 -23t22 -54q0 -36 -30 -64.5t-67 -28.5q-32 0 -54 23.5t-22 54.5zM517 848q0 35 30 63.5t67 28.5q32 0 54 -23t22 -54q0 -36 -30 -64.5
t-67 -28.5q-32 0 -54 23.5t-22 54.5z" />
    <glyph glyph-name="afii10051" unicode="&#x402;" horiz-adv-x="755" 
d="M521 455q96 0 153.5 -55t57.5 -138q0 -129 -85.5 -205.5t-215.5 -76.5h-46l35 165q52 0 82.5 24t30.5 65q0 25 -21.5 40.5t-59.5 15.5q-91 0 -111 -96l-41 -194h-190l112 530h-155l36 170h492l-36 -170h-147l-24 -115q53 40 133 40z" />
    <glyph glyph-name="afii10052" unicode="&#x403;" horiz-adv-x="590" 
d="M362 780l118 161h184l-155 -161h-147zM35 0l148 700h500l-36 -170h-310l-112 -530h-190z" />
    <glyph glyph-name="afii10053" unicode="&#x404;" horiz-adv-x="750" 
d="M495 550q-64 0 -120 -32.5t-89 -87.5h280l-34 -160h-274q13 -54 56 -87t105 -33q34 0 67 10t56.5 24t42 28.5t27.5 24.5l10 10l88 -127l-13.5 -15.5t-39 -33.5t-64.5 -42.5t-88.5 -33.5t-111.5 -15q-142 0 -237 96t-95 224q0 172 132.5 296t317.5 124q56 0 106.5 -14.5
t83 -35t57 -41t34.5 -35.5l11 -14l-135 -114q-2 3 -6.5 9t-20 20.5t-34 25.5t-49 20t-63.5 9z" />
    <glyph glyph-name="afii10054" unicode="&#x405;" 
d="M279 140q38 0 65 17t27 53q0 21 -28 40t-67.5 37t-79 41t-67.5 62.5t-28 90.5q0 99 79.5 169t215.5 70q48 0 90.5 -10.5t69.5 -25t47.5 -29t28.5 -25.5l9 -10l-128 -110q-5 6 -15 14t-40 22t-61 14q-36 0 -59 -16.5t-23 -40.5q0 -21 27.5 -39.5t67.5 -35.5t79.5 -39.5
t67 -61.5t27.5 -90q0 -113 -80.5 -185t-223.5 -72q-52 0 -100 12.5t-80 30t-56.5 35t-35.5 30.5l-12 12l129 111l7.5 -7.5t20.5 -17t33 -22t42.5 -17t50.5 -7.5z" />
    <glyph glyph-name="afii10055" unicode="&#x406;" horiz-adv-x="350" 
d="M35 0l148 700h190l-148 -700h-190z" />
    <glyph glyph-name="afii10056" unicode="&#x407;" horiz-adv-x="350" 
d="M35 0l148 700h190l-148 -700h-190zM104 848q0 35 30 63.5t67 28.5q32 0 54 -23t22 -54q0 -36 -30 -64.5t-67 -28.5q-32 0 -54 23.5t-22 54.5zM334 848q0 35 30 63.5t67 28.5q32 0 54 -23t22 -54q0 -36 -30 -64.5t-67 -28.5q-32 0 -54 23.5t-22 54.5z" />
    <glyph glyph-name="afii10057" unicode="&#x408;" horiz-adv-x="525" 
d="M363 700h190l-97 -460q-25 -118 -102 -189t-188 -71q-38 0 -73 9.5t-58.5 22.5t-41.5 26t-26 22l-8 10l140 115q2 -4 7 -10t23 -15.5t40 -9.5q34 0 61 24.5t36 65.5z" />
    <glyph glyph-name="afii10058" unicode="&#x409;" horiz-adv-x="1100" 
d="M671 170h115q37 0 64.5 24.5t27.5 58.5q0 27 -19 47t-48 20h-108zM770 0h-325l112 530h-140l-10 -50q-31 -145 -69 -244.5t-82.5 -154.5t-91.5 -78t-104 -23q-25 0 -51 5t-40 10l-14 5l37 175q21 -10 41 -10q27 0 49 12.5t45.5 45t46 96.5t42.5 160l47 221h520l-44 -210
h106q98 0 163 -62.5t65 -148.5q0 -123 -86.5 -201t-216.5 -78z" />
    <glyph glyph-name="afii10059" unicode="&#x40a;" horiz-adv-x="1115" 
d="M691 170h110q37 0 64.5 24.5t27.5 58.5q0 27 -19 47t-48 20h-103zM785 0h-320l65 310h-240l-65 -310h-190l148 700h190l-46 -220h240l46 220h190l-44 -210h101q98 0 163 -62.5t65 -148.5q0 -123 -86.5 -201t-216.5 -78z" />
    <glyph glyph-name="afii10060" unicode="&#x40b;" horiz-adv-x="780" 
d="M531 195q2 12 2 18q0 31 -22 51.5t-58 20.5q-39 0 -71.5 -24.5t-37.5 -49.5l-44 -211h-190l112 530h-155l36 170h495l-36 -170h-150l-23 -111q65 36 142 36q198 0 198 -183q0 -37 -9 -82l-40 -190h-190z" />
    <glyph glyph-name="afii10061" unicode="&#x40c;" horiz-adv-x="730" 
d="M364 268l-102 -93l-37 -175h-190l148 700h190l-55 -259l270 259h235l-311 -296l183 -404h-210zM408 780l118 161h184l-155 -161h-147z" />
    <glyph glyph-name="afii10062" unicode="&#x40e;" horiz-adv-x="650" 
d="M437 775q-79 0 -124.5 47t-30.5 118h120q-5 -26 7.5 -40.5t39.5 -14.5q52 0 63 55h120q-15 -73 -66.5 -119t-128.5 -46zM297 700l80 -283l172 283h214l-355 -520q-132 -190 -294 -190q-24 0 -46 4t-32 8l-10 3l35 165q20 -10 55 -10q40 0 70 19t45 41l19 26l-147 454h194
z" />
    <glyph glyph-name="afii10145" unicode="&#x40f;" horiz-adv-x="790" 
d="M813 700l-148 -700h-220l-30 -140h-190l30 140h-220l148 700h190l-112 -530h250l112 530h190z" />
    <glyph glyph-name="afii10017" unicode="&#x410;" horiz-adv-x="740" 
d="M461 300l-22 205l-108 -205h130zM479 150h-230l-81 -150h-213l413 700h210l117 -700h-197z" />
    <glyph glyph-name="afii10018" unicode="&#x411;" horiz-adv-x="695" 
d="M259 160h128q32 0 56.5 22t24.5 54q0 23 -17 38.5t-43 15.5h-122zM380 0h-345l148 700h510l-34 -160h-320l-19 -90h125q96 0 156.5 -60t60.5 -138q0 -107 -77.5 -179.5t-204.5 -72.5z" />
    <glyph glyph-name="afii10019" unicode="&#x412;" horiz-adv-x="710" 
d="M393 0h-358l148 700h305q95 0 154.5 -51t59.5 -117q0 -36 -13 -66.5t-31 -49t-36 -32t-31 -18.5l-13 -5q4 -2 10 -5.5t22.5 -16.5t29 -28t22.5 -40t10 -52q0 -91 -76.5 -155t-202.5 -64zM256 150h134q38 0 63 22.5t25 58.5q0 25 -18.5 42t-47.5 17h-126zM442 550h-101
l-25 -120h109q33 0 54 19t21 50q0 21 -16 36t-42 15z" />
    <glyph glyph-name="afii10020" unicode="&#x413;" horiz-adv-x="590" 
d="M35 0l148 700h500l-36 -170h-310l-112 -530h-190z" />
    <glyph glyph-name="afii10021" unicode="&#x414;" horiz-adv-x="760" 
d="M-9 170h40q5 4 13 11t31.5 34.5t43.5 60t42.5 87.5t35.5 117l46 220h520l-112 -530h80l-66 -310h-190l30 140h-360l-30 -140h-189zM387 480q-13 -62 -33.5 -116.5t-39.5 -88.5t-36.5 -59t-28.5 -36l-11 -10h223l76 360h-140z" />
    <glyph glyph-name="afii10022" unicode="&#x415;" horiz-adv-x="670" 
d="M259 160h360l-34 -160h-550l148 700h540l-34 -160h-350l-23 -110h270l-32 -150h-270z" />
    <glyph glyph-name="afii10024" unicode="&#x416;" horiz-adv-x="1060" 
d="M390 0l45 212l-36 53l-230 -265h-224l357 414l-186 286h212l158 -245l52 245h190l-50 -232l244 232h231l-314 -297l181 -403h-208l-120 265l-69 -61l-43 -204h-190z" />
    <glyph glyph-name="afii10025" unicode="&#x417;" horiz-adv-x="625" 
d="M493 361q4 -2 10 -5.5t22 -16.5t28 -28t22 -40.5t10 -54.5q0 -103 -83 -169.5t-232 -66.5q-52 0 -100 12.5t-80 30t-56.5 35t-35.5 30.5l-12 12l130 112q7 -7 19 -17.5t51 -27.5t79 -17q57 0 87.5 22t30.5 54q0 22 -23.5 38t-65.5 16h-85l34 160h80q46 0 72 18t26 45
q0 47 -79 47q-33 0 -67 -13t-51 -26l-18 -13l-86 117l11 11t31.5 25.5t53 32t75.5 25t97 11.5q105 0 175 -59t70 -129q0 -41 -14.5 -74t-35 -50t-41 -28.5t-34.5 -15.5z" />
    <glyph glyph-name="afii10026" unicode="&#x418;" horiz-adv-x="815" 
d="M183 700h190l-82 -383l371 383h176l-148 -700h-190l81 383l-371 -383h-175z" />
    <glyph glyph-name="afii10027" unicode="&#x419;" horiz-adv-x="815" 
d="M536 775q-79 0 -124.5 47t-30.5 118h120q-5 -26 7.5 -40.5t39.5 -14.5q52 0 63 55h120q-15 -73 -66.5 -119t-128.5 -46zM183 700h190l-82 -383l371 383h176l-148 -700h-190l81 383l-371 -383h-175z" />
    <glyph glyph-name="afii10028" unicode="&#x41a;" horiz-adv-x="730" 
d="M364 268l-102 -93l-37 -175h-190l148 700h190l-55 -259l270 259h235l-311 -296l183 -404h-210z" />
    <glyph glyph-name="afii10029" unicode="&#x41b;" horiz-adv-x="780" 
d="M803 700l-148 -700h-190l112 530h-160l-10 -50q-31 -145 -68 -244t-81.5 -154.5t-91.5 -78.5t-106 -23q-25 0 -51 5t-40 10l-14 5l37 175q22 -10 42 -10q36 0 64 22t59.5 94t58.5 198l47 221h540z" />
    <glyph glyph-name="afii10030" unicode="&#x41c;" horiz-adv-x="930" 
d="M456 170l-143 245l-88 -415h-190l148 700h158l157 -275l273 275h182l-148 -700h-190l88 415z" />
    <glyph glyph-name="afii10031" unicode="&#x41d;" horiz-adv-x="795" 
d="M818 700l-148 -700h-190l57 270h-255l-57 -270h-190l148 700h190l-55 -260h255l55 260h190z" />
    <glyph glyph-name="afii10032" unicode="&#x41e;" horiz-adv-x="860" 
d="M481 550q-89 0 -155.5 -67t-66.5 -158q0 -75 50 -125t128 -50q88 0 155 65t67 160q0 74 -50 124.5t-128 50.5zM857 387q0 -105 -59 -199t-157.5 -151t-208.5 -57q-159 0 -265 98t-106 235q0 162 128 284.5t297 122.5q159 0 265 -98t106 -235z" />
    <glyph glyph-name="afii10033" unicode="&#x41f;" horiz-adv-x="785" 
d="M808 700l-148 -700h-190l112 530h-245l-112 -530h-190l148 700h625z" />
    <glyph glyph-name="afii10034" unicode="&#x420;" horiz-adv-x="695" 
d="M183 700h301q98 0 163 -62.5t65 -147.5q0 -123 -86 -201.5t-216 -78.5h-141l-44 -210h-190zM451 530h-114l-32 -150h122q38 0 64.5 26t26.5 61q0 25 -19 44t-48 19z" />
    <glyph glyph-name="afii10035" unicode="&#x421;" horiz-adv-x="750" 
d="M495 550q-98 0 -169.5 -70t-71.5 -170q0 -69 46 -114.5t119 -45.5q34 0 67 10t56.5 24t42 28.5t27.5 24.5l10 10l88 -127l-13.5 -15.5t-39 -33.5t-64.5 -42.5t-88.5 -33.5t-111.5 -15q-142 0 -237 96t-95 224q0 172 132.5 296t317.5 124q56 0 106.5 -14.5t83 -35t57 -41
t34.5 -35.5l11 -14l-135 -114q-2 3 -6.5 9t-20 20.5t-34 25.5t-49 20t-63.5 9z" />
    <glyph glyph-name="afii10036" unicode="&#x422;" horiz-adv-x="620" 
d="M123 700h580l-36 -170h-195l-112 -530h-190l112 530h-195z" />
    <glyph glyph-name="afii10037" unicode="&#x423;" horiz-adv-x="650" 
d="M297 700l80 -283l172 283h214l-355 -520q-132 -190 -294 -190q-24 0 -46 4t-32 8l-10 3l35 165q20 -10 55 -10q40 0 70 19t45 41l19 26l-147 454h194z" />
    <glyph glyph-name="afii10038" unicode="&#x424;" horiz-adv-x="900" 
d="M414 490q-66 -6 -114 -48.5t-48 -108.5q0 -43 28.5 -71.5t77.5 -31.5zM495 -20h-190l19 90q-120 3 -192 77t-72 176q0 133 113.5 227.5t274.5 99.5l16 75h190l-16 -75q119 -4 191.5 -78t72.5 -175q0 -133 -113.5 -228t-274.5 -99zM548 230q67 6 114 48t47 109
q0 44 -28 72t-77 31z" />
    <glyph glyph-name="afii10039" unicode="&#x425;" horiz-adv-x="705" 
d="M364 235l-189 -235h-220l307 365l-139 335h200l77 -205l163 205h220l-281 -335l153 -365h-200z" />
    <glyph glyph-name="afii10040" unicode="&#x426;" horiz-adv-x="800" 
d="M35 0l148 700h190l-112 -530h235l112 530h190l-112 -530h80l-66 -310h-190l30 140h-505z" />
    <glyph glyph-name="afii10041" unicode="&#x427;" horiz-adv-x="750" 
d="M363 700l-45 -215q-3 -15 -3 -27q0 -39 25.5 -61t68.5 -22q30 0 58.5 8.5t41.5 17.5l13 9l61 290h190l-148 -700h-190l49 235q-56 -30 -141 -30q-104 0 -164 53t-60 150q0 35 9 77l45 215h190z" />
    <glyph glyph-name="afii10042" unicode="&#x428;" horiz-adv-x="1080" 
d="M1103 700l-148 -700h-920l148 700h190l-112 -530h175l112 530h190l-112 -530h175l112 530h190z" />
    <glyph glyph-name="afii10043" unicode="&#x429;" horiz-adv-x="1105" 
d="M1103 700l-112 -530h80l-66 -309h-190l30 139h-810l148 700h190l-112 -530h175l112 530h190l-112 -530h175l112 530h190z" />
    <glyph glyph-name="afii10044" unicode="&#x42a;" horiz-adv-x="760" 
d="M432 0h-322l112 530h-155l36 170h345l-44 -210h104q98 0 161.5 -62t63.5 -148q0 -123 -85.5 -201.5t-215.5 -78.5zM336 170h109q37 0 65 26.5t28 60.5q0 26 -18.5 44.5t-47.5 18.5h-104z" />
    <glyph glyph-name="afii10045" unicode="&#x42b;" horiz-adv-x="985" 
d="M1008 700l-148 -700h-190l148 700h190zM357 0h-322l148 700h190l-44 -210h104q98 0 161.5 -62t63.5 -148q0 -123 -85.5 -201.5t-215.5 -78.5zM397 320h-104l-32 -150h109q37 0 65 26.5t28 60.5q0 26 -18.5 44.5t-47.5 18.5z" />
    <glyph glyph-name="afii10046" unicode="&#x42c;" horiz-adv-x="695" 
d="M367 0h-332l148 700h190l-44 -210h114q98 0 161.5 -62t63.5 -148q0 -123 -85.5 -201.5t-215.5 -78.5zM407 320h-114l-32 -150h119q37 0 65 26.5t28 60.5q0 26 -18.5 44.5t-47.5 18.5z" />
    <glyph glyph-name="afii10047" unicode="&#x42d;" horiz-adv-x="750" 
d="M316 150q59 0 116 33t91 87h-281l34 160h275q-14 55 -59 87.5t-110 32.5q-51 0 -98 -23t-68 -46l-22 -23l-91 122q4 6 12.5 15.5t38 33.5t62.5 42.5t86 33.5t109 15q142 0 239 -94.5t97 -222.5q0 -113 -60.5 -210.5t-164 -155t-223.5 -57.5q-57 0 -109 14.5t-85 35
t-58 41t-36 35.5l-11 14l131 114q3 -3 8 -9t22.5 -20.5t37.5 -25.5t51.5 -20t65.5 -9z" />
    <glyph glyph-name="afii10048" unicode="&#x42e;" horiz-adv-x="1105" 
d="M697 -20q-125 0 -221.5 81t-108.5 209h-85l-57 -270h-190l148 700h190l-55 -260h72q44 123 151 201.5t230 78.5q144 0 237.5 -92t93.5 -229q0 -85 -34.5 -163.5t-90.5 -134t-130 -88.5t-150 -33zM703 150q85 0 146 74.5t61 163.5q0 71 -41.5 116.5t-104.5 45.5
q-75 0 -140.5 -68.5t-65.5 -168.5q0 -72 41 -117.5t104 -45.5z" />
    <glyph glyph-name="afii10049" unicode="&#x42f;" horiz-adv-x="720" 
d="M743 700l-148 -700h-190l46 220h-95l-169 -220h-202l199 255q-3 3 -9 7.5t-20 21t-25 35t-20 48t-9 60.5q0 119 83 196t209 77h350zM380 530q-35 0 -60 -21.5t-25 -57.5q0 -26 17 -43.5t45 -17.5h130l30 140h-137z" />
    <glyph glyph-name="afii10065" unicode="&#x430;" horiz-adv-x="636" 
d="M291 140q47 0 81 37t34 86q0 36 -24.5 61.5t-57.5 25.5q-44 0 -78.5 -36t-34.5 -89q0 -35 24 -60t56 -25zM442 424l14 66h170l-104 -490h-170l11 54q-2 -3 -6 -7t-17 -15t-28.5 -19.5t-40 -15.5t-51.5 -7q-77 0 -132.5 60t-55.5 146q0 131 83 217.5t189 86.5
q27 0 51.5 -8t39.5 -19t26 -22t16 -19z" />
    <glyph glyph-name="afii10066" unicode="&#x431;" horiz-adv-x="605" 
d="M574 268q0 -117 -85 -197.5t-209 -80.5q-103 0 -169.5 59.5t-66.5 164.5q0 41 11 96q37 175 118.5 261t211.5 114q54 12 101 26.5t68 22.5l20 9l50 -129q-55 -29 -203 -64q-62 -15 -114 -54t-68 -81q6 6 18 15t49.5 24.5t76.5 15.5q80 0 135.5 -60t55.5 -142zM325 320
q-40 0 -72 -31.5t-32 -73.5q0 -31 21.5 -53t50.5 -22q39 0 70.5 32t31.5 75q0 30 -20.5 51.5t-49.5 21.5z" />
    <glyph glyph-name="afii10067" unicode="&#x432;" horiz-adv-x="555" 
d="M114 490h258q72 0 113.5 -36.5t41.5 -85.5q0 -19 -5 -36t-13 -28.5t-17.5 -21t-19 -15.5t-17.5 -10t-12 -5l-4 -2q3 -1 7 -3t15 -10t19.5 -17.5t15.5 -26t7 -34.5q0 -70 -56.5 -114.5t-156.5 -44.5h-280zM303 200h-81l-17 -80h80q21 0 35.5 12.5t14.5 34.5q0 33 -32 33z
M315 300q16 0 29 11.5t13 28.5q0 12 -8.5 21t-20.5 9h-70l-15 -70h72z" />
    <glyph glyph-name="afii10068" unicode="&#x433;" horiz-adv-x="480" 
d="M147 335l-65 90q3 3 8.5 8t25 18t41 23t56 18t70.5 8q86 0 137.5 -40t51.5 -97q0 -42 -18.5 -73.5t-46 -48t-60 -29.5t-60 -20.5t-46 -18t-18.5 -23.5q0 -10 10.5 -17.5t29.5 -7.5q27 0 53.5 12t39.5 24l14 12l65 -88q-3 -4 -9 -10.5t-27.5 -22.5t-46 -28.5t-65 -23
t-83.5 -10.5q-86 0 -137.5 41.5t-51.5 99.5q0 49 25.5 83.5t62.5 50.5t73.5 26.5t62 21.5t25.5 26q0 26 -40 26q-18 0 -37 -7.5t-29 -15.5z" />
    <glyph glyph-name="afii10069" unicode="&#x434;" horiz-adv-x="620" 
d="M443 413q-10 96 -78 153.5t-169 78.5l66 125q156 -36 243 -129.5t87 -250.5q0 -187 -94 -293.5t-236 -106.5q-96 0 -163 65t-67 148q0 110 82.5 188.5t188.5 78.5q27 0 51.5 -6t40 -14t27 -16.5t16.5 -14.5zM280 140q41 0 72.5 32.5t31.5 75.5q0 30 -20 51t-49 21
q-39 0 -72 -32t-33 -75q0 -31 20.5 -52t49.5 -21z" />
    <glyph glyph-name="afii10070" unicode="&#x435;" horiz-adv-x="580" 
d="M537 200h-337q7 -34 34.5 -54.5t69.5 -20.5q31 0 61 12t44 24l14 12l52 -112q-3 -3 -9 -7.5t-26.5 -17t-42.5 -22t-57.5 -17t-71.5 -7.5q-100 0 -168.5 64t-68.5 152q0 121 91.5 207.5t214.5 86.5q95 0 158.5 -56t63.5 -139q0 -52 -22 -105zM317 370q-66 0 -100 -70h176
q-1 30 -22 50t-54 20z" />
    <glyph glyph-name="afii10072" unicode="&#x436;" horiz-adv-x="820" 
d="M275 0l28 138l-20 32l-147 -170h-191l245 283l-134 207h187l102 -160l34 160h170l-32 -150l156 150h201l-226 -213l127 -277h-179l-80 176l-43 -38l-28 -138h-170z" />
    <glyph glyph-name="afii10073" unicode="&#x437;" horiz-adv-x="475" 
d="M457 367q0 -44 -31.5 -76.5t-77.5 -44.5q3 -1 8 -3t17.5 -9.5t22 -17.5t17.5 -27.5t8 -37.5q0 -63 -60.5 -112t-169.5 -49q-43 0 -81 10t-61 24t-40 27.5t-24 23.5l-7 10l100 88q3 -5 10.5 -13t33 -21.5t56.5 -13.5q62 0 62 40q0 29 -49 29h-45l23 111h47q23 0 36.5 10
t13.5 24q0 26 -39 26q-22 0 -46 -7.5t-37 -15.5l-13 -7l-66 90q3 3 8.5 8t25.5 18t42.5 23t59 18t75.5 8q80 0 130.5 -41t50.5 -92z" />
    <glyph glyph-name="afii10074" unicode="&#x438;" horiz-adv-x="615" 
d="M330 0l10 50q-6 -7 -16.5 -17t-46.5 -26.5t-76 -16.5q-69 0 -112.5 42t-43.5 112q0 24 6 51l63 295h170l-57 -265q-2 -12 -2 -17q0 -27 16 -42.5t43 -15.5q34 0 61 24.5t36 65.5l53 250h170l-104 -490h-170z" />
    <glyph glyph-name="afii10075" unicode="&#x439;" horiz-adv-x="615" 
d="M330 0l10 50q-6 -7 -16.5 -17t-46.5 -26.5t-76 -16.5q-69 0 -112.5 42t-43.5 112q0 24 6 51l63 295h170l-57 -265q-2 -12 -2 -17q0 -27 16 -42.5t43 -15.5q34 0 61 24.5t36 65.5l53 250h170l-104 -490h-170zM364 550q-75 0 -119 46.5t-30 113.5h120q-4 -22 7.5 -36
t34.5 -14q22 0 37.5 13.5t20.5 36.5h120q-15 -70 -66.5 -115t-124.5 -45z" />
    <glyph glyph-name="afii10076" unicode="&#x43a;" horiz-adv-x="570" 
d="M399 277l126 -277h-181l-79 175l-60 -54l-25 -121h-170l104 490h170l-35 -164l173 164h202z" />
    <glyph glyph-name="afii10077" unicode="&#x43b;" horiz-adv-x="590" 
d="M164 490h420l-104 -490h-170l72 340h-95q-43 -199 -105 -277t-151 -78q-20 0 -40.5 4t-30.5 7l-10 4l31 150q13 -5 28 -5q28 0 47 15t40.5 67t42.5 148z" />
    <glyph glyph-name="afii10078" unicode="&#x43c;" horiz-adv-x="680" 
d="M313 110l-80 140l-53 -250h-170l104 490h136l99 -170l171 170h154l-104 -490h-170l53 250z" />
    <glyph glyph-name="afii10079" unicode="&#x43d;" horiz-adv-x="605" 
d="M216 170l-36 -170h-170l104 490h170l-36 -170h145l36 170h170l-104 -490h-170l36 170h-145z" />
    <glyph glyph-name="afii10080" unicode="&#x43e;" 
d="M321 350q-44 0 -78 -37.5t-34 -83.5q0 -38 23.5 -63.5t59.5 -25.5q42 0 77 36.5t35 85.5q0 39 -23.5 63.5t-59.5 24.5zM582 267q0 -110 -89.5 -193.5t-206.5 -83.5q-111 0 -182.5 69.5t-71.5 164.5q0 109 89 192.5t207 83.5q111 0 182.5 -69t71.5 -164z" />
    <glyph glyph-name="afii10081" unicode="&#x43f;" 
d="M284 490l-12 -55q6 7 17.5 18t49 29t77.5 18q67 0 109 -42.5t42 -113.5q0 -26 -6 -54l-61 -290h-170l55 260q2 14 2 19q0 28 -17.5 44.5t-43.5 16.5q-34 0 -59.5 -27.5t-35.5 -72.5l-51 -240h-170l104 490h170z" />
    <glyph glyph-name="afii10082" unicode="&#x440;" horiz-adv-x="630" 
d="M344 350q-47 0 -81 -37t-34 -86q0 -36 24.5 -61.5t57.5 -25.5q44 0 78.5 36t34.5 89q0 35 -24 60t-56 25zM193 66l-58 -276h-170l149 700h170l-12 -54q2 3 6 7t17 15t28.5 19.5t40 15.5t51.5 7q77 0 132.5 -60t55.5 -146q0 -131 -83 -217.5t-189 -86.5q-27 0 -51.5 8
t-39.5 19t-26 22t-16 19z" />
    <glyph glyph-name="afii10083" unicode="&#x441;" horiz-adv-x="540" 
d="M32 209q0 118 92.5 204.5t217.5 86.5q39 0 75 -10.5t59 -25t40.5 -29t25.5 -25.5l8 -10l-118 -101q-4 6 -11 14.5t-32.5 22.5t-54.5 14q-52 0 -88.5 -35.5t-36.5 -88.5q0 -36 24.5 -61t63.5 -25q29 0 56 14t40 28l13 13l80 -108q-3 -4 -9.5 -10.5t-27.5 -23t-44.5 -29.5
t-61 -23.5t-76.5 -10.5q-97 0 -166 66t-69 153z" />
    <glyph glyph-name="afii10084" unicode="&#x442;" horiz-adv-x="890" 
d="M610 0l55 260q7 37 -6.5 56t-44.5 19q-27 0 -50.5 -25.5t-32.5 -69.5l-51 -240h-170l55 260q7 37 -6.5 56t-44.5 19q-27 0 -50.5 -25.5t-32.5 -69.5l-51 -240h-170l104 490h170l-12 -55q5 7 14.5 18t43 29t71.5 18q28 0 51.5 -8t37 -20t23 -24t13.5 -20l3 -8q8 9 22 22.5
t58.5 35.5t91.5 22q79 0 120 -56.5t20 -153.5l-61 -290h-170z" />
    <glyph glyph-name="afii10085" unicode="&#x443;" horiz-adv-x="540" 
d="M113 -10l18 24l-77 476h172l31 -285l151 285h186l-289 -490q-65 -110 -125 -160t-130 -50q-24 0 -48 4t-36 8l-12 3l31 150q19 -10 49 -10q48 0 79 45z" />
    <glyph glyph-name="afii10086" unicode="&#x444;" horiz-adv-x="780" 
d="M380 -210h-170l40 190q-98 7 -159 72t-61 152q0 115 98.5 201.5t232.5 94.5l42 200h170l-42 -200q98 -7 159 -72.5t61 -152.5q0 -115 -99 -201t-232 -94zM499 350l-47 -220q52 4 89.5 41.5t37.5 95.5q0 36 -21 58t-59 25zM282 130l47 220q-53 -5 -89.5 -41.5t-36.5 -95.5
q0 -36 21 -58t58 -25z" />
    <glyph glyph-name="afii10087" unicode="&#x445;" horiz-adv-x="530" 
d="M249 140l-114 -140h-185l208 250l-94 240h178l43 -130l98 130h191l-196 -240l102 -250h-175z" />
    <glyph glyph-name="afii10088" unicode="&#x446;" horiz-adv-x="627" 
d="M599 490l-67 -315q-6 -30 21 -30h37l-54 -255h-170l28 129q-9 9 -15 20.5t-7 18.5l-2 7q-3 -3 -7.5 -8t-21 -18t-35 -23t-48 -18t-60.5 -8q-68 0 -110 42.5t-42 114.5q0 25 6 53l62 290h170l-56 -260q-2 -7 -2 -21q0 -27 16 -43t42 -16q31 0 57 25t35 65l53 250h170z" />
    <glyph glyph-name="afii10089" unicode="&#x447;" horiz-adv-x="570" 
d="M290 0l31 148q-45 -28 -104 -28q-71 0 -113.5 39t-42.5 107q0 28 5 49l38 175h170l-33 -155q-2 -10 -2 -14q0 -21 14 -33.5t37 -12.5q18 0 33.5 5t22.5 10l6 5l42 195h170l-104 -490h-170z" />
    <glyph glyph-name="afii10090" unicode="&#x448;" horiz-adv-x="895" 
d="M284 490l-55 -260q-7 -37 6.5 -56t44.5 -19q27 0 50.5 25.5t32.5 69.5l51 240h170l-55 -260q-7 -37 6.5 -56t44.5 -19q27 0 50.5 25.5t32.5 69.5l51 240h170l-104 -490h-170l12 55q-5 -7 -14.5 -18t-43 -29t-71.5 -18q-28 0 -51.5 8t-37 20t-23 24t-13.5 20l-3 8
q-8 -9 -22 -22.5t-58.5 -35.5t-91.5 -22q-79 0 -120 56.5t-20 153.5l61 290h170z" />
    <glyph glyph-name="afii10091" unicode="&#x449;" horiz-adv-x="912" 
d="M493 -10q-28 0 -51.5 8t-37 20t-23 24t-13.5 20l-3 8q-8 -9 -22 -22.5t-58.5 -35.5t-91.5 -22q-79 0 -120 56.5t-20 153.5l61 290h170l-55 -260q-7 -37 6.5 -56t44.5 -19q27 0 50.5 25.5t32.5 69.5l51 240h170l-55 -260q-7 -37 6.5 -56t44.5 -19q27 0 50.5 25.5
t32.5 69.5l51 240h170l-67 -315q-6 -30 21 -30h37l-54 -255h-170l28 129q-9 9 -15 20.5t-8 18.5l-1 7q-3 -3 -7.5 -8t-20.5 -18t-33.5 -23t-45 -18t-55.5 -8z" />
    <glyph glyph-name="afii10092" unicode="&#x44a;" horiz-adv-x="580" 
d="M541 201q0 -89 -67 -145t-164 -56h-245l70 330h-105l34 160h275l-30 -140h55q79 0 128 -43t49 -106zM262 130h52q21 0 37.5 16t16.5 37q0 16 -11 26.5t-28 10.5h-48z" />
    <glyph glyph-name="afii10093" unicode="&#x44b;" horiz-adv-x="780" 
d="M774 490l-104 -490h-170l104 490h170zM207 130h52q21 0 37.5 16t16.5 37q0 16 -11 26.5t-28 10.5h-48zM255 0h-245l104 490h170l-30 -140h55q79 0 128 -43t49 -106q0 -89 -67 -145t-164 -56z" />
    <glyph glyph-name="afii10094" unicode="&#x44c;" horiz-adv-x="535" 
d="M207 130h62q21 0 37.5 16t16.5 37q0 16 -11 26.5t-28 10.5h-58zM265 0h-255l104 490h170l-30 -140h65q79 0 128 -43t49 -106q0 -89 -67 -145t-164 -56z" />
    <glyph glyph-name="afii10095" unicode="&#x44d;" horiz-adv-x="540" 
d="M205 130q76 0 113 60h-168l23 110h165q-16 60 -89 60q-29 0 -59 -14t-46 -28l-15 -13l-69 95q3 4 9.5 11t27.5 24t45 30t61 24t76 11q97 0 165 -66.5t68 -154.5q0 -115 -92.5 -202t-217.5 -87q-39 0 -75 10.5t-59 25t-40.5 29t-25.5 25.5l-8 10l107 92q4 -6 12.5 -14.5
t35.5 -23t56 -14.5z" />
    <glyph glyph-name="afii10096" unicode="&#x44e;" horiz-adv-x="830" 
d="M513 -10q-82 0 -150 49.5t-86 130.5h-61l-36 -170h-170l104 490h170l-36 -170h44q33 79 108 129.5t162 50.5q104 0 172.5 -66.5t68.5 -161.5q0 -114 -87 -198t-203 -84zM522 140q43 0 75 38.5t32 84.5q0 38 -23 62.5t-55 24.5q-39 0 -73 -35.5t-34 -85.5
q0 -38 22.5 -63.5t55.5 -25.5z" />
    <glyph glyph-name="afii10097" unicode="&#x44f;" horiz-adv-x="555" 
d="M289 490h260l-104 -490h-170l29 140h-34l-114 -140h-181l140 170l-16 14t-26 40.5t-16 66.5q0 84 66 141.5t166 57.5zM351 360h-62q-24 0 -41.5 -14t-17.5 -39q0 -16 12 -26.5t31 -10.5h59z" />
    <glyph glyph-name="afii10071" unicode="&#x451;" horiz-adv-x="580" 
d="M537 200h-337q7 -34 34.5 -54.5t69.5 -20.5q31 0 61 12t44 24l14 12l52 -112q-3 -3 -9 -7.5t-26.5 -17t-42.5 -22t-57.5 -17t-71.5 -7.5q-100 0 -168.5 64t-68.5 152q0 121 91.5 207.5t214.5 86.5q95 0 158.5 -56t63.5 -139q0 -52 -22 -105zM317 370q-66 0 -100 -70h176
q-1 30 -22 50t-54 20zM166 623q0 35 30 63.5t67 28.5q32 0 54 -23t22 -54q0 -36 -30 -64.5t-67 -28.5q-32 0 -54 23.5t-22 54.5zM396 623q0 35 30 63.5t67 28.5q32 0 54 -23t22 -54q0 -36 -30 -64.5t-67 -28.5q-32 0 -54 23.5t-22 54.5z" />
    <glyph glyph-name="afii10099" unicode="&#x452;" 
d="M343 700l-14 -65h105l-31 -150h-105l-22 -100q6 7 18 18t50.5 29t78.5 18q65 0 106.5 -46t41.5 -119q0 -140 -82.5 -222.5t-233.5 -82.5l34 160q44 0 74.5 27.5t30.5 75.5q0 22 -15 34.5t-41 12.5q-37 0 -65 -27.5t-38 -72.5l-40 -190h-170l103 485h-75l31 150h75l14 65
h170z" />
    <glyph glyph-name="afii10100" unicode="&#x453;" horiz-adv-x="480" 
d="M226 550l118 161h184l-155 -161h-147zM147 335l-65 90q3 3 8.5 8t25 18t41 23t56 18t70.5 8q86 0 137.5 -40t51.5 -97q0 -42 -18.5 -73.5t-46 -48t-60 -29.5t-60 -20.5t-46 -18t-18.5 -23.5q0 -10 10.5 -17.5t29.5 -7.5q27 0 53.5 12t39.5 24l14 12l65 -88
q-3 -4 -9 -10.5t-27.5 -22.5t-46 -28.5t-65 -23t-83.5 -10.5q-86 0 -137.5 41.5t-51.5 99.5q0 49 25.5 83.5t62.5 50.5t73.5 26.5t62 21.5t25.5 26q0 26 -40 26q-18 0 -37 -7.5t-29 -15.5z" />
    <glyph glyph-name="afii10101" unicode="&#x454;" horiz-adv-x="545" 
d="M338 370q-77 0 -118 -70h173l-23 -110h-168q21 -69 89 -69q36 0 67.5 15t45.5 30l14 15l71 -91q-3 -4 -9.5 -11t-29 -24t-46.5 -30t-62 -24t-77 -11q-97 0 -165 67t-68 155q0 117 93.5 202.5t220.5 85.5q39 0 74.5 -10.5t58 -25t39.5 -29t24 -25.5l8 -10l-101 -86
q-1 2 -3.5 6t-12.5 13.5t-21.5 17t-31.5 13.5t-42 6z" />
    <glyph glyph-name="afii10102" unicode="&#x455;" horiz-adv-x="470" 
d="M480 425l-102 -89q-30 29 -70 29q-22 0 -34.5 -8.5t-12.5 -21.5q0 -10 17.5 -20t42.5 -20.5t49.5 -25t42 -40.5t17.5 -60q0 -77 -61.5 -128t-171.5 -51q-43 0 -81 10t-61.5 24t-40.5 27.5t-24 23.5l-7 10l102 88q3 -5 10 -13t30 -21.5t50 -13.5q22 0 34.5 8.5t12.5 21.5
q0 10 -17.5 20t-42 20.5t-49.5 25t-42.5 40.5t-17.5 60q0 77 61.5 128t171.5 51q58 0 106.5 -19t67.5 -37z" />
    <glyph glyph-name="afii10103" unicode="&#x456;" horiz-adv-x="300" 
d="M289 490l-104 -490h-170l104 490h170zM135 624q0 39 31 70t75 31q39 0 63.5 -23.5t24.5 -56.5q0 -40 -31.5 -70t-73.5 -30q-40 0 -64.5 22.5t-24.5 56.5z" />
    <glyph glyph-name="afii10104" unicode="&#x457;" horiz-adv-x="300" 
d="M30 623q0 35 30 63.5t67 28.5q32 0 54 -23t22 -54q0 -36 -30 -64.5t-67 -28.5q-32 0 -54 23.5t-22 54.5zM260 623q0 35 30 63.5t67 28.5q32 0 54 -23t22 -54q0 -36 -30 -64.5t-67 -28.5q-32 0 -54 23.5t-22 54.5zM289 490l-104 -490h-170l104 490h170z" />
    <glyph glyph-name="afii10105" unicode="&#x458;" horiz-adv-x="300" 
d="M15 0l104 490h170l-110 -515q-18 -85 -76.5 -135t-137.5 -50q-26 0 -50 4t-35 8l-11 3l32 150q23 -10 48 -10q22 0 41.5 16.5t24.5 38.5zM135 624q0 39 31 70t75 31q39 0 63.5 -23.5t24.5 -56.5q0 -40 -31.5 -70t-73.5 -30q-40 0 -64.5 22.5t-24.5 56.5z" />
    <glyph glyph-name="afii10106" unicode="&#x459;" horiz-adv-x="820" 
d="M780 200q0 -91 -65.5 -145.5t-164.5 -54.5h-250l72 340h-85q-43 -199 -104.5 -277t-150.5 -78q-20 0 -40.5 4t-31.5 7l-10 4l31 150q14 -5 29 -5q28 0 47 15t40 66.5t42 148.5l25 115h410l-32 -150h60q82 0 130 -40t48 -100zM497 130h56q25 0 39.5 12.5t14.5 35.5
q0 14 -10.5 23t-29.5 9h-53z" />
    <glyph glyph-name="afii10107" unicode="&#x45a;" horiz-adv-x="830" 
d="M507 130h56q25 0 39.5 12.5t14.5 35.5q0 14 -10.5 23t-29.5 9h-53zM560 0h-250l40 190h-130l-40 -190h-170l104 490h170l-32 -150h130l32 150h170l-32 -150h60q82 0 130 -40t48 -100q0 -91 -65.5 -145.5t-164.5 -54.5z" />
    <glyph glyph-name="afii10108" unicode="&#x45b;" horiz-adv-x="625" 
d="M343 700l-14 -65h105l-31 -150h-105l-22 -101q6 7 17.5 18t49 29.5t77.5 18.5q68 0 110 -42.5t42 -114.5q0 -25 -6 -53l-51 -240h-170l44 210q2 7 2 21q0 27 -16.5 43t-42.5 16q-34 0 -60.5 -27.5t-36.5 -72.5l-40 -190h-170l103 485h-75l31 150h75l14 65h170z" />
    <glyph glyph-name="afii10109" unicode="&#x45c;" horiz-adv-x="570" 
d="M278 550l118 161h184l-155 -161h-147zM399 277l126 -277h-181l-79 175l-60 -54l-25 -121h-170l104 490h170l-35 -164l173 164h202z" />
    <glyph glyph-name="afii10110" unicode="&#x45e;" horiz-adv-x="540" 
d="M113 -10l18 24l-77 476h172l31 -285l151 285h186l-289 -490q-65 -110 -125 -160t-130 -50q-24 0 -48 4t-36 8l-12 3l31 150q19 -10 49 -10q48 0 79 45zM334 550q-75 0 -119 46.5t-30 113.5h120q-4 -22 7.5 -36t34.5 -14q22 0 37.5 13.5t20.5 36.5h120q-15 -70 -66.5 -115
t-124.5 -45z" />
    <glyph glyph-name="afii10193" unicode="&#x45f;" horiz-adv-x="600" 
d="M284 490l-73 -340h140l73 340h170l-104 -490h-155l-24 -110h-170l24 110h-155l104 490h170z" />
    <glyph glyph-name="afii10050" unicode="&#x490;" horiz-adv-x="590" 
d="M35 0l148 700h320l28 130h180l-64 -300h-310l-112 -530h-190z" />
    <glyph glyph-name="afii10098" unicode="&#x491;" horiz-adv-x="450" 
d="M460 330h-210l-70 -330h-170l104 490h215l21 100h165z" />
    <glyph glyph-name="uni1E9E" unicode="&#x1e9e;" horiz-adv-x="695" 
d="M558 405l11 -5.5t24.5 -17.5t31 -31t24.5 -46t11 -61q0 -99 -82 -171.5t-211 -72.5h-77l30 145h42q42 0 69 25t27 66q0 26 -19 42.5t-50 16.5h-37l27 125l108 120h-68q-38 0 -67 -24t-36 -61l-96 -455h-190l97 460q21 103 108.5 171.5t202.5 68.5h280l-33 -155z" />
    <glyph glyph-name="endash" unicode="&#x2013;" horiz-adv-x="520" 
d="M517 365l-30 -140h-450l30 140h450z" />
    <glyph glyph-name="emdash" unicode="&#x2014;" horiz-adv-x="760" 
d="M757 365l-30 -140h-690l30 140h690z" />
    <glyph glyph-name="quoteleft" unicode="&#x2018;" horiz-adv-x="290" 
d="M207 414l-127 81l193 225l95 -60z" />
    <glyph glyph-name="quoteright" unicode="&#x2019;" horiz-adv-x="290" 
d="M233 721l127 -81l-193 -225l-95 60z" />
    <glyph glyph-name="quotesinglbase" unicode="&#x201a;" horiz-adv-x="285" 
d="M98 172l121 -82l-187 -220l-98 61z" />
    <glyph glyph-name="quotedblleft" unicode="&#x201c;" horiz-adv-x="500" 
d="M198 418l-118 77l193 225l86 -56zM418 418l-118 77l193 225l86 -56z" />
    <glyph glyph-name="quotedblright" unicode="&#x201d;" horiz-adv-x="500" 
d="M454 722l118 -77l-193 -225l-86 56zM234 722l118 -77l-193 -225l-86 56z" />
    <glyph glyph-name="quotedblbase" unicode="&#x201e;" horiz-adv-x="490" 
d="M308 171l117 -76l-193 -225l-85 55zM88 171l117 -76l-193 -225l-84 55z" />
    <glyph glyph-name="dagger" unicode="&#x2020;" horiz-adv-x="485" 
d="M247 575l26 125h145l-26 -125h120l-28 -130h-120l-65 -305h-145l65 305h-120l28 130h120z" />
    <glyph glyph-name="daggerdbl" unicode="&#x2021;" horiz-adv-x="485" 
d="M250 590l23 110h145l-23 -110h120l-28 -130h-120l-17 -80h120l-27 -130h-120l-24 -110h-145l24 110h-120l27 130h120l17 80h-120l28 130h120z" />
    <glyph glyph-name="bullet" unicode="&#x2022;" horiz-adv-x="440" 
d="M364 256q0 -58 -46 -104.5t-107 -46.5q-54 0 -89 34.5t-35 84.5q0 61 46.5 106t106.5 45q54 0 89 -34.5t35 -84.5z" />
    <glyph glyph-name="ellipsis" unicode="&#x2026;" horiz-adv-x="830" 
d="M290 69q0 39 31 70t75 31q39 0 63.5 -23.5t24.5 -56.5q0 -40 -31.5 -70t-73.5 -30q-40 0 -64.5 22.5t-24.5 56.5zM570 69q0 39 31 70t75 31q39 0 63.5 -23.5t24.5 -56.5q0 -40 -31.5 -70t-73.5 -30q-40 0 -64.5 22.5t-24.5 56.5zM10 69q0 39 31 70t75 31q39 0 63.5 -23.5
t24.5 -56.5q0 -40 -31.5 -70t-73.5 -30q-40 0 -64.5 22.5t-24.5 56.5z" />
    <glyph glyph-name="perthousand" unicode="&#x2030;" horiz-adv-x="1250" 
d="M280 605q-27 0 -47 -20t-20 -48q0 -22 15.5 -37t41.5 -15t46.5 19.5t20.5 47.5q0 23 -15.5 38t-41.5 15zM459 559q0 -74 -59 -129t-142 -55q-72 0 -119.5 45.5t-47.5 109.5q0 74 58.5 129.5t142.5 55.5q73 0 120 -46t47 -110zM85 0l583 700h165l-583 -700h-165zM643 215
q-27 0 -47 -20t-20 -48q0 -22 15.5 -37t41.5 -15t46.5 19.5t20.5 47.5q0 23 -15.5 38t-41.5 15zM822 169q0 -74 -59 -129t-142 -55q-72 0 -119.5 45.5t-47.5 109.5q0 74 58.5 129.5t142.5 55.5q73 0 120 -46t47 -110zM1038 215q-27 0 -47 -20t-20 -48q0 -22 15.5 -37
t41.5 -15t46.5 19.5t20.5 47.5q0 23 -15.5 38t-41.5 15zM1217 169q0 -74 -59 -129t-142 -55q-72 0 -119.5 45.5t-47.5 109.5q0 74 58.5 129.5t142.5 55.5q73 0 120 -46t47 -110z" />
    <glyph glyph-name="guilsinglleft" unicode="&#x2039;" horiz-adv-x="370" 
d="M385 420l-176 -187l87 -173h-164l-91 180l168 180h176z" />
    <glyph glyph-name="guilsinglright" unicode="&#x203a;" horiz-adv-x="370" 
d="M-3 60l176 187l-87 173h164l91 -180l-168 -180h-176z" />
    <glyph glyph-name="fraction" unicode="&#x2044;" horiz-adv-x="235" 
d="M-225 0l578 700h165l-577 -700h-166z" />
    <glyph glyph-name="zerosuperior" unicode="&#x2070;" horiz-adv-x="380" 
d="M293 701q-35 0 -53 -33.5t-18 -72.5q0 -25 10 -40t26 -15q25 0 48.5 26.5t23.5 77.5q0 26 -10.5 41.5t-26.5 15.5zM447 656q0 -84 -51.5 -152t-139.5 -68q-68 0 -109.5 40.5t-41.5 108.5q0 98 56 159t135 61q68 0 109.5 -41t41.5 -108z" />
    <glyph glyph-name="foursuperior" unicode="&#x2074;" horiz-adv-x="340" 
d="M410 800l-42 -195h35l-21 -100h-35l-14 -65h-115l14 65h-155l20 95l190 200h123zM203 600h54l17 80z" />
    <glyph glyph-name="fivesuperior" unicode="&#x2075;" horiz-adv-x="325" 
d="M293 675q41 0 67.5 -28t26.5 -67q0 -63 -49 -104t-124 -41q-31 0 -57 5.5t-41.5 13.5t-26.5 16.5t-15 13.5l-5 6l73 65q20 -25 65 -25q22 0 36 12.5t14 31.5q0 14 -9.5 22.5t-25.5 8.5q-9 0 -18 -2.5t-14 -4.5l-4 -3h-70l69 205h225l-20 -90h-127l-13 -40q18 5 43 5z" />
    <glyph glyph-name="sixsuperior" unicode="&#x2076;" horiz-adv-x="325" 
d="M400 800l-92 -100q39 -10 62.5 -38t23.5 -67q0 -67 -48.5 -113.5t-123.5 -46.5q-58 0 -96 32t-38 79q0 29 12 57.5t24 42.5l12 14l135 140h129zM233 530q20 0 34.5 13.5t14.5 35.5q0 31 -34 31q-22 0 -35.5 -14t-13.5 -37q0 -29 34 -29z" />
    <glyph glyph-name="sevensuperior" unicode="&#x2077;" horiz-adv-x="300" 
d="M135 800h275l-24 -110l-168 -250h-124l167 250h-150z" />
    <glyph glyph-name="eightsuperior" unicode="&#x2078;" horiz-adv-x="330" 
d="M234 530q20 0 32.5 9.5t12.5 22.5q0 11 -10 19.5t-26 8.5q-21 0 -33 -10t-12 -24q0 -10 10 -18t26 -8zM263 665q33 0 33 29q0 9 -7.5 15t-19.5 6q-34 0 -34 -29q0 -21 28 -21zM220 435q-67 0 -104.5 28t-37.5 69q0 36 22.5 61t45.5 32l22 7q-5 2 -11.5 7t-18 21.5
t-11.5 36.5q0 47 41 77.5t115 30.5q60 0 94 -25.5t34 -61.5q0 -31 -19 -54t-34.5 -30t-19.5 -7q2 -1 5.5 -2.5t13 -8t16.5 -14t13 -20t6 -27.5q0 -52 -45 -86t-127 -34z" />
    <glyph glyph-name="ninesuperior" unicode="&#x2079;" horiz-adv-x="325" 
d="M98 440l92 100q-39 10 -62.5 38t-23.5 67q0 67 48.5 113.5t123.5 46.5q58 0 96 -32t38 -79q0 -29 -12 -57.5t-24 -42.5l-12 -14l-135 -140h-129zM265 710q-20 0 -34.5 -13.5t-14.5 -35.5q0 -31 34 -31q22 0 35.5 14t13.5 37q0 29 -34 29z" />
    <glyph glyph-name="zeroinferior" unicode="&#x2080;" horiz-adv-x="380" 
d="M179 160q-35 0 -53 -33.5t-18 -72.5q0 -25 10 -40t26 -15q25 0 48.5 26.5t23.5 77.5q0 26 -10.5 41.5t-26.5 15.5zM333 115q0 -84 -51.5 -152t-139.5 -68q-68 0 -109.5 40.5t-41.5 108.5q0 98 56 159t135 61q68 0 109.5 -41t41.5 -108z" />
    <glyph glyph-name="oneinferior" unicode="&#x2081;" horiz-adv-x="240" 
d="M105 260h105l-77 -360h-120l48 225h-60l18 85q23 2 44.5 14.5t31.5 23.5z" />
    <glyph glyph-name="twoinferior" unicode="&#x2082;" horiz-adv-x="340" 
d="M299 169q0 -35 -16.5 -62t-37 -41t-48.5 -31.5t-40 -29.5h103l-22 -105h-275q10 49 35 86t53.5 57.5t55.5 36t44.5 30t17.5 30.5q0 20 -25 20q-11 0 -22.5 -8t-17.5 -16l-5 -7l-86 39q2 4 6 10.5t18 23t30.5 29.5t45 23.5t59.5 10.5q57 0 92 -27.5t35 -68.5z" />
    <glyph glyph-name="threeinferior" unicode="&#x2083;" horiz-adv-x="345" 
d="M228 86q5 -2 12.5 -6t20 -21t12.5 -39q0 -52 -45 -88.5t-117 -36.5q-48 0 -84.5 16.5t-48.5 32.5l-12 16l71 62q26 -32 71 -32q18 0 30 10.5t12 23.5q0 26 -41 26h-34l17 80h35q40 0 40 26q0 19 -32 19q-13 0 -28.5 -7.5t-24.5 -14.5l-8 -7l-45 64q5 6 15 15t47.5 24.5
t81.5 15.5q55 0 89 -28.5t34 -63.5q0 -11 -2.5 -20.5t-6.5 -17.5t-9 -14.5t-11 -11.5t-11.5 -9t-10.5 -6.5t-9 -4t-6 -2.5z" />
    <glyph glyph-name="fourinferior" unicode="&#x2084;" horiz-adv-x="340" 
d="M295 260l-42 -195h35l-21 -100h-35l-14 -65h-115l14 65h-155l20 95l190 200h123zM88 60h54l17 80z" />
    <glyph glyph-name="fiveinferior" unicode="&#x2085;" horiz-adv-x="325" 
d="M178 135q41 0 67.5 -28t26.5 -67q0 -63 -49 -104t-124 -41q-31 0 -57 5.5t-41.5 13.5t-26.5 16.5t-16 13.5l-4 6l73 65q20 -25 65 -25q22 0 36 12.5t14 31.5q0 14 -9.5 22.5t-25.5 8.5q-9 0 -18 -2.5t-13 -4.5l-5 -3h-70l69 205h225l-20 -90h-127l-13 -40q18 5 43 5z" />
    <glyph glyph-name="sixinferior" unicode="&#x2086;" horiz-adv-x="325" 
d="M285 260l-92 -100q39 -10 62.5 -38t23.5 -67q0 -67 -48.5 -113.5t-123.5 -46.5q-58 0 -96 32t-38 79q0 29 12 57.5t24 42.5l12 14l135 140h129zM118 -10q20 0 34.5 13.5t14.5 35.5q0 31 -34 31q-21 0 -35 -14t-14 -37q0 -29 34 -29z" />
    <glyph glyph-name="seveninferior" unicode="&#x2087;" horiz-adv-x="300" 
d="M20 260h275l-24 -110l-168 -250h-124l167 250h-150z" />
    <glyph glyph-name="eightinferior" unicode="&#x2088;" horiz-adv-x="330" 
d="M121 -10q19 0 32 9.5t13 22.5q0 11 -10 19.5t-26 8.5q-21 0 -33 -10t-12 -24q0 -10 10 -18t26 -8zM150 125q33 0 33 29q0 9 -7.5 15t-19.5 6q-34 0 -34 -29q0 -21 28 -21zM107 -105q-67 0 -104.5 28t-37.5 69q0 36 22.5 61t44.5 32l23 7q-5 2 -11.5 7t-18 21.5
t-11.5 36.5q0 47 41 77.5t115 30.5q60 0 94 -25.5t34 -61.5q0 -31 -19 -54t-34.5 -30t-19.5 -7q2 -1 5.5 -2.5t13 -8t16.5 -14t13 -20t6 -27.5q0 -52 -45 -86t-127 -34z" />
    <glyph glyph-name="nineinferior" unicode="&#x2089;" horiz-adv-x="325" 
d="M-17 -100l92 100q-39 10 -62.5 38t-23.5 67q0 67 48.5 113.5t123.5 46.5q58 0 96 -32t38 -79q0 -29 -12 -57.5t-24 -42.5l-12 -14l-135 -140h-129zM150 170q-20 0 -34.5 -13.5t-14.5 -35.5q0 -31 34 -31q21 0 35 14t14 37q0 29 -34 29z" />
    <glyph glyph-name="Euro" unicode="&#x20ac;" horiz-adv-x="755" 
d="M491 220h-163q1 -3 4 -8.5t14 -19.5t25.5 -24.5t40.5 -19t57 -8.5q40 0 78 18.5t56 37.5l18 18l85 -114l-10.5 -13t-31 -28.5t-53 -36.5t-75 -29t-96.5 -13q-51 0 -96 13t-76 34.5t-57 47t-41.5 51t-26.5 47t-15 34.5l-4 13h-93l22 100h69l11 60h-68l22 100h78
q11 22 27 45.5t51 60.5t75.5 65t102.5 48.5t130 20.5q50 0 95.5 -12t74.5 -29t51 -33.5t32 -28.5l9 -12l-125 -107q-6 7 -17.5 17.5t-49 27.5t-77.5 17q-49 0 -90.5 -20t-59.5 -40l-17 -20h170l-22 -100h-199l-12 -60h199z" />
    <glyph glyph-name="uni20B4" unicode="&#x20b4;" horiz-adv-x="660" 
d="M75 380l22 100h320l2 2q2 3 5 10t3 17q0 21 -17.5 36t-49.5 15q-31 0 -62 -12t-46 -24l-16 -12l-83 106q3 4 10 11t31 24.5t51 31t71 24.5t92 11q104 0 168.5 -52.5t64.5 -126.5q0 -13 -9 -61h45l-22 -100h-580zM643 320l-22 -100h-320l-2 -2q-2 -3 -5 -10.5t-3 -17.5
q0 -21 18 -35.5t49 -14.5t62 12t46 24l16 12l83 -105q-3 -4 -10 -11t-31 -25t-51 -31.5t-71 -24.5t-92 -11q-104 0 -168.5 52.5t-64.5 126.5q0 19 9 61h-45l22 100h580z" />
    <glyph glyph-name="uni20BD" unicode="&#x20bd;" horiz-adv-x="720" 
d="M345 400h116q38 0 64 24t26 60q0 24 -17 40t-46 16h-114zM451 265h-135l-10 -45h200l-28 -135h-200l-18 -85h-190l18 85h-70l28 135h70l10 45h-70l29 135h70l63 300h298q101 0 165.5 -59t64.5 -138q0 -106 -81 -172t-214 -66z" />
    <glyph glyph-name="afii61352" unicode="&#x2116;" horiz-adv-x="1195" 
d="M1024 450q-25 0 -46.5 -19t-21.5 -47q0 -23 15.5 -38.5t41.5 -15.5q27 0 47 20t20 49q0 22 -15 36.5t-41 14.5zM1201 404q0 -74 -58.5 -129t-140.5 -55q-72 0 -119.5 46t-47.5 110q0 73 59 128t140 55q73 0 120 -45.5t47 -109.5zM1136 150l-31 -150h-340l31 150h340z
M648 700h190l-148 -700h-161l-222 390l-82 -390h-190l148 700h162l220 -390z" />
    <glyph glyph-name="trademark" unicode="&#x2122;" horiz-adv-x="765" 
d="M572 435l-59 100l-33 -155h-115l68 320h99l66 -115l114 115h111l-68 -320h-115l33 155zM90 590l23 110h283l-23 -110h-83l-45 -210h-115l45 210h-85z" />
    <glyph glyph-name="minus" unicode="&#x2212;" horiz-adv-x="535" 
d="M533 370l-32 -150h-465l32 150h465z" />
    <glyph glyph-name="approxequal" unicode="&#x2248;" horiz-adv-x="580" 
d="M246 355q-24 0 -47 -12.5t-34 -24.5l-11 -13l-93 80q2 5 6 12.5t19 27.5t33 35t48 27.5t64 12.5q48 0 100.5 -27.5t81.5 -27.5q24 0 47 12.5t34 24.5l11 13l93 -80q-2 -5 -6 -12.5t-19 -27.5t-33 -35t-48 -27.5t-64 -12.5q-48 0 -100.5 27.5t-81.5 27.5zM201 145
q-24 0 -47 -12.5t-34 -24.5l-10 -13l-93 80q2 5 6 12.5t19 27.5t32.5 35t47.5 27.5t64 12.5q48 0 100.5 -27.5t81.5 -27.5q24 0 47 12.5t34 24.5l11 13l93 -80q-2 -5 -6 -12.5t-19 -27.5t-32.5 -35t-47.5 -27.5t-64 -12.5q-48 0 -101 27.5t-82 27.5z" />
    <glyph glyph-name="notequal" unicode="&#x2260;" horiz-adv-x="495" 
d="M60 330l29 140h205l47 80h155l-47 -80h65l-29 -140h-120l-45 -70h150l-30 -140h-205l-47 -80h-155l47 80h-65l30 140h120l45 70h-150z" />
    <glyph glyph-name="lessequal" unicode="&#x2264;" horiz-adv-x="520" 
d="M286 380l217 -85l-31 -140l-411 180l21 100l488 180l-31 -150zM-10 0l27 130h450l-27 -130h-450z" />
    <glyph glyph-name="greaterequal" unicode="&#x2265;" horiz-adv-x="520" 
d="M53 305l253 85l-217 85l31 140l412 -180l-21 -100l-489 -180zM467 130l-27 -130h-450l27 130h450z" />
    <glyph glyph-name="commaaccent" unicode="&#xf6c3;" horiz-adv-x="270" 
d="M-68 -240l81 160h164l-109 -160h-136z" />
    <glyph glyph-name="cyrBreve" unicode="&#xf6d1;" horiz-adv-x="410" 
d="M339 775q-79 0 -124.5 47t-30.5 118h120q-5 -26 7.5 -40.5t39.5 -14.5q52 0 63 55h120q-15 -73 -66.5 -119t-128.5 -46z" />
    <glyph glyph-name="cyrbreve" unicode="&#xf6d4;" horiz-adv-x="400" 
d="M284 550q-75 0 -119 46.5t-30 113.5h120q-4 -22 7.5 -36t34.5 -14q22 0 37.5 13.5t20.5 36.5h120q-15 -70 -66.5 -115t-124.5 -45z" />
    <glyph glyph-name="uniFB02" unicode="&#xfb02;" horiz-adv-x="665" 
d="M484 490q1 4 1 12q0 27 -21 45t-54 18q-37 0 -62.5 -21.5t-33.5 -53.5l-5 -20h104l-31 -150h-104l-68 -320h-170l68 320h-65l31 150h65q25 115 100.5 182.5t189.5 67.5q103 0 166 -52.5t63 -135.5q0 -23 -4 -42l-104 -490h-170z" />
    <glyph glyph-name="s_t" unicode="&#xfb06;" horiz-adv-x="870" 
d="M470 425l-98 -85q-32 25 -64 25q-22 0 -34.5 -8.5t-12.5 -21.5q0 -10 17.5 -20t42.5 -20.5t49.5 -25t42 -40.5t17.5 -60q0 -77 -61.5 -128t-171.5 -51q-43 0 -81 10t-61.5 24t-40.5 27.5t-24 23.5l-7 10l102 88q3 -5 10 -13t30 -21.5t50 -13.5q22 0 34.5 8.5t12.5 21.5
q0 10 -17.5 20t-42 20.5t-49.5 25t-42.5 40.5t-17.5 60q0 75 58.5 125.5t164.5 53.5q16 104 88 162t184 58q96 0 160.5 -50.5t64.5 -133.5q0 -26 -6 -56h100l-32 -150h-100l-30 -140q-10 -50 44 -50q12 0 25 2.5t20 5.5l7 2l-30 -145q-45 -15 -100 -15q-69 0 -107 33t-38 96
q0 30 7 61l32 150h-65l32 150h64q3 13 3 25q0 29 -20.5 47t-49.5 18q-40 0 -65.5 -25t-25.5 -64q0 -33 32 -56z" />
    <glyph glyph-name="lslash.alt" horiz-adv-x="430" 
d="M388 700l-44 -210l84 45l44 -125l-163 -85l-27 -125q-11 -55 43 -55q11 0 24 2.5t21 4.5l7 3l-31 -150q-41 -15 -96 -15q-87 0 -124.5 48.5t-17.5 141.5l9 45l-84 -45l-44 125l163 85l66 310h170z" />
    <glyph glyph-name="Germandbls" horiz-adv-x="695" 
d="M558 405l11 -5.5t24.5 -17.5t31 -31t24.5 -46t11 -61q0 -99 -82 -171.5t-211 -72.5h-77l30 145h42q42 0 69 25t27 66q0 26 -19 42.5t-50 16.5h-37l27 125l108 120h-68q-38 0 -67 -24t-36 -61l-96 -455h-190l97 460q21 103 108.5 171.5t202.5 68.5h280l-33 -155z" />
    <glyph glyph-name="afii10110.alt" horiz-adv-x="540" 
d="M333 550q-75 0 -119 46.5t-30 113.5h120q-4 -22 7.5 -36t34.5 -14q22 0 37.5 13.5t20.5 36.5h120q-15 -70 -66.5 -115t-124.5 -45zM5 -210l128 210l-79 490h170l33 -283l152 283h185l-414 -700h-175z" />
    <glyph glyph-name="agrave.alt" horiz-adv-x="639" 
d="M291 140q47 0 81 37t34 86q0 36 -24.5 61.5t-57.5 25.5q-44 0 -78.5 -36t-34.5 -89q0 -35 24 -60t56 -25zM626 490l-67 -315q-7 -30 23 -30l21 5l-30 -145q-28 -15 -71 -15q-30 0 -52.5 8t-33.5 19t-17.5 22.5t-8.5 19.5l-1 8q-3 -3 -8 -8.5t-22 -18.5t-35.5 -23
t-47 -18.5t-57.5 -8.5q-77 0 -132 60.5t-55 146.5q0 131 83 217t189 86q42 0 76.5 -19t47.5 -37l14 -19l14 65h170zM393 716l48 -161h-140l-85 161h177z" />
    <glyph glyph-name="aacute.alt" horiz-adv-x="639" 
d="M291 140q47 0 81 37t34 86q0 36 -24.5 61.5t-57.5 25.5q-44 0 -78.5 -36t-34.5 -89q0 -35 24 -60t56 -25zM626 490l-67 -315q-7 -30 23 -30l21 5l-30 -145q-28 -15 -71 -15q-30 0 -52.5 8t-33.5 19t-17.5 22.5t-8.5 19.5l-1 8q-3 -3 -8 -8.5t-22 -18.5t-35.5 -23
t-47 -18.5t-57.5 -8.5q-77 0 -132 60.5t-55 146.5q0 131 83 217t189 86q42 0 76.5 -19t47.5 -37l14 -19l14 65h170zM271 555l118 161h184l-155 -161h-147z" />
    <glyph glyph-name="abreve.alt" horiz-adv-x="639" 
d="M291 140q47 0 81 37t34 86q0 36 -24.5 61.5t-57.5 25.5q-44 0 -78.5 -36t-34.5 -89q0 -35 24 -60t56 -25zM626 490l-67 -315q-7 -30 23 -30l21 5l-30 -145q-28 -15 -71 -15q-30 0 -52.5 8t-33.5 19t-17.5 22.5t-8.5 19.5l-1 8q-3 -3 -8 -8.5t-22 -18.5t-35.5 -23
t-47 -18.5t-57.5 -8.5q-77 0 -132 60.5t-55 146.5q0 131 83 217t189 86q42 0 76.5 -19t47.5 -37l14 -19l14 65h170zM374 555q-75 0 -119 46.5t-30 113.5h120q-4 -22 7.5 -36t34.5 -14q22 0 37.5 13.5t20.5 36.5h120q-15 -70 -66.5 -115t-124.5 -45z" />
    <glyph glyph-name="acircumflex.alt" horiz-adv-x="639" 
d="M291 140q47 0 81 37t34 86q0 36 -24.5 61.5t-57.5 25.5q-44 0 -78.5 -36t-34.5 -89q0 -35 24 -60t56 -25zM626 490l-67 -315q-7 -30 23 -30l21 5l-30 -145q-28 -15 -71 -15q-30 0 -52.5 8t-33.5 19t-17.5 22.5t-8.5 19.5l-1 8q-3 -3 -8 -8.5t-22 -18.5t-35.5 -23
t-47 -18.5t-57.5 -8.5q-77 0 -132 60.5t-55 146.5q0 131 83 217t189 86q42 0 76.5 -19t47.5 -37l14 -19l14 65h170zM395 625l-64 -70h-163l162 160h152l96 -160h-146z" />
    <glyph glyph-name="adieresis.alt" horiz-adv-x="639" 
d="M291 140q47 0 81 37t34 86q0 36 -24.5 61.5t-57.5 25.5q-44 0 -78.5 -36t-34.5 -89q0 -35 24 -60t56 -25zM626 490l-67 -315q-7 -30 23 -30l21 5l-30 -145q-28 -15 -71 -15q-30 0 -52.5 8t-33.5 19t-17.5 22.5t-8.5 19.5l-1 8q-3 -3 -8 -8.5t-22 -18.5t-35.5 -23
t-47 -18.5t-57.5 -8.5q-77 0 -132 60.5t-55 146.5q0 131 83 217t189 86q42 0 76.5 -19t47.5 -37l14 -19l14 65h170zM185 623q0 35 30 63.5t67 28.5q32 0 54 -23t22 -54q0 -36 -30 -64.5t-67 -28.5q-32 0 -54 23.5t-22 54.5zM415 623q0 35 30 63.5t67 28.5q32 0 54 -23
t22 -54q0 -36 -30 -64.5t-67 -28.5q-32 0 -54 23.5t-22 54.5z" />
    <glyph glyph-name="amacron.alt" horiz-adv-x="639" 
d="M291 140q47 0 81 37t34 86q0 36 -24.5 61.5t-57.5 25.5q-44 0 -78.5 -36t-34.5 -89q0 -35 24 -60t56 -25zM626 490l-67 -315q-7 -30 23 -30l21 5l-30 -145q-28 -15 -71 -15q-30 0 -52.5 8t-33.5 19t-17.5 22.5t-8.5 19.5l-1 8q-3 -3 -8 -8.5t-22 -18.5t-35.5 -23
t-47 -18.5t-57.5 -8.5q-77 0 -132 60.5t-55 146.5q0 131 83 217t189 86q42 0 76.5 -19t47.5 -37l14 -19l14 65h170zM556 715l-28 -130h-330l28 130h330z" />
    <glyph glyph-name="aogonek.alt" horiz-adv-x="639" 
d="M291 140q47 0 81 37t34 86q0 36 -24.5 61.5t-57.5 25.5q-44 0 -78.5 -36t-34.5 -89q0 -35 24 -60t56 -25zM626 490l-67 -315q-7 -30 23 -30l21 5l-30 -145q-28 -15 -70 -15q-44 -53 -44 -100q0 -30 33 -30q13 0 26.5 4t19.5 8l7 3l-19 -90q-39 -20 -94 -20
q-46 0 -72.5 25t-26.5 64q0 18 6 35.5t15 31.5t20.5 26.5t22.5 22.5t20.5 17t15.5 11l6 4q-21 9 -33.5 25.5t-14.5 28.5l-2 11q-3 -3 -8 -8.5t-22 -18.5t-35.5 -23t-47 -18.5t-57.5 -8.5q-77 0 -132 60.5t-55 146.5q0 131 83 217t189 86q42 0 76.5 -19t47.5 -37l14 -19
l14 65h170z" />
    <glyph glyph-name="aring.alt" horiz-adv-x="639" 
d="M291 140q47 0 81 37t34 86q0 36 -24.5 61.5t-57.5 25.5q-44 0 -78.5 -36t-34.5 -89q0 -35 24 -60t56 -25zM626 490l-67 -315q-7 -30 23 -30l21 5l-30 -145q-28 -15 -71 -15q-30 0 -52.5 8t-33.5 19t-17.5 22.5t-8.5 19.5l-1 8q-3 -3 -8 -8.5t-22 -18.5t-35.5 -23
t-47 -18.5t-57.5 -8.5q-77 0 -132 60.5t-55 146.5q0 131 83 217t189 86q42 0 76.5 -19t47.5 -37l14 -19l14 65h170zM382 695q-18 0 -30.5 -13t-12.5 -34q0 -33 39 -33q17 0 30.5 13t13.5 33q0 34 -40 34zM513 664q0 -52 -43.5 -90.5t-99.5 -38.5q-55 0 -89 31.5t-34 77.5
q0 53 42.5 92t100.5 39q55 0 89 -32.5t34 -78.5z" />
    <glyph glyph-name="atilde.alt" horiz-adv-x="639" 
d="M291 140q47 0 81 37t34 86q0 36 -24.5 61.5t-57.5 25.5q-44 0 -78.5 -36t-34.5 -89q0 -35 24 -60t56 -25zM626 490l-67 -315q-7 -30 23 -30l21 5l-30 -145q-28 -15 -71 -15q-30 0 -52.5 8t-33.5 19t-17.5 22.5t-8.5 19.5l-1 8q-3 -3 -8 -8.5t-22 -18.5t-35.5 -23
t-47 -18.5t-57.5 -8.5q-77 0 -132 60.5t-55 146.5q0 131 83 217t189 86q42 0 76.5 -19t47.5 -37l14 -19l14 65h170zM333 595q-35 0 -46 -50h-105q19 86 55.5 128t83.5 42q36 0 69.5 -25t47.5 -25q35 0 46 50h105q-37 -170 -138 -170q-36 0 -70 25t-48 25z" />
    <glyph glyph-name="lacute.alt" horiz-adv-x="355" 
d="M189 780l118 161h184l-155 -161h-147zM333 700l-106 -500q-6 -28 3.5 -41.5t38.5 -13.5q11 0 24.5 2.5t20.5 4.5l8 3l-31 -150q-38 -15 -93 -15q-88 0 -126.5 49t-18.5 141l110 520h170z" />
    <glyph glyph-name="lcaron.alt" horiz-adv-x="390" 
d="M333 700l-106 -500q-6 -28 3.5 -41.5t38.5 -13.5q11 0 24.5 2.5t20.5 4.5l8 3l-31 -150q-38 -15 -93 -15q-88 0 -126.5 49t-18.5 141l110 520h170zM328 540l81 160h164l-109 -160h-136z" />
    <glyph glyph-name="lcommaaccent.alt" horiz-adv-x="350" 
d="M333 700l-106 -500q-6 -28 3.5 -41.5t38.5 -13.5q11 0 24.5 2.5t20.5 4.5l8 3l-31 -150q-38 -15 -93 -15q-88 0 -126.5 49t-18.5 141l110 520h170zM-9 -240l81 160h164l-109 -160h-136z" />
    <glyph glyph-name="Igrave.alt" horiz-adv-x="450" 
d="M107 530l36 170h370l-36 -170h-90l-76 -360h90l-36 -170h-370l36 170h90l76 360h-90zM357 941l48 -161h-140l-85 161h177z" />
    <glyph glyph-name="Iacute.alt" horiz-adv-x="450" 
d="M107 530l36 170h370l-36 -170h-90l-76 -360h90l-36 -170h-370l36 170h90l76 360h-90zM262 780l118 161h184l-155 -161h-147z" />
    <glyph glyph-name="Icircumflex.alt" horiz-adv-x="450" 
d="M107 530l36 170h370l-36 -170h-90l-76 -360h90l-36 -170h-370l36 170h90l76 360h-90zM365 850l-64 -70h-163l162 160h152l96 -160h-146z" />
    <glyph glyph-name="Idieresis.alt" horiz-adv-x="450" 
d="M107 530l36 170h370l-36 -170h-90l-76 -360h90l-36 -170h-370l36 170h90l76 360h-90zM150 848q0 35 30 63.5t67 28.5q32 0 54 -23t22 -54q0 -36 -30 -64.5t-67 -28.5q-32 0 -54 23.5t-22 54.5zM380 848q0 35 30 63.5t67 28.5q32 0 54 -23t22 -54q0 -36 -30 -64.5
t-67 -28.5q-32 0 -54 23.5t-22 54.5z" />
    <glyph glyph-name="Idotaccent.alt" horiz-adv-x="450" 
d="M107 530l36 170h370l-36 -170h-90l-76 -360h90l-36 -170h-370l36 170h90l76 360h-90zM444 870q0 -39 -31.5 -69.5t-73.5 -30.5q-40 0 -64.5 22.5t-24.5 56.5q0 41 31.5 71t74.5 30q39 0 63.5 -23.5t24.5 -56.5z" />
    <glyph glyph-name="Imacron.alt" horiz-adv-x="450" 
d="M107 530l36 170h370l-36 -170h-90l-76 -360h90l-36 -170h-370l36 170h90l76 360h-90zM539 935l-28 -130h-330l28 130h330z" />
    <glyph glyph-name="Iogonek.alt" horiz-adv-x="450" 
d="M290 0h-295l36 170h90l76 360h-90l36 170h370l-36 -170h-90l-76 -360h90l-36 -170q-53 -57 -53 -110q0 -30 33 -30q13 0 26.5 4t20.5 8l6 3l-19 -90q-39 -20 -94 -20q-46 0 -72.5 25t-26.5 64q0 18 6 35.5t15 31.5t20 26.5t22 22t20.5 16.5t14.5 10z" />
    <glyph glyph-name="yacute.alt" horiz-adv-x="615" 
d="M295 550l118 161h184l-155 -161h-147zM439 490h170l-95 -445q-24 -113 -104.5 -184t-196.5 -71q-44 0 -83 11t-64 26t-44 30.5t-27 26.5l-8 11l110 95q4 -6 12 -15t37 -24.5t65 -15.5q52 0 86.5 28.5t46.5 81.5l8 35q-2 -2 -5.5 -6.5t-17 -14.5t-29.5 -18t-41.5 -14.5
t-53.5 -6.5q-63 0 -106.5 41.5t-43.5 107.5q0 24 6 51l58 270h170l-50 -235q-8 -28 8.5 -51.5t47.5 -23.5q34 0 61 24.5t36 65.5z" />
    <glyph glyph-name="ydieresis.alt" horiz-adv-x="615" 
d="M439 490h170l-95 -445q-24 -113 -104.5 -184t-196.5 -71q-44 0 -83 11t-64 26t-44 30.5t-27 26.5l-8 11l110 95q4 -6 12 -15t37 -24.5t65 -15.5q52 0 86.5 28.5t46.5 81.5l8 35q-2 -2 -5.5 -6.5t-17 -14.5t-29.5 -18t-41.5 -14.5t-53.5 -6.5q-63 0 -106.5 41.5
t-43.5 107.5q0 24 6 51l58 270h170l-50 -235q-8 -28 8.5 -51.5t47.5 -23.5q34 0 61 24.5t36 65.5zM183 618q0 35 30 63.5t67 28.5q32 0 54 -23t22 -54q0 -36 -30 -64.5t-67 -28.5q-32 0 -54 23.5t-22 54.5zM413 618q0 35 30 63.5t67 28.5q32 0 54 -23t22 -54
q0 -36 -30 -64.5t-67 -28.5q-32 0 -54 23.5t-22 54.5z" />
    <glyph glyph-name="ugrave.alt" horiz-adv-x="612" 
d="M382 711l48 -161h-140l-85 161h177zM599 490l-67 -315q-6 -30 23 -30l21 5l-30 -145q-23 -15 -63 -15q-47 0 -75 19t-33 37l-5 19q-3 -3 -7.5 -8t-21 -18t-35 -23t-48 -18t-60.5 -8q-68 0 -110 42.5t-42 114.5q0 25 6 53l62 290h170l-56 -260q-2 -7 -2 -21q0 -27 16 -43
t42 -16q31 0 57 25t35 65l53 250h170z" />
    <glyph glyph-name="uacute.alt" horiz-adv-x="612" 
d="M282 550l118 161h184l-155 -161h-147zM599 490l-67 -315q-6 -30 23 -30l21 5l-30 -145q-23 -15 -63 -15q-47 0 -75 19t-33 37l-5 19q-3 -3 -7.5 -8t-21 -18t-35 -23t-48 -18t-60.5 -8q-68 0 -110 42.5t-42 114.5q0 25 6 53l62 290h170l-56 -260q-2 -7 -2 -21
q0 -27 16 -43t42 -16q31 0 57 25t35 65l53 250h170z" />
    <glyph glyph-name="ucircumflex.alt" horiz-adv-x="612" 
d="M599 490l-67 -315q-6 -30 23 -30l21 5l-30 -145q-23 -15 -63 -15q-47 0 -75 19t-33 37l-5 19q-3 -3 -7.5 -8t-21 -18t-35 -23t-48 -18t-60.5 -8q-68 0 -110 42.5t-42 114.5q0 25 6 53l62 290h170l-56 -260q-2 -7 -2 -21q0 -27 16 -43t42 -16q31 0 57 25t35 65l53 250h170
zM380 620l-64 -70h-163l162 160h152l96 -160h-146z" />
    <glyph glyph-name="udieresis.alt" horiz-adv-x="612" 
d="M599 490l-67 -315q-6 -30 23 -30l21 5l-30 -145q-23 -15 -63 -15q-47 0 -75 19t-33 37l-5 19q-3 -3 -7.5 -8t-21 -18t-35 -23t-48 -18t-60.5 -8q-68 0 -110 42.5t-42 114.5q0 25 6 53l62 290h170l-56 -260q-2 -7 -2 -21q0 -27 16 -43t42 -16q31 0 57 25t35 65l53 250h170
zM177 618q0 35 30 63.5t67 28.5q32 0 54 -23t22 -54q0 -36 -30 -64.5t-67 -28.5q-32 0 -54 23.5t-22 54.5zM407 618q0 35 30 63.5t67 28.5q32 0 54 -23t22 -54q0 -36 -30 -64.5t-67 -28.5q-32 0 -54 23.5t-22 54.5z" />
    <glyph glyph-name="uhungarumlaut.alt" horiz-adv-x="612" 
d="M599 490l-67 -315q-6 -30 23 -30l21 5l-30 -145q-23 -15 -63 -15q-47 0 -75 19t-33 37l-5 19q-3 -3 -7.5 -8t-21 -18t-35 -23t-48 -18t-60.5 -8q-68 0 -110 42.5t-42 114.5q0 25 6 53l62 290h170l-56 -260q-2 -7 -2 -21q0 -27 16 -43t42 -16q31 0 57 25t35 65l53 250h170
zM188 550l122 160h164l-159 -160h-127zM398 550l122 160h164l-159 -160h-127z" />
    <glyph glyph-name="umacron.alt" horiz-adv-x="612" 
d="M599 490l-67 -315q-6 -30 23 -30l21 5l-30 -145q-23 -15 -63 -15q-47 0 -75 19t-33 37l-5 19q-3 -3 -7.5 -8t-21 -18t-35 -23t-48 -18t-60.5 -8q-68 0 -110 42.5t-42 114.5q0 25 6 53l62 290h170l-56 -260q-2 -7 -2 -21q0 -27 16 -43t42 -16q31 0 57 25t35 65l53 250h170
zM562 705l-28 -130h-330l28 130h330z" />
    <glyph glyph-name="uogonek.alt" 
d="M599 490l-67 -315q-6 -30 23 -30l21 5l-30 -145q-23 -15 -63 -15h-1q-44 -53 -44 -100q0 -30 33 -30q13 0 26.5 4t20.5 8l6 3l-19 -90q-39 -20 -94 -20q-46 0 -72.5 25t-26.5 64q0 77 107 148q-20 10 -32.5 25.5t-14.5 26.5l-2 11q-3 -3 -7.5 -8t-21 -18t-35 -23t-48 -18
t-60.5 -8q-68 0 -110 42.5t-42 114.5q0 25 6 53l62 290h170l-56 -260q-2 -7 -2 -21q0 -27 16 -43t42 -16q31 0 57 25t35 65l53 250h170z" />
    <glyph glyph-name="uring.alt" horiz-adv-x="612" 
d="M381 690q-18 0 -30.5 -13t-12.5 -34q0 -33 39 -33q17 0 30.5 13t13.5 33q0 34 -40 34zM512 659q0 -52 -43.5 -90.5t-99.5 -38.5q-55 0 -89 31.5t-34 77.5q0 53 42.5 92t100.5 39q55 0 89 -32.5t34 -78.5zM599 490l-67 -315q-6 -30 23 -30l21 5l-30 -145q-23 -15 -63 -15
q-47 0 -75 19t-33 37l-5 19q-3 -3 -7.5 -8t-21 -18t-35 -23t-48 -18t-60.5 -8q-68 0 -110 42.5t-42 114.5q0 25 6 53l62 290h170l-56 -260q-2 -7 -2 -21q0 -27 16 -43t42 -16q31 0 57 25t35 65l53 250h170z" />
    <glyph glyph-name="a.alt" horiz-adv-x="636" 
d="M291 140q47 0 81 37t34 86q0 36 -24.5 61.5t-57.5 25.5q-44 0 -78.5 -36t-34.5 -89q0 -35 24 -60t56 -25zM626 490l-67 -315q-7 -30 23 -30l21 5l-30 -145q-28 -15 -71 -15q-30 0 -52.5 8t-33.5 19t-17.5 22.5t-8.5 19.5l-1 8q-3 -3 -8 -8.5t-22 -18.5t-35.5 -23
t-47 -18.5t-57.5 -8.5q-77 0 -132 60.5t-55 146.5q0 131 83 217t189 86q42 0 76.5 -19t47.5 -37l14 -19l14 65h170z" />
    <glyph glyph-name="l.alt" horiz-adv-x="350" 
d="M333 700l-106 -500q-6 -28 3.5 -41.5t38.5 -13.5q11 0 24.5 2.5t20.5 4.5l8 3l-31 -150q-38 -15 -93 -15q-88 0 -126.5 49t-18.5 141l110 520h170z" />
    <glyph glyph-name="afii10085.alt" horiz-adv-x="540" 
d="M5 -210l128 210l-79 490h170l33 -283l152 283h185l-414 -700h-175z" />
    <glyph glyph-name="y.alt" horiz-adv-x="615" 
d="M439 490h170l-95 -445q-24 -113 -104.5 -184t-196.5 -71q-44 0 -83 11t-64 26t-44 30.5t-27 26.5l-8 11l110 95q4 -6 12 -15t37 -24.5t65 -15.5q52 0 86.5 28.5t46.5 81.5l8 35q-2 -2 -5.5 -6.5t-17 -14.5t-29.5 -18t-41.5 -14.5t-53.5 -6.5q-63 0 -106.5 41.5
t-43.5 107.5q0 24 6 51l58 270h170l-50 -235q-8 -28 8.5 -51.5t47.5 -23.5q34 0 61 24.5t36 65.5z" />
    <glyph glyph-name="I.alt" horiz-adv-x="450" 
d="M107 530l36 170h370l-36 -170h-90l-76 -360h90l-36 -170h-370l36 170h90l76 360h-90z" />
    <glyph glyph-name="u.alt" horiz-adv-x="612" 
d="M599 490l-67 -315q-6 -30 23 -30l21 5l-30 -145q-23 -15 -63 -15q-47 0 -75 19t-33 37l-5 19q-3 -3 -7.5 -8t-21 -18t-35 -23t-48 -18t-60.5 -8q-68 0 -110 42.5t-42 114.5q0 25 6 53l62 290h170l-56 -260q-2 -7 -2 -21q0 -27 16 -43t42 -16q31 0 57 25t35 65l53 250h170
z" />
    <glyph glyph-name="afii10065.alt" horiz-adv-x="636" 
d="M291 140q47 0 81 37t34 86q0 36 -24.5 61.5t-57.5 25.5q-44 0 -78.5 -36t-34.5 -89q0 -35 24 -60t56 -25zM626 490l-67 -315q-7 -30 23 -30l21 5l-30 -145q-28 -15 -71 -15q-30 0 -52.5 8t-33.5 19t-17.5 22.5t-8.5 19.5l-1 8q-3 -3 -8 -8.5t-22 -18.5t-35.5 -23
t-47 -18.5t-57.5 -8.5q-77 0 -132 60.5t-55 146.5q0 131 83 217t189 86q42 0 76.5 -19t47.5 -37l14 -19l14 65h170z" />
    <glyph glyph-name="at.case" horiz-adv-x="900" 
d="M480 415q-31 0 -55 -25t-24 -60q0 -23 15.5 -39t38.5 -16q30 0 54.5 24.5t24.5 58.5q0 24 -15.5 40.5t-38.5 16.5zM480 530q24 0 45 -10t30 -20l9 -10l7 35h115l-42 -200q-5 -19 6 -37t32 -18q33 0 60 37t27 116q0 91 -69 151.5t-175 60.5q-85 0 -163 -44.5t-126 -121
t-48 -163.5q0 -99 65 -170t165 -71q49 0 95.5 15.5t68.5 31.5l22 15l58 -86l-12 -9t-34 -21t-54 -26t-71.5 -20.5t-86.5 -9.5q-142 0 -238 99.5t-96 235.5q0 121 66.5 226.5t176 167t230.5 61.5q149 0 248.5 -88.5t99.5 -215.5q0 -129 -66 -205t-156 -76q-23 0 -42.5 6.5
t-31 15t-19.5 17.5t-11 15l-3 7q-5 -7 -15.5 -17t-46.5 -27t-76 -17q-61 0 -101 41.5t-40 104.5q0 97 61 160.5t136 63.5z" />
    <glyph glyph-name="parenleft.case" horiz-adv-x="390" 
d="M264 350q-14 -64 -14 -131q0 -72 16 -140.5t32 -100.5l15 -33l-147 -80q-4 6 -10 17.5t-22 48.5t-28.5 76t-22.5 97.5t-10 116.5q0 103 31 204t75 172.5t87.5 126.5t74.5 84t31 27l113 -80q-7 -7 -19 -20t-44 -56t-59.5 -87.5t-56 -111t-42.5 -130.5z" />
    <glyph glyph-name="parenright.case" horiz-adv-x="390" 
d="M184 350q14 64 14 130q0 72 -16 141t-32 101l-15 33l147 80q4 -6 10 -17.5t22 -48.5t28.5 -76.5t22.5 -98t10 -116.5q0 -103 -31 -204t-74.5 -172.5t-87.5 -126t-75 -83.5t-31 -27l-113 80q7 7 19 20t44 56t59.5 87.5t56 111t42.5 130.5z" />
    <glyph glyph-name="bracketleft.case" horiz-adv-x="395" 
d="M345 660l-132 -620h110l-32 -150h-280l196 920h280l-32 -150h-110z" />
    <glyph glyph-name="bracketright.case" horiz-adv-x="395" 
d="M108 40l132 620h-110l32 150h280l-196 -920h-280l32 150h110z" />
    <glyph glyph-name="braceleft.case" horiz-adv-x="430" 
d="M63 275l32 150q30 0 54 20t31 50l25 120q42 195 207 195h110l-34 -160h-45q-23 0 -43 -17t-25 -43l-23 -110q-7 -31 -21 -55.5t-29.5 -38t-29.5 -22.5t-24 -12l-9 -2q2 0 4.5 -1t11 -5.5t14.5 -10t14.5 -16t11.5 -23.5t5.5 -32t-4.5 -42l-23 -110q-6 -26 6.5 -43
t35.5 -17h45l-34 -160h-90q-85 0 -124 50t-19 145l25 120q7 30 -9 50t-46 20z" />
    <glyph glyph-name="braceright.case" horiz-adv-x="430" 
d="M425 425l-32 -150q-30 0 -54 -20t-31 -50l-25 -120q-42 -195 -207 -195h-110l34 160h45q23 0 42.5 17t25.5 43l23 110q7 31 21 55.5t29.5 38t29.5 22.5t24 12l9 2q-2 0 -4.5 1t-11 5.5t-14.5 10t-14.5 16t-11.5 23.5t-5.5 32t4.5 42l23 110q5 26 -7 43t-35 17h-45l34 160
h90q85 0 124 -50t19 -145l-25 -120q-7 -30 9 -50t46 -20z" />
    <glyph glyph-name="exclamdown.case" horiz-adv-x="340" 
d="M157 480h140l-72 -480h-200zM349 631q0 -39 -31 -70t-75 -31q-39 0 -63.5 23.5t-24.5 56.5q0 40 31.5 70t73.5 30q40 0 64.5 -22.5t24.5 -56.5z" />
    <glyph glyph-name="questiondown.case" horiz-adv-x="565" 
d="M434 456q0 -51 -32 -89.5t-70 -58t-70 -45t-32 -53.5q0 -19 16 -32t42 -13q33 0 59.5 15t36.5 30l9 15l144 -75q-3 -7 -9 -18.5t-30 -40.5t-53.5 -51.5t-80.5 -41t-110 -18.5q-105 0 -171 61t-66 136q0 52 23 94t57 68.5t68 48.5t60.5 45t31.5 47h175q2 -11 2 -24z
M471 631q0 -39 -31 -70t-75 -31q-39 0 -63.5 23.5t-24.5 56.5q0 40 31.5 70t73.5 30q40 0 64.5 -22.5t24.5 -56.5z" />
    <glyph glyph-name="guillemotleft.case" horiz-adv-x="595" 
d="M633 530l-176 -187l87 -173h-154l-91 180l168 180h166zM398 530l-176 -187l87 -173h-154l-91 180l168 180h166z" />
    <glyph glyph-name="guillemotright.case" horiz-adv-x="595" 
d="M20 170l176 187l-87 173h154l91 -180l-168 -180h-166zM255 170l176 187l-87 173h154l91 -180l-168 -180h-166z" />
    <glyph glyph-name="guilsinglleft.case" horiz-adv-x="370" 
d="M408 530l-176 -187l87 -173h-164l-91 180l168 180h176z" />
    <glyph glyph-name="guilsinglright.case" horiz-adv-x="370" 
d="M20 170l176 187l-87 173h164l91 -180l-168 -180h-176z" />
    <glyph glyph-name="hyphen.case" horiz-adv-x="435" 
d="M443 418l-32 -150h-365l32 150h365z" />
    <glyph glyph-name="endash.case" horiz-adv-x="510" 
d="M523 418l-29 -140h-450l29 140h450z" />
    <glyph glyph-name="emdash.case" horiz-adv-x="750" 
d="M763 418l-29 -140h-690l29 140h690z" />
    <glyph glyph-name="periodcentered.case" horiz-adv-x="210" 
d="M36 337q0 39 31 70t75 31q39 0 63.5 -23.5t24.5 -56.5q0 -40 -31.5 -70t-73.5 -30q-40 0 -64.5 22.5t-24.5 56.5z" />
    <glyph glyph-name="c_t" horiz-adv-x="940" 
d="M32 209q0 118 92.5 204.5t217.5 86.5h14q17 104 89.5 162t183.5 58q94 0 154 -49t60 -130q0 -29 -6 -61h100l-32 -150h-100l-30 -140q-5 -23 6 -36.5t36 -13.5q13 0 26.5 2.5t20.5 5.5l7 2l-30 -145q-45 -15 -100 -15q-69 0 -107 33t-38 96q0 30 7 61l32 150h-65l32 150
h65q3 16 3 29q0 29 -17 45t-46 16q-37 0 -63.5 -27t-26.5 -70q0 -38 33 -73l-118 -101q-4 6 -11 14.5t-32.5 22.5t-54.5 14q-52 0 -88.5 -35.5t-36.5 -88.5q0 -36 24.5 -61t63.5 -25q29 0 56 14t40 28l13 13l80 -108q-3 -4 -9.5 -10.5t-27.5 -23t-44.5 -29.5t-61 -23.5
t-76.5 -10.5q-97 0 -166 66t-69 153z" />
    <glyph glyph-name="s_p" horiz-adv-x="1100" 
d="M435 -210l149 700q2 16 2 22q0 26 -17.5 42t-43.5 16q-36 0 -61.5 -23.5t-25.5 -61.5q0 -36 32 -60l-97 -84q-31 24 -65 24q-22 0 -34.5 -8.5t-12.5 -21.5q0 -10 17.5 -20t42.5 -20.5t49.5 -25t42 -40.5t17.5 -60q0 -77 -61.5 -128t-171.5 -51q-43 0 -81 10t-61.5 24
t-40.5 27.5t-24 23.5l-7 10l102 88q3 -5 10 -13t30 -21.5t50 -13.5q22 0 34.5 8.5t12.5 21.5q0 10 -17.5 20t-42 20.5t-49.5 25t-42.5 40.5t-17.5 60q0 75 58.5 125.5t164.5 53.5q18 104 89 162t180 58q91 0 152.5 -51t61.5 -129q0 -29 -5 -50l-12 -54q2 3 6 7t17 15
t28.5 19.5t40 15.5t51.5 7q77 0 132.5 -60t55.5 -146q0 -131 -83 -217.5t-189 -86.5q-27 0 -51.5 8t-39.5 19t-26 22t-16 19l-5 8l-58 -276h-170zM814 350q-47 0 -81 -37t-34 -86q0 -36 24.5 -61.5t57.5 -25.5q44 0 78.5 36t34.5 89q0 35 -24 60t-56 25z" />
    <glyph glyph-name="f_t" horiz-adv-x="755" 
d="M513 535l20 95h150l-34 -160h100l-31 -150h-100l-28 -130q-11 -50 42 -50q12 0 25.5 2.5t20.5 5.5l8 2l-30 -145q-49 -15 -104 -15q-83 0 -118.5 48.5t-15.5 141.5l30 140h-170l-68 -320h-170l68 320h-65l31 150h65l11 50q41 190 212 190q24 0 49 -4t38 -8l13 -3
l-31 -145q-17 10 -47 10q-56 0 -66 -50l-9 -40h130q27 0 47.5 17.5t26.5 47.5z" />
    <glyph glyph-name="zero.tab" horiz-adv-x="670" 
d="M398 551q-40 0 -73 -28t-51.5 -71t-28.5 -87t-10 -81q0 -65 27 -99.5t68 -34.5q55 0 109 71.5t54 197.5q0 64 -27.5 98t-67.5 34zM685 418q0 -74 -25 -150.5t-69.5 -141t-116.5 -105.5t-157 -41q-117 0 -195.5 85t-78.5 219q0 96 32 179.5t84 138.5t117.5 86.5
t133.5 31.5q117 0 196 -84.5t79 -217.5z" />
    <glyph glyph-name="one.tab" horiz-adv-x="670" 
d="M403 700h165l-148 -700h-190l104 490h-115l24 115q29 4 56 15.5t45 24.5t32 25.5t20 21.5z" />
    <glyph glyph-name="two.tab" horiz-adv-x="670" 
d="M545 0h-520q15 83 53 149.5t84 104.5t97 70.5t92.5 54t68.5 49.5t27 61q0 23 -16 37t-47 14q-29 0 -55 -16.5t-37 -32.5l-12 -16l-144 75q3 7 10 18.5t32.5 40.5t55.5 51.5t81.5 41t108.5 18.5q97 0 163.5 -58.5t66.5 -137.5q0 -62 -24 -110t-63.5 -79t-80 -55l-83 -50
t-62.5 -50h242z" />
    <glyph glyph-name="three.tab" horiz-adv-x="670" 
d="M498 360q4 -2 9.5 -5t21 -15.5t27 -27.5t21 -40.5t9.5 -53.5q0 -97 -84.5 -167.5t-221.5 -70.5q-52 0 -98 12t-75 29t-51 33.5t-32 28.5l-9 12l129 111q6 -7 17.5 -18t47.5 -29.5t74 -18.5q48 0 75.5 23.5t27.5 58.5q0 24 -20 41t-57 17h-75l32 150h72q37 0 62.5 22
t25.5 52q0 23 -18.5 39.5t-47.5 16.5q-31 0 -62 -14t-46 -28l-15 -13l-87 110q3 4 9.5 11t30.5 25.5t51 32t71.5 25t93.5 11.5q99 0 163.5 -56.5t64.5 -127.5q0 -22 -5 -42t-12.5 -35.5t-18 -29t-22 -23.5t-23 -18t-21.5 -13t-18 -8.5t-12 -4.5z" />
    <glyph glyph-name="four.tab" horiz-adv-x="670" 
d="M568 275h75l-34 -160h-75l-24 -115h-190l24 115h-315l37 175l367 410h225zM378 275l44 205l-179 -205h135z" />
    <glyph glyph-name="five.tab" horiz-adv-x="670" 
d="M429 460q82 0 136 -58t54 -139q0 -124 -87 -203.5t-224 -79.5q-52 0 -98.5 12t-76 29t-52 33.5t-31.5 28.5l-10 12l131 113q6 -6 17 -16t45.5 -26t70.5 -16q54 0 83 27.5t29 74.5q0 30 -21 49t-58 19q-27 0 -51.5 -10t-35.5 -20l-11 -10l-126 20l110 400h450l-34 -160
h-282l-28 -100q35 20 100 20z" />
    <glyph glyph-name="six.tab" horiz-adv-x="670" 
d="M613 700l-191 -220q90 -9 145.5 -73t55.5 -147q0 -117 -90.5 -198.5t-227.5 -81.5q-107 0 -179.5 63.5t-72.5 149.5q0 54 24.5 108t48.5 81l25 28l252 290h210zM322 140q43 0 75.5 31.5t32.5 75.5q0 30 -21.5 51.5t-53.5 21.5q-43 0 -76 -31t-33 -74q0 -31 21.5 -53
t54.5 -22z" />
    <glyph glyph-name="seven.tab" horiz-adv-x="670" 
d="M188 700h495l-32 -150l-376 -550h-205l363 530h-281z" />
    <glyph glyph-name="eight.tab" horiz-adv-x="670" 
d="M323 140q45 0 75 25.5t30 60.5q0 26 -22 45t-57 19q-45 0 -75 -25.5t-30 -60.5q0 -27 21.5 -45.5t57.5 -18.5zM387 440q36 0 61 20t25 46q0 21 -18 37.5t-47 16.5q-37 0 -62 -20.5t-25 -46.5q0 -21 18.5 -37t47.5 -16zM302 -20q-108 0 -178 60t-70 139q0 31 8.5 58.5
t22 48t30 37.5t32 28t29.5 19t22 12l7 3l-16 13.5t-26 39t-16 64.5q0 86 79.5 152t201.5 66q96 0 161 -57t65 -127q-1 -108 -119 -172l8.5 -5.5t19 -16t23.5 -27t18.5 -38t8.5 -49.5q0 -104 -87 -176t-224 -72z" />
    <glyph glyph-name="nine.tab" horiz-adv-x="670" 
d="M115 0l191 220q-90 9 -145.5 73t-55.5 147q0 117 90.5 198.5t227.5 81.5q107 0 179.5 -63.5t72.5 -149.5q0 -53 -24.5 -107.5t-48.5 -81.5l-25 -28l-252 -290h-210zM406 560q-43 0 -75.5 -31.5t-32.5 -75.5q0 -30 21.5 -51.5t53.5 -21.5q43 0 76 31t33 74q0 31 -21.5 53
t-54.5 22z" />
    <glyph glyph-name="zero.numr" horiz-adv-x="380" 
d="M272 600q-35 0 -53 -33.5t-18 -72.5q0 -25 10 -40t26 -15q25 0 48.5 26.5t23.5 77.5q0 26 -10.5 41.5t-26.5 15.5zM426 555q0 -84 -51.5 -152t-139.5 -68q-68 0 -109.5 40.5t-41.5 108.5q0 98 56 159t135 61q68 0 109.5 -41t41.5 -108z" />
    <glyph glyph-name="one.numr" horiz-adv-x="240" 
d="M198 700h105l-76 -360h-120l48 225h-60l18 85q23 2 44 14.5t31 23.5z" />
    <glyph glyph-name="two.numr" horiz-adv-x="340" 
d="M393 609q0 -35 -16.5 -62t-37 -41t-48.5 -31.5t-40 -29.5h103l-22 -105h-275q10 49 35 86t53.5 57.5t55.5 36t44.5 30t17.5 30.5q0 20 -25 20q-11 0 -22.5 -8t-17.5 -16l-5 -7l-86 39q2 4 6 10.5t18 23t30.5 29.5t45 23.5t59.5 10.5q57 0 92 -27.5t35 -68.5z" />
    <glyph glyph-name="three.numr" horiz-adv-x="345" 
d="M322 526q5 -2 12.5 -6t20 -21t12.5 -39q0 -52 -45 -88.5t-117 -36.5q-48 0 -84.5 16.5t-48.5 32.5l-12 16l71 62q26 -32 71 -32q18 0 30 10.5t12 23.5q0 26 -41 26h-34l17 80h35q40 0 40 26q0 19 -32 19q-13 0 -28.5 -7.5t-24.5 -14.5l-8 -7l-45 64q5 6 15 15t47.5 24.5
t81.5 15.5q55 0 89 -28.5t34 -63.5q0 -11 -2.5 -20.5t-6.5 -17.5t-9 -14.5t-11 -11.5t-11.5 -9t-10.5 -6.5t-9 -4t-6 -2.5z" />
    <glyph glyph-name="four.numr" horiz-adv-x="340" 
d="M389 700l-42 -195h35l-21 -100h-35l-14 -65h-115l14 65h-155l20 95l190 200h123zM182 500h54l17 80z" />
    <glyph glyph-name="five.numr" horiz-adv-x="325" 
d="M272 575q41 0 67.5 -28t26.5 -67q0 -63 -49 -104t-124 -41q-31 0 -57 5.5t-41.5 13.5t-26.5 16.5t-16 13.5l-4 6l73 65q20 -25 65 -25q22 0 36 12.5t14 31.5q0 14 -9.5 22.5t-25.5 8.5q-9 0 -18 -2.5t-13 -4.5l-5 -3h-70l69 205h225l-20 -90h-127l-13 -40q18 5 43 5z" />
    <glyph glyph-name="six.numr" horiz-adv-x="325" 
d="M378 700l-92 -100q39 -10 62.5 -38t23.5 -67q0 -67 -48.5 -113.5t-123.5 -46.5q-58 0 -96 32t-38 79q0 29 12 57.5t24 42.5l12 14l135 140h129zM211 430q20 0 34.5 13.5t14.5 35.5q0 31 -34 31q-22 0 -35.5 -14t-13.5 -37q0 -29 34 -29z" />
    <glyph glyph-name="seven.numr" horiz-adv-x="300" 
d="M113 700h275l-24 -110l-168 -250h-124l167 250h-150z" />
    <glyph glyph-name="eight.numr" horiz-adv-x="330" 
d="M213 430q20 0 32.5 9.5t12.5 22.5q0 11 -10 19.5t-26 8.5q-21 0 -33 -10t-12 -24q0 -10 10 -18t26 -8zM242 565q33 0 33 29q0 9 -7.5 15t-19.5 6q-34 0 -34 -29q0 -21 28 -21zM199 335q-67 0 -104.5 28t-37.5 69q0 36 22.5 61t44.5 32l23 7q-5 2 -11.5 7t-18 21.5
t-11.5 36.5q0 47 41 77.5t115 30.5q60 0 94 -25.5t34 -61.5q0 -31 -19 -54t-34.5 -30t-19.5 -7q2 -1 5.5 -2.5t13 -8t16.5 -14t13 -20t6 -27.5q0 -52 -45 -86t-127 -34z" />
    <glyph glyph-name="nine.numr" horiz-adv-x="325" 
d="M77 340l92 100q-39 10 -62.5 38t-23.5 67q0 67 48.5 113.5t123.5 46.5q58 0 96 -32t38 -79q0 -29 -12 -57.5t-24 -42.5l-12 -14l-135 -140h-129zM244 610q-20 0 -34.5 -13.5t-14.5 -35.5q0 -31 34 -31q21 0 35 14t14 37q0 29 -34 29z" />
    <glyph glyph-name="zero.dnom" horiz-adv-x="380" 
d="M198 250q-35 0 -53 -33.5t-18 -72.5q0 -25 10 -40t26 -15q25 0 48.5 26.5t23.5 77.5q0 26 -10.5 41.5t-26.5 15.5zM352 205q0 -84 -51.5 -152t-139.5 -68q-68 0 -109.5 40.5t-41.5 108.5q0 98 56 159t135 61q68 0 109.5 -41t41.5 -108z" />
    <glyph glyph-name="one.dnom" horiz-adv-x="240" 
d="M124 350h105l-77 -360h-120l48 225h-60l18 85q23 2 44.5 14.5t31.5 23.5z" />
    <glyph glyph-name="two.dnom" horiz-adv-x="340" 
d="M318 259q0 -35 -16.5 -62t-37 -41t-48.5 -31.5t-40 -29.5h103l-22 -105h-275q10 49 35 86t53.5 57.5t55.5 36t44.5 30t17.5 30.5q0 20 -25 20q-11 0 -22.5 -8t-16.5 -16l-6 -7l-86 39q2 4 6 10.5t18 23t30.5 29.5t45 23.5t59.5 10.5q57 0 92 -27.5t35 -68.5z" />
    <glyph glyph-name="three.dnom" horiz-adv-x="345" 
d="M247 176q5 -2 12.5 -6t20 -21t12.5 -39q0 -52 -45 -88.5t-117 -36.5q-48 0 -84.5 16.5t-48.5 32.5l-12 16l71 62q26 -32 71 -32q18 0 30 10.5t12 23.5q0 26 -41 26h-34l17 80h35q40 0 40 26q0 19 -32 19q-13 0 -28.5 -7.5t-23.5 -14.5l-9 -7l-45 64q5 6 15 15t47.5 24.5
t81.5 15.5q55 0 89 -28.5t34 -63.5q0 -11 -2.5 -20.5t-6.5 -17.5t-9 -14.5t-11 -11.5t-11.5 -9t-10.5 -6.5t-9 -4t-6 -2.5z" />
    <glyph glyph-name="four.dnom" horiz-adv-x="340" 
d="M314 350l-42 -195h35l-21 -100h-35l-14 -65h-115l14 65h-155l20 95l190 200h123zM107 150h54l17 80z" />
    <glyph glyph-name="five.dnom" horiz-adv-x="325" 
d="M197 225q41 0 67.5 -28t26.5 -67q0 -63 -49 -104t-124 -41q-31 0 -57 5.5t-41.5 13.5t-26.5 16.5t-15 13.5l-5 6l73 65q20 -25 65 -25q22 0 36 12.5t14 31.5q0 14 -9.5 22.5t-25.5 8.5q-9 0 -18 -2.5t-14 -4.5l-4 -3h-70l69 205h225l-20 -90h-127l-13 -40q18 5 43 5z" />
    <glyph glyph-name="six.dnom" horiz-adv-x="325" 
d="M304 350l-92 -100q39 -10 62.5 -38t23.5 -67q0 -67 -48.5 -113.5t-123.5 -46.5q-58 0 -96 32t-38 79q0 29 12 57.5t24 42.5l12 14l135 140h129zM137 80q20 0 34.5 13.5t14.5 35.5q0 31 -34 31q-22 0 -35.5 -14t-13.5 -37q0 -29 34 -29z" />
    <glyph glyph-name="seven.dnom" horiz-adv-x="300" 
d="M39 350h275l-24 -110l-168 -250h-124l167 250h-150z" />
    <glyph glyph-name="eight.dnom" horiz-adv-x="330" 
d="M138 80q20 0 32.5 9.5t12.5 22.5q0 11 -10 19.5t-26 8.5q-21 0 -33 -10t-12 -24q0 -10 10 -18t26 -8zM167 215q33 0 33 29q0 9 -7.5 15t-19.5 6q-34 0 -34 -29q0 -21 28 -21zM124 -15q-67 0 -104.5 28t-37.5 69q0 36 22.5 61t45.5 32l22 7q-5 2 -11.5 7t-18 21.5
t-11.5 36.5q0 47 41 77.5t115 30.5q60 0 94 -25.5t34 -61.5q0 -31 -19 -54t-34.5 -30t-19.5 -7q2 -1 5.5 -2.5t13 -8t16.5 -14t13 -20t6 -27.5q0 -52 -45 -86t-127 -34z" />
    <glyph glyph-name="nine.dnom" horiz-adv-x="325" 
d="M2 -10l92 100q-39 10 -62.5 38t-23.5 67q0 67 48.5 113.5t123.5 46.5q58 0 96 -32t38 -79q0 -29 -12 -57.5t-24 -42.5l-12 -14l-135 -140h-129zM169 260q-20 0 -34.5 -13.5t-14.5 -35.5q0 -31 34 -31q22 0 35.5 14t13.5 37q0 29 -34 29z" />
    <glyph glyph-name="foundryicon" horiz-adv-x="1538" 
d="M278 460v-31h-72v-199h-35v199h-71v31h178zM519 396q32 0 54.5 -25t22.5 -59q0 -36 -22.5 -60.5t-54.5 -24.5q-29 0 -47 21v-79h-34v224h24l9 -19q19 22 48 22zM516 258q19 0 33 16t14 38q0 21 -14 36.5t-33 15.5t-33 -15.5t-14 -36.5q0 -22 13.5 -38t33.5 -16zM333 277
l44 116h37l-77 -190q-16 -34 -49 -34q-7 0 -10 1v28q23 0 31 20l6 16l-63 159h37zM701 396q32 0 54 -24.5t22 -58.5l-1 -15h-119q2 -17 14.5 -29t29.5 -12q27 0 37 17h35q-9 -22 -28.5 -34.5t-43.5 -12.5q-32 0 -55 24.5t-23 60.5q0 35 23 59.5t55 24.5zM657 325h88
q-1 17 -14.5 28.5t-29.5 11.5t-29 -11t-15 -29zM939 460v-31h-72v-199h-35v199h-71v31h178zM1180 396q32 0 54.5 -25t22.5 -59q0 -36 -22.5 -60.5t-54.5 -24.5q-29 0 -47 21v-79h-34v224h24l9 -19q19 22 48 22zM1177 258q19 0 33 16t14 38q0 21 -14 36.5t-33 15.5t-33 -15.5
t-14 -36.5q0 -22 13.5 -38t33.5 -16zM994 277l44 116h37l-77 -190q-16 -34 -49 -34q-7 0 -10 1v28q23 0 31 20l6 16l-63 159h37zM1362 396q32 0 54 -24.5t22 -58.5l-1 -15h-119q2 -17 14.5 -29t29.5 -12q27 0 37 17h35q-9 -22 -28.5 -34.5t-43.5 -12.5q-32 0 -55 24.5
t-23 60.5q0 35 23 59.5t55 24.5zM1318 325h88q-1 17 -14.5 28.5t-29.5 11.5t-29 -11t-15 -29z" />
    </font>
</defs>
</svg>
