<?xml version="1.0" standalone="no"?>
<!DOCTYPE svg PUBLIC "-//W3C//DTD SVG 1.1//EN" "http://www.w3.org/Graphics/SVG/1.1/DTD/svg11.dtd" >
<svg>
<metadata>
Created by FontForge 20090622 at Sat Aug 19 12:20:43 2017
 By deploy user
Copyright (c) 2017 by TypeType. Designers Ivan Gladkikh, Pavel Emelyanov. Technical designers Olexa Volochay, Nadyr Rakhimov, Dmitriy Greshnev. All rights reserved.
</metadata>
<defs>
<font id="TTNorms-ExtraBold" horiz-adv-x="610" >
  <font-face 
    font-family="TT Norms ExtraBold"
    font-weight="800"
    font-stretch="normal"
    units-per-em="1000"
    panose-1="2 0 5 3 4 0 0 2 0 4"
    ascent="800"
    descent="-200"
    x-height="490"
    cap-height="700"
    bbox="-180 -245 1438 995"
    underline-thickness="50"
    underline-position="-50"
    unicode-range="U+000D-U+FB06"
  />
<missing-glyph horiz-adv-x="0" 
 />
    <glyph glyph-name="f_f" unicode="ff" horiz-adv-x="720" 
d="M695 470v-150h-105v-320h-170v320h-165v-320h-170v320h-65v150h65v40q0 93 46 141.5t129 48.5q24 0 49 -4t38 -8l13 -3v-145q-20 10 -50 10q-26 0 -40.5 -13.5t-14.5 -36.5v-30h165v60q0 93 46 141.5t129 48.5q24 0 49 -4t38 -8l13 -3v-145q-20 10 -50 10
q-26 0 -40.5 -13.5t-14.5 -36.5v-50h105z" />
    <glyph glyph-name="uniFB01" unicode="fi" horiz-adv-x="660" 
d="M590 470v-470h-170v320h-165v-320h-170v320h-65v150h65v50q0 93 46 141.5t129 48.5q24 0 49 -4t38 -8l13 -3v-145q-20 10 -50 10q-26 0 -40.5 -13.5t-14.5 -36.5v-40h335zM600 635q0 -38 -27 -64t-68 -26t-68 26t-27 64t27 64t68 26t68 -26t27 -64z" />
    <glyph glyph-name="f_f_i" unicode="ffi" horiz-adv-x="1000" 
d="M930 470v-470h-170v320h-170v-320h-170v320h-165v-320h-170v320h-65v150h65v40q0 93 46 141.5t129 48.5q24 0 49 -4t38 -8l13 -3v-145q-20 10 -50 10q-26 0 -40.5 -13.5t-14.5 -36.5v-30h165v60q0 93 46 141.5t129 48.5q24 0 49 -4t38 -8l13 -3v-145q-20 10 -50 10
q-26 0 -40.5 -13.5t-14.5 -36.5v-50h340zM940 635q0 -38 -27 -64t-68 -26t-68 26t-27 64t27 64t68 26t68 -26t27 -64z" />
    <glyph glyph-name=".notdef" horiz-adv-x="0" 
 />
    <glyph glyph-name=".null" horiz-adv-x="0" 
 />
    <glyph glyph-name=".null" horiz-adv-x="0" 
 />
    <glyph glyph-name="nonmarkingreturn" horiz-adv-x="333" 
 />
    <glyph glyph-name="CR" unicode="&#xd;" horiz-adv-x="0" 
 />
    <glyph glyph-name="space" unicode=" " horiz-adv-x="210" 
 />
    <glyph glyph-name="exclam" unicode="!" horiz-adv-x="350" 
d="M245 220h-140l-30 480h200zM80 80q0 38 27 64t68 26t68 -26t27 -64t-27 -64t-68 -26t-68 26t-27 64z" />
    <glyph glyph-name="quotedbl" unicode="&#x22;" horiz-adv-x="460" 
d="M200 700v-250h-150v250h150zM410 700v-250h-150v250h150z" />
    <glyph glyph-name="numbersign" unicode="#" horiz-adv-x="760" 
d="M15 170l25 120h120l25 120h-115l25 120h115l35 170h150l-35 -170h115l35 170h150l-35 -170h120l-25 -120h-120l-25 -120h115l-25 -120h-115l-35 -170h-150l35 170h-115l-35 -170h-150l35 170h-120zM335 410l-25 -120h115l25 120h-115z" />
    <glyph glyph-name="dollar" unicode="$" 
d="M370 215q0 19 -18 33t-46.5 23.5t-63.5 20t-69.5 26.5t-63 38.5t-46.5 60.5t-18 88q0 70 52 128.5t138 78.5v88h160v-89q49 -11 89 -34t56 -40l15 -17l-110 -115q-5 6 -14.5 15t-39.5 24.5t-61 15.5q-32 0 -53.5 -18t-21.5 -42q0 -19 18 -33t46.5 -23.5l63 -20
t69.5 -26.5t63.5 -38.5t46.5 -60.5t18 -88q0 -77 -49.5 -136.5t-135.5 -81.5v-92h-160v85q-40 6 -76.5 20.5t-60.5 30t-42.5 30.5t-27.5 24l-8 10l110 115q2 -3 7 -8t20 -18t31.5 -23t41.5 -18t50 -8q40 0 65 22t25 53z" />
    <glyph glyph-name="percent" unicode="%" horiz-adv-x="860" 
d="M130 0l440 700h160l-440 -700h-160zM145 545q0 -26 17 -43t43 -17t43 17t17 43t-17 43t-43 17t-43 -17t-17 -43zM385 545q0 -68 -53 -119t-127 -51t-127 51t-53 119t53 119t127 51t127 -51t53 -119zM595 155q0 -26 17 -43t43 -17t43 17t17 43t-17 43t-43 17t-43 -17
t-17 -43zM835 155q0 -68 -53 -119t-127 -51t-127 51t-53 119t53 119t127 51t127 -51t53 -119z" />
    <glyph glyph-name="ampersand" unicode="&#x26;" horiz-adv-x="675" 
d="M580 160q20 -25 50 -25l25 5v-140q-35 -20 -80 -20q-36 0 -68.5 17.5t-46.5 34.5l-15 18q-7 -8 -20 -19.5t-60 -31t-100 -19.5q-102 0 -166 57t-64 138q0 36 14 70t33.5 56.5t39.5 40t34 25.5l14 8l-9 9t-20.5 24.5t-26 37t-20.5 44.5t-9 50q0 73 57.5 126.5t142.5 53.5
q88 0 146.5 -52.5t58.5 -122.5q0 -44 -29 -86.5t-57 -62.5l-29 -21l80 -95q25 30 25 75h160q0 -51 -15 -100t-30 -72zM280 120q22 0 42 9t29 17l9 9l-95 115q-6 -4 -15 -11t-24.5 -29.5t-15.5 -44.5q0 -30 18.5 -47.5t51.5 -17.5zM335 530q0 22 -13.5 36t-36.5 14t-36.5 -14
t-13.5 -36q0 -18 12.5 -38t24.5 -31l13 -11q50 40 50 80z" />
    <glyph glyph-name="quotesingle" unicode="'" horiz-adv-x="250" 
d="M200 700v-250h-150v250h150z" />
    <glyph glyph-name="parenleft" unicode="(" horiz-adv-x="390" 
d="M235 250q0 -64 14 -129.5t33.5 -113t39.5 -85.5t34 -58l14 -19l-130 -80l-19.5 23t-43.5 64t-54.5 102t-43 134t-19.5 162t18.5 161t45 136t53 100t45.5 66l18 22l130 -80l-14.5 -20t-32.5 -56t-41 -87.5t-32.5 -111t-14.5 -130.5z" />
    <glyph glyph-name="parenright" unicode=")" horiz-adv-x="390" 
d="M155 250q0 64 -14 129.5t-34 113t-39.5 85.5t-33.5 58l-14 19l130 80l19.5 -23t43.5 -64t54.5 -102t43 -134t19.5 -162t-18.5 -161t-45 -136t-53 -100t-45.5 -66l-18 -22l-130 80l14.5 20t32.5 56t41 87.5t32.5 111t14.5 130.5z" />
    <glyph glyph-name="asterisk" unicode="*" horiz-adv-x="410" 
d="M270 700l-10 -100l95 35l35 -110l-95 -25l65 -75l-95 -75l-60 90l-60 -90l-95 75l65 75l-95 25l35 110l95 -35l-10 100h130z" />
    <glyph glyph-name="plus" unicode="+" horiz-adv-x="530" 
d="M340 525v-155h155v-155h-155v-155h-150v155h-155v155h155v155h150z" />
    <glyph glyph-name="comma" unicode="," horiz-adv-x="285" 
d="M110 170l135 -80l-140 -220l-110 60z" />
    <glyph glyph-name="hyphen" unicode="-" horiz-adv-x="435" 
d="M400 370v-150h-365v150h365z" />
    <glyph glyph-name="period" unicode="." horiz-adv-x="270" 
d="M40 80q0 38 27 64t68 26t68 -26t27 -64t-27 -64t-68 -26t-68 26t-27 64z" />
    <glyph glyph-name="slash" unicode="/" horiz-adv-x="525" 
d="M495 710l-300 -920h-165l300 920h165z" />
    <glyph glyph-name="zero" unicode="0" horiz-adv-x="710" 
d="M235 350q0 -98 35 -149t85 -51t85 51t35 149t-35 149t-85 51t-85 -51t-35 -149zM665 350q0 -164 -91 -267t-219 -103t-219 103t-91 267t91 267t219 103t219 -103t91 -267z" />
    <glyph glyph-name="one" unicode="1" horiz-adv-x="415" 
d="M170 700h165v-700h-190v490h-115v115q44 7 79 30.5t48 44.5z" />
    <glyph glyph-name="two" unicode="2" horiz-adv-x="605" 
d="M550 0h-520q0 69 17.5 126.5t46 95t62.5 68.5t68 53l62.5 42t46 42.5t17.5 47.5q0 65 -75 65q-29 0 -51.5 -16.5t-30.5 -32.5l-8 -16l-160 75q3 7 8.5 18.5t27.5 40.5t50 51.5t77.5 41t106.5 18.5q111 0 183 -67t72 -163q0 -51 -20 -91.5t-52 -68.5t-65.5 -50.5
l-69 -48.5t-53.5 -51h260v-180z" />
    <glyph glyph-name="three" unicode="3" horiz-adv-x="590" 
d="M435 370q5 -2 13 -5.5t28.5 -17.5t36.5 -32t29 -50t13 -70q0 -86 -75.5 -150.5t-194.5 -64.5q-52 0 -99 12t-77.5 29t-54 33.5t-34.5 28.5l-10 12l110 115q6 -8 17.5 -19.5t48 -31t74.5 -19.5q43 0 69 22t26 53q0 28 -23.5 46.5t-66.5 18.5h-75v150h70q33 0 54 19t21 46
t-21 46t-54 19q-31 0 -60 -14t-42 -28l-13 -13l-110 110q3 4 9 11t28.5 25.5t49 32t70.5 25t93 11.5q112 0 181 -59t69 -141q0 -31 -10.5 -57.5t-25 -43t-29 -28t-24.5 -16.5z" />
    <glyph glyph-name="four" unicode="4" horiz-adv-x="625" 
d="M530 275h75v-160h-75v-115h-190v115h-315v175l295 410h210v-425zM340 275v205l-145 -205h145z" />
    <glyph glyph-name="five" unicode="5" horiz-adv-x="625" 
d="M360 460q98 0 161.5 -64.5t63.5 -165.5q0 -107 -76.5 -178.5t-198.5 -71.5q-52 0 -99 12t-76.5 29t-52 33.5t-32.5 28.5l-10 12l110 115q6 -7 17.5 -17t46.5 -26.5t71 -16.5q48 0 74 23.5t26 61.5t-25.5 61.5t-69.5 23.5q-27 0 -49.5 -10t-31.5 -20l-9 -10l-130 20
l25 400h450v-160h-280l-10 -100q40 20 105 20z" />
    <glyph glyph-name="six" unicode="6" horiz-adv-x="635" 
d="M495 700l-145 -220q109 -11 179.5 -81.5t70.5 -168.5q0 -103 -79.5 -176.5t-200.5 -73.5t-200.5 73.5t-79.5 176.5q0 44 16 89t32 68l17 23l190 290h200zM410 230q0 38 -26 64t-64 26t-64 -26t-26 -64t26 -64t64 -26t64 26t26 64z" />
    <glyph glyph-name="seven" unicode="7" horiz-adv-x="555" 
d="M30 700h495v-150l-260 -550h-200l250 530h-285v170z" />
    <glyph glyph-name="eight" unicode="8" horiz-adv-x="630" 
d="M315 140q40 0 65 22t25 53t-25 53t-65 22t-65 -22t-25 -53t25 -53t65 -22zM315 440q33 0 54 18t21 42t-21 42t-54 18t-54 -18t-21 -42t21 -42t54 -18zM315 -20q-124 0 -199.5 66t-75.5 159q0 34 11.5 63.5t27.5 48.5t32 32.5t27 19.5l12 6q-3 2 -9 5.5t-20.5 16.5
t-26 28.5t-20.5 41t-9 53.5q0 79 71 139.5t179 60.5t179 -60.5t71 -139.5q0 -44 -21.5 -80.5t-42.5 -50.5l-21 -14l11.5 -6t26.5 -19t33.5 -33t26.5 -48t12 -64q0 -93 -75.5 -159t-199.5 -66z" />
    <glyph glyph-name="nine" unicode="9" horiz-adv-x="635" 
d="M140 0l145 220q-109 11 -179.5 81.5t-70.5 168.5q0 103 79.5 176.5t200.5 73.5t200.5 -73.5t79.5 -176.5q0 -44 -16.5 -89t-32.5 -68l-16 -23l-190 -290h-200zM225 470q0 -38 26.5 -64t63.5 -26t63.5 26t26.5 64t-26.5 64t-63.5 26t-63.5 -26t-26.5 -64z" />
    <glyph glyph-name="colon" unicode=":" horiz-adv-x="270" 
d="M40 80q0 38 27 64t68 26t68 -26t27 -64t-27 -64t-68 -26t-68 26t-27 64zM40 410q0 38 27 64t68 26t68 -26t27 -64t-27 -64t-68 -26t-68 26t-27 64z" />
    <glyph glyph-name="semicolon" unicode=";" horiz-adv-x="295" 
d="M65 410q0 38 27 64t68 26t68 -26t27 -64t-27 -64t-68 -26t-68 26t-27 64zM110 170l135 -80l-140 -220l-110 60z" />
    <glyph glyph-name="less" unicode="&#x3c;" horiz-adv-x="520" 
d="M35 185v120l450 190v-155l-240 -95l240 -95v-155z" />
    <glyph glyph-name="equal" unicode="=" horiz-adv-x="495" 
d="M460 260v-140h-425v140h425zM460 470v-140h-425v140h425z" />
    <glyph glyph-name="greater" unicode="&#x3e;" horiz-adv-x="520" 
d="M485 305v-120l-450 -190v155l240 95l-240 95v155z" />
    <glyph glyph-name="question" unicode="?" horiz-adv-x="565" 
d="M180 265q0 37 16 66t39 46.5t45.5 32.5t38.5 32.5t16 37.5q0 23 -18 39t-47 16q-21 0 -38.5 -6t-27.5 -15t-17 -18t-9 -15l-3 -6l-160 75q2 7 7 18.5t26 40.5t48 51.5t76 41t108 18.5q112 0 186 -64t74 -146q0 -49 -18 -88t-44 -64.5t-51.5 -46.5t-43.5 -44t-18 -47h-175
q-10 25 -10 45zM170 80q0 38 27 64t68 26t68 -26t27 -64t-27 -64t-68 -26t-68 26t-27 64z" />
    <glyph glyph-name="at" unicode="@" horiz-adv-x="900" 
d="M440 315q-27 0 -46 -20t-19 -50t19 -50t46 -20t46 20t19 50t-19 50t-46 20zM420 430q24 0 45.5 -9t30.5 -17l9 -9v30h115v-200q0 -22 15.5 -38.5t34.5 -16.5q60 0 60 100q0 111 -79.5 188t-200.5 77q-116 0 -200.5 -84.5t-84.5 -200.5t84.5 -200.5t200.5 -84.5
q49 0 92.5 15t63.5 30l19 15l70 -80q-4 -4 -11 -10t-30.5 -21.5t-50 -27.5t-68.5 -21.5t-85 -9.5q-165 0 -282.5 116.5t-117.5 278.5t117.5 278.5t282.5 116.5q170 0 285 -110.5t115 -264.5q0 -99 -49 -154.5t-126 -55.5q-37 0 -67 15t-42 30l-11 15q-4 -7 -12.5 -17
t-40.5 -26.5t-72 -16.5q-72 0 -121 52t-49 133t47 133t113 52z" />
    <glyph glyph-name="A" unicode="A" horiz-adv-x="740" 
d="M435 300l-65 205l-65 -205h130zM485 150h-230l-50 -150h-205l265 700h210l265 -700h-205z" />
    <glyph glyph-name="B" unicode="B" horiz-adv-x="710" 
d="M415 0h-335v700h315q108 0 174 -55t66 -130q0 -29 -9.5 -55t-22.5 -41.5t-26 -27t-23 -16.5l-9 -5l13.5 -5.5t30 -17t38 -30.5t30 -47t13.5 -65q0 -82 -71.5 -143.5t-183.5 -61.5zM270 150h130q33 0 54 20t21 50t-21 50t-54 20h-130v-140zM375 550h-105v-120h105
q30 0 47.5 16.5t17.5 43.5t-17.5 43.5t-47.5 16.5z" />
    <glyph glyph-name="C" unicode="C" horiz-adv-x="750" 
d="M230 350q0 -86 57 -143t143 -57q53 0 100.5 22.5t68.5 45.5l21 22l110 -120q-4 -6 -11.5 -15.5t-35 -33.5t-59.5 -42.5t-84.5 -33.5t-109.5 -15q-163 0 -276.5 109t-113.5 261t113.5 261t276.5 109q56 0 107 -14.5t84 -35t57.5 -41t35.5 -35.5l11 -14l-115 -120
q-3 4 -8 10t-22.5 21.5t-36.5 27.5t-50 21.5t-63 9.5q-86 0 -143 -57t-57 -143z" />
    <glyph glyph-name="D" unicode="D" horiz-adv-x="760" 
d="M80 700h270q160 0 265 -101t105 -249t-105 -249t-265 -101h-270v700zM350 530h-80v-360h80q73 0 126.5 51.5t53.5 128.5q0 79 -50.5 129.5t-129.5 50.5z" />
    <glyph glyph-name="E" unicode="E" horiz-adv-x="670" 
d="M270 160h360v-160h-550v700h540v-160h-350v-110h270v-150h-270v-120z" />
    <glyph glyph-name="F" unicode="F" horiz-adv-x="650" 
d="M80 700h540v-170h-350v-115h270v-170h-270v-245h-190v700z" />
    <glyph glyph-name="G" unicode="G" horiz-adv-x="810" 
d="M430 -20q-163 0 -276.5 109t-113.5 261t113.5 261t276.5 109q56 0 107 -14.5t84 -35t57.5 -41t35.5 -35.5l11 -14l-115 -120q-3 4 -8 10t-22.5 21.5t-36.5 27.5t-50 21.5t-63 9.5q-86 0 -143 -57t-57 -143t57 -143t143 -57q36 0 66 11t42 23l12 11v75h-110v120h300v-270
q-4 -6 -13 -15.5t-38.5 -33.5t-63 -42.5t-86.5 -33.5t-109 -15z" />
    <glyph glyph-name="H" unicode="H" horiz-adv-x="795" 
d="M715 700v-700h-190v270h-255v-270h-190v700h190v-260h255v260h190z" />
    <glyph glyph-name="I" unicode="I" horiz-adv-x="350" 
d="M80 0v700h190v-700h-190z" />
    <glyph glyph-name="J" unicode="J" horiz-adv-x="525" 
d="M260 700h190v-460q0 -116 -71 -188t-184 -72q-38 0 -73 9.5t-58 22.5t-40.5 26t-25.5 22l-8 10l115 115q25 -35 75 -35q34 0 57 25t23 65v460z" />
    <glyph glyph-name="K" unicode="K" horiz-adv-x="730" 
d="M345 265l-75 -85v-180h-190v700h190v-270l230 270h220l-250 -290l270 -410h-220z" />
    <glyph glyph-name="L" unicode="L" horiz-adv-x="600" 
d="M580 0h-500v700h190v-530h310v-170z" />
    <glyph glyph-name="M" unicode="M" horiz-adv-x="930" 
d="M465 170l-195 245v-415h-190v700h170l215 -275l215 275h170v-700h-190v415z" />
    <glyph glyph-name="N" unicode="N" horiz-adv-x="815" 
d="M545 700h190v-700h-164l-301 390v-390h-190v700h165l300 -390v390z" />
    <glyph glyph-name="O" unicode="O" horiz-adv-x="860" 
d="M235 350q0 -86 56 -143t139 -57t139 57t56 143t-56 143t-139 57t-139 -57t-56 -143zM820 350q0 -152 -113.5 -261t-276.5 -109t-276.5 109t-113.5 261t113.5 261t276.5 109t276.5 -109t113.5 -261z" />
    <glyph glyph-name="P" unicode="P" horiz-adv-x="695" 
d="M80 700h315q115 0 187.5 -69.5t72.5 -175.5t-72.5 -175.5t-187.5 -69.5h-125v-210h-190v700zM385 530h-115v-150h115q33 0 56.5 22.5t23.5 52.5t-23.5 52.5t-56.5 22.5z" />
    <glyph glyph-name="Q" unicode="Q" horiz-adv-x="860" 
d="M820 350q0 -60 -19 -114.5t-46 -89.5t-54.5 -61.5t-46.5 -38.5l-19 -11q5 -7 15 -17t49.5 -26.5t90.5 -16.5h25v-150h-35q-61 0 -115.5 16t-88.5 38.5t-59.5 45.5t-36.5 39l-10 16h-40q-163 0 -276.5 109t-113.5 261t113.5 261t276.5 109t276.5 -109t113.5 -261zM235 350
q0 -86 56 -143t139 -57t139 57t56 143t-56 143t-139 57t-139 -57t-56 -143z" />
    <glyph glyph-name="R" unicode="R" horiz-adv-x="720" 
d="M80 0v700h330q111 0 183 -69t72 -171q0 -42 -12.5 -78.5t-30 -59t-35 -38.5t-29.5 -22l-13 -7l145 -255h-200l-120 220h-100v-220h-190zM475 460q0 30 -21 50t-54 20h-130v-140h130q33 0 54 20t21 50z" />
    <glyph glyph-name="S" unicode="S" 
d="M370 215q0 19 -18 33t-46.5 23.5t-63.5 20t-69.5 26.5t-63 38.5t-46.5 60.5t-18 88q0 86 74.5 150.5t190.5 64.5q48 0 90.5 -10.5t69.5 -25t47.5 -29t28.5 -25.5l9 -10l-110 -115q-5 6 -14.5 15t-39.5 24.5t-61 15.5q-32 0 -53.5 -18t-21.5 -42q0 -19 18 -33t46.5 -23.5
l63 -20t69.5 -26.5t63.5 -38.5t46.5 -60.5t18 -88q0 -97 -76.5 -163.5t-203.5 -66.5q-52 0 -100 12.5t-79 30t-55 35t-35 30.5l-11 12l110 115q2 -3 7 -8t20 -18t31.5 -23t41.5 -18t50 -8q40 0 65 22t25 53z" />
    <glyph glyph-name="T" unicode="T" horiz-adv-x="620" 
d="M20 700h580v-170h-195v-530h-190v530h-195v170z" />
    <glyph glyph-name="U" unicode="U" horiz-adv-x="790" 
d="M395 150q53 0 91.5 40.5t38.5 99.5v410h190v-410q0 -132 -91 -221t-229 -89t-229 89t-91 221v410h190v-410q0 -59 38.5 -99.5t91.5 -40.5z" />
    <glyph glyph-name="V" unicode="V" horiz-adv-x="730" 
d="M260 0l-250 700h205l150 -480l150 480h205l-250 -700h-210z" />
    <glyph glyph-name="W" unicode="W" horiz-adv-x="1080" 
d="M540 405l-130 -405h-170l-230 700h205l120 -425l125 425h160l125 -425l120 425h205l-230 -700h-170z" />
    <glyph glyph-name="X" unicode="X" horiz-adv-x="710" 
d="M355 235l-140 -235h-210l230 365l-210 335h210l120 -205l120 205h210l-210 -335l230 -365h-210z" />
    <glyph glyph-name="Y" unicode="Y" horiz-adv-x="690" 
d="M485 700h205l-250 -450v-250h-190v250l-250 450h205l140 -270z" />
    <glyph glyph-name="Z" unicode="Z" horiz-adv-x="660" 
d="M355 530h-295v170h545v-170l-310 -360h320v-170h-570v170z" />
    <glyph glyph-name="bracketleft" unicode="[" horiz-adv-x="395" 
d="M250 560v-620h110v-150h-280v920h280v-150h-110z" />
    <glyph glyph-name="backslash" unicode="\" horiz-adv-x="525" 
d="M330 -210l-300 920h165l300 -920h-165z" />
    <glyph glyph-name="bracketright" unicode="]" horiz-adv-x="395" 
d="M145 -60v620h-110v150h280v-920h-280v150h110z" />
    <glyph glyph-name="asciicircum" unicode="^" horiz-adv-x="450" 
d="M160 700h130l135 -305h-140l-60 140l-60 -140h-140z" />
    <glyph glyph-name="underscore" unicode="_" horiz-adv-x="350" 
d="M360 -80v-155h-370v155h370z" />
    <glyph glyph-name="grave" unicode="`" horiz-adv-x="325" 
d="M210 711l85 -161h-145l-120 161h180z" />
    <glyph glyph-name="a" unicode="a" horiz-adv-x="550" 
d="M485 0h-170v55q-5 -7 -15 -18t-43.5 -29t-71.5 -18q-70 0 -115 41t-45 99q0 60 39 100t111 55l140 30q0 20 -18 35t-52 15q-29 0 -55.5 -12.5t-37.5 -24.5l-12 -13l-85 90l8 10.5t24 22.5t41 28.5t57.5 23t74.5 10.5q98 0 161.5 -57.5t63.5 -138.5v-304zM240 120
q31 0 53 24t22 61v15l-75 -15q-19 -4 -32 -17t-13 -28q0 -40 45 -40z" />
    <glyph glyph-name="b" unicode="b" horiz-adv-x="635" 
d="M230 245q0 -44 28.5 -74.5t66.5 -30.5t66.5 30.5t28.5 74.5t-28.5 74.5t-66.5 30.5t-66.5 -30.5t-28.5 -74.5zM230 700v-270q2 3 5.5 7.5t16.5 16.5t28 21.5t39 17t51 7.5q92 0 158.5 -72.5t66.5 -182.5t-66.5 -182.5t-158.5 -72.5q-42 0 -77 17.5t-49 34.5l-14 18v-60
h-170v700h170z" />
    <glyph glyph-name="c" unicode="c" horiz-adv-x="540" 
d="M30 245q0 102 79.5 178.5t190.5 76.5q39 0 75 -10.5t59.5 -25t41.5 -29t26 -25.5l8 -10l-100 -105q-4 6 -11.5 15t-33.5 24.5t-55 15.5q-45 0 -75 -30t-30 -75t30 -75t75 -30q29 0 54 14t36 28l10 13l100 -105l-8.5 -11t-25 -24t-42 -30t-59 -24t-75.5 -11
q-111 0 -190.5 76.5t-79.5 178.5z" />
    <glyph glyph-name="d" unicode="d" horiz-adv-x="635" 
d="M395 245q0 44 -28.5 74.5t-66.5 30.5t-66.5 -30.5t-28.5 -74.5t28.5 -74.5t66.5 -30.5t66.5 30.5t28.5 74.5zM395 430v270h170v-700h-170v60q-2 -3 -5.5 -7.5t-16.5 -16.5t-28 -21.5t-39 -17t-51 -7.5q-92 0 -158.5 72.5t-66.5 182.5t66.5 182.5t158.5 72.5
q42 0 77 -17.5t49 -34.5z" />
    <glyph glyph-name="e" unicode="e" horiz-adv-x="580" 
d="M540 200h-335q4 -29 35 -52t80 -23q31 0 58.5 12.5t39.5 24.5l12 13l75 -110q-3 -3 -9 -8t-26 -18t-42 -23t-57 -18t-71 -8q-115 0 -192.5 74.5t-77.5 180.5q0 105 76 180t184 75t181.5 -71.5t73.5 -173.5zM290 370q-33 0 -55 -19.5t-30 -50.5h170q-8 31 -30 50.5
t-55 19.5z" />
    <glyph glyph-name="f" unicode="f" horiz-adv-x="385" 
d="M360 470v-150h-105v-320h-170v320h-65v150h65v50q0 93 46 141.5t129 48.5q24 0 49 -4t38 -8l13 -3v-145q-20 10 -50 10q-26 0 -40.5 -13.5t-14.5 -36.5v-40h105z" />
    <glyph glyph-name="g" unicode="g" horiz-adv-x="620" 
d="M385 55v35q-2 -3 -6.5 -7.5t-18.5 -16.5t-30 -21.5t-40.5 -17t-49.5 -7.5q-81 0 -145.5 70.5t-64.5 169.5t64.5 169.5t145.5 70.5q40 0 76 -17.5t52 -34.5l17 -18v60h170v-435q0 -110 -80.5 -187.5t-199.5 -77.5q-44 0 -83.5 11t-65 26t-45 30.5t-27.5 26.5l-9 11l95 95
q4 -6 13 -15t40 -24.5t67 -15.5q56 0 90.5 33.5t34.5 86.5zM205 260q0 -38 26.5 -64t63.5 -26t63.5 26t26.5 62q0 39 -26 65.5t-64 26.5q-37 0 -63.5 -26t-26.5 -64z" />
    <glyph glyph-name="h" unicode="h" horiz-adv-x="615" 
d="M230 700v-270q6 8 16.5 19.5t47 31t76.5 19.5q79 0 129.5 -58t50.5 -152v-290h-170v260q0 37 -19.5 58.5t-50.5 21.5q-35 0 -57.5 -25.5t-22.5 -69.5v-245h-170v700h170z" />
    <glyph glyph-name="i" unicode="i" horiz-adv-x="300" 
d="M230 490v-490h-170v490h170zM240 635q0 -38 -27 -64t-68 -26t-68 26t-27 64t27 64t68 26t68 -26t27 -64z" />
    <glyph glyph-name="j" unicode="j" horiz-adv-x="300" 
d="M60 0v490h170v-515q0 -86 -48 -135.5t-127 -49.5q-27 0 -52 4t-37 8l-11 3v150q25 -10 50 -10q23 0 39 16.5t16 38.5zM240 635q0 -38 -27 -64t-68 -26t-68 26t-27 64t27 64t68 26t68 -26t27 -64z" />
    <glyph glyph-name="k" unicode="k" horiz-adv-x="575" 
d="M390 280l185 -280h-185l-115 175l-45 -50v-125h-170v700h170v-380l145 170h195z" />
    <glyph glyph-name="l" unicode="l" horiz-adv-x="300" 
d="M230 700v-700h-170v700h170z" />
    <glyph glyph-name="m" unicode="m" horiz-adv-x="890" 
d="M655 0v260q0 75 -65 75q-28 0 -46.5 -23.5t-18.5 -66.5v-245h-170v260q0 75 -65 75q-28 0 -46.5 -23.5t-18.5 -66.5v-245h-170v490h170v-60l5 7.5t14.5 16.5t25 21.5t35 17t45.5 7.5q44 0 79 -20t48 -40l13 -20q2 3 6.5 8.5t19.5 19.5t32 24.5t45 19t57 8.5
q78 0 126.5 -56t48.5 -154v-290h-170z" />
    <glyph glyph-name="n" unicode="n" 
d="M225 490v-60q6 8 16.5 19.5t47 31t76.5 19.5q79 0 129.5 -58t50.5 -152v-290h-170v260q0 37 -19.5 58.5t-50.5 21.5q-35 0 -57.5 -25.5t-22.5 -69.5v-245h-170v490h170z" />
    <glyph glyph-name="o" unicode="o" 
d="M205 245q0 -44 28.5 -74.5t66.5 -30.5t66.5 30.5t28.5 74.5t-28.5 74.5t-66.5 30.5t-66.5 -30.5t-28.5 -74.5zM570 245q0 -102 -79.5 -178.5t-190.5 -76.5t-190.5 76.5t-79.5 178.5t79.5 178.5t190.5 76.5t190.5 -76.5t79.5 -178.5z" />
    <glyph glyph-name="p" unicode="p" horiz-adv-x="630" 
d="M225 245q0 -44 28.5 -74.5t66.5 -30.5t66.5 30.5t28.5 74.5t-28.5 74.5t-66.5 30.5t-66.5 -30.5t-28.5 -74.5zM225 60v-270h-170v700h170v-60q2 3 5.5 7.5t16.5 16.5t28 21.5t39 17t51 7.5q92 0 158.5 -72.5t66.5 -182.5t-66.5 -182.5t-158.5 -72.5q-42 0 -77 17.5
t-49 34.5z" />
    <glyph glyph-name="q" unicode="q" horiz-adv-x="630" 
d="M395 245q0 44 -28.5 74.5t-66.5 30.5t-66.5 -30.5t-28.5 -74.5t28.5 -74.5t66.5 -30.5t66.5 30.5t28.5 74.5zM395 -210v270q-2 -3 -5.5 -7.5t-16.5 -16.5t-28 -21.5t-39 -17t-51 -7.5q-92 0 -158.5 72.5t-66.5 182.5t66.5 182.5t158.5 72.5q42 0 77 -17.5t49 -34.5
l14 -18v60h170v-700h-170z" />
    <glyph glyph-name="r" unicode="r" horiz-adv-x="395" 
d="M380 320q-20 10 -50 10q-50 0 -77.5 -30.5t-27.5 -89.5v-210h-170v490h170v-60q5 7 15 18t45 29t75 18h20v-175z" />
    <glyph glyph-name="s" unicode="s" horiz-adv-x="470" 
d="M435 425l-85 -90q-30 30 -70 30q-21 0 -33 -9t-12 -21t21 -20.5t51.5 -18.5t60.5 -24.5t51 -45.5t21 -76q0 -67 -56.5 -113.5t-153.5 -46.5q-43 0 -82 10t-63 24t-42 27.5t-25 23.5l-8 10l85 90q4 -6 11.5 -14t32 -22t51.5 -14q21 0 33 9t12 21t-21 20.5t-51.5 18.5
t-60.5 24.5t-51 45.5t-21 76q0 67 56.5 113.5t153.5 46.5q58 0 106.5 -19t68.5 -37z" />
    <glyph glyph-name="t" unicode="t" horiz-adv-x="425" 
d="M115 545v85h150v-150h100v-150h-100v-140q0 -23 15 -36.5t40 -13.5q12 0 24.5 2.5t19.5 5.5l6 2v-145q-45 -15 -100 -15q-83 0 -129 48.5t-46 141.5v150h-75v150h35q27 0 43.5 17.5t16.5 47.5z" />
    <glyph glyph-name="u" unicode="u" horiz-adv-x="615" 
d="M375 0v55q-5 -7 -15 -18t-45 -29t-75 -18q-80 0 -132.5 56.5t-52.5 148.5v295h170v-265q0 -33 20 -54t50 -21q34 0 57 25t23 65v250h170v-490h-170z" />
    <glyph glyph-name="v" unicode="v" horiz-adv-x="540" 
d="M355 0h-180l-180 490h180l90 -285l90 285h180z" />
    <glyph glyph-name="w" unicode="w" horiz-adv-x="790" 
d="M330 490h120l80 -250l80 250h175l-170 -490h-140l-85 240l-85 -240h-140l-170 490h175l80 -250z" />
    <glyph glyph-name="x" unicode="x" horiz-adv-x="530" 
d="M260 140l-85 -140h-180l155 250l-145 240h185l70 -130l70 130h185l-145 -240l155 -250h-180z" />
    <glyph glyph-name="y" unicode="y" horiz-adv-x="540" 
d="M165 -10l10 20l-180 480h180l90 -285l90 285h180l-185 -490q-41 -109 -92.5 -159.5t-122.5 -50.5q-24 0 -48 4t-35 8l-12 3v150q20 -10 50 -10q52 0 75 45z" />
    <glyph glyph-name="z" unicode="z" horiz-adv-x="510" 
d="M460 490v-150l-210 -190h220v-150h-440v150l210 190h-200v150h420z" />
    <glyph glyph-name="braceleft" unicode="{" horiz-adv-x="430" 
d="M50 175v150q30 0 50 20t20 50v120q0 96 45.5 145.5t129.5 49.5h100v-160h-45q-23 0 -39 -17t-16 -43v-110q0 -31 -9 -55.5t-21.5 -38t-24.5 -22.5t-21 -12l-9 -2l9 -3t20.5 -11.5t26 -22.5t20.5 -37.5t9 -55.5v-110q0 -26 16 -43t39 -17h45v-160h-100q-84 0 -129.5 49.5
t-45.5 145.5v120q0 30 -20 50t-50 20z" />
    <glyph glyph-name="bar" unicode="|" horiz-adv-x="405" 
d="M290 710v-920h-175v920h175z" />
    <glyph glyph-name="braceright" unicode="}" horiz-adv-x="430" 
d="M380 325v-150q-30 0 -50 -20t-20 -50v-120q0 -96 -45.5 -145.5t-129.5 -49.5h-100v160h45q23 0 39 17t16 43v110q0 31 9 55.5t21.5 38t24.5 22.5t21 12l9 2l-9 3t-20.5 11.5t-26 22.5t-20.5 37.5t-9 55.5v110q0 26 -16 43t-39 17h-45v160h100q84 0 129.5 -49.5
t45.5 -145.5v-120q0 -30 20 -50t50 -20z" />
    <glyph glyph-name="asciitilde" unicode="~" horiz-adv-x="580" 
d="M220 250q-24 0 -46.5 -11t-33.5 -23l-10 -11l-105 75l5 12.5t16.5 27.5t29.5 35t44 27.5t60 12.5q48 0 99.5 -25t80.5 -25q24 0 46.5 11.5t33.5 22.5l10 11l105 -75l-5 -12.5t-16.5 -27.5t-29.5 -35t-44 -27.5t-60 -12.5q-48 0 -99.5 25t-80.5 25z" />
    <glyph glyph-name="nbspace" unicode="&#xa0;" horiz-adv-x="210" 
 />
    <glyph glyph-name="exclamdown" unicode="&#xa1;" horiz-adv-x="330" 
d="M95 270h140l30 -480h-200zM70 410q0 38 27 64t68 26t68 -26t27 -64t-27 -64t-68 -26t-68 26t-27 64z" />
    <glyph glyph-name="cent" unicode="&#xa2;" horiz-adv-x="530" 
d="M220 -100v100q-83 26 -136.5 94.5t-53.5 150.5t53.5 150.5t136.5 94.5v95h155v-95q38 -11 69 -31t44 -35l12 -14l-100 -105q-3 5 -9 12.5t-29 20t-52 12.5q-45 0 -75 -30t-30 -75t30 -75t75 -30q29 0 51.5 11t30.5 23l8 11l100 -105q-4 -6 -13 -16t-41.5 -31.5
t-70.5 -32.5v-100h-155z" />
    <glyph glyph-name="sterling" unicode="&#xa3;" horiz-adv-x="600" 
d="M115 480q0 109 67 174.5t183 65.5q63 0 116.5 -24t76.5 -48l22 -23l-130 -125l-8.5 11t-25 18t-41.5 11q-34 0 -57 -23t-23 -56v-61h155v-120h-155v-60q0 -18 -6.5 -31.5t-12.5 -18.5l-6 -5h305v-165h-520v165q28 0 44 15t16 40v60h-60v120h60v80z" />
    <glyph glyph-name="currency" unicode="&#xa4;" horiz-adv-x="720" 
d="M305 400h115q33 0 54 20t21 50t-21 50t-54 20h-115v-140zM427 265h-122v-45h200v-135h-200v-85h-190v85h-70v135h70v45h-70v135h70v300h310q117 0 188.5 -63.5t71.5 -156.5t-69.5 -154t-188.5 -61z" />
    <glyph glyph-name="yen" unicode="&#xa5;" horiz-adv-x="690" 
d="M580 245h-140v-40h140v-125h-140v-80h-190v80h-140v125h140v40h-140v125h73l-183 330h205l140 -270l140 270h205l-184 -330h74v-125z" />
    <glyph glyph-name="brokenbar" unicode="&#xa6;" horiz-adv-x="405" 
d="M115 170h175v-380h-175v380zM290 330h-175v380h175v-380z" />
    <glyph glyph-name="section" unicode="&#xa7;" horiz-adv-x="565" 
d="M485 640l-85 -85q-31 31 -70 31q-55 0 -55 -41q0 -17 24.5 -32.5t60 -30.5t71 -35t60 -56.5t24.5 -85.5q0 -25 -9.5 -48.5t-22.5 -38.5t-26 -26.5t-23 -16.5l-9 -5q3 -2 8 -5t18 -14t23 -24t18 -34t8 -43q0 -71 -60.5 -120.5t-164.5 -49.5q-45 0 -84.5 11t-64 26
t-43 30.5t-25.5 26.5l-8 11l85 85q4 -6 12.5 -15t36 -24.5t56.5 -15.5q65 0 65 50q0 22 -26.5 39.5t-63.5 33.5t-74.5 36t-64 56.5t-26.5 84.5q0 25 9.5 48t22.5 37t26 25t22 15l10 5q-7 4 -18 13t-29 39t-18 63q0 64 59 112t156 48q38 0 72 -8t55.5 -20t37.5 -24t23 -20z
M355 295q0 27 -26.5 48t-52.5 29l-26 8q-4 -1 -11 -4t-18 -17t-11 -34q0 -27 26 -48t52 -29l27 -8q4 1 11 4t18 17t11 34z" />
    <glyph glyph-name="dieresis" unicode="&#xa8;" horiz-adv-x="460" 
d="M30 635q0 34 25.5 59.5t59.5 25.5t59.5 -25.5t25.5 -59.5t-25.5 -59.5t-59.5 -25.5t-59.5 25.5t-25.5 59.5zM260 635q0 34 25.5 59.5t59.5 25.5t59.5 -25.5t25.5 -59.5t-25.5 -59.5t-59.5 -25.5t-59.5 25.5t-25.5 59.5z" />
    <glyph glyph-name="copyright" unicode="&#xa9;" horiz-adv-x="870" 
d="M155 350q0 -112 83.5 -196t196.5 -84t196.5 84t83.5 196t-83.5 196t-196.5 84t-196.5 -84t-83.5 -196zM815 350q0 -155 -110 -262.5t-270 -107.5t-270 107.5t-110 262.5t110 262.5t270 107.5t270 -107.5t110 -262.5zM240 350q0 83 59.5 141.5t145.5 58.5q32 0 60 -8
t45.5 -20t30.5 -24t19 -20l5 -8l-70 -70q-3 5 -8.5 12.5t-27.5 20t-49 12.5q-38 0 -66.5 -28.5t-28.5 -66.5t28.5 -66.5t66.5 -28.5q27 0 48 12.5t29 24.5l8 13l70 -70l-6 -9t-18 -20.5t-31 -26t-45 -20.5t-60 -9q-86 0 -145.5 58.5t-59.5 141.5z" />
    <glyph glyph-name="ordfeminine" unicode="&#xaa;" horiz-adv-x="390" 
d="M140 370q-48 0 -76.5 29t-28.5 71q0 38 28.5 65.5t76.5 34.5l95 15q0 12 -12 21t-33 9q-22 0 -41 -7.5t-27 -15.5l-7 -7l-65 65q2 2 5.5 6.5t16.5 14.5t28.5 18t41 14.5t53.5 6.5q71 0 110.5 -38.5t39.5 -106.5v-185h-110v35q-3 -5 -10 -12.5t-31.5 -20t-53.5 -12.5z
M235 520l-60 -15q-25 -7 -25 -30q0 -25 30 -25q19 0 37 19t18 41v10z" />
    <glyph glyph-name="guillemotleft" unicode="&#xab;" horiz-adv-x="595" 
d="M325 420l-130 -180l130 -180h-160l-130 180l130 180h160zM560 420l-130 -180l130 -180h-160l-130 180l130 180h160z" />
    <glyph glyph-name="logicalnot" unicode="&#xac;" horiz-adv-x="490" 
d="M455 425v-265h-150v115h-270v150h420z" />
    <glyph glyph-name="uni00AD" unicode="&#xad;" horiz-adv-x="435" 
d="M400 370v-150h-365v150h365z" />
    <glyph glyph-name="registered" unicode="&#xae;" horiz-adv-x="870" 
d="M530 305l80 -145h-120l-60 110h-35v-110h-115v380h175q59 0 99.5 -38.5t40.5 -91.5q0 -33 -16.5 -59.5t-32.5 -36.5zM395 435v-60h50q15 0 25 9t10 21t-10 21t-25 9h-50zM155 350q0 -112 83.5 -196t196.5 -84q112 0 195 85t83 198q0 112 -82.5 194.5t-195.5 82.5
t-196.5 -84t-83.5 -196zM815 350q0 -155 -110 -262.5t-270 -107.5t-270 107.5t-110 262.5t110 262.5t270 107.5t270 -107.5t110 -262.5z" />
    <glyph glyph-name="macron" unicode="&#xaf;" horiz-adv-x="390" 
d="M360 730v-130h-330v130h330z" />
    <glyph glyph-name="degree" unicode="&#xb0;" horiz-adv-x="400" 
d="M145 555q0 -23 16.5 -39t38.5 -16t38.5 16t16.5 39t-16.5 39t-38.5 16t-38.5 -16t-16.5 -39zM365 555q0 -61 -49 -108t-116 -47t-116 47t-49 108t49 108t116 47t116 -47t49 -108z" />
    <glyph glyph-name="plusminus" unicode="&#xb1;" horiz-adv-x="530" 
d="M190 330h-155v155h155v145h150v-145h155v-155h-155v-145h-150v145zM35 0v140h460v-140h-460z" />
    <glyph glyph-name="twosuperior" unicode="&#xb2;" horiz-adv-x="340" 
d="M310 690q0 -36 -21.5 -62.5t-58 -50t-45.5 -32.5h120v-105h-275q0 47 16 83.5t39 57t45.5 36t38.5 29.5t16 29q0 25 -30 25q-11 0 -21 -7.5t-14 -14.5l-5 -8l-90 37q1 4 4 10.5t14 23.5t26 30t42 23.5t59 10.5q66 0 103 -32.5t37 -82.5z" />
    <glyph glyph-name="threesuperior" unicode="&#xb3;" horiz-adv-x="345" 
d="M255 630q7 -2 17 -6t26.5 -24.5t16.5 -49.5q0 -47 -40 -81t-105 -34q-49 0 -86.5 16.5t-50.5 32.5l-13 16l60 65q30 -35 75 -35q15 0 25 9t10 21q0 16 -10 23t-35 7h-35v80h35q35 0 35 20q0 25 -35 25q-13 0 -27 -7.5t-21 -15.5l-7 -7l-60 65q2 2 5 6t15 13.5t26.5 16.5
t39 13t52.5 6q62 0 99.5 -30t37.5 -70q0 -24 -12.5 -43t-24.5 -26z" />
    <glyph glyph-name="acute" unicode="&#xb4;" horiz-adv-x="325" 
d="M30 550l85 161h180l-120 -161h-145z" />
    <glyph glyph-name="mu" unicode="&#xb5;" 
d="M540 490v-315q0 -30 30 -30l20 5v-145q-25 -15 -65 -15q-29 0 -53.5 7.5t-38 18.5t-23 22.5t-12.5 19.5l-3 7q-2 -3 -6 -8t-18.5 -18t-31.5 -23t-45 -18t-59 -8h-10v-200h-170v700h170v-260q0 -37 19.5 -58.5t50.5 -21.5t53 25t22 65v250h170z" />
    <glyph glyph-name="paragraph" unicode="&#xb6;" horiz-adv-x="670" 
d="M220 -100v420q-77 0 -133.5 57t-56.5 133t56.5 133t133.5 57h370v-800h-150v630h-70v-630h-150z" />
    <glyph glyph-name="periodcentered" unicode="&#xb7;" horiz-adv-x="210" 
d="M10 250q0 38 27 64t68 26t68 -26t27 -64t-27 -64t-68 -26t-68 26t-27 64z" />
    <glyph glyph-name="cedilla" unicode="&#xb8;" horiz-adv-x="310" 
d="M130 20h80l-35 -65q4 0 11 -1t25.5 -6.5t32 -15t25 -28.5t11.5 -44q0 -46 -33 -75.5t-92 -29.5q-33 0 -64.5 12.5t-46.5 24.5l-14 13l40 65q30 -30 65 -30t35 25t-30 25l-25 -5l-30 35z" />
    <glyph glyph-name="onesuperior" unicode="&#xb9;" horiz-adv-x="240" 
d="M95 800h105v-360h-120v225h-60v85q22 2 41 14.5t27 23.5z" />
    <glyph glyph-name="ordmasculine" unicode="&#xba;" horiz-adv-x="400" 
d="M200 480q26 0 43 17t17 43t-17 43t-43 17t-43 -17t-17 -43t17 -43t43 -17zM200 370q-71 0 -123 51t-52 119t52 119t123 51t123 -51t52 -119t-52 -119t-123 -51z" />
    <glyph glyph-name="guillemotright" unicode="&#xbb;" horiz-adv-x="595" 
d="M400 240l-130 180h160l130 -180l-130 -180h-160zM165 240l-130 180h160l130 -180l-130 -180h-160z" />
    <glyph glyph-name="onequarter" unicode="&#xbc;" horiz-adv-x="750" 
d="M70 0l435 700h160l-435 -700h-160zM105 700h105v-360h-120v225h-60v85q22 2 41 14.5t27 23.5zM695 360v-195h35v-100h-35v-65h-115v65h-155v95l155 200h115zM525 160h60v80z" />
    <glyph glyph-name="onehalf" unicode="&#xbd;" horiz-adv-x="790" 
d="M70 0l435 700h160l-435 -700h-160zM105 700h105v-360h-120v225h-60v85q22 2 41 14.5t27 23.5zM760 250q0 -36 -21.5 -62.5t-58 -50t-45.5 -32.5h120v-105h-275q0 47 16 83.5t39 57t45.5 36t38.5 29.5t16 29q0 25 -30 25q-11 0 -21 -7.5t-14 -14.5l-5 -8l-90 37
q1 4 4 10.5t14 23.5t26 30t42 23.5t59 10.5q66 0 103 -32.5t37 -82.5z" />
    <glyph glyph-name="threequarters" unicode="&#xbe;" horiz-adv-x="805" 
d="M125 0l435 700h160l-435 -700h-160zM750 360v-195h35v-100h-35v-65h-115v65h-155v95l155 200h115zM580 160h60v80zM250 530q7 -2 17 -6t26.5 -24.5t16.5 -49.5q0 -47 -40 -81t-105 -34q-49 0 -86.5 16.5t-50.5 32.5l-13 16l60 65q30 -35 75 -35q15 0 25 9t10 21
q0 16 -10 23t-35 7h-35v80h35q35 0 35 20q0 25 -35 25q-13 0 -27 -7.5t-21 -15.5l-7 -7l-60 65q2 2 5 6t15 13.5t26.5 16.5t39 13t52.5 6q62 0 99.5 -30t37.5 -70q0 -24 -12.5 -43t-25.5 -26z" />
    <glyph glyph-name="questiondown" unicode="&#xbf;" horiz-adv-x="500" 
d="M375 225q0 -37 -16 -66t-38.5 -46.5t-45.5 -32.5t-39 -32.5t-16 -37.5q0 -23 18 -39t47 -16q21 0 38.5 6t27.5 15t17 18t10 15l2 6l160 -75q-2 -7 -7 -18.5t-26 -40.5t-48 -51.5t-76 -41t-108 -18.5q-112 0 -186 64t-74 146q0 49 18 88t43.5 64.5t51.5 46.5t44 44t18 47
h175q10 -25 10 -45zM385 410q0 -38 -27 -64t-68 -26t-68 26t-27 64t27 64t68 26t68 -26t27 -64z" />
    <glyph glyph-name="Agrave" unicode="&#xc0;" horiz-adv-x="740" 
d="M435 300l-65 205l-65 -205h130zM485 150h-230l-50 -150h-205l265 700h210l265 -700h-205zM350 941l85 -161h-145l-120 161h180z" />
    <glyph glyph-name="Aacute" unicode="&#xc1;" horiz-adv-x="740" 
d="M435 300l-65 205l-65 -205h130zM485 150h-230l-50 -150h-205l265 700h210l265 -700h-205zM300 780l85 161h180l-120 -161h-145z" />
    <glyph glyph-name="Acircumflex" unicode="&#xc2;" horiz-adv-x="740" 
d="M435 300l-65 205l-65 -205h130zM485 150h-230l-50 -150h-205l265 700h210l265 -700h-205zM415 780l-50 70l-50 -70h-155l130 160h150l130 -160h-155z" />
    <glyph glyph-name="Atilde" unicode="&#xc3;" horiz-adv-x="740" 
d="M435 300l-65 205l-65 -205h130zM485 150h-230l-50 -150h-205l265 700h210l265 -700h-205zM325 820q-35 0 -35 -50h-105q0 85 31 127.5t79 42.5q36 0 71 -25t49 -25q35 0 35 50h105q0 -85 -31 -127.5t-79 -42.5q-36 0 -71 25t-49 25z" />
    <glyph glyph-name="Adieresis" unicode="&#xc4;" horiz-adv-x="740" 
d="M435 300l-65 205l-65 -205h130zM485 150h-230l-50 -150h-205l265 700h210l265 -700h-205zM170 855q0 34 25.5 59.5t59.5 25.5t59.5 -25.5t25.5 -59.5t-25.5 -59.5t-59.5 -25.5t-59.5 25.5t-25.5 59.5zM400 855q0 34 25.5 59.5t59.5 25.5t59.5 -25.5t25.5 -59.5
t-25.5 -59.5t-59.5 -25.5t-59.5 25.5t-25.5 59.5z" />
    <glyph glyph-name="Aring" unicode="&#xc5;" horiz-adv-x="740" 
d="M435 300l-65 205l-65 -205h130zM485 150h-230l-50 -150h-205l265 700h210l265 -700h-205zM335 870q0 -40 40 -40t40 40t-40 40t-40 -40zM505 870q0 -49 -37.5 -84.5t-92.5 -35.5t-92.5 35.5t-37.5 84.5t37.5 84.5t92.5 35.5t92.5 -35.5t37.5 -84.5z" />
    <glyph glyph-name="AE" unicode="&#xc6;" horiz-adv-x="1020" 
d="M655 160h325v-160h-515v155h-225l-85 -155h-195l390 700h620v-160h-315v-110h235v-150h-235v-120zM450 540l-125 -230h140v230h-15z" />
    <glyph glyph-name="Ccedilla" unicode="&#xc7;" horiz-adv-x="750" 
d="M230 350q0 -86 57 -143t143 -57q53 0 100.5 22.5t68.5 45.5l21 22l110 -120l-11 -14t-33.5 -32.5t-57 -41.5t-80.5 -33.5t-105 -17.5l-13 -26q4 0 11 -1t25.5 -6.5t32 -15t25 -28.5t11.5 -44q0 -46 -33.5 -75.5t-91.5 -29.5q-33 0 -64.5 12.5t-45.5 24.5l-15 13l40 65
q30 -30 65 -30t35 25t-30 25l-25 -5l-30 35l29 65q-142 20 -235.5 124.5t-93.5 240.5q0 152 113.5 261t276.5 109q56 0 107 -14.5t84 -35t57.5 -41t35.5 -35.5l11 -14l-115 -120q-3 4 -8 10t-22.5 21.5t-36.5 27.5t-50 21.5t-63 9.5q-86 0 -143 -57t-57 -143z" />
    <glyph glyph-name="Egrave" unicode="&#xc8;" horiz-adv-x="670" 
d="M270 160h360v-160h-550v700h540v-160h-350v-110h270v-150h-270v-120zM350 941l85 -161h-145l-120 161h180z" />
    <glyph glyph-name="Eacute" unicode="&#xc9;" horiz-adv-x="670" 
d="M270 160h360v-160h-550v700h540v-160h-350v-110h270v-150h-270v-120zM280 780l85 161h180l-120 -161h-145z" />
    <glyph glyph-name="Ecircumflex" unicode="&#xca;" horiz-adv-x="670" 
d="M270 160h360v-160h-550v700h540v-160h-350v-110h270v-150h-270v-120zM400 780l-50 70l-50 -70h-155l130 160h150l130 -160h-155z" />
    <glyph glyph-name="Edieresis" unicode="&#xcb;" horiz-adv-x="670" 
d="M270 160h360v-160h-550v700h540v-160h-350v-110h270v-150h-270v-120zM155 855q0 34 25.5 59.5t59.5 25.5t59.5 -25.5t25.5 -59.5t-25.5 -59.5t-59.5 -25.5t-59.5 25.5t-25.5 59.5zM385 855q0 34 25.5 59.5t59.5 25.5t59.5 -25.5t25.5 -59.5t-25.5 -59.5t-59.5 -25.5
t-59.5 25.5t-25.5 59.5z" />
    <glyph glyph-name="Igrave" unicode="&#xcc;" horiz-adv-x="350" 
d="M80 0v700h190v-700h-190zM165 941l85 -161h-145l-120 161h180z" />
    <glyph glyph-name="Iacute" unicode="&#xcd;" horiz-adv-x="350" 
d="M80 0v700h190v-700h-190zM100 780l85 161h180l-120 -161h-145z" />
    <glyph glyph-name="Icircumflex" unicode="&#xce;" horiz-adv-x="350" 
d="M80 0v700h190v-700h-190zM225 780l-50 70l-50 -70h-155l130 160h150l130 -160h-155z" />
    <glyph glyph-name="Idieresis" unicode="&#xcf;" horiz-adv-x="350" 
d="M80 0v700h190v-700h-190zM-25 855q0 34 25.5 59.5t59.5 25.5t59.5 -25.5t25.5 -59.5t-25.5 -59.5t-59.5 -25.5t-59.5 25.5t-25.5 59.5zM205 855q0 34 25.5 59.5t59.5 25.5t59.5 -25.5t25.5 -59.5t-25.5 -59.5t-59.5 -25.5t-59.5 25.5t-25.5 59.5z" />
    <glyph glyph-name="Eth" unicode="&#xd0;" horiz-adv-x="780" 
d="M100 700h270q160 0 265 -101t105 -249t-105 -249t-265 -101h-270v280h-75v140h75v280zM370 530h-80v-110h115v-140h-115v-110h80q73 0 126.5 51.5t53.5 128.5q0 79 -50.5 129.5t-129.5 50.5z" />
    <glyph glyph-name="Ntilde" unicode="&#xd1;" horiz-adv-x="815" 
d="M545 700h190v-700h-164l-301 390v-390h-190v700h165l300 -390v390zM365 820q-35 0 -35 -50h-105q0 85 31 127.5t79 42.5q36 0 71 -25t49 -25q35 0 35 50h105q0 -85 -31 -127.5t-79 -42.5q-36 0 -71 25t-49 25z" />
    <glyph glyph-name="Ograve" unicode="&#xd2;" horiz-adv-x="860" 
d="M235 350q0 -86 56 -143t139 -57t139 57t56 143t-56 143t-139 57t-139 -57t-56 -143zM820 350q0 -152 -113.5 -261t-276.5 -109t-276.5 109t-113.5 261t113.5 261t276.5 109t276.5 -109t113.5 -261zM420 941l85 -161h-145l-120 161h180z" />
    <glyph glyph-name="Oacute" unicode="&#xd3;" horiz-adv-x="860" 
d="M235 350q0 -86 56 -143t139 -57t139 57t56 143t-56 143t-139 57t-139 -57t-56 -143zM820 350q0 -152 -113.5 -261t-276.5 -109t-276.5 109t-113.5 261t113.5 261t276.5 109t276.5 -109t113.5 -261zM360 780l85 161h180l-120 -161h-145z" />
    <glyph glyph-name="Ocircumflex" unicode="&#xd4;" horiz-adv-x="860" 
d="M235 350q0 -86 56 -143t139 -57t139 57t56 143t-56 143t-139 57t-139 -57t-56 -143zM820 350q0 -152 -113.5 -261t-276.5 -109t-276.5 109t-113.5 261t113.5 261t276.5 109t276.5 -109t113.5 -261zM480 780l-50 70l-50 -70h-155l130 160h150l130 -160h-155z" />
    <glyph glyph-name="Otilde" unicode="&#xd5;" horiz-adv-x="860" 
d="M235 350q0 -86 56 -143t139 -57t139 57t56 143t-56 143t-139 57t-139 -57t-56 -143zM820 350q0 -152 -113.5 -261t-276.5 -109t-276.5 109t-113.5 261t113.5 261t276.5 109t276.5 -109t113.5 -261zM392 825q-35 0 -35 -50h-105q0 85 31 127.5t79 42.5q36 0 71 -25t49 -25
q35 0 35 50h105q0 -85 -31 -127.5t-79 -42.5q-36 0 -71 25t-49 25z" />
    <glyph glyph-name="Odieresis" unicode="&#xd6;" horiz-adv-x="860" 
d="M235 350q0 -86 56 -143t139 -57t139 57t56 143t-56 143t-139 57t-139 -57t-56 -143zM820 350q0 -152 -113.5 -261t-276.5 -109t-276.5 109t-113.5 261t113.5 261t276.5 109t276.5 -109t113.5 -261zM230 855q0 34 25.5 59.5t59.5 25.5t59.5 -25.5t25.5 -59.5t-25.5 -59.5
t-59.5 -25.5t-59.5 25.5t-25.5 59.5zM460 855q0 34 25.5 59.5t59.5 25.5t59.5 -25.5t25.5 -59.5t-25.5 -59.5t-59.5 -25.5t-59.5 25.5t-25.5 59.5z" />
    <glyph glyph-name="multiply" unicode="&#xd7;" horiz-adv-x="510" 
d="M35 190l120 120l-120 120l100 100l120 -120l120 120l100 -100l-120 -120l120 -120l-100 -100l-120 120l-120 -120z" />
    <glyph glyph-name="Oslash" unicode="&#xd8;" horiz-adv-x="860" 
d="M250 270l270 260q-30 20 -90 20q-83 0 -139 -57t-56 -143q0 -22 3.5 -42t7.5 -29zM820 350q0 -152 -113.5 -261t-276.5 -109q-60 0 -115 16t-80 32l-25 17l-85 -80l-95 95l80 75q-8 10 -19.5 27.5t-31 73.5t-19.5 114q0 152 113.5 261t276.5 109q60 0 115 -16t80 -32
l25 -17l85 80l95 -95l-80 -75q8 -10 19.5 -27.5t31 -73.5t19.5 -114zM610 430l-270 -260q30 -20 90 -20q83 0 139 57t56 143q0 22 -3.5 42t-7.5 29z" />
    <glyph glyph-name="Ugrave" unicode="&#xd9;" horiz-adv-x="790" 
d="M395 150q53 0 91.5 40.5t38.5 99.5v410h190v-410q0 -132 -91 -221t-229 -89t-229 89t-91 221v410h190v-410q0 -59 38.5 -99.5t91.5 -40.5zM395 941l85 -161h-145l-120 161h180z" />
    <glyph glyph-name="Uacute" unicode="&#xda;" horiz-adv-x="790" 
d="M395 150q53 0 91.5 40.5t38.5 99.5v410h190v-410q0 -132 -91 -221t-229 -89t-229 89t-91 221v410h190v-410q0 -59 38.5 -99.5t91.5 -40.5zM325 780l85 161h180l-120 -161h-145z" />
    <glyph glyph-name="Ucircumflex" unicode="&#xdb;" horiz-adv-x="790" 
d="M395 150q53 0 91.5 40.5t38.5 99.5v410h190v-410q0 -132 -91 -221t-229 -89t-229 89t-91 221v410h190v-410q0 -59 38.5 -99.5t91.5 -40.5zM445 780l-50 70l-50 -70h-155l130 160h150l130 -160h-155z" />
    <glyph glyph-name="Udieresis" unicode="&#xdc;" horiz-adv-x="790" 
d="M395 150q53 0 91.5 40.5t38.5 99.5v410h190v-410q0 -132 -91 -221t-229 -89t-229 89t-91 221v410h190v-410q0 -59 38.5 -99.5t91.5 -40.5zM195 855q0 34 25.5 59.5t59.5 25.5t59.5 -25.5t25.5 -59.5t-25.5 -59.5t-59.5 -25.5t-59.5 25.5t-25.5 59.5zM425 855
q0 34 25.5 59.5t59.5 25.5t59.5 -25.5t25.5 -59.5t-25.5 -59.5t-59.5 -25.5t-59.5 25.5t-25.5 59.5z" />
    <glyph glyph-name="Yacute" unicode="&#xdd;" horiz-adv-x="690" 
d="M485 700h205l-250 -450v-250h-190v250l-250 450h205l140 -270zM275 780l85 161h180l-120 -161h-145z" />
    <glyph glyph-name="Thorn" unicode="&#xde;" horiz-adv-x="685" 
d="M270 645h60q136 0 225.5 -83.5t89.5 -201.5t-89.5 -201.5t-225.5 -83.5h-60v-95h-190v740h190v-75zM270 490v-260h25q80 0 120 34t40 96t-40 96t-120 34h-25z" />
    <glyph glyph-name="germandbls" unicode="&#xdf;" horiz-adv-x="625" 
d="M460 385l13.5 -5.5t30 -18.5t38 -33t30 -50t13.5 -68q0 -89 -68.5 -149.5t-182.5 -60.5h-44v155h45q30 0 50 19t20 46q0 30 -20 50t-50 20h-45v145h10q29 0 49.5 18.5t20.5 41.5q0 27 -20 46t-50 19t-50 -21t-20 -54v-485h-170v485q0 102 65.5 163.5t179.5 61.5
q102 0 166 -56t64 -134q0 -27 -7.5 -50.5t-18.5 -38.5t-22.5 -26t-18.5 -15z" />
    <glyph glyph-name="agrave" unicode="&#xe0;" horiz-adv-x="550" 
d="M485 0h-170v55q-5 -7 -15 -18t-43.5 -29t-71.5 -18q-70 0 -115 41t-45 99q0 60 39 100t111 55l140 30q0 20 -18 35t-52 15q-29 0 -55.5 -12.5t-37.5 -24.5l-12 -13l-85 90l8 10.5t24 22.5t41 28.5t57.5 23t74.5 10.5q98 0 161.5 -57.5t63.5 -138.5v-304zM240 120
q31 0 53 24t22 61v15l-75 -15q-19 -4 -32 -17t-13 -28q0 -40 45 -40zM275 716l85 -161h-145l-120 161h180z" />
    <glyph glyph-name="aacute" unicode="&#xe1;" horiz-adv-x="550" 
d="M485 0h-170v55q-5 -7 -15 -18t-43.5 -29t-71.5 -18q-70 0 -115 41t-45 99q0 60 39 100t111 55l140 30q0 20 -18 35t-52 15q-29 0 -55.5 -12.5t-37.5 -24.5l-12 -13l-85 90l8 10.5t24 22.5t41 28.5t57.5 23t74.5 10.5q98 0 161.5 -57.5t63.5 -138.5v-304zM240 120
q31 0 53 24t22 61v15l-75 -15q-19 -4 -32 -17t-13 -28q0 -40 45 -40zM200 555l85 161h180l-120 -161h-145z" />
    <glyph glyph-name="acircumflex" unicode="&#xe2;" horiz-adv-x="550" 
d="M485 0h-170v55q-5 -7 -15 -18t-43.5 -29t-71.5 -18q-70 0 -115 41t-45 99q0 60 39 100t111 55l140 30q0 20 -18 35t-52 15q-29 0 -55.5 -12.5t-37.5 -24.5l-12 -13l-85 90l8 10.5t24 22.5t41 28.5t57.5 23t74.5 10.5q98 0 161.5 -57.5t63.5 -138.5v-304zM240 120
q31 0 53 24t22 61v15l-75 -15q-19 -4 -32 -17t-13 -28q0 -40 45 -40zM325 555l-50 70l-50 -70h-155l130 160h150l130 -160h-155z" />
    <glyph glyph-name="atilde" unicode="&#xe3;" horiz-adv-x="550" 
d="M485 0h-170v55q-5 -7 -15 -18t-43.5 -29t-71.5 -18q-70 0 -115 41t-45 99q0 60 39 100t111 55l140 30q0 20 -18 35t-52 15q-29 0 -55.5 -12.5t-37.5 -24.5l-12 -13l-85 90l8 10.5t24 22.5t41 28.5t57.5 23t74.5 10.5q98 0 161.5 -57.5t63.5 -138.5v-304zM240 120
q31 0 53 24t22 61v15l-75 -15q-19 -4 -32 -17t-13 -28q0 -40 45 -40zM240 595q-35 0 -35 -50h-105q0 85 31 127.5t79 42.5q36 0 71 -25t49 -25q35 0 35 50h105q0 -85 -31 -127.5t-79 -42.5q-36 0 -71 25t-49 25z" />
    <glyph glyph-name="adieresis" unicode="&#xe4;" horiz-adv-x="550" 
d="M485 0h-170v55q-5 -7 -15 -18t-43.5 -29t-71.5 -18q-70 0 -115 41t-45 99q0 60 39 100t111 55l140 30q0 20 -18 35t-52 15q-29 0 -55.5 -12.5t-37.5 -24.5l-12 -13l-85 90l8 10.5t24 22.5t41 28.5t57.5 23t74.5 10.5q98 0 161.5 -57.5t63.5 -138.5v-304zM240 120
q31 0 53 24t22 61v15l-75 -15q-19 -4 -32 -17t-13 -28q0 -40 45 -40zM80 630q0 34 25.5 59.5t59.5 25.5t59.5 -25.5t25.5 -59.5t-25.5 -59.5t-59.5 -25.5t-59.5 25.5t-25.5 59.5zM310 630q0 34 25.5 59.5t59.5 25.5t59.5 -25.5t25.5 -59.5t-25.5 -59.5t-59.5 -25.5
t-59.5 25.5t-25.5 59.5z" />
    <glyph glyph-name="aring" unicode="&#xe5;" horiz-adv-x="550" 
d="M485 0h-170v55q-5 -7 -15 -18t-43.5 -29t-71.5 -18q-70 0 -115 41t-45 99q0 60 39 100t111 55l140 30q0 20 -18 35t-52 15q-29 0 -55.5 -12.5t-37.5 -24.5l-12 -13l-85 90l8 10.5t24 22.5t41 28.5t57.5 23t74.5 10.5q98 0 161.5 -57.5t63.5 -138.5v-304zM240 120
q31 0 53 24t22 61v15l-75 -15q-19 -4 -32 -17t-13 -28q0 -40 45 -40zM245 655q0 -40 40 -40t40 40t-40 40t-40 -40zM415 655q0 -49 -37.5 -84.5t-92.5 -35.5t-92.5 35.5t-37.5 84.5t37.5 84.5t92.5 35.5t92.5 -35.5t37.5 -84.5z" />
    <glyph glyph-name="ae" unicode="&#xe6;" horiz-adv-x="870" 
d="M255 500q45 0 84 -19t55 -37l16 -19q3 3 7.5 8t21.5 18t36 23t49 18t61 8q105 0 177.5 -71.5t72.5 -173.5q0 -16 -2.5 -29.5t-4.5 -19.5l-3 -6h-330q4 -26 37 -50.5t78 -24.5q29 0 56.5 12.5t40.5 24.5l13 13l75 -110q-3 -3 -9.5 -8t-27 -18t-43 -23t-56.5 -18t-69 -8
q-34 0 -65 9t-52 21t-37 24.5t-24 21.5l-7 9q-2 -3 -7 -9t-22.5 -20.5t-38.5 -26t-55 -20.5t-72 -9q-83 0 -134 43t-51 102q0 139 205 160l95 10q0 27 -19.5 43.5t-55.5 16.5q-29 0 -55 -12.5t-38 -24.5l-12 -13l-85 90l8 10.5t23 22.5t39 28.5t55 23t70 10.5zM580 370
q-33 0 -57.5 -21.5t-32.5 -53.5h175q-4 31 -28 53t-57 22zM235 120q38 0 61.5 25t23.5 65l-70 -5q-32 -2 -48.5 -16t-16.5 -33q0 -13 14.5 -24.5t35.5 -11.5z" />
    <glyph glyph-name="ccedilla" unicode="&#xe7;" horiz-adv-x="540" 
d="M30 245q0 102 79.5 178.5t190.5 76.5q39 0 75 -10.5t59.5 -25t41.5 -29t26 -25.5l8 -10l-100 -105q-4 6 -11.5 15t-33.5 24.5t-55 15.5q-45 0 -75 -30t-30 -75t30 -75t75 -30q29 0 54 14t36 28l10 13l100 -105q-3 -4 -8 -10t-23 -22t-38 -29t-53 -24.5t-69 -13.5l-19 -36
q4 0 11 -1t25.5 -6.5t32 -15t25 -28.5t11.5 -44q0 -46 -33.5 -75.5t-91.5 -29.5q-33 0 -64.5 12.5t-45.5 24.5l-15 13l40 65q30 -30 65 -30t35 25t-30 25l-25 -5l-30 35l34 76q-92 19 -153 89.5t-61 159.5z" />
    <glyph glyph-name="egrave" unicode="&#xe8;" horiz-adv-x="580" 
d="M540 200h-335q4 -29 35 -52t80 -23q31 0 58.5 12.5t39.5 24.5l12 13l75 -110q-3 -3 -9 -8t-26 -18t-42 -23t-57 -18t-71 -8q-115 0 -192.5 74.5t-77.5 180.5q0 105 76 180t184 75t181.5 -71.5t73.5 -173.5zM290 370q-33 0 -55 -19.5t-30 -50.5h170q-8 31 -30 50.5
t-55 19.5zM290 716l85 -161h-145l-120 161h180z" />
    <glyph glyph-name="eacute" unicode="&#xe9;" horiz-adv-x="580" 
d="M540 200h-335q4 -29 35 -52t80 -23q31 0 58.5 12.5t39.5 24.5l12 13l75 -110q-3 -3 -9 -8t-26 -18t-42 -23t-57 -18t-71 -8q-115 0 -192.5 74.5t-77.5 180.5q0 105 76 180t184 75t181.5 -71.5t73.5 -173.5zM290 370q-33 0 -55 -19.5t-30 -50.5h170q-8 31 -30 50.5
t-55 19.5zM220 555l85 161h180l-120 -161h-145z" />
    <glyph glyph-name="ecircumflex" unicode="&#xea;" horiz-adv-x="580" 
d="M540 200h-335q4 -29 35 -52t80 -23q31 0 58.5 12.5t39.5 24.5l12 13l75 -110q-3 -3 -9 -8t-26 -18t-42 -23t-57 -18t-71 -8q-115 0 -192.5 74.5t-77.5 180.5q0 105 76 180t184 75t181.5 -71.5t73.5 -173.5zM290 370q-33 0 -55 -19.5t-30 -50.5h170q-8 31 -30 50.5
t-55 19.5zM340 555l-50 70l-50 -70h-155l130 160h150l130 -160h-155z" />
    <glyph glyph-name="edieresis" unicode="&#xeb;" horiz-adv-x="580" 
d="M540 200h-335q4 -29 35 -52t80 -23q31 0 58.5 12.5t39.5 24.5l12 13l75 -110q-3 -3 -9 -8t-26 -18t-42 -23t-57 -18t-71 -8q-115 0 -192.5 74.5t-77.5 180.5q0 105 76 180t184 75t181.5 -71.5t73.5 -173.5zM290 370q-33 0 -55 -19.5t-30 -50.5h170q-8 31 -30 50.5
t-55 19.5zM90 630q0 34 25.5 59.5t59.5 25.5t59.5 -25.5t25.5 -59.5t-25.5 -59.5t-59.5 -25.5t-59.5 25.5t-25.5 59.5zM320 630q0 34 25.5 59.5t59.5 25.5t59.5 -25.5t25.5 -59.5t-25.5 -59.5t-59.5 -25.5t-59.5 25.5t-25.5 59.5z" />
    <glyph glyph-name="igrave" unicode="&#xec;" horiz-adv-x="300" 
d="M135 716l85 -161h-145l-120 161h180zM230 490v-490h-170v490h170z" />
    <glyph glyph-name="iacute" unicode="&#xed;" horiz-adv-x="300" 
d="M70 555l85 161h180l-120 -161h-145zM230 490v-490h-170v490h170z" />
    <glyph glyph-name="icircumflex" unicode="&#xee;" horiz-adv-x="300" 
d="M230 490v-490h-170v490h170zM195 555l-50 70l-50 -70h-155l130 160h150l130 -160h-155z" />
    <glyph glyph-name="idieresis" unicode="&#xef;" horiz-adv-x="300" 
d="M-55 630q0 34 25.5 59.5t59.5 25.5t59.5 -25.5t25.5 -59.5t-25.5 -59.5t-59.5 -25.5t-59.5 25.5t-25.5 59.5zM175 630q0 34 25.5 59.5t59.5 25.5t59.5 -25.5t25.5 -59.5t-25.5 -59.5t-59.5 -25.5t-59.5 25.5t-25.5 59.5zM230 490v-490h-170v490h170z" />
    <glyph glyph-name="eth" unicode="&#xf0;" 
d="M390 418q-13 41 -37 76.5t-41 50.5l-17 15l-105 -65l-65 90l50 35q-40 15 -80 25l40 125q53 -13 97 -28t61 -24l17 -8l110 75l70 -90l-80 -55q6 -5 15.5 -14.5t34.5 -42t44.5 -69.5t35 -96.5t15.5 -122.5q0 -144 -74 -224.5t-196 -80.5q-111 0 -185.5 70.5t-74.5 169.5
q0 97 70.5 168.5t164.5 71.5q36 0 68.5 -13t47.5 -26zM370 230q0 37 -25.5 63.5t-59.5 26.5t-59.5 -26.5t-25.5 -63.5t25.5 -63.5t59.5 -26.5t59.5 26.5t25.5 63.5z" />
    <glyph glyph-name="ntilde" unicode="&#xf1;" 
d="M225 490v-60q6 8 16.5 19.5t47 31t76.5 19.5q79 0 129.5 -58t50.5 -152v-290h-170v260q0 37 -19.5 58.5t-50.5 21.5q-35 0 -57.5 -25.5t-22.5 -69.5v-245h-170v490h170zM260 595q-35 0 -35 -50h-105q0 85 31 127.5t79 42.5q36 0 71 -25t49 -25q35 0 35 50h105
q0 -85 -31 -127.5t-79 -42.5q-36 0 -71 25t-49 25z" />
    <glyph glyph-name="ograve" unicode="&#xf2;" 
d="M205 245q0 -44 28.5 -74.5t66.5 -30.5t66.5 30.5t28.5 74.5t-28.5 74.5t-66.5 30.5t-66.5 -30.5t-28.5 -74.5zM570 245q0 -102 -79.5 -178.5t-190.5 -76.5t-190.5 76.5t-79.5 178.5t79.5 178.5t190.5 76.5t190.5 -76.5t79.5 -178.5zM290 716l85 -161h-145l-120 161h180z
" />
    <glyph glyph-name="oacute" unicode="&#xf3;" 
d="M205 245q0 -44 28.5 -74.5t66.5 -30.5t66.5 30.5t28.5 74.5t-28.5 74.5t-66.5 30.5t-66.5 -30.5t-28.5 -74.5zM570 245q0 -102 -79.5 -178.5t-190.5 -76.5t-190.5 76.5t-79.5 178.5t79.5 178.5t190.5 76.5t190.5 -76.5t79.5 -178.5zM225 555l85 161h180l-120 -161h-145z
" />
    <glyph glyph-name="ocircumflex" unicode="&#xf4;" 
d="M205 245q0 -44 28.5 -74.5t66.5 -30.5t66.5 30.5t28.5 74.5t-28.5 74.5t-66.5 30.5t-66.5 -30.5t-28.5 -74.5zM570 245q0 -102 -79.5 -178.5t-190.5 -76.5t-190.5 76.5t-79.5 178.5t79.5 178.5t190.5 76.5t190.5 -76.5t79.5 -178.5zM350 555l-50 70l-50 -70h-155l130 160
h150l130 -160h-155z" />
    <glyph glyph-name="otilde" unicode="&#xf5;" 
d="M205 245q0 -44 28.5 -74.5t66.5 -30.5t66.5 30.5t28.5 74.5t-28.5 74.5t-66.5 30.5t-66.5 -30.5t-28.5 -74.5zM570 245q0 -102 -79.5 -178.5t-190.5 -76.5t-190.5 76.5t-79.5 178.5t79.5 178.5t190.5 76.5t190.5 -76.5t79.5 -178.5zM255 595q-35 0 -35 -50h-105
q0 85 31 127.5t79 42.5q36 0 71 -25t49 -25q35 0 35 50h105q0 -85 -31 -127.5t-79 -42.5q-36 0 -71 25t-49 25z" />
    <glyph glyph-name="odieresis" unicode="&#xf6;" 
d="M205 245q0 -44 28.5 -74.5t66.5 -30.5t66.5 30.5t28.5 74.5t-28.5 74.5t-66.5 30.5t-66.5 -30.5t-28.5 -74.5zM570 245q0 -102 -79.5 -178.5t-190.5 -76.5t-190.5 76.5t-79.5 178.5t79.5 178.5t190.5 76.5t190.5 -76.5t79.5 -178.5zM100 630q0 34 25.5 59.5t59.5 25.5
t59.5 -25.5t25.5 -59.5t-25.5 -59.5t-59.5 -25.5t-59.5 25.5t-25.5 59.5zM330 630q0 34 25.5 59.5t59.5 25.5t59.5 -25.5t25.5 -59.5t-25.5 -59.5t-59.5 -25.5t-59.5 25.5t-25.5 59.5z" />
    <glyph glyph-name="divide" unicode="&#xf7;" horiz-adv-x="530" 
d="M495 355v-120h-460v120h460zM170 485q0 34 27.5 59.5t67.5 25.5t67.5 -25.5t27.5 -59.5t-27.5 -59.5t-67.5 -25.5t-67.5 25.5t-27.5 59.5zM170 105q0 34 27.5 59.5t67.5 25.5t67.5 -25.5t27.5 -59.5t-27.5 -59.5t-67.5 -25.5t-67.5 25.5t-27.5 59.5z" />
    <glyph glyph-name="oslash" unicode="&#xf8;" 
d="M300 500q42 0 76 -9t46 -17l13 -9l60 65l80 -80l-55 -60q6 -6 14 -16.5t22 -48.5t14 -80q0 -102 -79.5 -178.5t-190.5 -76.5q-42 0 -76 9t-46 17l-13 9l-60 -65l-80 80l55 60q-6 6 -14 16.5t-22 48.5t-14 80q0 102 79.5 178.5t190.5 76.5zM395 245v15l-115 -115
q5 -5 20 -5q38 0 66.5 30.5t28.5 74.5zM205 230l115 115q-5 5 -20 5q-38 0 -66.5 -30.5t-28.5 -74.5v-15z" />
    <glyph glyph-name="ugrave" unicode="&#xf9;" horiz-adv-x="615" 
d="M375 0v55q-5 -7 -15 -18t-45 -29t-75 -18q-80 0 -132.5 56.5t-52.5 148.5v295h170v-265q0 -33 20 -54t50 -21q34 0 57 25t23 65v250h170v-490h-170zM290 716l85 -161h-145l-120 161h180z" />
    <glyph glyph-name="uacute" unicode="&#xfa;" horiz-adv-x="615" 
d="M375 0v55q-5 -7 -15 -18t-45 -29t-75 -18q-80 0 -132.5 56.5t-52.5 148.5v295h170v-265q0 -33 20 -54t50 -21q34 0 57 25t23 65v250h170v-490h-170zM220 555l85 161h180l-120 -161h-145z" />
    <glyph glyph-name="ucircumflex" unicode="&#xfb;" horiz-adv-x="615" 
d="M375 0v55q-5 -7 -15 -18t-45 -29t-75 -18q-80 0 -132.5 56.5t-52.5 148.5v295h170v-265q0 -33 20 -54t50 -21q34 0 57 25t23 65v250h170v-490h-170zM345 555l-50 70l-50 -70h-155l130 160h150l130 -160h-155z" />
    <glyph glyph-name="udieresis" unicode="&#xfc;" horiz-adv-x="615" 
d="M375 0v55q-5 -7 -15 -18t-45 -29t-75 -18q-80 0 -132.5 56.5t-52.5 148.5v295h170v-265q0 -33 20 -54t50 -21q34 0 57 25t23 65v250h170v-490h-170zM95 630q0 34 25.5 59.5t59.5 25.5t59.5 -25.5t25.5 -59.5t-25.5 -59.5t-59.5 -25.5t-59.5 25.5t-25.5 59.5zM325 630
q0 34 25.5 59.5t59.5 25.5t59.5 -25.5t25.5 -59.5t-25.5 -59.5t-59.5 -25.5t-59.5 25.5t-25.5 59.5z" />
    <glyph glyph-name="yacute" unicode="&#xfd;" horiz-adv-x="540" 
d="M165 -10l10 20l-180 480h180l90 -285l90 285h180l-185 -490q-41 -109 -92.5 -159.5t-122.5 -50.5q-24 0 -48 4t-35 8l-12 3v150q20 -10 50 -10q52 0 75 45zM195 555l85 161h180l-120 -161h-145z" />
    <glyph glyph-name="thorn" unicode="&#xfe;" horiz-adv-x="640" 
d="M235 245q0 -44 28.5 -74.5t66.5 -30.5t66.5 30.5t28.5 74.5t-28.5 74.5t-66.5 30.5t-66.5 -30.5t-28.5 -74.5zM235 60v-270h-170v910h170v-270q2 3 5.5 7.5t16.5 16.5t28 21.5t39 17t51 7.5q92 0 158.5 -72.5t66.5 -182.5t-66.5 -182.5t-158.5 -72.5q-42 0 -77 17.5
t-49 34.5z" />
    <glyph glyph-name="ydieresis" unicode="&#xff;" horiz-adv-x="540" 
d="M165 -10l10 20l-180 480h180l90 -285l90 285h180l-185 -490q-41 -109 -92.5 -159.5t-122.5 -50.5q-24 0 -48 4t-35 8l-12 3v150q20 -10 50 -10q52 0 75 45zM65 630q0 34 25.5 59.5t59.5 25.5t59.5 -25.5t25.5 -59.5t-25.5 -59.5t-59.5 -25.5t-59.5 25.5t-25.5 59.5z
M295 630q0 34 25.5 59.5t59.5 25.5t59.5 -25.5t25.5 -59.5t-25.5 -59.5t-59.5 -25.5t-59.5 25.5t-25.5 59.5z" />
    <glyph glyph-name="Amacron" unicode="&#x100;" horiz-adv-x="740" 
d="M435 300l-65 205l-65 -205h130zM485 150h-230l-50 -150h-205l265 700h210l265 -700h-205zM535 935v-130h-330v130h330z" />
    <glyph glyph-name="amacron" unicode="&#x101;" horiz-adv-x="550" 
d="M485 0h-170v55q-5 -7 -15 -18t-43.5 -29t-71.5 -18q-70 0 -115 41t-45 99q0 60 39 100t111 55l140 30q0 20 -18 35t-52 15q-29 0 -55.5 -12.5t-37.5 -24.5l-12 -13l-85 90l8 10.5t24 22.5t41 28.5t57.5 23t74.5 10.5q98 0 161.5 -57.5t63.5 -138.5v-304zM240 120
q31 0 53 24t22 61v15l-75 -15q-19 -4 -32 -17t-13 -28q0 -40 45 -40zM450 715v-130h-330v130h330z" />
    <glyph glyph-name="Abreve" unicode="&#x102;" horiz-adv-x="740" 
d="M435 300l-65 205l-65 -205h130zM485 150h-230l-50 -150h-205l265 700h210l265 -700h-205zM370 780q-74 0 -122 46t-48 114h120q0 -22 14 -36t36 -14t36 14t14 36h120q0 -68 -48 -114t-122 -46z" />
    <glyph glyph-name="abreve" unicode="&#x103;" horiz-adv-x="550" 
d="M485 0h-170v55q-5 -7 -15 -18t-43.5 -29t-71.5 -18q-70 0 -115 41t-45 99q0 60 39 100t111 55l140 30q0 20 -18 35t-52 15q-29 0 -55.5 -12.5t-37.5 -24.5l-12 -13l-85 90l8 10.5t24 22.5t41 28.5t57.5 23t74.5 10.5q98 0 161.5 -57.5t63.5 -138.5v-304zM240 120
q31 0 53 24t22 61v15l-75 -15q-19 -4 -32 -17t-13 -28q0 -40 45 -40zM280 555q-74 0 -122 46t-48 114h120q0 -23 14 -36.5t36 -13.5t36 13.5t14 36.5h120q0 -68 -48 -114t-122 -46z" />
    <glyph glyph-name="Aogonek" unicode="&#x104;" horiz-adv-x="740" 
d="M535 0l-50 150h-230l-50 -150h-205l265 700h210l265 -700h-130q-30 -50 -30 -100q0 -40 40 -40q13 0 25.5 4t18.5 8l6 3v-90q-35 -20 -90 -20q-52 0 -86 32t-34 78q0 33 19 64.5t37 46.5zM435 300l-65 205l-65 -205h130z" />
    <glyph glyph-name="aogonek" unicode="&#x105;" horiz-adv-x="550" 
d="M485 0h-95q-30 -50 -30 -100q0 -40 40 -40q13 0 25.5 4t18.5 8l6 3v-90q-35 -20 -90 -20q-52 0 -86 32t-34 78q0 33 19 64.5t37 46.5l19 14v55q-5 -7 -15 -18t-43.5 -29t-71.5 -18q-70 0 -115 41t-45 99q0 60 39 100t111 55l140 30q0 20 -18 35t-52 15q-29 0 -55.5 -12.5
t-37.5 -24.5l-12 -13l-85 90l8 10.5t24 22.5t41 28.5t57.5 23t74.5 10.5q98 0 161.5 -57.5t63.5 -138.5v-304zM240 120q31 0 53 24t22 61v15l-75 -15q-19 -4 -32 -17t-13 -28q0 -40 45 -40z" />
    <glyph glyph-name="Cacute" unicode="&#x106;" horiz-adv-x="750" 
d="M230 350q0 -86 57 -143t143 -57q53 0 100.5 22.5t68.5 45.5l21 22l110 -120q-4 -6 -11.5 -15.5t-35 -33.5t-59.5 -42.5t-84.5 -33.5t-109.5 -15q-163 0 -276.5 109t-113.5 261t113.5 261t276.5 109q56 0 107 -14.5t84 -35t57.5 -41t35.5 -35.5l11 -14l-115 -120
q-3 4 -8 10t-22.5 21.5t-36.5 27.5t-50 21.5t-63 9.5q-86 0 -143 -57t-57 -143zM340 780l85 161h180l-120 -161h-145z" />
    <glyph glyph-name="cacute" unicode="&#x107;" horiz-adv-x="540" 
d="M30 245q0 102 79.5 178.5t190.5 76.5q39 0 75 -10.5t59.5 -25t41.5 -29t26 -25.5l8 -10l-100 -105q-4 6 -11.5 15t-33.5 24.5t-55 15.5q-45 0 -75 -30t-30 -75t30 -75t75 -30q29 0 54 14t36 28l10 13l100 -105l-8.5 -11t-25 -24t-42 -30t-59 -24t-75.5 -11
q-111 0 -190.5 76.5t-79.5 178.5zM215 555l85 161h180l-120 -161h-145z" />
    <glyph glyph-name="Ccircumflex" unicode="&#x108;" horiz-adv-x="750" 
d="M230 350q0 -86 57 -143t143 -57q53 0 100.5 22.5t68.5 45.5l21 22l110 -120q-4 -6 -11.5 -15.5t-35 -33.5t-59.5 -42.5t-84.5 -33.5t-109.5 -15q-163 0 -276.5 109t-113.5 261t113.5 261t276.5 109q56 0 107 -14.5t84 -35t57.5 -41t35.5 -35.5l11 -14l-115 -120
q-3 4 -8 10t-22.5 21.5t-36.5 27.5t-50 21.5t-63 9.5q-86 0 -143 -57t-57 -143zM465 780l-50 70l-50 -70h-155l130 160h150l130 -160h-155z" />
    <glyph glyph-name="ccircumflex" unicode="&#x109;" horiz-adv-x="540" 
d="M30 245q0 102 79.5 178.5t190.5 76.5q39 0 75 -10.5t59.5 -25t41.5 -29t26 -25.5l8 -10l-100 -105q-4 6 -11.5 15t-33.5 24.5t-55 15.5q-45 0 -75 -30t-30 -75t30 -75t75 -30q29 0 54 14t36 28l10 13l100 -105l-8.5 -11t-25 -24t-42 -30t-59 -24t-75.5 -11
q-111 0 -190.5 76.5t-79.5 178.5zM340 555l-50 70l-50 -70h-155l130 160h150l130 -160h-155z" />
    <glyph glyph-name="Ccaron" unicode="&#x10c;" horiz-adv-x="750" 
d="M230 350q0 -86 57 -143t143 -57q53 0 100.5 22.5t68.5 45.5l21 22l110 -120q-4 -6 -11.5 -15.5t-35 -33.5t-59.5 -42.5t-84.5 -33.5t-109.5 -15q-163 0 -276.5 109t-113.5 261t113.5 261t276.5 109q56 0 107 -14.5t84 -35t57.5 -41t35.5 -35.5l11 -14l-115 -120
q-3 4 -8 10t-22.5 21.5t-36.5 27.5t-50 21.5t-63 9.5q-86 0 -143 -57t-57 -143zM420 870l50 70h155l-130 -160h-150l-130 160h155z" />
    <glyph glyph-name="ccaron" unicode="&#x10d;" horiz-adv-x="540" 
d="M30 245q0 102 79.5 178.5t190.5 76.5q39 0 75 -10.5t59.5 -25t41.5 -29t26 -25.5l8 -10l-100 -105q-4 6 -11.5 15t-33.5 24.5t-55 15.5q-45 0 -75 -30t-30 -75t30 -75t75 -30q29 0 54 14t36 28l10 13l100 -105l-8.5 -11t-25 -24t-42 -30t-59 -24t-75.5 -11
q-111 0 -190.5 76.5t-79.5 178.5zM290 645l50 70h155l-130 -160h-150l-130 160h155z" />
    <glyph glyph-name="Dcaron" unicode="&#x10e;" horiz-adv-x="760" 
d="M80 700h270q160 0 265 -101t105 -249t-105 -249t-265 -101h-270v700zM350 530h-80v-360h80q73 0 126.5 51.5t53.5 128.5q0 79 -50.5 129.5t-129.5 50.5zM380 870l50 70h155l-130 -160h-150l-130 160h155z" />
    <glyph glyph-name="dcaron" unicode="&#x10f;" horiz-adv-x="720" 
d="M395 245q0 44 -28.5 74.5t-66.5 30.5t-66.5 -30.5t-28.5 -74.5t28.5 -74.5t66.5 -30.5t66.5 30.5t28.5 74.5zM395 430v270h170v-700h-170v60q-2 -3 -5.5 -7.5t-16.5 -16.5t-28 -21.5t-39 -17t-51 -7.5q-92 0 -158.5 72.5t-66.5 182.5t66.5 182.5t158.5 72.5
q42 0 77 -17.5t49 -34.5zM590 540l50 160h160l-75 -160h-135z" />
    <glyph glyph-name="Dcroat" unicode="&#x110;" horiz-adv-x="780" 
d="M100 700h270q160 0 265 -101t105 -249t-105 -249t-265 -101h-270v280h-75v140h75v280zM370 530h-80v-110h115v-140h-115v-110h80q73 0 126.5 51.5t53.5 128.5q0 79 -50.5 129.5t-129.5 50.5z" />
    <glyph glyph-name="dcroat" unicode="&#x111;" horiz-adv-x="630" 
d="M275 490v145h105v65h170v-65h75v-145h-75v-490h-170v55q-5 -7 -15 -18t-46.5 -29t-78.5 -18q-88 0 -151.5 67.5t-63.5 167.5t63.5 167.5t151.5 67.5q27 0 51 -6.5t39.5 -16t27.5 -19.5t17 -16l5 -7v95h-105zM290 130q38 0 64 27t26 68t-26 68t-64 27t-64 -27t-26 -68
t26 -68t64 -27z" />
    <glyph glyph-name="Emacron" unicode="&#x112;" horiz-adv-x="670" 
d="M270 160h360v-160h-550v700h540v-160h-350v-110h270v-150h-270v-120zM520 935v-130h-330v130h330z" />
    <glyph glyph-name="emacron" unicode="&#x113;" horiz-adv-x="580" 
d="M540 200h-335q4 -29 35 -52t80 -23q31 0 58.5 12.5t39.5 24.5l12 13l75 -110q-3 -3 -9 -8t-26 -18t-42 -23t-57 -18t-71 -8q-115 0 -192.5 74.5t-77.5 180.5q0 105 76 180t184 75t181.5 -71.5t73.5 -173.5zM290 370q-33 0 -55 -19.5t-30 -50.5h170q-8 31 -30 50.5
t-55 19.5zM455 705v-130h-330v130h330z" />
    <glyph glyph-name="Edotaccent" unicode="&#x116;" horiz-adv-x="670" 
d="M270 160h360v-160h-550v700h540v-160h-350v-110h270v-150h-270v-120zM460 860q0 -38 -27 -64t-68 -26t-68 26t-27 64t27 64t68 26t68 -26t27 -64z" />
    <glyph glyph-name="edotaccent" unicode="&#x117;" horiz-adv-x="580" 
d="M540 200h-335q4 -29 35 -52t80 -23q31 0 58.5 12.5t39.5 24.5l12 13l75 -110q-3 -3 -9 -8t-26 -18t-42 -23t-57 -18t-71 -8q-115 0 -192.5 74.5t-77.5 180.5q0 105 76 180t184 75t181.5 -71.5t73.5 -173.5zM290 370q-33 0 -55 -19.5t-30 -50.5h170q-8 31 -30 50.5
t-55 19.5zM390 641q0 -38 -27 -64t-68 -26t-68 26t-27 64t27 64t68 26t68 -26t27 -64z" />
    <glyph glyph-name="Eogonek" unicode="&#x118;" horiz-adv-x="670" 
d="M555 0h-475v700h540v-160h-350v-110h270v-150h-270v-120h360v-160q-30 -50 -30 -100q0 -40 40 -40q13 0 25.5 4t18.5 8l6 3v-90q-35 -20 -90 -20q-52 0 -86 32t-34 78q0 33 19 64.5t37 46.5z" />
    <glyph glyph-name="eogonek" unicode="&#x119;" horiz-adv-x="580" 
d="M540 200h-335q4 -29 35 -52t80 -23q31 0 58.5 12.5t39.5 24.5l12 13l75 -110l-19 -16.5t-53.5 -30t-86.5 -25.5q-26 -45 -26 -93q0 -40 40 -40q13 0 25.5 4t18.5 8l6 3v-90q-35 -20 -90 -20q-52 0 -86 32t-34 78q0 67 65 117q-102 12 -168.5 84t-66.5 169q0 105 76 180
t184 75t181.5 -71.5t73.5 -173.5zM290 370q-33 0 -55 -19.5t-30 -50.5h170q-8 31 -30 50.5t-55 19.5z" />
    <glyph glyph-name="Ecaron" unicode="&#x11a;" horiz-adv-x="670" 
d="M270 160h360v-160h-550v700h540v-160h-350v-110h270v-150h-270v-120zM355 870l50 70h155l-130 -160h-150l-130 160h155z" />
    <glyph glyph-name="ecaron" unicode="&#x11b;" horiz-adv-x="580" 
d="M540 200h-335q4 -29 35 -52t80 -23q31 0 58.5 12.5t39.5 24.5l12 13l75 -110q-3 -3 -9 -8t-26 -18t-42 -23t-57 -18t-71 -8q-115 0 -192.5 74.5t-77.5 180.5q0 105 76 180t184 75t181.5 -71.5t73.5 -173.5zM290 370q-33 0 -55 -19.5t-30 -50.5h170q-8 31 -30 50.5
t-55 19.5zM290 645l50 70h155l-130 -160h-150l-130 160h155z" />
    <glyph glyph-name="Gbreve" unicode="&#x11e;" horiz-adv-x="810" 
d="M430 -20q-163 0 -276.5 109t-113.5 261t113.5 261t276.5 109q56 0 107 -14.5t84 -35t57.5 -41t35.5 -35.5l11 -14l-115 -120q-3 4 -8 10t-22.5 21.5t-36.5 27.5t-50 21.5t-63 9.5q-86 0 -143 -57t-57 -143t57 -143t143 -57q36 0 66 11t42 23l12 11v75h-110v120h300v-270
q-4 -6 -13 -15.5t-38.5 -33.5t-63 -42.5t-86.5 -33.5t-109 -15zM420 780q-74 0 -122 46t-48 114h120q0 -22 14 -36t36 -14t36 14t14 36h120q0 -68 -48 -114t-122 -46z" />
    <glyph glyph-name="gbreve" unicode="&#x11f;" horiz-adv-x="620" 
d="M385 55v35q-2 -3 -6.5 -7.5t-18.5 -16.5t-30 -21.5t-40.5 -17t-49.5 -7.5q-81 0 -145.5 70.5t-64.5 169.5t64.5 169.5t145.5 70.5q40 0 76 -17.5t52 -34.5l17 -18v60h170v-435q0 -110 -80.5 -187.5t-199.5 -77.5q-44 0 -83.5 11t-65 26t-45 30.5t-27.5 26.5l-9 11l95 95
q4 -6 13 -15t40 -24.5t67 -15.5q56 0 90.5 33.5t34.5 86.5zM205 260q0 -38 26.5 -64t63.5 -26t63.5 26t26.5 62q0 39 -26 65.5t-64 26.5q-37 0 -63.5 -26t-26.5 -64zM305 555q-74 0 -122 46t-48 114h120q0 -23 13.5 -36.5t36.5 -13.5t36.5 13.5t13.5 36.5h120
q0 -68 -48 -114t-122 -46z" />
    <glyph glyph-name="Gcommaaccent" unicode="&#x122;" horiz-adv-x="810" 
d="M430 -20q-163 0 -276.5 109t-113.5 261t113.5 261t276.5 109q56 0 107 -14.5t84 -35t57.5 -41t35.5 -35.5l11 -14l-115 -120q-3 4 -8 10t-22.5 21.5t-36.5 27.5t-50 21.5t-63 9.5q-86 0 -143 -57t-57 -143t57 -143t143 -57q36 0 66 11t42 23l12 11v75h-110v120h300v-270
q-4 -6 -13 -15.5t-38.5 -33.5t-63 -42.5t-86.5 -33.5t-109 -15zM295 -240l50 160h160l-75 -160h-135z" />
    <glyph glyph-name="gcommaaccent" unicode="&#x123;" horiz-adv-x="620" 
d="M385 55v35q-2 -3 -6.5 -7.5t-18.5 -16.5t-30 -21.5t-40.5 -17t-49.5 -7.5q-81 0 -145.5 70.5t-64.5 169.5t64.5 169.5t145.5 70.5q40 0 76 -17.5t52 -34.5l17 -18v60h170v-435q0 -110 -80.5 -187.5t-199.5 -77.5q-44 0 -83.5 11t-65 26t-45 30.5t-27.5 26.5l-9 11l95 95
q4 -6 13 -15t40 -24.5t67 -15.5q56 0 90.5 33.5t34.5 86.5zM205 260q0 -38 26.5 -64t63.5 -26t63.5 26t26.5 62q0 39 -26 65.5t-64 26.5q-37 0 -63.5 -26t-26.5 -64zM425 715l-50 -160h-160l73 160h137z" />
    <glyph glyph-name="Imacron" unicode="&#x12a;" horiz-adv-x="350" 
d="M80 0v700h190v-700h-190zM340 935v-130h-330v130h330z" />
    <glyph glyph-name="imacron" unicode="&#x12b;" horiz-adv-x="300" 
d="M310 705v-130h-330v130h330zM230 490v-490h-170v490h170z" />
    <glyph glyph-name="Iogonek" unicode="&#x12e;" horiz-adv-x="350" 
d="M5 -125q0 21 7.5 41.5t18.5 35t22.5 26t18.5 16.5l8 6v700h190v-700h-115q-30 -50 -30 -100q0 -40 40 -40q13 0 25.5 4t18.5 8l6 3v-90q-35 -20 -90 -20q-52 0 -86 32t-34 78z" />
    <glyph glyph-name="iogonek" unicode="&#x12f;" horiz-adv-x="300" 
d="M60 0v490h170v-490h-95q-30 -50 -30 -100q0 -40 40 -40q13 0 25.5 4t18.5 8l6 3v-90q-35 -20 -90 -20q-52 0 -86 32t-34 78q0 33 19 64.5t38 46.5zM240 635q0 -38 -27 -64t-68 -26t-68 26t-27 64t27 64t68 26t68 -26t27 -64z" />
    <glyph glyph-name="Idotaccent" unicode="&#x130;" horiz-adv-x="350" 
d="M80 0v700h190v-700h-190zM275 860q0 -38 -27 -64t-68 -26t-68 26t-27 64t27 64t68 26t68 -26t27 -64z" />
    <glyph glyph-name="dotlessi" unicode="&#x131;" horiz-adv-x="300" 
d="M230 490v-490h-170v490h170z" />
    <glyph glyph-name="i_j" unicode="&#x133;" horiz-adv-x="605" 
d="M365 150v340h170v-515q0 -185 -180 -185q-24 0 -49 4t-38 8l-13 3v135q20 -10 40 -10q38 0 54 18.5t16 66.5q-43 -20 -105 -20q-90 0 -145 56t-55 149v290h170v-285q0 -30 21 -50t54 -20q16 0 31 3.5t22 7.5zM240 635q0 -38 -27 -64t-68 -26t-68 26t-27 64t27 64t68 26
t68 -26t27 -64zM545 635q0 -38 -27 -64t-68 -26t-68 26t-27 64t27 64t68 26t68 -26t27 -64z" />
    <glyph glyph-name="Kcommaaccent" unicode="&#x136;" horiz-adv-x="730" 
d="M345 265l-75 -85v-180h-190v700h190v-270l230 270h220l-250 -290l270 -410h-220zM265 -240l50 160h160l-75 -160h-135z" />
    <glyph glyph-name="kcommaaccent" unicode="&#x137;" horiz-adv-x="575" 
d="M390 280l185 -280h-185l-115 175l-45 -50v-125h-170v700h170v-380l145 170h195zM180 -240l50 160h160l-75 -160h-135z" />
    <glyph glyph-name="Lacute" unicode="&#x139;" horiz-adv-x="600" 
d="M580 0h-500v700h190v-530h310v-170zM110 780l85 161h180l-120 -161h-145z" />
    <glyph glyph-name="lacute" unicode="&#x13a;" horiz-adv-x="300" 
d="M230 700v-700h-170v700h170zM80 780l85 161h180l-120 -161h-145z" />
    <glyph glyph-name="Lcommaaccent" unicode="&#x13b;" horiz-adv-x="600" 
d="M580 0h-500v700h190v-530h310v-170zM210 -240l50 160h160l-75 -160h-135z" />
    <glyph glyph-name="lcommaaccent" unicode="&#x13c;" horiz-adv-x="300" 
d="M230 700v-700h-170v700h170zM15 -240l50 160h160l-75 -160h-135z" />
    <glyph glyph-name="Lcaron" unicode="&#x13d;" horiz-adv-x="600" 
d="M580 0h-500v700h190v-530h310v-170zM315 540l50 160h160l-75 -160h-135z" />
    <glyph glyph-name="lcaron" unicode="&#x13e;" horiz-adv-x="390" 
d="M230 700v-700h-170v700h170zM260 540l50 160h160l-75 -160h-135z" />
    <glyph glyph-name="Lslash" unicode="&#x141;" horiz-adv-x="660" 
d="M640 0h-500v210l-75 -40l-80 145l155 85v300h190v-200l75 40l80 -145l-155 -85v-140h310v-170z" />
    <glyph glyph-name="lslash" unicode="&#x142;" horiz-adv-x="400" 
d="M280 700v-210l75 45l75 -130l-150 -90v-315h-170v215l-70 -40l-75 130l145 85v310h170z" />
    <glyph glyph-name="Nacute" unicode="&#x143;" horiz-adv-x="815" 
d="M545 700h190v-700h-164l-301 390v-390h-190v700h165l300 -390v390zM335 780l85 161h180l-120 -161h-145z" />
    <glyph glyph-name="nacute" unicode="&#x144;" 
d="M225 490v-60q6 8 16.5 19.5t47 31t76.5 19.5q79 0 129.5 -58t50.5 -152v-290h-170v260q0 37 -19.5 58.5t-50.5 21.5q-35 0 -57.5 -25.5t-22.5 -69.5v-245h-170v490h170zM230 555l85 161h180l-120 -161h-145z" />
    <glyph glyph-name="Ncommaaccent" unicode="&#x145;" horiz-adv-x="815" 
d="M545 700h190v-700h-164l-301 390v-390h-190v700h165l300 -390v390zM295 -240l50 160h160l-75 -160h-135z" />
    <glyph glyph-name="ncommaaccent" unicode="&#x146;" 
d="M225 490v-60q6 8 16.5 19.5t47 31t76.5 19.5q79 0 129.5 -58t50.5 -152v-290h-170v260q0 37 -19.5 58.5t-50.5 21.5q-35 0 -57.5 -25.5t-22.5 -69.5v-245h-170v490h170zM170 -240l50 160h160l-75 -160h-135z" />
    <glyph glyph-name="Ncaron" unicode="&#x147;" horiz-adv-x="815" 
d="M545 700h190v-700h-164l-301 390v-390h-190v700h165l300 -390v390zM410 870l50 70h155l-130 -160h-150l-130 160h155z" />
    <glyph glyph-name="ncaron" unicode="&#x148;" 
d="M225 490v-60q6 8 16.5 19.5t47 31t76.5 19.5q79 0 129.5 -58t50.5 -152v-290h-170v260q0 37 -19.5 58.5t-50.5 21.5q-35 0 -57.5 -25.5t-22.5 -69.5v-245h-170v490h170zM300 645l50 70h155l-130 -160h-150l-130 160h155z" />
    <glyph glyph-name="Omacron" unicode="&#x14c;" horiz-adv-x="860" 
d="M235 350q0 -86 56 -143t139 -57t139 57t56 143t-56 143t-139 57t-139 -57t-56 -143zM820 350q0 -152 -113.5 -261t-276.5 -109t-276.5 109t-113.5 261t113.5 261t276.5 109t276.5 -109t113.5 -261zM595 935v-130h-330v130h330z" />
    <glyph glyph-name="omacron" unicode="&#x14d;" 
d="M205 245q0 -44 28.5 -74.5t66.5 -30.5t66.5 30.5t28.5 74.5t-28.5 74.5t-66.5 30.5t-66.5 -30.5t-28.5 -74.5zM570 245q0 -102 -79.5 -178.5t-190.5 -76.5t-190.5 76.5t-79.5 178.5t79.5 178.5t190.5 76.5t190.5 -76.5t79.5 -178.5zM465 705v-130h-330v130h330z" />
    <glyph glyph-name="Ohungarumlaut" unicode="&#x150;" horiz-adv-x="860" 
d="M235 350q0 -86 56 -143t139 -57t139 57t56 143t-56 143t-139 57t-139 -57t-56 -143zM820 350q0 -152 -113.5 -261t-276.5 -109t-276.5 109t-113.5 261t113.5 261t276.5 109t276.5 -109t113.5 -261zM260 780l90 160h160l-125 -160h-125zM470 780l90 160h160l-125 -160
h-125z" />
    <glyph glyph-name="ohungarumlaut" unicode="&#x151;" 
d="M205 245q0 -44 28.5 -74.5t66.5 -30.5t66.5 30.5t28.5 74.5t-28.5 74.5t-66.5 30.5t-66.5 -30.5t-28.5 -74.5zM570 245q0 -102 -79.5 -178.5t-190.5 -76.5t-190.5 76.5t-79.5 178.5t79.5 178.5t190.5 76.5t190.5 -76.5t79.5 -178.5zM130 555l90 160h160l-125 -160h-125z
M340 555l90 160h160l-125 -160h-125z" />
    <glyph glyph-name="OE" unicode="&#x152;" horiz-adv-x="1015" 
d="M655 160h320v-160h-560q-159 0 -267 103t-108 247t108 247t267 103h550v-160h-310v-110h230v-150h-230v-120zM230 350q0 -80 54.5 -130t150.5 -50h30v360h-30q-96 0 -150.5 -50t-54.5 -130z" />
    <glyph glyph-name="oe" unicode="&#x153;" horiz-adv-x="940" 
d="M295 500q49 0 94 -19t65 -37l21 -19q2 3 7 8t21.5 18t35 23t49 18t62.5 8q108 0 181.5 -71.5t73.5 -173.5l-5 -55h-335q4 -29 35 -52t80 -23q31 0 58.5 12.5t39.5 24.5l12 13l75 -110q-3 -3 -9 -8t-26 -18t-42 -23t-57 -18t-71 -8q-56 0 -102 19t-64 37l-19 19
q-2 -3 -7 -8t-22 -18t-36 -23t-50 -18t-65 -8q-108 0 -186.5 76.5t-78.5 178.5t78.5 178.5t186.5 76.5zM295 140q35 0 62.5 30.5t27.5 74.5t-27.5 74.5t-62.5 30.5t-62.5 -30.5t-27.5 -74.5t27.5 -74.5t62.5 -30.5zM650 370q-33 0 -55 -19.5t-30 -50.5h170q-8 31 -30 50.5
t-55 19.5z" />
    <glyph glyph-name="Racute" unicode="&#x154;" horiz-adv-x="720" 
d="M80 0v700h330q111 0 183 -69t72 -171q0 -42 -12.5 -78.5t-30 -59t-35 -38.5t-29.5 -22l-13 -7l145 -255h-200l-120 220h-100v-220h-190zM475 460q0 30 -21 50t-54 20h-130v-140h130q33 0 54 20t21 50zM285 780l85 161h180l-120 -161h-145z" />
    <glyph glyph-name="racute" unicode="&#x155;" horiz-adv-x="395" 
d="M380 320q-20 10 -50 10q-50 0 -77.5 -30.5t-27.5 -89.5v-210h-170v490h170v-60q5 7 15 18t45 29t75 18h20v-175zM140 555l85 161h180l-120 -161h-145z" />
    <glyph glyph-name="Rcommaaccent" unicode="&#x156;" horiz-adv-x="720" 
d="M80 0v700h330q111 0 183 -69t72 -171q0 -42 -12.5 -78.5t-30 -59t-35 -38.5t-29.5 -22l-13 -7l145 -255h-200l-120 220h-100v-220h-190zM475 460q0 30 -21 50t-54 20h-130v-140h130q33 0 54 20t21 50zM245 -240l50 160h160l-75 -160h-135z" />
    <glyph glyph-name="rcommaaccent" unicode="&#x157;" horiz-adv-x="395" 
d="M380 320q-20 10 -50 10q-50 0 -77.5 -30.5t-27.5 -89.5v-210h-170v490h170v-60q5 7 15 18t45 29t75 18h20v-175zM10 -240l50 160h160l-75 -160h-135z" />
    <glyph glyph-name="Rcaron" unicode="&#x158;" horiz-adv-x="720" 
d="M80 0v700h330q111 0 183 -69t72 -171q0 -42 -12.5 -78.5t-30 -59t-35 -38.5t-29.5 -22l-13 -7l145 -255h-200l-120 220h-100v-220h-190zM475 460q0 30 -21 50t-54 20h-130v-140h130q33 0 54 20t21 50zM360 870l50 70h155l-130 -160h-150l-130 160h155z" />
    <glyph glyph-name="rcaron" unicode="&#x159;" horiz-adv-x="395" 
d="M380 320q-20 10 -50 10q-50 0 -77.5 -30.5t-27.5 -89.5v-210h-170v490h170v-60q5 7 15 18t45 29t75 18h20v-175zM215 645l50 70h155l-130 -160h-150l-130 160h155z" />
    <glyph glyph-name="Sacute" unicode="&#x15a;" 
d="M370 215q0 19 -18 33t-46.5 23.5t-63.5 20t-69.5 26.5t-63 38.5t-46.5 60.5t-18 88q0 86 74.5 150.5t190.5 64.5q48 0 90.5 -10.5t69.5 -25t47.5 -29t28.5 -25.5l9 -10l-110 -115q-5 6 -14.5 15t-39.5 24.5t-61 15.5q-32 0 -53.5 -18t-21.5 -42q0 -19 18 -33t46.5 -23.5
l63 -20t69.5 -26.5t63.5 -38.5t46.5 -60.5t18 -88q0 -97 -76.5 -163.5t-203.5 -66.5q-52 0 -100 12.5t-79 30t-55 35t-35 30.5l-11 12l110 115q2 -3 7 -8t20 -18t31.5 -23t41.5 -18t50 -8q40 0 65 22t25 53zM235 780l85 161h180l-120 -161h-145z" />
    <glyph glyph-name="sacute" unicode="&#x15b;" horiz-adv-x="470" 
d="M435 425l-85 -90q-30 30 -70 30q-21 0 -33 -9t-12 -21t21 -20.5t51.5 -18.5t60.5 -24.5t51 -45.5t21 -76q0 -67 -56.5 -113.5t-153.5 -46.5q-43 0 -82 10t-63 24t-42 27.5t-25 23.5l-8 10l85 90q4 -6 11.5 -14t32 -22t51.5 -14q21 0 33 9t12 21t-21 20.5t-51.5 18.5
t-60.5 24.5t-51 45.5t-21 76q0 67 56.5 113.5t153.5 46.5q58 0 106.5 -19t68.5 -37zM152 555l85 161h180l-120 -161h-145z" />
    <glyph glyph-name="Scedilla" unicode="&#x15e;" 
d="M370 215q0 19 -18 33t-46.5 23.5t-63.5 20t-69.5 26.5t-63 38.5t-46.5 60.5t-18 88q0 86 74.5 150.5t190.5 64.5q48 0 90.5 -10.5t69.5 -25t47.5 -29t28.5 -25.5l9 -10l-110 -115q-5 6 -14.5 15t-39.5 24.5t-61 15.5q-32 0 -53.5 -18t-21.5 -42q0 -19 18 -33t46.5 -23.5
l63 -20t69.5 -26.5t63.5 -38.5t46.5 -60.5t18 -88q0 -90 -66.5 -154t-179.5 -74l-14 -27q4 0 11 -1t25.5 -6.5t32 -15t25 -28.5t11.5 -44q0 -46 -33 -75.5t-92 -29.5q-33 0 -64.5 12.5t-45.5 24.5l-15 13l40 65q30 -30 65 -30t35 25t-30 25l-25 -5l-30 35l28 62
q-44 4 -85 18t-67.5 30.5t-47 32.5t-29.5 27l-9 10l110 115q2 -3 7 -8t20 -18t31.5 -23t41.5 -18t50 -8q40 0 65 22t25 53z" />
    <glyph glyph-name="scedilla" unicode="&#x15f;" horiz-adv-x="470" 
d="M440 150q0 -62 -48 -107.5t-132 -52.5l-20 -35q4 0 11 -1t25.5 -6.5t32 -15t25 -28.5t11.5 -44q0 -46 -33.5 -75.5t-91.5 -29.5q-33 0 -64.5 12.5t-45.5 24.5l-15 13l40 65q30 -30 65 -30t35 25t-30 25l-25 -5l-30 35l35 75q-34 3 -64 13t-49.5 23t-34 25t-21.5 20l-6 9
l85 90q4 -6 11.5 -14t32 -22t51.5 -14q21 0 33 9t12 21t-21 20.5t-51.5 18.5t-60.5 24.5t-51 45.5t-21 76q0 67 56.5 113.5t153.5 46.5q58 0 106.5 -19t68.5 -37l20 -19l-85 -90q-30 30 -70 30q-21 0 -33 -9t-12 -21t21 -20.5t51.5 -18.5t60.5 -24.5t51 -45.5t21 -76z" />
    <glyph glyph-name="Scaron" unicode="&#x160;" 
d="M370 215q0 19 -18 33t-46.5 23.5t-63.5 20t-69.5 26.5t-63 38.5t-46.5 60.5t-18 88q0 86 74.5 150.5t190.5 64.5q48 0 90.5 -10.5t69.5 -25t47.5 -29t28.5 -25.5l9 -10l-110 -115q-5 6 -14.5 15t-39.5 24.5t-61 15.5q-32 0 -53.5 -18t-21.5 -42q0 -19 18 -33t46.5 -23.5
l63 -20t69.5 -26.5t63.5 -38.5t46.5 -60.5t18 -88q0 -97 -76.5 -163.5t-203.5 -66.5q-52 0 -100 12.5t-79 30t-55 35t-35 30.5l-11 12l110 115q2 -3 7 -8t20 -18t31.5 -23t41.5 -18t50 -8q40 0 65 22t25 53zM310 870l50 70h155l-130 -160h-150l-130 160h155z" />
    <glyph glyph-name="scaron" unicode="&#x161;" horiz-adv-x="470" 
d="M435 425l-85 -90q-30 30 -70 30q-21 0 -33 -9t-12 -21t21 -20.5t51.5 -18.5t60.5 -24.5t51 -45.5t21 -76q0 -67 -56.5 -113.5t-153.5 -46.5q-43 0 -82 10t-63 24t-42 27.5t-25 23.5l-8 10l85 90q4 -6 11.5 -14t32 -22t51.5 -14q21 0 33 9t12 21t-21 20.5t-51.5 18.5
t-60.5 24.5t-51 45.5t-21 76q0 67 56.5 113.5t153.5 46.5q58 0 106.5 -19t68.5 -37zM234 645l50 70h155l-130 -160h-150l-130 160h155z" />
    <glyph glyph-name="Tcommaaccent" unicode="&#x162;" horiz-adv-x="620" 
d="M20 700h580v-170h-195v-530h-190v530h-195v170zM175 -240l50 160h160l-75 -160h-135z" />
    <glyph glyph-name="tcommaaccent" unicode="&#x163;" horiz-adv-x="425" 
d="M115 545v85h150v-150h100v-150h-100v-140q0 -23 15 -36.5t40 -13.5q12 0 24.5 2.5t19.5 5.5l6 2v-145q-45 -15 -100 -15q-83 0 -129 48.5t-46 141.5v150h-75v150h35q27 0 43.5 17.5t16.5 47.5zM110 -240l50 160h160l-75 -160h-135z" />
    <glyph glyph-name="Tcaron" unicode="&#x164;" horiz-adv-x="620" 
d="M20 700h580v-170h-195v-530h-190v530h-195v170zM305 870l50 70h155l-130 -160h-150l-130 160h155z" />
    <glyph glyph-name="tcaron" unicode="&#x165;" horiz-adv-x="455" 
d="M115 545v85h150v-150h100v-150h-100v-140q0 -23 15 -36.5t40 -13.5q12 0 24.5 2.5t19.5 5.5l6 2v-145q-45 -15 -100 -15q-83 0 -129 48.5t-46 141.5v150h-75v150h35q27 0 43.5 17.5t16.5 47.5zM325 540l50 160h160l-75 -160h-135z" />
    <glyph glyph-name="Umacron" unicode="&#x16a;" horiz-adv-x="790" 
d="M395 150q53 0 91.5 40.5t38.5 99.5v410h190v-410q0 -132 -91 -221t-229 -89t-229 89t-91 221v410h190v-410q0 -59 38.5 -99.5t91.5 -40.5zM560 935v-130h-330v130h330z" />
    <glyph glyph-name="umacron" unicode="&#x16b;" horiz-adv-x="615" 
d="M375 0v55q-5 -7 -15 -18t-45 -29t-75 -18q-80 0 -132.5 56.5t-52.5 148.5v295h170v-265q0 -33 20 -54t50 -21q34 0 57 25t23 65v250h170v-490h-170zM465 705v-130h-330v130h330z" />
    <glyph glyph-name="Uring" unicode="&#x16e;" horiz-adv-x="790" 
d="M395 150q53 0 91.5 40.5t38.5 99.5v410h190v-410q0 -132 -91 -221t-229 -89t-229 89t-91 221v410h190v-410q0 -59 38.5 -99.5t91.5 -40.5zM355 875q0 -40 40 -40t40 40t-40 40t-40 -40zM525 875q0 -49 -37.5 -84.5t-92.5 -35.5t-92.5 35.5t-37.5 84.5t37.5 84.5
t92.5 35.5t92.5 -35.5t37.5 -84.5z" />
    <glyph glyph-name="uring" unicode="&#x16f;" horiz-adv-x="615" 
d="M375 0v55q-5 -7 -15 -18t-45 -29t-75 -18q-80 0 -132.5 56.5t-52.5 148.5v295h170v-265q0 -33 20 -54t50 -21q34 0 57 25t23 65v250h170v-490h-170zM260 655q0 -40 40 -40t40 40t-40 40t-40 -40zM430 655q0 -49 -37.5 -84.5t-92.5 -35.5t-92.5 35.5t-37.5 84.5t37.5 84.5
t92.5 35.5t92.5 -35.5t37.5 -84.5z" />
    <glyph glyph-name="Uhungarumlaut" unicode="&#x170;" horiz-adv-x="790" 
d="M395 150q53 0 91.5 40.5t38.5 99.5v410h190v-410q0 -132 -91 -221t-229 -89t-229 89t-91 221v410h190v-410q0 -59 38.5 -99.5t91.5 -40.5zM225 780l90 160h160l-125 -160h-125zM435 780l90 160h160l-125 -160h-125z" />
    <glyph glyph-name="uhungarumlaut" unicode="&#x171;" horiz-adv-x="615" 
d="M375 0v55q-5 -7 -15 -18t-45 -29t-75 -18q-80 0 -132.5 56.5t-52.5 148.5v295h170v-265q0 -33 20 -54t50 -21q34 0 57 25t23 65v250h170v-490h-170zM125 555l90 160h160l-125 -160h-125zM335 555l90 160h160l-125 -160h-125z" />
    <glyph glyph-name="Uogonek" unicode="&#x172;" horiz-adv-x="790" 
d="M395 150q53 0 91.5 40.5t38.5 99.5v410h190v-410q0 -118 -73.5 -202.5t-190.5 -102.5q-21 -44 -21 -85q0 -40 40 -40q13 0 25.5 4t18.5 8l6 3v-90q-35 -20 -90 -20q-52 0 -86 32t-34 78q0 57 52 107q-126 11 -206.5 97.5t-80.5 210.5v410h190v-410q0 -59 38.5 -99.5
t91.5 -40.5z" />
    <glyph glyph-name="uogonek" unicode="&#x173;" horiz-adv-x="615" 
d="M375 0v55q-5 -7 -15 -18t-45 -29t-75 -18q-80 0 -132.5 56.5t-52.5 148.5v295h170v-265q0 -33 20 -54t50 -21q34 0 57 25t23 65v250h170v-490h-95q-30 -50 -30 -100q0 -40 40 -40q13 0 25.5 4t18.5 8l6 3v-90q-35 -20 -90 -20q-52 0 -86 32t-34 78q0 33 19 64.5t37 46.5z
" />
    <glyph glyph-name="Ydieresis" unicode="&#x178;" horiz-adv-x="690" 
d="M485 700h205l-250 -450v-250h-190v250l-250 450h205l140 -270zM145 855q0 34 25.5 59.5t59.5 25.5t59.5 -25.5t25.5 -59.5t-25.5 -59.5t-59.5 -25.5t-59.5 25.5t-25.5 59.5zM375 855q0 34 25.5 59.5t59.5 25.5t59.5 -25.5t25.5 -59.5t-25.5 -59.5t-59.5 -25.5t-59.5 25.5
t-25.5 59.5z" />
    <glyph glyph-name="Zacute" unicode="&#x179;" horiz-adv-x="660" 
d="M355 530h-295v170h545v-170l-310 -360h320v-170h-570v170zM255 780l85 161h180l-120 -161h-145z" />
    <glyph glyph-name="zacute" unicode="&#x17a;" horiz-adv-x="510" 
d="M460 490v-150l-210 -190h220v-150h-440v150l210 190h-200v150h420zM175 555l85 161h180l-120 -161h-145z" />
    <glyph glyph-name="Zdotaccent" unicode="&#x17b;" horiz-adv-x="660" 
d="M355 530h-295v170h545v-170l-310 -360h320v-170h-570v170zM425 860q0 -38 -27 -64t-68 -26t-68 26t-27 64t27 64t68 26t68 -26t27 -64z" />
    <glyph glyph-name="zdotaccent" unicode="&#x17c;" horiz-adv-x="510" 
d="M460 490v-150l-210 -190h220v-150h-440v150l210 190h-200v150h420zM345 635q0 -38 -27 -64t-68 -26t-68 26t-27 64t27 64t68 26t68 -26t27 -64z" />
    <glyph glyph-name="Zcaron" unicode="&#x17d;" horiz-adv-x="660" 
d="M355 530h-295v170h545v-170l-310 -360h320v-170h-570v170zM325 870l50 70h155l-130 -160h-150l-130 160h155z" />
    <glyph glyph-name="zcaron" unicode="&#x17e;" horiz-adv-x="510" 
d="M460 490v-150l-210 -190h220v-150h-440v150l210 190h-200v150h420zM245 645l50 70h155l-130 -160h-150l-130 160h155z" />
    <glyph glyph-name="florin" unicode="&#x192;" horiz-adv-x="415" 
d="M320 515l-15 -85h90v-150h-115l-60 -310q-20 -102 -60.5 -141t-129.5 -39q-22 0 -44.5 4t-33.5 8l-12 3v145q20 -10 50 -10q55 0 65 50l55 290h-60v150h85l20 105q20 102 60.5 141t129.5 39q22 0 44.5 -3.5t34.5 -7.5l11 -4v-145q-20 10 -50 10q-57 0 -65 -50z" />
    <glyph glyph-name="Scommaaccent" unicode="&#x218;" 
d="M370 215q0 19 -18 33t-46.5 23.5t-63.5 20t-69.5 26.5t-63 38.5t-46.5 60.5t-18 88q0 86 74.5 150.5t190.5 64.5q48 0 90.5 -10.5t69.5 -25t47.5 -29t28.5 -25.5l9 -10l-110 -115q-5 6 -14.5 15t-39.5 24.5t-61 15.5q-32 0 -53.5 -18t-21.5 -42q0 -19 18 -33t46.5 -23.5
l63 -20t69.5 -26.5t63.5 -38.5t46.5 -60.5t18 -88q0 -97 -76.5 -163.5t-203.5 -66.5q-52 0 -100 12.5t-79 30t-55 35t-35 30.5l-11 12l110 115q2 -3 7 -8t20 -18t31.5 -23t41.5 -18t50 -8q40 0 65 22t25 53zM180 -240l50 160h160l-75 -160h-135z" />
    <glyph glyph-name="scommaaccent" unicode="&#x219;" horiz-adv-x="470" 
d="M435 425l-85 -90q-30 30 -70 30q-21 0 -33 -9t-12 -21t21 -20.5t51.5 -18.5t60.5 -24.5t51 -45.5t21 -76q0 -67 -56.5 -113.5t-153.5 -46.5q-43 0 -82 10t-63 24t-42 27.5t-25 23.5l-8 10l85 90q4 -6 11.5 -14t32 -22t51.5 -14q21 0 33 9t12 21t-21 20.5t-51.5 18.5
t-60.5 24.5t-51 45.5t-21 76q0 67 56.5 113.5t153.5 46.5q58 0 106.5 -19t68.5 -37zM107 -240l50 160h160l-75 -160h-135z" />
    <glyph glyph-name="uni021A" unicode="&#x21a;" horiz-adv-x="620" 
d="M20 700h580v-170h-195v-530h-190v530h-195v170zM175 -240l50 160h160l-75 -160h-135z" />
    <glyph glyph-name="uni021B" unicode="&#x21b;" horiz-adv-x="425" 
d="M115 545v85h150v-150h100v-150h-100v-140q0 -23 15 -36.5t40 -13.5q12 0 24.5 2.5t19.5 5.5l6 2v-145q-45 -15 -100 -15q-83 0 -129 48.5t-46 141.5v150h-75v150h35q27 0 43.5 17.5t16.5 47.5zM110 -240l50 160h160l-75 -160h-135z" />
    <glyph glyph-name="afii57929" unicode="&#x2bc;" horiz-adv-x="270" 
d="M30 550l50 160h160l-75 -160h-135z" />
    <glyph glyph-name="circumflex" unicode="&#x2c6;" horiz-adv-x="470" 
d="M285 550l-50 70l-50 -70h-155l130 160h150l130 -160h-155z" />
    <glyph glyph-name="caron" unicode="&#x2c7;" horiz-adv-x="470" 
d="M235 640l50 70h155l-130 -160h-150l-130 160h155z" />
    <glyph glyph-name="breve" unicode="&#x2d8;" horiz-adv-x="400" 
d="M200 550q-74 0 -122 46t-48 114h120q0 -22 14 -36t36 -14t36 14t14 36h120q0 -68 -48 -114t-122 -46z" />
    <glyph glyph-name="dotaccent" unicode="&#x2d9;" horiz-adv-x="250" 
d="M220 640q0 -38 -27 -64t-68 -26t-68 26t-27 64t27 64t68 26t68 -26t27 -64z" />
    <glyph glyph-name="ring" unicode="&#x2da;" horiz-adv-x="320" 
d="M120 610q0 -40 40 -40t40 40t-40 40t-40 -40zM290 610q0 -49 -37.5 -84.5t-92.5 -35.5t-92.5 35.5t-37.5 84.5t37.5 84.5t92.5 35.5t92.5 -35.5t37.5 -84.5z" />
    <glyph glyph-name="ogonek" unicode="&#x2db;" horiz-adv-x="270" 
d="M105 0h75q-30 -50 -30 -100q0 -40 40 -40q13 0 25.5 4t18.5 8l6 3v-90q-35 -20 -90 -20q-52 0 -86 32t-34 78q0 33 19 64.5t37 46.5z" />
    <glyph glyph-name="tilde" unicode="&#x2dc;" horiz-adv-x="430" 
d="M170 600q-35 0 -35 -50h-105q0 85 31 127.5t79 42.5q36 0 71 -25t49 -25q35 0 35 50h105q0 -85 -31 -127.5t-79 -42.5q-36 0 -71 25t-49 25z" />
    <glyph glyph-name="hungarumlaut" unicode="&#x2dd;" horiz-adv-x="520" 
d="M30 550l90 160h160l-125 -160h-125zM240 550l90 160h160l-125 -160h-125z" />
    <glyph glyph-name="afii10023" unicode="&#x401;" horiz-adv-x="670" 
d="M270 160h360v-160h-550v700h540v-160h-350v-110h270v-150h-270v-120zM153 860q0 34 25.5 59.5t59.5 25.5t59.5 -25.5t25.5 -59.5t-25.5 -59.5t-59.5 -25.5t-59.5 25.5t-25.5 59.5zM383 860q0 34 25.5 59.5t59.5 25.5t59.5 -25.5t25.5 -59.5t-25.5 -59.5t-59.5 -25.5
t-59.5 25.5t-25.5 59.5z" />
    <glyph glyph-name="afii10051" unicode="&#x402;" horiz-adv-x="755" 
d="M475 455q115 0 182.5 -64.5t67.5 -170.5q0 -109 -67 -174.5t-183 -65.5h-40v165q47 0 71 20t24 55q0 31 -23 50.5t-67 19.5q-45 0 -70 -25t-25 -71v-194h-190v530h-155v170h492v-170h-147v-115l16.5 11t44 18t69.5 11z" />
    <glyph glyph-name="afii10052" unicode="&#x403;" horiz-adv-x="590" 
d="M255 780l85 161h180l-120 -161h-145zM80 0v700h500v-170h-310v-530h-190z" />
    <glyph glyph-name="afii10053" unicode="&#x404;" horiz-adv-x="750" 
d="M430 720q56 0 107 -14.5t84 -35t57.5 -41t35.5 -35.5l11 -14l-115 -120q-3 4 -8 10t-22.5 21.5t-36.5 27.5t-50 21.5t-63 9.5q-70 0 -117 -34.5t-68 -85.5h275v-160h-275q21 -51 68 -85.5t117 -34.5q53 0 100.5 22.5t68.5 45.5l21 22l110 -120q-4 -6 -11.5 -15.5
t-35 -33.5t-59.5 -42.5t-84.5 -33.5t-109.5 -15q-163 0 -276.5 109t-113.5 261t113 261t277 109z" />
    <glyph glyph-name="afii10054" unicode="&#x405;" 
d="M370 215q0 19 -18 33t-46.5 23.5t-63.5 20t-69.5 26.5t-63 38.5t-46.5 60.5t-18 88q0 86 74.5 150.5t190.5 64.5q48 0 90.5 -10.5t69.5 -25t47.5 -29t28.5 -25.5l9 -10l-110 -115q-5 6 -14.5 15t-39.5 24.5t-61 15.5q-32 0 -53.5 -18t-21.5 -42q0 -19 18 -33t46.5 -23.5
l63 -20t69.5 -26.5t63.5 -38.5t46.5 -60.5t18 -88q0 -97 -76.5 -163.5t-203.5 -66.5q-52 0 -100 12.5t-79 30t-55 35t-35 30.5l-11 12l110 115q2 -3 7 -8t20 -18t31.5 -23t41.5 -18t50 -8q40 0 65 22t25 53z" />
    <glyph glyph-name="afii10055" unicode="&#x406;" horiz-adv-x="350" 
d="M80 0v700h190v-700h-190z" />
    <glyph glyph-name="afii10056" unicode="&#x407;" horiz-adv-x="350" 
d="M80 0v700h190v-700h-190zM-25 845q0 34 25.5 59.5t59.5 25.5t59.5 -25.5t25.5 -59.5t-25.5 -59.5t-59.5 -25.5t-59.5 25.5t-25.5 59.5zM205 845q0 34 25.5 59.5t59.5 25.5t59.5 -25.5t25.5 -59.5t-25.5 -59.5t-59.5 -25.5t-59.5 25.5t-25.5 59.5z" />
    <glyph glyph-name="afii10057" unicode="&#x408;" horiz-adv-x="525" 
d="M260 700h190v-460q0 -116 -71 -188t-184 -72q-38 0 -73 9.5t-58 22.5t-40.5 26t-25.5 22l-8 10l115 115q25 -35 75 -35q34 0 57 25t23 65v460z" />
    <glyph glyph-name="afii10058" unicode="&#x409;" horiz-adv-x="1100" 
d="M800 0h-310v530h-140v-50q0 -116 -12.5 -203.5t-33.5 -143.5t-53.5 -90.5t-68.5 -48.5t-82 -14q-25 0 -50 5t-38 10l-12 5v175q25 -10 45 -10q27 0 46 12.5t35.5 45t25 96.5t8.5 160v221h520v-210h120q115 0 187.5 -69.5t72.5 -175.5t-72.5 -175.5t-187.5 -69.5zM680 170
h110q33 0 56.5 22.5t23.5 52.5t-23.5 52.5t-56.5 22.5h-110v-150z" />
    <glyph glyph-name="afii10059" unicode="&#x40a;" horiz-adv-x="1115" 
d="M815 0h-305v310h-240v-310h-190v700h190v-220h240v220h190v-210h115q115 0 187.5 -69.5t72.5 -175.5t-72.5 -175.5t-187.5 -69.5zM700 170h105q33 0 56.5 22.5t23.5 52.5t-23.5 52.5t-56.5 22.5h-105v-150z" />
    <glyph glyph-name="afii10060" unicode="&#x40b;" horiz-adv-x="780" 
d="M535 195q0 38 -27 64t-68 26q-39 0 -67 -23t-28 -47v-215h-190v530h-155v170h495v-170h-150v-115l16.5 11t44 18t69.5 11q250 0 250 -265v-190h-190v195z" />
    <glyph glyph-name="afii10061" unicode="&#x40c;" horiz-adv-x="730" 
d="M345 265l-75 -85v-180h-190v700h190v-270l230 270h220l-250 -290l270 -410h-220zM310 780l85 161h180l-120 -161h-145z" />
    <glyph glyph-name="afii10062" unicode="&#x40e;" horiz-adv-x="650" 
d="M334 775q-78 0 -126.5 46.5t-48.5 118.5h120q0 -55 55 -55t55 55h120q0 -72 -48.5 -118.5t-126.5 -46.5zM205 700l135 -285l115 285h205l-245 -520q-41 -85 -105.5 -137.5t-149.5 -52.5q-24 0 -46.5 4t-33.5 8l-10 3v165q25 -10 60 -10q40 0 67 19t38 41l10 20l-245 460
h205z" />
    <glyph glyph-name="afii10145" unicode="&#x40f;" horiz-adv-x="790" 
d="M710 700v-700h-220v-140h-190v140h-220v700h190v-530h250v530h190z" />
    <glyph glyph-name="afii10017" unicode="&#x410;" horiz-adv-x="740" 
d="M435 300l-65 205l-65 -205h130zM485 150h-230l-50 -150h-205l265 700h210l265 -700h-205z" />
    <glyph glyph-name="afii10018" unicode="&#x411;" horiz-adv-x="695" 
d="M270 160h125q29 0 49.5 19t20.5 46q0 28 -20 46.5t-50 18.5h-125v-130zM405 0h-325v700h510v-160h-320v-90h135q113 0 181.5 -65.5t68.5 -159.5t-68.5 -159.5t-181.5 -65.5z" />
    <glyph glyph-name="afii10019" unicode="&#x412;" horiz-adv-x="710" 
d="M415 0h-335v700h315q108 0 174 -55t66 -130q0 -29 -9.5 -55t-22.5 -41.5t-26 -27t-23 -16.5l-9 -5l13.5 -5.5t30 -17t38 -30.5t30 -47t13.5 -65q0 -82 -71.5 -143.5t-183.5 -61.5zM270 150h130q33 0 54 20t21 50t-21 50t-54 20h-130v-140zM375 550h-105v-120h105
q30 0 47.5 16.5t17.5 43.5t-17.5 43.5t-47.5 16.5z" />
    <glyph glyph-name="afii10020" unicode="&#x413;" horiz-adv-x="590" 
d="M80 0v700h500v-170h-310v-530h-190z" />
    <glyph glyph-name="afii10021" unicode="&#x414;" horiz-adv-x="760" 
d="M0 170h40l11 11t24 34.5t30 60t24 87.5t11 117v220h520v-530h80v-310h-190v140h-360v-140h-190v310zM330 480q0 -62 -10.5 -116.5t-25 -88.5t-29 -59t-25.5 -36l-10 -10h240v360h-140v-50z" />
    <glyph glyph-name="afii10022" unicode="&#x415;" horiz-adv-x="670" 
d="M270 160h360v-160h-550v700h540v-160h-350v-110h270v-150h-270v-120z" />
    <glyph glyph-name="afii10024" unicode="&#x416;" horiz-adv-x="1060" 
d="M435 0v209l-50 56l-175 -265h-220l270 410l-250 290h220l205 -240v240h190v-240l205 240h220l-250 -290l270 -410h-220l-175 265l-50 -56v-209h-190z" />
    <glyph glyph-name="afii10025" unicode="&#x417;" horiz-adv-x="625" 
d="M460 370l13.5 -5.5t30 -17.5t38 -32t30 -50t13.5 -70q0 -91 -76 -153t-209 -62q-52 0 -101 12.5t-81.5 30t-58 35t-37.5 30.5l-12 12l110 115q7 -7 20.5 -18t54 -29t80.5 -18q50 0 77.5 21t27.5 49q0 60 -95 60h-90v160h80q43 0 64 15.5t21 40.5q0 24 -22 39t-68 15
q-33 0 -64.5 -12.5t-45.5 -25.5l-15 -12l-110 115q3 4 10 11t31.5 25.5t52.5 32t74.5 25t96.5 11.5q118 0 191.5 -60.5t73.5 -139.5q0 -53 -26.5 -90.5t-52.5 -48.5z" />
    <glyph glyph-name="afii10026" unicode="&#x418;" horiz-adv-x="815" 
d="M80 700h190v-390l300 390h165v-700h-190v390l-301 -390h-164v700z" />
    <glyph glyph-name="afii10027" unicode="&#x419;" horiz-adv-x="815" 
d="M410 775q-78 0 -126.5 46.5t-48.5 118.5h120q0 -55 55 -55t55 55h120q0 -72 -48.5 -118.5t-126.5 -46.5zM80 700h190v-390l300 390h165v-700h-190v390l-301 -390h-164v700z" />
    <glyph glyph-name="afii10028" unicode="&#x41a;" horiz-adv-x="730" 
d="M345 265l-75 -85v-180h-190v700h190v-270l230 270h220l-250 -290l270 -410h-220z" />
    <glyph glyph-name="afii10029" unicode="&#x41b;" horiz-adv-x="780" 
d="M700 700v-700h-190v530h-160v-50q0 -116 -12.5 -203.5t-33.5 -143.5t-53.5 -90.5t-68.5 -48.5t-82 -14q-25 0 -50 5t-38 10l-12 5v175q25 -10 45 -10q27 0 46 12.5t35.5 45t25 96.5t8.5 160v221h540z" />
    <glyph glyph-name="afii10030" unicode="&#x41c;" horiz-adv-x="930" 
d="M465 170l-195 245v-415h-190v700h170l215 -275l215 275h170v-700h-190v415z" />
    <glyph glyph-name="afii10031" unicode="&#x41d;" horiz-adv-x="795" 
d="M715 700v-700h-190v270h-255v-270h-190v700h190v-260h255v260h190z" />
    <glyph glyph-name="afii10032" unicode="&#x41e;" horiz-adv-x="860" 
d="M235 350q0 -86 56 -143t139 -57t139 57t56 143t-56 143t-139 57t-139 -57t-56 -143zM820 350q0 -152 -113.5 -261t-276.5 -109t-276.5 109t-113.5 261t113.5 261t276.5 109t276.5 -109t113.5 -261z" />
    <glyph glyph-name="afii10033" unicode="&#x41f;" horiz-adv-x="785" 
d="M705 700v-700h-190v530h-245v-530h-190v700h625z" />
    <glyph glyph-name="afii10034" unicode="&#x420;" horiz-adv-x="695" 
d="M80 700h315q115 0 187.5 -69.5t72.5 -175.5t-72.5 -175.5t-187.5 -69.5h-125v-210h-190v700zM385 530h-115v-150h115q33 0 56.5 22.5t23.5 52.5t-23.5 52.5t-56.5 22.5z" />
    <glyph glyph-name="afii10035" unicode="&#x421;" horiz-adv-x="750" 
d="M230 350q0 -86 57 -143t143 -57q53 0 100.5 22.5t68.5 45.5l21 22l110 -120q-4 -6 -11.5 -15.5t-35 -33.5t-59.5 -42.5t-84.5 -33.5t-109.5 -15q-163 0 -276.5 109t-113.5 261t113.5 261t276.5 109q56 0 107 -14.5t84 -35t57.5 -41t35.5 -35.5l11 -14l-115 -120
q-3 4 -8 10t-22.5 21.5t-36.5 27.5t-50 21.5t-63 9.5q-86 0 -143 -57t-57 -143z" />
    <glyph glyph-name="afii10036" unicode="&#x422;" horiz-adv-x="620" 
d="M20 700h580v-170h-195v-530h-190v530h-195v170z" />
    <glyph glyph-name="afii10037" unicode="&#x423;" horiz-adv-x="650" 
d="M205 700l135 -285l115 285h205l-245 -520q-41 -85 -105.5 -137.5t-149.5 -52.5q-24 0 -46.5 4t-33.5 8l-10 3v165q25 -10 60 -10q40 0 67 19t38 41l10 20l-245 460h205z" />
    <glyph glyph-name="afii10038" unicode="&#x424;" horiz-adv-x="900" 
d="M225 360q0 -56 35 -91t95 -39v260q-60 -4 -95 -39t-35 -91zM545 -20h-190v90q-140 4 -230 88t-90 202t90 202t230 88v75h190v-75q140 -4 230 -88t90 -202t-90 -202t-230 -88v-90zM675 360q0 56 -35 91t-95 39v-260q60 4 95 39t35 91z" />
    <glyph glyph-name="afii10039" unicode="&#x425;" horiz-adv-x="710" 
d="M355 235l-140 -235h-210l230 365l-210 335h210l120 -205l120 205h210l-210 -335l230 -365h-210z" />
    <glyph glyph-name="afii10040" unicode="&#x426;" horiz-adv-x="800" 
d="M80 0v700h190v-530h235v530h190v-530h80v-310h-190v140h-505z" />
    <glyph glyph-name="afii10041" unicode="&#x427;" horiz-adv-x="750" 
d="M260 700v-215q0 -51 29 -80.5t78 -29.5q30 0 58.5 8.5t41.5 17.5l13 9v290h190v-700h-190v235q-65 -30 -150 -30q-121 0 -190.5 73t-69.5 207v215h190z" />
    <glyph glyph-name="afii10042" unicode="&#x428;" horiz-adv-x="1080" 
d="M1000 700v-700h-920v700h190v-530h175v530h190v-530h175v530h190z" />
    <glyph glyph-name="afii10043" unicode="&#x429;" horiz-adv-x="1105" 
d="M1000 700v-530h80v-309h-190v139h-810v700h190v-530h175v530h190v-530h175v530h190z" />
    <glyph glyph-name="afii10044" unicode="&#x42a;" horiz-adv-x="760" 
d="M460 0h-305v530h-155v170h345v-210h115q115 0 187.5 -69.5t72.5 -175.5t-72.5 -175.5t-187.5 -69.5zM345 170h105q33 0 56.5 22.5t23.5 52.5t-23.5 52.5t-56.5 22.5h-105v-150z" />
    <glyph glyph-name="afii10045" unicode="&#x42b;" horiz-adv-x="985" 
d="M905 700v-700h-190v700h190zM385 0h-305v700h190v-210h115q115 0 187.5 -69.5t72.5 -175.5t-72.5 -175.5t-187.5 -69.5zM270 170h105q33 0 56.5 22.5t23.5 52.5t-23.5 52.5t-56.5 22.5h-105v-150z" />
    <glyph glyph-name="afii10046" unicode="&#x42c;" horiz-adv-x="695" 
d="M395 0h-315v700h190v-210h125q115 0 187.5 -69.5t72.5 -175.5t-72.5 -175.5t-187.5 -69.5zM270 170h115q33 0 56.5 22.5t23.5 52.5t-23.5 52.5t-56.5 22.5h-115v-150z" />
    <glyph glyph-name="afii10047" unicode="&#x42d;" horiz-adv-x="750" 
d="M320 720q164 0 277 -109t113 -261t-113.5 -261t-276.5 -109q-57 0 -109 14.5t-85.5 35t-58.5 41t-36 35.5l-11 14l110 120q3 -4 8.5 -10t24 -21.5t39 -27.5t52.5 -21.5t66 -9.5q70 0 117 34.5t68 85.5h-275v160h275q-21 51 -68 85.5t-117 34.5q-32 0 -62.5 -9.5
t-51 -22.5t-36 -26t-22.5 -22l-8 -10l-115 120q4 6 11.5 15.5t34.5 33.5t58.5 42.5t83 33.5t107.5 15z" />
    <glyph glyph-name="afii10048" unicode="&#x42e;" horiz-adv-x="1105" 
d="M875 350q0 88 -50 144t-120 56t-120 -56t-50 -144t50 -144t120 -56t120 56t50 144zM355 270h-85v-270h-190v700h190v-260h85q28 118 122.5 199t227.5 81q151 0 255.5 -106.5t104.5 -263.5t-104.5 -263.5t-255.5 -106.5q-134 0 -228.5 82.5t-121.5 207.5z" />
    <glyph glyph-name="afii10049" unicode="&#x42f;" horiz-adv-x="720" 
d="M640 700v-700h-190v220h-100l-120 -220h-200l145 255q-5 2 -13 6.5t-28.5 22.5t-36.5 39t-29 58t-13 79q0 102 72 171t183 69h330zM245 460q0 -30 21 -50t54 -20h130v140h-130q-33 0 -54 -20t-21 -50z" />
    <glyph glyph-name="afii10065" unicode="&#x430;" horiz-adv-x="550" 
d="M485 0h-170v55q-5 -7 -15 -18t-43.5 -29t-71.5 -18q-70 0 -115 41t-45 99q0 60 39 100t111 55l140 30q0 20 -18 35t-52 15q-29 0 -55.5 -12.5t-37.5 -24.5l-12 -13l-85 90l8 10.5t24 22.5t41 28.5t57.5 23t74.5 10.5q98 0 161.5 -57.5t63.5 -138.5v-304zM240 120
q31 0 53 24t22 61v15l-75 -15q-19 -4 -32 -17t-13 -28q0 -40 45 -40z" />
    <glyph glyph-name="afii10066" unicode="&#x431;" horiz-adv-x="605" 
d="M565 230q0 -102 -72 -171t-183 -69q-123 0 -199 85t-76 235q0 175 63 261t187 114q51 12 95.5 26.5t63.5 22.5l18 9l77 -129q-49 -29 -189 -64q-58 -15 -100 -53.5t-50 -81.5q6 6 17 15t46.5 24.5t71.5 15.5q94 0 162 -70.5t68 -169.5zM220 230q0 -37 25.5 -63.5
t59.5 -26.5t59.5 26.5t25.5 63.5t-25.5 63.5t-59.5 26.5t-59.5 -26.5t-25.5 -63.5z" />
    <glyph glyph-name="afii10067" unicode="&#x432;" horiz-adv-x="555" 
d="M55 490h260q83 0 131.5 -40t48.5 -95q0 -33 -16.5 -58t-32.5 -33l-16 -9l9 -3t20.5 -11t26 -20.5t20.5 -31.5t9 -44q0 -63 -48.5 -104t-141.5 -41h-270v490zM305 200h-80v-80h80q40 0 40 40t-40 40zM330 335q0 14 -10 24.5t-25 10.5h-70v-70h70q15 0 25 10t10 25z" />
    <glyph glyph-name="afii10068" unicode="&#x433;" horiz-adv-x="450" 
d="M435 490v-160h-210v-330h-170v490h380z" />
    <glyph glyph-name="afii10069" unicode="&#x434;" horiz-adv-x="590" 
d="M-5 150h30q3 3 8 8.5t18 26t23 44.5t18 64t8 84v113h404v-340h61v-260h-170v110h-230v-110h-170v260zM250 340q0 -58 -14 -105.5t-28 -66.5l-13 -18h140v190h-85z" />
    <glyph glyph-name="afii10070" unicode="&#x435;" horiz-adv-x="580" 
d="M540 200h-335q4 -29 35 -52t80 -23q31 0 58.5 12.5t39.5 24.5l12 13l75 -110q-3 -3 -9 -8t-26 -18t-42 -23t-57 -18t-71 -8q-115 0 -192.5 74.5t-77.5 180.5q0 105 76 180t184 75t181.5 -71.5t73.5 -173.5zM290 370q-33 0 -55 -19.5t-30 -50.5h170q-8 31 -30 50.5
t-55 19.5z" />
    <glyph glyph-name="afii10072" unicode="&#x436;" horiz-adv-x="820" 
d="M320 0v141l-30 34l-115 -175h-185l185 280l-180 210h195l130 -155v155h170v-155l130 155h195l-180 -210l185 -280h-185l-115 175l-30 -34v-141h-170z" />
    <glyph glyph-name="afii10073" unicode="&#x437;" horiz-adv-x="475" 
d="M425 355q0 -38 -21.5 -64t-42.5 -33l-21 -8q4 -1 10.5 -3t22.5 -10.5t28.5 -20t23 -33t10.5 -48.5q0 -57 -57 -101t-153 -44q-43 0 -82 10t-63 24t-42 27.5t-26 23.5l-7 10l85 90q4 -6 11.5 -14t35 -22t58.5 -14q55 0 55 35q0 34 -55 34h-45v111h45q21 0 33 9t12 21
t-12 21t-33 9q-22 0 -44.5 -7.5t-34.5 -15.5l-11 -7l-85 90l8 8t24 18t40.5 23t57.5 18t75 8q89 0 144.5 -44.5t55.5 -100.5z" />
    <glyph glyph-name="afii10074" unicode="&#x438;" 
d="M400 490h145v-490h-170v230l-175 -230h-145v490h170v-230z" />
    <glyph glyph-name="afii10075" unicode="&#x439;" 
d="M300 550q-74 0 -122 46t-48 114h120q0 -22 14 -36t36 -14t36 14t14 36h120q0 -68 -48 -114t-122 -46zM400 490h145v-490h-170v230l-175 -230h-145v490h170v-230z" />
    <glyph glyph-name="afii10076" unicode="&#x43a;" horiz-adv-x="570" 
d="M565 490l-180 -210l185 -280h-185l-115 175l-45 -50v-125h-170v490h170v-170l145 170h195z" />
    <glyph glyph-name="afii10077" unicode="&#x43b;" horiz-adv-x="590" 
d="M105 490h420v-490h-170v340h-95q0 -102 -13 -173t-38.5 -110t-57.5 -55.5t-76 -16.5q-20 0 -40 4t-30 7l-10 4v150q15 -5 30 -5q28 0 43.5 15t26 67t10.5 148v115z" />
    <glyph glyph-name="afii10078" unicode="&#x43c;" horiz-adv-x="680" 
d="M335 110l-110 140v-250h-170v490h145l135 -170l135 170h145v-490h-170v250z" />
    <glyph glyph-name="afii10079" unicode="&#x43d;" horiz-adv-x="605" 
d="M225 170v-170h-170v490h170v-170h145v170h170v-490h-170v170h-145z" />
    <glyph glyph-name="afii10080" unicode="&#x43e;" 
d="M205 245q0 -44 28.5 -74.5t66.5 -30.5t66.5 30.5t28.5 74.5t-28.5 74.5t-66.5 30.5t-66.5 -30.5t-28.5 -74.5zM570 245q0 -102 -79.5 -178.5t-190.5 -76.5t-190.5 76.5t-79.5 178.5t79.5 178.5t190.5 76.5t190.5 -76.5t79.5 -178.5z" />
    <glyph glyph-name="afii10081" unicode="&#x43f;" horiz-adv-x="605" 
d="M225 340v-340h-170v490h485v-490h-170v340h-145z" />
    <glyph glyph-name="afii10082" unicode="&#x440;" horiz-adv-x="630" 
d="M225 245q0 -44 28.5 -74.5t66.5 -30.5t66.5 30.5t28.5 74.5t-28.5 74.5t-66.5 30.5t-66.5 -30.5t-28.5 -74.5zM225 60v-270h-170v700h170v-60q2 3 5.5 7.5t16.5 16.5t28 21.5t39 17t51 7.5q92 0 158.5 -72.5t66.5 -182.5t-66.5 -182.5t-158.5 -72.5q-42 0 -77 17.5
t-49 34.5z" />
    <glyph glyph-name="afii10083" unicode="&#x441;" horiz-adv-x="540" 
d="M30 245q0 102 79.5 178.5t190.5 76.5q39 0 75 -10.5t59.5 -25t41.5 -29t26 -25.5l8 -10l-100 -105q-4 6 -11.5 15t-33.5 24.5t-55 15.5q-45 0 -75 -30t-30 -75t30 -75t75 -30q29 0 54 14t36 28l10 13l100 -105l-8.5 -11t-25 -24t-42 -30t-59 -24t-75.5 -11
q-111 0 -190.5 76.5t-79.5 178.5z" />
    <glyph glyph-name="afii10084" unicode="&#x442;" horiz-adv-x="490" 
d="M10 330v160h460v-160h-145v-330h-170v330h-145z" />
    <glyph glyph-name="afii10085" unicode="&#x443;" horiz-adv-x="540" 
d="M165 -10l10 20l-180 480h180l90 -285l90 285h180l-185 -490q-41 -109 -92.5 -159.5t-122.5 -50.5q-24 0 -48 4t-35 8l-12 3v150q20 -10 50 -10q52 0 75 45z" />
    <glyph glyph-name="afii10086" unicode="&#x444;" horiz-adv-x="780" 
d="M470 -210h-170v190q-115 7 -192.5 82.5t-77.5 177.5t77.5 177.5t192.5 82.5v200h170v-200q115 -7 192.5 -82.5t77.5 -177.5t-77.5 -177.5t-192.5 -82.5v-190zM470 350v-220q46 4 73 33t27 77t-27 77t-73 33zM300 130v220q-46 -4 -73 -32.5t-27 -77.5q0 -47 27 -76.5
t73 -33.5z" />
    <glyph glyph-name="afii10087" unicode="&#x445;" horiz-adv-x="530" 
d="M260 140l-85 -140h-180l155 250l-145 240h185l70 -130l70 130h185l-145 -240l155 -250h-180z" />
    <glyph glyph-name="afii10088" unicode="&#x446;" 
d="M55 0v490h170v-340h125v340h170v-340h65v-260h-170v110h-360z" />
    <glyph glyph-name="afii10089" unicode="&#x447;" horiz-adv-x="570" 
d="M335 0v148q-46 -28 -105 -28q-83 0 -134 53t-51 142v175h170v-155q0 -26 17 -43t43 -17q18 0 33 5t21 10l6 5v195h170v-490h-170z" />
    <glyph glyph-name="afii10090" unicode="&#x448;" horiz-adv-x="830" 
d="M55 0v490h170v-340h100v340h170v-340h100v340h170v-490h-710z" />
    <glyph glyph-name="afii10091" unicode="&#x449;" horiz-adv-x="855" 
d="M55 0v490h170v-340h100v340h170v-340h100v340h170v-340h65v-260h-170v110h-605z" />
    <glyph glyph-name="afii10092" unicode="&#x44a;" horiz-adv-x="580" 
d="M545 175q0 -77 -54 -126t-146 -49h-235v330h-105v160h275v-140h65q92 0 146 -49t54 -126zM280 130h50q19 0 32 13t13 32t-13 32t-32 13h-50v-90z" />
    <glyph glyph-name="afii10093" unicode="&#x44b;" horiz-adv-x="780" 
d="M715 490v-490h-170v490h170zM225 130h50q19 0 32 13t13 32t-13 32t-32 13h-50v-90zM490 175q0 -77 -54 -126t-146 -49h-235v490h170v-140h65q92 0 146 -49t54 -126z" />
    <glyph glyph-name="afii10094" unicode="&#x44c;" horiz-adv-x="535" 
d="M225 130h60q19 0 32 13t13 32t-13 32t-32 13h-60v-90zM500 175q0 -77 -54 -126t-146 -49h-245v490h170v-140h75q92 0 146 -49t54 -126z" />
    <glyph glyph-name="afii10095" unicode="&#x44d;" horiz-adv-x="540" 
d="M500 245q0 -102 -79.5 -178.5t-190.5 -76.5q-39 0 -75 10.5t-59.5 25t-41.5 29t-26 25.5l-8 10l90 95q5 -6 14.5 -15t38 -24.5t57.5 -15.5q21 0 39 6t29 15t19 18t11 15l3 6h-166v110h166q-1 2 -3 6.5t-11 14.5t-19 18t-28.5 14.5t-39.5 6.5q-29 0 -56.5 -14t-40.5 -28
l-13 -13l-90 95l8.5 11t25 24t42 30t59 24t75.5 11q111 0 190.5 -76.5t79.5 -178.5z" />
    <glyph glyph-name="afii10096" unicode="&#x44e;" horiz-adv-x="830" 
d="M790 245q0 -105 -76 -180t-184 -75q-92 0 -156.5 51t-93.5 129h-55v-170h-170v490h170v-170h55q29 78 93.5 129t156.5 51q108 0 184 -75t76 -180zM620 245q0 44 -27.5 74.5t-62.5 30.5t-62.5 -30.5t-27.5 -74.5t27.5 -74.5t62.5 -30.5t62.5 30.5t27.5 74.5z" />
    <glyph glyph-name="afii10097" unicode="&#x44f;" horiz-adv-x="555" 
d="M240 490h250v-490h-170v140h-40l-85 -140h-175l105 170q-3 2 -9 5t-20.5 15.5t-26 28t-20.5 41.5t-9 55q0 73 56 124t144 51zM320 360h-60q-22 0 -36 -12t-14 -33t14 -33t36 -12h60v90z" />
    <glyph glyph-name="afii10071" unicode="&#x451;" horiz-adv-x="580" 
d="M540 200h-335q4 -29 35 -52t80 -23q31 0 58.5 12.5t39.5 24.5l12 13l75 -110q-3 -3 -9 -8t-26 -18t-42 -23t-57 -18t-71 -8q-115 0 -192.5 74.5t-77.5 180.5q0 105 76 180t184 75t181.5 -71.5t73.5 -173.5zM290 370q-33 0 -55 -19.5t-30 -50.5h170q-8 31 -30 50.5
t-55 19.5zM88 635q0 34 25.5 59.5t59.5 25.5t59.5 -25.5t25.5 -59.5t-25.5 -59.5t-59.5 -25.5t-59.5 25.5t-25.5 59.5zM318 635q0 34 25.5 59.5t59.5 25.5t59.5 -25.5t25.5 -59.5t-25.5 -59.5t-59.5 -25.5t-59.5 25.5t-25.5 59.5z" />
    <glyph glyph-name="afii10099" unicode="&#x452;" 
d="M240 700v-65h105v-150h-105v-105q6 8 16.5 19.5t47 31t76.5 19.5q79 0 129.5 -59.5t50.5 -160.5q0 -250 -255 -250v160q85 0 85 85q0 30 -17.5 47.5t-47.5 17.5q-38 0 -61.5 -25.5t-23.5 -69.5v-195h-170v485h-75v150h75v65h170z" />
    <glyph glyph-name="afii10100" unicode="&#x453;" horiz-adv-x="450" 
d="M165 550l85 161h180l-120 -161h-145zM435 490v-160h-210v-330h-170v490h380z" />
    <glyph glyph-name="afii10101" unicode="&#x454;" horiz-adv-x="545" 
d="M30 245q0 102 79.5 178.5t190.5 76.5q39 0 75 -10.5t59.5 -25t41.5 -29t26 -25.5l8 -10l-85 -90q-1 2 -4 6.5t-13.5 14.5t-22.5 18t-32.5 14.5t-42.5 6.5q-21 0 -39.5 -7t-30 -17.5t-20 -21t-12.5 -17.5l-3 -7h170v-110h-170q1 -3 3.5 -7.5t12 -16.5t20.5 -21.5t29.5 -17
t39.5 -7.5q36 0 64.5 15t39.5 30l11 15l90 -90q-3 -4 -9 -11t-26.5 -24t-43.5 -30t-60 -24t-76 -11q-111 0 -190.5 76.5t-79.5 178.5z" />
    <glyph glyph-name="afii10102" unicode="&#x455;" horiz-adv-x="470" 
d="M435 425l-85 -90q-30 30 -70 30q-21 0 -33 -9t-12 -21t21 -20.5t51.5 -18.5t60.5 -24.5t51 -45.5t21 -76q0 -67 -56.5 -113.5t-153.5 -46.5q-43 0 -82 10t-63 24t-42 27.5t-25 23.5l-8 10l85 90q4 -6 11.5 -14t32 -22t51.5 -14q21 0 33 9t12 21t-21 20.5t-51.5 18.5
t-60.5 24.5t-51 45.5t-21 76q0 67 56.5 113.5t153.5 46.5q58 0 106.5 -19t68.5 -37z" />
    <glyph glyph-name="afii10103" unicode="&#x456;" horiz-adv-x="300" 
d="M230 490v-490h-170v490h170zM240 635q0 -38 -27 -64t-68 -26t-68 26t-27 64t27 64t68 26t68 -26t27 -64z" />
    <glyph glyph-name="afii10104" unicode="&#x457;" horiz-adv-x="320" 
d="M-45 630q0 34 25.5 59.5t59.5 25.5t59.5 -25.5t25.5 -59.5t-25.5 -59.5t-59.5 -25.5t-59.5 25.5t-25.5 59.5zM185 630q0 34 25.5 59.5t59.5 25.5t59.5 -25.5t25.5 -59.5t-25.5 -59.5t-59.5 -25.5t-59.5 25.5t-25.5 59.5zM240 490v-490h-170v490h170z" />
    <glyph glyph-name="afii10105" unicode="&#x458;" horiz-adv-x="300" 
d="M60 0v490h170v-515q0 -86 -48 -135.5t-127 -49.5q-27 0 -52 4t-37 8l-11 3v150q25 -10 50 -10q23 0 39 16.5t16 38.5zM240 635q0 -38 -27 -64t-68 -26t-68 26t-27 64t27 64t68 26t68 -26t27 -64z" />
    <glyph glyph-name="afii10106" unicode="&#x459;" horiz-adv-x="820" 
d="M785 170q0 -77 -52.5 -123.5t-147.5 -46.5h-240v340h-85q0 -102 -13 -173t-38.5 -110t-57.5 -55.5t-76 -16.5q-20 0 -40 4t-30 7l-10 4v150q15 -5 30 -5q28 0 43.5 15t26 67t10.5 148v115h410v-150h70q95 0 147.5 -46.5t52.5 -123.5zM515 130h55q45 0 45 40t-45 40h-55
v-80z" />
    <glyph glyph-name="afii10107" unicode="&#x45a;" horiz-adv-x="830" 
d="M795 170q0 -77 -52.5 -123.5t-147.5 -46.5h-240v190h-130v-190h-170v490h170v-150h130v150h170v-150h70q95 0 147.5 -46.5t52.5 -123.5zM525 130h55q45 0 45 40t-45 40h-55v-80z" />
    <glyph glyph-name="afii10108" unicode="&#x45b;" horiz-adv-x="625" 
d="M240 700v-65h105v-150h-105v-105q6 8 16.5 19.5t47 31t76.5 19.5q79 0 129.5 -58t50.5 -152v-240h-170v210q0 37 -19.5 58.5t-50.5 21.5q-35 0 -57.5 -25.5t-22.5 -69.5v-195h-170v485h-75v150h75v65h170z" />
    <glyph glyph-name="afii10109" unicode="&#x45c;" horiz-adv-x="570" 
d="M220 550l85 161h180l-120 -161h-145zM565 490l-180 -210l185 -280h-185l-115 175l-45 -50v-125h-170v490h170v-170l145 170h195z" />
    <glyph glyph-name="afii10110" unicode="&#x45e;" horiz-adv-x="540" 
d="M165 -10l10 20l-180 480h180l90 -285l90 285h180l-185 -490q-41 -109 -92.5 -159.5t-122.5 -50.5q-24 0 -48 4t-35 8l-12 3v150q20 -10 50 -10q52 0 75 45zM265 550q-74 0 -122 46t-48 114h120q0 -22 13.5 -36t36.5 -14t36.5 14t13.5 36h120q0 -68 -48 -114t-122 -46z
" />
    <glyph glyph-name="afii10193" unicode="&#x45f;" horiz-adv-x="600" 
d="M225 490v-340h140v340h170v-490h-155v-110h-170v110h-155v490h170z" />
    <glyph glyph-name="afii10050" unicode="&#x490;" horiz-adv-x="590" 
d="M80 0v700h320v130h180v-300h-310v-530h-190z" />
    <glyph glyph-name="afii10098" unicode="&#x491;" horiz-adv-x="450" 
d="M435 330h-210v-330h-170v490h215v100h165v-260z" />
    <glyph glyph-name="uni1E9E" unicode="&#x1e9e;" horiz-adv-x="695" 
d="M510 405q6 -1 15.5 -4.5t34.5 -18t44.5 -33.5t35 -55t15.5 -79q0 -87 -71.5 -151t-183.5 -64h-65v145h40q37 0 58.5 20.5t21.5 54.5t-21.5 54.5t-58.5 20.5h-40v125l90 120h-75q-38 0 -61.5 -24t-23.5 -61v-455h-190v460q0 103 72.5 171.5t187.5 68.5h280v-155z" />
    <glyph glyph-name="endash" unicode="&#x2013;" horiz-adv-x="520" 
d="M485 365v-140h-450v140h450z" />
    <glyph glyph-name="emdash" unicode="&#x2014;" horiz-adv-x="760" 
d="M725 365v-140h-690v140h690z" />
    <glyph glyph-name="quoteleft" unicode="&#x2018;" horiz-adv-x="290" 
d="M160 415l-140 80l145 225l105 -60z" />
    <glyph glyph-name="quoteright" unicode="&#x2019;" horiz-adv-x="290" 
d="M130 720l140 -80l-145 -225l-105 60z" />
    <glyph glyph-name="quotesinglbase" unicode="&#x201a;" horiz-adv-x="285" 
d="M110 170l135 -80l-140 -220l-110 60z" />
    <glyph glyph-name="quotedblleft" unicode="&#x201c;" horiz-adv-x="500" 
d="M150 420l-130 75l145 225l95 -55zM370 420l-130 75l145 225l95 -55z" />
    <glyph glyph-name="quotedblright" unicode="&#x201d;" horiz-adv-x="500" 
d="M350 720l130 -75l-145 -225l-95 55zM130 720l130 -75l-145 -225l-95 55z" />
    <glyph glyph-name="quotedblbase" unicode="&#x201e;" horiz-adv-x="490" 
d="M320 170l130 -75l-145 -225l-95 55zM100 170l130 -75l-145 -225l-95 55z" />
    <glyph glyph-name="dagger" unicode="&#x2020;" horiz-adv-x="485" 
d="M170 575v125h145v-125h120v-130h-120v-305h-145v305h-120v130h120z" />
    <glyph glyph-name="daggerdbl" unicode="&#x2021;" horiz-adv-x="485" 
d="M170 590v110h145v-110h120v-130h-120v-80h120v-130h-120v-110h-145v110h-120v130h120v80h-120v130h120z" />
    <glyph glyph-name="bullet" unicode="&#x2022;" horiz-adv-x="440" 
d="M355 240q0 -56 -39.5 -95.5t-95.5 -39.5t-95.5 39.5t-39.5 95.5t39.5 95.5t95.5 39.5t95.5 -39.5t39.5 -95.5z" />
    <glyph glyph-name="ellipsis" unicode="&#x2026;" horiz-adv-x="830" 
d="M320 80q0 38 27 64t68 26t68 -26t27 -64t-27 -64t-68 -26t-68 26t-27 64zM600 80q0 38 27 64t68 26t68 -26t27 -64t-27 -64t-68 -26t-68 26t-27 64zM40 80q0 38 27 64t68 26t68 -26t27 -64t-27 -64t-68 -26t-68 26t-27 64z" />
    <glyph glyph-name="perthousand" unicode="&#x2030;" horiz-adv-x="1250" 
d="M130 0l440 700h160l-440 -700h-160zM145 545q0 -26 17 -43t43 -17t43 17t17 43t-17 43t-43 17t-43 -17t-17 -43zM385 545q0 -68 -53 -119t-127 -51t-127 51t-53 119t53 119t127 51t127 -51t53 -119zM590 155q0 -26 17 -43t43 -17t43 17t17 43t-17 43t-43 17t-43 -17
t-17 -43zM830 155q0 -68 -53 -119t-127 -51t-127 51t-53 119t53 119t127 51t127 -51t53 -119zM985 155q0 -26 17 -43t43 -17t43 17t17 43t-17 43t-43 17t-43 -17t-17 -43zM1225 155q0 -68 -53 -119t-127 -51t-127 51t-53 119t53 119t127 51t127 -51t53 -119z" />
    <glyph glyph-name="guilsinglleft" unicode="&#x2039;" horiz-adv-x="370" 
d="M335 420l-130 -180l130 -180h-170l-130 180l130 180h170z" />
    <glyph glyph-name="guilsinglright" unicode="&#x203a;" horiz-adv-x="370" 
d="M165 240l-130 180h170l130 -180l-130 -180h-170z" />
    <glyph glyph-name="fraction" unicode="&#x2044;" horiz-adv-x="235" 
d="M-180 0l435 700h160l-435 -700h-160z" />
    <glyph glyph-name="zerosuperior" unicode="&#x2070;" horiz-adv-x="380" 
d="M140 620q0 -39 14.5 -59.5t35.5 -20.5t35.5 20.5t14.5 59.5t-14.5 59.5t-35.5 20.5t-35.5 -20.5t-14.5 -59.5zM355 620q0 -85 -46 -135t-119 -50t-119 50t-46 135t46 135t119 50t119 -50t46 -135z" />
    <glyph glyph-name="foursuperior" unicode="&#x2074;" horiz-adv-x="340" 
d="M285 800v-195h35v-100h-35v-65h-115v65h-155v95l155 200h115zM115 600h60v80z" />
    <glyph glyph-name="fivesuperior" unicode="&#x2075;" horiz-adv-x="325" 
d="M195 675q48 0 81.5 -32.5t33.5 -77.5q0 -58 -40 -94t-110 -36q-48 0 -85.5 13.5t-50.5 27.5l-14 14l60 65q25 -25 70 -25q18 0 29 10t11 25q0 40 -40 40q-9 0 -17.5 -2.5t-12.5 -4.5l-5 -3h-70l25 205h225v-90h-125l-5 -40q15 5 40 5z" />
    <glyph glyph-name="sixsuperior" unicode="&#x2076;" horiz-adv-x="325" 
d="M275 800l-70 -100q50 -12 80 -45.5t30 -84.5q0 -57 -42 -96t-108 -39t-108 39t-42 96q0 24 7.5 46.5t15.5 33.5l7 10l105 140h125zM205 570q0 40 -40 40t-40 -40t40 -40t40 40z" />
    <glyph glyph-name="sevensuperior" unicode="&#x2077;" horiz-adv-x="300" 
d="M10 800h275v-110l-115 -250h-120l115 250h-155v110z" />
    <glyph glyph-name="eightsuperior" unicode="&#x2078;" horiz-adv-x="330" 
d="M165 530q18 0 29 9t11 21t-11 21t-29 9t-29 -9t-11 -21t11 -21t29 -9zM165 665q30 0 30 25t-30 25t-30 -25t30 -25zM165 435q-75 0 -115 31t-40 79q0 29 17.5 50t34.5 28l18 7q-2 1 -6 2.5t-13.5 8t-16.5 14.5t-13 21.5t-6 28.5q0 44 36 72t104 28t104 -28t36 -72
q0 -24 -13.5 -43t-27.5 -26l-14 -6l7.5 -2.5t16.5 -8.5t21.5 -16t17 -24.5t7.5 -33.5q0 -48 -40 -79t-115 -31z" />
    <glyph glyph-name="ninesuperior" unicode="&#x2079;" horiz-adv-x="325" 
d="M50 440l70 100q-50 12 -80 45.5t-30 84.5q0 57 42 96t108 39t108 -39t42 -96q0 -24 -7.5 -46.5t-14.5 -33.5l-8 -10l-105 -140h-125zM120 670q0 -40 40 -40t40 40t-40 40t-40 -40z" />
    <glyph glyph-name="zeroinferior" unicode="&#x2080;" horiz-adv-x="380" 
d="M140 80q0 -39 14.5 -59.5t35.5 -20.5t35.5 20.5t14.5 59.5t-14.5 59.5t-35.5 20.5t-35.5 -20.5t-14.5 -59.5zM355 80q0 -85 -46 -135t-119 -50t-119 50t-46 135t46 135t119 50t119 -50t46 -135z" />
    <glyph glyph-name="oneinferior" unicode="&#x2081;" horiz-adv-x="240" 
d="M95 260h105v-360h-120v225h-60v85q22 2 41 14.5t27 23.5z" />
    <glyph glyph-name="twoinferior" unicode="&#x2082;" horiz-adv-x="340" 
d="M310 150q0 -36 -21.5 -62.5t-58 -50t-45.5 -32.5h120v-105h-275q0 47 16 83.5t39 57t45.5 36t38.5 29.5t16 29q0 25 -30 25q-11 0 -21 -7.5t-14 -14.5l-5 -8l-90 37q1 4 4 10.5t14 23.5t26 30t42 23.5t59 10.5q66 0 103 -32.5t37 -82.5z" />
    <glyph glyph-name="threeinferior" unicode="&#x2083;" horiz-adv-x="345" 
d="M255 90q7 -2 17 -6t26.5 -24.5t16.5 -49.5q0 -47 -40 -81t-105 -34q-49 0 -86.5 16.5t-50.5 32.5l-13 16l60 65q30 -35 75 -35q15 0 25 9t10 21q0 16 -10 23t-35 7h-35v80h35q35 0 35 20q0 25 -35 25q-13 0 -27 -7.5t-21 -15.5l-7 -7l-60 65q2 2 5 6t15 13.5t26.5 16.5
t39 13t52.5 6q62 0 99.5 -30t37.5 -70q0 -24 -12.5 -43t-24.5 -26z" />
    <glyph glyph-name="fourinferior" unicode="&#x2084;" horiz-adv-x="340" 
d="M285 260v-195h35v-100h-35v-65h-115v65h-155v95l155 200h115zM115 60h60v80z" />
    <glyph glyph-name="fiveinferior" unicode="&#x2085;" horiz-adv-x="325" 
d="M195 135q48 0 81.5 -32.5t33.5 -77.5q0 -58 -40 -94t-110 -36q-48 0 -85.5 13.5t-50.5 27.5l-14 14l60 65q25 -25 70 -25q18 0 29 10t11 25q0 40 -40 40q-9 0 -17.5 -2.5t-12.5 -4.5l-5 -3h-70l25 205h225v-90h-125l-5 -40q15 5 40 5z" />
    <glyph glyph-name="sixinferior" unicode="&#x2086;" horiz-adv-x="325" 
d="M275 260l-70 -100q50 -12 80 -45.5t30 -84.5q0 -57 -42 -96t-108 -39t-108 39t-42 96q0 24 7.5 46.5t15.5 33.5l7 10l105 140h125zM205 30q0 40 -40 40t-40 -40t40 -40t40 40z" />
    <glyph glyph-name="seveninferior" unicode="&#x2087;" horiz-adv-x="300" 
d="M10 260h275v-110l-115 -250h-120l115 250h-155v110z" />
    <glyph glyph-name="eightinferior" unicode="&#x2088;" horiz-adv-x="330" 
d="M165 -10q18 0 29 9t11 21t-11 21t-29 9t-29 -9t-11 -21t11 -21t29 -9zM165 125q30 0 30 25t-30 25t-30 -25t30 -25zM165 -105q-75 0 -115 31t-40 79q0 29 17.5 50t34.5 28l18 7q-2 1 -6 2.5t-13.5 8t-16.5 14.5t-13 21.5t-6 28.5q0 44 36 72t104 28t104 -28t36 -72
q0 -24 -13.5 -43t-27.5 -26l-14 -6l7.5 -2.5t16.5 -8.5t21.5 -16t17 -24.5t7.5 -33.5q0 -48 -40 -79t-115 -31z" />
    <glyph glyph-name="nineinferior" unicode="&#x2089;" horiz-adv-x="325" 
d="M50 -100l70 100q-50 12 -80 45.5t-30 84.5q0 57 42 96t108 39t108 -39t42 -96q0 -24 -7.5 -46.5t-14.5 -33.5l-8 -10l-105 -140h-125zM120 130q0 -40 40 -40t40 40t-40 40t-40 -40z" />
    <glyph glyph-name="Euro" unicode="&#x20ac;" horiz-adv-x="755" 
d="M490 220h-165l5.5 -8.5t17.5 -19.5t30 -24.5t43.5 -19t58.5 -8.5q40 0 76 17.5t52 34.5l17 18l105 -110q-3 -5 -9.5 -13t-30 -28.5t-51 -36.5t-73.5 -29t-96 -13q-51 0 -98 13t-81 34.5t-63.5 47t-48.5 51t-33 47t-20 34.5l-6 13h-90v100h75v60h-75v100h90q4 10 12.5 26
t39 57.5t67 73t99 57.5t132.5 26q50 0 95.5 -12t74 -29t50 -33.5t30.5 -28.5l10 -12l-105 -110q-6 7 -17.5 18t-49.5 29t-78 18q-49 0 -87.5 -20t-52.5 -40l-15 -20h165v-100h-195v-60h195v-100z" />
    <glyph glyph-name="uni20B4" unicode="&#x20b4;" horiz-adv-x="660" 
d="M40 380v100h320q5 5 5 20q0 24 -21 42t-54 18q-31 0 -61 -11.5t-45 -22.5l-14 -12l-100 101l8.5 11t27 25.5t46.5 32t67.5 25t90.5 11.5q116 0 190.5 -64.5t74.5 -150.5v-25h45v-100h-580zM620 320v-100h-320q-5 -5 -5 -20q0 -24 21.5 -42t53.5 -18q31 0 61 11.5t45 22.5
l14 12l100 -101l-8.5 -11t-27 -25.5t-46.5 -32t-67.5 -25t-90.5 -11.5q-116 0 -190.5 64.5t-74.5 150.5v25h-45v100h580z" />
    <glyph glyph-name="uni20BD" unicode="&#x20bd;" horiz-adv-x="720" 
d="M305 400h115q33 0 54 20t21 50t-21 50t-54 20h-115v-140zM427 265h-122v-45h200v-135h-200v-85h-190v85h-70v135h70v45h-70v135h70v300h310q117 0 188.5 -63.5t71.5 -156.5t-69.5 -154t-188.5 -61z" />
    <glyph glyph-name="afii61352" unicode="&#x2116;" horiz-adv-x="1195" 
d="M1150 150v-150h-340v150h340zM545 700h190v-700h-164l-301 390v-390h-190v700h165l300 -390v390zM920 390q0 -26 17 -43t43 -17t43 17t17 43t-17 43t-43 17t-43 -17t-17 -43zM1160 390q0 -68 -53 -119t-127 -51t-127 51t-53 119t53 119t127 51t127 -51t53 -119z" />
    <glyph glyph-name="trademark" unicode="&#x2122;" horiz-adv-x="765" 
d="M525 435l-80 100v-155h-115v320h105l90 -115l90 115h105v-320h-115v155zM10 590v110h283v-110h-83v-210h-115v210h-85z" />
    <glyph glyph-name="minus" unicode="&#x2212;" horiz-adv-x="535" 
d="M500 370v-150h-465v150h465z" />
    <glyph glyph-name="approxequal" unicode="&#x2248;" horiz-adv-x="580" 
d="M220 355q-24 0 -45.5 -12.5t-30.5 -24.5l-9 -13l-110 80q1 5 4.5 12.5t16 27.5t28 35t44 27.5t62.5 12.5q48 0 99.5 -27.5t80.5 -27.5q24 0 45.5 12.5t30.5 24.5l9 13l110 -80q-1 -5 -4.5 -12.5t-16 -27.5t-28 -35t-44 -27.5t-62.5 -12.5q-48 0 -99.5 27.5t-80.5 27.5z
M220 145q-24 0 -45.5 -12.5t-30.5 -24.5l-9 -13l-110 80q1 5 4.5 12.5t16 27.5t28 35t44 27.5t62.5 12.5q48 0 99.5 -27.5t80.5 -27.5q24 0 45.5 12.5t30.5 24.5l9 13l110 -80q-1 -5 -4.5 -12.5t-16 -27.5t-28 -35t-44 -27.5t-62.5 -12.5q-48 0 -99.5 27.5t-80.5 27.5z" />
    <glyph glyph-name="notequal" unicode="&#x2260;" horiz-adv-x="495" 
d="M35 330v140h205l30 80h155l-30 -80h65v-140h-120l-30 -70h150v-140h-205l-30 -80h-155l30 80h-65v140h120l30 70h-150z" />
    <glyph glyph-name="lessequal" unicode="&#x2264;" horiz-adv-x="520" 
d="M250 385l235 -85v-145l-450 180v100l450 180v-145zM35 0v130h450v-130h-450z" />
    <glyph glyph-name="greaterequal" unicode="&#x2265;" horiz-adv-x="520" 
d="M35 300l235 85l-235 85v145l450 -180v-100l-450 -180v145zM485 130v-130h-450v130h450z" />
    <glyph glyph-name="commaaccent" unicode="&#xf6c3;" horiz-adv-x="270" 
d="M30 -240l50 160h160l-75 -160h-135z" />
    <glyph glyph-name="cyrBreve" unicode="&#xf6d1;" horiz-adv-x="410" 
d="M205 775q-78 0 -126.5 46.5t-48.5 118.5h120q0 -55 55 -55t55 55h120q0 -72 -48.5 -118.5t-126.5 -46.5z" />
    <glyph glyph-name="cyrbreve" unicode="&#xf6d4;" horiz-adv-x="400" 
d="M200 550q-74 0 -122 46t-48 114h120q0 -22 14 -36t36 -14t36 14t14 36h120q0 -68 -48 -114t-122 -46z" />
    <glyph glyph-name="uniFB02" unicode="&#xfb02;" horiz-adv-x="665" 
d="M425 490q0 31 -24 53t-61 22t-61 -22t-24 -53v-20h104v-150h-104v-320h-170v320h-65v150h65q0 113 69.5 181.5t185.5 68.5q114 0 184.5 -65.5t70.5 -164.5v-490h-170v490z" />
    <glyph glyph-name="s_t" unicode="&#xfb06;" horiz-adv-x="870" 
d="M425 425l-80 -85q-25 25 -65 25q-21 0 -33 -9t-12 -21t21 -20.5t51.5 -18.5t60.5 -24.5t51 -45.5t21 -76q0 -67 -56.5 -113.5t-153.5 -46.5q-43 0 -82 10t-63 24t-42 27.5t-25 23.5l-8 10l85 90q4 -6 11.5 -14t32 -22t51.5 -14q21 0 33 9t12 21t-21 20.5t-51.5 18.5
t-60.5 24.5t-51 45.5t-21 76q0 62 54 111t131 49q0 104 65.5 162t179.5 58q110 0 180 -66t70 -174h100v-150h-100v-140q0 -23 15 -36.5t40 -13.5q12 0 24.5 2.5t18.5 5.5l7 2v-145q-45 -15 -100 -15q-83 0 -129 48.5t-46 141.5v150h-65v150h64q1 40 -21.5 65t-57.5 25
q-37 0 -58.5 -20.5t-21.5 -54.5q0 -20 11 -37.5t23 -25.5z" />
    <glyph glyph-name="lslash.alt" horiz-adv-x="430" 
d="M285 700v-210l75 45l70 -125l-145 -85v-125q0 -55 55 -55q11 0 23.5 2.5t19.5 4.5l7 3v-150q-40 -15 -95 -15q-87 0 -133.5 48.5t-46.5 141.5v45l-75 -45l-70 125l145 85v310h170z" />
    <glyph glyph-name="Germandbls" horiz-adv-x="695" 
d="M510 405q6 -1 15.5 -4.5t34.5 -18t44.5 -33.5t35 -55t15.5 -79q0 -87 -71.5 -151t-183.5 -64h-65v145h40q37 0 58.5 20.5t21.5 54.5t-21.5 54.5t-58.5 20.5h-40v125l90 120h-75q-38 0 -61.5 -24t-23.5 -61v-455h-190v460q0 103 72.5 171.5t187.5 68.5h280v-155z" />
    <glyph glyph-name="afii10110.alt" horiz-adv-x="540" 
d="M265 550q-74 0 -122 46t-48 114h120q0 -22 13.5 -36t36.5 -14t36.5 14t13.5 36h120q0 -68 -48 -114t-122 -46zM95 -210l85 210l-185 490h180l90 -285l90 285h180l-265 -700h-175z" />
    <glyph glyph-name="agrave.alt" horiz-adv-x="555" 
d="M470 -10q-29 0 -53.5 7.5t-38 18.5t-23 22.5t-12.5 19.5l-3 7l-5.5 -8t-17.5 -18t-30 -23t-43.5 -18t-58.5 -8q-70 0 -115 41t-45 99q0 60 39 100t111 55l140 30q0 20 -18 35t-52 15q-29 0 -55.5 -12.5t-37.5 -24.5l-12 -13l-85 90l8 10.5t24 22.5t41 28.5t57.5 23
t74.5 10.5q98 0 161.5 -57.5t63.5 -138.5v-129q0 -30 30 -30l20 5v-145q-25 -15 -65 -15zM240 120q31 0 53 24t22 61v15l-75 -15q-19 -4 -32 -17t-13 -28q0 -40 45 -40zM285 716l85 -161h-145l-120 161h180z" />
    <glyph glyph-name="aacute.alt" horiz-adv-x="555" 
d="M470 -10q-29 0 -53.5 7.5t-38 18.5t-23 22.5t-12.5 19.5l-3 7l-5.5 -8t-17.5 -18t-30 -23t-43.5 -18t-58.5 -8q-70 0 -115 41t-45 99q0 60 39 100t111 55l140 30q0 20 -18 35t-52 15q-29 0 -55.5 -12.5t-37.5 -24.5l-12 -13l-85 90l8 10.5t24 22.5t41 28.5t57.5 23
t74.5 10.5q98 0 161.5 -57.5t63.5 -138.5v-129q0 -30 30 -30l20 5v-145q-25 -15 -65 -15zM240 120q31 0 53 24t22 61v15l-75 -15q-19 -4 -32 -17t-13 -28q0 -40 45 -40zM210 555l85 161h180l-120 -161h-145z" />
    <glyph glyph-name="abreve.alt" horiz-adv-x="555" 
d="M470 -10q-29 0 -53.5 7.5t-38 18.5t-23 22.5t-12.5 19.5l-3 7l-5.5 -8t-17.5 -18t-30 -23t-43.5 -18t-58.5 -8q-70 0 -115 41t-45 99q0 60 39 100t111 55l140 30q0 20 -18 35t-52 15q-29 0 -55.5 -12.5t-37.5 -24.5l-12 -13l-85 90l8 10.5t24 22.5t41 28.5t57.5 23
t74.5 10.5q98 0 161.5 -57.5t63.5 -138.5v-129q0 -30 30 -30l20 5v-145q-25 -15 -65 -15zM240 120q31 0 53 24t22 61v15l-75 -15q-19 -4 -32 -17t-13 -28q0 -40 45 -40zM295 555q-74 0 -122 46t-48 114h120q0 -23 13.5 -36.5t36.5 -13.5t36.5 13.5t13.5 36.5h120
q0 -68 -48 -114t-122 -46z" />
    <glyph glyph-name="acircumflex.alt" horiz-adv-x="555" 
d="M470 -10q-29 0 -53.5 7.5t-38 18.5t-23 22.5t-12.5 19.5l-3 7l-5.5 -8t-17.5 -18t-30 -23t-43.5 -18t-58.5 -8q-70 0 -115 41t-45 99q0 60 39 100t111 55l140 30q0 20 -18 35t-52 15q-29 0 -55.5 -12.5t-37.5 -24.5l-12 -13l-85 90l8 10.5t24 22.5t41 28.5t57.5 23
t74.5 10.5q98 0 161.5 -57.5t63.5 -138.5v-129q0 -30 30 -30l20 5v-145q-25 -15 -65 -15zM240 120q31 0 53 24t22 61v15l-75 -15q-19 -4 -32 -17t-13 -28q0 -40 45 -40zM340 555l-50 70l-50 -70h-155l130 160h150l130 -160h-155z" />
    <glyph glyph-name="adieresis.alt" horiz-adv-x="555" 
d="M470 -10q-29 0 -53.5 7.5t-38 18.5t-23 22.5t-12.5 19.5l-3 7l-5.5 -8t-17.5 -18t-30 -23t-43.5 -18t-58.5 -8q-70 0 -115 41t-45 99q0 60 39 100t111 55l140 30q0 20 -18 35t-52 15q-29 0 -55.5 -12.5t-37.5 -24.5l-12 -13l-85 90l8 10.5t24 22.5t41 28.5t57.5 23
t74.5 10.5q98 0 161.5 -57.5t63.5 -138.5v-129q0 -30 30 -30l20 5v-145q-25 -15 -65 -15zM240 120q31 0 53 24t22 61v15l-75 -15q-19 -4 -32 -17t-13 -28q0 -40 45 -40zM90 630q0 34 25.5 59.5t59.5 25.5t59.5 -25.5t25.5 -59.5t-25.5 -59.5t-59.5 -25.5t-59.5 25.5
t-25.5 59.5zM320 630q0 34 25.5 59.5t59.5 25.5t59.5 -25.5t25.5 -59.5t-25.5 -59.5t-59.5 -25.5t-59.5 25.5t-25.5 59.5z" />
    <glyph glyph-name="amacron.alt" horiz-adv-x="555" 
d="M470 -10q-29 0 -53.5 7.5t-38 18.5t-23 22.5t-12.5 19.5l-3 7l-5.5 -8t-17.5 -18t-30 -23t-43.5 -18t-58.5 -8q-70 0 -115 41t-45 99q0 60 39 100t111 55l140 30q0 20 -18 35t-52 15q-29 0 -55.5 -12.5t-37.5 -24.5l-12 -13l-85 90l8 10.5t24 22.5t41 28.5t57.5 23
t74.5 10.5q98 0 161.5 -57.5t63.5 -138.5v-129q0 -30 30 -30l20 5v-145q-25 -15 -65 -15zM240 120q31 0 53 24t22 61v15l-75 -15q-19 -4 -32 -17t-13 -28q0 -40 45 -40zM455 715v-130h-330v130h330z" />
    <glyph glyph-name="aogonek.alt" horiz-adv-x="555" 
d="M535 150v-145q-25 -15 -60 -15q-25 -40 -25 -90q0 -40 40 -40q13 0 25.5 4t18.5 8l6 3v-90q-35 -20 -90 -20q-52 0 -86 32t-34 78q0 33 19 64.5t37 46.5l19 14q-23 9 -39 25.5t-21 28.5l-5 11l-5.5 -8t-17.5 -18t-30 -23t-43.5 -18t-58.5 -8q-70 0 -115 41t-45 99
q0 60 39 100t111 55l140 30q0 20 -18 35t-52 15q-29 0 -55.5 -12.5t-37.5 -24.5l-12 -13l-85 90l8 10.5t24 22.5t41 28.5t57.5 23t74.5 10.5q98 0 161.5 -57.5t63.5 -138.5v-129q0 -30 30 -30zM240 120q31 0 53 24t22 61v15l-75 -15q-19 -4 -32 -17t-13 -28q0 -40 45 -40z
" />
    <glyph glyph-name="aring.alt" horiz-adv-x="555" 
d="M250 655q0 -40 40 -40t40 40t-40 40t-40 -40zM420 655q0 -49 -37.5 -84.5t-92.5 -35.5t-92.5 35.5t-37.5 84.5t37.5 84.5t92.5 35.5t92.5 -35.5t37.5 -84.5zM470 -10q-29 0 -53.5 7.5t-38 18.5t-23 22.5t-12.5 19.5l-3 7l-5.5 -8t-17.5 -18t-30 -23t-43.5 -18t-58.5 -8
q-70 0 -115 41t-45 99q0 60 39 100t111 55l140 30q0 20 -18 35t-52 15q-29 0 -55.5 -12.5t-37.5 -24.5l-12 -13l-85 90l8 10.5t24 22.5t41 28.5t57.5 23t74.5 10.5q98 0 161.5 -57.5t63.5 -138.5v-129q0 -30 30 -30l20 5v-145q-25 -15 -65 -15zM240 120q31 0 53 24t22 61v15
l-75 -15q-19 -4 -32 -17t-13 -28q0 -40 45 -40z" />
    <glyph glyph-name="atilde.alt" horiz-adv-x="555" 
d="M470 -10q-29 0 -53.5 7.5t-38 18.5t-23 22.5t-12.5 19.5l-3 7l-5.5 -8t-17.5 -18t-30 -23t-43.5 -18t-58.5 -8q-70 0 -115 41t-45 99q0 60 39 100t111 55l140 30q0 20 -18 35t-52 15q-29 0 -55.5 -12.5t-37.5 -24.5l-12 -13l-85 90l8 10.5t24 22.5t41 28.5t57.5 23
t74.5 10.5q98 0 161.5 -57.5t63.5 -138.5v-129q0 -30 30 -30l20 5v-145q-25 -15 -65 -15zM240 120q31 0 53 24t22 61v15l-75 -15q-19 -4 -32 -17t-13 -28q0 -40 45 -40zM245 595q-35 0 -35 -50h-105q0 85 31 127.5t79 42.5q36 0 71 -25t49 -25q35 0 35 50h105
q0 -85 -31 -127.5t-79 -42.5q-36 0 -71 25t-49 25z" />
    <glyph glyph-name="lacute.alt" horiz-adv-x="355" 
d="M75 780l85 161h180l-120 -161h-145zM230 700v-500q0 -55 55 -55q11 0 23.5 2.5t19.5 4.5l7 3v-150q-40 -15 -95 -15q-87 0 -133.5 48.5t-46.5 141.5v520h170z" />
    <glyph glyph-name="lcaron.alt" horiz-adv-x="390" 
d="M230 700v-500q0 -55 55 -55q11 0 23.5 2.5t19.5 4.5l7 3v-150q-40 -15 -95 -15q-87 0 -133.5 48.5t-46.5 141.5v520h170zM260 540l50 160h160l-75 -160h-135z" />
    <glyph glyph-name="lcommaaccent.alt" horiz-adv-x="350" 
d="M230 700v-500q0 -55 55 -55q11 0 23.5 2.5t19.5 4.5l7 3v-150q-40 -15 -95 -15q-87 0 -133.5 48.5t-46.5 141.5v520h170zM72 -240l50 160h160l-75 -160h-135z" />
    <glyph glyph-name="Igrave.alt" horiz-adv-x="450" 
d="M40 530v170h370v-170h-90v-360h90v-170h-370v170h90v360h-90zM210 941l85 -161h-145l-120 161h180z" />
    <glyph glyph-name="Iacute.alt" horiz-adv-x="450" 
d="M40 530v170h370v-170h-90v-360h90v-170h-370v170h90v360h-90zM145 780l85 161h180l-120 -161h-145z" />
    <glyph glyph-name="Icircumflex.alt" horiz-adv-x="450" 
d="M40 530v170h370v-170h-90v-360h90v-170h-370v170h90v360h-90zM275 780l-50 70l-50 -70h-155l130 160h150l130 -160h-155z" />
    <glyph glyph-name="Idieresis.alt" horiz-adv-x="450" 
d="M40 530v170h370v-170h-90v-360h90v-170h-370v170h90v360h-90zM25 855q0 34 25.5 59.5t59.5 25.5t59.5 -25.5t25.5 -59.5t-25.5 -59.5t-59.5 -25.5t-59.5 25.5t-25.5 59.5zM255 855q0 34 25.5 59.5t59.5 25.5t59.5 -25.5t25.5 -59.5t-25.5 -59.5t-59.5 -25.5t-59.5 25.5
t-25.5 59.5z" />
    <glyph glyph-name="Idotaccent.alt" horiz-adv-x="450" 
d="M40 530v170h370v-170h-90v-360h90v-170h-370v170h90v360h-90zM320 860q0 -38 -27 -64t-68 -26t-68 26t-27 64t27 64t68 26t68 -26t27 -64z" />
    <glyph glyph-name="Imacron.alt" horiz-adv-x="450" 
d="M40 530v170h370v-170h-90v-360h90v-170h-370v170h90v360h-90zM390 935v-130h-330v130h330z" />
    <glyph glyph-name="Iogonek.alt" horiz-adv-x="450" 
d="M335 0h-295v170h90v360h-90v170h370v-170h-90v-360h90v-170q-30 -50 -30 -100q0 -40 40 -40q13 0 25.5 4t18.5 8l6 3v-90q-35 -20 -90 -20q-52 0 -86 32t-34 78q0 33 19 64.5t37 46.5z" />
    <glyph glyph-name="yacute.alt" horiz-adv-x="615" 
d="M230 550l85 161h180l-120 -161h-145zM380 490h170v-445q0 -111 -75 -183t-194 -72q-44 0 -83 11t-64 26t-44 30.5t-27 26.5l-8 11l90 95q5 -6 14.5 -15t42 -24.5t68.5 -15.5q52 0 81 28.5t29 81.5v40q-2 -3 -5.5 -7t-16.5 -15.5t-28.5 -20t-41 -15.5t-53.5 -7
q-73 0 -124 56t-51 144v270h170v-235q0 -33 20 -54t50 -21q34 0 57 25t23 65v220z" />
    <glyph glyph-name="ydieresis.alt" horiz-adv-x="615" 
d="M380 490h170v-445q0 -111 -75 -183t-194 -72q-44 0 -83 11t-64 26t-44 30.5t-27 26.5l-8 11l90 95q5 -6 14.5 -15t42 -24.5t68.5 -15.5q52 0 81 28.5t29 81.5v40q-2 -3 -5.5 -7t-16.5 -15.5t-28.5 -20t-41 -15.5t-53.5 -7q-73 0 -124 56t-51 144v270h170v-235
q0 -33 20 -54t50 -21q34 0 57 25t23 65v220zM105 625q0 34 25.5 59.5t59.5 25.5t59.5 -25.5t25.5 -59.5t-25.5 -59.5t-59.5 -25.5t-59.5 25.5t-25.5 59.5zM335 625q0 34 25.5 59.5t59.5 25.5t59.5 -25.5t25.5 -59.5t-25.5 -59.5t-59.5 -25.5t-59.5 25.5t-25.5 59.5z" />
    <glyph glyph-name="ugrave.alt" horiz-adv-x="615" 
d="M290 716l85 -161h-145l-120 161h180zM540 490v-315q0 -30 30 -30l20 5v-145q-25 -15 -65 -15q-29 0 -53.5 7.5t-38 18.5t-23 22.5t-12.5 19.5l-3 7q-2 -3 -6 -8t-18.5 -18t-31.5 -23t-45 -18t-59 -8q-79 0 -129.5 58t-50.5 152v290h170v-260q0 -37 19.5 -58.5t50.5 -21.5
t53 25t22 65v250h170z" />
    <glyph glyph-name="uacute.alt" horiz-adv-x="615" 
d="M220 555l85 161h180l-120 -161h-145zM540 490v-315q0 -30 30 -30l20 5v-145q-25 -15 -65 -15q-29 0 -53.5 7.5t-38 18.5t-23 22.5t-12.5 19.5l-3 7q-2 -3 -6 -8t-18.5 -18t-31.5 -23t-45 -18t-59 -8q-79 0 -129.5 58t-50.5 152v290h170v-260q0 -37 19.5 -58.5t50.5 -21.5
t53 25t22 65v250h170z" />
    <glyph glyph-name="ucircumflex.alt" horiz-adv-x="615" 
d="M540 490v-315q0 -30 30 -30l20 5v-145q-25 -15 -65 -15q-29 0 -53.5 7.5t-38 18.5t-23 22.5t-12.5 19.5l-3 7q-2 -3 -6 -8t-18.5 -18t-31.5 -23t-45 -18t-59 -8q-79 0 -129.5 58t-50.5 152v290h170v-260q0 -37 19.5 -58.5t50.5 -21.5t53 25t22 65v250h170zM345 555
l-50 70l-50 -70h-155l130 160h150l130 -160h-155z" />
    <glyph glyph-name="udieresis.alt" horiz-adv-x="615" 
d="M540 490v-315q0 -30 30 -30l20 5v-145q-25 -15 -65 -15q-29 0 -53.5 7.5t-38 18.5t-23 22.5t-12.5 19.5l-3 7q-2 -3 -6 -8t-18.5 -18t-31.5 -23t-45 -18t-59 -8q-79 0 -129.5 58t-50.5 152v290h170v-260q0 -37 19.5 -58.5t50.5 -21.5t53 25t22 65v250h170zM95 630
q0 34 25.5 59.5t59.5 25.5t59.5 -25.5t25.5 -59.5t-25.5 -59.5t-59.5 -25.5t-59.5 25.5t-25.5 59.5zM325 630q0 34 25.5 59.5t59.5 25.5t59.5 -25.5t25.5 -59.5t-25.5 -59.5t-59.5 -25.5t-59.5 25.5t-25.5 59.5z" />
    <glyph glyph-name="uhungarumlaut.alt" horiz-adv-x="615" 
d="M540 490v-315q0 -30 30 -30l20 5v-145q-25 -15 -65 -15q-29 0 -53.5 7.5t-38 18.5t-23 22.5t-12.5 19.5l-3 7q-2 -3 -6 -8t-18.5 -18t-31.5 -23t-45 -18t-59 -8q-79 0 -129.5 58t-50.5 152v290h170v-260q0 -37 19.5 -58.5t50.5 -21.5t53 25t22 65v250h170zM125 555
l90 160h160l-125 -160h-125zM335 555l90 160h160l-125 -160h-125z" />
    <glyph glyph-name="umacron.alt" horiz-adv-x="615" 
d="M540 490v-315q0 -30 30 -30l20 5v-145q-25 -15 -65 -15q-29 0 -53.5 7.5t-38 18.5t-23 22.5t-12.5 19.5l-3 7q-2 -3 -6 -8t-18.5 -18t-31.5 -23t-45 -18t-59 -8q-79 0 -129.5 58t-50.5 152v290h170v-260q0 -37 19.5 -58.5t50.5 -21.5t53 25t22 65v250h170zM465 710v-130
h-330v130h330z" />
    <glyph glyph-name="uogonek.alt" horiz-adv-x="615" 
d="M540 490v-315q0 -30 30 -30l20 5v-145q-25 -15 -60 -15q-25 -40 -25 -90q0 -40 40 -40q13 0 25.5 4t18.5 8l6 3v-90q-35 -20 -90 -20q-52 0 -86 32t-34 78q0 21 7.5 41.5t18.5 35t22.5 26t18.5 16.5l8 6q-23 9 -39 25.5t-21 28.5l-5 11q-2 -3 -6 -8t-18.5 -18t-31.5 -23
t-45 -18t-59 -8q-79 0 -129.5 58t-50.5 152v290h170v-260q0 -37 19.5 -58.5t50.5 -21.5t53 25t22 65v250h170z" />
    <glyph glyph-name="uring.alt" horiz-adv-x="615" 
d="M265 655q0 -40 40 -40t40 40t-40 40t-40 -40zM435 655q0 -49 -37.5 -84.5t-92.5 -35.5t-92.5 35.5t-37.5 84.5t37.5 84.5t92.5 35.5t92.5 -35.5t37.5 -84.5zM540 490v-315q0 -30 30 -30l20 5v-145q-25 -15 -65 -15q-29 0 -53.5 7.5t-38 18.5t-23 22.5t-12.5 19.5l-3 7
q-2 -3 -6 -8t-18.5 -18t-31.5 -23t-45 -18t-59 -8q-79 0 -129.5 58t-50.5 152v290h170v-260q0 -37 19.5 -58.5t50.5 -21.5t53 25t22 65v250h170z" />
    <glyph glyph-name="a.alt" horiz-adv-x="555" 
d="M470 -10q-29 0 -53.5 7.5t-38 18.5t-23 22.5t-12.5 19.5l-3 7l-5.5 -8t-17.5 -18t-30 -23t-43.5 -18t-58.5 -8q-70 0 -115 41t-45 99q0 60 39 100t111 55l140 30q0 20 -18 35t-52 15q-29 0 -55.5 -12.5t-37.5 -24.5l-12 -13l-85 90l8 10.5t24 22.5t41 28.5t57.5 23
t74.5 10.5q98 0 161.5 -57.5t63.5 -138.5v-129q0 -30 30 -30l20 5v-145q-25 -15 -65 -15zM240 120q31 0 53 24t22 61v15l-75 -15q-19 -4 -32 -17t-13 -28q0 -40 45 -40z" />
    <glyph glyph-name="l.alt" horiz-adv-x="350" 
d="M230 700v-500q0 -55 55 -55q11 0 23.5 2.5t19.5 4.5l7 3v-150q-40 -15 -95 -15q-87 0 -133.5 48.5t-46.5 141.5v520h170z" />
    <glyph glyph-name="afii10085.alt" horiz-adv-x="540" 
d="M95 -210l85 210l-185 490h180l90 -285l90 285h180l-265 -700h-175z" />
    <glyph glyph-name="y.alt" horiz-adv-x="615" 
d="M380 490h170v-445q0 -111 -75 -183t-194 -72q-44 0 -83 11t-64 26t-44 30.5t-27 26.5l-8 11l90 95q5 -6 14.5 -15t42 -24.5t68.5 -15.5q52 0 81 28.5t29 81.5v40q-2 -3 -5.5 -7t-16.5 -15.5t-28.5 -20t-41 -15.5t-53.5 -7q-73 0 -124 56t-51 144v270h170v-235
q0 -33 20 -54t50 -21q34 0 57 25t23 65v220z" />
    <glyph glyph-name="I.alt" horiz-adv-x="450" 
d="M40 530v170h370v-170h-90v-360h90v-170h-370v170h90v360h-90z" />
    <glyph glyph-name="u.alt" horiz-adv-x="615" 
d="M540 490v-315q0 -30 30 -30l20 5v-145q-25 -15 -65 -15q-29 0 -53.5 7.5t-38 18.5t-23 22.5t-12.5 19.5l-3 7q-2 -3 -6 -8t-18.5 -18t-31.5 -23t-45 -18t-59 -8q-79 0 -129.5 58t-50.5 152v290h170v-260q0 -37 19.5 -58.5t50.5 -21.5t53 25t22 65v250h170z" />
    <glyph glyph-name="afii10065.alt" horiz-adv-x="555" 
d="M470 -10q-29 0 -53.5 7.5t-38 18.5t-23 22.5t-12.5 19.5l-3 7l-5.5 -8t-17.5 -18t-30 -23t-43.5 -18t-58.5 -8q-70 0 -115 41t-45 99q0 60 39 100t111 55l140 30q0 20 -18 35t-52 15q-29 0 -55.5 -12.5t-37.5 -24.5l-12 -13l-85 90l8 10.5t24 22.5t41 28.5t57.5 23
t74.5 10.5q98 0 161.5 -57.5t63.5 -138.5v-129q0 -30 30 -30l20 5v-145q-25 -15 -65 -15zM240 120q31 0 53 24t22 61v15l-75 -15q-19 -4 -32 -17t-13 -28q0 -40 45 -40z" />
    <glyph glyph-name="at.case" horiz-adv-x="900" 
d="M440 415q-27 0 -46 -20t-19 -50t19 -50t46 -20t46 20t19 50t-19 50t-46 20zM420 530q24 0 45.5 -9t30.5 -17l9 -9v30h115v-200q0 -22 15.5 -38.5t34.5 -16.5q60 0 60 100q0 111 -79.5 188t-200.5 77q-116 0 -200.5 -84.5t-84.5 -200.5t84.5 -200.5t200.5 -84.5
q49 0 92.5 15t63.5 30l19 15l70 -80q-4 -4 -11 -10t-30.5 -21.5t-50 -27.5t-68.5 -21.5t-85 -9.5q-165 0 -282.5 116.5t-117.5 278.5t117.5 278.5t282.5 116.5q170 0 285 -110.5t115 -264.5q0 -99 -49 -154.5t-126 -55.5q-37 0 -67 15t-42 30l-11 15q-4 -7 -12.5 -17
t-40.5 -26.5t-72 -16.5q-72 0 -121 52t-49 133t47 133t113 52z" />
    <glyph glyph-name="parenleft.case" horiz-adv-x="390" 
d="M235 350q0 -64 14 -129.5t33.5 -113t39.5 -85.5t34 -58l14 -19l-130 -80l-19.5 23t-43.5 64t-54.5 102t-43 134t-19.5 162t18.5 161t45 136t53 100t45.5 66l18 22l130 -80l-14.5 -20t-32.5 -56t-41 -87.5t-32.5 -111t-14.5 -130.5z" />
    <glyph glyph-name="parenright.case" horiz-adv-x="390" 
d="M155 350q0 64 -14 129.5t-34 113t-39.5 85.5t-33.5 58l-14 19l130 80l19.5 -23t43.5 -64t54.5 -102t43 -134t19.5 -162t-18.5 -161t-45 -136t-53 -100t-45.5 -66l-18 -22l-130 80l14.5 20t32.5 56t41 87.5t32.5 111t14.5 130.5z" />
    <glyph glyph-name="bracketleft.case" horiz-adv-x="395" 
d="M250 660v-620h110v-150h-280v920h280v-150h-110z" />
    <glyph glyph-name="bracketright.case" horiz-adv-x="395" 
d="M145 40v620h-110v150h280v-920h-280v150h110z" />
    <glyph glyph-name="braceleft.case" horiz-adv-x="430" 
d="M50 275v150q30 0 50 20t20 50v120q0 96 45.5 145.5t129.5 49.5h100v-160h-45q-23 0 -39 -17t-16 -43v-110q0 -31 -9 -55.5t-21.5 -38t-24.5 -22.5t-21 -12l-9 -2l9 -3t20.5 -11.5t26 -22.5t20.5 -37.5t9 -55.5v-110q0 -26 16 -43t39 -17h45v-160h-100q-84 0 -129.5 49.5
t-45.5 145.5v120q0 30 -20 50t-50 20z" />
    <glyph glyph-name="braceright.case" horiz-adv-x="430" 
d="M380 425v-150q-30 0 -50 -20t-20 -50v-120q0 -96 -45.5 -145.5t-129.5 -49.5h-100v160h45q23 0 39 17t16 43v110q0 31 9 55.5t21.5 38t24.5 22.5t21 12l9 2l-9 3t-20.5 11.5t-26 22.5t-20.5 37.5t-9 55.5v110q0 26 -16 43t-39 17h-45v160h100q84 0 129.5 -49.5
t45.5 -145.5v-120q0 -30 20 -50t50 -20z" />
    <glyph glyph-name="exclamdown.case" horiz-adv-x="340" 
d="M100 480h140l30 -480h-200zM75 620q0 38 27 64t68 26t68 -26t27 -64t-27 -64t-68 -26t-68 26t-27 64z" />
    <glyph glyph-name="questiondown.case" horiz-adv-x="565" 
d="M385 435q0 -37 -16 -66t-38.5 -46.5t-45.5 -32.5t-39 -32.5t-16 -37.5q0 -23 18 -39t47 -16q21 0 38.5 6t27.5 15t17 18t10 15l2 6l160 -75q-2 -7 -7 -18.5t-26 -40.5t-48 -51.5t-76 -41t-108 -18.5q-112 0 -186 64t-74 146q0 49 18 88t43.5 64.5t51.5 46.5t44 44t18 47
h175q10 -25 10 -45zM395 620q0 -38 -27 -64t-68 -26t-68 26t-27 64t27 64t68 26t68 -26t27 -64z" />
    <glyph glyph-name="guillemotleft.case" horiz-adv-x="595" 
d="M325 530l-130 -180l130 -180h-160l-130 180l130 180h160zM560 530l-130 -180l130 -180h-160l-130 180l130 180h160z" />
    <glyph glyph-name="guillemotright.case" horiz-adv-x="595" 
d="M400 350l-130 180h160l130 -180l-130 -180h-160zM165 350l-130 180h160l130 -180l-130 -180h-160z" />
    <glyph glyph-name="guilsinglleft.case" horiz-adv-x="370" 
d="M335 530l-130 -180l130 -180h-170l-130 180l130 180h170z" />
    <glyph glyph-name="guilsinglright.case" horiz-adv-x="370" 
d="M165 350l-130 180h170l130 -180l-130 -180h-170z" />
    <glyph glyph-name="hyphen.case" horiz-adv-x="435" 
d="M400 418v-150h-365v150h365z" />
    <glyph glyph-name="endash.case" horiz-adv-x="510" 
d="M480 418v-140h-450v140h450z" />
    <glyph glyph-name="emdash.case" horiz-adv-x="750" 
d="M720 418v-140h-690v140h690z" />
    <glyph glyph-name="periodcentered.case" horiz-adv-x="210" 
d="M10 348q0 38 27 64t68 26t68 -26t27 -64t-27 -64t-68 -26t-68 26t-27 64z" />
    <glyph glyph-name="c_t" horiz-adv-x="940" 
d="M545 330v150h65q0 44 -20 67t-55 23q-34 0 -54.5 -21.5t-20.5 -58.5q0 -22 12.5 -44.5t25.5 -33.5l12 -12l-100 -105q-4 6 -11.5 15t-33.5 24.5t-55 15.5q-45 0 -75 -30t-30 -75t30 -75t75 -30q29 0 54 14t36 28l10 13l100 -105l-8.5 -11t-25 -24t-42 -30t-59 -24
t-75.5 -11q-111 0 -190.5 76.5t-79.5 178.5t78.5 178.5t186.5 76.5q0 104 66.5 162t178.5 58q109 0 174.5 -65.5t65.5 -174.5h100v-150h-100v-140q0 -23 15 -36.5t40 -13.5q12 0 24.5 2.5t18.5 5.5l7 2v-145q-45 -15 -100 -15q-83 0 -129 48.5t-46 141.5v150h-65z" />
    <glyph glyph-name="s_p" horiz-adv-x="1100" 
d="M695 245q0 -44 28.5 -74.5t66.5 -30.5t66.5 30.5t28.5 74.5t-28.5 74.5t-66.5 30.5t-66.5 -30.5t-28.5 -74.5zM215 500q0 104 65 162t175 58q104 0 172 -66t68 -164v-60q2 3 5.5 7.5t16.5 16.5t28 21.5t39 17t51 7.5q92 0 158.5 -72.5t66.5 -182.5t-66.5 -182.5
t-158.5 -72.5q-42 0 -77 17.5t-49 34.5l-14 18v-270h-170v700q0 37 -19.5 58.5t-50.5 21.5q-34 0 -54.5 -20.5t-20.5 -54.5q0 -20 11 -37.5t23 -25.5l11 -7l-80 -85q-25 25 -65 25q-21 0 -33 -9t-12 -21t21 -20.5t51.5 -18.5t60.5 -24.5t51 -45.5t21 -76q0 -67 -56.5 -113.5
t-153.5 -46.5q-43 0 -82 10t-63 24t-42 27.5t-25 23.5l-8 10l85 90q4 -6 11.5 -14t32 -22t51.5 -14q21 0 33 9t12 21t-21 20.5t-51.5 18.5t-60.5 24.5t-51 45.5t-21 76q0 62 54 111t131 49z" />
    <glyph glyph-name="f_t" horiz-adv-x="755" 
d="M445 535v95h150v-160h100v-150h-100v-130q0 -23 15 -36.5t40 -13.5q12 0 24.5 2.5t19.5 5.5l6 2v-145q-45 -15 -100 -15q-83 0 -129 48.5t-46 141.5v140h-170v-320h-170v320h-65v150h65v50q0 93 46 141.5t129 48.5q24 0 49 -4t38 -8l13 -3v-145q-20 10 -50 10
q-26 0 -40.5 -13.5t-14.5 -36.5v-40h130q27 0 43.5 17.5t16.5 47.5z" />
    <glyph glyph-name="zero.tab" horiz-adv-x="670" 
d="M215 350q0 -98 35 -149t85 -51t85 51t35 149t-35 149t-85 51t-85 -51t-35 -149zM645 350q0 -164 -91 -267t-219 -103t-219 103t-91 267t91 267t219 103t219 -103t91 -267z" />
    <glyph glyph-name="one.tab" horiz-adv-x="670" 
d="M300 700h165v-700h-190v490h-115v115q44 7 79 30.5t48 44.5z" />
    <glyph glyph-name="two.tab" horiz-adv-x="670" 
d="M590 0h-520q0 69 17.5 126.5t46 95t62.5 68.5t68 53l62.5 42t46 42.5t17.5 47.5q0 65 -75 65q-29 0 -51.5 -16.5t-30.5 -32.5l-8 -16l-160 75q3 7 8.5 18.5t27.5 40.5t50 51.5t77.5 41t106.5 18.5q111 0 183 -67t72 -163q0 -51 -20 -91.5t-52 -68.5t-65.5 -50.5
l-69 -48.5t-53.5 -51h260v-180z" />
    <glyph glyph-name="three.tab" horiz-adv-x="670" 
d="M465 370q5 -2 13 -5.5t28.5 -17.5t36.5 -32t29 -50t13 -70q0 -86 -75.5 -150.5t-194.5 -64.5q-52 0 -99 12t-77.5 29t-54 33.5t-34.5 28.5l-10 12l110 115q6 -8 17.5 -19.5t48 -31t74.5 -19.5q43 0 69 22t26 53q0 28 -23.5 46.5t-66.5 18.5h-75v150h70q33 0 54 19t21 46
t-21 46t-54 19q-31 0 -60 -14t-42 -28l-13 -13l-110 110q3 4 9 11t28.5 25.5t49 32t70.5 25t93 11.5q112 0 181 -59t69 -141q0 -31 -10.5 -57.5t-25 -43t-29 -28t-24.5 -16.5z" />
    <glyph glyph-name="four.tab" horiz-adv-x="670" 
d="M555 275h75v-160h-75v-115h-190v115h-315v175l295 410h210v-425zM365 275v205l-145 -205h145z" />
    <glyph glyph-name="five.tab" horiz-adv-x="670" 
d="M385 460q98 0 161.5 -64.5t63.5 -165.5q0 -107 -76.5 -178.5t-198.5 -71.5q-52 0 -99 12t-76.5 29t-52 33.5t-32.5 28.5l-10 12l110 115q6 -7 17.5 -17t46.5 -26.5t71 -16.5q48 0 74 23.5t26 61.5t-25.5 61.5t-69.5 23.5q-27 0 -49.5 -10t-31.5 -20l-9 -10l-130 20
l25 400h450v-160h-280l-10 -100q40 20 105 20z" />
    <glyph glyph-name="six.tab" horiz-adv-x="670" 
d="M510 700l-145 -220q109 -11 179.5 -81.5t70.5 -168.5q0 -103 -79.5 -176.5t-200.5 -73.5t-200.5 73.5t-79.5 176.5q0 44 16.5 89t32.5 68l16 23l190 290h200zM425 230q0 38 -26.5 64t-63.5 26t-63.5 -26t-26.5 -64t26.5 -64t63.5 -26t63.5 26t26.5 64z" />
    <glyph glyph-name="seven.tab" horiz-adv-x="670" 
d="M85 700h495v-150l-260 -550h-200l250 530h-285v170z" />
    <glyph glyph-name="eight.tab" horiz-adv-x="670" 
d="M335 140q40 0 65 22t25 53t-25 53t-65 22t-65 -22t-25 -53t25 -53t65 -22zM335 440q33 0 54 18t21 42t-21 42t-54 18t-54 -18t-21 -42t21 -42t54 -18zM335 -20q-124 0 -199.5 66t-75.5 159q0 34 11.5 63.5t27.5 48.5t32 32.5t27 19.5l12 6q-3 2 -9 5.5t-20.5 16.5
t-26 28.5t-20.5 41t-9 53.5q0 79 71 139.5t179 60.5t179 -60.5t71 -139.5q0 -44 -21.5 -80.5t-42.5 -50.5l-21 -14l11.5 -6t26.5 -19t33.5 -33t26.5 -48t12 -64q0 -93 -75.5 -159t-199.5 -66z" />
    <glyph glyph-name="nine.tab" horiz-adv-x="670" 
d="M160 0l145 220q-109 11 -179.5 81.5t-70.5 168.5q0 103 79.5 176.5t200.5 73.5t200.5 -73.5t79.5 -176.5q0 -44 -16.5 -89t-32.5 -68l-16 -23l-190 -290h-200zM245 470q0 -38 26.5 -64t63.5 -26t63.5 26t26.5 64t-26.5 64t-63.5 26t-63.5 -26t-26.5 -64z" />
    <glyph glyph-name="zero.numr" horiz-adv-x="380" 
d="M140 520q0 -39 14.5 -59.5t35.5 -20.5t35.5 20.5t14.5 59.5t-14.5 59.5t-35.5 20.5t-35.5 -20.5t-14.5 -59.5zM355 520q0 -85 -46 -135t-119 -50t-119 50t-46 135t46 135t119 50t119 -50t46 -135z" />
    <glyph glyph-name="one.numr" horiz-adv-x="240" 
d="M95 700h105v-360h-120v225h-60v85q22 2 41 14.5t27 23.5z" />
    <glyph glyph-name="two.numr" horiz-adv-x="340" 
d="M310 590q0 -36 -21.5 -62.5t-58 -50t-45.5 -32.5h120v-105h-275q0 47 16 83.5t39 57t45.5 36t38.5 29.5t16 29q0 25 -30 25q-11 0 -21 -7.5t-14 -14.5l-5 -8l-90 37q1 4 4 10.5t14 23.5t26 30t42 23.5t59 10.5q66 0 103 -32.5t37 -82.5z" />
    <glyph glyph-name="three.numr" horiz-adv-x="345" 
d="M255 530q7 -2 17 -6t26.5 -24.5t16.5 -49.5q0 -47 -40 -81t-105 -34q-49 0 -86.5 16.5t-50.5 32.5l-13 16l60 65q30 -35 75 -35q15 0 25 9t10 21q0 16 -10 23t-35 7h-35v80h35q35 0 35 20q0 25 -35 25q-13 0 -27 -7.5t-21 -15.5l-7 -7l-60 65q2 2 5 6t15 13.5t26.5 16.5
t39 13t52.5 6q62 0 99.5 -30t37.5 -70q0 -24 -12.5 -43t-24.5 -26z" />
    <glyph glyph-name="four.numr" horiz-adv-x="340" 
d="M285 700v-195h35v-100h-35v-65h-115v65h-155v95l155 200h115zM115 500h60v80z" />
    <glyph glyph-name="five.numr" horiz-adv-x="325" 
d="M195 575q48 0 81.5 -32.5t33.5 -77.5q0 -58 -40 -94t-110 -36q-48 0 -85.5 13.5t-50.5 27.5l-14 14l60 65q25 -25 70 -25q18 0 29 10t11 25q0 40 -40 40q-9 0 -17.5 -2.5t-12.5 -4.5l-5 -3h-70l25 205h225v-90h-125l-5 -40q15 5 40 5z" />
    <glyph glyph-name="six.numr" horiz-adv-x="325" 
d="M275 700l-70 -100q50 -12 80 -45.5t30 -84.5q0 -57 -42 -96t-108 -39t-108 39t-42 96q0 24 7.5 46.5t15.5 33.5l7 10l105 140h125zM205 470q0 40 -40 40t-40 -40t40 -40t40 40z" />
    <glyph glyph-name="seven.numr" horiz-adv-x="300" 
d="M10 700h275v-110l-115 -250h-120l115 250h-155v110z" />
    <glyph glyph-name="eight.numr" horiz-adv-x="330" 
d="M165 430q18 0 29 9t11 21t-11 21t-29 9t-29 -9t-11 -21t11 -21t29 -9zM165 565q30 0 30 25t-30 25t-30 -25t30 -25zM165 335q-75 0 -115 31t-40 79q0 29 17.5 50t34.5 28l18 7q-2 1 -6 2.5t-13.5 8t-16.5 14.5t-13 21.5t-6 28.5q0 44 36 72t104 28t104 -28t36 -72
q0 -24 -13.5 -43t-27.5 -26l-14 -6l7.5 -2.5t16.5 -8.5t21.5 -16t17 -24.5t7.5 -33.5q0 -48 -40 -79t-115 -31z" />
    <glyph glyph-name="nine.numr" horiz-adv-x="325" 
d="M50 340l70 100q-50 12 -80 45.5t-30 84.5q0 57 42 96t108 39t108 -39t42 -96q0 -24 -7.5 -46.5t-14.5 -33.5l-8 -10l-105 -140h-125zM120 570q0 -40 40 -40t40 40t-40 40t-40 -40z" />
    <glyph glyph-name="zero.dnom" horiz-adv-x="380" 
d="M140 170q0 -39 14.5 -59.5t35.5 -20.5t35.5 20.5t14.5 59.5t-14.5 59.5t-35.5 20.5t-35.5 -20.5t-14.5 -59.5zM355 170q0 -85 -46 -135t-119 -50t-119 50t-46 135t46 135t119 50t119 -50t46 -135z" />
    <glyph glyph-name="one.dnom" horiz-adv-x="240" 
d="M95 350h105v-360h-120v225h-60v85q22 2 41 14.5t27 23.5z" />
    <glyph glyph-name="two.dnom" horiz-adv-x="340" 
d="M310 240q0 -36 -21.5 -62.5t-58 -50t-45.5 -32.5h120v-105h-275q0 47 16 83.5t39 57t45.5 36t38.5 29.5t16 29q0 25 -30 25q-11 0 -21 -7.5t-14 -14.5l-5 -8l-90 37q1 4 4 10.5t14 23.5t26 30t42 23.5t59 10.5q66 0 103 -32.5t37 -82.5z" />
    <glyph glyph-name="three.dnom" horiz-adv-x="345" 
d="M255 180q7 -2 17 -6t26.5 -24.5t16.5 -49.5q0 -47 -40 -81t-105 -34q-49 0 -86.5 16.5t-50.5 32.5l-13 16l60 65q30 -35 75 -35q15 0 25 9t10 21q0 16 -10 23t-35 7h-35v80h35q35 0 35 20q0 25 -35 25q-13 0 -27 -7.5t-21 -15.5l-7 -7l-60 65q2 2 5 6t15 13.5t26.5 16.5
t39 13t52.5 6q62 0 99.5 -30t37.5 -70q0 -24 -12.5 -43t-24.5 -26z" />
    <glyph glyph-name="four.dnom" horiz-adv-x="340" 
d="M285 350v-195h35v-100h-35v-65h-115v65h-155v95l155 200h115zM115 150h60v80z" />
    <glyph glyph-name="five.dnom" horiz-adv-x="325" 
d="M195 225q48 0 81.5 -32.5t33.5 -77.5q0 -58 -40 -94t-110 -36q-48 0 -85.5 13.5t-50.5 27.5l-14 14l60 65q25 -25 70 -25q18 0 29 10t11 25q0 40 -40 40q-9 0 -17.5 -2.5t-12.5 -4.5l-5 -3h-70l25 205h225v-90h-125l-5 -40q15 5 40 5z" />
    <glyph glyph-name="six.dnom" horiz-adv-x="325" 
d="M275 350l-70 -100q50 -12 80 -45.5t30 -84.5q0 -57 -42 -96t-108 -39t-108 39t-42 96q0 24 7.5 46.5t15.5 33.5l7 10l105 140h125zM205 120q0 40 -40 40t-40 -40t40 -40t40 40z" />
    <glyph glyph-name="seven.dnom" horiz-adv-x="300" 
d="M10 350h275v-110l-115 -250h-120l115 250h-155v110z" />
    <glyph glyph-name="eight.dnom" horiz-adv-x="330" 
d="M165 80q18 0 29 9t11 21t-11 21t-29 9t-29 -9t-11 -21t11 -21t29 -9zM165 215q30 0 30 25t-30 25t-30 -25t30 -25zM165 -15q-75 0 -115 31t-40 79q0 29 17.5 50t34.5 28l18 7q-2 1 -6 2.5t-13.5 8t-16.5 14.5t-13 21.5t-6 28.5q0 44 36 72t104 28t104 -28t36 -72
q0 -24 -13.5 -43t-27.5 -26l-14 -6l7.5 -2.5t16.5 -8.5t21.5 -16t17 -24.5t7.5 -33.5q0 -48 -40 -79t-115 -31z" />
    <glyph glyph-name="nine.dnom" horiz-adv-x="325" 
d="M50 -10l70 100q-50 12 -80 45.5t-30 84.5q0 57 42 96t108 39t108 -39t42 -96q0 -24 -7.5 -46.5t-14.5 -33.5l-8 -10l-105 -140h-125zM120 220q0 -40 40 -40t40 40t-40 40t-40 -40z" />
    <glyph glyph-name="foundryicon" horiz-adv-x="1538" 
d="M278 460v-31h-72v-199h-35v199h-71v31h178zM519 396q32 0 54.5 -25t22.5 -59q0 -36 -22.5 -60.5t-54.5 -24.5q-29 0 -47 21v-79h-34v224h24l9 -19q19 22 48 22zM516 258q19 0 33 16t14 38q0 21 -14 36.5t-33 15.5t-33 -15.5t-14 -36.5q0 -22 13.5 -38t33.5 -16zM333 277
l44 116h37l-77 -190q-16 -34 -49 -34q-7 0 -10 1v28q23 0 31 20l6 16l-63 159h37zM701 396q32 0 54 -24.5t22 -58.5l-1 -15h-119q2 -17 14.5 -29t29.5 -12q27 0 37 17h35q-9 -22 -28.5 -34.5t-43.5 -12.5q-32 0 -55 24.5t-23 60.5q0 35 23 59.5t55 24.5zM657 325h88
q-1 17 -14.5 28.5t-29.5 11.5t-29 -11t-15 -29zM939 460v-31h-72v-199h-35v199h-71v31h178zM1180 396q32 0 54.5 -25t22.5 -59q0 -36 -22.5 -60.5t-54.5 -24.5q-29 0 -47 21v-79h-34v224h24l9 -19q19 22 48 22zM1177 258q19 0 33 16t14 38q0 21 -14 36.5t-33 15.5t-33 -15.5
t-14 -36.5q0 -22 13.5 -38t33.5 -16zM994 277l44 116h37l-77 -190q-16 -34 -49 -34q-7 0 -10 1v28q23 0 31 20l6 16l-63 159h37zM1362 396q32 0 54 -24.5t22 -58.5l-1 -15h-119q2 -17 14.5 -29t29.5 -12q27 0 37 17h35q-9 -22 -28.5 -34.5t-43.5 -12.5q-32 0 -55 24.5
t-23 60.5q0 35 23 59.5t55 24.5zM1318 325h88q-1 17 -14.5 28.5t-29.5 11.5t-29 -11t-15 -29z" />
    </font>
</defs>
</svg>
