<svg xmlns="http://www.w3.org/2000/svg" viewBox="0 0 382.37 399.03"><defs><style>.cls-1{fill:none}.cls-2{fill:#3d3b39}.cls-3{fill:#ffb917}.cls-4{fill:#111}.cls-5{fill:#fff}</style></defs><g id="Calque_2" data-name="Calque 2"><g id="Calque_1-2" data-name="Calque 1"><path class="cls-1" d="M88.82 167.24c.07.32.15.63.21 1l.13-.05c-.16-.34-.24-.65-.34-.95zm-3.15-8.96l.22.45-.09-.3zm-19.99 49.11l-.06.1zm14.11-95.34l-.2.2h.09zm12.44 198.69zM72.73 136.1v.16s.01-.12 0-.16zm-19.87 83.07l.24-.23H53zm-12.61-12.42l.07-.05h-.07zm-9.02 26.68a27.76 27.76 0 0 0-1.26 2.9q.55-1.35 1.24-2.67c0-.07.02-.15.02-.23z"/><path class="cls-2" d="M76.63 298.31a44.64 44.64 0 0 0 12 12.83l.23.13a78.44 78.44 0 0 1-12.23-12.96zm49.11-198.65a30.51 30.51 0 0 1-11.62-3.55 20 20 0 0 0 2.14 6c0 .1.1.19.14.29.54 1.37-1.59 2.14-2.3 1a14.71 14.71 0 0 1-1-2c-3.24-5.89-10.42-10.34-16.7-11.78-5.1-1.17-10.39-.15-15.25 1.85a35.15 35.15 0 0 1 26.62 10.49 1.25 1.25 0 0 1-.39 2 1.13 1.13 0 0 1-1.12.76 73.35 73.35 0 0 1-10.73-.72c.57.3 1.12.64 1.7.93a1.27 1.27 0 0 1-.63 2.34c-4.3-.33-8.77-.59-13.11-1.16a1.23 1.23 0 0 1 .27 1.54 31.55 31.55 0 0 1-4 4.4l-.11.17h-.09l-.23.23A25.49 25.49 0 0 0 74 122.71c-1.32 4.48-1 9-1.29 13.38v.28a1.29 1.29 0 0 1-.16 1.64c0 .25-.07.49-.1.74 4.82 4.38 8.14 10.24 11.34 15.85.68 1.19 1.3 2.4 1.88 3.63l.13.16.09.3a43.2 43.2 0 0 1 2.93 8.51c.1.3.22.61.34.9l-.13.05a36.36 36.36 0 0 1 .69 5.38c.08 1.62-2.43 1.61-2.51 0v-.31l-.14-.09a35.32 35.32 0 0 0-10.8 7c-3.37 9-5.87 18.71-10.56 27.16v.09a45 45 0 0 1-5.1 7.41 1.06 1.06 0 0 1 .3 1.18 71.58 71.58 0 0 0-2.53 32.33 140.94 140.94 0 0 0 5.09-36.13 1.26 1.26 0 0 1 2.51 0 144.15 144.15 0 0 1-6.58 41.6c.25 1.13.57 2.25.88 3.38 1.27-.89 2.53-1.79 3.78-2.7a25.65 25.65 0 0 1 .14-10.86 1.26 1.26 0 0 1 2.43.66c-2.73 10.12 2.95 26.33 10.75 33.95-2-7.58-4.56-15-6.55-22.64a1.26 1.26 0 0 1 2.42-.67c3.06 11.65 7.4 22.91 9.17 34.87.23 1.59-2.19 2.27-2.42.67-.41-2.77-1-5.49-1.6-8.2a1.14 1.14 0 0 1-.35-.16c-5.86-4.43-9.17-10.82-11.4-17.71-.73-2.24-1.46-4.7-2-7.22q-1.8 1.3-3.61 2.58c3.45 11.36 8.14 22.94 14.69 32.92 4.06 6.19 9.88 13.32 16.64 18a28.7 28.7 0 0 0 9.84 4.54c6.59 1.49 14.87 0 21.44-1.27a36.17 36.17 0 0 0 12.1-4.45 1.92 1.92 0 0 0-.47-2.17l-.5-.57a3.28 3.28 0 0 0-2.43-2.73l-1.16-1.3a2.66 2.66 0 0 0-2.19-1.2 5.17 5.17 0 0 0-2-2.36l-.19-.25a3.18 3.18 0 0 0-1.69-1.2c-1.16-2.32-2.25-4.68-3.47-7a2.59 2.59 0 0 0-2.34-1.39c-.77-1.7-1.55-3.38-2.4-5a2.55 2.55 0 0 0-2.14-1.43c-.57-1.3-1.17-2.58-1.86-3.84a2.51 2.51 0 0 0-2.32-1.42c-1.42-3.61-2.86-7.21-4.58-10.7a2.31 2.31 0 0 0-2.62-1.37 13 13 0 0 0-.64-1.25c-1.21-3.07-2.34-6.13-3.37-9.32a2.74 2.74 0 0 0-1.27-1.6c-.15-.64-.31-1.27-.45-1.92-.46-2.52-.94-5-1.43-7.53a2.52 2.52 0 0 0-1-1.59c-.2-1.11-.38-2.22-.54-3.34-.35-3.48-.71-7-.88-10.46a2.94 2.94 0 0 0-.56-1.58v-.18c-.14-1-.23-1.74-.35-2.4a60.58 60.58 0 0 0 .79-9.34 2.22 2.22 0 0 0-.75-1.75c.35-2.29.66-4.58.94-6.92a1.3 1.3 0 0 0-.16-.77c1.75-3.07 3.61-5.59 3.19-9.19a2.64 2.64 0 0 0 .62-1 20.37 20.37 0 0 0 .79-3.16 2.18 2.18 0 0 0 2.53-1.86c.1-.47.3-2 .55-3.27a2.69 2.69 0 0 0 2-.26c3.05-1.61 6.33-2.24 9.22-4a24.21 24.21 0 0 0 1.64-3 3 3 0 0 0 2.09-3.52l-.45-3.74a3 3 0 0 0 .08-.38c2.74-1 2.65-5.27-.76-5.39-2.07-.07-2.85-5.07-3.12-10.34a2.74 2.74 0 0 0 .33-1.61 69.2 69.2 0 0 1-.33-10.27 3 3 0 0 0-.1-.6 75.68 75.68 0 0 1 2.1-15.99c1.1-4.49 2.89-8.7 3.54-13.24a60.11 60.11 0 0 1 11.1-13.76c1.16-1.07-.06-3.46-1.63-2.79l-.2-.05a1.14 1.14 0 0 1-1.17 1.5zm-41.3 139.9c.47 1.76.19 3.59.64 5.34a1.17 1.17 0 0 1-.12.89 1.07 1.07 0 0 1 .43.68 20.93 20.93 0 0 0 2.4 6.3 1.26 1.26 0 0 1-2.17 1.23 23.13 23.13 0 0 1-2.65-6.9 1.22 1.22 0 0 1 .15-.9 1.12 1.12 0 0 1-.47-.67c-.45-1.76-.17-3.6-.64-5.34a1.26 1.26 0 0 1 2.43-.62zM70 236.92c-1.31-.93-.06-3.11 1.27-2.17a32.51 32.51 0 0 1 13.32 19.92c2.35 10.66 2.63 21.69 10.9 29.89a1.26 1.26 0 0 1-1.78 1.78c-6.09-6-8.59-14-10.09-22.3-1.95-10.92-3.93-20.28-13.62-27.12zm11.67 38.94c-2-4.76-3-9.61-4.17-14.63-1.35-6-3.43-11.85-4.92-17.83a1.26 1.26 0 0 1 2.42-.67c2.16 8.68 4.26 17.65 6.82 26.2 1.86 6.23 6.8 19.89 14.06 21.91a1.26 1.26 0 0 1-.66 2.43c-6.96-1.95-10.93-11.36-13.53-17.41zm12.62 23.06c-3.78-1.56-7.53-3.91-9.25-7.79-.65-1.47 1.52-2.75 2.17-1.27 1.45 3.27 4.54 5.31 7.75 6.64 1.49.61.84 3.04-.65 2.42zm3.15 7.22a33.87 33.87 0 0 1-8.8-4.3 12.06 12.06 0 0 1-2.58-2.43c-.55-.67-2.06-3.13-3.06-3-1.58.23-2.27-2.19-.67-2.42 2.73-.39 4.17 2.07 5.73 3.91 2.41 2.83 6.55 4.71 10 5.81 1.61.5.94 2.92-.6 2.44zm-4.2-47c2.14 8.58 3.95 17.09 8.1 25 .75 1.43-1.42 2.71-2.17 1.27-4.61-8.76-6.41-18.25-8.9-27.75-1.3-5-5.24-11.06-4.5-16.26.23-1.6 2.65-.92 2.43.66-.39 2.78 1.69 6.21 2.62 8.75a79.2 79.2 0 0 1 2.44 8.38zm-6.77-111.42c-4.79 0-9.33-8-9.34-16.52s4.5-16.54 9.29-16.55c4.51 0 7.93 7.1 7.95 16.52s-3.37 16.55-7.9 16.55zm9-30.85c-.11-1.6-3.08-2.64-4.3-3.11a31.57 31.57 0 0 0-4.82-1.41c-1.89-.4-1.09-3.29.8-2.89 3.86.82 11 2.57 11.33 7.42.14 1.92-2.86 1.9-2.99-.01z"/><path class="cls-3" d="M14.13 219.75c3.28-1.41 6.6-2.68 9.91-4a90.14 90.14 0 0 0 16.21-9h.07c2.79-1.89 5.52-3.88 8.2-5.89a269.8 269.8 0 0 0 21.71-18.14c1.24-1.16 2.48-2.34 3.73-3.5l1.2-1.08c3.5-3.14 7.22-6 11.72-7.55-1.48-10.13-7.67-21.74-15-28.9a1.27 1.27 0 0 1-2.24-1c0-.09 0-.18.05-.27-3.62 2.92-6.78 6.29-10.15 9.55s-7.14 6.13-10.62 9.32a121 121 0 0 0-20.58 24.35 293.31 293.31 0 0 0-15.2 27.88c-1.58 3.23-3.09 7.86-6 10.54a43.45 43.45 0 0 0 6.99-2.31zM35.26 188c5.67-4.35 8.33-11.48 12.87-16.85 4.67-5.52 10.71-9.69 15.32-15.27 1-1.25 2.81.54 1.78 1.77C60 164 52.86 168.61 48 175.37c-3.67 5.12-6.39 10.88-11.49 14.78-1.26.99-2.51-1.15-1.25-2.15zm8.22 40c3.16-2.9 6.31-5.86 9.39-8.86l.17-.23h.07q1.6-1.57 3.18-3.16c8.63-8.71 12-20.5 15.94-31.8-2 2-4 3.94-6.07 5.69q-2.33 2-4.69 4c1.33-.64 2.37 2.36 2.37 2.36a1.26 1.26 0 0 1 .09.29c.28 5.54-3.79 10.66-7 14.82a65.5 65.5 0 0 1-7.22 8.26c-2.29 2.13-6.23 5-8.8 7.73l-2.47 1.77c-1 .68-2.67 1.61-2.51 0 .32-3.34 2.94-5.89 4.78-8.53A128.69 128.69 0 0 0 48.43 207c.19-.35.8-3.58.8-3.58-1 .73-2 1.47-2.94 2.18-.77.55-1.55 1.08-2.33 1.62a1.09 1.09 0 0 1 .2 1.07 69.34 69.34 0 0 1-6.71 14.9c-2 3.48-4.45 6.72-6.22 10.29v.23q-.7 1.29-1.23 2.62c-.2.56-.4 1.12-.56 1.71 1.91-1.07 4-1.84 5.82-3.12a80.21 80.21 0 0 0 8.22-6.92z"/><path class="cls-4" d="M95.24 293.27a1.26 1.26 0 0 0 .66-2.43c-7.27-2-12.2-15.68-14.06-21.91-2.56-8.56-4.66-17.52-6.82-26.2a1.26 1.26 0 0 0-2.42.67c1.49 6 3.57 11.81 4.92 17.83 1.13 5 2.13 9.87 4.17 14.63 2.6 6.05 6.57 15.46 13.55 17.41z"/><path class="cls-4" d="M83.64 264c1.49 8.27 4 16.25 10.09 22.3a1.26 1.26 0 0 0 1.78-1.78c-8.27-8.2-8.55-19.23-10.9-29.89a32.51 32.51 0 0 0-13.32-19.92c-1.29-.89-2.58 1.29-1.29 2.21 9.69 6.84 11.67 16.2 13.64 27.08zm-47.11-73.85c5.1-3.9 7.82-9.66 11.49-14.78C52.86 168.61 60 164 65.23 157.64c1-1.24-.75-3-1.78-1.77-4.62 5.58-10.65 9.74-15.32 15.27-4.54 5.37-7.19 12.5-12.87 16.85-1.26 1.01-.01 3.15 1.27 2.16z"/><path class="cls-4" d="M137.71 308.18a24.64 24.64 0 0 1-2.07 1.4 36.17 36.17 0 0 1-12.1 4.45c-6.57 1.26-14.85 2.76-21.44 1.27a28.7 28.7 0 0 1-9.84-4.54c-6.77-4.68-12.58-11.81-16.64-18-6.55-10-11.24-21.56-14.69-32.92q1.81-1.28 3.61-2.58c.58 2.52 1.31 5 2 7.22 2.23 6.89 5.54 13.28 11.4 17.71a1.14 1.14 0 0 0 .35.16c.64 2.7 1.19 5.43 1.6 8.2.24 1.59 2.66.91 2.42-.67-1.77-12-6.11-23.22-9.17-34.87a1.26 1.26 0 0 0-2.42.67c2 7.61 4.53 15.06 6.55 22.64-7.8-7.62-13.48-23.83-10.75-33.95a1.26 1.26 0 0 0-2.43-.66 25.65 25.65 0 0 0-.09 10.84c-1.25.91-2.51 1.81-3.78 2.7-.31-1.12-.63-2.24-.88-3.38a144.15 144.15 0 0 0 6.58-41.6 1.26 1.26 0 0 0-2.51 0 140.94 140.94 0 0 1-5.09 36.13 71.58 71.58 0 0 1 2.53-32.33 1.06 1.06 0 0 0-.3-1.18 45 45 0 0 0 5.1-7.41l.06-.1c4.69-8.45 7.2-18.19 10.56-27.16a35.32 35.32 0 0 1 10.8-7l.14.09v.31c.08 1.61 2.59 1.62 2.51 0a36.36 36.36 0 0 0-.69-5.38c-.06-.32-.14-.64-.21-1a43.2 43.2 0 0 0-2.93-8.51l-.22-.45c-.58-1.23-1.2-2.44-1.88-3.63-3.2-5.61-6.52-11.47-11.34-15.85 0-.25.07-.49.1-.74a1.29 1.29 0 0 0 .16-1.64v-.33c.27-4.43 0-8.91 1.29-13.38a25.49 25.49 0 0 1 5.34-10.22l.23-.23.2-.2a31.55 31.55 0 0 0 4-4.4 1.23 1.23 0 0 0-.27-1.54c4.35.58 8.81.84 13.11 1.16a1.27 1.27 0 0 0 .63-2.34c-.59-.29-1.13-.62-1.7-.93a73.35 73.35 0 0 0 10.73.72 1.13 1.13 0 0 0 1.12-.76 1.25 1.25 0 0 0 .39-2 35.15 35.15 0 0 0-26.63-10.51c4.86-2 10.15-3 15.25-1.85 6.29 1.45 13.47 5.89 16.7 11.78a14.71 14.71 0 0 0 1 2c.71 1.17 2.84.4 2.3-1 0-.1-.1-.19-.14-.29a20 20 0 0 1-2.14-6 30.51 30.51 0 0 0 11.62 3.55 1.14 1.14 0 0 0 1.16-1.51 1.25 1.25 0 0 0-1.17-1c-4.63-.3-8.83-2.33-12.85-4.51a1.27 1.27 0 0 0-1.88 1.44c.08.31.15.62.22.93a32.3 32.3 0 0 0-12.67-7.4c-8.84-2.73-18.36.65-25.85 5.43-1.16.74-.44 2.75 1 2.3a32 32 0 0 1 30.71 6.85c-5.56-.11-11-.65-16.25-2.7-1.44-.56-2 1.52-1 2.3 1.24.93 2.52 1.76 3.82 2.55a95.08 95.08 0 0 1-11.64-1.45 1.27 1.27 0 0 0-1.22 2.1 23.3 23.3 0 0 0 2.79 2.33c-3.1 4.31-6.74 7.13-8.66 12.58a47.34 47.34 0 0 0-2.14 9.39 65.23 65.23 0 0 0-.11 7.59c-6.63 4.81-12 11.17-18.25 16.45a132.18 132.18 0 0 0-20.21 21.11c-6 7.94-10.39 16.65-15.11 25.37-2.15 4-4.36 7.9-6.28 12l-7 12.63c-.09 0-.32.28-.41.31a1.17 1.17 0 1 0 .83 2.19c3.08-1 5-2.06 8.12-3.3 4.37-1.75 8.69-3.7 13-5.49a93.61 93.61 0 0 0 16.5-9.09A72.44 72.44 0 0 1 33.36 225c-2.76 4.3-5.54 8.37-6.66 13.43a1.21 1.21 0 0 0 .51 1.31c-.5 1.05.56 2.53 1.66 1.68 2.28-1.76 5.25-2.61 7.64-4.3a86 86 0 0 0 7.2-5.88c4.76-4.23 9.56-8.66 14-13.27a74.82 74.82 0 0 0-1 35.78c-.9 2.85-1.85 5.69-2.91 8.5-.37 1 1 2.08 1.85 1.42 1-.78 2.05-1.51 3.09-2.25 3.83 12.48 9.1 25.56 17.09 35.92l.78 1a78.44 78.44 0 0 0 12.26 13 39.43 39.43 0 0 0 4.64 3.23 1.12 1.12 0 0 0-.71.8 119.13 119.13 0 0 0-3.22 13.25c-.59 3.94.85 8.11-4.33 8.21-1.16 0-1.82 1.8-.63 2.34 1.74.8 2.56.33 3.81.08l-.3 1.75a1.26 1.26 0 0 0 2.43.66c.18-.55.3-.92.39-1.22a2.35 2.35 0 0 1 .46-.64 22.94 22.94 0 0 0 5.08.89 1.27 1.27 0 0 0 .63-2.34c-2.24-1.16-4.4-1.81-6.08-1.31a6.77 6.77 0 0 0 .74-2.34c.45-3 .24-5.87.89-8.92.7-3.31 1.71-6.57 2.59-9.84a1.27 1.27 0 0 0 0-.5 25.5 25.5 0 0 0 7.8 2.56c6.55 1 13.88-.28 20.36-1.41 5.43-.95 11.12-2.87 15.53-6.25 1.3-.96.05-3.14-1.24-2.16zM30 236.33a27.76 27.76 0 0 1 1.26-2.9c1.78-3.56 4.18-6.81 6.22-10.29a69.34 69.34 0 0 0 6.71-14.9 1.09 1.09 0 0 0-.2-1.07c.77-.54 1.56-1.07 2.33-1.62 1-.71 2-1.45 2.94-2.18 0 0-.62 3.23-.8 3.58a128.69 128.69 0 0 1-7.68 13.39c-1.84 2.64-4.46 5.2-4.78 8.53-.15 1.61 1.5.68 2.51 0l2.47-1.77c2.57-2.69 6.51-5.6 8.8-7.73a65.5 65.5 0 0 0 7.22-8.25c3.18-4.16 7.25-9.28 7-14.82a1.26 1.26 0 0 0-.09-.29s-1-3-2.37-2.34q2.36-2 4.69-4c2-1.74 4-3.71 6.07-5.69-3.93 11.3-7.32 23.09-15.94 31.8q-1.57 1.59-3.18 3.16l-.24.23c-3.08 3-6.23 6-9.39 8.86a80.21 80.21 0 0 1-8.25 6.89c-1.84 1.28-3.91 2-5.82 3.12.1-.58.29-1.15.52-1.71zm-16.9-24.92a293.31 293.31 0 0 1 15.2-27.88 121 121 0 0 1 20.58-24.35c3.48-3.18 7.23-6 10.62-9.32s6.53-6.62 10.15-9.55c0 .09 0 .18-.05.27a1.27 1.27 0 0 0 2.24 1c7.37 7.17 13.57 18.78 15 28.9-4.51 1.55-8.22 4.41-11.72 7.55L74 179.17c-1.26 1.16-2.49 2.34-3.73 3.5a269.8 269.8 0 0 1-21.71 18.14c-2.68 2-5.41 4-8.2 5.89l-.07.05a90.14 90.14 0 0 1-16.21 9c-3.3 1.35-6.63 2.62-9.91 4a43.45 43.45 0 0 1-7 2.2c2.83-2.69 4.34-7.31 5.93-10.54z"/><path class="cls-5" d="M92 131.18c0-8.37-3-14.2-5.61-14.2-1.12 0-2.44 1-3.62 2.63 1.65.58 2.94 5.44 2.95 11.35 0 6.26-1.42 11.34-3.21 11.41 1.26 1.89 2.72 3 3.93 3 2.67.02 5.56-5.82 5.56-14.19z"/><path d="M86.42 114.65c-4.79 0-9.3 8.05-9.29 16.55s4.55 16.53 9.34 16.52c4.51 0 7.91-7.12 7.89-16.55s-3.43-16.53-7.94-16.52zm-3.88 27.71c1.78-.07 3.22-5.15 3.21-11.41 0-5.91-1.3-10.77-2.95-11.35 1.2-1.6 2.5-2.6 3.62-2.6 2.64 0 5.6 5.83 5.61 14.2s-2.92 14.21-5.57 14.22c-1.21-.02-2.66-1.16-3.92-3.05zm-2.16-14.43c.9 0 1.63 1.46 1.64 3.26s-.72 3.26-1.62 3.26-1.63-1.46-1.64-3.26.72-3.25 1.62-3.25z"/><ellipse class="cls-5" cx="80.39" cy="131.2" rx="1.63" ry="3.26" transform="rotate(-.09 82.65 140.121)"/><path class="cls-4" d="M88.22 242.11c.22-1.58-2.2-2.26-2.43-.66-.73 5.2 3.2 11.28 4.5 16.26 2.49 9.49 4.29 19 8.9 27.75.75 1.43 2.92.16 2.17-1.27-4.15-7.9-6-16.41-8.1-25a79.2 79.2 0 0 0-2.42-8.33c-.93-2.54-3.02-5.97-2.62-8.75z"/><path class="cls-4" d="M82.65 245.58a1.12 1.12 0 0 0 .47.67 1.22 1.22 0 0 0-.15.9 23.13 23.13 0 0 0 2.65 6.9 1.26 1.26 0 0 0 2.17-1.27 20.93 20.93 0 0 1-2.4-6.3 1.07 1.07 0 0 0-.43-.68 1.17 1.17 0 0 0 .12-.89c-.45-1.75-.17-3.58-.64-5.34a1.26 1.26 0 0 0-2.42.67c.46 1.76.19 3.58.63 5.34zM95 296.5c-3.21-1.33-6.3-3.37-7.75-6.64-.65-1.48-2.82-.19-2.17 1.27 1.72 3.88 5.47 6.23 9.25 7.79 1.47.62 2.12-1.81.67-2.42zm3.13 7.22c-3.49-1.1-7.63-3-10-5.81-1.56-1.84-3-4.3-5.73-3.91-1.6.23-.91 2.65.67 2.42 1-.14 2.51 2.32 3.06 3a12.06 12.06 0 0 0 2.58 2.43 33.87 33.87 0 0 0 8.8 4.3c1.49.48 2.16-1.94.62-2.43z"/><path d="M87.16 109.45c-1.88-.4-2.69 2.49-.8 2.89a31.57 31.57 0 0 1 4.82 1.41c1.22.47 4.19 1.51 4.3 3.11.14 1.91 3.14 1.93 3 0-.34-4.86-7.48-6.59-11.32-7.41z"/><path class="cls-1" d="M236.58 73.3l-.3.08v.05zm24.72 213.52l.15-.31-.15.27zm-6.68 45.51c-.27-2.35-2.64-2.34-5.15-1.49a15.27 15.27 0 0 1 5.17 1.54s-.02-.03-.02-.05zm-31.11-164.38v-.22.22zm13.56-18.5a24 24 0 0 1 3.26-2.08 17.68 17.68 0 0 0-3.26 2.08z"/><path class="cls-2" d="M231.12 318.36a40.7 40.7 0 0 1-2.81-4.4c-.15 1.63-.3 3.25-.34 4.89a4.83 4.83 0 0 0 3.06-.44zm35.14-108.51a67.93 67.93 0 0 1 2.18 8.51 35.78 35.78 0 0 0-2.18-8.51zM227.3 321.26a1.25 1.25 0 0 1-.11.13 3.81 3.81 0 0 0 3.25 0l.4-.19c-1.13.19-2.35-.06-3.54.06z"/><path class="cls-2" d="M200.68 314.5c1.41 3 5.66 3.15 8.48 3.92 1.65.45 3.19 1.2 4.83 1.67 2.86.84 5.15 0 7.91-.49v-4.51a1.26 1.26 0 0 1 2.51 0v2.46a2.92 2.92 0 0 1 .81-.47 68.77 68.77 0 0 1 .81-6.95c.25-1.43 2.47-1 2.47.33v.74a1.09 1.09 0 0 1 .37-.1 10.63 10.63 0 0 1 2.19.24c1.33.26 1.06 2 0 2.36.93 1.55 2 3 3 4.47a47.73 47.73 0 0 0 13.64-10 66.23 66.23 0 0 0 10.5-15.34c1-2 2.08-4 3.08-6l.15-.27a58.93 58.93 0 0 0 4.66-12.35c1.24-5.38 1.47-10.93 1.71-16.45a101.16 101.16 0 0 1-12.59 26.58l-.34 1.34a1.12 1.12 0 0 1-1.19.89 82.74 82.74 0 0 1-11.76 13.41c-1.2 1.08-3-.69-1.78-1.78A78.59 78.59 0 0 0 253 282.93c1.88-7.37 3.72-14.84 4.15-22.45s-.73-15.09 0-22.64c.16-1.6 2.67-1.61 2.51 0-.81 8.29.59 16.58-.17 24.87a95.39 95.39 0 0 1-1.64 10.5c2.71-3.56 3.42-8 4.29-12.32 1-5.13 2.87-10.24 2.86-15.5a1.26 1.26 0 0 1 2.51 0v1a142.42 142.42 0 0 0-.25-16.33 68.2 68.2 0 0 0-5.72-25.65 1.27 1.27 0 0 1 .14-1.31c-2.33-.83-4.67-1.65-7-2.51-13.82-5.14-23-14.9-30.61-27.23v-.07a1.09 1.09 0 0 1-1.09-1.19 27.22 27.22 0 0 1 .58-4.15v-.22c2.4-10.85 11.14-24.46 22.58-24.26a1.21 1.21 0 0 1 .25.06c3.69-7.58 4.73-18.89 3-26.4-1.94-8.56-7.75-19.52-16.25-23.24l-.61.22c-1.33.44-2-1.29-1.18-2.11a1.09 1.09 0 0 1 1.49-.94l.35.15a88.31 88.31 0 0 1 9.86-3.42 34.61 34.61 0 0 0-20.59-.26 1.1 1.1 0 0 1-.8 0c-.94.09-1.93-.83-1.25-1.81a34.37 34.37 0 0 1 9.85-9 51.7 51.7 0 0 1 6-3.27v-.05c-12.15 3.25-25.48 9.27-30.62 19.87a1 1 0 0 1-1.27.6c-.19.3-.38.6-.55.93-.63.85.29 1.73 1.14 1.65a.84.84 0 0 0 1 .35 46.08 46.08 0 0 0 2.69 6.83 3.07 3.07 0 0 0-.31 3.2c.66 1.53 1.45 3 2.16 4.52a2.6 2.6 0 0 0 .54.76 10 10 0 0 0-.35 1.4 3.2 3.2 0 0 0 .31 2c-.73 5.74 1 12.15 1 17.77a2 2 0 0 0 .12.61c-.08 1-.15 2-.21 3a1.52 1.52 0 0 0 .36 1.09 55.2 55.2 0 0 0 .64 6.44 2.23 2.23 0 0 0-1.3 2.33 29.11 29.11 0 0 0 .86 4.82 2.22 2.22 0 0 0-.73 1.15 20.74 20.74 0 0 0-.56 4.57 1.76 1.76 0 0 0-.86.8c-1.52 2.87-4.37 7.59-4.13 11a2.3 2.3 0 0 0 2.27 2.27 3.88 3.88 0 0 0 .48-.09 1.42 1.42 0 0 0 .86.53l.3.06a2.57 2.57 0 0 0 .85.95 25.44 25.44 0 0 0 3 1.64 2.92 2.92 0 0 0 .75 2.38c2.49 2.67 4.89 5.41 7.3 8.14a2.52 2.52 0 0 0 .47 1.08q1 1.32 1.92 2.66a2.8 2.8 0 0 0 .09 2.65c2.37 4.48 4.78 8.91 7.3 13.28a2.67 2.67 0 0 0-1 2.71c.26 1.68.61 3.35 1 5a2.62 2.62 0 0 0-.06 1.37c.19.94.46 1.86.67 2.8a87.4 87.4 0 0 0 2.61 10.34 2.48 2.48 0 0 0-1 2.6c.42 1.67 1 3.42 1.62 5.2a1.87 1.87 0 0 0-.06.31v3a2.84 2.84 0 0 0-.31 1c-.51 4.35-.89 8.79-1.72 13.09a2.94 2.94 0 0 0 .46 2.3c-2.08 14.71-6.45 29.74-10.92 43.2a2.42 2.42 0 0 0 .32 2.1c-4.51 5-9 9.62-16 11.43a3.23 3.23 0 0 0-2.14 1.6 14.26 14.26 0 0 1-1.69-1c-1.64-1.11-3.64.54-3.54 2.24a1.07 1.07 0 0 1 .66.57zm32.45-208.94c4.79 0 9.33 8 9.34 16.52s-4.5 16.54-9.29 16.55c-4.51 0-7.93-7.1-7.95-16.52s3.38-16.54 7.9-16.55zm.11 185.38c7.63-6.78 10.55-19 10.84-28.84.25-8.57-.4-18.78-3.4-26.84-.57-1.52 1.86-2.18 2.42-.67a59.52 59.52 0 0 1 3.09 13.91c0-2.9.1-5.81.3-8.73.28-3.93.57-8.36 4.18-10.66 1.37-.87 2.63 1.3 1.27 2.17-3.85 2.45-3.11 10.4-3.34 14.41-.34 6.15.17 12.31.24 18.46a1.27 1.27 0 0 1-2.4.52c-.05.67-.09 1.35-.16 2-1 9.15-4.2 19.78-11.27 26.06-1.2 1.05-3.01-.73-1.77-1.79z"/><path class="cls-3" d="M288 201.61c-2.12-2.67-3.9-5.65-5.8-8.48-3.57-5.32-6.74-10.91-10.42-16.16-4.49-6.4-9.79-10.74-15.71-15.7-4.67-3.91-7.24-8.42-10.23-13.51a1.17 1.17 0 0 1-.84-1.7 13.06 13.06 0 0 0-4.69 1.31 24 24 0 0 0-3.26 2.08c-6.55 5.2-11 15.21-11.58 22.1a1.17 1.17 0 0 1 .72.53c7.82 12.6 16.91 21.78 31.1 26.79 6.35 2.24 12.71 4.49 19.1 6.63 5.6 1.87 12 4.24 17.9 2.69-1.64-2.54-4.37-4.19-6.29-6.58zm-20.09-17.7c-4.67-4.77-9.95-7.83-14.14-13.18-3.63-4.63-7.28-11.38-13.92-11.23a1.26 1.26 0 0 1 0-2.51c5.44-.12 8.83 3.18 12 7.23 2.68 3.37 5.07 7.05 8.19 10s6.67 4.89 9.61 7.88c1.2 1.19-.57 2.97-1.71 1.82z"/><path class="cls-4" d="M260.11 174.25c-3.12-3-5.51-6.67-8.19-10-3.22-4-6.6-7.35-12-7.23a1.26 1.26 0 0 0 0 2.51c6.65-.15 10.3 6.6 13.92 11.23 4.19 5.35 9.47 8.41 14.14 13.18 1.13 1.16 2.91-.62 1.78-1.78-2.97-3.02-6.63-5.02-9.65-7.91zM235 292.71c7.07-6.28 10.28-16.92 11.27-26.06.07-.64.11-1.33.16-2a1.27 1.27 0 0 0 2.4-.52c-.07-6.15-.58-12.31-.24-18.46.22-4-.51-12 3.34-14.41 1.36-.87.1-3-1.27-2.17-3.61 2.29-3.9 6.73-4.18 10.66-.21 2.92-.28 5.83-.3 8.73a59.52 59.52 0 0 0-3.09-13.91c-.56-1.5-3-.85-2.42.67 3 8.05 3.65 18.27 3.4 26.84-.29 9.84-3.21 22.06-10.84 28.84-1.23 1.08.58 2.86 1.77 1.79z"/><path class="cls-4" d="M296.79 208.17a1.13 1.13 0 0 0-.12-1c-1.31-2.17-3.13-3.32-4.91-5.09-2.72-2.71-4.69-6.25-6.81-9.42-3.74-5.6-7.11-11.45-11-17a60.2 60.2 0 0 0-11.9-12.94c-3-2.42-6.15-4.62-8.65-7.61-2.29-2.74-3.82-5.9-5.6-9 2.43-4.36 3.2-9.64 4.11-14.48a36.94 36.94 0 0 0-.64-17.29c-2.35-8.06-7.45-17.23-15-21.72 3.7-1.47 7.12-2.93 11.53-3a1.27 1.27 0 0 0 .63-2.34c-6.76-3.6-16-4.66-23.76-3 6-6.51 14.54-8.94 22.09-13.28 1.31-.75.37-2.52-1-2.3-14.36 2.37-35.39 8.88-42.36 23.24a1.33 1.33 0 0 0 .9 1.86 1 1 0 0 0 1.27-.6c5.15-10.6 18.48-16.62 30.62-19.87l.3-.08-.28.13a51.7 51.7 0 0 0-6 3.27 34.37 34.37 0 0 0-9.85 9c-.68 1 .31 1.9 1.25 1.81a1.1 1.1 0 0 0 .8 0 34.61 34.61 0 0 1 20.59.26 88.31 88.31 0 0 0-9.86 3.42l-.35-.15a1.09 1.09 0 0 0-1.49.94c-.82.82-.15 2.55 1.18 2.11l.61-.22c8.5 3.72 14.32 14.67 16.25 23.24 1.7 7.51.66 18.82-3 26.4a1.21 1.21 0 0 0-.25-.06c-11.44-.2-20.19 13.41-22.58 24.26v.22a27.22 27.22 0 0 0-.58 4.15 1.09 1.09 0 0 0 1.09 1.19v.07c7.65 12.33 16.79 22.1 30.61 27.23 2.31.86 4.65 1.68 7 2.51a1.27 1.27 0 0 0-.14 1.31 68.2 68.2 0 0 1 5.72 25.65 142.42 142.42 0 0 1 .25 16.33v-1a1.26 1.26 0 0 0-2.51 0c0 5.26-1.83 10.37-2.86 15.5-.87 4.31-1.59 8.76-4.29 12.32a95.39 95.39 0 0 0 1.64-10.5c.76-8.29-.64-16.58.17-24.87.16-1.61-2.36-1.6-2.51 0-.74 7.56.43 15.09 0 22.64s-2.27 15.08-4.15 22.45a78.59 78.59 0 0 1-12.83 15.22c-1.2 1.09.58 2.86 1.78 1.78a82.74 82.74 0 0 0 11.76-13.41 1.12 1.12 0 0 0 1.19-.89l.34-1.34a101.16 101.16 0 0 0 12.59-26.58c-.24 5.52-.46 11.07-1.71 16.45a58.93 58.93 0 0 1-4.66 12.35l-.15.31c-1 2-2.05 4.06-3.08 6a66.23 66.23 0 0 1-10.5 15.34 47.73 47.73 0 0 1-13.64 10c-1.07-1.45-2.1-2.92-3-4.47 1.05-.38 1.32-2.11 0-2.36a10.63 10.63 0 0 0-2.19-.24 1.09 1.09 0 0 0-.37.1v-.74c0-1.37-2.22-1.76-2.47-.33a68.77 68.77 0 0 0-.81 6.95 2.92 2.92 0 0 0-.81.47v-2.46a1.26 1.26 0 0 0-2.51 0v4.51c-2.76.53-5 1.33-7.91.49-1.64-.48-3.18-1.22-4.83-1.67-2.82-.78-7.07-.94-8.48-3.92a1.07 1.07 0 0 0-.61-.58 1.35 1.35 0 0 0-1.56 1.86c1.55 3.3 5.63 4 8.83 4.8 2.52.61 5 2 7.53 2.4s4.65-.27 7-.78c-.07 3.82-.23 7.63-.63 11.43l-.39.07a1.2 1.2 0 0 0-.88 1 1.27 1.27 0 0 0-.07 1.79c1.4 1.76-1.78 10.24-3.83 10.72-1.57.39-.9 2.79.67 2.42 2.27-.56.87-.41 2.71 0 1.58.35 2.25-2.08.66-2.43h.06a.91.91 0 0 0-.2-.26 16 16 0 0 0 2.56-9.94 1.59 1.59 0 0 0 1-1.15l.51-.22c1-.43.68-2-.25-2.31.43-4.21.58-8.45.63-12.69a1.38 1.38 0 0 0 .58.07c0 .1.05.19.07.29.19 1.14 1.55 1.1 2.16.38a1.25 1.25 0 0 0 .11-.13c1.19-.11 2.41.13 3.54-.08a3.91 3.91 0 0 0 .46-.11 1.31 1.31 0 0 0 1.62.45l.35-.16c.45.62.9 1.24 1.33 1.88 2.5 3.71 4.4 7.8 6.68 11.65a1.27 1.27 0 0 0 .18.22 1.19 1.19 0 0 0 .33 1 10.14 10.14 0 0 0 .79.8l.29.62c.11.25.21.5.32.74a1 1 0 0 0 1.5.49 1 1 0 0 0 .81-1.46 5.21 5.21 0 0 0-.34-1.47 1.23 1.23 0 0 0-.59-.68l-.05-.12a1 1 0 0 0-.56-.51 1.06 1.06 0 0 0-.31-.12l.09-.09a1.21 1.21 0 0 0 .53-.19c2.95-1.91 10.31-.27 11.8 3 .67 1.47 2.84.19 2.17-1.27a6.42 6.42 0 0 0-1.89-2.3 1 1 0 0 0 .8-1.15c-.84-7.38-10.44-4.18-14.62-.38-1.88-3.35-3.59-6.81-5.74-10-.39-.58-.8-1.13-1.2-1.7A46.9 46.9 0 0 0 249.49 310a68.29 68.29 0 0 0 10.89-15.85c3-5.79 6.25-11.87 7.91-18.23 1.88-7.2 1.82-14.78 2.22-22.15a1.12 1.12 0 0 0-1.3-1.19c1.66-7.85.89-16.72.41-24.59a76.88 76.88 0 0 0-1.19-9.6 67.93 67.93 0 0 0-2.18-8.51q-1-3-2.25-5.9l3.83 1.32 2.48.85q3.82 1.3 7.64 2.53c5.85 1.88 12.26 3.83 18.28 1.62a1.34 1.34 0 0 0 .56-2.13zm-42.17 124.16v.05a15.27 15.27 0 0 0-5.17-1.54c2.55-.84 4.9-.84 5.17 1.49zM228 318.84c0-1.63.19-3.26.34-4.89a40.7 40.7 0 0 0 2.81 4.4h-.1a4.83 4.83 0 0 1-3.05.49zm48.45-113.33c-6.39-2.13-12.75-4.38-19.1-6.63-14.19-5-23.28-14.19-31.1-26.79a1.17 1.17 0 0 0-.72-.53c.57-6.89 5-16.9 11.58-22.1a17.68 17.68 0 0 1 3.26-2.08 13.06 13.06 0 0 1 4.69-1.31 1.17 1.17 0 0 0 .84 1.7c3 5.09 5.56 9.6 10.23 13.51 5.93 5 11.22 9.29 15.71 15.7 3.68 5.25 6.85 10.84 10.42 16.16 1.9 2.83 3.69 5.81 5.8 8.48 1.89 2.38 4.62 4 6.28 6.58-5.94 1.55-12.34-.82-17.93-2.69z"/><path class="cls-5" d="M233.18 136.3c1.21 0 2.66-1.15 3.92-3-1.78-.07-3.23-5.14-3.24-11.4 0-5.91 1.27-10.77 2.91-11.36-1.19-1.64-2.51-2.62-3.63-2.61-2.64 0-5.58 5.84-5.57 14.22s2.96 14.16 5.61 14.15z"/><path d="M233.18 138.63c4.79 0 9.3-8.05 9.29-16.55s-4.55-16.53-9.34-16.52c-4.51 0-7.91 7.12-7.89 16.55s3.43 16.53 7.94 16.52zm6-19.81c.9 0 1.63 1.46 1.64 3.26s-.72 3.26-1.62 3.26-1.63-1.46-1.64-3.26.74-3.25 1.64-3.26zm-6.07-10.94c1.12 0 2.44 1 3.63 2.61-1.64.59-2.92 5.45-2.91 11.36 0 6.26 1.46 11.33 3.24 11.4-1.25 1.89-2.71 3-3.92 3-2.64 0-5.6-5.83-5.61-14.2s2.95-14.16 5.59-14.16z"/><ellipse class="cls-5" cx="239.21" cy="122.08" rx="1.63" ry="3.26" transform="rotate(-.09 254.548 127.524)"/><path d="M364.45 321.85a289.42 289.42 0 0 0-49.73 3.06c-3.68.51-7.37 1-11 1.66-3.36.58-7 2.65-10.39 2.71-3 .06-6.11-2.11-9.05-2.8a59.2 59.2 0 0 0-9.87-1.14c-7.18-.37-13.9 1.81-20.45 4.55-5.34 2.23-10.64 6.21-16.12 7.87-3.74 1.13-9.17-.65-13.1-.63-8.63 0-17.22 1.4-25.71-.82a.61.61 0 0 0-.32 1.18c6.93 2 14.08 1.74 21.23 1.51a80.91 80.91 0 0 1 10.36.14c1.73.16 4.18 1 6 .85 3.39-.25 6.82-3 9.72-4.5 8.16-4.12 17.16-8.35 26.48-8.41a50.81 50.81 0 0 1 11.14 1.19c2.65.6 5 2.13 7.67 2.57 3 .5 5.11-.52 7.92-1.4a74.13 74.13 0 0 1 11.45-2.2c11-1.65 22.17-2.9 33.32-3.47 2.92 5.88 10.54 8.39 16.7 8.46.73 0 .92-1.16.17-1.3-5.87-1.14-11.33-2.57-15.1-7.23 6.23-.27 12.47-.34 18.71-.13 1.08.04 1.08-1.68-.03-1.72zm-203.4 18.4c-7.73-2.38-14.05 2.76-21.69 2.82s-15.06-4-22.79-4.84c-8.91-.91-17.75-1.29-26.7-1.56-8.54-.26-16.78-.35-24.86-3.41-10.07-3.82-24.93-14-34.75-4.59-4.82 4.63-6.8 10-14.6 8.54-2.94-.56-5.86-1.42-8.82-2.05a1.23 1.23 0 0 0-1.52-.74c-.21 0-.23.27-.12.42a27.93 27.93 0 0 0-4.87-.49.34.34 0 0 0 0 .67c8 .31 17.93 7.71 25 1.39 6.19-5.57 8.54-11.8 18.6-9.83 7.85 1.54 14.91 5.92 22.43 8.53 14.72 5.11 31.5 2.34 46.78 3.16a49.77 49.77 0 0 1 13.21 2.24c3.62 1.19 7.17 2.68 11 3.06 8.11.8 15.34-4.47 23.48-2.33a.51.51 0 0 0 .22-.99zm27.84 24.33c-1.92-.5-4.1-.46-5.94-1.1-2.39-.82-2.16-1.48-4.14-1.37-3.62.21-6.26.82-9.91-.28-2.62-.79-5.13-1.78-7.82-2.35a.51.51 0 0 0-.27 1c5.13 1.57 10.17 4 15.65 3.61 4.22-.33 7.93.43 12.2 1.31.53.11.76-.68.23-.82zm-7.72-7.85c-5.06 0-9.76-1.66-14.73-2.29-2.34-.3-5.12-.43-7 1.3-.25.24.12.59.38.38 2.88-2.41 9.09.11 12.37.78 3 .61 6 1.19 9.05.67.53-.09.4-.84-.07-.84z"/><path class="cls-4" d="M107.11 344c-2-3.41-1.09-7.94-.88-11.69.26-4.75.08-9.54.07-14.3a1.26 1.26 0 0 0-2.51 0c0 5.64.08 11.26-.25 16.89a25.32 25.32 0 0 0 .31 7.63c-1.74-.46-3.5-.71-5.34-1.21a1.26 1.26 0 0 0-.66 2.43c.88.24 1.75.4 2.62.56a7.93 7.93 0 0 0-1.83 1.05 1.27 1.27 0 0 0 .89 2.14c1.26-.11 2.17-1.07 3.37-1.21a1.26 1.26 0 0 0 .71-.34 1 1 0 0 0 .19.29 21.62 21.62 0 0 1-.51 3.1c-.23 1.29 1.66 2.36 2.3 1 0-.1.07-.2.12-.31v-.07a29.89 29.89 0 0 0 1.15-4.44 1.16 1.16 0 0 0 .25-1.52zm134.32-94.62a1.14 1.14 0 0 0-1.72-.38 112.13 112.13 0 0 0-2-28.86c-.33-1.58-2.76-.91-2.42.67 3.11 14.74 2.5 31.47-.34 46.22a110.51 110.51 0 0 1-5.43 18.29c-2.33 6.15-4.28 13-10.8 15.81-1.48.65-.2 2.81 1.27 2.17 5-2.19 7.63-6.45 9.69-11.35a126 126 0 0 0 7.32-22.08 133 133 0 0 0 2.63-18.39c.92 2.82-.07 6.93-.14 9.66-.16 5.78.27 11.26-2.65 16.52-.79 1.42 1.39 2.68 2.17 1.27 3.15-5.67 2.82-11.49 3-17.79.04-3.64 1.22-8.38-.58-11.76zm-137.56 30.4a38.3 38.3 0 0 1-5.3-10.91c-1.19-4-.94-8-1.82-12-.72-3.26-2.33-6.22-3.24-9.41-1.24-4.3-1.57-8.85-2.47-13.23-.32-1.58-2.75-.91-2.42.67.9 4.37 1.21 8.94 2.47 13.23 1.37 4.68 3.2 8.6 3.76 13.53.81 7.11 2.71 13.47 6.86 19.41.91 1.3 3.09.04 2.16-1.29z"/><path class="cls-4" d="M103.34 265.31c-.36-1.58-2.79-.9-2.42.67.7 3 1.73 6.28 1.54 9.41-.1 1.62 2.42 1.61 2.51 0 .21-3.39-.88-6.85-1.63-10.08zM151.57 325c-2.41 0-5.22 1.8-7.54.81-1.47-.63-2.75 1.54-1.27 2.17a6.82 6.82 0 0 0 4.08.51c1.6-.28 3.08-1 4.72-1a1.26 1.26 0 0 0 .01-2.49zm47.7-218.49c-.91-2.5-2.84-4.62-5.66-4.63a6.47 6.47 0 0 0-4.61 2 1.55 1.55 0 0 0-.38.1c-9.78 4.89-2.63 28.17 7.4 19.87 4.36-3.59 5.07-12.32 3.25-17.34zM169 361.78a55.49 55.49 0 0 1-9.82-8.3 1.56 1.56 0 0 0-2.2 2.2 59 59 0 0 0 10.45 8.79c1.7 1.05 3.26-1.64 1.57-2.69z"/><path class="cls-5" d="M198.47 104.63c.63-1.07-.42-2.94-1.86-2.43a3.14 3.14 0 0 0-.76.43 1.79 1.79 0 0 0-2.11 1 .77.77 0 0 0 0 .77 2.43 2.43 0 0 0 1.1 3.2 2.2 2.2 0 0 0 2.57.83 1.64 1.64 0 0 0 .91-.83c.96-.74.81-1.92.15-2.97z"/><path d="M149.77 351.37c-19.53-7-39.66-6.08-59.74-3.59a61.42 61.42 0 0 0-14.09-3.34c-18.6-1.73-38.88 9.72-56.42 0a.41.41 0 0 0-.41.7 26.84 26.84 0 0 0 7.59 3.34c-7.82.14-15.53 1.35-22.69 4.93-.29.14-.08.64.22.52 23.65-9 47.55.88 71.8-2.48 4.72-.65 9.44-1.35 14.17-2 3.36 1.13 6.69 2.38 10 3.56 10.62 3.73 22.4 1.21 32.53 6.09.84.4 1.56-.79.74-1.26-9-5.1-19.32-2.51-29-5.19-3.7-1-7.3-2.35-10.9-3.63 6.2-.75 12.41-1.33 18.66-1.46 12.73-.27 24.82 1.87 37 5.35 1.12.31 1.51-1.2.54-1.54zm-70.83-2.1c-12.3 1.76-23.9 1-36 0 8.79-.93 17.76-3.26 25.89-3.63a52.28 52.28 0 0 1 17.56 2.61q-3.75.49-7.45 1.02zm290.39-12.16c-12.81 4-28.19-1.28-41.14-2.46-16.76-1.53-30.68 7.24-46.89 8.87-7.42.75-14.94.14-22.44-.61a64.13 64.13 0 0 1 9-5.36c9.1-4.16 20-1.76 29.64-3.14 4.9-.7 9.52-2.35 14.35-3.33a61.78 61.78 0 0 1 18.48-.57c.16 0 .2-.27 0-.29-10.31-1.51-19.36 0-29.46 1.83s-20.65-.36-30.38 2.51c-5.41 1.6-9.93 5-14.67 8.05-4.9-.5-9.8-1-14.66-1.13-8.42-.24-22.33-.49-27.28 8-.06.1.07.26.18.18 10.09-7.76 23.19-6.59 35.22-5.6 1.2.1 2.4.22 3.61.34-.65.37-1.31.72-2 1.05-9.16 4.51-19.58 6.45-29.51 8.45-.92.18-.52 1.55.39 1.39 9-1.55 18.35-3.08 26.91-6.54a44.26 44.26 0 0 0 7.41-4c9.63 1.06 19.53 2.31 29 .55 7.57-1.41 14.74-4.33 22.14-6.4a61.54 61.54 0 0 1 24.93-1.65c11.49 1.47 26.4 6 37.58 1.44.94-.42.59-1.9-.41-1.58zm-221.01 30.51c-9.75-.51-19.78-1.66-29.51-.41-9 1.15-17.24 5.49-26.28 6.06-19.73 1.24-38.45-8.37-58.18-2.6a.65.65 0 0 0 .35 1.26c11.21-2.53 21.76-1.45 33 .54 8.76 1.56 17.93 3.8 26.87 2.86 7.83-.82 15-4.29 22.78-5.57 10.27-1.69 20.69.14 31-.21a1 1 0 0 0-.03-1.93zm45.76 6.82c-7.42-3.82-16-5-24.18-6.19-.38-.05-.55.53-.16.59a123.45 123.45 0 0 1 24 6.43c.47.18.79-.59.34-.83z"/><path d="M381.16 353.79c-10.45 8.93-24.8 4.55-37.1 3.28-7.37-.76-13.73 2-21 2.33-7.54.38-14.21-3.37-21.46-4.68-.83-.15-1.65-.26-2.46-.35a35.47 35.47 0 0 0 11.47-2.13c3.44-1.29 6.64-3.17 10.1-4.4 5.17-1.82 10.14-1.2 15.44-.17 8.85 1.71 17.42 3.94 26.5 3.86a1 1 0 0 0 0-2c-10-.39-19.34-2.94-29.11-4.59-7.19-1.21-12.46.18-19 3.09-10.18 4.54-19.35 4.18-30.21 3.21a205.56 205.56 0 0 0-31.68-.15.88.88 0 0 0 0 1.76c10.18.66 20.41-.23 30.58.6 3.28.27 6.54.61 9.77.8-10.5.62-20.59 5.06-31.09 6.33-8 1-16.21-.26-24.3.27a173.33 173.33 0 0 0-23 3.28c-.62.13-.49 1.2.15 1.13 8.75-1 17.52-2.24 26.33-2.46 7.76-.19 15.49 1.25 23.21.1 7.49-1.12 14.63-3.77 22.07-5.12 8.86-1.62 16.2-.06 24.66 2.46a35.55 35.55 0 0 0 18.29.92c7.9-1.66 14.43-1.48 22.37-.42 10.18 1.36 23.11 3 30.46-5.94a.72.72 0 0 0-.99-1.01zM166 366.7a.59.59 0 0 0 0 1.19.59.59 0 0 0 0-1.19zm49-26.43c-3.1-.06-7-.28-8.7 1.39a2.33 2.33 0 0 0-.52.81 20.1 20.1 0 0 0-2.47 1.23c-1.11.66-2.64 1.93-2.25 2.9.24.57 1.55.63 2.29.31a1 1 0 0 0 .37-.24c.2-.14.52-.32.92-.53-.46 1.48 3.52 2.24 4.79.61a5.81 5.81 0 0 0 1-3.23 36.34 36.34 0 0 1 5.13-1.15c2.22-.37 1.75-2.05-.56-2.1zm-3.59 12.86a30.56 30.56 0 0 0-5.25 3.27c-1.22.9-2.82 1.85-3.51 3.24 1.54-.51 2.8-1.84 4.1-2.77 1.6-1.15 3.26-2.23 4.84-3.41a.21.21 0 0 0-.18-.33z"/><path class="cls-1" d="M127.67 187.65v-.54l-.07.16c.02.13.04.25.07.38zm79.6 15.48c-.18 1.07-.38 2.1-.6 3.13l1-3.82c-.12.15-.24.31-.36.46a1.75 1.75 0 0 1-.04.23zM124.05 312c.16.39.33.79.5 1.18v-.11c-.16-.34-.32-.7-.5-1.07zm16.85-80.66l-.36-.7.2.56zm1.1-20.85c-.31-.56-.61-1.12-.89-1.68.56 1.13 1.14 2.24 1.72 3.35-.33-.55-.61-1.11-.83-1.67zM215.31 105v.22c0-.92 0-1.84-.1-2.75v-.39c0 .51-.09 1-.15 1.52a7.15 7.15 0 0 1 .25 1.4zm-63.12 46.45c-1.7 2-3.34 4-4.93 5.93 1.68-1.97 3.32-4.01 4.93-5.93zm58.3 1.31l.15-.32-.1.14zm3.22-58.94l-.06-.24v.22zm-71.64-74.34v.24h.12zM115 168.18c-1.19-1.93-2.42-3.83-3.54-5.79a28.34 28.34 0 0 0 3.54 5.79zm-3.79-20.6c-.06.13-.11.26-.17.39h.25c-.03-.13-.06-.26-.08-.39zm128.9 132.49c-.1.53-.23 1-.34 1.57v.07c.13-.54.23-1.08.34-1.64zm-11.02 39.28c1.11-2.46 2.09-5 2.95-7.43-.45 1-.91 1.93-1.38 2.89-.47 1.53-1.01 3.04-1.57 4.54zm-93.9 7.39l.22.2v-.07zm63.5-92.33c.38-1.09.74-2.19 1.09-3.29l-.43 1c-.23.74-.45 1.51-.66 2.29zm-4.08 11.12l.27-.73-.12.07c-.04.21-.1.44-.15.66zm10.39-32.8l.55-2.12c-.18.61-.37 1.22-.58 1.81a2.48 2.48 0 0 1 .03.31zm-62.28 120.95l.2.19-.13-.14zm72.8-165.32l-.75-.44c.17.18.32.37.5.55zM241.2 273.2l.3-2.13q-.27.87-.55 1.74a.77.77 0 0 1 .25.39zm1.31-10.71c.05-.55.11-1.09.16-1.64-.09.49-.16 1-.26 1.47.03.05.06.11.1.17zm-57.37 93.18zm11.58-16.73c.15 0 .3-.07.46-.1h-.46c.01.06 0 .08 0 .1zm43.49-59.45c.32-1.88.62-3.77.9-5.65-.49 1.54-.84 3.06-1.17 4.55a1.54 1.54 0 0 1 .27 1.1zm-84.68-131.74l.11-.11zm-24.42 20.19h.06-.05zm82.11 4.53c.08.23.15.46.22.68 0-.12.07-.24.11-.36zm-80.79-4.82h.19-.06zM143.34 22.8l-.09-.22v.21zm-12.03 49.66l.21.24c0-.06-.06-.12-.08-.18zm75.96 89.6c0-.11 0-.21.06-.32s0 .06-.08.09.01.17.02.23zM160.84 42.74l-.33-.62c.08.19.15.39.23.58zm43.56 117.83l.35.32v-.18z"/><path class="cls-2" d="M111 148c-2.22 4.69-1.61 9.81.47 14.43 1.12 2 2.35 3.86 3.54 5.79.36.46.74.92 1.12 1.36-1.89-7.37-3.65-14.46-4.89-21.56zm102.88 187.71c6.69-1.22 11.64-8.42 15.22-16.35.56-1.5 1.09-3 1.57-4.55.47-1 .93-1.92 1.38-2.89 1.48-4.21 2.6-8.17 3.41-11.06 1.74-6.21 3.17-12.63 4.36-19.13v-.07c-1.88 8.68-5.26 17-8.84 25.12a114.72 114.72 0 0 1-10.87 18.61c-1.78 2.56-6.38 10.15-11.1 14.06a3.72 3.72 0 0 0 5.55-.09l.61-.72-.41.09c-2.01.33-2.85-2.66-.88-3.02zm-97.27-24.33a3.78 3.78 0 0 0 1.86 1.63c-1.22-1.64-2.51-3.23-3.81-4.81q.96 1.58 1.95 3.18zm93.88-158.62l.05-.18.1-.14c1.9-4 3.77-7.6 4.11-12.56.44-6.43-.59-12.93-.24-19.39.28-5.09.91-10.19.84-15.29v-.22a7.15 7.15 0 0 0-.24-1.4c.06-.51.11-1 .15-1.52a47.83 47.83 0 0 0-1.5-8.22v-.22c-.83-3.12-1.83-6.2-2.71-9.26a41.81 41.81 0 0 0-3.16-8.59C204 68.9 201 68.31 193.4 65.81a39.2 39.2 0 0 1-4.25-1.33 10.18 10.18 0 0 0-6.42-3.92 22.29 22.29 0 0 1-3.3-.17 9 9 0 0 1-2.27-.75c-3-1.64-4.67-5.36-6.76-8.26a14.91 14.91 0 0 1-1.05 2.2 1.58 1.58 0 0 1-2.85-.37c-1.48-3.77-3.79-7-5.67-10.49h-.1c-.08-.19-.15-.39-.23-.58-.29-.56-.56-1.12-.82-1.7-2-4.43-1.89-8.69-2.33-13.43-.6-6.4-2.32-13.49-6-19.07 2.19 9.33 3.65 23.72-3.68 24.58a1.55 1.55 0 0 1-1.5-1.14 46.57 46.57 0 0 0-2.85-8.55h-.07v-.21c-.38-1-.76-1.91-1.1-2.88H142c-1 5.75-.54 11.16 1 17.46 1.27 5.3.38 10 .77 15.31.11 1.53-1.67 1.87-2.59 1.07a1.47 1.47 0 0 1-1.25-1c-2-6.25-12.13-10.28-17.09-16a41 41 0 0 0 3.71 13.85c2.43 4.89 5.86 9.15 8.08 14.17a1.62 1.62 0 0 1 .11.51 17.85 17.85 0 0 1 8.6 5c1.34 1.49-.85 3.7-2.2 2.2-4.23-4.69-10.68-4.89-16.48-6.21 2.25 2.09 4.59 4.11 6.64 6.39l.13.06c0 .06.06.12.08.18.4.45.81.9 1.18 1.38a1.64 1.64 0 0 1 .95 1.36 1.33 1.33 0 0 1-.66 1.65c-3.73 6.55-10.22 10.52-13.26 17.78a99.79 99.79 0 0 0-5.91 21.32c-3.24 18.77 1 35.36 5.59 53.43a1.44 1.44 0 0 1-.23 1.26s.06.07.08.11a1.55 1.55 0 0 1 2.08 1.41v2.92a3.35 3.35 0 0 0 .82-.36 1.58 1.58 0 0 1 2.34 1.34c0 .75-.22 3.08.23 3.86 0-.15.42-.06.79-.12.84-.15 1.67-.4 2.49-.62a1.45 1.45 0 0 1 .22 0c.42-3.05 1-6.15 1.79-9.41a1.43 1.43 0 0 1 .39-.69 1.61 1.61 0 0 1 .7-1.37h.05a1.55 1.55 0 0 1 .75-.21h.52l.13-.05h.06c5.62-.55 10.3-5.15 14.64-10.25 1.59-2 3.23-4 4.93-5.93 1.12-1.32 2.23-2.58 3.34-3.71l.1-.11a26.27 26.27 0 0 1 2.8-2.48c4.32-3.24 15.46-9.7 20.9-6.13a1.47 1.47 0 0 1 .69 1.28 131 131 0 0 1 13.08 10.9c3.63 3.25 7.63 6.12 11.28 9.35l.31.13v.18c.8.72 1.59 1.44 2.34 2.21 0-.35.11-.69.18-1v-.23c0-.04 0-.06.08-.09a15.37 15.37 0 0 1 1.28-3.69 1.28 1.28 0 0 1 0-1c.63-1.63 1.28-3.03 1.93-4.39zM132.3 81.84c5.18-4.82 11-.89 16.64.7a1.5 1.5 0 0 1-.8 2.89c-4.23-1.19-9.77-5.15-13.72-1.47-1.42 1.32-3.53-.8-2.12-2.12zM145 135c-7.94 0-13.31-19.45-13.31-23.5s5.31-23.56 13.24-23.57 13.3 16.72 13.31 23.5S153 135 145 135zm45.55 0c-7.94 0-13.31-19.45-13.31-23.5s5.29-23.53 13.24-23.54 13.3 16.72 13.31 23.5S198.54 135 190.55 135zm11-51.57c-3.84-3.88-8.09-4.83-13-2.38-1.72.86-3.24-1.73-1.51-2.59 6.11-3.05 11.85-2 16.64 2.85 1.32 1.35-.81 3.47-2.16 2.09z"/><path class="cls-2" d="M181.32 361.06c.3-.32.57-.66.85-1a1.43 1.43 0 0 1 .65-.8q.45-.59.87-1.2a1.7 1.7 0 0 1-.3.12c-1.1.86-3.11.07-2.48-1.49a12.81 12.81 0 0 1 1.71-3.1 1.56 1.56 0 0 1 .24-.21 19.77 19.77 0 0 1 1.7-2.9c1.15-1.62 3.85-.07 2.69 1.57a16.45 16.45 0 0 0-2.09 3.57c.34-.45.69-.6 1-1 1.24-1.54 3.1-3.84 5.33-3.72.05-4.74.83-10.91 5.18-11.93v-.06h.46a6.12 6.12 0 0 1 1.16-.06 1.49 1.49 0 0 1 .24.06 1.46 1.46 0 0 1 .54-.06 12.28 12.28 0 0 0 2.66-.09 1.39 1.39 0 0 1 1.29-.2h.3a1.51 1.51 0 0 1 1.12.19c4.25-1.16 13.86-16.18 15.31-18.53 7.7-12.42 14.71-26.91 17.4-41.33.28-1.48 2-1.37 2.72-.39.34-1.49.68-3 1.17-4.55l.09-.63a.77.77 0 0 0-.25-.4q.29-.86.55-1.74.58-4.3 1-8.59c0-.05-.06-.11-.1-.16.1-.48.17-1 .26-1.47.34-3.65.59-7.29.75-10.89.74-16.76-.28-37-7.74-52.3-2.5-5.14-5.21-11.24-8.64-16.78 1.26 5.58 1.26 11.72 1.76 16.94 1.67 17.49 2.86 34.76 3.69 52.31.8 17-1.7 30.91-7.43 46.87-4.52 12.58-8.06 25.21-17.07 35.47-1.32 1.51-3.52-.7-2.2-2.2 9.12-10.39 12.53-23.68 17.11-36.4a107.73 107.73 0 0 0 6.47-43.74c-.7-15-1.13-30-2.87-44.93-1.15-9.87.38-25.81-7.36-33.07a1.34 1.34 0 0 1-.4-1.4 26.53 26.53 0 0 0-3.22-2.39l-.25.11c-.17-.18-.33-.37-.5-.55a21.46 21.46 0 0 0-5.31-2.2 22.75 22.75 0 0 1 3.76 6.75l.32.33c0 .12-.07.24-.11.36 1.56 5 1.19 10.45.12 16.75a297.18 297.18 0 0 1-11.19 43.48c-2.34 7-5 14.06-7.88 20.89-1.4 3.37-3.6 6.64-5.31 10 .19-.17.35-.35.55-.52 1.51-1.31 3.72.88 2.2 2.2a58.79 58.79 0 0 0-4.7 4.64 1.45 1.45 0 0 1-1.13 1.26 90.38 90.38 0 0 0-7.12 9.37c-1.11 1.66-3.81.1-2.69-1.57a99.7 99.7 0 0 1 6.54-8.8c-8.41-3.36-15-9.08-21.53-15.44-7.45-7.27-15-14.25-20.06-23.48-.11-.2-.21-.41-.32-.61l-.16-.14-.2-.56c-5.08-9.64-8.62-20.53-11.33-31a48 48 0 0 1-1.55-12c0-.13 0-.26-.07-.38l.07-.16c0-1.47.08-2.94.2-4.41-1.69.49-3.77 1.06-5.13-.09-1.08-.91-1.29-2.57-1.33-4.13a2.47 2.47 0 0 1-2.69-1.06 4.4 4.4 0 0 1-.56-2.46 1.6 1.6 0 0 1-.43.15 1.37 1.37 0 0 1-1 .4 1.45 1.45 0 0 1-.21 0 22.14 22.14 0 0 1-7.43 5.43c-7.71 3.61-12.31 7.87-15.45 16.07-4.86 12.69-5.18 27.74-3.58 41.07 1.75 14.62 6.42 28.75 12.07 42.29 3 7.16 6.22 14.42 10.71 20.79 2.23 3.17 4.8 6 7.19 9a81.91 81.91 0 0 1-5.15-29.2c.08-9.11.47-21.5 7.87-27.93 1.51-1.31 3.72.88 2.2 2.2-7.22 6.28-7.12 19.59-7 28.42a77.66 77.66 0 0 0 6 28.41c.18.36.33.72.52 1.07v.11q1.59 3.73 3.51 7.42a1.5 1.5 0 0 1 .07.23 8.67 8.67 0 0 0 2.88 1.93 1.33 1.33 0 0 1 .76 1q1.73 1.48 3.42 3l.19.13v.07c2.47 2.21 4.9 4.47 7.31 6.74l.08.05.13.14c4 3.79 8 7.61 12.17 11.28a1.34 1.34 0 0 1 .48 1c1.29 1.13.54 4.65.35 6s-.15 3-1 4.17a1.67 1.67 0 0 0 3.23-.5c0-.47.11-.93.18-1.39.16.23 1.85.38 1.88.18a32.64 32.64 0 0 0 7.18 9.45c1.69 1.67 4.72-.52 3.36-2.6l-.47-.72a16.4 16.4 0 0 0 2.36 2 1.94 1.94 0 0 0 2.67-.82c.15.13.27.27.42.4a2.37 2.37 0 0 0 2.33.46c.61 1.19 2 1.08 3.34.39a1.51 1.51 0 0 1 .1-2.26zm-72.76-87.88c-13.6-19.77-13.9-47-13.95-70a1.42 1.42 0 0 1 .39-1l.07-.09.11-.08a1.47 1.47 0 0 1 2 0l.09.07.08.11a1.42 1.42 0 0 1 .38 1c0 22.56.21 49.09 13.52 68.45 1.13 1.63-1.56 3.18-2.69 1.54zm3.34-5.44c-2.32-6.91-4.56-13.68-4.76-21-.05-2 3.06-2 3.11 0 .19 7.08 2.42 13.56 4.65 20.2.64 1.88-2.37 2.7-3 .81zm91 6.08c-1.62 6-.44 12.8.07 18.91a158.88 158.88 0 0 0 3.32 22.59c2.56-6.67 5.56-13.2 7.47-20.16a192.77 192.77 0 0 0 6.29-35c.17-2 3.28-2 3.11 0a196.68 196.68 0 0 1-5.67 33.1c-2.8 10.78-8 20.57-11 31.16a1.56 1.56 0 0 1-3-.82c.52-1.86 1.14-3.7 1.79-5.52a1.4 1.4 0 0 1-1.8-1.05 161.27 161.27 0 0 1-3.61-24.28c-.54-6.44-1.67-13.39 0-19.74a1.56 1.56 0 0 1 2.98.81zM183 320.91c11.29-16.75 10.7-37.74 14.28-57a1.32 1.32 0 0 1 .27-1.75v.26a1.56 1.56 0 0 1 3 .82c-4 19.89-3.12 41.75-14.86 59.19-1.15 1.7-3.85.14-2.69-1.52zm-25.39-58.32c1.1-1.67 3.79-.11 2.69 1.57-2.89 4.4-1.17 11.2-.42 16a100.33 100.33 0 0 0 3.86 17.11c3.66 10.75 9.77 23 20.23 28.5 1.78.93.21 3.62-1.57 2.69-11.23-5.9-17.73-18.81-21.66-30.36a109.88 109.88 0 0 1-4.53-21.65c-.62-4.55-1.3-9.82 1.36-13.87zm18.27 83.71c-.28-.34-.68-.76-.75-.85-1.28-1.53.91-3.74 2.2-2.2.94 1.12 2.46 2.7 1.84 4.3a1.58 1.58 0 0 1-2.84.38c-.19-.27-.47-.51 0-.14a1.24 1.24 0 0 1-.49-1.5zM148.52 334c-10.78-5.4-15.27-24.33-18.27-34.71-2.58-8.91-5.27-21.3 1.11-29.19 1.26-1.56 3.45.65 2.2 2.2-5.77 7.13-2.3 19.61.09 27.5 2.84 9.37 6.88 26.72 16.42 31.5 1.81.9.24 3.58-1.55 2.7zm28.4 27.28a1.33 1.33 0 0 1-1 0 14.12 14.12 0 0 1-5.75-3.5 1.42 1.42 0 0 1-.35-1.45 1.28 1.28 0 0 1-2-.1c-4.76-5.86-6.5-12.7-8.42-19.87-2.31-8.64-5.05-16.94-5.34-26a1.5 1.5 0 0 1 2.21-1.35c-1.48-4.2-2.8-8.48-4.09-12.77C149 285.52 146.1 274 149.63 263c.61-1.9 3.61-1.09 3 .82C149 275.17 152.6 287 156 298c3.59 11.6 7.39 23 14.89 32.69 1.22 1.59-1.48 3.14-2.69 1.58a77.81 77.81 0 0 1-10.9-20.46c.46 7.49 2.59 14.35 4.57 21.58s3.35 14.71 8.19 20.68a1.56 1.56 0 0 1 .27 1.52 1.41 1.41 0 0 1 2.07 0 10.72 10.72 0 0 0 4.38 2.71 1.51 1.51 0 0 1 .76.59 1.54 1.54 0 0 1 2.33 1.29v.39a1.57 1.57 0 0 1-2.95.7zm12.92-5.76c0-.21.07-.42.1-.63a15.54 15.54 0 0 0-1.88 2.32 2.22 2.22 0 0 0 1.78-1.69z"/><path class="cls-3" d="M203.84 164.24c-3.76-3.59-8.08-6.54-12-10-4.8-4.22-9.27-8.67-14.67-12.14-3.78 11.73-2.6 25.34-2.38 37.46.23 12.7-.19 27.21 3 39.77 5.2-10.3 8.59-26.85 5.19-36.95-.64-1.91 2.36-2.72 3-.83 4.1 12.18-.72 32.47-7.48 42.85a1.6 1.6 0 0 1-2.92-1c-3.7-6.69-7-13.21-8.52-20.78-.39-2 2.61-2.8 3-.83a49.68 49.68 0 0 0 3.06 9.72c-1.45-10.57-1.22-21.76-1.4-32-.22-12.46-1.42-26.36 2.53-38.43-5.33.58-13.06 5.71-15.32 7.58a73.58 73.58 0 0 0-8.77 9.25c-4.48 5.19-9.86 11.77-17.11 12.66a1.47 1.47 0 0 1 0 .18c-2.65 11.34-3.08 20.58.31 31.88 2.82 9.4 5.84 19 10.57 27.67s11.72 15.2 18.69 22c6.56 6.39 13.13 12.43 21.71 15.75 1-3.33 2.94-6.27 4.6-9.33a98.91 98.91 0 0 0 5.7-13.25c0-.22.1-.45.15-.66l.12-.07c.69-1.89 1.38-3.77 2.09-5.64q.9-2.36 1.72-4.75c.21-.78.43-1.55.66-2.32l.43-1c2-6.06 3.65-12.21 5.24-18.39a2.48 2.48 0 0 0 0-.3c.21-.6.39-1.2.58-1.81l1.1-4.35c.22-1 .42-2.07.6-3.13a1.75 1.75 0 0 0 0-.24c.13-.14.24-.31.36-.46l.11-.43c1.66-6.57 3.38-13.46 3.78-20.25.43-7.4-2.36-12.31-7.73-17.43zM162.22 249c-10.18-14.35-19.73-29-26.92-45.09-.81-1.81 1.87-3.4 2.69-1.58 1 2.2 2 4.37 3.09 6.53.28.56.57 1.12.89 1.68s.55 1.13.84 1.69a304.17 304.17 0 0 0 22.11 35.22c1.15 1.55-1.55 3.14-2.7 1.55zm12.32 9.24a3.83 3.83 0 0 1-.67-1.12 1.36 1.36 0 0 1-.2 0c-2.88-1.12-4.67-3.48-6.53-5.84-1.23-1.56 1-3.78 2.2-2.2 1.42 1.8 2.93 4.17 5.16 5a1.61 1.61 0 0 1 .61.42 1.4 1.4 0 0 1 1.7 1.46l-.07.07c1.26 1.51-.92 3.73-2.2 2.18z"/><path class="cls-4" d="M150.09 331.3c-9.55-4.78-13.58-22.13-16.42-31.5-2.39-7.89-5.86-20.37-.09-27.5 1.25-1.54-.94-3.76-2.2-2.2-6.38 7.89-3.69 20.27-1.11 29.19 3 10.38 7.49 29.31 18.27 34.71 1.77.88 3.34-1.8 1.55-2.7zm10.61-33.18c3.93 11.55 10.43 24.46 21.66 30.36 1.77.93 3.34-1.76 1.57-2.69-10.45-5.49-16.57-17.76-20.23-28.5a100.33 100.33 0 0 1-3.86-17.11c-.74-4.83-2.46-11.63.42-16 1.1-1.68-1.59-3.24-2.69-1.57-2.66 4-2 9.32-1.4 13.89a109.88 109.88 0 0 0 4.53 21.62z"/><path class="cls-4" d="M185.65 322.47c11.75-17.44 10.91-39.3 14.86-59.19a1.56 1.56 0 0 0-3-.82v-.26a1.32 1.32 0 0 0-.27 1.75c-3.58 19.21-3 40.2-14.28 57-1.12 1.62 1.58 3.18 2.69 1.52z"/><path class="cls-4" d="M199.84 273c-1.71 6.34-.58 13.29 0 19.74a161.27 161.27 0 0 0 3.58 24.26 1.4 1.4 0 0 0 1.8 1.05c-.65 1.82-1.27 3.65-1.79 5.52a1.56 1.56 0 0 0 3 .82c3-10.59 8.21-20.38 11-31.16a196.68 196.68 0 0 0 5.67-33.1c.17-2-2.95-2-3.11 0a192.77 192.77 0 0 1-6.29 35c-1.91 7-4.91 13.49-7.47 20.16a158.88 158.88 0 0 1-3.32-22.59c-.51-6.1-1.7-12.89-.07-18.91a1.56 1.56 0 0 0-3-.79zm-22.31 85.88a1.51 1.51 0 0 0-.76-.59 10.72 10.72 0 0 1-4.38-2.71 1.41 1.41 0 0 0-2.07 0 1.56 1.56 0 0 0-.27-1.52c-4.85-6-6.22-13.45-8.19-20.68s-4.11-14.09-4.57-21.58a77.81 77.81 0 0 0 10.9 20.46c1.21 1.57 3.91 0 2.69-1.58-7.49-9.72-11.3-21.09-14.89-32.69-3.4-11-7-22.79-3.36-34.17.61-1.91-2.39-2.73-3-.82-3.53 11-.67 22.55 2.58 33.32 1.29 4.28 2.61 8.56 4.09 12.77a1.5 1.5 0 0 0-2.21 1.35c.29 9 3 17.31 5.34 26 1.91 7.17 3.66 14 8.42 19.87a1.28 1.28 0 0 0 2 .1 1.42 1.42 0 0 0 .35 1.45 14.12 14.12 0 0 0 5.75 3.5 1.33 1.33 0 0 0 1 0 1.57 1.57 0 0 0 2.95-.71v-.39a1.54 1.54 0 0 0-2.37-1.38zm-79.8-155.73a1.42 1.42 0 0 0-.38-1l-.08-.11-.09-.07a1.47 1.47 0 0 0-2 0l-.11.08-.07.09a1.42 1.42 0 0 0-.39 1c0 23 .35 50.25 13.95 70 1.13 1.64 3.82.08 2.69-1.58-13.32-19.31-13.48-45.85-13.52-68.41z"/><path class="cls-4" d="M110.25 246.71c-.05-2-3.17-2-3.11 0 .2 7.35 2.44 14.12 4.76 21 .63 1.89 3.64 1.07 3-.83-2.23-6.61-4.46-13.09-4.65-20.17zm32.54-34.53c-.58-1.11-1.16-2.22-1.72-3.35-1.07-2.15-2.11-4.32-3.09-6.53-.82-1.83-3.5-.24-2.69 1.58C142.49 220 152 234.63 162.22 249c1.15 1.62 3.85.06 2.69-1.58a304.17 304.17 0 0 1-22.12-35.24zm34.01 43.76a1.4 1.4 0 0 0-1.7-1.46 1.61 1.61 0 0 0-.61-.42c-2.23-.87-3.73-3.24-5.16-5-1.24-1.57-3.43.65-2.2 2.2 1.86 2.35 3.66 4.71 6.53 5.84a1.36 1.36 0 0 0 .2 0 3.83 3.83 0 0 0 .67 1.12c1.28 1.55 3.47-.67 2.2-2.2z"/><path class="cls-4" d="M237.79 195c-6.22-12.2-12.87-28.48-27.47-32.26a12.06 12.06 0 0 1 1.52-4.11 1.34 1.34 0 0 0 .05-1.42c2.14-5.13 5.34-8.74 5.84-14.55.63-7.36-.49-14.78-.1-22.16s1.47-14.76.32-22.11c-.89-5.72-2.92-11.68-4.68-17.2-3.11-9.73-8.58-16.4-18.39-18.71-4.2-1-6.22-3.95-10.32-4.82s-6.16-1.49-9.16-5c-1.59-1.86-2.64-3.73-4.48-5.47a1.57 1.57 0 0 0-2.6.69c-.11.4-.26.78-.39 1.18-2.13-4-4.87-7.72-6.25-12-1.62-5-.93-10.52-1.95-15.67-1.51-7.64-4.65-15.95-10.84-21a1.56 1.56 0 0 0-2.44 1.89c3.34 6.66 3.71 14.55 2.81 21.89-.46 3.77 0 5-1.5 1.21-1.65-4.24-3.72-7.77-4-12.47a1.56 1.56 0 0 0-3.06-.41c-2.1 6.2-3.21 12.15-2.22 18.69.54 3.52 1.75 6.87 2.24 10.39a33.1 33.1 0 0 1 0 6.54c-6-6.71-20.2-12.6-16.87-20.87.64-1.59-1.48-2.4-2.56-1.44a1.5 1.5 0 0 0-2.05 1.42c.12 7.15.63 14.76 3.2 21.51 2.1 5.52 5.87 10.17 8.57 15.4h-.07c-1.76-.36-7.41-.91-10.44-2.5a21.41 21.41 0 0 1-2.07-3.06 1.22 1.22 0 0 0-.47-.62 1.43 1.43 0 0 0-1.85 0 1.48 1.48 0 0 0-.27.22l-.06.08a1.43 1.43 0 0 0-.25.42v.13a1.53 1.53 0 0 0-.09.36c-.12 2.19 1.17 3.64 2.9 4.67 3.6 4.3 8.39 7.51 11.83 12-3.81 6.47-10.25 10.54-13.3 17.82A102.36 102.36 0 0 0 110.4 118a90 90 0 0 0 .35 27 1.42 1.42 0 0 0-2 .55c-5.12 9.22-.71 20.15 6.18 27.23a16.06 16.06 0 0 1-4.56 4.1c-2.67 1.49-5.65 2.38-8.28 4-4.9 2.93-8 7.49-10.33 12.64-5.65 12.66-6.35 28.2-5.08 41.8 1.44 15.42 6.08 30.31 11.94 44.58a135.83 135.83 0 0 0 9.4 19.47 80 80 0 0 0 6.65 8.88c1.3 1.58 2.59 3.17 3.81 4.81a45.87 45.87 0 0 1 3 4.51 1.42 1.42 0 0 0 1.9.59c.46 1 .94 1.94 1.43 2.92a1.53 1.53 0 0 0 .18.77 8 8 0 0 0 3.57 3.19 1.4 1.4 0 0 0 .18.23c8.24 7 15.78 14.66 23.83 21.83a1.65 1.65 0 0 0 .73 1.77 6.84 6.84 0 0 0-.13 1c-.11.69-.24 1.37-.33 2.06a7.94 7.94 0 0 1-.29 2.15c-.31.69-.3.64-1.24.44-2-.41-2.79 2.59-.82 3h.1c-.94 2.15-.83 4.63-.83 7.06 0 5.43-.46 8.61-5 11.91-1.36 1-.61 3.33 1.2 2.84 1.22-.33 2.43-.68 3.66-1-.3 1.2-.63 2.39-1 3.59-.61 1.92 2.36 2.71 3 .82 1.06-3.12 2.27-5.28 5.91-3.65 1.81.81 3.39-1.87 1.57-2.69-2.63-1.18-4.56-1.32-6.11-.68a1.27 1.27 0 0 0-1.35-.93c-.27 0-.52.11-.79.15a8.67 8.67 0 0 0 1.38-2.77c1.07-3.92-1-11.24 1.7-14.33a1.51 1.51 0 0 0 .38-1 3.11 3.11 0 0 0 .57-.54c.86-1.2.82-2.77 1-4.17s.94-4.91-.35-6a1.34 1.34 0 0 0-.48-1c-4.14-3.67-8.14-7.49-12.17-11.28l-.2-.19c-2.42-2.27-4.84-4.53-7.31-6.74l-.22-.2q-1.7-1.51-3.42-3a1.33 1.33 0 0 0-.76-1 8.67 8.67 0 0 1-2.88-1.93 1.5 1.5 0 0 0-.07-.23q-1.93-3.69-3.51-7.42c-.17-.39-.33-.79-.5-1.18a77.66 77.66 0 0 1-6-28.41c-.16-8.83-.27-22.15 7-28.42 1.51-1.32-.7-3.51-2.2-2.2-7.4 6.43-7.79 18.82-7.87 27.93a81.91 81.91 0 0 0 5.15 29.2c-2.39-3-5-5.85-7.19-9-4.5-6.37-7.72-13.63-10.71-20.79-5.69-13.5-10.36-27.64-12.11-42.27-1.6-13.33-1.28-28.38 3.58-41.07 3.14-8.2 7.75-12.46 15.45-16.07a22.14 22.14 0 0 0 7.43-5.43 1.45 1.45 0 0 0 .21 0 1.37 1.37 0 0 0 1-.4 1.6 1.6 0 0 0 .43-.15 4.4 4.4 0 0 0 .56 2.46 2.47 2.47 0 0 0 2.69 1.06c0 1.56.25 3.22 1.33 4.13 1.36 1.16 3.44.58 5.13.09-.13 1.47-.19 2.94-.2 4.41v.54a48 48 0 0 0 1.55 12c2.71 10.48 6.25 21.37 11.33 31l.36.7c.11.2.21.41.32.61 5.06 9.23 12.61 16.21 20.06 23.48 6.52 6.36 13.13 12.08 21.53 15.44a99.7 99.7 0 0 0-6.54 8.8c-1.11 1.67 1.58 3.23 2.69 1.57a90.38 90.38 0 0 1 7.12-9.37 1.45 1.45 0 0 0 1.13-1.26 58.79 58.79 0 0 1 4.7-4.64c1.52-1.32-.7-3.51-2.2-2.2-.19.17-.36.35-.55.52 1.72-3.38 3.91-6.64 5.31-10 2.84-6.83 5.54-13.87 7.88-20.89a297.18 297.18 0 0 0 11.19-43.48c1.07-6.3 1.43-11.7-.12-16.75-.07-.23-.14-.46-.22-.68a22.75 22.75 0 0 0-3.76-6.75 21.46 21.46 0 0 1 5.31 2.2l.75.44a26.53 26.53 0 0 1 3.22 2.39 1.34 1.34 0 0 0 .4 1.4c7.74 7.26 6.21 23.2 7.36 33.07 1.74 15 2.17 29.89 2.87 44.93a107.73 107.73 0 0 1-6.47 43.74c-4.59 12.72-8 26-17.11 36.4-1.32 1.5.88 3.71 2.2 2.2 9-10.26 12.55-22.89 17.07-35.47 5.73-16 8.23-29.9 7.43-46.87-.83-17.55-2-34.83-3.69-52.31-.5-5.22-.5-11.37-1.76-16.94 3.43 5.54 6.14 11.64 8.64 16.78 7.46 15.34 8.49 35.54 7.74 52.3-.16 3.6-.41 7.23-.75 10.89-.05.54-.11 1.09-.16 1.64q-.42 4.29-1 8.59-.14 1.07-.3 2.13l-.09.63c-.28 1.89-.57 3.77-.9 5.65a1.54 1.54 0 0 0-.28-1.1c-.7-1-2.45-1.09-2.72.39-2.69 14.42-9.7 28.91-17.4 41.33-1.46 2.35-11.06 17.37-15.31 18.53a1.51 1.51 0 0 0-1.12-.19h-.3a1.39 1.39 0 0 0-1.29.2 12.28 12.28 0 0 1-2.66.09 1.46 1.46 0 0 0-.54.06 1.49 1.49 0 0 0-.24-.06 6.12 6.12 0 0 0-1.16.06c-.16 0-.31.06-.46.1-4.35 1-5.13 7.18-5.18 11.93-2.23-.12-4.09 2.18-5.33 3.72-.36.44-.71.6-1 1v-.06a16.45 16.45 0 0 1 2.09-3.57c1.16-1.63-1.54-3.19-2.69-1.57a19.77 19.77 0 0 0-1.7 2.9 1.56 1.56 0 0 0-.24.21 12.81 12.81 0 0 0-1.71 3.1c-.63 1.56 1.38 2.35 2.48 1.49a1.7 1.7 0 0 0 .3-.12q-.43.61-.87 1.2a1.43 1.43 0 0 0-.65.8c-.28.34-.55.68-.85 1a1.51 1.51 0 0 0 .05 2.17 1.43 1.43 0 0 0 2.15 0 53.77 53.77 0 0 0 4-5.3l.53-.75a15.54 15.54 0 0 1 1.88-2.32 2.71 2.71 0 0 1 1.66-.89v.34a45.8 45.8 0 0 0 1.84 11.49c1 3.47 2.44 6.79 3.53 10.22.6 1.9 1.6 4.3 1.5 6.52a64.62 64.62 0 0 1-3.31 6.26 1.56 1.56 0 0 0 2.69 1.57 33 33 0 0 1 2.21-3.48 32.43 32.43 0 0 1 .7 10.63c-.2 2 2.91 2 3.11 0a33.77 33.77 0 0 0-1-12.49 30.43 30.43 0 0 1 3.9 2.86c1.19 1.12 2.26 2.18 2.94 2.73 1.52 1.25 3.62-.74 2.2-2.2-.69-.7-1.38-1.36-2.08-2-2.36-2.53-4.32-5.23-7.62-5.78-.33-5.17-4.29-10.7-5.74-15.66-1.11-3.77-4.7-23.41 1.9-23.09a1.49 1.49 0 0 0 .51-.08 1.52 1.52 0 0 0 .27.08 14.71 14.71 0 0 0 3.71-.23c1.9.49 4-.52 6.12-2.25 4.72-3.9 9.32-11.5 11.1-14.06a114.72 114.72 0 0 0 10.87-18.61c3.58-8.11 7-16.44 8.84-25.12.11-.53.24-1 .34-1.57-.1.55-.21 1.1-.31 1.65-1.18 6.5-2.62 12.93-4.36 19.13-.81 2.89-1.93 6.85-3.41 11.06-.86 2.44-1.84 5-2.95 7.43-3.58 7.93-8.53 15.13-15.22 16.35-2 .36-1.13 3.36.83 3l.41-.09c11.08-2.39 16.69-18 20.16-27.29 7.11-19.11 10.34-41 11.25-61.37.71-17.48-.6-38.76-8.81-54.76zM115 168.18a28.34 28.34 0 0 1-3.54-5.79c-2.08-4.61-2.7-9.73-.47-14.43.06-.13.11-.26.17-.39 0 .13.05.27.08.4 1.24 7.1 3 14.19 4.89 21.56-.35-.43-.72-.89-1.13-1.35zm96.48 13.58c-.4 6.79-2.11 13.67-3.78 20.25l-.11.43-1 3.82-1.1 4.35-.55 2.12c-1.59 6.17-3.28 12.33-5.24 18.39-.36 1.1-.72 2.2-1.09 3.29q-.82 2.39-1.72 4.75c-.71 1.87-1.39 3.75-2.09 5.64l-.27.73a98.91 98.91 0 0 1-5.7 13.25c-1.67 3.06-3.61 6-4.6 9.33-8.57-3.32-15.15-9.36-21.71-15.75-7-6.78-14-13.35-18.69-22s-7.75-18.27-10.57-27.67c-3.39-11.3-3-20.54-.31-31.88a1.47 1.47 0 0 0 0-.18c7.24-.88 12.63-7.46 17.11-12.66a73.58 73.58 0 0 1 8.77-9.25c2.27-1.86 10-7 15.32-7.58-4 12.07-2.75 26-2.53 38.43.18 10.21 0 21.4 1.4 32a49.68 49.68 0 0 1-3.06-9.72c-.39-2-3.39-1.13-3 .83 1.49 7.57 4.82 14.09 8.52 20.78a1.6 1.6 0 0 0 2.92 1c6.76-10.38 11.58-30.67 7.48-42.85-.64-1.89-3.64-1.07-3 .83 3.4 10.1 0 26.65-5.19 36.95-3.16-12.56-2.74-27.08-3-39.77-.22-12.12-1.4-25.73 2.38-37.46 5.4 3.48 9.87 7.92 14.67 12.14 3.9 3.43 8.21 6.38 12 10 5.47 5.06 8.26 9.97 7.78 17.46zm-2.91-23.7a15.37 15.37 0 0 0-1.28 3.69c0 .1 0 .21-.06.32-.07.34-.13.68-.18 1a61.08 61.08 0 0 0-2.34-2.21l-.35-.32c-3.66-3.23-7.65-6.1-11.28-9.35A131 131 0 0 0 180 140.31a1.47 1.47 0 0 0-.69-1.28c-5.43-3.57-16.57 2.89-20.9 6.13a26.27 26.27 0 0 0-2.8 2.48l-.11.11a65.713 65.713 0 0 0-3.34 3.71c-1.62 1.91-3.25 4-4.93 5.93-4.34 5.1-9 9.69-14.64 10.25h-.71a1.55 1.55 0 0 0-.75.21h-.06a1.61 1.61 0 0 0-.7 1.37 1.43 1.43 0 0 0-.39.69c-.76 3.26-1.37 6.36-1.79 9.41a1.45 1.45 0 0 0-.22 0c-.82.21-1.65.47-2.49.62-.37.06-.8 0-.79.12-.45-.78-.2-3.11-.23-3.86a1.58 1.58 0 0 0-2.34-1.34 3.35 3.35 0 0 1-.82.36v-.58c0-.78.07-1.56 0-2.34a1.55 1.55 0 0 0-2.08-1.41s-.06-.07-.08-.11a1.44 1.44 0 0 0 .23-1.26c-4.64-18.08-8.82-34.66-5.59-53.43a99.79 99.79 0 0 1 5.91-21.32c3-7.26 9.53-11.23 13.26-17.78a1.33 1.33 0 0 0 .66-1.65 1.64 1.64 0 0 0-.95-1.36c-.37-.48-.78-.92-1.18-1.38l-.21-.24c-2.05-2.28-4.38-4.31-6.64-6.39 5.81 1.31 12.26 1.51 16.48 6.21 1.34 1.49 3.54-.72 2.2-2.2a17.85 17.85 0 0 0-8.6-5 1.62 1.62 0 0 0-.11-.51c-2.22-5-5.65-9.28-8.08-14.17a41 41 0 0 1-3.71-13.85c5 5.7 15 9.73 17.09 16a1.47 1.47 0 0 0 1.25 1c.92.8 2.7.46 2.59-1.07-.4-5.31.49-10-.77-15.31-1.51-6.3-2-11.71-1-17.46v-.24l.08.22c.34 1 .72 1.93 1.1 2.88l.09.22a46.57 46.57 0 0 1 2.85 8.55 1.55 1.55 0 0 0 1.5 1.14c7.34-.86 5.88-15.25 3.68-24.58 3.66 5.58 5.38 12.67 6 19.07.44 4.74.36 9 2.33 13.43.26.58.53 1.14.82 1.7l.33.62c1.87 3.5 4.18 6.72 5.67 10.49a1.58 1.58 0 0 0 2.85.37 14.91 14.91 0 0 0 1.05-2.2c2.09 2.9 3.74 6.62 6.76 8.26a9 9 0 0 0 2.27.75 22.29 22.29 0 0 0 3.3.17 10.18 10.18 0 0 1 6.42 3.92 39.2 39.2 0 0 0 4.25 1.33c7.56 2.5 10.64 3.09 14.38 9.91a41.81 41.81 0 0 1 3.16 8.59c.88 3.06 1.88 6.15 2.71 9.26l.06.24a47.83 47.83 0 0 1 1.5 8.22v.39c.06.92.09 1.84.1 2.75.07 5.1-.56 10.2-.84 15.29-.35 6.46.68 13 .24 19.39-.34 5-2.22 8.61-4.11 12.56l-.15.32c-.65 1.36-1.3 2.76-1.88 4.27a1.28 1.28 0 0 0 .13 1.15z"/><path class="cls-4" d="M176.28 347.91a1.58 1.58 0 0 0 2.84-.38c.63-1.61-.9-3.19-1.84-4.3-1.29-1.54-3.48.68-2.2 2.2.07.09.47.51.75.85a1.24 1.24 0 0 0 .42 1.48c-.44-.36-.16-.12.03.15z"/><path class="cls-5" d="M190.48 90.26c-5.38 0-10.92 16.73-10.91 21.21s5.6 21.18 11 21.18c2.45 0 5.19-2.85 7.5-7.82 2-4.33 3.42-9.84 3.42-13.4S200 102.37 198 98c-2.32-4.91-5.07-7.75-7.52-7.74zm5.63 22.58a4.48 4.48 0 0 0 2.78-1c-.14 5.73-3.4 10.31-7.42 10.32s-7.46-4.78-7.47-10.7 3.32-10.72 7.43-10.73A5.74 5.74 0 0 1 195 102a2.12 2.12 0 0 0-.87 1.5 4.91 4.91 0 0 0-2.68 4.43 4.78 4.78 0 0 0 4.66 4.91z"/><path d="M190.48 87.93c-7.94 0-13.24 19.5-13.24 23.54S182.61 135 190.55 135s13.25-16.76 13.24-23.54-5.33-23.54-13.31-23.53zm11 23.5c0 3.55-1.4 9.06-3.42 13.4-2.31 5-5 7.81-7.5 7.82-5.38 0-11-16.7-11-21.18s5.53-21.2 10.91-21.21c2.45 0 5.19 2.84 7.52 7.79 2.01 4.32 3.47 9.83 3.47 13.38z"/><path d="M194.12 103.53A2.12 2.12 0 0 1 195 102a5.74 5.74 0 0 0-3.55-1.29c-4.12 0-7.44 4.81-7.43 10.73s3.35 10.71 7.47 10.7 7.28-4.59 7.42-10.32a4.48 4.48 0 0 1-2.78 1 4.78 4.78 0 0 1-4.67-4.88 4.91 4.91 0 0 1 2.66-4.41z"/><path class="cls-5" d="M144.93 90.26C139.55 90.27 134 107 134 111.47s5.6 21.18 11 21.18c2.45 0 5.19-2.85 7.5-7.82 2-4.33 3.42-9.84 3.42-13.4s-1.43-9.06-3.46-13.38c-2.34-4.96-5.08-7.8-7.53-7.79zm5.63 22.58a4.48 4.48 0 0 0 2.78-1c-.14 5.73-3.4 10.31-7.42 10.32s-7.46-4.78-7.47-10.7 3.32-10.72 7.43-10.73a5.74 5.74 0 0 1 3.55 1.29 2.12 2.12 0 0 0-.87 1.5 4.91 4.91 0 0 0-2.68 4.43 4.78 4.78 0 0 0 4.68 4.89z"/><path d="M144.93 87.93c-7.94 0-13.24 19.5-13.24 23.54S137.06 135 145 135s13.25-16.76 13.24-23.54-5.33-23.54-13.31-23.53zm11 23.5c0 3.55-1.4 9.06-3.42 13.4-2.31 5-5 7.81-7.5 7.82-5.38 0-11-16.7-11-21.18s5.53-21.2 10.91-21.21c2.45 0 5.19 2.84 7.52 7.79 2.04 4.32 3.46 9.83 3.47 13.38z"/><path d="M148.57 103.53a2.12 2.12 0 0 1 .87-1.5 5.74 5.74 0 0 0-3.55-1.29c-4.12 0-7.44 4.81-7.43 10.73s3.35 10.71 7.47 10.7 7.28-4.59 7.42-10.32a4.48 4.48 0 0 1-2.78 1 4.78 4.78 0 0 1-4.67-4.88 4.91 4.91 0 0 1 2.67-4.44zM134.42 84c4-3.68 9.5.28 13.72 1.47a1.5 1.5 0 0 0 .8-2.89c-5.65-1.59-11.47-5.52-16.64-.7-1.41 1.28.7 3.4 2.12 2.12zM187 78.44c-1.73.86-.21 3.45 1.51 2.59 4.91-2.46 9.17-1.51 13 2.38 1.36 1.38 3.48-.75 2.12-2.12-4.78-4.86-10.53-5.91-16.63-2.85zm-38 26.96zm13.89 24.38zm.11-.06a.05.05 0 0 0 0-.1.05.05 0 0 0 0 .1z"/></g></g></svg>