<svg height="399" width="383" xmlns="http://www.w3.org/2000/svg"><mask id="a" fill="#fff"><path d="M0 .76h161.412v18.872H0z" fill="none"/></mask><mask id="b" fill="#fff"><path d="M.227.484h168.145V21.24H.227z" fill="none"/></mask><mask id="c" fill="#fff"><path d="M.132.975H160.72V400H.13z" fill="none"/></mask><g fill="none" fill-rule="evenodd"><path d="M76.63 298.305c3.213 4.97 7.091 9.432 12.035 12.833.075.052.152.086.228.13-4.697-3.757-8.782-8.515-12.264-12.963m22.561-12.851c-4.608-8.766-6.41-18.255-8.896-27.745-1.303-4.975-5.237-11.061-4.502-16.26.224-1.597 2.648-.917 2.424.666-.391 2.776 1.69 6.209 2.625 8.745 1.003 2.72 1.718 5.518 2.419 8.33 2.137 8.583 3.947 17.095 8.1 24.992.752 1.43-1.416 2.705-2.17 1.272m-1.73 20.694c-3.083-.97-6.128-2.48-8.797-4.303-1.017-.695-1.794-1.474-2.577-2.427-.55-.668-2.06-3.132-3.058-2.988-1.584.227-2.268-2.195-.672-2.423 2.729-.393 4.166 2.07 5.73 3.907 2.408 2.826 6.554 4.713 10.04 5.809 1.54.484.882 2.912-.665 2.425m-3.154-7.223c-3.78-1.562-7.535-3.912-9.25-7.79-.65-1.468 1.516-2.75 2.169-1.274 1.445 3.27 4.535 5.312 7.745 6.639 1.477.61.829 3.043-.664 2.425M81.69 275.86c-2.046-4.76-3.047-9.608-4.174-14.63-1.35-6.02-3.43-11.846-4.922-17.833-.391-1.572 2.033-2.241 2.424-.672 2.163 8.684 4.26 17.647 6.822 26.206 1.865 6.226 6.799 19.884 14.065 21.91 1.558.434.896 2.86-.664 2.425-6.984-1.946-10.947-11.351-13.551-17.406m-11.672-38.935c-1.311-.928-.057-3.11 1.266-2.173 6.888 4.87 11.504 11.649 13.324 19.923 2.346 10.66 2.63 21.692 10.898 29.89 1.15 1.14-.625 2.92-1.775 1.78-6.095-6.042-8.595-14.021-10.09-22.295-1.972-10.927-3.953-20.287-13.623-27.125m14.423 2.642c.469 1.758.192 3.59.638 5.342.089.35.022.647-.116.893.2.146.366.354.432.677a20.921 20.921 0 0 0 2.399 6.296c.807 1.408-1.364 2.676-2.17 1.273-1.237-2.155-2.155-4.46-2.652-6.896a1.225 1.225 0 0 1 .154-.898 1.13 1.13 0 0 1-.471-.673c-.447-1.76-.172-3.596-.637-5.342-.42-1.567 2.006-2.234 2.423-.672m2.029-91.843c-4.788.007-9.33-8.021-9.342-16.521-.015-8.5 4.5-16.543 9.288-16.551 4.514-.008 7.93 7.096 7.946 16.523.016 9.426-3.377 16.54-7.892 16.549m.69-38.274c3.866.817 10.982 2.565 11.328 7.42.137 1.929-2.864 1.915-3 0-.114-1.602-3.08-2.643-4.3-3.114a31.51 31.51 0 0 0-4.824-1.413c-1.891-.4-1.086-3.291.797-2.893m48.008 197.968l-.505-.566c-.184-1.413-1.183-2.35-2.435-2.73l-1.162-1.304c-.623-.864-1.421-1.187-2.193-1.195-.4-.993-1.091-1.771-1.954-2.356-.064-.084-.13-.164-.193-.25-.485-.651-1.078-1.027-1.69-1.203-1.157-2.32-2.25-4.684-3.474-6.983-.522-.982-1.42-1.374-2.341-1.393-.767-1.7-1.545-3.38-2.395-4.995-.508-.965-1.31-1.368-2.141-1.434-.574-1.297-1.174-2.584-1.856-3.84-.57-1.047-1.445-1.44-2.323-1.424-1.421-3.605-2.862-7.21-4.581-10.701-.595-1.211-1.63-1.552-2.621-1.365a12.587 12.587 0 0 0-.636-1.255c-1.211-3.066-2.342-6.126-3.374-9.32-.248-.767-.716-1.28-1.274-1.595-.15-.64-.31-1.274-.451-1.915a731.05 731.05 0 0 0-1.43-7.532c-.145-.761-.514-1.246-.957-1.59-.198-1.106-.376-2.22-.541-3.335-.348-3.481-.71-6.96-.876-10.46-.03-.65-.261-1.151-.56-1.583-.002-.063.015-.116.006-.18-.136-1.04-.231-1.743-.351-2.397.624-3.046.645-6.27.785-9.344.033-.721-.282-1.306-.747-1.747.35-2.285.665-4.583.938-6.924a1.299 1.299 0 0 0-.156-.77c1.745-3.064 3.613-5.586 3.187-9.187.258-.27.484-.576.617-.96.368-1.058.6-2.11.787-3.158 1.104.135 2.206-.374 2.532-1.857.103-.47.295-1.967.554-3.273l.016-.012c.62.162 1.298.1 1.972-.256 3.055-1.614 6.326-2.242 9.222-4.046.783-.487 1.184-1.323 1.245-2.177.167-.248.31-.514.393-.815 1.35-.382 2.426-1.688 2.092-3.518l-.452-3.742c.043-.127.05-.256.076-.384 2.736-1.011 2.646-5.27-.756-5.391-2.07-.073-2.851-5.068-3.116-10.344a2.73 2.73 0 0 0 .333-1.607c-.323-3.51-.512-6.746-.327-10.267.005-.23-.068-.4-.1-.6.142-5.406.83-10.778 2.143-16.122 1.104-4.487 2.889-8.698 3.535-13.242 3.099-5.232 6.634-9.62 11.102-13.772 1.155-1.073-.056-3.457-1.633-2.794l-.2-.055c.17.728-.213 1.57-1.163 1.509-4.144-.268-7.955-1.726-11.62-3.551.482 2.078 1.013 4.135 2.139 5.994l-.016.007c.042.1.103.192.144.293.543 1.37-1.59 2.14-2.297.973a14.737 14.737 0 0 1-.98-1.986c-3.236-5.894-10.417-10.335-16.703-11.782-5.104-1.174-10.391-.148-15.255 1.849 9.806-.492 19.683 3.385 26.624 10.487.697.714.289 1.66-.391 2.013-.157.429-.528.768-1.123.765-3.64-.021-7.216-.177-10.732-.717.57.303 1.118.636 1.703.926 1.096.544.602 2.438-.631 2.344-4.298-.327-8.766-.586-13.111-1.164.41.392.597 1.042.264 1.544-1.133 1.709-2.566 2.949-3.964 4.397l-.111.17c-.03.01-.057.023-.087.033-.075.08-.152.153-.227.234-2.635 2.846-4.261 6.539-5.344 10.223-1.316 4.476-1.02 8.959-1.293 13.385.012.038.016.075.029.113-.013.014-.024.03-.038.044-.004.057-.005.114-.01.17.31.486.323 1.16-.16 1.636-.026.247-.065.493-.097.739 4.815 4.375 8.136 10.239 11.338 15.848a54.152 54.152 0 0 1 1.878 3.627c.044.05.085.105.13.156.032.099.06.199.089.298 1.267 2.743 2.262 5.582 2.93 8.51.103.305.216.607.339.9-.043.016-.083.037-.125.054.355 1.764.597 3.557.687 5.385.08 1.62-2.433 1.614-2.513.004-.006-.101-.02-.206-.026-.307-.047-.027-.094-.054-.136-.088-3.971 1.482-7.487 4.104-10.795 7.04-3.37 8.969-5.871 18.709-10.565 27.159-.012.03-.026.059-.04.088-.005.003-.01.008-.017.01-1.458 2.615-3.123 5.11-5.1 7.414.298.27.467.668.304 1.176-3.365 10.506-4.125 21.557-2.535 32.33 3.217-11.76 4.994-23.867 5.087-36.126.013-1.62 2.528-1.622 2.515-.004-.108 14.15-2.408 28.128-6.585 41.599.254 1.133.574 2.253.88 3.376a294.692 294.692 0 0 0 3.779-2.702c-.63-3.706-.78-7.465.137-10.862.422-1.563 2.848-.9 2.426.664-2.73 10.118 2.948 26.332 10.747 33.949-2.02-7.583-4.556-15.032-6.553-22.641-.412-1.57 2.013-2.236 2.423-.673 3.058 11.647 7.402 22.913 9.172 34.87.235 1.585-2.187 2.268-2.423.673-.41-2.765-.967-5.49-1.604-8.195-.115-.04-.23-.076-.346-.164-5.864-4.43-9.17-10.82-11.401-17.707-.725-2.24-1.464-4.695-2.041-7.22a381.18 381.18 0 0 1-3.608 2.58c3.445 11.36 8.138 22.94 14.688 32.917 4.062 6.186 9.876 13.32 16.644 17.997l.007-.006.017.024c3.107 2.142 6.412 3.767 9.843 4.544 6.59 1.49 14.867-.005 21.436-1.266 4.193-.806 8.438-2.19 12.102-4.445.272-.717.2-1.541-.47-2.17" fill="#3d3b39"/><path d="M35.262 187.983c5.673-4.345 8.328-11.48 12.865-16.847 4.67-5.525 10.707-9.692 15.322-15.27 1.033-1.247 2.805.538 1.781 1.776-5.273 6.37-12.367 10.967-17.21 17.727-3.67 5.122-6.389 10.879-11.486 14.783-1.286.985-2.54-1.198-1.272-2.17m-21.127 31.77c3.276-1.411 6.605-2.68 9.905-4.033 5.718-2.344 11.076-5.49 16.208-8.964l.006-.011.07-.04c2.792-1.893 5.522-3.88 8.202-5.892 7.52-5.652 14.823-11.727 21.71-18.14 1.241-1.154 2.475-2.336 3.731-3.496l1.196-1.08c3.5-3.143 7.215-6.006 11.724-7.55-1.48-10.128-7.673-21.74-15.047-28.905-.664 1.033-2.589.369-2.244-1.05.021-.09.03-.181.051-.272-3.619 2.925-6.783 6.294-10.155 9.546-3.393 3.276-7.142 6.134-10.619 9.318-7.857 7.197-14.874 15.339-20.58 24.347-5.6 8.84-10.594 18.474-15.196 27.879-1.583 3.234-3.095 7.855-5.969 10.542 2.301-.571 4.592-1.157 7.007-2.198m29.341 8.277c3.16-2.9 6.309-5.855 9.389-8.862l.169-.229c.023.001.046-.003.07-.003a296.187 296.187 0 0 0 3.18-3.158c8.627-8.706 12.01-20.5 15.944-31.8-2.045 1.973-4.05 3.94-6.067 5.685a433.26 433.26 0 0 1-4.687 3.995c1.327-.622 2.37 2.342 2.37 2.342.028.099.082.179.088.293.277 5.545-3.794 10.663-6.977 14.824-2.222 2.904-4.535 5.761-7.215 8.258-2.288 2.132-6.23 5.043-8.795 7.732l-2.467 1.765c-1.014.679-2.668 1.614-2.515.005.32-3.335 2.943-5.889 4.779-8.531 2.993-4.31 5.234-8.782 7.683-13.385.189-.354.804-3.583.804-3.583-.98.731-1.95 1.471-2.943 2.184-.768.551-1.553 1.077-2.328 1.617.224.267.337.624.203 1.066-1.604 5.249-3.924 10.174-6.706 14.902-2.048 3.482-4.447 6.725-6.224 10.288-.001.076-.017.154-.012.23a30.628 30.628 0 0 0-1.244 2.667c-.204.56-.4 1.124-.561 1.707 1.907-1.07 3.979-1.842 5.816-3.117 2.917-2.026 5.636-4.496 8.246-6.892" fill="#ffb917"/><path d="M95.24 293.266c1.562.436 2.224-1.99.665-2.426-7.266-2.025-12.2-15.683-14.065-21.91-2.563-8.559-4.66-17.52-6.822-26.205-.391-1.569-2.815-.9-2.423.672 1.49 5.986 3.57 11.812 4.92 17.833 1.128 5.021 2.129 9.87 4.175 14.63 2.604 6.054 6.568 15.46 13.55 17.406" fill="#111"/><path d="M83.642 264.05c1.494 8.274 3.994 16.253 10.089 22.296 1.15 1.14 2.926-.64 1.775-1.78-8.268-8.2-8.552-19.231-10.898-29.891-1.82-8.273-6.436-15.053-13.324-19.923-1.324-.936-2.578 1.245-1.266 2.173 9.67 6.838 11.65 16.198 13.624 27.125m-47.107-73.898c5.097-3.905 7.815-9.661 11.485-14.784 4.842-6.759 11.937-11.355 17.21-17.727 1.024-1.238-.749-3.023-1.782-1.775-4.613 5.578-10.651 9.745-15.32 15.269-4.537 5.369-7.193 12.502-12.865 16.848-1.27.971-.014 3.153 1.272 2.169" fill="#111"/><path d="M56.285 215.778a287.318 287.318 0 0 1-3.181 3.159l-.24.23a414.326 414.326 0 0 1-9.388 8.862c-2.61 2.397-5.33 4.867-8.245 6.892-1.838 1.275-3.91 2.048-5.816 3.117.16-.583.356-1.146.56-1.707a27.81 27.81 0 0 1 1.256-2.896c1.778-3.564 4.176-6.807 6.225-10.289 2.78-4.727 5.1-9.652 6.705-14.901.135-.441.02-.8-.202-1.065.774-.541 1.559-1.066 2.327-1.618.993-.712 1.964-1.453 2.943-2.183 0 0-.615 3.229-.803 3.582-2.45 4.603-4.691 9.075-7.684 13.385-1.836 2.643-4.46 5.196-4.778 8.53-.154 1.61 1.5.676 2.514-.004l2.467-1.764c2.567-2.69 6.507-5.601 8.795-7.732 2.68-2.497 4.993-5.354 7.216-8.26 3.183-4.16 7.254-9.278 6.976-14.822-.005-.115-.06-.194-.086-.294 0 0-1.044-2.963-2.373-2.341a425.548 425.548 0 0 0 4.688-3.995c2.018-1.745 4.022-3.713 6.067-5.685-3.933 11.298-7.317 23.093-15.943 31.798m-15.962-9.072a.873.873 0 0 0-.074.05c-5.133 3.473-10.49 6.62-16.208 8.963-3.301 1.353-6.63 2.622-9.905 4.034-2.415 1.041-4.706 1.627-7.007 2.198 2.874-2.687 4.385-7.308 5.968-10.542 4.603-9.405 9.596-19.039 15.197-27.879 5.706-9.008 12.722-17.15 20.58-24.347 3.476-3.184 7.225-6.042 10.619-9.318 3.37-3.252 6.535-6.62 10.154-9.546-.02.091-.03.183-.05.273-.345 1.418 1.58 2.083 2.244 1.05 7.374 7.165 13.566 18.776 15.047 28.904-4.508 1.544-8.224 4.407-11.725 7.55l-1.195 1.08c-1.256 1.16-2.491 2.342-3.733 3.497-6.886 6.413-14.19 12.488-21.71 18.14-2.678 2.013-5.41 3.999-8.202 5.893m97.385 101.48c-.662.506-1.36.965-2.07 1.402-3.664 2.256-7.91 3.64-12.102 4.445-6.568 1.26-14.846 2.756-21.436 1.266-3.43-.776-6.736-2.401-9.842-4.544-.008-.006-.016-.013-.025-.018-6.767-4.676-12.582-11.811-16.643-17.997-6.551-9.976-11.243-21.557-14.69-32.917 1.209-.852 2.41-1.713 3.61-2.58.577 2.525 1.315 4.98 2.04 7.22 2.232 6.888 5.538 13.277 11.4 17.707.118.088.232.124.348.164.636 2.705 1.194 5.43 1.603 8.195.237 1.595 2.658.913 2.423-.672-1.77-11.957-6.114-23.224-9.172-34.87-.41-1.564-2.835-.897-2.423.672 1.997 7.609 4.534 15.058 6.553 22.64-7.8-7.617-13.476-23.83-10.747-33.948.422-1.565-2.004-2.228-2.426-.664-.916 3.396-.766 7.155-.137 10.861-1.25.914-2.514 1.81-3.78 2.702-.304-1.123-.625-2.243-.88-3.376 4.178-13.47 6.478-27.448 6.586-41.598.013-1.618-2.502-1.616-2.514.004-.094 12.259-1.87 24.367-5.087 36.127-1.591-10.774-.83-21.825 2.534-32.331.163-.508-.006-.906-.303-1.175 1.977-2.305 3.64-4.8 5.1-7.416l.056-.098c4.694-8.45 7.196-18.19 10.565-27.157 3.308-2.937 6.824-5.559 10.795-7.04.043.032.09.06.137.087.005.101.019.206.025.306.08 1.611 2.594 1.616 2.514-.004a36.142 36.142 0 0 0-.688-5.384c-.064-.32-.141-.636-.214-.954-.668-2.929-1.663-5.768-2.93-8.51-.07-.152-.146-.302-.218-.454a53.701 53.701 0 0 0-1.88-3.628c-3.2-5.609-6.522-11.473-11.337-15.848.032-.246.07-.492.099-.739.48-.475.468-1.15.16-1.636.004-.056.005-.113.009-.169.003-.053.004-.105.008-.158.274-4.426-.023-8.908 1.293-13.384 1.083-3.685 2.709-7.377 5.344-10.224.075-.08.152-.154.228-.234.065-.069.13-.134.197-.203 1.398-1.447 2.83-2.688 3.965-4.397.333-.502.145-1.15-.265-1.544 4.346.58 8.814.837 13.11 1.164 1.234.094 1.728-1.8.632-2.343-.585-.29-1.132-.624-1.703-.927 3.517.541 7.093.696 10.733.717.594.003.965-.336 1.123-.765.679-.353 1.087-1.299.39-2.013-6.941-7.102-16.818-10.979-26.624-10.487 4.864-1.997 10.152-3.023 15.255-1.848 6.286 1.446 13.467 5.887 16.704 11.782.28.674.589 1.34.98 1.985.708 1.168 2.84.398 2.297-.973-.041-.1-.103-.192-.145-.293l.017-.006c-1.126-1.859-1.658-3.916-2.14-5.995 3.665 1.826 7.477 3.284 11.62 3.552.95.061 1.333-.782 1.164-1.51-.118-.508-.505-.96-1.168-1.004-4.63-.3-8.828-2.328-12.846-4.505-.964-.523-2.124.344-1.844 1.422.08.31.149.617.224.926-3.564-3.45-8.191-5.99-12.722-7.387-8.841-2.726-18.36.652-25.851 5.433-1.16.74-.436 2.746.973 2.296 10.643-3.4 22.454-.497 30.71 6.848-5.564-.114-10.992-.65-16.254-2.695-1.438-.559-2.006 1.524-.965 2.3 1.242.925 2.522 1.755 3.823 2.553-3.963-.31-8.051-.702-11.635-1.45-1.184-.247-2.158 1.182-1.22 2.104a23.186 23.186 0 0 0 2.79 2.325c-3.104 4.31-6.737 7.132-8.663 12.58-1.062 2.998-1.72 6.242-2.142 9.387-.338 2.506-.064 5.066-.107 7.588-6.632 4.81-11.998 11.171-18.245 16.455-7.47 6.317-14.3 13.3-20.207 21.11-6.004 7.938-10.391 16.65-15.113 25.37-2.15 3.97-4.361 7.904-6.276 11.991l-7.042 12.634c-.086.028-.322.28-.41.31-1.526.511-.712 2.705.828 2.188 3.082-1.034 5.017-2.056 8.124-3.298 4.37-1.748 8.684-3.703 13.047-5.49 5.85-2.4 11.269-5.583 16.5-9.086-1.902 5.638-4.641 10.913-7.856 15.922-2.76 4.3-5.536 8.367-6.656 13.425a1.214 1.214 0 0 0 .509 1.308c-.501 1.056.562 2.526 1.657 1.68 2.28-1.763 5.25-2.607 7.636-4.302 2.517-1.788 4.898-3.832 7.2-5.879 4.758-4.226 9.56-8.662 14.003-13.273-3.273 11.693-3.496 23.985-.976 35.785-.895 2.852-1.846 5.692-2.912 8.497-.37.974.993 2.076 1.85 1.417 1.01-.777 2.053-1.51 3.087-2.253 3.835 12.48 9.095 25.56 17.092 35.916.257.333.519.67.783 1.005 3.482 4.448 7.567 9.206 12.263 12.963 1.488 1.189 3.033 2.283 4.643 3.228-.32.12-.592.368-.708.8-1.183 4.385-2.548 8.745-3.224 13.248-.59 3.942.855 8.106-4.334 8.209-1.16.024-1.82 1.798-.63 2.344 1.745.799 2.563.333 3.807.082-.107.612-.215 1.224-.321 1.837-.322 1.58 1.923 2.211 2.426.663.177-.549.3-.922.39-1.216.135-.272.292-.469.458-.637 1.73.483 3.288.792 5.082.892 1.237.068 1.72-1.778.63-2.344-2.242-1.163-4.396-1.812-6.075-1.31.34-.603.59-1.364.738-2.344.452-2.993.24-5.87.889-8.925.703-3.314 1.708-6.566 2.589-9.836.05-.183.053-.349.032-.505 2.462 1.246 5.059 2.152 7.799 2.556 6.552.967 13.88-.28 20.363-1.409 5.426-.946 11.124-2.874 15.533-6.248 1.268-.97.013-3.154-1.272-2.169" fill="#111"/><path d="M92.033 131.178c-.014-8.373-2.97-14.202-5.613-14.198-1.118.002-2.44.988-3.623 2.627 1.646.58 2.937 5.438 2.947 11.348.01 6.261-1.422 11.341-3.206 11.411 1.26 1.891 2.717 3.03 3.929 3.028 2.643-.005 5.58-5.844 5.566-14.216" fill="#fff"/><path d="M80.382 127.937c.9-.002 1.633 1.457 1.636 3.258s-.725 3.262-1.625 3.263c-.9.001-1.633-1.457-1.636-3.258s.725-3.262 1.625-3.263m2.155 14.43c1.784-.07 3.217-5.15 3.206-11.41-.009-5.912-1.3-10.77-2.947-11.35 1.184-1.639 2.505-2.625 3.623-2.627 2.644-.004 5.6 5.826 5.613 14.198.014 8.372-2.922 14.212-5.566 14.216-1.212.002-2.669-1.137-3.929-3.027m3.878-27.716c-4.788.01-9.303 8.052-9.288 16.552.014 8.5 4.555 16.528 9.343 16.52 4.515-.007 7.907-7.122 7.891-16.549-.015-9.426-3.43-16.53-7.946-16.523" fill="#000"/><path d="M80.393 134.458c.9 0 1.628-1.462 1.625-3.263s-.735-3.26-1.636-3.258c-.9.001-1.628 1.462-1.625 3.263s.736 3.26 1.636 3.258" fill="#fff"/><path d="M88.216 242.115c.224-1.583-2.2-2.263-2.425-.665-.734 5.198 3.2 11.284 4.502 16.259 2.487 9.49 4.288 18.979 8.897 27.745.754 1.432 2.922.159 2.17-1.273-4.154-7.896-5.963-16.408-8.1-24.99-.7-2.813-1.416-5.61-2.419-8.331-.936-2.536-3.017-5.97-2.625-8.745" fill="#111"/><path d="M82.655 245.58c.082.322.26.528.47.674a1.225 1.225 0 0 0-.153.898c.497 2.437 1.415 4.74 2.653 6.896.805 1.403 2.976.135 2.169-1.273a20.895 20.895 0 0 1-2.4-6.296 1.07 1.07 0 0 0-.43-.677c.137-.246.204-.542.115-.893-.445-1.752-.17-3.584-.638-5.342-.417-1.562-2.842-.895-2.423.672.465 1.746.19 3.582.637 5.342M94.971 296.5c-3.21-1.327-6.3-3.37-7.745-6.64-.653-1.474-2.818-.193-2.169 1.275 1.715 3.878 5.471 6.228 9.25 7.79 1.493.618 2.141-1.815.664-2.425m3.155 7.222c-3.486-1.096-7.633-2.982-10.04-5.809-1.564-1.836-3.002-4.299-5.73-3.907-1.596.23-.913 2.651.672 2.423.997-.144 2.508 2.32 3.057 2.988.783.953 1.561 1.733 2.577 2.427 2.67 1.823 5.714 3.334 8.8 4.304 1.546.486 2.204-1.942.664-2.426" fill="#111"/><path d="M87.16 109.45c-1.882-.399-2.687 2.492-.796 2.892a31.6 31.6 0 0 1 4.822 1.413c1.221.471 4.187 1.513 4.301 3.114.137 1.915 3.138 1.93 3 0-.345-4.855-7.461-6.603-11.326-7.42" fill="#000"/><path d="M231.117 318.356c-1.02-1.408-1.974-2.862-2.813-4.402-.15 1.627-.302 3.253-.343 4.886 1.122.056 2.302.133 3.06-.439.033-.024.064-.025.096-.045m35.14-108.506a68.023 68.023 0 0 1 2.177 8.505c-.424-2.947-1.088-5.867-2.177-8.505m-38.956 111.409c-.03.047-.074.083-.109.126.947.432 2.071.517 3.25-.021.133-.061.268-.126.402-.188-1.137.21-2.355-.031-3.543.083" fill="#3d3b39"/><path d="M233.236 290.937c7.629-6.776 10.55-18.994 10.838-28.835.25-8.574-.398-18.785-3.397-26.84-.566-1.52 1.864-2.176 2.424-.672 1.555 4.176 2.539 8.99 3.09 13.911.029-2.902.098-5.808.304-8.73.278-3.933.572-8.364 4.178-10.659 1.372-.872 2.634 1.303 1.273 2.17-3.85 2.448-3.114 10.394-3.335 14.404-.34 6.147.167 12.31.24 18.457.018 1.426-1.922 1.595-2.403.516-.054.665-.094 1.347-.163 1.991-.985 9.145-4.198 19.782-11.27 26.061-1.205 1.073-2.991-.698-1.78-1.774m-.108-185.378c4.788-.008 9.329 8.021 9.342 16.52.015 8.5-4.5 16.544-9.288 16.551-4.514.008-7.93-7.095-7.946-16.522s3.377-16.542 7.892-16.549m-32.45 208.943c1.409 2.987 5.66 3.147 8.48 3.922 1.65.453 3.194 1.196 4.83 1.674 2.864.837 5.146.037 7.906-.49.014-1.503.017-3.005.015-4.507-.002-1.62 2.512-1.622 2.514-.004 0 .82-.005 1.638-.007 2.456a2.9 2.9 0 0 1 .809-.467c.173-2.324.405-4.642.814-6.945.254-1.43 2.472-1.044 2.469.33 0 .248-.025.494-.032.741.119-.037.224-.099.366-.096.902.017 1.3.073 2.195.244 1.335.255 1.063 1.986.01 2.362.927 1.548 1.959 3.021 3.027 4.47 5.169-2.586 9.497-5.668 13.639-9.995 4.317-4.51 7.62-9.837 10.502-15.345a266.483 266.483 0 0 0 3.083-6.029l.006-.047.148-.266c1.945-3.995 3.689-8.127 4.663-12.347 1.242-5.379 1.47-10.933 1.706-16.45-2.758 9.142-7.094 18.35-12.592 26.582-.112.446-.221.893-.335 1.337-.166.65-.678.911-1.193.89-3.521 4.96-7.466 9.516-11.757 13.407-1.196 1.085-2.982-.686-1.781-1.775 4.907-4.449 9.156-9.623 12.825-15.223 1.88-7.367 3.72-14.845 4.15-22.446.428-7.558-.735-15.088 0-22.644.157-1.598 2.67-1.609 2.515 0-.807 8.29.593 16.58-.171 24.867-.325 3.531-.925 7.024-1.64 10.496 2.705-3.562 3.422-8.009 4.29-12.323 1.032-5.126 2.869-10.237 2.864-15.497-.001-1.62 2.512-1.617 2.514 0 0 .34-.028.675-.041 1.012.392-5.447-.02-11.08-.25-16.332-.392-8.937-2.01-17.483-5.722-25.649-.225-.496-.113-.96.143-1.314-2.332-.83-4.673-1.646-6.986-2.505-13.815-5.137-22.958-14.904-30.608-27.234-.015-.023-.013-.045-.026-.069-.59-.04-1.133-.428-1.091-1.192.073-1.306.272-2.705.58-4.155l-.001-.05.047-.168c2.398-10.85 11.143-24.46 22.584-24.265.096.001.168.037.253.056 3.693-7.577 4.73-18.892 3.033-26.399-1.936-8.565-7.752-19.52-16.253-23.239-.206.071-.401.147-.61.217-1.326.443-1.99-1.293-1.176-2.109.115-.673.666-1.242 1.487-.945.12.044.234.102.353.148 3.437-1.24 6.46-2.627 9.856-3.418-6.53-2.155-14.401-2.284-20.587-.259a1.1 1.1 0 0 1-.802-.035c-.938.09-1.93-.834-1.25-1.809 2.607-3.74 6.06-6.499 9.853-8.968 1.955-1.273 3.973-2.295 6.004-3.266l-.02-.052c-12.147 3.247-25.477 9.265-30.624 19.865-.282.582-.796.724-1.27.598-.185.303-.377.6-.548.928-.626.846.292 1.728 1.139 1.654a.838.838 0 0 0 .992.351c.68 2.318 1.633 4.62 2.692 6.832-.62.793-.858 1.933-.31 3.204.66 1.534 1.45 3.003 2.162 4.516.142.301.33.546.544.755-.146.451-.264.917-.347 1.402-.13.76.012 1.443.306 2.021-.73 5.738.955 12.152.987 17.768 0 .236.062.425.12.616a177.7 177.7 0 0 0-.212 3.024c-.03.465.13.81.356 1.093.082 2.16.305 4.293.64 6.445-.816.393-1.401 1.162-1.3 2.328.148 1.671.459 3.252.865 4.815a2.229 2.229 0 0 0-.73 1.15c-.437 1.567-.475 3.077-.56 4.573a1.762 1.762 0 0 0-.858.797c-1.524 2.872-4.37 7.586-4.13 10.966.082 1.147.982 2.375 2.274 2.268.176-.015.324-.06.483-.093.203.25.47.453.859.53l.297.056c.199.36.459.697.848.95 1.106.718 2.092 1.198 3.017 1.643-.094.828.106 1.688.75 2.38 2.489 2.668 4.894 5.408 7.302 8.144.063.357.209.721.473 1.077.649.877 1.29 1.763 1.924 2.655-.373.743-.426 1.668.092 2.65 2.37 4.475 4.778 8.906 7.298 13.28-.755.585-1.255 1.52-1.025 2.71a59.13 59.13 0 0 0 1.016 4.998 2.625 2.625 0 0 0-.064 1.367c.193.94.456 1.862.674 2.796.627 3.486 1.538 6.965 2.594 10.368-.75.59-1.232 1.524-.96 2.602.424 1.674 1.012 3.42 1.617 5.2-.017.107-.061.192-.06.311.002 1.002-.017 1.995-.037 2.984-.15.29-.266.612-.31.983-.508 4.347-.885 8.795-1.717 13.088-.177.912.035 1.694.46 2.303-2.078 14.706-6.45 29.74-10.918 43.198-.253.76-.071 1.49.317 2.103-4.511 5-9.032 9.62-15.954 11.427-1.074.28-1.757.88-2.143 1.603a14.196 14.196 0 0 1-1.694-.985c-1.638-1.113-3.638.535-3.537 2.237.242.086.46.268.609.583" fill="#3d3b39"/><path d="M267.944 183.916c-4.673-4.774-9.948-7.828-14.142-13.181-3.627-4.63-7.275-11.384-13.923-11.233-1.622.037-1.62-2.478-.004-2.514 5.445-.124 8.828 3.184 12.049 7.228 2.68 3.366 5.067 7.05 8.189 10.034 3.019 2.887 6.673 4.888 9.606 7.885 1.133 1.157-.641 2.939-1.775 1.78m20.087 17.697c-2.116-2.674-3.902-5.652-5.802-8.482-3.57-5.321-6.735-10.914-10.416-16.161-4.492-6.404-9.79-10.74-15.715-15.697-4.67-3.906-7.243-8.422-10.234-13.508-.711-.184-1.282-.912-.841-1.705-1.631.128-3.197.592-4.686 1.315a23.88 23.88 0 0 0-3.262 2.079c-6.553 5.2-11.006 15.209-11.577 22.104.27.072.527.229.716.533 7.818 12.6 16.914 21.78 31.099 26.792 6.35 2.245 12.71 4.495 19.1 6.626 5.603 1.868 11.987 4.24 17.896 2.686-1.657-2.547-4.39-4.196-6.278-6.582" fill="#ffb917"/><path d="M260.113 174.25c-3.122-2.984-5.508-6.668-8.188-10.034-3.222-4.044-6.605-7.352-12.05-7.228-1.616.036-1.617 2.55.004 2.514 6.648-.151 10.296 6.603 13.923 11.233 4.194 5.353 9.469 8.407 14.142 13.18 1.134 1.159 2.908-.623 1.775-1.78-2.933-2.997-6.586-4.998-9.606-7.885m-25.097 118.462c7.07-6.28 10.284-16.916 11.269-26.062.069-.643.109-1.326.163-1.991.48 1.079 2.42.91 2.404-.515-.074-6.15-.58-12.31-.241-18.457.22-4.01-.515-11.956 3.335-14.406 1.36-.866.098-3.041-1.273-2.17-3.606 2.296-3.9 6.728-4.178 10.66-.207 2.922-.275 5.829-.303 8.73-.552-4.921-1.536-9.734-3.091-13.91-.561-1.504-2.99-.85-2.424.672 2.999 8.054 3.647 18.265 3.397 26.84-.288 9.84-3.21 22.058-10.838 28.835-1.212 1.076.574 2.846 1.78 1.774" fill="#111"/><path d="M276.413 205.507c-6.39-2.13-12.75-4.38-19.1-6.625-14.186-5.013-23.282-14.193-31.1-26.793a1.176 1.176 0 0 0-.716-.533c.571-6.895 5.024-16.903 11.577-22.104a17.734 17.734 0 0 1 3.262-2.079c1.49-.722 3.056-1.187 4.686-1.315-.44.793.13 1.521.841 1.705 2.991 5.086 5.565 9.602 10.235 13.51 5.925 4.956 11.222 9.292 15.714 15.695 3.681 5.247 6.846 10.84 10.416 16.161 1.9 2.831 3.686 5.808 5.802 8.482 1.888 2.386 4.621 4.036 6.28 6.583-5.91 1.554-12.294-.818-17.897-2.687M227.96 318.84c.041-1.634.194-3.26.344-4.887.838 1.54 1.793 2.994 2.812 4.403-.032.02-.063.02-.096.045-.757.572-1.938.495-3.06.44m26.661 13.492c.002.02.014.034.017.054-1.542-.802-3.365-1.327-5.167-1.54 2.51-.86 4.883-.863 5.15 1.486m42.17-124.158c.107-.297.096-.644-.12-1.001-1.308-2.166-3.132-3.321-4.91-5.091-2.72-2.706-4.694-6.245-6.814-9.417-3.742-5.598-7.112-11.448-10.967-16.97-3.408-4.882-7.225-9.222-11.896-12.937-3.037-2.417-6.146-4.62-8.65-7.614-2.29-2.74-3.82-5.897-5.596-8.968 2.434-4.358 3.201-9.637 4.113-14.477 1.087-5.767 1.015-11.633-.636-17.289-2.352-8.06-7.445-17.23-14.986-21.717 3.696-1.47 7.12-2.926 11.532-3.04 1.2-.032 1.77-1.738.631-2.344-6.759-3.598-16.028-4.657-23.76-2.988 5.996-6.509 14.542-8.944 22.085-13.279 1.313-.754.366-2.516-.972-2.296-14.36 2.37-35.394 8.883-42.364 23.238-.423.871.193 1.674.905 1.863.472.125.986-.017 1.268-.598 5.148-10.6 18.477-16.619 30.624-19.866.1-.026.2-.056.298-.082-.094.044-.185.09-.278.135-2.03.971-4.049 1.992-6.004 3.265-3.792 2.47-7.245 5.228-9.852 8.97-.679.974.311 1.898 1.25 1.808a1.1 1.1 0 0 0 .801.034c6.187-2.025 14.06-1.896 20.587.26-3.396.791-6.419 2.177-9.855 3.418-.12-.045-.234-.103-.354-.147-.82-.298-1.372.271-1.486.943-.815.818-.15 2.553 1.176 2.11.208-.07.404-.146.61-.217 8.5 3.718 14.316 14.675 16.253 23.239 1.697 7.507.66 18.822-3.033 26.398-.085-.017-.158-.053-.253-.054-11.442-.197-20.187 13.414-22.584 24.264-.017.074-.03.146-.045.219a27.19 27.19 0 0 0-.58 4.155c-.043.764.5 1.152 1.09 1.192.012.024.01.046.025.069 7.65 12.33 16.793 22.097 30.608 27.233 2.313.86 4.655 1.676 6.987 2.506-.256.353-.369.818-.144 1.313 3.712 8.166 5.33 16.713 5.723 25.65.23 5.252.641 10.884.25 16.332.012-.337.041-.673.041-1.012-.002-1.617-2.516-1.62-2.515 0 .005 5.26-1.832 10.37-2.863 15.497-.868 4.314-1.586 8.76-4.29 12.322.715-3.471 1.314-6.965 1.64-10.495.763-8.287-.636-16.578.17-24.867.157-1.61-2.358-1.6-2.514 0-.736 7.556.427 15.086 0 22.644-.43 7.6-2.27 15.079-4.15 22.446-3.67 5.599-7.919 10.773-12.826 15.222-1.2 1.089.585 2.86 1.781 1.776 4.291-3.892 8.237-8.448 11.757-13.408.515.022 1.027-.24 1.193-.89.114-.444.223-.892.335-1.337 5.498-8.232 9.834-17.44 12.592-26.582-.236 5.517-.464 11.07-1.706 16.45-.973 4.22-2.718 8.353-4.663 12.348-.05.104-.103.208-.154.312a266.573 266.573 0 0 1-3.083 6.03c-2.88 5.508-6.185 10.834-10.502 15.344-4.142 4.328-8.47 7.41-13.639 9.995-1.068-1.45-2.099-2.921-3.027-4.47 1.054-.375 1.325-2.107-.01-2.361-.894-.171-1.293-.227-2.194-.245-.143-.003-.247.06-.366.097.006-.248.031-.494.032-.742.003-1.374-2.216-1.76-2.47-.33-.409 2.303-.64 4.621-.813 6.945-.338.132-.595.29-.81.467.002-.818.008-1.638.007-2.456-.002-1.618-2.516-1.616-2.514.004.002 1.502 0 3.004-.015 4.507-2.759.527-5.042 1.327-7.905.49-1.637-.479-3.179-1.22-4.83-1.674-2.82-.774-7.072-.935-8.479-3.921-.149-.315-.368-.497-.61-.583-.883-.315-2.098.711-1.559 1.855 1.554 3.298 5.627 4.017 8.827 4.794 2.518.613 4.987 1.97 7.527 2.401 2.44.413 4.651-.27 6.984-.78-.073 3.817-.234 7.631-.629 11.427-.132.023-.255.04-.393.066-.476.09-.789.537-.878 1.017-.503.458-.556 1.19-.073 1.794 1.403 1.757-1.784 10.243-3.825 10.725-1.573.388-.903 2.794.672 2.423 2.265-.559.872-.414 2.71-.01 1.576.346 2.246-2.078.664-2.426l.061-.005a.926.926 0 0 0-.203-.259c1.856-2.765 2.99-6.994 2.563-9.936.482-.15.87-.656.976-1.15.172-.075.328-.137.514-.218.985-.43.677-2.04-.245-2.307.425-4.214.575-8.45.628-12.686.188.062.383.088.576.068.02.1.052.194.07.294.19 1.141 1.547 1.097 2.156.377.035-.043.08-.079.11-.126 1.188-.114 2.406.128 3.543-.083.154-.029.306-.064.458-.112.348.457.96.747 1.622.448.12-.054.228-.109.348-.163.451.62.904 1.238 1.334 1.877 2.502 3.714 4.4 7.801 6.676 11.65.053.09.12.15.181.218-.039.325.048.671.332.978.278.3.513.56.79.8.097.204.19.412.284.618.11.247.21.497.32.744.3.671.954.742 1.497.492.635-.142 1.13-.677.814-1.457 0-.003-.002-.005-.003-.008-.033-.51-.16-.968-.344-1.475a1.224 1.224 0 0 0-.595-.68c-.018-.04-.033-.082-.052-.122a.994.994 0 0 0-.562-.515 1.074 1.074 0 0 0-.307-.12c.03-.03.06-.06.087-.09.172-.02.352-.074.535-.193 2.944-1.911 10.311-.271 11.8 2.987.67 1.469 2.835.189 2.167-1.274-.395-.865-1.057-1.634-1.892-2.3.488-.115.876-.487.801-1.15-.837-7.377-10.443-4.18-14.618-.378-1.88-3.352-3.593-6.808-5.742-9.997-.388-.577-.799-1.133-1.205-1.695 5.355-2.66 9.395-5.567 13.922-10.286 4.466-4.654 7.916-10.161 10.894-15.854 3.03-5.793 6.254-11.873 7.911-18.228 1.876-7.196 1.82-14.781 2.222-22.153.047-.857-.636-1.244-1.302-1.191 1.656-7.854.892-16.721.406-24.595a77.028 77.028 0 0 0-1.189-9.595 67.979 67.979 0 0 0-2.177-8.505 65.689 65.689 0 0 0-2.249-5.9c1.274.448 2.552.882 3.83 1.322.826.284 1.65.573 2.477.854a487.9 487.9 0 0 0 7.642 2.534c5.853 1.883 12.261 3.828 18.281 1.617.975-.358 1.036-1.491.552-2.103" fill="#111"/><path d="M233.177 136.301c1.212-.002 2.665-1.146 3.918-3.04-1.784-.066-3.232-5.14-3.243-11.4-.01-5.91 1.265-10.773 2.91-11.359-1.189-1.635-2.514-2.616-3.632-2.615-2.643.005-5.58 5.844-5.566 14.217.013 8.372 2.97 14.201 5.613 14.197" fill="#fff"/><path d="M233.13 107.888c1.118-.001 2.442.979 3.631 2.615-1.644.585-2.919 5.448-2.909 11.358.01 6.26 1.46 11.335 3.243 11.4-1.253 1.895-2.706 3.039-3.918 3.04-2.644.005-5.6-5.825-5.613-14.197-.014-8.372 2.922-14.212 5.566-14.216m6.073 10.937c.901-.002 1.633 1.457 1.636 3.257.003 1.8-.725 3.262-1.625 3.264-.9 0-1.633-1.458-1.636-3.258-.003-1.801.725-3.262 1.625-3.263m-6.022 19.806c4.788-.008 9.303-8.052 9.288-16.552-.014-8.5-4.555-16.528-9.343-16.52-4.515.008-7.907 7.122-7.892 16.549.016 9.427 3.432 16.53 7.947 16.523" fill="#000"/><path d="M239.214 125.345c.9 0 1.628-1.462 1.625-3.263s-.735-3.259-1.636-3.258c-.9.001-1.628 1.462-1.625 3.263s.736 3.26 1.636 3.258" fill="#fff"/><path d="M364.454 321.853c-16.632-.585-33.257.782-49.725 3.057-3.68.508-7.366 1.03-11.027 1.663-3.356.581-7.045 2.645-10.394 2.706-3.037.055-6.107-2.114-9.052-2.804-3.042-.712-6.74-.982-9.872-1.143-7.182-.372-13.902 1.812-20.454 4.55-5.345 2.234-10.638 6.214-16.119 7.874-3.736 1.131-9.174-.646-13.099-.632-8.632.03-17.218 1.397-25.709-.82-.765-.2-1.08.963-.324 1.181 6.931 2 14.082 1.742 21.225 1.508 3.464-.115 6.904-.189 10.36.14 1.724.163 4.176.982 6.014.848 3.39-.245 6.82-3.029 9.722-4.496 8.156-4.12 17.16-8.347 26.475-8.409 3.603-.025 7.618.392 11.14 1.19 2.646.6 4.981 2.125 7.674 2.57 3.004.495 5.11-.519 7.92-1.406 3.713-1.172 7.604-1.62 11.45-2.195 11.041-1.649 22.167-2.9 33.321-3.465 2.917 5.88 10.542 8.392 16.698 8.461.728.008.922-1.155.173-1.3-5.867-1.137-11.329-2.57-15.102-7.232 6.231-.275 12.47-.345 18.708-.127 1.106.038 1.101-1.68-.003-1.719" fill="#000"/><path d="M161.051 16.229c-7.726-2.38-14.053 2.76-21.692 2.822-7.755.063-15.062-4.048-22.793-4.84-8.914-.91-17.749-1.288-26.702-1.555-8.539-.256-16.784-.35-24.863-3.412C54.936 5.426 40.067-4.786 30.246 4.65c-4.819 4.632-6.803 10.024-14.597 8.541-2.937-.559-5.865-1.42-8.82-2.053-.2-.577-.739-.86-1.518-.736-.214.034-.229.275-.12.417-1.61-.286-3.23-.486-4.868-.487-.433 0-.429.655.001.671 8.026.314 17.933 7.71 24.96 1.386C31.476 6.815 33.818.59 43.88 2.555c7.853 1.535 14.912 5.922 22.426 8.531 14.718 5.113 31.497 2.34 46.78 3.16 4.581.246 8.845.81 13.207 2.244 3.622 1.19 7.175 2.681 11.007 3.058 8.115.798 15.341-4.474 23.48-2.329.64.17.9-.797.27-.99" fill="#000" mask="url(#a)" transform="translate(0 324.026)"/><path d="M188.886 364.583c-1.919-.5-4.095-.462-5.94-1.1-2.386-.824-2.156-1.483-4.135-1.366-3.618.214-6.257.82-9.908-.283-2.62-.793-5.134-1.776-7.819-2.348-.644-.137-.907.796-.27.99 5.134 1.572 10.17 4.044 15.646 3.616 4.216-.33 7.932.43 12.201 1.31.532.11.76-.68.225-.82m-7.714-7.852c-5.06-.042-9.76-1.662-14.729-2.292-2.34-.296-5.119-.429-6.957 1.3-.253.238.12.593.378.376 2.88-2.412 9.087.112 12.368.783 3.001.614 6.002 1.193 9.054.667.483-.084.352-.83-.114-.835" fill="#000"/><path d="M109.074 106.322c.012-.006.02-.015.032-.022-.052.03-.056.033-.032.022" fill="#424242"/><path d="M107.113 343.982c-2.028-3.405-1.09-7.936-.883-11.688.262-4.75.079-9.544.07-14.302-.001-1.617-2.516-1.616-2.513.005.01 5.64.08 11.258-.255 16.888-.151 2.537-.308 5.18.31 7.63-1.74-.46-3.504-.71-5.34-1.208-1.563-.425-2.226 2.001-.663 2.425.88.24 1.752.401 2.618.56a7.921 7.921 0 0 0-1.827 1.054c-.841.66-.147 2.24.892 2.145 1.26-.114 2.172-1.068 3.369-1.207.3-.035.527-.17.714-.339.007 0 .014-.003.02-.004.05.106.11.208.19.286-.03 1.04-.328 2.107-.505 3.096-.23 1.291 1.66 2.356 2.3.965.046-.1.073-.204.115-.305l.01.004.015-.069c.582-1.434.795-2.934 1.152-4.438.386-.357.55-.928.21-1.498m134.315-94.603c-.398-.746-1.175-.746-1.722-.381.52-9.763-.025-19.635-1.97-28.855-.335-1.583-2.758-.91-2.424.672 3.11 14.74 2.497 31.469-.343 46.222-1.216 6.313-3.164 12.292-5.434 18.29-2.326 6.148-4.28 12.955-10.798 15.809-1.479.647-.197 2.812 1.272 2.169 5.013-2.195 7.632-6.45 9.692-11.345 2.998-7.124 5.62-14.53 7.251-22.087a132.842 132.842 0 0 0 2.631-18.387c.921 2.818-.07 6.935-.143 9.664-.156 5.782.273 11.26-2.65 16.522-.788 1.416 1.385 2.682 2.172 1.266 3.153-5.673 2.822-11.49 2.992-17.792.098-3.643 1.28-8.384-.526-11.767m-137.56 30.398a38.32 38.32 0 0 1-5.302-10.91c-1.191-3.975-.941-8.016-1.823-12.017-.719-3.256-2.328-6.217-3.245-9.408-1.235-4.301-1.568-8.851-2.465-13.229-.324-1.583-2.747-.91-2.423.672.897 4.375 1.212 8.937 2.465 13.23 1.367 4.682 3.204 8.597 3.765 13.528.806 7.109 2.714 13.47 6.858 19.406.92 1.318 3.099.059 2.17-1.272" fill="#111"/><path d="M103.34 265.306c-.364-1.575-2.787-.904-2.423.673.697 3.023 1.732 6.275 1.542 9.406-.098 1.616 2.416 1.606 2.514-.005.203-3.347-.887-6.843-1.633-10.074m48.229 59.654c-2.406.045-5.222 1.804-7.535.813-1.472-.63-2.75 1.539-1.266 2.174 1.36.582 2.613.77 4.08.513 1.603-.281 3.077-.954 4.726-.984 1.616-.031 1.616-2.544-.005-2.515" fill="#111"/><path d="M165.683 276.609c.03 0 .03-.049 0-.049" stroke-linecap="round" stroke-linejoin="round"/><path d="M168.984 361.784c-3.695-2.263-6.755-5.27-9.816-8.301-1.425-1.411-3.623.793-2.198 2.205 3.248 3.218 6.528 6.386 10.447 8.787 1.713 1.049 3.274-1.645 1.567-2.691" fill="#111"/><path d="M198.466 104.63c.632-1.072-.418-2.943-1.857-2.433-.28.1-.523.262-.759.43-.818-.183-1.609.05-2.113.988-.147.271-.083.535.044.766-.656 1.19-.01 2.478 1.096 3.195.58.762 1.504 1.201 2.566.827.446-.156.72-.473.91-.828.924-.71.78-1.898.113-2.946" fill="#fff"/><g fill="#000"><path d="M78.939 349.268c-12.302 1.76-23.896.974-36.04.002 8.793-.926 17.764-3.26 25.888-3.632 6.076-.277 11.87.9 17.556 2.61-2.47.326-4.938.667-7.404 1.02m70.829 2.1c-19.525-6.967-39.657-6.079-59.744-3.59-4.565-1.553-9.191-2.882-14.094-3.34-18.602-1.734-38.885 9.72-56.42-.01-.458-.255-.843.418-.406.7 2.42 1.56 4.963 2.632 7.589 3.345-7.817.138-15.53 1.354-22.69 4.934-.285.142-.083.638.222.523 23.649-8.955 47.546.877 71.802-2.483 4.72-.655 9.44-1.346 14.17-1.966 3.359 1.135 6.692 2.383 10.034 3.558 10.617 3.731 22.4 1.211 32.528 6.09.838.405 1.565-.793.737-1.262-8.99-5.099-19.326-2.514-28.953-5.192-3.7-1.029-7.296-2.345-10.895-3.63 6.199-.754 12.415-1.332 18.665-1.464 12.733-.27 24.824 1.872 37.027 5.35 1.015.288 1.399-1.218.428-1.563m219.557-14.263c-12.81 4.013-28.19-1.28-41.142-2.462-16.757-1.529-30.68 7.237-46.886 8.868-7.423.747-14.936.14-22.439-.608 2.903-1.948 5.797-3.899 8.994-5.358 9.104-4.155 19.976-1.756 29.644-3.138 4.896-.699 9.523-2.346 14.354-3.33 6.216-1.269 12.207-1.16 18.48-.574.163.015.204-.267.038-.29-10.31-1.508-19.362-.05-29.459 1.826-9.98 1.853-20.65-.36-30.382 2.51-5.413 1.595-9.934 5.037-14.669 8.05-4.905-.499-9.8-.988-14.656-1.127-8.424-.24-22.33-.486-27.278 7.977-.06.102.07.257.175.176 10.093-7.762 23.194-6.589 35.217-5.598 1.196.1 2.401.216 3.61.34a41.23 41.23 0 0 1-1.98 1.051c-9.155 4.507-19.576 6.45-29.51 8.446-.917.183-.516 1.545.386 1.39 9.05-1.555 18.353-3.078 26.908-6.54 2.64-1.067 5.055-2.489 7.407-4.009 9.627 1.056 19.526 2.308 28.972.55 7.573-1.41 14.742-4.33 22.136-6.399 8.293-2.32 16.416-2.734 24.93-1.646 11.49 1.468 26.403 6.035 37.577 1.438.924-.38.582-1.858-.427-1.543M148.316 367.62c-9.752-.508-19.781-1.658-29.513-.407-8.953 1.15-17.243 5.494-26.277 6.06-19.73 1.238-38.451-8.374-58.176-2.595-.808.236-.47 1.44.349 1.255 11.206-2.53 21.758-1.445 32.955.546 8.755 1.556 17.927 3.797 26.87 2.856 7.83-.824 15.04-4.291 22.78-5.567 10.273-1.693 20.69.136 31.015-.211 1.25-.042 1.239-1.872-.003-1.936m45.76 6.821c-7.422-3.817-16.018-5.017-24.183-6.185-.383-.054-.553.529-.162.591 8.256 1.328 16.178 3.486 23.995 6.425.482.182.804-.597.35-.831"/><path d="M167.16 9.765c-10.446 8.928-24.795 4.549-37.096 3.276-7.365-.761-13.724 1.967-20.955 2.33-7.54.38-14.215-3.367-21.457-4.682a33.027 33.027 0 0 0-2.465-.35c3.85-.13 7.672-.698 11.47-2.128 3.437-1.294 6.635-3.175 10.098-4.397 5.167-1.823 10.143-1.195 15.442-.17 8.85 1.715 17.424 3.938 26.502 3.865 1.288-.01 1.277-1.944-.003-1.995-9.964-.393-19.34-2.942-29.11-4.592-7.192-1.214-12.463.184-18.995 3.094C90.41 8.55 81.245 8.193 70.377 7.226c-10.386-.924-21.282-.854-31.682-.147-1.13.077-1.13 1.685.003 1.758 10.177.662 20.41-.234 30.579.598 3.279.268 6.535.61 9.77.8-10.498.624-20.593 5.063-31.087 6.33-8.024.968-16.213-.262-24.304.268-7.774.51-15.395 1.739-23.024 3.28-.623.126-.492 1.198.154 1.125 8.746-.99 17.519-2.244 26.328-2.458 7.762-.19 15.493 1.255 23.213.102 7.487-1.117 14.634-3.766 22.069-5.124 8.858-1.616 16.205-.061 24.66 2.463 6.243 1.863 11.925 2.255 18.293.92 7.903-1.655 14.43-1.481 22.374-.423 10.176 1.357 23.107 2.968 30.458-5.935.59-.715-.31-1.626-1.021-1.018" mask="url(#b)" transform="translate(214 344.026)"/><path d="M166.016 366.702c-.763.002-.763 1.187.002 1.186.762-.001.762-1.187-.002-1.186m48.992-26.427c-3.1-.056-6.954-.284-8.698 1.388-.27.258-.403.534-.524.811-.883.371-1.716.778-2.472 1.226-1.11.661-2.645 1.933-2.246 2.9.234.572 1.551.628 2.288.312l.01-.005a1.02 1.02 0 0 0 .368-.244c.204-.138.523-.319.92-.527-.459 1.483 3.522 2.238 4.788.606.822-1.06.847-2.124.985-3.23 1.59-.489 3.308-.865 5.127-1.146 2.228-.346 1.753-2.05-.546-2.09m-3.601 12.856c-1.873.867-3.598 2.037-5.255 3.265-1.22.903-2.824 1.846-3.506 3.235-.01.021.008.053.034.044 1.538-.506 2.795-1.838 4.1-2.773 1.605-1.15 3.257-2.23 4.837-3.414.213-.159.035-.47-.21-.357m-62.385-247.728c.03 0 .03-.047 0-.047s-.03.047 0 .047m13.868 24.38c.03 0 .03-.047 0-.047s-.03.047 0 .047m.09-.064c.065 0 .065-.1 0-.1s-.063.1 0 .1"/></g><path d="M111.034 147.961c-2.225 4.694-1.613 9.813.472 14.427 1.122 1.961 2.347 3.864 3.54 5.79.364.465.737.921 1.123 1.36-1.89-7.372-3.645-14.464-4.887-21.56-.082-.004-.172-.018-.249-.017m102.843 187.745c6.69-1.225 11.64-8.424 15.217-16.351a82.663 82.663 0 0 0 1.565-4.547c.476-.956.934-1.92 1.382-2.887 1.478-4.212 2.596-8.168 3.407-11.063 1.741-6.21 3.174-12.633 4.357-19.133l-.036-.076c-1.878 8.678-5.259 17.005-8.839 25.116-2.855 6.464-6.829 12.79-10.869 18.605-1.779 2.56-6.382 10.154-11.1 14.056 1.513 1.403 3.886 1.827 5.553-.087.203-.235.405-.486.608-.725-.138.03-.272.067-.413.093-1.96.358-2.8-2.641-.832-3.001m-97.264-24.324c.524.85 1.176 1.366 1.864 1.626-1.218-1.64-2.51-3.228-3.81-4.811a376.695 376.695 0 0 0 1.946 3.185M144.926 87.93c7.984-.014 13.303 16.715 13.313 23.5.011 6.784-5.25 23.531-13.236 23.544-7.94.014-13.307-19.45-13.313-23.5-.007-4.049 5.294-23.532 13.236-23.545m-12.625-6.09c5.177-4.823 10.996-.889 16.643.7 1.86.522 1.064 3.415-.797 2.892-4.229-1.19-9.775-5.15-13.725-1.47-1.412 1.315-3.537-.803-2.12-2.122m58.175 6.09c7.984-.013 13.303 16.716 13.314 23.501.011 6.784-5.252 23.531-13.236 23.544-7.942.014-13.308-19.45-13.315-23.5-.006-4.049 5.295-23.532 13.237-23.545m-3.483-9.492c6.11-3.054 11.854-2.006 16.643 2.846 1.358 1.375-.763 3.497-2.12 2.121-3.836-3.885-8.096-4.832-13.008-2.377-1.724.862-3.24-1.727-1.515-2.59m-67.817 92.456c.021.038.06.065.078.105.991-.354 2.018.34 2.077 1.411.043.782-.03 1.556-.022 2.337.002.19.02.384.027.58a3.37 3.37 0 0 0 .82-.363c1.06-.538 2.3.117 2.342 1.34.027.754-.224 3.08.23 3.86-.01-.146.424-.059.792-.123.84-.147 1.668-.404 2.492-.615.08-.02.144-.003.22-.012.422-3.05 1.027-6.15 1.791-9.41.07-.305.216-.52.387-.695-.002-.53.234-1.066.697-1.369.001-.01.004-.024.004-.033.016.001.036-.003.052-.003.207-.122.452-.203.745-.214.177-.006.35-.028.524-.042l.134-.053c.017.014.04.023.055.038 5.622-.554 10.3-5.152 14.642-10.249 1.59-1.956 3.23-3.96 4.93-5.93 1.116-1.32 2.226-2.579 3.34-3.706l.1-.107a.088.088 0 0 0 .014-.005c.926-.929 1.857-1.77 2.798-2.475 4.324-3.239 15.461-9.697 20.895-6.13.504.33.69.805.69 1.28 4.702 3.225 8.821 7.083 13.083 10.904 3.63 3.255 7.625 6.12 11.283 9.352.105.042.208.093.314.132.014.061.028.123.04.185a52.983 52.983 0 0 1 2.341 2.206 19.8 19.8 0 0 1 .182-1.03 2.446 2.446 0 0 1-.02-.228c.035-.025.05-.06.078-.089a15.427 15.427 0 0 1 1.283-3.688 1.275 1.275 0 0 1-.012-1.022c.585-1.51 1.233-2.912 1.884-4.273l.05-.184c.036-.045.068-.093.104-.138 1.9-3.955 3.775-7.604 4.115-12.565.44-6.426-.594-12.929-.24-19.389.28-5.093.905-10.19.837-15.294-.019-.074-.027-.15-.046-.223a7.123 7.123 0 0 0-.244-1.4c.055-.507.105-1.017.145-1.526-.225-2.772-.79-5.51-1.502-8.223l-.028-.026-.033-.217c-.826-3.115-1.828-6.199-2.707-9.263-.83-2.9-1.702-5.924-3.16-8.589-3.738-6.826-6.823-7.407-14.382-9.912-1.7-.563-2.604-.604-4.247-1.326-1.553-2.073-3.695-3.379-6.425-3.919a22.392 22.392 0 0 1-3.295-.166c-.77-.182-1.564-.36-2.27-.745-3.015-1.643-4.672-5.365-6.758-8.262-.288.738-.616 1.46-1.053 2.2-.73 1.236-2.373.833-2.845-.367-1.482-3.765-3.792-6.987-5.667-10.487-.035-.01-.068-.029-.104-.037-.08-.193-.152-.39-.23-.585a32.358 32.358 0 0 1-.816-1.699c-1.963-4.43-1.887-8.694-2.328-13.434-.595-6.4-2.318-13.492-5.977-19.072 2.191 9.331 3.651 23.725-3.684 24.583-.63.074-1.386-.537-1.503-1.14-.584-3.027-1.74-5.788-2.853-8.554-.022 0-.043-.008-.065-.008l-.022-.208a76.499 76.499 0 0 1-1.1-2.88c-.04 0-.078.01-.117.014-.986 5.746-.537 11.155.97 17.46 1.266 5.297.38 10.01.774 15.314.114 1.53-1.668 1.874-2.585 1.073-.535-.075-1.037-.387-1.25-1.042-2.04-6.248-12.127-10.28-17.089-15.977.524 4.8 1.567 9.53 3.707 13.846 2.425 4.893 5.856 9.152 8.075 14.17.077.174.096.342.113.508 3.24.952 6.242 2.38 8.603 5 1.337 1.485-.855 3.696-2.199 2.205-4.224-4.695-10.676-4.892-16.482-6.207 2.254 2.087 4.588 4.112 6.64 6.395.043.018.081.044.126.061.02.061.057.121.082.182.4.454.81.9 1.182 1.377.52.252.915.755.95 1.365.248.688-.087 1.317-.665 1.646-3.734 6.55-10.224 10.515-13.263 17.78-2.816 6.73-4.67 14.144-5.907 21.324-3.239 18.773.951 35.357 5.587 53.433.13.51.013.936-.229 1.262" fill="#3d3b39"/><path d="M203.43 323.58c.523-1.864 1.143-3.695 1.794-5.515-.739.184-1.575-.096-1.805-1.05-1.918-7.994-2.927-16.094-3.613-24.278-.54-6.445-1.674-13.394.039-19.735.522-1.935 3.525-1.113 3.003.823-1.624 6.014-.442 12.804.07 18.907.641 7.612 1.596 15.146 3.319 22.587 2.558-6.673 5.561-13.2 7.473-20.162 3.149-11.465 5.301-23.155 6.292-35.004.165-1.985 3.28-2.002 3.113-.006-.935 11.184-2.847 22.233-5.669 33.097-2.801 10.78-8.039 20.568-11.013 31.159-.541 1.929-3.545 1.11-3.003-.822m-17.779-1.106c-1.116 1.654-3.813.099-2.692-1.567 11.285-16.755 10.703-37.742 14.278-56.952-.317-.532-.337-1.208.266-1.754l.008.26c.757-1.817 3.403-1.188 3.003.824-3.955 19.885-3.116 41.748-14.863 59.189m-3.287 6.01c-11.228-5.897-17.731-18.808-21.663-30.361-2.371-6.97-3.614-14.357-4.533-21.65-.576-4.573-1.255-9.842 1.403-13.891 1.096-1.67 3.793-.112 2.691 1.567-2.889 4.4-1.169 11.196-.424 16.028.892 5.79 1.974 11.556 3.863 17.114 3.657 10.747 9.774 23.012 20.229 28.504 1.776.932.206 3.62-1.566 2.69m-6.52 17.806c-.281-.34-.678-.765-.752-.854-1.278-1.526.91-3.742 2.197-2.205.937 1.118 2.465 2.698 1.837 4.303-.497 1.274-2.032 1.525-2.843.376-.193-.271-.472-.512-.02-.141-.541-.444-.606-.997-.419-1.48m1.072 14.975c-.277.11-.593.152-.968.023-2.18-.753-4.147-1.828-5.752-3.504a1.424 1.424 0 0 1-.355-1.45c-.55.51-1.371.65-1.982-.103-4.756-5.858-6.504-12.703-8.417-19.873-2.307-8.643-5.051-16.944-5.345-25.952-.042-1.314 1.275-1.761 2.21-1.355-1.482-4.201-2.797-8.481-4.09-12.766-3.25-10.764-6.113-22.27-2.584-33.318.608-1.904 3.613-1.09 3.002.823-3.635 11.383-.039 23.184 3.357 34.172 3.586 11.598 7.393 22.97 14.885 32.693 1.224 1.587-1.478 3.14-2.685 1.575-4.818-6.252-8.168-13.211-10.895-20.463.46 7.489 2.595 14.35 4.567 21.58 1.969 7.225 3.345 14.709 8.192 20.68.396.488.425 1.034.27 1.517.553-.503 1.4-.661 2.068.035 1.232 1.288 2.698 2.126 4.376 2.706.354.122.586.343.761.592.92-.476 2.328-.06 2.33 1.293l.001.389c.003 1.732-2.309 1.962-2.946.706M148.52 333.99c-10.776-5.4-15.266-24.327-18.266-34.71-2.575-8.914-5.265-21.298 1.113-29.186 1.261-1.56 3.454.653 2.206 2.198-5.766 7.129-2.301 19.613.089 27.502 2.84 9.37 6.879 26.72 16.424 31.505 1.793.899.22 3.586-1.566 2.69m-36.623-66.24c-2.319-6.906-4.562-13.683-4.76-21.028-.055-2.008 3.059-2.005 3.113-.005.191 7.077 2.417 13.559 4.647 20.2.64 1.907-2.366 2.723-3 .833m-3.336 5.436c-13.597-19.772-13.9-47.006-13.947-70.024-.001-.434.16-.755.387-1.001.024-.031.043-.063.07-.093.035-.031.073-.055.11-.083.245-.222.561-.382.986-.382.433-.001.753.16.999.387.032.024.065.044.094.07.032.035.056.074.084.11.222.246.381.56.382.986.048 22.556.205 49.092 13.52 68.454 1.139 1.657-1.557 3.216-2.685 1.576m127.112-75.523c-2.5-5.138-5.213-11.245-8.64-16.781 1.261 5.578 1.264 11.722 1.764 16.945 1.675 17.486 2.86 34.76 3.69 52.312.803 16.975-1.697 30.906-7.43 46.872-4.518 12.584-8.064 25.214-17.065 35.47-1.325 1.51-3.521-.696-2.205-2.197 9.118-10.39 12.527-23.684 17.115-36.402 5.318-14.74 7.204-28.112 6.472-43.737-.704-15.042-1.131-29.962-2.874-44.927-1.15-9.867.38-25.808-7.355-33.07-.461-.431-.531-.938-.404-1.397a26.635 26.635 0 0 0-3.221-2.385 2.751 2.751 0 0 0-.25.11c-.173-.176-.327-.37-.495-.55a21.506 21.506 0 0 0-5.315-2.203c1.755 2.215 2.965 4.448 3.761 6.75.109.109.213.22.323.328-.04.119-.07.237-.106.356 1.556 5.046 1.191 10.446.122 16.749-2.468 14.549-6.526 29.487-11.188 43.479-2.339 7.022-5.039 14.057-7.881 20.889-1.404 3.375-3.596 6.639-5.313 10.017.189-.168.355-.354.546-.52 1.507-1.306 3.72.883 2.204 2.2-1.679 1.457-3.219 3.025-4.704 4.639-.099.616-.508 1.154-1.133 1.265-2.574 2.943-4.928 6.075-7.124 9.366-1.107 1.659-3.806.105-2.69-1.567 2.042-3.06 4.199-6.012 6.544-8.804-8.408-3.362-15.014-9.077-21.535-15.437-7.454-7.273-15.006-14.247-20.063-23.48-.11-.2-.209-.411-.318-.613-.055-.045-.106-.098-.163-.137l-.2-.563c-5.075-9.642-8.616-20.532-11.325-31.016a48.037 48.037 0 0 1-1.551-11.971c-.024-.128-.045-.256-.072-.383.024-.051.045-.106.067-.16.01-1.472.078-2.94.205-4.41-1.69.49-3.766 1.063-5.129-.093-1.079-.915-1.287-2.574-1.327-4.134-1.019.162-2.01-.028-2.686-1.063-.466-.712-.566-1.578-.564-2.464a1.58 1.58 0 0 1-.432.15c-.241.229-.548.4-.982.402-.078 0-.132-.033-.205-.041-2.082 2.217-4.016 3.83-7.427 5.428-7.705 3.609-12.313 7.87-15.454 16.066-4.865 12.69-5.177 27.742-3.58 41.068 1.753 14.617 6.416 28.75 12.067 42.288 2.99 7.164 6.218 14.422 10.713 20.795 2.234 3.166 4.8 6.02 7.194 9.015-3.395-9.295-5.242-18.917-5.149-29.201.082-9.108.473-21.5 7.874-27.928 1.506-1.308 3.719.88 2.205 2.198-7.226 6.275-7.116 19.588-6.954 28.42.186 10.098 2.334 19.394 6.022 28.407.176.355.335.719.519 1.07-.01.035-.013.073-.023.108a103.9 103.9 0 0 0 3.511 7.419c.041.079.039.155.066.232.75.892 1.817 1.388 2.881 1.929.465.237.695.595.76.978 1.152.985 2.29 1.987 3.421 2.997.062.04.123.087.186.127.008.023.022.046.031.069 2.47 2.212 4.899 4.47 7.315 6.742.023.019.054.029.075.05l.128.14c4.029 3.79 8.033 7.607 12.172 11.28.332.295.459.63.477.963 1.287 1.13.536 4.653.348 6.04-.188 1.398-.149 2.968-1.005 4.167-.005.008-.012.013-.017.02.476 1.614 3.227 1.45 3.234-.501.03-.472.107-.933.178-1.395.159.229 1.848.383 1.881.182 2.136 4.119 3.842 6.139 7.181 9.445 1.688 1.67 4.717-.517 3.358-2.598-.156-.241-.317-.483-.475-.723.709.724 1.467 1.422 2.361 2.044.905.63 2.165.079 2.67-.821.145.13.27.274.417.404.701.615 1.577.706 2.331.464.605 1.192 2.031 1.083 3.344.393-.54-.552-.736-1.454-.052-2.174.3-.317.573-.663.852-1.002.108-.334.332-.614.648-.798.297-.393.589-.792.875-1.197-.104.033-.194.104-.3.117-1.103.862-3.109.069-2.484-1.491.452-1.127.97-2.13 1.708-3.098.072-.092.161-.14.241-.211a19.83 19.83 0 0 1 1.7-2.906c1.153-1.62 3.854-.067 2.691 1.568-.871 1.223-1.546 2.207-2.095 3.57a.142.142 0 0 0 .008.019c.335-.447.691-.6 1.047-1.044 1.236-1.542 3.102-3.84 5.328-3.724.052-4.742.83-10.913 5.179-11.925l.003-.061c.156-.001.308-.022.46-.034a6.096 6.096 0 0 1 1.155-.057c.092.005.157.044.24.06a1.46 1.46 0 0 1 .538-.061c.907.08 1.787.02 2.664-.092.352-.265.805-.358 1.293-.202.1-.02.199-.025.298-.047.441-.092.813.004 1.12.189 4.253-1.157 13.858-16.184 15.313-18.532 7.704-12.421 14.712-26.91 17.402-41.327.277-1.481 2.026-1.37 2.723-.391.338-1.491.683-3.008 1.174-4.551l.094-.63a.77.77 0 0 0-.251-.396c.19-.577.373-1.155.549-1.736.389-2.863.725-5.728 1.008-8.586-.035-.053-.061-.114-.098-.165.098-.484.17-.982.26-1.47.336-3.653.587-7.29.746-10.886.745-16.764-.277-36.965-7.741-52.304m-45.837 157.861c.043-.213.067-.423.098-.634-.71.674-1.375 1.6-1.876 2.321.844-.189 1.591-.765 1.778-1.687" fill="#3d3b39"/><path d="M174.54 258.216c-.314-.38-.532-.736-.675-1.121-.068-.018-.127-.006-.198-.034-2.877-1.125-4.674-3.485-6.533-5.837-1.23-1.556.956-3.776 2.198-2.205 1.425 1.802 2.93 4.168 5.158 5.039.257.1.451.25.61.424.848-.104 1.752.368 1.703 1.463l-.067.066c1.268 1.533-.92 3.75-2.197 2.205m-12.32-9.244c-10.18-14.346-19.727-28.995-26.925-45.093-.812-1.815 1.87-3.401 2.685-1.576a180.381 180.381 0 0 0 3.091 6.526l-.006-.021c.281.562.572 1.123.887 1.679.265.566.553 1.129.84 1.69 6.414 12.305 14.054 23.862 22.112 35.219 1.162 1.638-1.535 3.197-2.685 1.576m41.62-84.734c-3.764-3.585-8.076-6.536-11.976-9.963-4.802-4.221-9.272-8.667-14.67-12.145-3.776 11.732-2.595 25.339-2.379 37.46.228 12.695-.194 27.21 2.963 39.774 5.204-10.296 8.59-26.851 5.187-36.948-.643-1.906 2.363-2.721 3-.832 4.102 12.176-.722 32.469-7.479 42.847-.96 1.474-3.16.44-2.924-.976-3.698-6.687-7.027-13.208-8.517-20.78-.386-1.958 2.613-2.794 3-.831.672 3.414 1.75 6.616 3.06 9.724-1.449-10.57-1.22-21.76-1.403-31.973-.222-12.465-1.42-26.358 2.532-38.431-5.329.577-13.056 5.715-15.322 7.575-3.32 2.727-5.98 6.007-8.772 9.246-4.477 5.193-9.865 11.772-17.107 12.657-.008.064.01.117-.005.183-2.653 11.34-3.076 20.578.312 31.879 2.817 9.402 5.842 19.043 10.57 27.674 4.73 8.634 11.722 15.196 18.692 21.982 6.56 6.384 13.133 12.429 21.706 15.747.995-3.335 2.935-6.27 4.603-9.33 2.296-4.21 4.037-8.72 5.704-13.245.05-.22.104-.447.148-.662.042-.018.081-.047.122-.068.692-1.886 1.377-3.773 2.086-5.64a164.16 164.16 0 0 0 1.717-4.753c.212-.776.43-1.55.662-2.315.14-.321.285-.648.43-.978 1.965-6.057 3.65-12.212 5.242-18.386a2.319 2.319 0 0 0-.03-.304c.207-.597.393-1.205.575-1.814.37-1.451.74-2.902 1.105-4.353a71.39 71.39 0 0 0 .602-3.13c.014-.083-.004-.156 0-.235.127-.145.24-.308.363-.458.037-.144.072-.288.11-.432 1.663-6.573 3.38-13.456 3.777-20.245.441-7.492-2.307-12.397-7.685-17.521" fill="#ffb917"/><path d="M142.791 212.176c-.579-1.112-1.162-2.223-1.72-3.348a180.381 180.381 0 0 1-3.092-6.526c-.816-1.825-3.497-.239-2.685 1.576 7.198 16.098 16.744 30.747 26.924 45.093 1.15 1.621 3.847.062 2.685-1.576-8.058-11.357-15.698-22.914-22.112-35.219m34.012 43.768c.05-1.095-.854-1.566-1.703-1.463a1.61 1.61 0 0 0-.61-.424c-2.229-.871-3.733-3.236-5.158-5.039-1.242-1.57-3.427.65-2.198 2.205 1.86 2.353 3.656 4.712 6.533 5.837.072.029.13.017.198.034.143.385.361.743.674 1.121 1.278 1.545 3.465-.671 2.198-2.205zm-45.435 14.149c-6.38 7.89-3.688 20.272-1.113 29.187 3 10.382 7.49 29.31 18.265 34.71 1.785.894 3.36-1.793 1.566-2.692-9.545-4.784-13.584-22.134-16.424-31.505-2.39-7.888-5.856-20.373-.09-27.502 1.248-1.545-.944-3.757-2.205-2.198m26.203-7.51c-2.656 4.049-1.978 9.318-1.401 13.892.919 7.292 2.162 14.68 4.533 21.649 3.93 11.553 10.434 24.464 21.662 30.362 1.772.93 3.343-1.758 1.566-2.69-10.455-5.492-16.572-17.757-20.228-28.504-1.89-5.558-2.972-11.323-3.863-17.114-.746-4.832-2.465-11.628.423-16.028 1.102-1.68-1.594-3.236-2.691-1.567" fill="#111"/><path d="M185.65 322.474c11.748-17.44 10.909-39.304 14.864-59.188.4-2.012-2.246-2.64-3.003-.824l-.007-.26c-.604.545-.583 1.221-.267 1.753-3.574 19.21-2.992 40.198-14.277 56.953-1.122 1.666 1.576 3.22 2.69 1.566" fill="#111"/><path d="M199.845 273.002c-1.713 6.34-.579 13.29-.039 19.735.685 8.184 1.695 16.285 3.613 24.279.23.953 1.066 1.233 1.805 1.049-.651 1.82-1.271 3.65-1.794 5.516-.542 1.932 2.462 2.75 3.003.822 2.974-10.59 8.212-20.378 11.013-31.16 2.822-10.863 4.734-21.912 5.669-33.095.167-1.997-2.948-1.98-3.113.005-.991 11.849-3.143 23.539-6.292 35.004-1.912 6.962-4.915 13.49-7.473 20.162-1.723-7.441-2.678-14.975-3.319-22.587-.512-6.103-1.694-12.893-.07-18.907.522-1.936-2.481-2.758-3.003-.823m-22.315 85.876a1.506 1.506 0 0 0-.76-.592c-1.677-.58-3.143-1.418-4.376-2.706-.668-.696-1.514-.538-2.067-.035.154-.482.126-1.03-.271-1.517-4.846-5.971-6.222-13.455-8.192-20.68-1.972-7.23-4.106-14.091-4.566-21.58 2.726 7.253 6.077 14.212 10.894 20.464 1.207 1.565 3.909.01 2.686-1.576-7.493-9.723-11.3-21.094-14.885-32.693-3.397-10.988-6.992-22.79-3.358-34.172.612-1.913-2.394-2.726-3.001-.823-3.53 11.049-.666 22.555 2.584 33.318 1.292 4.285 2.607 8.565 4.089 12.766-.934-.405-2.252.04-2.21 1.355.294 9.008 3.038 17.309 5.345 25.952 1.913 7.17 3.66 14.015 8.417 19.873.61.753 1.433.613 1.983.103-.138.469-.082.994.354 1.45 1.606 1.676 3.572 2.75 5.752 3.504.375.129.69.087.969-.023.636 1.257 2.948 1.026 2.945-.706l-.001-.39c-.002-1.352-1.41-1.768-2.33-1.292M97.344 202.17c-.028-.038-.052-.076-.084-.11-.029-.028-.062-.047-.094-.07a1.413 1.413 0 0 0-.999-.389 1.42 1.42 0 0 0-.986.383c-.037.028-.075.051-.11.083-.027.03-.046.061-.07.093a1.415 1.415 0 0 0-.387 1c.047 23.018.35 50.253 13.947 70.025 1.128 1.64 3.824.08 2.685-1.576-13.315-19.362-13.472-45.898-13.52-68.454a1.418 1.418 0 0 0-.382-.985" fill="#111"/><path d="M114.897 266.917c-2.23-6.642-4.456-13.124-4.646-20.201-.055-2-3.168-2.003-3.114.005.198 7.345 2.442 14.122 4.76 21.028.634 1.89 3.64 1.074 3-.832m61.385 80.995c.812 1.149 2.346.897 2.844-.376.628-1.605-.9-3.186-1.837-4.303-1.286-1.537-3.475.679-2.196 2.205.074.089.47.514.752.854-.188.482-.123 1.035.418 1.479-.452-.371-.172-.13.02.14" fill="#111"/><path d="M196.108 112.84c1.047-.001 2.002-.379 2.778-.992-.141 5.725-3.401 10.309-7.421 10.316-4.116.007-7.461-4.784-7.47-10.701-.01-5.917 3.319-10.719 7.434-10.726 1.286-.002 2.497.464 3.555 1.287-.471.337-.8.877-.865 1.503-1.583.784-2.681 2.471-2.677 4.43.004 2.701 2.094 4.887 4.666 4.883m-5.627-22.582c-5.382.009-10.92 16.733-10.911 21.212.007 4.479 5.6 21.184 10.98 21.176 2.454-.004 5.186-2.853 7.496-7.816 2.017-4.333 3.422-9.842 3.416-13.396-.005-3.555-1.428-9.059-3.46-13.385-2.327-4.955-5.068-7.795-7.521-7.791" fill="#fff"/><path d="M201.462 111.434c.006 3.555-1.399 9.063-3.416 13.396-2.31 4.963-5.042 7.812-7.495 7.816-5.382.009-10.975-16.696-10.982-21.176-.007-4.48 5.53-21.203 10.912-21.211 2.453-.005 5.194 2.835 7.521 7.79 2.031 4.326 3.454 9.83 3.46 13.385M190.477 87.93c-7.942.013-13.244 19.495-13.237 23.544s5.372 23.514 13.315 23.5c7.984-.012 13.247-16.76 13.235-23.544-.01-6.784-5.329-23.514-13.313-23.5" fill="#000"/><path d="M194.119 103.528a2.114 2.114 0 0 1 .865-1.504c-1.057-.822-2.268-1.288-3.554-1.287-4.116.007-7.445 4.81-7.435 10.726.01 5.917 3.354 10.708 7.47 10.7 4.02-.006 7.28-4.59 7.422-10.315-.777.613-1.732.99-2.78.992-2.571.004-4.661-2.183-4.665-4.883-.004-1.96 1.094-3.646 2.677-4.43" fill="#000"/><path d="M150.556 112.84c1.047-.001 2.002-.379 2.779-.992-.141 5.725-3.401 10.309-7.422 10.316-4.115.007-7.46-4.784-7.469-10.701-.01-5.917 3.318-10.719 7.434-10.726 1.286-.002 2.497.464 3.554 1.287a2.116 2.116 0 0 0-.865 1.503c-1.583.784-2.68 2.471-2.677 4.43.005 2.701 2.094 4.887 4.666 4.883m-5.627-22.582c-5.381.009-10.918 16.733-10.911 21.212.008 4.479 5.6 21.184 10.981 21.176 2.454-.004 5.186-2.853 7.496-7.816 2.017-4.333 3.421-9.842 3.415-13.396-.005-3.555-1.428-9.059-3.458-13.385-2.328-4.955-5.069-7.795-7.523-7.791" fill="#fff"/><path d="M155.91 111.434c.007 3.555-1.397 9.063-3.414 13.396-2.311 4.963-5.042 7.812-7.496 7.816-5.381.009-10.974-16.696-10.982-21.176-.006-4.48 5.53-21.203 10.912-21.211 2.454-.005 5.195 2.835 7.522 7.79 2.03 4.326 3.453 9.83 3.459 13.385M144.925 87.93c-7.942.013-13.243 19.495-13.236 23.544.006 4.049 5.372 23.514 13.314 23.5 7.984-.012 13.247-16.76 13.236-23.544-.012-6.784-5.33-23.514-13.315-23.5" fill="#000"/><path d="M148.567 103.528a2.118 2.118 0 0 1 .865-1.504c-1.056-.822-2.267-1.288-3.553-1.287-4.117.007-7.445 4.81-7.435 10.726.01 5.917 3.354 10.708 7.47 10.7 4.02-.006 7.28-4.59 7.422-10.315-.778.613-1.733.99-2.78.992-2.572.004-4.661-2.183-4.666-4.883-.003-1.96 1.094-3.646 2.677-4.43m-14.145-19.566c3.95-3.68 9.496.281 13.725 1.47 1.861.524 2.656-2.37.796-2.893-5.646-1.588-11.465-5.522-16.642-.699-1.416 1.32.71 3.437 2.121 2.122m52.572-5.524c-1.727.863-.209 3.452 1.515 2.59 4.912-2.455 9.172-1.508 13.006 2.377 1.36 1.376 3.48-.745 2.122-2.12-4.789-4.853-10.534-5.9-16.643-2.847" fill="#000"/><path d="M122.616 159.028a15.34 15.34 0 0 0-1.283 3.688c-.023.105-.038.212-.06.317a18.79 18.79 0 0 0-.18 1.03 52.983 52.983 0 0 0-2.341-2.206l-.355-.317c-3.657-3.232-7.653-6.097-11.283-9.352-4.262-3.82-8.381-7.679-13.083-10.904a1.474 1.474 0 0 0-.69-1.28c-5.433-3.567-16.571 2.891-20.895 6.13-.94.705-1.871 1.546-2.798 2.475l-.113.112c-1.114 1.127-2.225 2.385-3.342 3.706-1.616 1.914-3.248 3.957-4.93 5.93-4.341 5.097-9.018 9.695-14.64 10.25l-.19.014c-.174.014-.346.036-.523.042a1.556 1.556 0 0 0-.745.214c-.02.011-.037.024-.057.036-.463.303-.698.838-.696 1.37-.171.174-.317.39-.388.693-.763 3.261-1.37 6.36-1.791 9.411-.075.01-.14-.009-.22.012-.824.211-1.653.468-2.492.615-.368.064-.802-.023-.792.122-.454-.78-.203-3.105-.23-3.859-.042-1.223-1.281-1.878-2.343-1.34a3.336 3.336 0 0 1-.818.362c-.007-.195-.026-.39-.028-.579-.008-.78.066-1.555.023-2.338-.06-1.07-1.086-1.764-2.077-1.41-.02-.04-.057-.067-.078-.105.242-.326.359-.753.228-1.262-4.636-18.076-8.825-34.66-5.587-53.433 1.237-7.18 3.092-14.595 5.907-21.324 3.039-7.265 9.53-11.23 13.264-17.78.577-.329.912-.958.663-1.646-.033-.61-.43-1.113-.948-1.365-.373-.478-.782-.923-1.183-1.377-.07-.08-.136-.164-.21-.243-2.05-2.283-4.383-4.308-6.637-6.395 5.805 1.315 12.257 1.512 16.482 6.207 1.344 1.491 3.535-.72 2.198-2.205-2.36-2.62-5.362-4.048-8.602-5-.018-.166-.036-.334-.114-.508-2.218-5.018-5.65-9.277-8.075-14.17-2.14-4.316-3.182-9.047-3.707-13.846 4.962 5.697 15.05 9.73 17.089 15.977.214.655.716.967 1.25 1.042.918.801 2.699.456 2.586-1.073-.395-5.305.49-10.017-.774-15.314-1.507-6.305-1.956-11.714-.97-17.46.014-.079.02-.157.034-.236.026.074.056.148.08.222.346.968.72 1.926 1.103 2.88l.087.216c1.113 2.766 2.268 5.527 2.852 8.554.117.603.872 1.214 1.503 1.14 7.336-.858 5.876-15.252 3.685-24.583 3.659 5.58 5.38 12.672 5.976 19.072.442 4.74.365 9.003 2.328 13.434.255.577.53 1.142.817 1.7.107.21.223.414.334.621 1.875 3.5 4.184 6.722 5.667 10.487.47 1.2 2.115 1.603 2.844.367.438-.74.765-1.462 1.053-2.2 2.086 2.897 3.743 6.62 6.758 8.262.707.384 1.5.563 2.27.745a22.4 22.4 0 0 0 3.295.166c2.73.54 4.872 1.846 6.425 3.92 1.644.721 2.547.762 4.247 1.325 7.56 2.505 10.645 3.086 14.382 9.912 1.458 2.665 2.329 5.69 3.16 8.59.879 3.063 1.88 6.147 2.707 9.262.022.081.04.162.062.243.71 2.713 1.276 5.451 1.502 8.223.01.132.032.262.04.394.064.918.092 1.837.104 2.755.069 5.104-.557 10.201-.837 15.294-.353 6.46.68 12.963.24 19.39-.34 4.96-2.215 8.61-4.115 12.564-.05.107-.102.214-.154.322-.65 1.361-1.3 2.763-1.884 4.273-.155.398-.114.735.013 1.022m2.907 23.704c-.4 6.79-2.114 13.672-3.778 20.245-.037.144-.072.288-.11.432l-.964 3.823a2311.77 2311.77 0 0 1-1.104 4.353c-.18.707-.364 1.412-.546 2.118-1.592 6.175-3.276 12.33-5.242 18.387-.356 1.1-.715 2.2-1.092 3.292a167.192 167.192 0 0 1-1.717 4.753c-.71 1.868-1.394 3.754-2.086 5.64l-.27.731c-1.667 4.525-3.408 9.034-5.704 13.246-1.668 3.058-3.608 5.993-4.604 9.328-8.571-3.318-15.146-9.363-21.706-15.747-6.97-6.785-13.962-13.348-18.691-21.982-4.73-8.63-7.754-18.272-10.57-27.674-3.388-11.3-2.965-20.539-.312-31.878.015-.066-.003-.12.005-.184 7.242-.885 12.63-7.464 17.106-12.657 2.79-3.239 5.452-6.519 8.773-9.246 2.266-1.86 9.993-6.997 15.322-7.575-3.953 12.074-2.754 25.966-2.532 38.431.182 10.213-.046 21.404 1.4 31.973-1.307-3.108-2.385-6.31-3.057-9.724-.387-1.963-3.386-1.127-3 .833 1.49 7.57 4.819 14.091 8.517 20.778-.236 1.417 1.963 2.451 2.924.976 6.757-10.378 11.58-30.67 7.479-42.847-.637-1.889-3.643-1.073-3 .832 3.402 10.097.017 26.652-5.187 36.95-3.157-12.566-2.735-27.08-2.963-39.776-.217-12.12-1.397-25.728 2.379-37.46 5.398 3.478 9.868 7.924 14.67 12.145 3.899 3.427 8.212 6.378 11.975 9.963 5.378 5.124 8.126 10.03 7.685 17.521m-96.477-13.58c-1.392-1.773-2.61-3.73-3.54-5.79-2.084-4.614-2.697-9.733-.472-14.427.06-.128.106-.259.172-.386.022.134.053.268.076.402 1.242 7.097 2.998 14.19 4.888 21.56a31.026 31.026 0 0 1-1.124-1.359m122.747 26.811c-6.216-12.199-12.87-28.477-27.47-32.26.276-1.448.743-2.865 1.517-4.114.322-.52.272-1.015.049-1.42 2.145-5.134 5.34-8.745 5.84-14.555.635-7.36-.488-14.776-.1-22.162.387-7.368 1.468-14.756.32-22.115-.893-5.717-2.917-11.684-4.683-17.203-3.113-9.725-8.585-16.4-18.391-18.707-4.204-.988-6.22-3.945-10.321-4.816-4.097-.87-6.161-1.488-9.156-4.979-1.593-1.856-2.641-3.733-4.483-5.473-.87-.822-2.244-.436-2.6.692-.108.4-.26.784-.391 1.176-2.132-3.986-4.867-7.717-6.246-11.985-1.621-5.01-.934-10.522-1.95-15.674-1.505-7.643-4.653-15.947-10.838-20.992-1.355-1.106-3.264.251-2.441 1.89 3.342 6.658 3.706 14.546 2.809 21.887-.46 3.766-.021 5.021-1.502 1.213-1.65-4.236-3.724-7.767-4.032-12.47-.115-1.759-2.487-2.1-3.058-.409-2.096 6.205-3.212 12.148-2.216 18.688.535 3.515 1.749 6.87 2.238 10.392.308 2.22.147 4.373.024 6.538C48.757 42.39 34.51 36.506 37.84 28.232c.64-1.594-1.477-2.398-2.561-1.438-.91-.279-2.073.19-2.053 1.421.119 7.148.629 14.76 3.197 21.514 2.097 5.518 5.87 10.173 8.568 15.396l-.068-.015c-1.763-.358-7.407-.915-10.443-2.504-.76-.959-1.468-1.963-2.064-3.062a1.222 1.222 0 0 0-.47-.622c-.542-.496-1.295-.413-1.848-.006a1.521 1.521 0 0 0-.271.225c-.023.025-.041.052-.063.078a1.449 1.449 0 0 0-.248.416c-.016.043-.021.09-.035.133-.033.118-.086.223-.094.36-.124 2.187 1.175 3.645 2.9 4.672 3.606 4.297 8.388 7.506 11.835 12-3.811 6.47-10.255 10.541-13.305 17.824-3.188 7.616-5.223 16.182-6.412 24.327-1.381 9.462-.974 18.28.354 27.011-.667-.36-1.545-.302-2.02.552-5.115 9.22-.71 20.147 6.176 27.227-1.3 1.563-2.606 3.012-4.556 4.102-2.667 1.493-5.648 2.378-8.278 3.952-4.901 2.933-8.035 7.486-10.332 12.636C.1 207.09-.601 222.632.673 236.233c1.444 15.42 6.08 30.312 11.94 44.582 2.739 6.667 5.632 13.314 9.4 19.472 1.942 3.171 4.304 6.025 6.653 8.884 1.3 1.583 2.593 3.17 3.81 4.81 1.077 1.45 2.096 2.941 2.999 4.515.454.793 1.253.876 1.9.59.459.974.945 1.945 1.43 2.916-.003.246.037.503.179.768.819 1.53 2.125 2.413 3.572 3.195.062.076.095.156.179.227 8.238 6.952 15.78 14.663 23.825 21.832-.145.685.138 1.443.734 1.774-.091.241-.09.765-.131 1.018-.11.686-.24 1.367-.325 2.057-.081.646-.014 1.545-.288 2.15-.313.684-.301.634-1.241.438-1.954-.41-2.785 2.591-.822 3.003.034.006.068.007.104.014-.945 2.154-.833 4.625-.835 7.062-.004 5.432-.456 8.607-4.965 11.914-1.356.994-.61 3.33 1.204 2.843 1.216-.328 2.43-.676 3.655-.974a56.925 56.925 0 0 1-1.015 3.59c-.611 1.92 2.364 2.708 3.002.822 1.059-3.122 2.269-5.279 5.908-3.649 1.813.812 3.393-1.872 1.566-2.692-2.628-1.177-4.564-1.318-6.105-.676-.22-.559-.656-1.019-1.348-.93-.271.033-.522.11-.79.153.584-.82 1.09-1.705 1.382-2.77 1.069-3.925-1.013-11.238 1.698-14.335a1.5 1.5 0 0 0 .375-.98c.198-.165.404-.31.574-.54.005-.007.012-.012.018-.019.855-1.2.816-2.77 1.005-4.167.187-1.387.938-4.91-.35-6.04a1.339 1.339 0 0 0-.475-.963c-4.14-3.673-8.143-7.49-12.172-11.28-.07-.064-.136-.128-.203-.19a408.71 408.71 0 0 0-7.316-6.742l-.217-.197a216.852 216.852 0 0 0-3.421-2.997c-.065-.382-.295-.74-.76-.977-1.064-.54-2.13-1.037-2.88-1.93-.028-.077-.026-.152-.067-.23a103.657 103.657 0 0 1-3.51-7.42c-.167-.393-.335-.785-.496-1.179-3.69-9.013-5.836-18.309-6.023-28.405-.162-8.833-.271-22.147 6.954-28.422 1.515-1.317-.698-3.506-2.205-2.197-7.4 6.427-7.792 18.82-7.874 27.927-.093 10.285 1.754 19.907 5.149 29.202-2.393-2.996-4.96-5.85-7.194-9.016-4.495-6.372-7.723-13.63-10.713-20.795-5.65-13.536-10.313-27.67-12.066-42.288-1.598-13.325-1.285-28.378 3.579-41.067 3.142-8.197 7.749-12.458 15.454-16.067 3.41-1.598 5.346-3.21 7.428-5.428.072.01.127.041.205.041.433 0 .74-.172.98-.4a1.63 1.63 0 0 0 .433-.15c-.002.884.099 1.751.564 2.462.676 1.036 1.667 1.226 2.686 1.063.04 1.56.248 3.22 1.327 4.135 1.363 1.155 3.44.584 5.129.094a55.52 55.52 0 0 0-.204 4.41c-.001.18.004.361.005.541a47.99 47.99 0 0 0 1.55 11.971c2.71 10.485 6.25 21.374 11.326 31.016.122.232.238.47.362.7.109.202.208.413.318.614 5.057 9.232 12.61 16.206 20.064 23.48 6.52 6.36 13.127 12.074 21.534 15.436-2.345 2.792-4.502 5.746-6.544 8.804-1.115 1.672 1.583 3.227 2.69 1.568 2.197-3.29 4.55-6.423 7.125-9.367.625-.11 1.034-.649 1.132-1.264 1.486-1.615 3.026-3.183 4.705-4.64 1.515-1.316-.698-3.506-2.205-2.198-.191.165-.357.35-.545.518 1.716-3.378 3.909-6.64 5.312-10.016 2.843-6.832 5.542-13.867 7.882-20.89 4.662-13.992 8.72-28.93 11.187-43.478 1.07-6.304 1.435-11.704-.122-16.75-.07-.228-.138-.456-.217-.683-.795-2.302-2.005-4.536-3.76-6.75a21.464 21.464 0 0 1 5.314 2.203c.25.144.5.286.745.44a26.46 26.46 0 0 1 3.22 2.384c-.126.46-.056.966.405 1.398 7.736 7.261 6.205 23.202 7.356 33.07 1.743 14.964 2.17 29.885 2.874 44.926.73 15.626-1.155 28.998-6.473 43.737-4.588 12.718-7.997 26.013-17.114 36.403-1.317 1.5.88 3.707 2.205 2.197 9-10.257 12.547-22.887 17.064-35.47 5.734-15.967 8.234-29.897 7.43-46.873-.83-17.552-2.015-34.826-3.69-52.312-.5-5.222-.502-11.366-1.764-16.944 3.428 5.535 6.14 11.643 8.64 16.78 7.464 15.34 8.486 35.54 7.742 52.304-.16 3.598-.41 7.234-.746 10.886-.05.544-.11 1.09-.162 1.636a243.121 243.121 0 0 1-1.307 10.717c-.03.21-.063.42-.094.63a238.953 238.953 0 0 1-.895 5.653 1.535 1.535 0 0 0-.28-1.102c-.696-.977-2.445-1.09-2.721.392-2.691 14.417-9.698 28.905-17.403 41.327-1.455 2.347-11.06 17.375-15.312 18.531a1.508 1.508 0 0 0-1.12-.188c-.1.021-.198.027-.298.046-.488-.156-.941-.063-1.294.203-.877.111-1.757.172-2.663.091a1.481 1.481 0 0 0-.538.062c-.083-.017-.15-.056-.24-.06a6.19 6.19 0 0 0-1.156.056c-.16.022-.31.061-.463.096-4.348 1.011-5.127 7.182-5.178 11.925-2.227-.117-4.092 2.181-5.328 3.723-.357.444-.712.598-1.047 1.044-.011.015-.023.024-.033.04.007-.02.016-.038.025-.057.549-1.365 1.224-2.349 2.095-3.572 1.163-1.635-1.538-3.186-2.692-1.567a19.82 19.82 0 0 0-1.7 2.905c-.08.071-.17.12-.24.211-.738.97-1.256 1.972-1.708 3.1-.625 1.558 1.38 2.351 2.483 1.49.107-.014.196-.085.3-.117-.285.404-.577.803-.875 1.196a1.431 1.431 0 0 0-.647.8c-.28.338-.552.683-.853 1.001-.684.72-.487 1.622.053 2.174.549.561 1.454.758 2.15.023 1.52-1.6 2.695-3.527 4-5.298.144-.194.323-.456.53-.753.5-.72 1.166-1.646 1.876-2.32.544-.517 1.114-.887 1.658-.895l.01.34c.148 3.982.719 7.683 1.84 11.492 1.023 3.474 2.44 6.79 3.53 10.22.605 1.903 1.598 4.304 1.5 6.516-1.007 2.14-2.06 4.23-3.304 6.263-.906 1.78 1.637 3.288 2.69 1.568.624-1.229 1.446-2.347 2.213-3.479.774 3.47 1.086 6.881.703 10.626-.204 1.992 2.91 1.972 3.113-.005.466-4.558.027-8.38-1.037-12.485a30.541 30.541 0 0 1 3.904 2.864c1.194 1.123 2.262 2.181 2.934 2.734 1.523 1.251 3.624-.742 2.199-2.205a54.025 54.025 0 0 0-2.08-2.007c-2.354-2.526-4.316-5.23-7.621-5.783-.327-5.166-4.286-10.703-5.743-15.659-1.108-3.768-4.7-23.415 1.903-23.092a1.5 1.5 0 0 0 .514-.08c.09.023.164.07.266.08 1.25.111 2.484-.028 3.714-.229 1.904.491 4.023-.515 6.12-2.248 4.718-3.9 9.322-11.496 11.1-14.056 4.04-5.814 8.015-12.14 10.869-18.605 3.58-8.11 6.96-16.438 8.839-25.115.114-.526.242-1.047.344-1.575-.097.552-.208 1.1-.308 1.65-1.182 6.5-2.616 12.925-4.356 19.134-.811 2.894-1.93 6.85-3.407 11.062a92.494 92.494 0 0 1-2.947 7.435c-3.58 7.927-8.528 15.126-15.217 16.35-1.968.361-1.13 3.36.832 3.001.14-.026.275-.063.413-.092 11.083-2.387 16.693-17.97 20.159-27.288 7.108-19.11 10.344-41.025 11.247-61.367.785-17.68-.576-38.957-8.735-54.97" fill="#111" mask="url(#c)" transform="translate(86 -.974)"/></g></svg>