<svg height="109" viewBox="0 0 123 109" width="123" xmlns="http://www.w3.org/2000/svg"><g fill="none" fill-rule="evenodd"><path d="m67 109c30.927946 0 56-24.4004811 56-54.5s-25.072054-54.5-56-54.5-67 32.4004811-67 62.5 36.072054 46.5 67 46.5z" fill="#fff"></path><path d="m53.5428083 63.2063636c-1.2551379 2.0799926-1.4019262 3.54148-2.2061304 3.54148-1.7779 0-4.7068161.2942814-4.7068161-3.3346381 0-1.9227486 1.8315267-8.925066 3.571066-14.5345984-3.3084128 6.4163263-8.3029339 15.310164-9.8334467 17.1327982-.7525347.7063121-3.7560192.8457376-4.1830753.8457376-.452108 0-2.1844058-1.4712233-2.1844058-6.0796112 0-4.4724526 5.197089-18.0972035 6.4019275-18.0972035 5.649197 0 7.662154 3.2710791 6.7033327 4.1708233-1.1179397 1.0496404-4.7586812 7.7455525-6.1527787 14.0762764 1.29526-1.615976 10.9388605-18.807557 12.0699133-19.5298507.0407093-.0391273.0771128-.0602523.1086234-.0602523 3.4645955 0 5.1743857.6508358 5.479314.7597677 2.4764166.8861507.3479861 6.7791264-.006263 7.9825205-.1452226.473569-1.1077624 3.2326867-2.3016407 6.3737089 3.2183826-4.6458619 9.566292-14.2860575 11.2428102-15.4653874.0706541-.084684.127608-.1307917.1677301-.1307917 6.3267718 0 7.6854444 4.2959205 7.5615551 4.1796408-.180256-.1691843-6.8837845 14.295977-9.1151626 19.1200243.4765727-.06411 1.3138533-.4063361 1.4737547-.4063361 0 0-3.7016098 3.0985883-6.6407031 3.0985883-2.1307791 0-3.5203751-2.9215052-2.6087219-5.6132063.6938194-2.0487643 5.7188726-10.9071486 8.0569167-15.6951914-3.2837523 5.255366-11.657536 15.4747559-12.8977994 17.6657011zm-1.5171394 8.0749288c.7342918-.6767482 23.2563824-1.0309186 23.2563824-.3199912 0 3.2350154-17.5891252 7.0386988-19.9032569 7.0386988-2.3143322 0-3.7915356-6.314654-3.3531255-6.7187076zm51.9743311-25.1682541c0 .240093-12.757859 3.7104589-12.6531684 4.6439434-.0005915 0-.0017744-.0003787-.0023659-.0003787.9666628 1.0008923 1.6987083 2.5200295 1.6987083 4.831019 0 4.686168-6.1260752 18.6980923-11.907322 18.6980923s-5.1140661-4.8075399-5.1140661-6.076738c0-4.857149 9.3332347-17.1420323 11.517936-17.1420323-4.358756-1.1211281-11.1370279 8.3108523-11.1370279 8.3108523-2.486155 4.0433323-4.3694026 7.2842087-4.3694026 7.2842087-.6005414 0-3.9307273.3629797-3.9307273-1.439043 0-9.3189399 12.584952-26.222962 13.2186159-26.222962 3.578407.7856039 4.6627728 1.3536472 6.5884092 4.7586881-.9152047.8789524-3.2929231 3.1263211-6.0870379 7.2908359.5431687-.8066215 1.9903041-2.2191558 4.872154-2.2191558.147868 0 1.5888916.0282128 3.0604745.7685626 0-.0005681-.0003943-.0011361-.0003943-.0017042 0-.1795017 5.8344793-3.4841883 14.2452145-3.4841883zm-24.3293447 22.6012474c4.3604001-.0568052 11.2670778-15.3381342 9.7589907-16.7142857-.1923765 0-13.966574 16.6574805-9.7589907 16.7142857z" fill="#333"></path></g></svg>