<svg height="109" width="123" xmlns="http://www.w3.org/2000/svg"><g fill="none" fill-rule="evenodd"><path d="M67 109c30.928 0 56-24.4 56-54.5S97.928 0 67 0 0 32.4 0 62.5 36.072 109 67 109z" fill="#fff"/><path d="M53.543 63.206c-1.255 2.08-1.402 3.542-2.206 3.542-1.778 0-4.707.294-4.707-3.335 0-1.923 1.831-8.925 3.57-14.534-3.307 6.416-8.302 15.31-9.833 17.132-.752.707-3.756.846-4.183.846-.452 0-2.184-1.471-2.184-6.08 0-4.472 5.197-18.097 6.402-18.097 5.65 0 7.662 3.271 6.703 4.171-1.118 1.05-4.758 7.746-6.153 14.076 1.296-1.616 10.94-18.807 12.07-19.53.041-.039.078-.06.109-.06 3.465 0 5.174.651 5.48.76 2.476.886.347 6.78-.007 7.983-.145.473-1.108 3.232-2.302 6.373 3.219-4.646 9.567-14.286 11.243-15.465.07-.085.128-.13.168-.13 6.327 0 7.685 4.295 7.562 4.179-.18-.17-6.884 14.296-9.116 19.12.477-.064 1.314-.407 1.474-.407 0 0-3.701 3.1-6.64 3.1-2.131 0-3.521-2.922-2.61-5.614.695-2.049 5.72-10.907 8.058-15.695-3.284 5.255-11.658 15.474-12.898 17.665zm-1.517 8.075c.734-.676 23.256-1.03 23.256-.32 0 3.235-17.59 7.039-19.903 7.039-2.315 0-3.792-6.315-3.353-6.719zM104 46.113c0 .24-12.758 3.71-12.653 4.644h-.003c.967 1 1.7 2.52 1.7 4.83 0 4.687-6.127 18.699-11.908 18.699s-5.114-4.808-5.114-6.077c0-4.857 9.333-17.142 11.518-17.142-4.359-1.121-11.137 8.31-11.137 8.31-2.486 4.044-4.37 7.285-4.37 7.285-.6 0-3.93.363-3.93-1.439C68.103 55.904 80.688 39 81.32 39c3.579.786 4.663 1.354 6.589 4.759-.916.879-3.293 3.126-6.087 7.29.543-.806 1.99-2.219 4.872-2.219.148 0 1.589.029 3.06.769v-.002c0-.18 5.834-3.484 14.245-3.484zM79.67 68.714c4.361-.057 11.268-15.338 9.76-16.714-.193 0-13.967 16.657-9.76 16.714z" fill="#333"/></g></svg>