<svg><defs><font id="TTNorms-Light" horiz-adv-x="580"><font-face font-family="TT Norms Light" font-weight="300" panose-1="2 0 5 3 2 0 0 2 0 3" ascent="800" descent="-200" x-height="480" cap-height="700" bbox="-120 -220 1438 965" underline-thickness="50" underline-position="-50" unicode-range="U+000D-U+FB06"/><glyph glyph-name="f_f" unicode="ff" d="M545 480v-45H425V0h-45v435H155V0h-45v435H30v45h80v80q0 63 31.5 96.5T230 690q16 0 32-4t24-8l9-3v-45q-30 15-65 15-34 0-54.5-22T155 560v-80h225v100q0 63 31.5 96.5T500 710q16 0 32-4t24-8l9-3v-45q-30 15-65 15-34 0-54.5-22T425 580V480h120z"/><glyph glyph-name="uniFB01" unicode="fi" horiz-adv-x="520" d="M155 435V0h-45v435H30v45h80v100q0 63 31.5 96.5T230 710q16 0 32-4t24-8l9-3v-45q-30 15-65 15-34 0-54.5-22T155 580V480h270V0h-45v435H155zm215 215q0 15 10 25t25 10 25-10 10-25-10-25-25-10-25 10-10 25z"/><glyph glyph-name="f_f_i" unicode="ffi" horiz-adv-x="795" d="M425 435V0h-45v435H155V0h-45v435H30v45h80v80q0 63 31.5 96.5T230 690q16 0 32-4t24-8l9-3v-45q-30 15-65 15-34 0-54.5-22T155 560v-80h225v100q0 63 31.5 96.5T500 710q16 0 32-4t24-8l9-3v-45q-30 15-65 15-34 0-54.5-22T425 580V480h275V0h-45v435H425zm220 215q0 15 10 25t25 10 25-10 10-25-10-25-25-10-25 10-10 25z"/><glyph glyph-name=".notdef" horiz-adv-x="0"/><glyph glyph-name=".null" horiz-adv-x="0"/><glyph glyph-name=".null" horiz-adv-x="0"/><glyph glyph-name="nonmarkingreturn" horiz-adv-x="333"/><glyph glyph-name="CR" horiz-adv-x="0"/><glyph glyph-name="space" horiz-adv-x="185"/><glyph glyph-name="exclam" unicode="!" horiz-adv-x="300" d="M170 160h-40l-10 540h60zM115 30q0 15 10 25t25 10 25-10 10-25-10-25-25-10-25 10-10 25z"/><glyph glyph-name="quotedbl" unicode="&quot;" horiz-adv-x="335" d="M115 700V490H70v210h45zm150 0V490h-45v210h45z"/><glyph glyph-name="numbersign" unicode="#" horiz-adv-x="715" d="M535 700h45l-40-215h150l-10-45H530l-35-180h150l-10-45H485L445 0h-45l40 215H220L180 0h-45l40 215H25l10 45h150l35 180H70l10 45h150l40 215h45l-40-215h220zM265 440l-35-180h220l35 180H265z"/><glyph glyph-name="dollar" unicode="$" horiz-adv-x="560" d="M455 185q0 52-40 84t-97.5 49.5-115 37T105 417 65 525q0 71 52 123t138 60v102h50V709q52-4 97-25t64-40l19-19-35-35q-2 3-6.5 7.5t-20 16.5-33 21.5-46 17T285 660q-80 0-125-38t-45-97q0-52 40-84t97.5-49.5 115-37T465 293t40-108q0-78-53.5-132T305-8v-102h-50V-9q-63 4-115.5 30T66 71L45 95l35 35q2-4 7-10t22.5-21.5T148 71t55-21.5 72-9.5q87 0 133.5 39.5T455 185z"/><glyph glyph-name="percent" unicode="%" horiz-adv-x="760" d="m135 0 440 700h50L185 0h-50zM90 555q0-48 30-79t75-31 75 31 30 79-30 79-75 31-75-31-30-79zm255 0q0-67-43-111t-107-44-107 44-43 111 43 111 107 44 107-44 43-111zm115-410q0-48 30-79t75-31 75 31 30 79-30 79-75 31-75-31-30-79zm255 0q0-67-43-111T565-10 458 34t-43 111 43 111 107 44 107-44 43-111z"/><glyph glyph-name="ampersand" unicode="&amp;" horiz-adv-x="615" d="M405 560q0-30-14-61t-33.5-54-39.5-42-34-29l-14-9 180-220q6 9 14 25t22 67 14 103h45q0-62-16.5-119.5T496 136l-16-26q5-8 13.5-19.5t32.5-31T570 40l30 5V0q-15-5-30-5-31 0-61 20t-45 40l-14 20q-3-3-7.5-9t-22-20.5-37-26-52-20.5-66.5-9q-84 0-139.5 50.5T70 160q0 35 14.5 69t35 57.5 41 42T196 356l14 9-30.5 31.5-49 70L100 555q0 64 45.5 109.5T255 710t107-43 43-107zm15-450L235 335q-5-3-13-9t-28.5-25-36.5-38.5-29-47.5-13-55q0-54 40.5-89.5T265 35q29 0 55.5 7.5t44 18.5T395 83.5t19 18.5zM145 555q0-31 25-71t50-64l25-25q5 3 12.5 9.5l27.5 25 35 37 27.5 44.5 12.5 49q0 45-30 75t-75 30-77.5-32.5T145 555z"/><glyph glyph-name="quotesingle" unicode="'" horiz-adv-x="185" d="M115 700V490H70v210h45z"/><glyph glyph-name="parenleft" unicode="(" horiz-adv-x="330" d="M125 250q0-76 17-149.5T183.5-24t48.5-91.5 41-60.5l17-19-40-25-18.5 22-40.5 61-51.5 98.5-41 130L80 250l17.5 157.5L140 539l50 96.5 42 63.5 18 21 40-25q-7-7-18-20.5t-39.5-58-50-93-39.5-123T125 250z"/><glyph glyph-name="parenright" unicode=")" horiz-adv-x="330" d="M205 250q0 76-17 149.5T146.5 524 98 615.5 57 676l-17 19 40 25 18.5-22 40.5-61 51.5-98.5 41-130L250 250 232.5 92.5 190-39l-50-96.5L98-199l-18-21-40 25q7 7 18 20.5t39.5 58 50 93 39.5 123T205 250z"/><glyph glyph-name="asterisk" unicode="*" horiz-adv-x="390" d="m195 515-80-115-30 25 85 110-130 30 15 40 125-40-5 135h40l-5-135 125 40 15-40-130-30 85-110-30-25z"/><glyph glyph-name="plus" unicode="+" horiz-adv-x="505" d="M230 510h45V315h185v-45H275V75h-45v195H45v45h185v195z"/><glyph glyph-name="comma" unicode="," horiz-adv-x="195" d="m85 70 50-30L30-125 0-110z"/><glyph glyph-name="hyphen" unicode="-" horiz-adv-x="420" d="M375 320v-45H45v45h330z"/><glyph glyph-name="period" unicode="." horiz-adv-x="200" d="M65 30q0 15 10 25t25 10 25-10 10-25-10-25-25-10T75 5 65 30z"/><glyph glyph-name="slash" unicode="/" horiz-adv-x="425" d="M390 710 85-210H35l305 920h50z"/><glyph glyph-name="zero" unicode="0" horiz-adv-x="670" d="M115 350q0-142 66-226t154-84 154 84 66 226-66 226-154 84-154-84-66-226zm490 0q0-161-81.5-260.5T335-10 146.5 89.5 65 350t81.5 260.5T335 710t188.5-99.5T605 350z"/><glyph glyph-name="one" unicode="1" horiz-adv-x="345" d="M190 700h40V0h-50v610q-5-6-14-15t-44-24.5T45 555v40q42 0 78.5 26.5T175 674z"/><glyph glyph-name="two" unicode="2" horiz-adv-x="545" d="M485 0H45q0 56 21.5 103.5t56 81.5 76 64.5l83 58.5 76 56.5 56 66L435 510q0 63-47 106.5T265 660q-39 0-70-13t-48-31-28.5-36.5T104 548l-4-13-45 20q1 6 4.5 16.5t19 37.5 36.5 47 61 37 89 17q95 0 157.5-59T485 510q0-46-19-85.5t-49.5-69-68.5-57L270.5 244l-74-54.5-61-63.5L100 50h385V0z"/><glyph glyph-name="three" unicode="3" horiz-adv-x="540" d="M335 370q6-1 15.5-4t34.5-16 44.5-31 35-52.5T480 190q0-80-65.5-140T250-10q-42 0-80 11t-62.5 26-43 30.5T38 84l-8 11 35 35q2-4 7-10t22-21.5T131 71t52-21.5 67-9.5q80 0 130 44t50 106-50 106-130 44h-65v50h65q70 0 112.5 39.5T405 530q0 54-43 92t-112 38q-48 0-89-20t-59-40l-17-20-35 40q3 4 8.5 10T83 651.5t40.5 27.5 56 21.5T250 710q88 0 146.5-53.5T455 530q0-36-12.5-66t-30-46.5-35-28T348 374z"/><glyph glyph-name="four" unicode="4" horiz-adv-x="565" d="M435 210h90v-50h-90V0h-50v160H25v60l350 480h60V210zm-50 0v425L75 210h310z"/><glyph glyph-name="five" unicode="5" horiz-adv-x="593" d="M300 445q94 0 159.5-66.5T525 215q0-94-67.5-159.5T290-10q-41 0-78 11t-61 26-42 30.5T83 84l-8 11 35 35q2-4 7-10t22-21.5T175 71t50-21.5 65-9.5q82 0 133.5 49.5T475 215q0 78-50 129t-125 51q-49 0-89-21.5T156 331l-16-21h-40l25 390h355v-50H170l-15-260q6 6 18 15t49.5 24.5T300 445z"/><glyph glyph-name="six" unicode="6" horiz-adv-x="575" d="M285 440q97 0 163.5-65.5T515 215 448.5 55.5 285-10 121.5 55.5 55 215q0 38 12.5 75.5T92 346l13 19 210 335h55L195 420q35 20 90 20zm180-225q0 75-51 125t-129 50-129-50-51-125 51-125 129-50 129 50 51 125z"/><glyph glyph-name="seven" unicode="7" horiz-adv-x="475" d="M25 700h430v-50L135 0H85l320 650H25v50z"/><glyph glyph-name="eight" unicode="8" d="M290 405q63 0 104 35.5t41 89.5-41 92-104 38-104-38-41-92 41-89.5T290 405zm0-365q77 0 126 45t49 110-50.5 112.5T290 355t-124.5-47.5T115 195t49-110 126-45zm0-50q-96 0-160.5 60.5T65 195q0 39 14 72.5t33.5 53.5 39.5 34 34 19l14 6q-4 1-11 4.5T163.5 400t-32 27.5-25 43T95 530q0 72 57 126t138 54 138-54 57-126q0-32-11-59.5T447.5 427 417 400t-26-16l-11-4 14.5-6 32.5-19 41-34 32.5-53 14.5-73q0-84-64.5-144.5T290-10z"/><glyph glyph-name="nine" unicode="9" horiz-adv-x="575" d="M290 260q-97 0-163.5 65.5T60 485t66.5 159.5T290 710t163.5-65.5T520 485q0-38-12.5-75.5T482 354l-12-19L260 0h-55l175 280q-35-20-90-20zM110 485q0-75 51-125t129-50 129 50 51 125-51 125-129 50-129-50-51-125z"/><glyph glyph-name="colon" unicode=":" horiz-adv-x="200" d="M65 30q0 15 10 25t25 10 25-10 10-25-10-25-25-10T75 5 65 30zm0 420q0 15 10 25t25 10 25-10 10-25-10-25-25-10-25 10-10 25z"/><glyph glyph-name="semicolon" unicode=";" horiz-adv-x="200" d="M65 450q0 15 10 25t25 10 25-10 10-25-10-25-25-10-25 10-10 25zM85 70l50-30L30-125 0-110z"/><glyph glyph-name="less" unicode="&lt;" horiz-adv-x="490" d="M50 225v40l390 205v-50L105 245 440 70V20z"/><glyph glyph-name="equal" unicode="=" horiz-adv-x="500" d="M445 230v-45H50v45h395zm0 175v-45H50v45h395z"/><glyph glyph-name="greater" unicode="&gt;" horiz-adv-x="490" d="M440 265v-40L50 20v50l335 175L50 420v50z"/><glyph glyph-name="question" unicode="?" horiz-adv-x="515" d="M270 160h-45q-5 20-5 45 0 45 20 81.5t49 61.5l57.5 48.5 48.5 56 20 72.5q0 58-43.5 96.5T255 660q-39 0-70.5-12.5t-48.5-30-28-35T94 552l-4-12-45 15 5.5 16.5L70 609l37.5 47 60.5 37 87 17q92 0 151-54t59-131q0-51-20-88.5T396.5 375L339 328l-49-59-20-84v-25zM210 30q0 15 10 25t25 10 25-10 10-25-10-25-25-10-25 10-10 25z"/><glyph glyph-name="at" unicode="@" horiz-adv-x="890" d="M435 385q-54 0-89.5-38.5T310 245t35.5-101.5T435 105t89.5 38.5T560 245t-35.5 101.5T435 385zm0 45q25 0 47-7t36-17.5 24-21 14-17.5l4-7v65h45V203q0-98 75-98 41 0 68 40.5T775 270q0 133-94 224t-236 91q-135 0-232.5-98.5T115 250t97.5-236.5T445-85q56 0 106 17.5T623-32l22 17 25-35q-3-3-9.5-8.5t-28-19.5-45.5-24.5-62.5-19T445-130q-150 0-262.5 113.5T70 250t112.5 266.5T445 630q156 0 265.5-106.5T820 270q0-103-40-156.5T680 60q-24 0-44 9t-31.5 21-20 24.5T573 136l-3 9q-1-3-4-9t-14.5-20.5-25.5-26T487.5 69 435 60q-69 0-119.5 53.5T265 245t50.5 131.5T435 430z"/><glyph glyph-name="A" unicode="A" horiz-adv-x="680" d="M495 255 340 630 185 255h310zm20-50H165L80 0H25l290 700h50L655 0h-55z"/><glyph glyph-name="B" unicode="B" horiz-adv-x="660" d="m470 375 13.5-5.5 30-18 38-32.5 30-51.5L595 195q0-84-59.5-139.5T380 0H110v700h260q85 0 137.5-49.5T560 525q0-32-9.5-59.5T528 422t-26-27-22-15zM160 50h220q77 0 121 40t44 105q0 69-43.5 109.5T380 345H160V50zm210 600H160V395h210q67 0 103.5 34.5T510 525q0 57-37 91t-103 34z"/><glyph glyph-name="C" unicode="C" horiz-adv-x="750" d="M60 350q0 150 104 255t251 105q53 0 102-15.5t81-37.5 56-44 35-37l11-16-35-30q-3 5-9.5 14T626 575.5 576 615t-70.5 31-90.5 14q-128 0-216.5-89.5T110 350t88.5-220.5T415 40q48 0 91.5 13.5t72 32.5 50 38 31.5 32l10 14 35-30q-4-6-12-16t-35.5-36T599 42 518 6 415-10Q268-10 164 95T60 350z"/><glyph glyph-name="D" unicode="D" horiz-adv-x="740" d="M110 700h205q156 0 260.5-101.5T680 350 575.5 101.5 315 0H110v700zm205-50H160V50h155q138 0 226.5 85.5T630 350t-88.5 214.5T315 650z"/><glyph glyph-name="E" unicode="E" horiz-adv-x="630" d="M160 50h430V0H110v700h470v-50H160V390h340v-50H160V50z"/><glyph glyph-name="F" unicode="F" horiz-adv-x="610" d="M110 700h465v-50H160V380h335v-50H160V0h-50v700z"/><glyph glyph-name="G" unicode="G" horiz-adv-x="790" d="M60 350q0 150 104 255t251 105q53 0 102-15.5t81-37.5 56-44 35-37l11-16-35-30q-3 5-9.5 14T626 575.5 576 615t-70.5 31-90.5 14q-128 0-216.5-89.5T110 350t88.5-220.5T415 40q45 0 86.5 12t69 29 49 33.5T650 143l10 12v145H480v50h230V140q-4-6-12.5-16T661 88t-60-46-82.5-36T415-10Q268-10 164 95T60 350z"/><glyph glyph-name="H" unicode="H" horiz-adv-x="750" d="M110 0v700h50V380h425v320h50V0h-50v330H160V0h-50z"/><glyph glyph-name="I" unicode="I" horiz-adv-x="270" d="M110 0v700h50V0h-50z"/><glyph glyph-name="J" unicode="J" horiz-adv-x="490" d="M335 700h50V205q0-93-60-154T175-10q-47 0-88 19T28 46L10 65l35 35q5-7 15-17t43.5-26.5T175 40q72 0 116 45t44 120v495z"/><glyph glyph-name="K" unicode="K" horiz-adv-x="655" d="m160 270 390 430h65L350 410 640 0h-60L320 375 160 200V0h-50v700h50V270z"/><glyph glyph-name="L" unicode="L" horiz-adv-x="560" d="M535 0H110v700h50V50h375V0z"/><glyph glyph-name="M" unicode="M" horiz-adv-x="920" d="M460 205 160 605V0h-50v700h40l310-410 310 410h40V0h-50v605z"/><glyph glyph-name="N" unicode="N" horiz-adv-x="775" d="M615 700h50V0h-40L160 605V0h-50v700h40L615 95v605z"/><glyph glyph-name="O" unicode="O" horiz-adv-x="830" d="M720 350q0 131-88.5 220.5T415 660t-216.5-89.5T110 350t88.5-220.5T415 40t216.5 89.5T720 350zm50 0q0-150-103.5-255T415-10Q268-10 164 95T60 350t104 255 251 105q148 0 251.5-105T770 350z"/><glyph glyph-name="P" unicode="P" horiz-adv-x="640" d="M110 700h250q97 0 161-62t64-153-64-153-161-62H160V0h-50v700zm250-50H160V320h200q78 0 126.5 46.5T535 485t-48.5 118.5T360 650z"/><glyph glyph-name="Q" unicode="Q" horiz-adv-x="835" d="M510 3q-40-13-95-13-147 0-251 105T60 350t104 255 251 105q148 0 251.5-105T770 350q0-67-21.5-126T696 129.5t-62-62T582 30l-22-10q2-4 6.5-11.5T587-18t36.5-33.5T679-78t76-12q16 0 28.5 1t16.5 3l5 1v-50q-15-5-50-5-50 0-94 14.5t-70.5 36T545-47t-27 35zm210 347q0 131-88.5 220.5T415 660t-216.5-89.5T110 350t88.5-220.5T415 40t216.5 89.5T720 350z"/><glyph glyph-name="R" unicode="R" horiz-adv-x="660" d="M110 700h265q93 0 154-59t61-146q0-46-16-83t-39-57-45.5-33.5T451 304l-16-4L605 0h-55L385 290H160V0h-50v700zm265-50H160V340h215q74 0 119.5 43.5T540 495t-45.5 111.5T375 650z"/><glyph glyph-name="S" unicode="S" horiz-adv-x="560" d="M455 185q0 52-40 84t-97.5 49.5-115 37T105 417 65 525q0 77 61 131t159 54q36 0 70-9t56.5-21 40-24.5T477 634l8-9-35-35q-2 3-6.5 7.5t-20 16.5-33 21.5-46 17T285 660q-80 0-125-38t-45-97q0-52 40-84t97.5-49.5 115-37T465 293t40-108q0-85-62-140T275-10q-43 0-83 11t-65.5 26-45 30.5T54 84l-9 11 35 35q2-4 7-10t22.5-21.5T148 71t55-21.5 72-9.5q87 0 133.5 39.5T455 185z"/><glyph glyph-name="T" unicode="T" horiz-adv-x="550" d="M20 700h510v-50H300V0h-50v650H20v50z"/><glyph glyph-name="U" unicode="U" horiz-adv-x="750" d="M375 40q94 0 159.5 66.5T600 270v430h50V270q0-116-81-198T375-10 181 72t-81 198v430h50V270q0-97 65.5-163.5T375 40z"/><glyph glyph-name="V" unicode="V" horiz-adv-x="660" d="M305 0 30 700h55L330 75l245 625h55L355 0h-50z"/><glyph glyph-name="W" unicode="W" horiz-adv-x="1010" d="M505 620 305 0h-50L30 700h55L280 80l200 620h50L730 80l195 620h55L755 0h-50z"/><glyph glyph-name="X" unicode="X" horiz-adv-x="630" d="M585 700 345 365 605 0h-60L315 325 85 0H25l260 365L45 700h60l210-295 210 295h60z"/><glyph glyph-name="Y" unicode="Y" horiz-adv-x="620" d="m85 700 225-400 225 400h60L335 245V0h-50v245L25 700h60z"/><glyph glyph-name="Z" unicode="Z" horiz-adv-x="585" d="M470 650H60v50h470v-50L105 50h435V0H45v50z"/><glyph glyph-name="bracketleft" unicode="[" horiz-adv-x="340" d="M150 660v-820h145v-50H100v920h195v-50H150z"/><glyph glyph-name="backslash" unicode="\" horiz-adv-x="425" d="M340-210 35 710h50l305-920h-50z"/><glyph glyph-name="bracketright" unicode="]" horiz-adv-x="340" d="M190-160v820H45v50h195v-920H45v50h145z"/><glyph glyph-name="asciicircum" unicode="^" horiz-adv-x="390" d="M175 700h40l125-275h-45L195 645 95 425H50z"/><glyph glyph-name="underscore" unicode="_" horiz-adv-x="320" d="M330-115v-45H-10v45h340z"/><glyph glyph-name="grave" unicode="`" horiz-adv-x="190" d="m85 695 75-130h-40L30 695h55z"/><glyph glyph-name="a" unicode="a" horiz-adv-x="500" d="m180 270 190 30q0 62-38.5 103.5T235 445q-39 0-74-17.5T110 392l-15-17-30 30q3 3 7.5 9t21 20.5 35 26T176 481t59 9q77 0 128.5-54.5T415 300V0h-45v80q-2-4-6.5-10T343 48.5 308.5 21t-49-21.5T195-10q-69 0-114.5 40.5T35 125q0 56 39 95.5T180 270zm15-235q75 0 125 50t50 125v45l-180-30Q80 207 80 125q0-36 32.5-63T195 35z"/><glyph glyph-name="b" unicode="b" horiz-adv-x="595" d="M130 240q0-85 56-145t129-60q69 0 124.5 60.5T495 240t-55.5 144.5T315 445q-73 0-129-60t-56-145zm0 460V385q2 4 7 11t22 25.5 37 32 52 25 67 11.5q88 0 156.5-73.5T540 240 471.5 63.5 315-10q-35 0-67 11t-52.5 26-36 30.5T137 84l-7 11V0H85v700h45z"/><glyph glyph-name="c" unicode="c" horiz-adv-x="515" d="M45 240q0 104 70 177t165 73q35 0 67.5-10.5t53.5-25 37.5-29T462 400l8-10-35-30-6 9-18.5 20.5-31 26L336 436l-56 9q-76 0-133-60T90 240t57-145 133-60q47 0 85.5 21.5T420 99l15 21 35-30-8-11-23-24-38-30-53-24-68-11q-95 0-165 73T45 240z"/><glyph glyph-name="d" unicode="d" horiz-adv-x="595" d="M455 240q0 85-56 145t-129 60q-69 0-124.5-60.5T90 240t55.5-144.5T270 35q73 0 129 60t56 145zm0 145v315h45V0h-45v95q-2-4-7-11t-22-25.5-37-32-52-25T270-10q-88 0-156.5 73.5T45 240t68.5 176.5T270 490q35 0 67-11t52.5-26 36-30.5T448 396z"/><glyph glyph-name="e" unicode="e" horiz-adv-x="550" d="M495 220H90q4-75 59.5-130T280 35q29 0 56.5 8.5t45.5 21 31.5 25T434 110l6 9 30-29-8-11-23-24-38-30-53-24-68-11q-95 0-165 73T45 240q0 103 69 176.5T275 490t156-70 64-180v-20zM275 445q-71 0-126-54T90 265h360q-4 78-53.5 129T275 445z"/><glyph glyph-name="f" unicode="f" horiz-adv-x="310" d="M275 480v-45H155V0h-45v435H30v45h80v100q0 63 31.5 96.5T230 710q16 0 32-4t24-8l9-3v-45q-30 15-65 15-34 0-54.5-22T155 580V480h120z"/><glyph glyph-name="g" unicode="g" horiz-adv-x="585" d="M90 250q0-81 53-138t122-57q70 0 125 57.5T445 250t-55 137.5T265 445q-69 0-122-57T90 250zM445 30v80q-2-4-6.5-11t-21-24T382 45t-50.5-24T265 10q-88 0-154 70T45 250t66 170 154 70q35 0 66.5-10.5t51-25 34.5-29 21-25.5l7-10v90h45V30q0-100-67.5-170T260-210q-36 0-69 10.5t-54 25-37 29T77-120l-7 10 30 30q2-3 6.5-9t19.5-20.5 32-26 45-20.5 57-9q76 0 130.5 56.5T445 30z"/><glyph glyph-name="h" unicode="h" horiz-adv-x="575" d="M130 700V395l5.5 10.5 18 22.5 31.5 28.5 46.5 23L295 490q83 0 139-58t56-147V0h-45v285q0 70-43 115t-107 45q-68 0-116.5-50.5T130 270V0H85v700h45z"/><glyph glyph-name="i" unicode="i" horiz-adv-x="225" d="M85 0v480h45V0H85zM75 650q0 15 10 25t25 10 25-10 10-25-10-25-25-10-25 10-10 25z"/><glyph glyph-name="j" unicode="j" horiz-adv-x="225" d="M85-80v560h45V-80q0-59-33.5-94.5T10-210q-16 0-31 4t-22 8l-7 3v45q25-15 60-15 34 0 54.5 22T85-80zM75 650q0 15 10 25t25 10 25-10 10-25-10-25-25-10-25 10-10 25z"/><glyph glyph-name="k" unicode="k" horiz-adv-x="500" d="M130 130V0H85v700h45V195l265 285h60L275 285 480 0h-55L245 250h-5z"/><glyph glyph-name="l" unicode="l" horiz-adv-x="225" d="M130 700V0H85v700h45z"/><glyph glyph-name="m" unicode="m" horiz-adv-x="865" d="M735 0v285q0 73-38.5 116.5T600 445q-62 0-103.5-47.5T455 270V0h-45v285q0 73-38.5 116.5T275 445q-62 0-103.5-47.5T130 270V0H85v480h45v-70q2 3 5 8.5t15.5 19.5 28 24.5 41.5 19 55 8.5q34 0 62.5-11.5t46-27.5 29.5-32 17-27l5-12q2 4 5 11.5t16.5 26.5 30 33.5 47 26.5 66.5 12q77 0 128.5-55T780 285V0h-45z"/><glyph glyph-name="n" unicode="n" horiz-adv-x="575" d="M130 480v-85l5.5 10.5 18 22.5 31.5 28.5 46.5 23L295 490q83 0 139-58t56-147V0h-45v285q0 70-43 115t-107 45q-68 0-116.5-50.5T130 270V0H85v480h45z"/><glyph glyph-name="o" unicode="o" d="M45 240q0 104 71 177t169 73 169-73 71-177-71-177-169-73-169 73-71 177zm435 0q0 85-57.5 145T285 445t-137.5-60T90 240t57.5-145T285 35t137.5 60T480 240z"/><glyph glyph-name="p" unicode="p" horiz-adv-x="595" d="M130 240q0-85 56-145t129-60q69 0 124.5 60.5T495 240t-55.5 144.5T315 445q-73 0-129-60t-56-145zm0-145v-305H85v690h45v-95q2 4 7 11t22 25.5 37 32 52 25 67 11.5q88 0 156.5-73.5T540 240 471.5 63.5 315-10q-35 0-67 11t-52.5 26-36 30.5T137 84z"/><glyph glyph-name="q" unicode="q" horiz-adv-x="595" d="M455 240q0 85-56 145t-129 60q-69 0-124.5-60.5T90 240t55.5-144.5T270 35q73 0 129 60t56 145zm0-450V95q-2-4-7-11t-22-25.5-37-32-52-25T270-10q-88 0-156.5 73.5T45 240t68.5 176.5T270 490q35 0 67-11t52.5-26 36-30.5T448 396l7-11v95h45v-690h-45z"/><glyph glyph-name="r" unicode="r" horiz-adv-x="340" d="M320 490v-45h-20q-70 0-120-49t-50-126V0H85v480h45v-80q2 4 5.5 10t18 21.5T186 459t48.5 21.5T300 490h20z"/><glyph glyph-name="s" unicode="s" horiz-adv-x="430" d="m360 420-35-35q-2 2-5 6.5T306 406t-23 18-32 14.5-41 6.5q-50 0-80-25t-30-60q0-31 28.5-51t69-31 80.5-25 68.5-43 28.5-75q0-62-46.5-103.5T205-10q-31 0-59.5 8t-48 20-34 24T42 62l-7 8 35 35q6-8 16.5-19.5t45.5-31T205 35q58 0 91.5 28.5T330 135q0 33-28.5 53.5t-69 32-80.5 25-68.5 42T55 360q0 51 45 90.5T210 490q42 0 79.5-17.5T344 438z"/><glyph glyph-name="t" unicode="t" horiz-adv-x="350" d="M125 520v120h40V480h110v-45H165V120q0-41 20.5-63T240 35q16 0 32 3.5t24 7.5l9 4V5q-30-15-65-15-57 0-88.5 33.5T120 120v315H25v45h65q15 0 25 11t10 29z"/><glyph glyph-name="u" unicode="u" d="M445 0v85l-5.5-10.5-18-22.5L390 23.5 343.5.5 280-10q-83 0-139 58T85 195v285h45V195q0-70 43-115t107-45q68 0 116.5 50.5T445 210v270h45V0h-45z"/><glyph glyph-name="v" unicode="v" horiz-adv-x="480" d="M260 0h-50L15 480h50L235 60l170 420h50z"/><glyph glyph-name="w" unicode="w" horiz-adv-x="710" d="M330 480h40L500 70l135 410h50L525 0h-45L350 405 220 0h-45L15 480h50L200 75z"/><glyph glyph-name="x" unicode="x" horiz-adv-x="460" d="M420 480 255 250 435 0h-55L225 215 70 0H15l180 250L30 480h55l140-195 140 195h55z"/><glyph glyph-name="y" unicode="y" horiz-adv-x="480" d="m175-90 35 90L15 480h50L235 60l170 420h50L225-90q-26-65-57-92.5T85-210q-11 0-22.5 2.5T46-202l-6 2v45q20-10 45-10 33 0 54 18t36 57z"/><glyph glyph-name="z" unicode="z" horiz-adv-x="445" d="M395 480v-45L85 45h320V0H30v45l310 390H40v45h355z"/><glyph glyph-name="braceleft" unicode="{" horiz-adv-x="355" d="M65 230v40q75 0 75 75v235q0 61 36.5 95.5T280 710h35v-45h-35q-95 0-95-85V345q0-36-16.5-59.5T136 256l-16-6q3-1 7-2.5t15.5-8 20-16 15.5-28 7-40.5V-80q0-85 95-85h35v-45h-35q-67 0-103.5 34.5T140-80v235q0 75-75 75z"/><glyph glyph-name="bar" unicode="|" horiz-adv-x="325" d="M185 710v-920h-45v920h45z"/><glyph glyph-name="braceright" unicode="}" horiz-adv-x="355" d="M290 270v-40q-75 0-75-75V-80q0-61-36.5-95.5T75-210H40v45h35q95 0 95 85v235q0 22 6.5 40t16 28 19.5 16.5 16 8.5l7 2q-3 1-7 2.5t-15.5 8-20 16-15.5 28-7 40.5v235q0 85-95 85H40v45h35q67 0 103.5-34.5T215 580V345q0-75 75-75z"/><glyph glyph-name="asciitilde" unicode="~" horiz-adv-x="520" d="M165 305q-29 0-51.5-15T83 260l-8-15-35 25q2 3 5 8.5T59.5 298t25 24.5 35 19T165 350q40 0 72-17.5t59.5-35T355 280q29 0 51.5 15t30.5 30l8 15 35-25q-2-3-5-8.5T460.5 287t-25-24.5-35-19T355 235q-40 0-72 17.5t-59.5 35T165 305z"/><glyph glyph-name="nbspace" horiz-adv-x="185"/><glyph glyph-name="exclamdown" unicode="¡" horiz-adv-x="280" d="M120 320h40l10-530h-60zm-15 130q0 15 10 25t25 10 25-10 10-25-10-25-25-10-25 10-10 25z"/><glyph glyph-name="cent" unicode="¢" horiz-adv-x="515" d="M45 240q0 97 64 169.5T260 489v101h45V488q49-6 90-30.5t58-45.5l17-22-35-30-6 9-18.5 20.5-31 26L336 436l-56 9q-76 0-133-60T90 240t57-145 133-60q47 0 85.5 21.5T420 99l15 21 35-30q-2-3-6.5-9t-20-21.5-33-28-46-24T305-8v-102h-45V-9q-88 7-151.5 78.5T45 240z"/><glyph glyph-name="sterling" unicode="£" horiz-adv-x="550" d="M145 500q0 93 56.5 151.5T345 710q32 0 62-9t49.5-21 34.5-24.5 22-21.5l7-9-35-35q-6 8-16.5 19.5t-47 31T345 660q-64 0-107-45t-43-115V350h205v-50H195V125q0-24-11.5-43T161 56l-11-6h370V0H65v50q33 0 56.5 24t23.5 51v175H75v50h70v150z"/><glyph glyph-name="currency" unicode="¤" horiz-adv-x="660" d="M50 290v50h85v360h250q93 0 154-59t61-146-61-146-154-59H185V190h259v-50H185V0h-50v140H50v50h85v100H50zm335 360H185V340h200q74 0 119.5 43.5T550 495t-45.5 111.5T385 650z"/><glyph glyph-name="yen" unicode="¥" horiz-adv-x="620" d="m85 700 225-395 225 395h60L370 305h130v-45H345l-10-15v-75h165v-45H335V0h-50v125H120v45h165v75l-10 15H120v45h130L25 700h60z"/><glyph glyph-name="brokenbar" unicode="¦" horiz-adv-x="325" d="M140 170h45v-380h-45v380zm45 160h-45v380h45V330z"/><glyph glyph-name="section" unicode="§" horiz-adv-x="528" d="M105 320q0-27 14-48.5t41-37 49-24.5 56-20 45-15q4 1 11 3t25.5 11 32 20.5 25 31.5 11.5 44q0 27-14 48.5t-41 37-49 24.5-56 20-45 15q-4-1-11-3t-25.5-11-32-20.5-25-31.5-11.5-44zm355-35q0-28-11.5-52T421 194.5 389 169t-27-15l-12-4q3-1 8-3.5t18-12 23-21T417 82t8-42q0-62-49-106t-126-44q-31 0-59.5 9t-48 21-34 24.5T87-34l-7 9 35 35q2-3 6-8t17-18 27.5-23T203-57t47-8q58 0 94 31t36 74q0 37-33 62t-80 41-94 34.5-80 54T60 320q0 28 11.5 52T99 411t32 25.5 27 14.5l12 4q-3 1-8 3.5t-18 12-23 21-18 31.5-8 42q0 62 46.5 103.5T265 710q44 0 83-17.5t56-34.5l16-18-35-35q-5 7-14.5 17t-41 26.5T265 665q-58 0-91.5-28.5T140 565q0-37 33-62t80-41 94-34.5 80-54 33-88.5z"/><glyph glyph-name="dieresis" unicode="¨" horiz-adv-x="305" d="M30 635q0 15 10 25t25 10 25-10 10-25-10-25-25-10-25 10-10 25zm175 0q0 15 10 25t25 10 25-10 10-25-10-25-25-10-25 10-10 25z"/><glyph glyph-name="copyright" unicode="©" horiz-adv-x="870" d="M435 710q150 0 255-105t105-255T690 95 435-10 180 95 75 350t105 255 255 105zm0-675q135 0 225 90t90 225-90 225-225 90-225-90-90-225 90-225 225-90zM300 350q0-63 40-104t100-41q34 0 63 15t41 30l11 15 30-30q-2-3-6-8t-17.5-18-29-23-40.5-18-52-8q-79 0-132 54t-53 136 53 136 132 54q42 0 78.5-19t51.5-37l15-19-30-30q-2 2-5 6.5T536.5 456t-23 18-32 14.5T440 495q-60 0-100-41t-40-104z"/><glyph glyph-name="ordfeminine" unicode="ª" horiz-adv-x="320" d="M125 405q-40 0-65 23t-25 57 24.5 58.5T125 575l105 20q0 75-75 75-20 0-37.5-10T92 640l-7-10-30 25q4 6 11.5 15t33.5 24.5 55 15.5q51 0 83-29t32-71V415h-40v45q-3-6-10-15t-34.5-24.5T125 405zm105 150-105-20q-50-10-50-50 0-16 15-28t40-12q45 0 72.5 27.5T230 546v9z"/><glyph glyph-name="guillemotleft" unicode="«" horiz-adv-x="440" d="M165 80 50 240l115 160h55L105 240 220 80h-55zm170 0L220 240l115 160h55L275 240 390 80h-55z"/><glyph glyph-name="logicalnot" unicode="¬" horiz-adv-x="455" d="M410 380V195h-50v140H45v45h365z"/><glyph glyph-name="uni00AD" unicode="­" horiz-adv-x="420" d="M375 315v-45H45v45h330z"/><glyph glyph-name="registered" unicode="®" horiz-adv-x="870" d="m500 325 85-160h-50l-80 150h-95V165h-45v370h130q56 0 90.5-32t34.5-78q0-33-17.5-58T518 334zM360 490V360h85q80 0 80 65t-80 65h-85zm75 220q150 0 255-105t105-255T690 95 435-10 180 95 75 350t105 255 255 105zm0-675q135 0 225 90t90 225-90 225-225 90-225-90-90-225 90-225 225-90z"/><glyph glyph-name="macron" unicode="¯" horiz-adv-x="330" d="M300 685v-40H30v40h270z"/><glyph glyph-name="degree" unicode="°" horiz-adv-x="350" d="M90 580q0-38 24-61.5t61-23.5 61 23.5 24 61.5-24 61.5-61 23.5-61-23.5T90 580zm215 0q0-56-37-93t-93-37-93 37-37 93 37 93 93 37 93-37 37-93z"/><glyph glyph-name="plusminus" unicode="±" horiz-adv-x="505" d="M45 45v45h415V45H45zm185 550h45V400h185v-45H275V160h-45v195H45v45h185v195z"/><glyph glyph-name="twosuperior" unicode="²" horiz-adv-x="285" d="M255 450H25q0 42 19.5 75T92 579t56 39.5 47.5 40T215 704t-20.5 42.5T145 765q-27 0-47-15t-26-30l-7-15-35 15 3 9 11.5 20.5 21 26 33 20.5 46.5 9q50 0 80-30t30-71q0-39-25-69t-56.5-47-63.5-43-42-55h187v-40z"/><glyph glyph-name="threesuperior" unicode="³" horiz-adv-x="295" d="M205 635q2 0 6.5-1.5t14.5-7 18-14 14.5-25T265 550q0-43-34-74t-86-31q-36 0-67 15t-44 30l-14 15 30 30q4-6 11.5-14t32-22 51.5-14q37 0 58.5 18t21.5 47-20.5 47-57.5 18h-47v40h45q65 0 65 55 0 23-18.5 39T140 765q-24 0-44-11.5T68 731l-8-11-30 30q4 6 12.5 15t37 24.5T140 805q48 0 79-28t31-67q0-27-11-45.5T216 640z"/><glyph glyph-name="acute" unicode="´" horiz-adv-x="190" d="m30 565 75 130h55L70 565H30z"/><glyph glyph-name="mu" unicode="µ" d="m435 80-5-10-16.5-21.5L384 21 340-.5 280-10q-44 0-81.5 17.5T146 42l-16 18v-270H85v690h45V195q0-70 43-115t107-45q67 0 111 50t44 125v270h45V90q0-22 14-36t36-14q9 0 16.5 1.5T557 44l3 2V0q-10-5-30-5-40 0-67.5 25.5T435 80z"/><glyph glyph-name="paragraph" unicode="¶" horiz-adv-x="523" d="M210-100v480q-64 0-112 48T50 540t48 112 112 48h205v-800h-45v754H255v-754h-45z"/><glyph glyph-name="periodcentered" unicode="·" horiz-adv-x="185" d="M60 250q0 15 10 25t25 10 25-10 10-25-10-25-25-10-25 10-10 25z"/><glyph glyph-name="cedilla" unicode="¸" horiz-adv-x="230" d="M110 20h35l-40-80q5 5 25 5 30 0 50-20t20-50q0-31-25-53t-65-22q-20 0-40 7t-30 13l-10 7 15 28q30-25 65-25 26 0 40.5 12.5T165-125q0 15-12 27.5T125-85q-9 0-17.5-2.5T94-92l-4-3-25 25z"/><glyph glyph-name="onesuperior" unicode="¹" horiz-adv-x="200" d="M105 800h35V450h-40v290q-20-30-70-30v35q22 0 41 13.5T98 786z"/><glyph glyph-name="ordmasculine" unicode="º" horiz-adv-x="360" d="M180 440q49 0 79.5 31.5T290 555t-30.5 83.5T180 670t-79.5-31.5T70 555t30.5-83.5T180 440zm0-40q-64 0-107 44T30 555t43 111 107 44 107-44 43-111-43-111-107-44z"/><glyph glyph-name="guillemotright" unicode="»" horiz-adv-x="440" d="M390 240 275 80h-55l115 160-115 160h55zm-170 0L105 80H50l115 160L50 400h55z"/><glyph glyph-name="onequarter" unicode="¼" horiz-adv-x="665" d="m70 0 435 700h45L115 0H70zm45 700h35V350h-40v290q-20-30-70-30v35q22 0 41 13.5t27 27.5zm460-575h45V85h-45V0h-40v85H365v40l160 225h50V125zm-40 0v175L410 125h125z"/><glyph glyph-name="onehalf" unicode="½" horiz-adv-x="690" d="m70 0 435 700h45L115 0H70zm45 700h35V350h-40v290q-20-30-70-30v35q22 0 41 13.5t27 27.5zM645 0H415q0 42 19.5 75t47.5 54 56 39.5 47.5 40T605 254t-20.5 42.5T535 315q-27 0-47-15t-26-30l-7-15-35 15 3 9 11.5 20.5 21 26 33 20.5 46.5 9q50 0 80-30t30-71q0-39-25-69t-56.5-47T500 95t-42-55h187V0z"/><glyph glyph-name="threequarters" unicode="¾" horiz-adv-x="730" d="m135 0 435 700h45L180 0h-45zm505 125h45V85h-45V0h-40v85H430v40l160 225h50V125zm-40 0v175L475 125h125zM210 535q2 0 6.5-1.5t14.5-7 18-14 14.5-25T270 450q0-44-34-74.5T150 345q-36 0-67 15t-45 30l-13 15 30 30q4-6 11.5-14t32-22 51.5-14q37 0 58.5 18t21.5 47-20.5 47-57.5 18h-47v40h45q65 0 65 55 0 23-18.5 39T145 665q-24 0-44-11.5T73 631l-8-11-30 30q4 6 12.5 15t37 24.5T145 705q48 0 79-28t31-67q0-27-11.5-45.5T221 540z"/><glyph glyph-name="questiondown" unicode="¿" horiz-adv-x="450" d="M225 320h45q5-20 5-45 0-45-20-80.5t-48.5-59L149 90l-49-53.5L80-35q0-58 43.5-96.5T240-170q39 0 70.5 12.5t48.5 30 28 35T402-62l3 12 45-15-5.5-16.5L425-119l-37.5-47-60.5-37-87-17q-92 0-151 54T30-35q0 43 14.5 76.5t36 52.5l47 40 47 39 36 49.5L225 295v25zm60 130q0-15-10-25t-25-10-25 10-10 25 10 25 25 10 25-10 10-25z"/><glyph glyph-name="Agrave" unicode="À" horiz-adv-x="680" d="M495 255 340 630 185 255h310zm20-50H165L80 0H25l290 700h50L655 0h-55zM285 925l75-130h-40l-90 130h55z"/><glyph glyph-name="Aacute" unicode="Á" horiz-adv-x="680" d="M495 255 340 630 185 255h310zm20-50H165L80 0H25l290 700h50L655 0h-55zM330 795l75 130h55l-90-130h-40z"/><glyph glyph-name="Acircumflex" unicode="Â" horiz-adv-x="680" d="M495 255 340 630 185 255h310zm20-50H165L80 0H25l290 700h50L655 0h-55zM365 925l105-130h-45l-85 100-85-100h-45l105 130h50z"/><glyph glyph-name="Atilde" unicode="Ã" horiz-adv-x="680" d="M495 255 340 630 185 255h310zm20-50H165L80 0H25l290 700h50L655 0h-55zM277 870q-17 0-28.5-18.5T237 795h-40q0 57 22 86t58 29q28 0 49.5-19t39.5-37.5 36-18.5q17 0 28.5 18.5T442 910h40q0-57-22-86t-58-29q-22 0-40.5 11.5t-29.5 26-25.5 26T277 870z"/><glyph glyph-name="Adieresis" unicode="Ä" horiz-adv-x="680" d="M495 255 340 630 185 255h310zm20-50H165L80 0H25l290 700h50L655 0h-55zM220 859q0 15 10 25t25 10 25-10 10-25-10-25-25-10-25 10-10 25zm175 0q0 15 10 25t25 10 25-10 10-25-10-25-25-10-25 10-10 25z"/><glyph glyph-name="Aring" unicode="Å" horiz-adv-x="680" d="M495 255 340 630 185 255h310zm20-50H165L80 0H25l290 700h50L655 0h-55zM285 860q0-55 55-55t55 55-55 55-55-55zm150 0q0-41-27-68t-68-27-68 27-27 68 27 68 68 27 68-27 27-68z"/><glyph glyph-name="AE" unicode="Æ" horiz-adv-x="945" d="M525 50h380V0H475v215H155L35 0h-55l390 700h525v-50H525V390h290v-50H525V50zM396 650 180 265h295v385h-79z"/><glyph glyph-name="Ccedilla" unicode="Ç" horiz-adv-x="750" d="M60 350q0 150 104 255t251 105q53 0 102-15.5t81-37.5 56-44 35-37l11-16-35-30q-3 5-9.5 14T626 575.5 576 615t-70.5 31-90.5 14q-128 0-216.5-89.5T110 350t88.5-220.5T415 40q48 0 91.5 13.5t72 32.5 50 38 31.5 32l10 14 35-30q-4-6-12-16t-35-35.5-57.5-45-79.5-36T420-10l-25-50q5 5 25 5 30 0 50-20t20-50q0-31-25-53t-65-22q-20 0-40 7t-30 13l-10 7 15 28q30-25 65-25 26 0 40.5 12.5T455-125q0 15-12 27.5T415-85q-9 0-17.5-2.5T384-92l-4-3-25 25 30 61Q248 2 154 105T60 350z"/><glyph glyph-name="Egrave" unicode="È" horiz-adv-x="630" d="M160 50h430V0H110v700h470v-50H160V390h340v-50H160V50zm145 875 75-130h-40l-90 130h55z"/><glyph glyph-name="Eacute" unicode="É" horiz-adv-x="630" d="M160 50h430V0H110v700h470v-50H160V390h340v-50H160V50zm160 745 75 130h55l-90-130h-40z"/><glyph glyph-name="Ecircumflex" unicode="Ê" horiz-adv-x="630" d="M160 50h430V0H110v700h470v-50H160V390h340v-50H160V50zm210 870 105-130h-45l-85 100-85-100h-45l105 130h50z"/><glyph glyph-name="Edieresis" unicode="Ë" horiz-adv-x="630" d="M160 50h430V0H110v700h470v-50H160V390h340v-50H160V50zm65 805q0 15 10 25t25 10 25-10 10-25-10-25-25-10-25 10-10 25zm175 0q0 15 10 25t25 10 25-10 10-25-10-25-25-10-25 10-10 25z"/><glyph glyph-name="Igrave" unicode="Ì" horiz-adv-x="270" d="M110 0v700h50V0h-50zM80 925l75-130h-40L25 925h55z"/><glyph glyph-name="Iacute" unicode="Í" horiz-adv-x="270" d="M110 0v700h50V0h-50zm11 795 75 130h55l-90-130h-40z"/><glyph glyph-name="Icircumflex" unicode="Î" horiz-adv-x="270" d="M110 0v700h50V0h-50zm50 920 105-130h-45l-85 100-85-100H5l105 130h50z"/><glyph glyph-name="Idieresis" unicode="Ï" horiz-adv-x="270" d="M110 0v700h50V0h-50zM15 855q0 15 10 25t25 10 25-10 10-25-10-25-25-10-25 10-10 25zm175 0q0 15 10 25t25 10 25-10 10-25-10-25-25-10-25 10-10 25z"/><glyph glyph-name="Eth" unicode="Ð" horiz-adv-x="750" d="M20 325v50h100v325h205q156 0 260.5-101.5T690 350 585.5 101.5 325 0H120v325H20zm305 325H170V375h175v-50H170V50h155q138 0 226.5 85.5T640 350t-88.5 214.5T325 650z"/><glyph glyph-name="Ntilde" unicode="Ñ" horiz-adv-x="775" d="M615 700h50V0h-40L160 605V0h-50v700h40L615 95v605zM325 870q-17 0-28.5-18.5T285 795h-40q0 57 22 86t58 29q28 0 49.5-19t39.5-37.5 36-18.5q17 0 28.5 18.5T490 910h40q0-57-22-86t-58-29q-22 0-40.5 11.5t-29.5 26-25.5 26T325 870z"/><glyph glyph-name="Ograve" unicode="Ò" horiz-adv-x="830" d="M720 350q0 131-88.5 220.5T415 660t-216.5-89.5T110 350t88.5-220.5T415 40t216.5 89.5T720 350zm50 0q0-150-103.5-255T415-10Q268-10 164 95T60 350t104 255 251 105q148 0 251.5-105T770 350zM360 925l75-130h-40l-90 130h55z"/><glyph glyph-name="Oacute" unicode="Ó" horiz-adv-x="830" d="M720 350q0 131-88.5 220.5T415 660t-216.5-89.5T110 350t88.5-220.5T415 40t216.5 89.5T720 350zm50 0q0-150-103.5-255T415-10Q268-10 164 95T60 350t104 255 251 105q148 0 251.5-105T770 350zM400 795l75 130h55l-90-130h-40z"/><glyph glyph-name="Ocircumflex" unicode="Ô" horiz-adv-x="830" d="M720 350q0 131-88.5 220.5T415 660t-216.5-89.5T110 350t88.5-220.5T415 40t216.5 89.5T720 350zm50 0q0-150-103.5-255T415-10Q268-10 164 95T60 350t104 255 251 105q148 0 251.5-105T770 350zM440 920l105-130h-45l-85 100-85-100h-45l105 130h50z"/><glyph glyph-name="Otilde" unicode="Õ" horiz-adv-x="830" d="M720 350q0 131-88.5 220.5T415 660t-216.5-89.5T110 350t88.5-220.5T415 40t216.5 89.5T720 350zm50 0q0-150-103.5-255T415-10Q268-10 164 95T60 350t104 255 251 105q148 0 251.5-105T770 350zM355 870q-17 0-28.5-18.5T315 795h-40q0 57 22 86t58 29q28 0 49.5-19t39.5-37.5 36-18.5q17 0 28.5 18.5T520 910h40q0-57-22-86t-58-29q-22 0-40.5 11.5t-29.5 26-25.5 26T355 870z"/><glyph glyph-name="Odieresis" unicode="Ö" horiz-adv-x="830" d="M720 350q0 131-88.5 220.5T415 660t-216.5-89.5T110 350t88.5-220.5T415 40t216.5 89.5T720 350zm50 0q0-150-103.5-255T415-10Q268-10 164 95T60 350t104 255 251 105q148 0 251.5-105T770 350zM295 855q0 15 10 25t25 10 25-10 10-25-10-25-25-10-25 10-10 25zm175 0q0 15 10 25t25 10 25-10 10-25-10-25-25-10-25 10-10 25z"/><glyph glyph-name="multiply" unicode="×" horiz-adv-x="450" d="m260 310 140-140-35-35-140 140L85 135l-35 35 140 140L50 450l35 35 140-140 140 140 35-35z"/><glyph glyph-name="Oslash" unicode="Ø" horiz-adv-x="830" d="M720 350q0 53-17.5 103T668 526l-18 24-435-435q8-8 24-20.5T307 61t108-21q128 0 216.5 89.5T720 350zM615 585q-8 8-24 20.5T523 639t-108 21q-128 0-216.5-89.5T110 350q0-53 17.5-103t34.5-73l18-24zm155-235q0-150-103.5-255T415-10q-41 0-80 9.5T269 22t-48 26-31 22l-10 10-90-95-35 35 90 95q-3 4-9 11t-20.5 31-26 50T69 272t-9 78q0 150 104 255t251 105q41 0 80-9.5t66-22.5 48-26 31-22l10-10 90 95 35-35-90-95q3-4 9-11t20.5-31 26-50 20.5-65 9-78z"/><glyph glyph-name="Ugrave" unicode="Ù" horiz-adv-x="750" d="M375 40q94 0 159.5 66.5T600 270v430h50V270q0-116-81-198T375-10 181 72t-81 198v430h50V270q0-97 65.5-163.5T375 40zm-40 885 75-130h-40l-90 130h55z"/><glyph glyph-name="Uacute" unicode="Ú" horiz-adv-x="750" d="M375 40q94 0 159.5 66.5T600 270v430h50V270q0-116-81-198T375-10 181 72t-81 198v430h50V270q0-97 65.5-163.5T375 40zm-25 755 75 130h55l-90-130h-40z"/><glyph glyph-name="Ucircumflex" unicode="Û" horiz-adv-x="750" d="M375 40q94 0 159.5 66.5T600 270v430h50V270q0-116-81-198T375-10 181 72t-81 198v430h50V270q0-97 65.5-163.5T375 40zm25 880 105-130h-45l-85 100-85-100h-45l105 130h50z"/><glyph glyph-name="Udieresis" unicode="Ü" horiz-adv-x="750" d="M375 40q94 0 159.5 66.5T600 270v430h50V270q0-116-81-198T375-10 181 72t-81 198v430h50V270q0-97 65.5-163.5T375 40zM250 855q0 15 10 25t25 10 25-10 10-25-10-25-25-10-25 10-10 25zm175 0q0 15 10 25t25 10 25-10 10-25-10-25-25-10-25 10-10 25z"/><glyph glyph-name="Yacute" unicode="Ý" horiz-adv-x="620" d="m85 700 225-400 225 400h60L335 245V0h-50v245L25 700h60zm210 95 75 130h55l-90-130h-40z"/><glyph glyph-name="Thorn" unicode="Þ" horiz-adv-x="640" d="M160 570V150h145q100 0 162.5 59.5T530 360t-62.5 150.5T305 570H160zm0 50h145q119 0 197-75t78-185-78-185-197-75H160V-20h-50v740h50V620z"/><glyph glyph-name="germandbls" unicode="ß" horiz-adv-x="570" d="M365 385q6-1 16-4.5t36-17.5 46-33 36-53.5 16-76.5q0-83-60.5-141.5T305 0h-35v50h35q74 0 119.5 42.5T470 200q0 64-47.5 109.5T305 355h-35v45h5q59 0 102 41t43 94q0 54-41 92t-104 38-104-39-41-96V0H85v530q0 76 54 128t136 52q81 0 135.5-51.5T465 535q0-29-10.5-55.5t-25-43-29-28.5-24.5-18z"/><glyph glyph-name="agrave" unicode="à" horiz-adv-x="500" d="m180 270 190 30q0 62-38.5 103.5T235 445q-39 0-74-17.5T110 392l-15-17-30 30q3 3 7.5 9t21 20.5 35 26T176 481t59 9q77 0 128.5-54.5T415 300V0h-45v80q-2-4-6.5-10T343 48.5 308.5 21t-49-21.5T195-10q-69 0-114.5 40.5T35 125q0 56 39 95.5T180 270zm15-235q75 0 125 50t50 125v45l-180-30Q80 207 80 125q0-36 32.5-63T195 35zm0 660 75-130h-40l-90 130h55z"/><glyph glyph-name="aacute" unicode="á" horiz-adv-x="500" d="m180 270 190 30q0 62-38.5 103.5T235 445q-39 0-74-17.5T110 392l-15-17-30 30q3 3 7.5 9t21 20.5 35 26T176 481t59 9q77 0 128.5-54.5T415 300V0h-45v80q-2-4-6.5-10T343 48.5 308.5 21t-49-21.5T195-10q-69 0-114.5 40.5T35 125q0 56 39 95.5T180 270zm15-235q75 0 125 50t50 125v45l-180-30Q80 207 80 125q0-36 32.5-63T195 35zm25 530 75 130h55l-90-130h-40z"/><glyph glyph-name="acircumflex" unicode="â" horiz-adv-x="500" d="m180 270 190 30q0 62-38.5 103.5T235 445q-39 0-74-17.5T110 392l-15-17-30 30q3 3 7.5 9t21 20.5 35 26T176 481t59 9q77 0 128.5-54.5T415 300V0h-45v80q-2-4-6.5-10T343 48.5 308.5 21t-49-21.5T195-10q-69 0-114.5 40.5T35 125q0 56 39 95.5T180 270zm15-235q75 0 125 50t50 125v45l-180-30Q80 207 80 125q0-36 32.5-63T195 35zm75 660 105-130h-45l-85 100-85-100h-45l105 130h50z"/><glyph glyph-name="atilde" unicode="ã" horiz-adv-x="500" d="m180 270 190 30q0 62-38.5 103.5T235 445q-39 0-74-17.5T110 392l-15-17-30 30q3 3 7.5 9t21 20.5 35 26T176 481t59 9q77 0 128.5-54.5T415 300V0h-45v80q-2-4-6.5-10T343 48.5 308.5 21t-49-21.5T195-10q-69 0-114.5 40.5T35 125q0 56 39 95.5T180 270zm15-235q75 0 125 50t50 125v45l-180-30Q80 207 80 125q0-36 32.5-63T195 35zm-10 605q-17 0-28.5-18.5T145 565h-40q0 57 22 86t58 29q28 0 49.5-19t39.5-37.5 36-18.5q17 0 28.5 18.5T350 680h40q0-57-22-86t-58-29q-22 0-40.5 11.5t-29.5 26-25.5 26T185 640z"/><glyph glyph-name="adieresis" unicode="ä" horiz-adv-x="500" d="m180 270 190 30q0 62-38.5 103.5T235 445q-39 0-74-17.5T110 392l-15-17-30 30q3 3 7.5 9t21 20.5 35 26T176 481t59 9q77 0 128.5-54.5T415 300V0h-45v80q-2-4-6.5-10T343 48.5 308.5 21t-49-21.5T195-10q-69 0-114.5 40.5T35 125q0 56 39 95.5T180 270zm15-235q75 0 125 50t50 125v45l-180-30Q80 207 80 125q0-36 32.5-63T195 35zm-70 600q0 15 10 25t25 10 25-10 10-25-10-25-25-10-25 10-10 25zm175 0q0 15 10 25t25 10 25-10 10-25-10-25-25-10-25 10-10 25z"/><glyph glyph-name="aring" unicode="å" horiz-adv-x="500" d="m180 270 190 30q0 62-38.5 103.5T235 445q-39 0-74-17.5T110 392l-15-17-30 30q3 3 7.5 9t21 20.5 35 26T176 481t59 9q77 0 128.5-54.5T415 300V0h-45v80q-2-4-6.5-10T343 48.5 308.5 21t-49-21.5T195-10q-69 0-114.5 40.5T35 125q0 56 39 95.5T180 270zm15-235q75 0 125 50t50 125v45l-180-30Q80 207 80 125q0-36 32.5-63T195 35zm-5 605q0-55 55-55t55 55-55 55-55-55zm150 0q0-41-27-68t-68-27-68 27-27 68 27 68 68 27 68-27 27-68z"/><glyph glyph-name="ae" unicode="æ" horiz-adv-x="855" d="M800 225H415q4-78 58-134t122-56q47 0 85.5 21.5T734 99l16 21 30-30q-2-4-7-11t-22-24-37-30-52-24-67-11q-39 0-74 14.5t-57 35-38.5 41T402 116l-7 14q-2-6-5.5-15.5t-19-33.5-36-42.5T277 5t-82-15q-69 0-114.5 40.5T35 125q0 64 42 104.5T190 270h180v30q0 62-38.5 103.5T235 445q-39 0-74-17.5T110 392l-15-17-30 30q3 3 7.5 9t21 20.5 35 26T176 481t59 9q36 0 66.5-12.5t48-30 29.5-35 17-30.5l4-12q3 5 8.5 13t24 28.5 39 36.5 52.5 29 66 13q85 0 147.5-70.5T800 240v-15zM590 445q-64 0-117.5-53.5T415 270h340q-4 74-52.5 124.5T590 445zM195 35q75 0 125 50t50 125v15H190q-52 0-81-27.5T80 125q0-36 32.5-63T195 35z"/><glyph glyph-name="ccedilla" unicode="ç" horiz-adv-x="515" d="M45 240q0 104 70 177t165 73q35 0 67.5-10.5t53.5-25 37.5-29T462 400l8-10-35-30-6 9-18.5 20.5-31 26L336 436l-56 9q-76 0-133-60T90 240t57-145 133-60q47 0 85.5 21.5T420 99l15 21 35-30-7.5-10.5-21.5-23L404.5 27 354 2.5 290-10l-25-50q5 5 25 5 30 0 50-20t20-50q0-31-25-53t-65-22q-20 0-40 7t-30 13l-10 7 15 28q30-25 65-25 26 0 40.5 12.5T325-125q0 15-12 27.5T285-85q-9 0-17.5-2.5T254-92l-4-3-25 25 31 62q-88 9-149.5 80T45 240z"/><glyph glyph-name="egrave" unicode="è" horiz-adv-x="550" d="M495 220H90q4-75 59.5-130T280 35q29 0 56.5 8.5t45.5 21 31.5 25T434 110l6 9 30-29-8-11-23-24-38-30-53-24-68-11q-95 0-165 73T45 240q0 103 69 176.5T275 490t156-70 64-180v-20zM275 445q-71 0-126-54T90 265h360q-4 78-53.5 129T275 445zm-50 250 75-130h-40l-90 130h55z"/><glyph glyph-name="eacute" unicode="é" horiz-adv-x="550" d="M495 220H90q4-75 59.5-130T280 35q29 0 56.5 8.5t45.5 21 31.5 25T434 110l6 9 30-29-8-11-23-24-38-30-53-24-68-11q-95 0-165 73T45 240q0 103 69 176.5T275 490t156-70 64-180v-20zM275 445q-71 0-126-54T90 265h360q-4 78-53.5 129T275 445zm-20 120 75 130h55l-90-130h-40z"/><glyph glyph-name="ecircumflex" unicode="ê" horiz-adv-x="550" d="M495 220H90q4-75 59.5-130T280 35q29 0 56.5 8.5t45.5 21 31.5 25T434 110l6 9 30-29-8-11-23-24-38-30-53-24-68-11q-95 0-165 73T45 240q0 103 69 176.5T275 490t156-70 64-180v-20zM275 445q-71 0-126-54T90 265h360q-4 78-53.5 129T275 445zm25 250 105-130h-45l-85 100-85-100h-45l105 130h50z"/><glyph glyph-name="edieresis" unicode="ë" horiz-adv-x="550" d="M495 220H90q4-75 59.5-130T280 35q29 0 56.5 8.5t45.5 21 31.5 25T434 110l6 9 30-29-8-11-23-24-38-30-53-24-68-11q-95 0-165 73T45 240q0 103 69 176.5T275 490t156-70 64-180v-20zM275 445q-71 0-126-54T90 265h360q-4 78-53.5 129T275 445zM155 635q0 15 10 25t25 10 25-10 10-25-10-25-25-10-25 10-10 25zm175 0q0 15 10 25t25 10 25-10 10-25-10-25-25-10-25 10-10 25z"/><glyph glyph-name="igrave" unicode="ì" horiz-adv-x="225" d="M85 0v480h45V0H85zM50 695l75-130H85L-5 695h55z"/><glyph glyph-name="iacute" unicode="í" horiz-adv-x="225" d="M85 0v480h45V0H85zm0 565 75 130h55l-90-130H85z"/><glyph glyph-name="icircumflex" unicode="î" horiz-adv-x="225" d="M85 0v480h45V0H85zm45 695 105-130h-45l-85 100-85-100h-45L80 695h50z"/><glyph glyph-name="idieresis" unicode="ï" horiz-adv-x="225" d="M85 0v480h45V0H85zM-15 635q0 15 10 25t25 10 25-10 10-25-10-25-25-10-25 10-10 25zm175 0q0 15 10 25t25 10 25-10 10-25-10-25-25-10-25 10-10 25z"/><glyph glyph-name="eth" unicode="ð" horiz-adv-x="570" d="m415 745-105-75q8-4 21-13t46.5-42 59.5-72 47-104.5T505 300q0-144-68-227T270-10q-91 0-158 70T45 230t67 170 158 70q35 0 67-12.5t52.5-30 36-35T448 362l7-12q-4 56-24 106.5T385 539t-51 56-42 35l-17 10-110-80-25 35 95 70q-24 13-54 27t-48 21l-18 7 15 40q85-30 145-65l115 85zm35-515q0 81-54 138t-126 57-126-57-54-138 54-138 126-57 126 57 54 138z"/><glyph glyph-name="ntilde" unicode="ñ" horiz-adv-x="575" d="M130 480v-85l5.5 10.5 18 22.5 31.5 28.5 46.5 23L295 490q83 0 139-58t56-147V0h-45v285q0 70-43 115t-107 45q-68 0-116.5-50.5T130 270V0H85v480h45zm95 160q-17 0-28.5-18.5T185 565h-40q0 57 22 86t58 29q28 0 49.5-19t39.5-37.5 36-18.5q17 0 28.5 18.5T390 680h40q0-57-22-86t-58-29q-22 0-40.5 11.5t-29.5 26-25.5 26T225 640z"/><glyph glyph-name="ograve" unicode="ò" d="M45 240q0 104 71 177t169 73 169-73 71-177-71-177-169-73-169 73-71 177zm435 0q0 85-57.5 145T285 445t-137.5-60T90 240t57.5-145T285 35t137.5 60T480 240zM230 695l75-130h-40l-90 130h55z"/><glyph glyph-name="oacute" unicode="ó" d="M45 240q0 104 71 177t169 73 169-73 71-177-71-177-169-73-169 73-71 177zm435 0q0 85-57.5 145T285 445t-137.5-60T90 240t57.5-145T285 35t137.5 60T480 240zM265 565l75 130h55l-90-130h-40z"/><glyph glyph-name="ocircumflex" unicode="ô" d="M45 240q0 104 71 177t169 73 169-73 71-177-71-177-169-73-169 73-71 177zm435 0q0 85-57.5 145T285 445t-137.5-60T90 240t57.5-145T285 35t137.5 60T480 240zM310 695l105-130h-45l-85 100-85-100h-45l105 130h50z"/><glyph glyph-name="otilde" unicode="õ" d="M45 240q0 104 71 177t169 73 169-73 71-177-71-177-169-73-169 73-71 177zm435 0q0 85-57.5 145T285 445t-137.5-60T90 240t57.5-145T285 35t137.5 60T480 240zM220 640q-17 0-28.5-18.5T180 565h-40q0 57 22 86t58 29q28 0 49.5-19t39.5-37.5 36-18.5q17 0 28.5 18.5T385 680h40q0-57-22-86t-58-29q-22 0-40.5 11.5t-29.5 26-25.5 26T220 640z"/><glyph glyph-name="odieresis" unicode="ö" d="M45 240q0 104 71 177t169 73 169-73 71-177-71-177-169-73-169 73-71 177zm435 0q0 85-57.5 145T285 445t-137.5-60T90 240t57.5-145T285 35t137.5 60T480 240zM160 635q0 15 10 25t25 10 25-10 10-25-10-25-25-10-25 10-10 25zm175 0q0 15 10 25t25 10 25-10 10-25-10-25-25-10-25 10-10 25z"/><glyph glyph-name="divide" unicode="÷" horiz-adv-x="500" d="M455 315v-45H45v45h410zM215 475q0 15 10 25t25 10 25-10 10-25-10-25-25-10-25 10-10 25zm70-365q0-15-10-25t-25-10-25 10-10 25 10 25 25 10 25-10 10-25z"/><glyph glyph-name="oslash" unicode="ø" d="m130 115 280 285q-6 5-17 12.5t-44 20-64 12.5q-80 0-137.5-60T90 240q0-33 10-64.5t20-45.5zm395 125q0-104-71-177T285-10q-42 0-81 15t-56 30l-18 15-65-70-30 30 65 70q-6 7-15 20.5T60.5 156 45 240q0 104 71 177t169 73q42 0 81-15t56-30l18-15 65 70 30-30-65-70q6-7 15-20.5t24.5-55.5 15.5-84zm-85 125L160 80q6-5 17-12.5t44-20T285 35q80 0 137.5 60T480 240q0 33-10 64.5T450 350z"/><glyph glyph-name="ugrave" unicode="ù" d="M445 0v85l-5.5-10.5-18-22.5L390 23.5 343.5.5 280-10q-83 0-139 58T85 195v285h45V195q0-70 43-115t107-45q68 0 116.5 50.5T445 210v270h45V0h-45zM240 695l75-130h-40l-90 130h55z"/><glyph glyph-name="uacute" unicode="ú" d="M445 0v85l-5.5-10.5-18-22.5L390 23.5 343.5.5 280-10q-83 0-139 58T85 195v285h45V195q0-70 43-115t107-45q68 0 116.5 50.5T445 210v270h45V0h-45zM260 565l75 130h55l-90-130h-40z"/><glyph glyph-name="ucircumflex" unicode="û" d="M445 0v85l-5.5-10.5-18-22.5L390 23.5 343.5.5 280-10q-83 0-139 58T85 195v285h45V195q0-70 43-115t107-45q68 0 116.5 50.5T445 210v270h45V0h-45zM310 695l105-130h-45l-85 100-85-100h-45l105 130h50z"/><glyph glyph-name="udieresis" unicode="ü" d="M445 0v85l-5.5-10.5-18-22.5L390 23.5 343.5.5 280-10q-83 0-139 58T85 195v285h45V195q0-70 43-115t107-45q68 0 116.5 50.5T445 210v270h45V0h-45zM160 625q0 15 10 25t25 10 25-10 10-25-10-25-25-10-25 10-10 25zm175 0q0 15 10 25t25 10 25-10 10-25-10-25-25-10-25 10-10 25z"/><glyph glyph-name="yacute" unicode="ý" horiz-adv-x="480" d="m175-90 35 90L15 480h50L235 60l170 420h50L225-90q-26-65-57-92.5T85-210q-11 0-22.5 2.5T46-202l-6 2v45q20-10 45-10 33 0 54 18t36 57zm50 655 75 130h55l-90-130h-40z"/><glyph glyph-name="thorn" unicode="þ" horiz-adv-x="595" d="M130 240q0-85 56-145t129-60q69 0 124.5 60.5T495 240t-55.5 144.5T315 445q-73 0-129-60t-56-145zm0-145v-305H85v910h45V385q2 4 7 11t22 25.5 37 32 52 25 67 11.5q88 0 156.5-73.5T540 240 471.5 63.5 315-10q-35 0-67 11t-52.5 26-36 30.5T137 84z"/><glyph glyph-name="ydieresis" unicode="ÿ" horiz-adv-x="480" d="m175-90 35 90L15 480h50L235 60l170 420h50L225-90q-26-65-57-92.5T85-210q-11 0-22.5 2.5T46-202l-6 2v45q20-10 45-10 33 0 54 18t36 57zm-65 725q0 15 10 25t25 10 25-10 10-25-10-25-25-10-25 10-10 25zm175 0q0 15 10 25t25 10 25-10 10-25-10-25-25-10-25 10-10 25z"/><glyph glyph-name="Amacron" unicode="Ā" horiz-adv-x="680" d="M495 255 340 630 185 255h310zm20-50H165L80 0H25l290 700h50L655 0h-55zm-40 675v-40H205v40h270z"/><glyph glyph-name="amacron" unicode="ā" horiz-adv-x="500" d="m180 270 190 30q0 62-38.5 103.5T235 445q-39 0-74-17.5T110 392l-15-17-30 30q3 3 7.5 9t21 20.5 35 26T176 481t59 9q77 0 128.5-54.5T415 300V0h-45v80q-2-4-6.5-10T343 48.5 308.5 21t-49-21.5T195-10q-69 0-114.5 40.5T35 125q0 56 39 95.5T180 270zm15-235q75 0 125 50t50 125v45l-180-30Q80 207 80 125q0-36 32.5-63T195 35zm185 625v-40H110v40h270z"/><glyph glyph-name="Abreve" unicode="Ă" horiz-adv-x="680" d="M495 255 340 630 185 255h310zm20-50H165L80 0H25l290 700h50L655 0h-55zM340 835q41 0 65.5 24.5T430 925h40q0-56-37-93t-93-37-93 37-37 93h40q0-41 24.5-65.5T340 835z"/><glyph glyph-name="abreve" unicode="ă" horiz-adv-x="500" d="m180 270 190 30q0 62-38.5 103.5T235 445q-39 0-74-17.5T110 392l-15-17-30 30q3 3 7.5 9t21 20.5 35 26T176 481t59 9q77 0 128.5-54.5T415 300V0h-45v80q-2-4-6.5-10T343 48.5 308.5 21t-49-21.5T195-10q-69 0-114.5 40.5T35 125q0 56 39 95.5T180 270zm15-235q75 0 125 50t50 125v45l-180-30Q80 207 80 125q0-36 32.5-63T195 35zm50 570q41 0 65.5 24.5T335 695h40q0-56-37-93t-93-37-93 37-37 93h40q0-41 24.5-65.5T245 605z"/><glyph glyph-name="Aogonek" unicode="Ą" horiz-adv-x="680" d="M655 0h-20l-18-18.5-29-42-18-54.5q0-23 14.5-36.5T625-165q13 0 28 3.5t23 7.5l9 4v-35q-30-15-60-15-41 0-65.5 23.5T535-115q0 29 16.5 57.5T584-14l16 14-85 205H165L80 0H25l290 700h50zM495 255 340 630 185 255h310z"/><glyph glyph-name="aogonek" unicode="ą" horiz-adv-x="500" d="M415 0h-10l-18-18.5-29-42-18-54.5q0-23 14.5-36.5T395-165q13 0 28 3.5t23 7.5l9 4v-35q-30-15-60-15-41 0-65.5 23.5T305-115q0 29 16.5 57.5T354-14l16 14v80q-2-4-6.5-10T343 48.5 308.5 21t-49-21.5T195-10q-69 0-114.5 40.5T35 125q0 56 39 95.5T180 270l190 30q0 62-38.5 103.5T235 445q-39 0-74-17.5T110 392l-15-17-30 30q3 3 7.5 9t21 20.5 35 26T176 481t59 9q77 0 128.5-54.5T415 300V0zM195 35q75 0 125 50t50 125v45l-180-30Q80 207 80 125q0-36 32.5-63T195 35z"/><glyph glyph-name="Cacute" unicode="Ć" horiz-adv-x="750" d="M60 350q0 150 104 255t251 105q53 0 102-15.5t81-37.5 56-44 35-37l11-16-35-30q-3 5-9.5 14T626 575.5 576 615t-70.5 31-90.5 14q-128 0-216.5-89.5T110 350t88.5-220.5T415 40q48 0 91.5 13.5t72 32.5 50 38 31.5 32l10 14 35-30q-4-6-12-16t-35.5-36T599 42 518 6 415-10Q268-10 164 95T60 350zm325 445 75 130h55l-90-130h-40z"/><glyph glyph-name="cacute" unicode="ć" horiz-adv-x="515" d="M45 240q0 104 70 177t165 73q35 0 67.5-10.5t53.5-25 37.5-29T462 400l8-10-35-30-6 9-18.5 20.5-31 26L336 436l-56 9q-76 0-133-60T90 240t57-145 133-60q47 0 85.5 21.5T420 99l15 21 35-30-8-11-23-24-38-30-53-24-68-11q-95 0-165 73T45 240zm215 325 75 130h55l-90-130h-40z"/><glyph glyph-name="Ccircumflex" unicode="Ĉ" horiz-adv-x="750" d="M60 350q0 150 104 255t251 105q53 0 102-15.5t81-37.5 56-44 35-37l11-16-35-30q-3 5-9.5 14T626 575.5 576 615t-70.5 31-90.5 14q-128 0-216.5-89.5T110 350t88.5-220.5T415 40q48 0 91.5 13.5t72 32.5 50 38 31.5 32l10 14 35-30q-4-6-12-16t-35.5-36T599 42 518 6 415-10Q268-10 164 95T60 350zm375 575 105-130h-45l-85 100-85-100h-45l105 130h50z"/><glyph glyph-name="ccircumflex" unicode="ĉ" horiz-adv-x="515" d="M45 240q0 104 70 177t165 73q35 0 67.5-10.5t53.5-25 37.5-29T462 400l8-10-35-30-6 9-18.5 20.5-31 26L336 436l-56 9q-76 0-133-60T90 240t57-145 133-60q47 0 85.5 21.5T420 99l15 21 35-30-8-11-23-24-38-30-53-24-68-11q-95 0-165 73T45 240zm255 455 105-130h-45l-85 100-85-100h-45l105 130h50z"/><glyph glyph-name="Ccaron" unicode="Č" horiz-adv-x="750" d="M60 350q0 150 104 255t251 105q53 0 102-15.5t81-37.5 56-44 35-37l11-16-35-30q-3 5-9.5 14T626 575.5 576 615t-70.5 31-90.5 14q-128 0-216.5-89.5T110 350t88.5-220.5T415 40q48 0 91.5 13.5t72 32.5 50 38 31.5 32l10 14 35-30q-4-6-12-16t-35.5-36T599 42 518 6 415-10Q268-10 164 95T60 350zm475 575L430 795h-50L275 925h45l85-100 85 100h45z"/><glyph glyph-name="ccaron" unicode="č" horiz-adv-x="515" d="M45 240q0 104 70 177t165 73q35 0 67.5-10.5t53.5-25 37.5-29T462 400l8-10-35-30-6 9-18.5 20.5-31 26L336 436l-56 9q-76 0-133-60T90 240t57-145 133-60q47 0 85.5 21.5T420 99l15 21 35-30-8-11-23-24-38-30-53-24-68-11q-95 0-165 73T45 240zm360 455L300 565h-50L145 695h45l85-100 85 100h45z"/><glyph glyph-name="Dcaron" unicode="Ď" horiz-adv-x="740" d="M110 700h205q156 0 260.5-101.5T680 350 575.5 101.5 315 0H110v700zm205-50H160V50h155q138 0 226.5 85.5T630 350t-88.5 214.5T315 650zm175 275L385 795h-50L230 925h45l85-100 85 100h45z"/><glyph glyph-name="dcaron" unicode="ď" horiz-adv-x="630" d="M455 240q0 85-56 145t-129 60q-69 0-124.5-60.5T90 240t55.5-144.5T270 35q73 0 129 60t56 145zm0 145v315h45V0h-45v95q-2-4-7-11t-22-25.5-37-32-52-25T270-10q-88 0-156.5 73.5T45 240t68.5 176.5T270 490q35 0 67-11t52.5-26 36-30.5T448 396zm120 180 45 135h50l-60-135h-35z"/><glyph glyph-name="Dcroat" unicode="Đ" horiz-adv-x="750" d="M20 325v50h100v325h205q156 0 260.5-101.5T690 350 585.5 101.5 325 0H120v325H20zm305 325H170V375h175v-50H170V50h155q138 0 226.5 85.5T640 350t-88.5 214.5T325 650z"/><glyph glyph-name="dcroat" unicode="đ" horiz-adv-x="600" d="M455 365v190H310v45h145v100h45V600h80v-45h-80V0h-45v95q-2-4-7-11t-22-25.5-37-32-52-25T270-10q-87 0-156 72T45 230t69 168 156 72q35 0 67-11t52.5-26 36-30.5T448 376zm0-135q0 78-56.5 136.5T270 425q-69 0-124.5-58.5T90 230t55.5-136.5T270 35q72 0 128.5 58.5T455 230z"/><glyph glyph-name="Emacron" unicode="Ē" horiz-adv-x="630" d="M160 50h430V0H110v700h470v-50H160V390h340v-50H160V50zm320 830v-40H210v40h270z"/><glyph glyph-name="emacron" unicode="ē" horiz-adv-x="550" d="M495 220H90q4-75 59.5-130T280 35q29 0 56.5 8.5t45.5 21 31.5 25T434 110l6 9 30-29-8-11-23-24-38-30-53-24-68-11q-95 0-165 73T45 240q0 103 69 176.5T275 490t156-70 64-180v-20zM275 445q-71 0-126-54T90 265h360q-4 78-53.5 129T275 445zm135 205v-40H140v40h270z"/><glyph glyph-name="Edotaccent" unicode="Ė" horiz-adv-x="630" d="M160 50h430V0H110v700h470v-50H160V390h340v-50H160V50zm150 810q0 15 10 25t25 10 25-10 10-25-10-25-25-10-25 10-10 25z"/><glyph glyph-name="edotaccent" unicode="ė" horiz-adv-x="550" d="M495 220H90q4-75 59.5-130T280 35q29 0 56.5 8.5t45.5 21 31.5 25T434 110l6 9 30-29-8-11-23-24-38-30-53-24-68-11q-95 0-165 73T45 240q0 103 69 176.5T275 490t156-70 64-180v-20zM275 445q-71 0-126-54T90 265h360q-4 78-53.5 129T275 445zm-35 185q0 15 10 25t25 10 25-10 10-25-10-25-25-10-25 10-10 25z"/><glyph glyph-name="Eogonek" unicode="Ę" horiz-adv-x="630" d="M555 0H110v700h470v-50H160V390h340v-50H160V50h430V0l-18-18.5-29-42-18-54.5q0-23 14.5-36.5T580-165q13 0 28 3.5t24 7.5l8 4v-35q-30-15-60-15-41 0-65.5 23.5T490-115q0 29 16 57.5T538-14z"/><glyph glyph-name="eogonek" unicode="ę" horiz-adv-x="550" d="M495 220H90q4-75 59.5-130T280 35q29 0 56.5 8.5t45.5 21 31.5 25T434 110l6 9 30-29q-2-3-6.5-9T443 59.5t-33.5-28T364 7 306-8q-56-59-56-107 0-23 14.5-36.5T305-165q13 0 28 3.5t23 7.5l9 4v-35q-30-15-60-15-41 0-65.5 23.5T215-115q0 55 53 105-91 5-157 77T45 240q0 103 69 176.5T275 490t156-70 64-180v-20zM275 445q-71 0-126-54T90 265h360q-4 78-53.5 129T275 445z"/><glyph glyph-name="Ecaron" unicode="Ě" horiz-adv-x="630" d="M160 50h430V0H110v700h470v-50H160V390h340v-50H160V50zm315 870L370 790h-50L215 920h45l85-100 85 100h45z"/><glyph glyph-name="ecaron" unicode="ě" horiz-adv-x="550" d="M495 220H90q4-75 59.5-130T280 35q29 0 56.5 8.5t45.5 21 31.5 25T434 110l6 9 30-29-8-11-23-24-38-30-53-24-68-11q-95 0-165 73T45 240q0 103 69 176.5T275 490t156-70 64-180v-20zM275 445q-71 0-126-54T90 265h360q-4 78-53.5 129T275 445zm130 250L300 565h-50L145 695h45l85-100 85 100h45z"/><glyph glyph-name="Gbreve" unicode="Ğ" horiz-adv-x="790" d="M60 350q0 150 104 255t251 105q53 0 102-15.5t81-37.5 56-44 35-37l11-16-35-30q-3 5-9.5 14T626 575.5 576 615t-70.5 31-90.5 14q-128 0-216.5-89.5T110 350t88.5-220.5T415 40q45 0 86.5 12t69 29 49 33.5T650 143l10 12v145H480v50h230V140q-4-6-12.5-16T661 88t-60-46-82.5-36T415-10Q268-10 164 95T60 350zm345 480q41 0 65.5 24.5T495 920h40q0-56-37-93t-93-37-93 37-37 93h40q0-41 24.5-65.5T405 830z"/><glyph glyph-name="gbreve" unicode="ğ" horiz-adv-x="585" d="M90 250q0-81 53-138t122-57q70 0 125 57.5T445 250t-55 137.5T265 445q-69 0-122-57T90 250zM445 30v80q-2-4-6.5-11t-21-24T382 45t-50.5-24T265 10q-88 0-154 70T45 250t66 170 154 70q35 0 66.5-10.5t51-25 34.5-29 21-25.5l7-10v90h45V30q0-100-67.5-170T260-210q-36 0-69 10.5t-54 25-37 29T77-120l-7 10 30 30q2-3 6.5-9t19.5-20.5 32-26 45-20.5 57-9q76 0 130.5 56.5T445 30zM280 605q41 0 65.5 24.5T370 695h40q0-56-37-93t-93-37-93 37-37 93h40q0-41 24.5-65.5T280 605z"/><glyph glyph-name="Gcommaaccent" unicode="Ģ" horiz-adv-x="790" d="M60 350q0 150 104 255t251 105q53 0 102-15.5t81-37.5 56-44 35-37l11-16-35-30q-3 5-9.5 14T626 575.5 576 615t-70.5 31-90.5 14q-128 0-216.5-89.5T110 350t88.5-220.5T415 40q45 0 86.5 12t69 29 49 33.5T650 143l10 12v145H480v50h230V140q-4-6-12.5-16T661 88t-60-46-82.5-36T415-10Q268-10 164 95T60 350zm287-565 45 135h50l-60-135h-35z"/><glyph glyph-name="gcommaaccent" unicode="ģ" horiz-adv-x="585" d="M90 250q0-81 53-138t122-57q70 0 125 57.5T445 250t-55 137.5T265 445q-69 0-122-57T90 250zM445 30v80q-2-4-6.5-11t-21-24T382 45t-50.5-24T265 10q-88 0-154 70T45 250t66 170 154 70q35 0 66.5-10.5t51-25 34.5-29 21-25.5l7-10v90h45V30q0-100-67.5-170T260-210q-36 0-69 10.5t-54 25-37 29T77-120l-7 10 30 30q2-3 6.5-9t19.5-20.5 32-26 45-20.5 57-9q76 0 130.5 56.5T445 30zM345 695l-45-135h-50l60 135h35z"/><glyph glyph-name="Imacron" unicode="Ī" horiz-adv-x="270" d="M110 0v700h50V0h-50zm160 880v-40H0v40h270z"/><glyph glyph-name="imacron" unicode="ī" horiz-adv-x="225" d="M85 0v480h45V0H85zm155 650v-40H-30v40h270z"/><glyph glyph-name="Iogonek" unicode="Į" horiz-adv-x="270" d="M160 0h-15l-18-18.5-29-42L80-115q0-23 14.5-36.5T135-165q13 0 28 3.5t23 7.5l9 4v-35q-30-15-60-15-41 0-65.5 23.5T45-115q0 29 16.5 57.5T94-14l16 14v700h50V0z"/><glyph glyph-name="iogonek" unicode="į" horiz-adv-x="225" d="M130 0h-10l-18-18.5-29-42L55-115q0-23 14.5-36.5T110-165q13 0 28 3.5t24 7.5l8 4v-35q-30-15-60-15-41 0-65.5 23.5T20-115q0 29 16 57.5T68-14L85 0v480h45V0zM75 650q0 15 10 25t25 10 25-10 10-25-10-25-25-10-25 10-10 25z"/><glyph glyph-name="Idotaccent" unicode="İ" horiz-adv-x="270" d="M110 0v700h50V0h-50zm-10 860q0 15 10 25t25 10 25-10 10-25-10-25-25-10-25 10-10 25z"/><glyph glyph-name="dotlessi" unicode="ı" horiz-adv-x="225" d="M85 0v480h45V0H85z"/><glyph glyph-name="i_j" unicode="ĳ" horiz-adv-x="470" d="M330-80v95q-35-25-85-25-68 0-114 47T85 155v325h45V155q0-52 33-86t82-34q22 0 43.5 7.5T320 58l10 7v415h45V-80q0-59-33.5-94.5T255-210q-16 0-31 3.5t-22 6.5l-7 4v46q25-15 60-15 34 0 54.5 22T330-80zM75 650q0 15 10 25t25 10 25-10 10-25-10-25-25-10-25 10-10 25zm240 0q0 15 10 25t25 10 25-10 10-25-10-25-25-10-25 10-10 25z"/><glyph glyph-name="Kcommaaccent" unicode="Ķ" horiz-adv-x="655" d="m160 270 390 430h65L350 410 640 0h-60L320 375 160 200V0h-50v700h50V270zm125-485 45 135h50l-60-135h-35z"/><glyph glyph-name="kcommaaccent" unicode="ķ" horiz-adv-x="500" d="M130 130V0H85v700h45V195l265 285h60L275 285 480 0h-55L245 250h-5zm75-345 45 135h50l-60-135h-35z"/><glyph glyph-name="Lacute" unicode="Ĺ" horiz-adv-x="560" d="M535 0H110v700h50V50h375V0zM120 795l75 130h55l-90-130h-40z"/><glyph glyph-name="lacute" unicode="ĺ" horiz-adv-x="225" d="M130 700V0H85v700h45zm-35 95 75 130h55l-90-130H95z"/><glyph glyph-name="Lcommaaccent" unicode="Ļ" horiz-adv-x="560" d="M535 0H110v700h50V50h375V0zM265-215l45 135h50l-60-135h-35z"/><glyph glyph-name="lcommaaccent" unicode="ļ" horiz-adv-x="225" d="M130 700V0H85v700h45zM35-215 80-80h50L70-215H35z"/><glyph glyph-name="Lcaron" unicode="Ľ" horiz-adv-x="560" d="M535 0H110v700h50V50h375V0zM270 565l45 135h50l-60-135h-35z"/><glyph glyph-name="lcaron" unicode="ľ" horiz-adv-x="264" d="M130 700V0H85v700h45zm74-135 45 135h50l-60-135h-35z"/><glyph glyph-name="Lslash" unicode="Ł" horiz-adv-x="600" d="M580 0H155v300L35 230l-25 40 145 85v345h50V385l155 92 25-42-180-105V50h375V0z"/><glyph glyph-name="lslash" unicode="ł" horiz-adv-x="335" d="M185 700V405l130 80 20-35-150-90V0h-45v335L10 255l-20 35 150 90v320h45z"/><glyph glyph-name="Nacute" unicode="Ń" horiz-adv-x="775" d="M615 700h50V0h-40L160 605V0h-50v700h40L615 95v605zm-245 95 75 130h55l-90-130h-40z"/><glyph glyph-name="nacute" unicode="ń" horiz-adv-x="575" d="M130 480v-85l5.5 10.5 18 22.5 31.5 28.5 46.5 23L295 490q83 0 139-58t56-147V0h-45v285q0 70-43 115t-107 45q-68 0-116.5-50.5T130 270V0H85v480h45zm140 85 75 130h55l-90-130h-40z"/><glyph glyph-name="Ncommaaccent" unicode="Ņ" horiz-adv-x="775" d="M615 700h50V0h-40L160 605V0h-50v700h40L615 95v605zM335-215l45 135h50l-60-135h-35z"/><glyph glyph-name="ncommaaccent" unicode="ņ" horiz-adv-x="575" d="M130 480v-85l5.5 10.5 18 22.5 31.5 28.5 46.5 23L295 490q83 0 139-58t56-147V0h-45v285q0 70-43 115t-107 45q-68 0-116.5-50.5T130 270V0H85v480h45zm95-695 45 135h50l-60-135h-35z"/><glyph glyph-name="Ncaron" unicode="Ň" horiz-adv-x="775" d="M615 700h50V0h-40L160 605V0h-50v700h40L615 95v605zM515 920 410 790h-50L255 920h45l85-100 85 100h45z"/><glyph glyph-name="ncaron" unicode="ň" horiz-adv-x="575" d="M130 480v-85l5.5 10.5 18 22.5 31.5 28.5 46.5 23L295 490q83 0 139-58t56-147V0h-45v285q0 70-43 115t-107 45q-68 0-116.5-50.5T130 270V0H85v480h45zm285 215L310 565h-50L155 695h45l85-100 85 100h45z"/><glyph glyph-name="Omacron" unicode="Ō" horiz-adv-x="830" d="M720 350q0 131-88.5 220.5T415 660t-216.5-89.5T110 350t88.5-220.5T415 40t216.5 89.5T720 350zm50 0q0-150-103.5-255T415-10Q268-10 164 95T60 350t104 255 251 105q148 0 251.5-105T770 350zM550 880v-40H280v40h270z"/><glyph glyph-name="omacron" unicode="ō" d="M45 240q0 104 71 177t169 73 169-73 71-177-71-177-169-73-169 73-71 177zm435 0q0 85-57.5 145T285 445t-137.5-60T90 240t57.5-145T285 35t137.5 60T480 240zm-60 410v-40H150v40h270z"/><glyph glyph-name="Ohungarumlaut" unicode="Ő" horiz-adv-x="830" d="M720 350q0 131-88.5 220.5T415 660t-216.5-89.5T110 350t88.5-220.5T415 40t216.5 89.5T720 350zm50 0q0-150-103.5-255T415-10Q268-10 164 95T60 350t104 255 251 105q148 0 251.5-105T770 350zM320 790l75 130h55l-90-130h-40zm145 0 75 130h55l-90-130h-40z"/><glyph glyph-name="ohungarumlaut" unicode="ő" d="M45 240q0 104 71 177t169 73 169-73 71-177-71-177-169-73-169 73-71 177zm435 0q0 85-57.5 145T285 445t-137.5-60T90 240t57.5-145T285 35t137.5 60T480 240zM190 565l75 130h55l-90-130h-40zm145 0 75 130h55l-90-130h-40z"/><glyph glyph-name="OE" unicode="Œ" horiz-adv-x="990" d="M570 50h380V0H420Q267 0 163.5 101.5T60 350t103.5 248.5T420 700h520v-50H570V390h290v-50H570V50zM110 350q0-128 88-214t222-86h100v600H420q-134 0-222-86t-88-214z"/><glyph glyph-name="oe" unicode="œ" horiz-adv-x="940" d="M885 220H500q7-78 59.5-131.5T680 35q47 0 85.5 21.5T820 99l15 21 30-30q-2-4-7-11t-22-24-37-30-52-24-67-11q-41 0-77 15t-58 37-38.5 44-22.5 37l-7 15q-2-6-7-16t-22.5-35.5-38.5-45T352 6t-77-16q-88 0-156.5 73.5T50 240t68.5 176.5T275 490q41 0 76.5-15.5t57-37.5 37.5-44 22-37l7-16q2 6 6.5 16t22 36 38.5 46 56.5 36 76.5 16q85 0 147.5-70.5T885 240v-20zM95 240q0-84 55.5-144.5T275 35t124.5 60.5T455 240t-55.5 144.5T275 445t-124.5-60.5T95 240zm580 205q-64 0-117.5-54.5T500 265h340q-4 78-52 129t-113 51z"/><glyph glyph-name="Racute" unicode="Ŕ" horiz-adv-x="660" d="M110 700h265q93 0 154-59t61-146q0-46-16-83t-39-57-45.5-33.5T451 304l-16-4L605 0h-55L385 290H160V0h-50v700zm265-50H160V340h215q74 0 119.5 43.5T540 495t-45.5 111.5T375 650zm-60 145 75 130h55l-90-130h-40z"/><glyph glyph-name="racute" unicode="ŕ" horiz-adv-x="340" d="M320 490v-45h-20q-70 0-120-49t-50-126V0H85v480h45v-80q2 4 5.5 10t18 21.5T186 459t48.5 21.5T300 490h20zm-140 75 75 130h55l-90-130h-40z"/><glyph glyph-name="Rcommaaccent" unicode="Ŗ" horiz-adv-x="660" d="M110 700h265q93 0 154-59t61-146q0-46-16-83t-39-57-45.5-33.5T451 304l-16-4L605 0h-55L385 290H160V0h-50v700zm265-50H160V340h215q74 0 119.5 43.5T540 495t-45.5 111.5T375 650zm-95-865 45 135h50l-60-135h-35z"/><glyph glyph-name="rcommaaccent" unicode="ŗ" horiz-adv-x="340" d="M320 490v-45h-20q-70 0-120-49t-50-126V0H85v480h45v-80q2 4 5.5 10t18 21.5T186 459t48.5 21.5T300 490h20zM35-215 80-80h50L70-215H35z"/><glyph glyph-name="Rcaron" unicode="Ř" horiz-adv-x="660" d="M110 700h265q93 0 154-59t61-146q0-46-16-83t-39-57-45.5-33.5T451 304l-16-4L605 0h-55L385 290H160V0h-50v700zm265-50H160V340h215q74 0 119.5 43.5T540 495t-45.5 111.5T375 650zm90 270L360 790h-50L205 920h45l85-100 85 100h45z"/><glyph glyph-name="rcaron" unicode="ř" horiz-adv-x="340" d="M320 490v-45h-20q-70 0-120-49t-50-126V0H85v480h45v-80q2 4 5.5 10t18 21.5T186 459t48.5 21.5T300 490h20zm10 205L225 565h-50L70 695h45l85-100 85 100h45z"/><glyph glyph-name="Sacute" unicode="Ś" horiz-adv-x="560" d="M455 185q0 52-40 84t-97.5 49.5-115 37T105 417 65 525q0 77 61 131t159 54q36 0 70-9t56.5-21 40-24.5T477 634l8-9-35-35q-2 3-6.5 7.5t-20 16.5-33 21.5-46 17T285 660q-80 0-125-38t-45-97q0-52 40-84t97.5-49.5 115-37T465 293t40-108q0-85-62-140T275-10q-43 0-83 11t-65.5 26-45 30.5T54 84l-9 11 35 35q2-4 7-10t22.5-21.5T148 71t55-21.5 72-9.5q87 0 133.5 39.5T455 185zM260 795l75 130h55l-90-130h-40z"/><glyph glyph-name="sacute" unicode="ś" horiz-adv-x="430" d="m360 420-35-35q-2 2-5 6.5T306 406t-23 18-32 14.5-41 6.5q-50 0-80-25t-30-60q0-31 28.5-51t69-31 80.5-25 68.5-43 28.5-75q0-62-46.5-103.5T205-10q-31 0-59.5 8t-48 20-34 24T42 62l-7 8 35 35q6-8 16.5-19.5t45.5-31T205 35q58 0 91.5 28.5T330 135q0 33-28.5 53.5t-69 32-80.5 25-68.5 42T55 360q0 51 45 90.5T210 490q42 0 79.5-17.5T344 438zM185 565l75 130h55l-90-130h-40z"/><glyph glyph-name="Scedilla" unicode="Ş" horiz-adv-x="560" d="M455 185q0 52-40 84t-97.5 49.5-115 37T105 417 65 525q0 77 61 131t159 54q36 0 70-9t56.5-21 40-24.5T477 634l8-9-35-35q-2 3-6.5 7.5t-20 16.5-33 21.5-46 17T285 660q-80 0-125-38t-45-97q0-52 40-84t97.5-49.5 115-37T465 293t40-108q0-82-57.5-136.5T290-10l-25-50q5 5 25 5 30 0 50-20t20-50q0-31-25-53t-65-22q-20 0-40 7t-30 13l-10 7 15 28q30-25 65-25 26 0 40.5 12.5T325-125q0 15-12 27.5T285-85q-9 0-17.5-2.5T254-92l-4-3-25 25 30 61q-39 2-75.5 13.5t-60 26.5-41 29.5T53 85l-8 10 35 35q2-4 7-10t22.5-21.5T148 71t55-21.5 72-9.5q87 0 133.5 39.5T455 185z"/><glyph glyph-name="scedilla" unicode="ş" horiz-adv-x="430" d="m360 420-35-35q-2 2-5 6.5T306 406t-23 18-32 14.5-41 6.5q-50 0-80-25t-30-60q0-31 28.5-51t69-31 80.5-25 68.5-43 28.5-75q0-58-42-99T220-9l-25-51q5 5 25 5 30 0 50-20t20-50q0-31-25-53t-65-22q-20 0-40 7t-30 13l-10 7 15 28q30-25 65-25 26 0 40.5 12.5T255-125q0 15-12 27.5T215-85q-9 0-17.5-2.5T184-92l-4-3-25 25 30 61q-43 4-80.5 23.5T51 52L35 70l35 35q6-8 16.5-19.5t45.5-31T205 35q58 0 91.5 28.5T330 135q0 33-28.5 53.5t-69 32-80.5 25-68.5 42T55 360q0 51 45 90.5T210 490q42 0 79.5-17.5T344 438z"/><glyph glyph-name="Scaron" unicode="Š" horiz-adv-x="560" d="M455 185q0 52-40 84t-97.5 49.5-115 37T105 417 65 525q0 77 61 131t159 54q36 0 70-9t56.5-21 40-24.5T477 634l8-9-35-35q-2 3-6.5 7.5t-20 16.5-33 21.5-46 17T285 660q-80 0-125-38t-45-97q0-52 40-84t97.5-49.5 115-37T465 293t40-108q0-85-62-140T275-10q-43 0-83 11t-65.5 26-45 30.5T54 84l-9 11 35 35q2-4 7-10t22.5-21.5T148 71t55-21.5 72-9.5q87 0 133.5 39.5T455 185zm-45 735L305 790h-50L150 920h45l85-100 85 100h45z"/><glyph glyph-name="scaron" unicode="š" horiz-adv-x="430" d="m360 420-35-35q-2 2-5 6.5T306 406t-23 18-32 14.5-41 6.5q-50 0-80-25t-30-60q0-31 28.5-51t69-31 80.5-25 68.5-43 28.5-75q0-62-46.5-103.5T205-10q-31 0-59.5 8t-48 20-34 24T42 62l-7 8 35 35q6-8 16.5-19.5t45.5-31T205 35q58 0 91.5 28.5T330 135q0 33-28.5 53.5t-69 32-80.5 25-68.5 42T55 360q0 51 45 90.5T210 490q42 0 79.5-17.5T344 438zm-25 275L230 565h-50L75 695h45l85-100 85 100h45z"/><glyph glyph-name="Tcommaaccent" unicode="Ţ" horiz-adv-x="550" d="M20 700h510v-50H300V0h-50v650H20v50zm185-915 45 135h50l-60-135h-35z"/><glyph glyph-name="tcommaaccent" unicode="ţ" horiz-adv-x="350" d="M125 520v120h40V480h110v-45H165V120q0-41 20.5-63T240 35q16 0 32 3.5t24 7.5l9 4V5q-30-15-65-15-57 0-88.5 33.5T120 120v315H25v45h65q15 0 25 11t10 29zm20-735 45 135h50l-60-135h-35z"/><glyph glyph-name="Tcaron" unicode="Ť" horiz-adv-x="550" d="M20 700h510v-50H300V0h-50v650H20v50zm385 220L300 790h-50L145 920h45l85-100 85 100h45z"/><glyph glyph-name="tcaron" unicode="ť" horiz-adv-x="358" d="M125 520v120h40V480h110v-45H165V120q0-41 20.5-63T240 35q16 0 32 3.5t24 7.5l9 4V5q-30-15-65-15-57 0-88.5 33.5T120 120v315H25v45h65q15 0 25 11t10 29zm173 45 45 135h50l-60-135h-35z"/><glyph glyph-name="Umacron" unicode="Ū" horiz-adv-x="750" d="M375 40q94 0 159.5 66.5T600 270v430h50V270q0-116-81-198T375-10 181 72t-81 198v430h50V270q0-97 65.5-163.5T375 40zm135 840v-40H240v40h270z"/><glyph glyph-name="umacron" unicode="ū" d="M445 0v85l-5.5-10.5-18-22.5L390 23.5 343.5.5 280-10q-83 0-139 58T85 195v285h45V195q0-70 43-115t107-45q68 0 116.5 50.5T445 210v270h45V0h-45zm-25 650v-40H150v40h270z"/><glyph glyph-name="Uring" unicode="Ů" horiz-adv-x="750" d="M375 40q94 0 159.5 66.5T600 270v430h50V270q0-116-81-198T375-10 181 72t-81 198v430h50V270q0-97 65.5-163.5T375 40zm-50 830q0-55 55-55t55 55-55 55-55-55zm150 0q0-41-27-68t-68-27-68 27-27 68 27 68 68 27 68-27 27-68z"/><glyph glyph-name="uring" unicode="ů" d="M445 0v85l-5.5-10.5-18-22.5L390 23.5 343.5.5 280-10q-83 0-139 58T85 195v285h45V195q0-70 43-115t107-45q68 0 116.5 50.5T445 210v270h45V0h-45zM230 640q0-55 55-55t55 55-55 55-55-55zm150 0q0-41-27-68t-68-27-68 27-27 68 27 68 68 27 68-27 27-68z"/><glyph glyph-name="Uhungarumlaut" unicode="Ű" horiz-adv-x="750" d="M375 40q94 0 159.5 66.5T600 270v430h50V270q0-116-81-198T375-10 181 72t-81 198v430h50V270q0-97 65.5-163.5T375 40zM275 790l75 130h55l-90-130h-40zm145 0 75 130h55l-90-130h-40z"/><glyph glyph-name="uhungarumlaut" unicode="ű" d="M445 0v85l-5.5-10.5-18-22.5L390 23.5 343.5.5 280-10q-83 0-139 58T85 195v285h45V195q0-70 43-115t107-45q68 0 116.5 50.5T445 210v270h45V0h-45zM185 560l75 130h55l-90-130h-40zm145 0 75 130h55l-90-130h-40z"/><glyph glyph-name="Uogonek" unicode="Ų" horiz-adv-x="750" d="M375 40q94 0 159.5 66.5T600 270v430h50V270q0-106-68.5-184.5T412-7q-57-57-57-108 0-23 14.5-36.5T410-165q13 0 28 3.5t24 7.5l8 4v-35q-30-15-60-15-41 0-65.5 23.5T320-115q0 55 53 105-112 1-192.5 82.5T100 270v430h50V270q0-97 65.5-163.5T375 40z"/><glyph glyph-name="uogonek" unicode="ų" d="M490 0h-10l-18-18.5-29-42-18-54.5q0-23 14.5-36.5T470-165q13 0 28 3.5t24 7.5l8 4v-35q-30-15-60-15-41 0-65.5 23.5T380-115q0 29 16 57.5T428-14l17 14v85l-5.5-10.5-18-22.5L390 23.5 343.5.5 280-10q-83 0-139 58T85 195v285h45V195q0-70 43-115t107-45q68 0 116.5 50.5T445 210v270h45V0z"/><glyph glyph-name="Ydieresis" unicode="Ÿ" horiz-adv-x="620" d="m85 700 225-400 225 400h60L335 245V0h-50v245L25 700h60zm105 155q0 15 10 25t25 10 25-10 10-25-10-25-25-10-25 10-10 25zm175 0q0 15 10 25t25 10 25-10 10-25-10-25-25-10-25 10-10 25z"/><glyph glyph-name="Zacute" unicode="Ź" horiz-adv-x="585" d="M470 650H60v50h470v-50L105 50h435V0H45v50zM275 795l75 130h55l-90-130h-40z"/><glyph glyph-name="zacute" unicode="ź" horiz-adv-x="445" d="M395 480v-45L85 45h320V0H30v45l310 390H40v45h355zm-200 85 75 130h55l-90-130h-40z"/><glyph glyph-name="Zdotaccent" unicode="Ż" horiz-adv-x="585" d="M470 650H60v50h470v-50L105 50h435V0H45v50zM255 860q0 15 10 25t25 10 25-10 10-25-10-25-25-10-25 10-10 25z"/><glyph glyph-name="zdotaccent" unicode="ż" horiz-adv-x="445" d="M395 480v-45L85 45h320V0H30v45l310 390H40v45h355zM180 625q0 15 10 25t25 10 25-10 10-25-10-25-25-10-25 10-10 25z"/><glyph glyph-name="Zcaron" unicode="Ž" horiz-adv-x="585" d="M470 650H60v50h470v-50L105 50h435V0H45v50zm-45 270L320 790h-50L165 920h45l85-100 85 100h45z"/><glyph glyph-name="zcaron" unicode="ž" horiz-adv-x="445" d="M395 480v-45L85 45h320V0H30v45l310 390H40v45h355zm-51 215L239 565h-50L84 695h45l85-100 85 100h45z"/><glyph glyph-name="florin" unicode="ƒ" horiz-adv-x="345" d="M195 345 115-85q-13-68-43.5-99T-15-215q-16 0-32 3.5t-25 7.5l-8 4v45q30-15 65-15 70 0 85 85l80 430H65v45h95l35 190q13 68 43.5 99t86.5 31q16 0 32-4t25-8l8-3v-45q-30 15-65 15-70 0-85-85l-35-190h115v-45H195z"/><glyph glyph-name="Scommaaccent" unicode="Ș" horiz-adv-x="560" d="M455 185q0 52-40 84t-97.5 49.5-115 37T105 417 65 525q0 77 61 131t159 54q36 0 70-9t56.5-21 40-24.5T477 634l8-9-35-35q-2 3-6.5 7.5t-20 16.5-33 21.5-46 17T285 660q-80 0-125-38t-45-97q0-52 40-84t97.5-49.5 115-37T465 293t40-108q0-85-62-140T275-10q-43 0-83 11t-65.5 26-45 30.5T54 84l-9 11 35 35q2-4 7-10t22.5-21.5T148 71t55-21.5 72-9.5q87 0 133.5 39.5T455 185zM215-215l45 135h50l-60-135h-35z"/><glyph glyph-name="scommaaccent" unicode="ș" horiz-adv-x="430" d="m360 420-35-35q-2 2-5 6.5T306 406t-23 18-32 14.5-41 6.5q-50 0-80-25t-30-60q0-31 28.5-51t69-31 80.5-25 68.5-43 28.5-75q0-62-46.5-103.5T205-10q-31 0-59.5 8t-48 20-34 24T42 62l-7 8 35 35q6-8 16.5-19.5t45.5-31T205 35q58 0 91.5 28.5T330 135q0 33-28.5 53.5t-69 32-80.5 25-68.5 42T55 360q0 51 45 90.5T210 490q42 0 79.5-17.5T344 438zM140-215l45 135h50l-60-135h-35z"/><glyph glyph-name="uni021A" unicode="Ț" horiz-adv-x="550" d="M20 700h510v-50H300V0h-50v650H20v50zm185-915 45 135h50l-60-135h-35z"/><glyph glyph-name="uni021B" unicode="ț" horiz-adv-x="350" d="M125 520v120h40V480h110v-45H165V120q0-41 20.5-63T240 35q16 0 32 3.5t24 7.5l9 4V5q-30-15-65-15-57 0-88.5 33.5T120 120v315H25v45h65q15 0 25 11t10 29zm20-735 45 135h50l-60-135h-35z"/><glyph glyph-name="afii57929" unicode="ʼ" horiz-adv-x="155" d="m30 565 45 135h50L65 565H30z"/><glyph glyph-name="circumflex" unicode="ˆ" horiz-adv-x="320" d="m185 695 105-130h-45l-85 100-85-100H30l105 130h50z"/><glyph glyph-name="caron" unicode="ˇ" horiz-adv-x="320" d="M290 695 185 565h-50L30 695h45l85-100 85 100h45z"/><glyph glyph-name="breve" unicode="˘" horiz-adv-x="320" d="M160 605q41 0 65.5 24.5T250 695h40q0-56-37-93t-93-37-93 37-37 93h40q0-41 24.5-65.5T160 605z"/><glyph glyph-name="dotaccent" unicode="˙" horiz-adv-x="130" d="M30 640q0 15 10 25t25 10 25-10 10-25-10-25-25-10-25 10-10 25z"/><glyph glyph-name="ring" unicode="˚" horiz-adv-x="250" d="M70 600q0-55 55-55t55 55-55 55-55-55zm150 0q0-41-27-68t-68-27-68 27-27 68 27 68 68 27 68-27 27-68z"/><glyph glyph-name="ogonek" unicode="˛" horiz-adv-x="210" d="M95 0h35l-18-18.5-29-42L65-115q0-23 14.5-36.5T120-165q13 0 28 3.5t24 7.5l8 4v-35q-30-15-60-15-41 0-65.5 23.5T30-115q0 29 16 57.5T78-14z"/><glyph glyph-name="tilde" unicode="˜" horiz-adv-x="345" d="M110 650q-17 0-28.5-18.5T70 575H30q0 57 22 86t58 29q28 0 49.5-19t39.5-37.5 36-18.5q17 0 28.5 18.5T275 690h40q0-57-22-86t-58-29q-22 0-40.5 11.5t-29.5 26-25.5 26T110 650z"/><glyph glyph-name="hungarumlaut" unicode="˝" horiz-adv-x="335" d="m30 565 75 130h55L70 565H30zm145 0 75 130h55l-90-130h-40z"/><glyph glyph-name="afii10023" unicode="Ё" horiz-adv-x="630" d="M160 50h430V0H110v700h470v-50H160V390h340v-50H160V50zm60 805q0 15 10 25t25 10 25-10 10-25-10-25-25-10-25 10-10 25zm175 0q0 15 10 25t25 10 25-10 10-25-10-25-25-10-25 10-10 25z"/><glyph glyph-name="afii10051" unicode="Ђ" horiz-adv-x="710" d="M0 650v50h420v-50H235V375q9 8 25.5 19.5t69 31T435 445q88 0 146.5-62.5T640 220q0-108-59-169T420-10v50q79 0 124.5 47T590 220q0 77-45 126t-110 49q-53 0-103-20t-74-40l-23-20V0h-50v650H0z"/><glyph glyph-name="afii10052" unicode="Ѓ" horiz-adv-x="550" d="M110 0v700h425v-50H160V0h-50zm190 795 75 130h55l-90-130h-40z"/><glyph glyph-name="afii10053" unicode="Є" horiz-adv-x="750" d="M60 350q0 150 104 255t251 105q53 0 102-15.5t81-37.5 56-44 35-37l11-16-35-30q-3 5-9.5 14T626 575.5 576 615t-70.5 31-90.5 14q-122 0-208-81t-97-199h385v-50H110q8-121 95-205.5T415 40q48 0 91.5 13.5t72 32.5 50 38 31.5 32l10 14 35-30q-4-6-12-16t-35.5-36T599 42 518 6 415-10Q268-10 164 95T60 350z"/><glyph glyph-name="afii10054" unicode="Ѕ" horiz-adv-x="560" d="M455 185q0 52-40 84t-97.5 49.5-115 37T105 417 65 525q0 77 61 131t159 54q36 0 70-9t56.5-21 40-24.5T477 634l8-9-35-35q-2 3-6.5 7.5t-20 16.5-33 21.5-46 17T285 660q-80 0-125-38t-45-97q0-52 40-84t97.5-49.5 115-37T465 293t40-108q0-85-62-140T275-10q-43 0-83 11t-65.5 26-45 30.5T54 84l-9 11 35 35q2-4 7-10t22.5-21.5T148 71t55-21.5 72-9.5q87 0 133.5 39.5T455 185z"/><glyph glyph-name="afii10055" unicode="І" horiz-adv-x="270" d="M110 0v700h50V0h-50z"/><glyph glyph-name="afii10056" unicode="Ї" horiz-adv-x="270" d="M110 0v700h50V0h-50zM15 855q0 15 10 25t25 10 25-10 10-25-10-25-25-10-25 10-10 25zm175 0q0 15 10 25t25 10 25-10 10-25-10-25-25-10-25 10-10 25z"/><glyph glyph-name="afii10057" unicode="Ј" horiz-adv-x="490" d="M335 700h50V205q0-93-60-154T175-10q-47 0-88 19T28 46L10 65l35 35q5-7 15-17t43.5-26.5T175 40q72 0 116 45t44 120v495z"/><glyph glyph-name="afii10058" unicode="Љ" horiz-adv-x="1070" d="M785 0H550v650H235V490q0-152-13.5-254.5T182 81.5 126 10 55-10q-13 0-28 3T4-1l-9 3v48q30-10 55-10 29 0 51 17t42.5 62.5 31 139T185 490v210h415V430h185q97 0 161-62t64-153-64-153T785 0zM600 50h185q78 0 126.5 46.5T960 215t-48.5 118.5T785 380H600V50z"/><glyph glyph-name="afii10059" unicode="Њ" horiz-adv-x="1065" d="M780 0H545v380H160V0h-50v700h50V430h385v270h50V430h185q97 0 161-62t64-153-64-153T780 0zM595 50h185q78 0 126.5 46.5T955 215t-48.5 118.5T780 380H595V50z"/><glyph glyph-name="afii10060" unicode="Ћ" horiz-adv-x="730" d="M0 650v50h420v-50H235V375q9 8 25.5 19.5t69 31T435 445q87 0 146-61t59-154V0h-50v230q0 70-45.5 117.5T435 395q-53 0-103-20t-74-40l-23-20V0h-50v650H0z"/><glyph glyph-name="afii10061" unicode="Ќ" horiz-adv-x="655" d="m160 270 390 430h65L350 410 640 0h-60L320 375 160 200V0h-50v700h50V270zm165 525 75 130h55l-90-130h-40z"/><glyph glyph-name="afii10062" unicode="Ў" horiz-adv-x="605" d="M310 795q-56 0-93 37t-37 93h45q0-37 23.5-61t61.5-24 61.5 24 23.5 61h45q0-56-37-93t-93-37zm10-535 210 440h55L320 145q-39-82-82-118.5T130-10q-13 0-27 2.5T82-2l-7 2v50q25-10 55-10 47 0 77 25t58 80l30 60L30 700h55z"/><glyph glyph-name="afii10145" unicode="Џ" horiz-adv-x="740" d="M630 700V0H395v-150h-50V0H110v700h50V50h420v650h50z"/><glyph glyph-name="afii10017" unicode="А" horiz-adv-x="680" d="M495 255 340 630 185 255h310zm20-50H165L80 0H25l290 700h50L655 0h-55z"/><glyph glyph-name="afii10018" unicode="Б" horiz-adv-x="645" d="M160 650V410h205q93 0 156.5-60.5T585 205 521.5 60.5 365 0H110v700h420v-50H160zm0-600h205q74 0 122 45t48 110-48 110-122 45H160V50z"/><glyph glyph-name="afii10019" unicode="В" horiz-adv-x="660" d="m470 375 13.5-5.5 30-18 38-32.5 30-51.5L595 195q0-84-59.5-139.5T380 0H110v700h260q85 0 137.5-49.5T560 525q0-32-9.5-59.5T528 422t-26-27-22-15zM160 50h220q77 0 121 40t44 105q0 69-43.5 109.5T380 345H160V50zm210 600H160V395h210q67 0 103.5 34.5T510 525q0 57-37 91t-103 34z"/><glyph glyph-name="afii10020" unicode="Г" horiz-adv-x="550" d="M110 0v700h425v-50H160V0h-50z"/><glyph glyph-name="afii10021" unicode="Д" horiz-adv-x="705" d="M0 50h40q5 4 13.5 13.5t30 46.5 38 82.5 30 125.5T165 490v210h415V50h90v-200h-50V0H50v-150H0V50zm215 440q0-90-12-168t-28.5-126-33.5-82.5T112 64l-12-14h430v600H215V490z"/><glyph glyph-name="afii10022" unicode="Е" horiz-adv-x="630" d="M160 50h430V0H110v700h470v-50H160V390h340v-50H160V50z"/><glyph glyph-name="afii10024" unicode="Ж" horiz-adv-x="940" d="M605 375 495 255V0h-50v255L335 375 75 0H15l290 410L40 700h65l340-375v375h50V325l340 375h65L635 410 925 0h-60z"/><glyph glyph-name="afii10025" unicode="З" horiz-adv-x="570" d="M355 370q6-1 16-4.5t36-17.5 46-32 36-51.5 16-74.5q0-82-67-141T265-10q-43 0-83 11t-65.5 26-45 30.5T44 84l-9 11 35 35q2-4 7-10t22.5-21.5T138 71t55-21.5 72-9.5q87 0 138.5 43.5T455 190q0 66-51.5 110.5T265 345h-80v50h80q79 0 124.5 37.5T435 525q0 59-45 97t-125 38q-32 0-62-8t-49.5-20-34.5-24-22-20l-7-8-35 35q3 4 9 10.5T90 648t42.5 28.5 58.5 23 74 10.5q98 0 159-54t61-131q0-35-13.5-64T439 416t-38-27-33-15z"/><glyph glyph-name="afii10026" unicode="И" horiz-adv-x="775" d="M665 0h-50v605L150 0h-40v700h50V95l465 605h40V0z"/><glyph glyph-name="afii10027" unicode="Й" horiz-adv-x="775" d="M390 795q-56 0-93 37t-37 93h45q0-37 23.5-61t61.5-24 61.5 24 23.5 61h45q0-56-37-93t-93-37zM665 0h-50v605L150 0h-40v700h50V95l465 605h40V0z"/><glyph glyph-name="afii10028" unicode="К" horiz-adv-x="655" d="m160 270 390 430h65L350 410 640 0h-60L320 375 160 200V0h-50v700h50V270z"/><glyph glyph-name="afii10029" unicode="Л" horiz-adv-x="730" d="M620 700V0h-50v650H235V490q0-152-13.5-254.5T182 81.5 126 10 55-10q-13 0-28 3T4-1l-9 3v48q30-10 55-10 29 0 51 17t42.5 62.5 31 139T185 490v210h435z"/><glyph glyph-name="afii10030" unicode="М" horiz-adv-x="920" d="M460 205 160 605V0h-50v700h40l310-410 310 410h40V0h-50v605z"/><glyph glyph-name="afii10031" unicode="Н" horiz-adv-x="745" d="M110 0v700h50V380h425v320h50V0h-50v330H160V0h-50z"/><glyph glyph-name="afii10032" unicode="О" horiz-adv-x="830" d="M720 350q0 131-88.5 220.5T415 660t-216.5-89.5T110 350t88.5-220.5T415 40t216.5 89.5T720 350zm50 0q0-150-103.5-255T415-10Q268-10 164 95T60 350t104 255 251 105q148 0 251.5-105T770 350z"/><glyph glyph-name="afii10033" unicode="П" horiz-adv-x="745" d="M635 700V0h-50v650H160V0h-50v700h525z"/><glyph glyph-name="afii10034" unicode="Р" horiz-adv-x="640" d="M110 700h250q97 0 161-62t64-153-64-153-161-62H160V0h-50v700zm250-50H160V320h200q78 0 126.5 46.5T535 485t-48.5 118.5T360 650z"/><glyph glyph-name="afii10035" unicode="С" horiz-adv-x="750" d="M60 350q0 150 104 255t251 105q53 0 102-15.5t81-37.5 56-44 35-37l11-16-35-30q-3 5-9.5 14T626 575.5 576 615t-70.5 31-90.5 14q-128 0-216.5-89.5T110 350t88.5-220.5T415 40q48 0 91.5 13.5t72 32.5 50 38 31.5 32l10 14 35-30q-4-6-12-16t-35.5-36T599 42 518 6 415-10Q268-10 164 95T60 350z"/><glyph glyph-name="afii10036" unicode="Т" horiz-adv-x="550" d="M20 700h510v-50H300V0h-50v650H20v50z"/><glyph glyph-name="afii10037" unicode="У" horiz-adv-x="605" d="m320 260 210 440h55L320 145q-39-82-82-118.5T130-10q-13 0-27 2.5T82-2l-7 2v50q25-10 55-10 47 0 77 25t58 80l30 60L30 700h55z"/><glyph glyph-name="afii10038" unicode="Ф" horiz-adv-x="840" d="M105 360q0-97 78-164t212-71v470q-134-4-212-71t-78-164zM445 75v-95h-50v95q-153 4-246.5 86.5T55 360t93.5 198.5T395 645v75h50v-75q153-4 246.5-86.5T785 360t-93.5-198.5T445 75zm290 285q0 97-78 164t-212 71V125q134 4 212 71t78 164z"/><glyph glyph-name="afii10039" unicode="Х" horiz-adv-x="630" d="M585 700 345 365 605 0h-60L315 325 85 0H25l260 365L45 700h60l210-295 210 295h60z"/><glyph glyph-name="afii10040" unicode="Ц" horiz-adv-x="750" d="M110 0v700h50V50h415v650h50V50h90v-200h-50V0H110z"/><glyph glyph-name="afii10041" unicode="Ч" horiz-adv-x="700" d="M150 700V490q0-90 50-140t140-50q53 0 103 20t73 40l24 20v320h50V0h-50v320q-9-8-25.5-19.5t-69-31T340 250q-109 0-174.5 65.5T100 490v210h50z"/><glyph glyph-name="afii10042" unicode="Ш" horiz-adv-x="1010" d="M110 0v700h50V50h320v650h50V50h320v650h50V0H110z"/><glyph glyph-name="afii10043" unicode="Щ" horiz-adv-x="1025" d="M940 0H110v700h50V50h320v650h50V50h320v650h50V50h90v-200h-50V0z"/><glyph glyph-name="afii10044" unicode="Ъ" horiz-adv-x="700" d="M415 0H175v650H0v50h225V430h190q97 0 161-62t64-153-64-153T415 0zM225 50h190q78 0 126.5 46.5T590 215t-48.5 118.5T415 380H225V50z"/><glyph glyph-name="afii10045" unicode="Ы" horiz-adv-x="865" d="M755 0h-50v700h50V0zM350 0H110v700h50V430h190q97 0 161-62t64-153-64-153T350 0zM160 50h190q78 0 126.5 46.5T525 215t-48.5 118.5T350 380H160V50z"/><glyph glyph-name="afii10046" unicode="Ь" horiz-adv-x="645" d="M360 0H110v700h50V430h200q97 0 161-62t64-153-64-153T360 0zM160 50h200q78 0 126.5 46.5T535 215t-48.5 118.5T360 380H160V50z"/><glyph glyph-name="afii10047" unicode="Э" horiz-adv-x="745" d="M685 350q0-150-104-255T330-10q-53 0-102.5 15.5t-82 37.5T88 87t-36 37l-12 16 35 30q3-5 10-14t31-31.5T167 85t71-31 92-14q123 0 210 84.5T635 330H250v50h385q-11 118-97 199t-208 81q-47 0-90.5-13.5t-71-32.5-48.5-38-30-32l-10-14-35 30q4 6 11.5 16t34 36 57 46 80 36T330 710q147 0 251-105t104-255z"/><glyph glyph-name="afii10048" unicode="Ю" horiz-adv-x="1040" d="M160 700V380h150q8 135 106 232.5T645 710q137 0 236-104t99-256-99-256T645-10q-132 0-230 99T310 330H160V0h-50v700h50zm200-350q0-133 83.5-221.5T645 40t201.5 88.5T930 350t-83.5 221.5T645 660t-201.5-88.5T360 350z"/><glyph glyph-name="afii10049" unicode="Я" horiz-adv-x="660" d="M285 700h265V0h-50v290H275L110 0H55l170 300q-6 1-16.5 4T171 321t-47 33.5-37 57T70 495q0 87 61 146t154 59zm215-50H285q-74 0-119.5-43.5T120 495t45.5-111.5T285 340h215v310z"/><glyph glyph-name="afii10065" unicode="а" horiz-adv-x="500" d="m180 270 190 30q0 62-38.5 103.5T235 445q-39 0-74-17.5T110 392l-15-17-30 30q3 3 7.5 9t21 20.5 35 26T176 481t59 9q77 0 128.5-54.5T415 300V0h-45v80q-2-4-6.5-10T343 48.5 308.5 21t-49-21.5T195-10q-69 0-114.5 40.5T35 125q0 56 39 95.5T180 270zm15-235q75 0 125 50t50 125v45l-180-30Q80 207 80 125q0-36 32.5-63T195 35z"/><glyph glyph-name="afii10066" unicode="б" horiz-adv-x="570" d="M515 230q0-100-67-170T290-10q-99 0-167 83T55 300q0 331 245 375 51 9 91 22.5t55 22.5l14 10 25-35q-50-40-180-65-84-16-140-87.5T105 350q2 5 7 13t22 28.5 37 36.5 52 29 67 13q91 0 158-70t67-170zm-405 0q0-81 54-138t126-57 126 57 54 138-54 138-126 57-126-57-54-138z"/><glyph glyph-name="afii10067" unicode="в" horiz-adv-x="510" d="M85 480h210q63 0 101.5-35.5T435 355q0-31-15-56t-30-35l-15-9q3-1 8.5-3t19.5-10.5 24.5-20.5 19-35 8.5-51q0-60-40-97.5T305 0H85v480zm220-250H130V45h175q51 0 78 24t27 66q0 95-105 95zm85 125q0 80-95 80H130V275h165q95 0 95 80z"/><glyph glyph-name="afii10068" unicode="г" horiz-adv-x="410" d="M390 480v-45H130V0H85v480h305z"/><glyph glyph-name="afii10069" unicode="д" horiz-adv-x="545" d="M510 45v-165h-45V0H40v-120H-5V45h40q3 4 9 11t20.5 33.5 26 58T111 231t9 109v140h315V45h75zM165 435v-95q0-87-20-160.5T105 76L85 45h305v390H165z"/><glyph glyph-name="afii10070" unicode="е" horiz-adv-x="550" d="M495 220H90q4-75 59.5-130T280 35q29 0 56.5 8.5t45.5 21 31.5 25T434 110l6 9 30-29-8-11-23-24-38-30-53-24-68-11q-95 0-165 73T45 240q0 103 69 176.5T275 490t156-70 64-180v-20zM275 445q-71 0-126-54T90 265h360q-4 78-53.5 129T275 445z"/><glyph glyph-name="afii10072" unicode="ж" horiz-adv-x="715" d="M375 160V0h-45v160l-80 90h-5L65 0H10l205 285L35 480h60l235-255v255h45V225l235 255h60L490 285 695 0h-55L460 250h-5z"/><glyph glyph-name="afii10073" unicode="з" horiz-adv-x="430" d="M355 360q0-40-21.5-67.5T291 258l-21-8q4-1 11-3t25.5-10.5 32-20.5 25-35 11.5-51q0-59-47.5-99.5T200-10q-32 0-61.5 9T90 20 57 44.5 36 66l-6 9 30 30q6-8 16.5-19.5t47-31T200 35q61 0 95.5 27.5T330 130t-34.5 67.5T200 225h-50v45h50q51 0 80.5 25.5T310 360q0 35-30 60t-80 25q-36 0-67-15t-45-30l-13-15-35 35q7 8 19.5 19.5t54.5 31 86 19.5q69 0 112-38t43-92z"/><glyph glyph-name="afii10074" unicode="и" horiz-adv-x="585" d="M450 480h40V0h-45v400L125 0H85v480h45V80z"/><glyph glyph-name="afii10075" unicode="й" horiz-adv-x="585" d="M290 605q41 0 65.5 24.5T380 695h40q0-56-37-93t-93-37-93 37-37 93h40q0-41 24.5-65.5T290 605zm160-125h40V0h-45v400L125 0H85v480h45V80z"/><glyph glyph-name="afii10076" unicode="к" horiz-adv-x="500" d="M130 130V0H85v480h45V195l265 285h60L275 285 480 0h-55L245 250h-5z"/><glyph glyph-name="afii10077" unicode="л" horiz-adv-x="560" d="M130 480h335V0h-45v435H175v-95q0-105-10-176.5t-29.5-108-42-51T40-10q-11 0-22.5 2.5T0-2l-5 2v43q20-8 40-8 28 0 47.5 20.5t33.5 91T130 340v140z"/><glyph glyph-name="afii10078" unicode="м" horiz-adv-x="660" d="M325 140 130 390V0H85v480h35l205-265 205 265h35V0h-45v390z"/><glyph glyph-name="afii10079" unicode="н" d="M440 0v220H130V0H85v480h45V265h310v215h45V0h-45z"/><glyph glyph-name="afii10080" unicode="о" d="M45 240q0 104 71 177t169 73 169-73 71-177-71-177-169-73-169 73-71 177zm435 0q0 85-57.5 145T285 445t-137.5-60T90 240t57.5-145T285 35t137.5 60T480 240z"/><glyph glyph-name="afii10081" unicode="п" d="M440 0v435H130V0H85v480h400V0h-45z"/><glyph glyph-name="afii10082" unicode="р" horiz-adv-x="595" d="M130 240q0-85 56-145t129-60q69 0 124.5 60.5T495 240t-55.5 144.5T315 445q-73 0-129-60t-56-145zm0-145v-305H85v690h45v-95q2 4 7 11t22 25.5 37 32 52 25 67 11.5q88 0 156.5-73.5T540 240 471.5 63.5 315-10q-35 0-67 11t-52.5 26-36 30.5T137 84z"/><glyph glyph-name="afii10083" unicode="с" horiz-adv-x="515" d="M45 240q0 104 70 177t165 73q35 0 67.5-10.5t53.5-25 37.5-29T462 400l8-10-35-30-6 9-18.5 20.5-31 26L336 436l-56 9q-76 0-133-60T90 240t57-145 133-60q47 0 85.5 21.5T420 99l15 21 35-30-8-11-23-24-38-30-53-24-68-11q-95 0-165 73T45 240z"/><glyph glyph-name="afii10084" unicode="т" horiz-adv-x="435" d="M10 435v45h405v-45H235V0h-45v435H10z"/><glyph glyph-name="afii10085" unicode="у" horiz-adv-x="480" d="m175-90 35 90L15 480h50L235 60l170 420h50L225-90q-26-65-57-92.5T85-210q-11 0-22.5 2.5T46-202l-6 2v45q20-10 45-10 33 0 54 18t36 57z"/><glyph glyph-name="afii10086" unicode="ф" horiz-adv-x="695" d="M90 240q0-88 63.5-146.5T320 35v410q-103 0-166.5-58.5T90 240zm505 0q0 88-63.5 146.5T365 445V35q103 0 166.5 58.5T595 240zM365-10v-200h-45v200q-122 0-198.5 71.5T45 240t76.5 178.5T320 490v210h45V490q122 0 198.5-71.5T640 240 563.5 61.5 365-10z"/><glyph glyph-name="afii10087" unicode="х" horiz-adv-x="460" d="M420 480 255 250 435 0h-55L225 215 70 0H15l180 250L30 480h55l140-195 140 195h55z"/><glyph glyph-name="afii10088" unicode="ц" horiz-adv-x="590" d="M85 0v480h45V45h300v435h45V45h80v-165h-45V0H85z"/><glyph glyph-name="afii10089" unicode="ч" horiz-adv-x="545" d="M405 0v205q-60-40-150-40-82 0-131 48T75 340v140h45V340q0-60 36-95t99-35q40 0 77.5 11t55.5 23l17 11v225h45V0h-45z"/><glyph glyph-name="afii10090" unicode="ш" horiz-adv-x="785" d="M85 0v480h45V45h235v435h45V45h235v435h45V0H85z"/><glyph glyph-name="afii10091" unicode="щ" horiz-adv-x="805" d="M85 0v480h45V45h235v435h45V45h235v435h45V45h80v-165h-45V0H85z"/><glyph glyph-name="afii10092" unicode="ъ" horiz-adv-x="525" d="M475 155q0-69-46-112T305 0H130v435H-5v45h180V310h130q78 0 124-43t46-112zM175 45h130q59 0 92 30t33 80-33 80-92 30H175V45z"/><glyph glyph-name="afii10093" unicode="ы" horiz-adv-x="680" d="M585 480V0h-45v480h45zM130 45h130q59 0 92 30t33 80-33 80-92 30H130V45zm300 110q0-69-46-112T260 0H85v480h45V310h130q78 0 124-43t46-112z"/><glyph glyph-name="afii10094" unicode="ь" horiz-adv-x="490" d="M130 45h140q59 0 92 30t33 80-33 80-92 30H130V45zm310 110q0-69-46-112T270 0H85v480h45V310h140q78 0 124-43t46-112z"/><glyph glyph-name="afii10095" unicode="э" horiz-adv-x="515" d="M460 240q0-104-70-177T225-10Q190-10 157.5.5t-54 25-37.5 29T42 80l-7 10 35 30 6-9 18.5-20.5 31-26L169 44l56-9q72 0 129 56t61 134H160v45h255q-11 73-65.5 124T225 445q-47 0-85.5-21.5T86 381l-16-21-35 30 8 11 23 24 38 30 53 24 68 11q95 0 165-73t70-177z"/><glyph glyph-name="afii10096" unicode="ю" horiz-adv-x="765" d="M705 240q0-107-67.5-178.5T475-10q-90 0-156.5 66.5T245 220H130V0H85v480h45V265h115q8 94 74 159.5T475 490q95 0 162.5-71.5T705 240zm-415 0q0-88 54.5-146.5T475 35t130.5 58.5T660 240t-54.5 146.5T475 445t-130.5-58.5T290 240z"/><glyph glyph-name="afii10097" unicode="я" horiz-adv-x="510" d="M50 330q0 65 46.5 107.5T220 480h195V0h-45v175H200L100 0H45l115 185q-4 1-11.5 3.5t-26.5 13T88.5 227 62 269t-12 61zm320 105H220q-58 0-91.5-29.5T95 330q0-50 33-80t92-30h150v215z"/><glyph glyph-name="afii10071" unicode="ё" horiz-adv-x="550" d="M495 220H90q4-75 59.5-130T280 35q29 0 56.5 8.5t45.5 21 31.5 25T434 110l6 9 30-29-8-11-23-24-38-30-53-24-68-11q-95 0-165 73T45 240q0 103 69 176.5T275 490t156-70 64-180v-20zM275 445q-71 0-126-54T90 265h360q-4 78-53.5 129T275 445zM150 628q0 15 10 25t25 10 25-10 10-25-10-25-25-10-25 10-10 25zm175 0q0 15 10 25t25 10 25-10 10-25-10-25-25-10-25 10-10 25z"/><glyph glyph-name="afii10099" unicode="ђ" horiz-adv-x="575" d="M145 700V600h150v-45H145V355l5.5 10.5 18 22.5 31.5 28.5 46.5 23L310 450q91 0 148-60.5T515 225q0-103-61-169T305-10v45q69 0 117 53t48 137q0 85-43.5 132.5T310 405q-69 0-117-53t-48-137V0h-45v555H10v45h90v100h45z"/><glyph glyph-name="afii10100" unicode="ѓ" horiz-adv-x="410" d="m215 565 75 130h55l-90-130h-40zm175-85v-45H130V0H85v480h305z"/><glyph glyph-name="afii10101" unicode="є" horiz-adv-x="515" d="M45 240q0 104 70 177t165 73q35 0 67.5-10.5t53.5-25 37.5-29T462 400l8-10-35-30-6 9-18.5 20.5-31 26L336 436l-56 9q-70 0-124.5-51T90 270h255v-45H90q4-78 61-134t129-56q47 0 85.5 21.5T420 99l15 21 35-30-8-11-23-24-38-30-53-24-68-11q-95 0-165 73T45 240z"/><glyph glyph-name="afii10102" unicode="ѕ" horiz-adv-x="430" d="m360 420-35-35q-2 2-5 6.5T306 406t-23 18-32 14.5-41 6.5q-50 0-80-25t-30-60q0-31 28.5-51t69-31 80.5-25 68.5-43 28.5-75q0-62-46.5-103.5T205-10q-31 0-59.5 8t-48 20-34 24T42 62l-7 8 35 35q6-8 16.5-19.5t45.5-31T205 35q58 0 91.5 28.5T330 135q0 33-28.5 53.5t-69 32-80.5 25-68.5 42T55 360q0 51 45 90.5T210 490q42 0 79.5-17.5T344 438z"/><glyph glyph-name="afii10103" unicode="і" horiz-adv-x="225" d="M85 0v480h45V0H85zM75 650q0 15 10 25t25 10 25-10 10-25-10-25-25-10-25 10-10 25z"/><glyph glyph-name="afii10104" unicode="ї" horiz-adv-x="245" d="M-5 630q0 15 10 25t25 10 25-10 10-25-10-25-25-10-25 10-10 25zm175 0q0 15 10 25t25 10 25-10 10-25-10-25-25-10-25 10-10 25zM94 0v480h45V0H94z"/><glyph glyph-name="afii10105" unicode="ј" horiz-adv-x="225" d="M85-80v560h45V-80q0-59-33.5-94.5T10-210q-16 0-31 4t-22 8l-7 3v45q25-15 60-15 34 0 54.5 22T85-80zM75 650q0 15 10 25t25 10 25-10 10-25-10-25-25-10-25 10-10 25z"/><glyph glyph-name="afii10106" unicode="љ" horiz-adv-x="795" d="M745 145q0-65-44.5-105T575 0H400v435H175v-95q0-105-10-176.5t-29.5-108-42-51T40-10q-11 0-22.5 2.5T0-2l-5 2v43q20-8 40-8 28 0 47.5 20.5t33.5 91T130 340v140h315V290h130q81 0 125.5-40T745 145zM445 45h130q62 0 93.5 26.5T700 145t-31.5 73.5T575 245H445V45z"/><glyph glyph-name="afii10107" unicode="њ" horiz-adv-x="805" d="M755 145q0-65-44.5-105T585 0H410v245H130V0H85v480h45V290h280v190h45V290h130q81 0 125.5-40T755 145zM455 45h130q62 0 93.5 26.5T710 145t-31.5 73.5T585 245H455V45z"/><glyph glyph-name="afii10108" unicode="ћ" horiz-adv-x="595" d="M145 700V600h150v-45H145V355l5.5 10.5 18 22.5 31.5 28.5 46.5 23L310 450q83 0 139-58t56-147V0h-45v245q0 70-43 115t-107 45q-68 0-116.5-50.5T145 230V0h-45v555H10v45h90v100h45z"/><glyph glyph-name="afii10109" unicode="ќ" horiz-adv-x="500" d="m235 565 75 130h55l-90-130h-40zM130 130V0H85v480h45V195l265 285h60L275 285 480 0h-55L245 250h-5z"/><glyph glyph-name="afii10110" unicode="ў" horiz-adv-x="480" d="m175-90 35 90L15 480h50L235 60l170 420h50L225-90q-26-65-57-92.5T85-210q-11 0-22.5 2.5T46-202l-6 2v45q20-10 45-10 33 0 54 18t36 57zm60 695q41 0 65.5 24.5T325 695h40q0-56-37-93t-93-37-93 37-37 93h40q0-41 24.5-65.5T235 605z"/><glyph glyph-name="afii10193" unicode="џ" horiz-adv-x="575" d="M85 0v480h45V45h305v435h45V0H305v-120h-45V0H85z"/><glyph glyph-name="afii10050" unicode="Ґ" horiz-adv-x="550" d="M485 700v140h50V650H160V0h-50v700h375z"/><glyph glyph-name="afii10098" unicode="ґ" horiz-adv-x="410" d="M85 0v480h260v120h45V435H130V0H85z"/><glyph glyph-name="uni1E9E" unicode="ẞ" horiz-adv-x="650" d="M545 650 365 415q87 0 153.5-58T585 205q0-88-62.5-146.5T360 0h-45v50h45q81 0 128 43t47 112q0 67-47.5 113.5T365 365h-50v50l180 235H310q-72 0-111-41t-39-119V0h-50v490q0 93 56.5 151.5T310 700h235v-50z"/><glyph glyph-name="endash" unicode="–" horiz-adv-x="465" d="M425 315v-45H40v45h385z"/><glyph glyph-name="emdash" unicode="—" horiz-adv-x="705" d="M665 315v-45H40v45h625z"/><glyph glyph-name="quoteleft" unicode="‘" horiz-adv-x="195" d="m80 525-50 30 105 165 30-15z"/><glyph glyph-name="quoteright" unicode="’" horiz-adv-x="195" d="m115 720 50-30L60 525l-30 15z"/><glyph glyph-name="quotesinglbase" unicode="‚" horiz-adv-x="195" d="m85 70 50-30L30-125 0-110z"/><glyph glyph-name="quotedblleft" unicode="“" horiz-adv-x="335" d="m80 525-50 30 105 165 30-15zm140 0-50 30 105 165 30-15z"/><glyph glyph-name="quotedblright" unicode="”" horiz-adv-x="335" d="m255 720 50-30-105-165-30 15zm-140 0 50-30L60 525l-30 15z"/><glyph glyph-name="quotedblbase" unicode="„" horiz-adv-x="335" d="m85 70 50-30L30-125 0-110zm140 0 50-30-105-165-30 15z"/><glyph glyph-name="dagger" unicode="†" horiz-adv-x="415" d="M185 560v140h45V560h125v-45H230V200h-45v315H60v45h125z"/><glyph glyph-name="daggerdbl" unicode="‡" horiz-adv-x="415" d="M185 560v140h45V560h125v-45H230V385h125v-45H230V200h-45v140H60v45h125v130H60v45h125z"/><glyph glyph-name="bullet" unicode="•" horiz-adv-x="380" d="M110 240q0 34 23 57t57 23 57-23 23-57-23-57-57-23-57 23-23 57z"/><glyph glyph-name="ellipsis" unicode="…" horiz-adv-x="620" d="M275 30q0 15 10 25t25 10 25-10 10-25-10-25-25-10-25 10-10 25zm210 0q0 15 10 25t25 10 25-10 10-25-10-25-25-10-25 10-10 25zM65 30q0 15 10 25t25 10 25-10 10-25-10-25-25-10T75 5 65 30z"/><glyph glyph-name="perthousand" unicode="‰" horiz-adv-x="1110" d="m135 0 440 700h50L185 0h-50zM90 555q0-48 30-79t75-31 75 31 30 79-30 79-75 31-75-31-30-79zm255 0q0-67-43-111t-107-44-107 44-43 111 43 111 107 44 107-44 43-111zm115-410q0-48 30-79t75-31 75 31 30 79-30 79-75 31-75-31-30-79zm255 0q0-67-43-111T565-10 458 34t-43 111 43 111 107 44 107-44 43-111zm95 0q0-48 30-79t75-31 75 31 30 79-30 79-75 31-75-31-30-79zm255 0q0-67-43-111T915-10 808 34t-43 111 43 111 107 44 107-44 43-111z"/><glyph glyph-name="guilsinglleft" unicode="‹" horiz-adv-x="270" d="M220 400 105 240 220 80h-55L50 240l115 160h55z"/><glyph glyph-name="guilsinglright" unicode="›" horiz-adv-x="270" d="M165 240 50 400h55l115-160L105 80H50z"/><glyph glyph-name="fraction" unicode="⁄" horiz-adv-x="240" d="m-120 0 435 700h45L-75 0h-45z"/><glyph glyph-name="zerosuperior" unicode="⁰" horiz-adv-x="350" d="M75 625q0-64 30-102t70-38 70 38 30 102-30 102-70 38-70-38-30-102zm240 0q0-83-40.5-131.5T175 445t-99.5 48.5T35 625t40.5 131.5T175 805t99.5-48.5T315 625z"/><glyph glyph-name="foursuperior" unicode="⁴" horiz-adv-x="300" d="M230 575h45v-40h-45v-85h-40v85H20v40l160 225h50V575zm-40 0v175L65 575h125z"/><glyph glyph-name="fivesuperior" unicode="⁵" horiz-adv-x="280" d="M140 670q52 0 86-33t34-82q0-46-35-78t-90-32q-38 0-69 13.5T22 486l-12 14 30 30q3-5 10-12.5t31.5-20T135 485q40 0 62.5 19.5T220 555q0 34-21.5 54.5T140 630q-22 0-39.5-6T76 612l-6-7H35l15 195h190v-40H85L75 650q25 20 65 20z"/><glyph glyph-name="sixsuperior" unicode="⁶" horiz-adv-x="290" d="M145 685q52 0 88.5-35.5T270 565t-36.5-84.5T145 445t-88.5 35.5T20 565q0 20 7.5 41.5T42 639l8 11 100 150h45l-80-120q15 5 30 5zm85-120q0 34-24 57t-61 23-61-23-24-57 24-57 61-23 61 23 24 57z"/><glyph glyph-name="sevensuperior" unicode="⁷" horiz-adv-x="265" d="M20 800h225v-40L110 450H70l135 310H20v40z"/><glyph glyph-name="eightsuperior" unicode="⁸" horiz-adv-x="270" d="M135 485q33 0 54 19t21 46-21 46-54 19-54-19-21-46 21-46 54-19zm0 170q29 0 47 16t18 39-18 39-47 16-47-16-18-39 18-39 47-16zm0-210q-48 0-81.5 31.5T20 550q0 29 15 50t30 28l15 7q-2 1-5.5 2.5t-12 8-15 14.5-12 21.5T30 710q0 38 30.5 66.5T135 805t74.5-28.5T240 710q0-24-12.5-43T202 642l-12-7q2-1 6.5-2.5T211 624t18-16 14.5-24.5T250 550q0-42-33.5-73.5T135 445z"/><glyph glyph-name="ninesuperior" unicode="⁹" horiz-adv-x="290" d="M145 565q-52 0-88.5 35.5T20 685t36.5 84.5T145 805t88.5-35.5T270 685q0-20-7.5-41.5T248 611l-8-11-100-150H95l80 120q-15-5-30-5zM60 685q0-34 24-57t61-23 61 23 24 57-24 57-61 23-61-23-24-57z"/><glyph glyph-name="zeroinferior" unicode="₀" horiz-adv-x="350" d="M75 75q0-64 30-102t70-38 70 38 30 102-30 102-70 38-70-38T75 75zm240 0q0-83-40.5-131.5T175-105 75.5-56.5 35 75t40.5 131.5T175 255t99.5-48.5T315 75z"/><glyph glyph-name="oneinferior" unicode="₁" horiz-adv-x="200" d="M105 250h35v-350h-40v290q-20-30-70-30v35q22 0 41 13.5T98 236z"/><glyph glyph-name="twoinferior" unicode="₂" horiz-adv-x="285" d="M255-100H25q0 42 19.5 75T92 29t56 39.5 47.5 40T215 154t-20.5 42.5T145 215q-27 0-47-15t-26-30l-7-15-35 15 3 9 11.5 20.5 21 26 33 20.5 46.5 9q50 0 80-30t30-71q0-39-25-69t-56.5-47T110-5 68-60h187v-40z"/><glyph glyph-name="threeinferior" unicode="₃" horiz-adv-x="295" d="M205 85q2 0 6.5-1.5t14.5-7 18-14 14.5-25T265 0q0-44-34-74.5T145-105q-36 0-67 15T34-60L20-45l30 30q4-6 11.5-14t32-22T145-65q37 0 58.5 18T225 0t-20.5 47T147 65h-47v40h45q65 0 65 55 0 23-18.5 39T140 215q-24 0-44-11.5T68 181l-8-11-30 30q4 6 12.5 15t37 24.5T140 255q48 0 79-28t31-67q0-27-11-45.5T216 90z"/><glyph glyph-name="fourinferior" unicode="₄" horiz-adv-x="300" d="M230 25h45v-40h-45v-85h-40v85H20v40l160 225h50V25zm-40 0v175L65 25h125z"/><glyph glyph-name="fiveinferior" unicode="₅" horiz-adv-x="280" d="M140 120q52 0 86-33t34-82q0-46-35-78t-90-32q-38 0-69 13.5T22-64L10-50l30 30q3-5 10-12.5t31.5-20T135-65q40 0 62.5 19.5T220 5q0 34-21.5 54.5T140 80q-22 0-39.5-6T76 62l-6-7H35l15 195h190v-40H85L75 100q25 20 65 20z"/><glyph glyph-name="sixinferior" unicode="₆" horiz-adv-x="290" d="M145 135q52 0 88.5-35.5T270 15t-36.5-84.5T145-105 56.5-69.5 20 15q0 20 7.5 41.5T42 89l8 11 100 150h45l-80-120q15 5 30 5zm85-120q0 34-24 57t-61 23-61-23-24-57 24-57 61-23 61 23 24 57z"/><glyph glyph-name="seveninferior" unicode="₇" horiz-adv-x="265" d="M20 250h225v-40L110-100H70l135 310H20v40z"/><glyph glyph-name="eightinferior" unicode="₈" horiz-adv-x="270" d="M135-65q33 0 54 19t21 46-21 46-54 19-54-19T60 0t21-46 54-19zm0 170q29 0 47 16t18 39-18 39-47 16-47-16-18-39 18-39 47-16zm0-210q-48 0-81.5 31.5T20 0q0 29 15 50t30 28l15 7q-2 1-5.5 2.5t-12 8-15 14.5-12 21.5T30 160q0 38 30.5 66.5T135 255t74.5-28.5T240 160q0-24-12.5-43T202 92l-12-7q2-1 6.5-2.5T211 74t18-16 14.5-24.5T250 0q0-42-33.5-73.5T135-105z"/><glyph glyph-name="nineinferior" unicode="₉" horiz-adv-x="290" d="M145 15q-52 0-88.5 35.5T20 135t36.5 84.5T145 255t88.5-35.5T270 135q0-20-7.5-41.5T248 61l-8-11-100-150H95l80 120q-15-5-30-5zM60 135q0-34 24-57t61-23 61 23 24 57-24 57-61 23-61-23-24-57z"/><glyph glyph-name="Euro" unicode="€" horiz-adv-x="740" d="M195 455h250v-45H185q-5-30-5-60l5-60h260v-45H195q12-72 89.5-138.5T455 40q56 0 107 24t74 48l24 23 35-35-11-11.5L653.5 62 604 28.5 537.5 2 455-10q-111 0-201 78T140 245H40v45h95q-5 30-5 60l5 60H40v45h100q24 99 114 177t201 78q42 0 82-11.5t67.5-27.5 49-32 31.5-27l10-12-35-35q-3 4-9.5 10.5t-27 22.5-42.5 28.5-56.5 23T455 660q-93 0-170.5-66.5T195 455z"/><glyph glyph-name="uni20B4" unicode="₴" horiz-adv-x="630" d="M70 405v50h370q30 25 30 70 0 59-45 97t-125 38q-49 0-90-17.5T152 608l-17-18-35 35q3 3 8.5 9t24.5 20.5 40.5 26 56 20.5 70.5 9q98 0 159-54t61-131q0-20-4-37.5t-8-25.5l-3-7h55v-50H70zm490-110v-50H190q-30-25-30-70 0-59 45-97t125-38q49 0 90 17.5T478 92l17 18 35-35q-3-3-8.5-9T497 45.5t-40.5-26-56-20.5-70.5-9q-98 0-159 54t-61 131q0 20 4 37.5t8 25.5l3 7H70v50h490z"/><glyph glyph-name="uni20BD" unicode="₽" horiz-adv-x="660" d="M50 290v50h85v360h250q93 0 154-59t61-146-61-146-154-59H185V190h259v-50H185V0h-50v140H50v50h85v100H50zm335 360H185V340h200q74 0 119.5 43.5T550 495t-45.5 111.5T385 650z"/><glyph glyph-name="afii61352" unicode="№" horiz-adv-x="1110" d="M770 0v45h280V0H770zM605 700h50V0h-40L160 605V0h-50v700h40L605 95v605zm200-375q0-48 30-79t75-31 75 31 30 79-30 79-75 31-75-31-30-79zm255 0q0-67-43-111t-107-44-107 44-43 111 43 111 107 44 107-44 43-111z"/><glyph glyph-name="trademark" unicode="™" horiz-adv-x="670" d="M455 475 350 620V400h-45v300h40l110-150 110 150h40V400h-45v220zM15 660v40h235v-40h-95V400h-45v260H15z"/><glyph glyph-name="minus" unicode="−" horiz-adv-x="505" d="M460 315v-45H45v45h415z"/><glyph glyph-name="approxequal" unicode="≈" horiz-adv-x="540" d="M175 395q-29 0-52.5-16.5T90 346l-10-16-35 25 5.5 8.5 16 19.5 26 24.5 36 19L175 435q42 0 73-17.5t57.5-35T365 365q29 0 52.5 16.5T450 414l10 16 35-25-5.5-8.5-16-19.5-26-24.5-36-19L365 325q-42 0-73 17.5t-57.5 35T175 395zm0-170q-29 0-52.5-16.5T90 176l-10-16-35 25 5.5 8.5 16 19.5 26 24.5 36 19L175 265q42 0 73-17.5t57.5-35T365 195q29 0 52.5 16.5T450 244l10 16 35-25-5.5-8.5-16-19.5-26-24.5-36-19L365 155q-42 0-73 17.5t-57.5 35T175 225z"/><glyph glyph-name="notequal" unicode="≠" horiz-adv-x="495" d="M50 360v45h225l60 115h50l-60-115h120v-45H305l-65-130h205v-45H215L160 70h-50l55 115H50v45h140l65 130H50z"/><glyph glyph-name="lessequal" unicode="≤" horiz-adv-x="490" d="M50 335v30l390 185v-50L110 350l330-150v-50zm0-310v45h390V25H50z"/><glyph glyph-name="greaterequal" unicode="≥" horiz-adv-x="490" d="M440 365v-30L50 150v50l330 150L50 500v50zm0-295V25H50v45h390z"/><glyph glyph-name="commaaccent" unicode="" horiz-adv-x="155" d="M30-215 75-80h50L65-215H30z"/><glyph glyph-name="cyrBreve" unicode="" horiz-adv-x="320" d="M160 795q-56 0-93 37t-37 93h45q0-37 23.5-61t61.5-24 61.5 24 23.5 61h45q0-56-37-93t-93-37z"/><glyph glyph-name="cyrbreve" unicode="" horiz-adv-x="320" d="M160 605q41 0 65.5 24.5T250 695h40q0-56-37-93t-93-37-93 37-37 93h40q0-41 24.5-65.5T160 605z"/><glyph glyph-name="uniFB02" unicode="ﬂ" horiz-adv-x="535" d="M395 0v540q0 52-35.5 88.5T275 665t-84.5-36.5T155 540v-60h120v-45H155V0h-45v435H30v45h80v60q0 71 48.5 120.5T275 710t116.5-49.5T440 540V0h-45z"/><glyph glyph-name="s_t" unicode="ﬆ" horiz-adv-x="770" d="M540 480v60q0 59-33.5 94.5T420 670q-56 0-90.5-33.5T295 550q0-29 10-55t20-38l10-12 25-25-35-35q-2 2-5 6.5T306 406t-23 18-32 14.5-41 6.5q-50 0-80-25t-30-60q0-31 28.5-51t69-31 80.5-25 68.5-43 28.5-75q0-62-46.5-103.5T205-10q-31 0-59.5 8t-48 20-34 24T42 62l-7 8 35 35q6-8 16.5-19.5t45.5-31T205 35q58 0 91.5 28.5T330 135q0 33-28.5 53.5t-69 32-80.5 25-68.5 42T55 360q0 51 45 90.5T210 490q13 0 27-2.5t21-5.5l7-2q-10 30-10 70 0 68 47 114t118 46q72 0 118.5-47.5T585 540v-60h110v-45H585V120q0-41 20.5-63T660 35q16 0 32 3.5t24 7.5l9 4V5q-30-15-65-15-57 0-88.5 33.5T540 120v315h-95v45h95z"/><glyph glyph-name="lslash.alt" horiz-adv-x="355" d="M145 120v213L15 255l-20 35 150 90v320h45V407l130 78 20-35-150-90V120q0-41 21-63t59-22q13 0 28 3.5t24 7.5l8 4V5q-30-15-60-15-57 0-91 35t-34 95z"/><glyph glyph-name="Germandbls" horiz-adv-x="650" d="M545 650 365 415q87 0 153.5-58T585 205q0-88-62.5-146.5T360 0h-45v50h45q81 0 128 43t47 112q0 67-47.5 113.5T365 365h-50v50l180 235H310q-72 0-111-41t-39-119V0h-50v490q0 93 56.5 151.5T310 700h235v-50z"/><glyph glyph-name="afii10110.alt" horiz-adv-x="480" d="M235 605q41 0 65.5 24.5T325 695h40q0-56-37-93t-93-37-93 37-37 93h40q0-41 24.5-65.5T235 605zM125-210 210 0 15 480h50L235 65l170 415h50L175-210h-50z"/><glyph glyph-name="agrave.alt" horiz-adv-x="510" d="m180 270 190 30q0 62-38.5 103.5T235 445q-39 0-74-17.5T110 392l-15-17-30 30q3 3 7.5 9t21 20.5 35 26T176 481t59 9q77 0 128.5-54.5T415 300V90q0-22 13.5-36T465 40q9 0 16.5 1.5T492 44l3 2V0q-10-5-30-5-40 0-67.5 25.5T370 80q-2-4-6.5-10T343 48.5 308.5 21t-49-21.5T195-10q-69 0-114.5 40.5T35 125q0 56 39 95.5T180 270zm15-235q75 0 125 50t50 125v45l-180-30Q80 207 80 125q0-36 32.5-63T195 35zm5 660 75-130h-40l-90 130h55z"/><glyph glyph-name="aacute.alt" horiz-adv-x="510" d="m180 270 190 30q0 62-38.5 103.5T235 445q-39 0-74-17.5T110 392l-15-17-30 30q3 3 7.5 9t21 20.5 35 26T176 481t59 9q77 0 128.5-54.5T415 300V90q0-22 13.5-36T465 40q9 0 16.5 1.5T492 44l3 2V0q-10-5-30-5-40 0-67.5 25.5T370 80q-2-4-6.5-10T343 48.5 308.5 21t-49-21.5T195-10q-69 0-114.5 40.5T35 125q0 56 39 95.5T180 270zm15-235q75 0 125 50t50 125v45l-180-30Q80 207 80 125q0-36 32.5-63T195 35zm35 530 75 130h55l-90-130h-40z"/><glyph glyph-name="abreve.alt" horiz-adv-x="510" d="m180 270 190 30q0 62-38.5 103.5T235 445q-39 0-74-17.5T110 392l-15-17-30 30q3 3 7.5 9t21 20.5 35 26T176 481t59 9q77 0 128.5-54.5T415 300V90q0-22 13.5-36T465 40q9 0 16.5 1.5T492 44l3 2V0q-10-5-30-5-40 0-67.5 25.5T370 80q-2-4-6.5-10T343 48.5 308.5 21t-49-21.5T195-10q-69 0-114.5 40.5T35 125q0 56 39 95.5T180 270zm15-235q75 0 125 50t50 125v45l-180-30Q80 207 80 125q0-36 32.5-63T195 35zm55 570q41 0 65.5 24.5T340 695h40q0-56-37-93t-93-37-93 37-37 93h40q0-41 24.5-65.5T250 605z"/><glyph glyph-name="acircumflex.alt" horiz-adv-x="510" d="m180 270 190 30q0 62-38.5 103.5T235 445q-39 0-74-17.5T110 392l-15-17-30 30q3 3 7.5 9t21 20.5 35 26T176 481t59 9q77 0 128.5-54.5T415 300V90q0-22 13.5-36T465 40q9 0 16.5 1.5T492 44l3 2V0q-10-5-30-5-40 0-67.5 25.5T370 80q-2-4-6.5-10T343 48.5 308.5 21t-49-21.5T195-10q-69 0-114.5 40.5T35 125q0 56 39 95.5T180 270zm15-235q75 0 125 50t50 125v45l-180-30Q80 207 80 125q0-36 32.5-63T195 35zm85 660 105-130h-45l-85 100-85-100h-45l105 130h50z"/><glyph glyph-name="adieresis.alt" horiz-adv-x="510" d="m180 270 190 30q0 62-38.5 103.5T235 445q-39 0-74-17.5T110 392l-15-17-30 30q3 3 7.5 9t21 20.5 35 26T176 481t59 9q77 0 128.5-54.5T415 300V90q0-22 13.5-36T465 40q9 0 16.5 1.5T492 44l3 2V0q-10-5-30-5-40 0-67.5 25.5T370 80q-2-4-6.5-10T343 48.5 308.5 21t-49-21.5T195-10q-69 0-114.5 40.5T35 125q0 56 39 95.5T180 270zm15-235q75 0 125 50t50 125v45l-180-30Q80 207 80 125q0-36 32.5-63T195 35zm-65 600q0 15 10 25t25 10 25-10 10-25-10-25-25-10-25 10-10 25zm175 0q0 15 10 25t25 10 25-10 10-25-10-25-25-10-25 10-10 25z"/><glyph glyph-name="amacron.alt" horiz-adv-x="510" d="m180 270 190 30q0 62-38.5 103.5T235 445q-39 0-74-17.5T110 392l-15-17-30 30q3 3 7.5 9t21 20.5 35 26T176 481t59 9q77 0 128.5-54.5T415 300V90q0-22 13.5-36T465 40q9 0 16.5 1.5T492 44l3 2V0q-10-5-30-5-40 0-67.5 25.5T370 80q-2-4-6.5-10T343 48.5 308.5 21t-49-21.5T195-10q-69 0-114.5 40.5T35 125q0 56 39 95.5T180 270zm15-235q75 0 125 50t50 125v45l-180-30Q80 207 80 125q0-36 32.5-63T195 35zm195 625v-40H120v40h270z"/><glyph glyph-name="aogonek.alt" horiz-adv-x="510" d="M495 46V0q-9-4-26-5-59-59-59-110 0-23 14.5-36.5T465-165q13 0 28 3.5t23 7.5l9 4v-35q-30-15-60-15-41 0-65.5 23.5T375-115q0 62 63 114-31 7-49.5 29.5T370 80q-2-4-6.5-10T343 48.5 308.5 21t-49-21.5T195-10q-69 0-114.5 40.5T35 125q0 56 39 95.5T180 270l190 30q0 62-38.5 103.5T235 445q-39 0-74-17.5T110 392l-15-17-30 30q3 3 7.5 9t21 20.5 35 26T176 481t59 9q77 0 128.5-54.5T415 300V90q0-22 13.5-36T465 40q9 0 16.5 1.5T492 44zM195 35q75 0 125 50t50 125v45l-180-30Q80 207 80 125q0-36 32.5-63T195 35z"/><glyph glyph-name="aring.alt" horiz-adv-x="510" d="M200 640q0-55 55-55t55 55-55 55-55-55zm150 0q0-41-27-68t-68-27-68 27-27 68 27 68 68 27 68-27 27-68zM180 270l190 30q0 62-38.5 103.5T235 445q-39 0-74-17.5T110 392l-15-17-30 30q3 3 7.5 9t21 20.5 35 26T176 481t59 9q77 0 128.5-54.5T415 300V90q0-22 13.5-36T465 40q9 0 16.5 1.5T492 44l3 2V0q-10-5-30-5-40 0-67.5 25.5T370 80q-2-4-6.5-10T343 48.5 308.5 21t-49-21.5T195-10q-69 0-114.5 40.5T35 125q0 56 39 95.5T180 270zm15-235q75 0 125 50t50 125v45l-180-30Q80 207 80 125q0-36 32.5-63T195 35z"/><glyph glyph-name="atilde.alt" horiz-adv-x="510" d="m180 270 190 30q0 62-38.5 103.5T235 445q-39 0-74-17.5T110 392l-15-17-30 30q3 3 7.5 9t21 20.5 35 26T176 481t59 9q77 0 128.5-54.5T415 300V90q0-22 13.5-36T465 40q9 0 16.5 1.5T492 44l3 2V0q-10-5-30-5-40 0-67.5 25.5T370 80q-2-4-6.5-10T343 48.5 308.5 21t-49-21.5T195-10q-69 0-114.5 40.5T35 125q0 56 39 95.5T180 270zm15-235q75 0 125 50t50 125v45l-180-30Q80 207 80 125q0-36 32.5-63T195 35zm0 605q-17 0-28.5-18.5T155 565h-40q0 57 22 86t58 29q28 0 49.5-19t39.5-37.5 36-18.5q17 0 28.5 18.5T360 680h40q0-57-22-86t-58-29q-22 0-40.5 11.5t-29.5 26-25.5 26T195 640z"/><glyph glyph-name="lacute.alt" horiz-adv-x="285" d="m85 795 75 130h55l-90-130H85zm0-675v580h45V120q0-41 21-63t59-22q13 0 28 3.5t24 7.5l8 4V5q-30-15-60-15-57 0-91 35t-34 95z"/><glyph glyph-name="lcaron.alt" horiz-adv-x="285" d="M85 120v580h45V120q0-41 21-63t59-22q13 0 28 3.5t24 7.5l8 4V5q-30-15-60-15-57 0-91 35t-34 95zm120 445 45 135h50l-60-135h-35z"/><glyph glyph-name="lcommaaccent.alt" horiz-adv-x="285" d="M85 120v580h45V120q0-41 21-63t59-22q13 0 28 3.5t24 7.5l8 4V5q-30-15-60-15-57 0-91 35t-34 95zm25-335 45 135h50l-60-135h-35z"/><glyph glyph-name="Igrave.alt" horiz-adv-x="370" d="M45 650v50h280v-50H210V50h115V0H45v50h115v600H45zm90 275 75-130h-40L80 925h55z"/><glyph glyph-name="Iacute.alt" horiz-adv-x="370" d="M45 650v50h280v-50H210V50h115V0H45v50h115v600H45zm115 145 75 130h55l-90-130h-40z"/><glyph glyph-name="Icircumflex.alt" horiz-adv-x="370" d="M45 650v50h280v-50H210V50h115V0H45v50h115v600H45zm165 275 105-130h-45l-85 100-85-100H55l105 130h50z"/><glyph glyph-name="Idieresis.alt" horiz-adv-x="370" d="M45 650v50h280v-50H210V50h115V0H45v50h115v600H45zm18 205q0 15 10 25t25 10 25-10 10-25-10-25-25-10-25 10-10 25zm175 0q0 15 10 25t25 10 25-10 10-25-10-25-25-10-25 10-10 25z"/><glyph glyph-name="Idotaccent.alt" horiz-adv-x="370" d="M45 650v50h280v-50H210V50h115V0H45v50h115v600H45zm105 210q0 15 10 25t25 10 25-10 10-25-10-25-25-10-25 10-10 25z"/><glyph glyph-name="Imacron.alt" horiz-adv-x="370" d="M45 650v50h280v-50H210V50h115V0H45v50h115v600H45zm275 230v-40H50v40h270z"/><glyph glyph-name="Iogonek.alt" horiz-adv-x="370" d="M290 0H45v50h115v600H45v50h280v-50H210V50h115V0l-18-18.5-29-42-18-54.5q0-23 14.5-36.5T315-165q13 0 28 3.5t23 7.5l9 4v-35q-30-15-60-15-41 0-65.5 23.5T225-115q0 29 16.5 57.5T274-14z"/><glyph glyph-name="yacute.alt" horiz-adv-x="585" d="m265 565 75 130h55l-90-130h-40zM445 15v100l-5.5-10.5-18-22.5L390 53.5l-46.5-23L280 20q-83 0-139 58T85 225v255h45V225q0-70 43-115t107-45q68 0 116.5 50.5T445 240v240h45V15q0-96-61.5-160.5T280-210q-36 0-69 10.5t-54 25-37 29T97-120l-7 10 30 30q2-3 6.5-9t19.5-20.5 32-26 45-20.5 57-9q69 0 117 51t48 129z"/><glyph glyph-name="ydieresis.alt" horiz-adv-x="585" d="M445 15v100l-5.5-10.5-18-22.5L390 53.5l-46.5-23L280 20q-83 0-139 58T85 225v255h45V225q0-70 43-115t107-45q68 0 116.5 50.5T445 240v240h45V15q0-96-61.5-160.5T280-210q-36 0-69 10.5t-54 25-37 29T97-120l-7 10 30 30q2-3 6.5-9t19.5-20.5 32-26 45-20.5 57-9q69 0 117 51t48 129zM165 625q0 15 10 25t25 10 25-10 10-25-10-25-25-10-25 10-10 25zm175 0q0 15 10 25t25 10 25-10 10-25-10-25-25-10-25 10-10 25z"/><glyph glyph-name="ugrave.alt" d="m245 695 75-130h-40l-90 130h55zM435 80l-5-10-16.5-21.5L384 21 340-.5 280-10q-83 0-139 58T85 195v285h45V195q0-70 43-115t107-45q67 0 111 50t44 125v270h45V90q0-22 14-36t36-14q9 0 16.5 1.5T557 44l3 2V0q-10-5-30-5-40 0-67.5 25.5T435 80z"/><glyph glyph-name="uacute.alt" d="m265 565 75 130h55l-90-130h-40zM435 80l-5-10-16.5-21.5L384 21 340-.5 280-10q-83 0-139 58T85 195v285h45V195q0-70 43-115t107-45q67 0 111 50t44 125v270h45V90q0-22 14-36t36-14q9 0 16.5 1.5T557 44l3 2V0q-10-5-30-5-40 0-67.5 25.5T435 80z"/><glyph glyph-name="ucircumflex.alt" d="m435 80-5-10-16.5-21.5L384 21 340-.5 280-10q-83 0-139 58T85 195v285h45V195q0-70 43-115t107-45q67 0 111 50t44 125v270h45V90q0-22 14-36t36-14q9 0 16.5 1.5T557 44l3 2V0q-10-5-30-5-40 0-67.5 25.5T435 80zM315 695l105-130h-45l-85 100-85-100h-45l105 130h50z"/><glyph glyph-name="udieresis.alt" d="m435 80-5-10-16.5-21.5L384 21 340-.5 280-10q-83 0-139 58T85 195v285h45V195q0-70 43-115t107-45q67 0 111 50t44 125v270h45V90q0-22 14-36t36-14q9 0 16.5 1.5T557 44l3 2V0q-10-5-30-5-40 0-67.5 25.5T435 80zM165 625q0 15 10 25t25 10 25-10 10-25-10-25-25-10-25 10-10 25zm175 0q0 15 10 25t25 10 25-10 10-25-10-25-25-10-25 10-10 25z"/><glyph glyph-name="uhungarumlaut.alt" d="m435 80-5-10-16.5-21.5L384 21 340-.5 280-10q-83 0-139 58T85 195v285h45V195q0-70 43-115t107-45q67 0 111 50t44 125v270h45V90q0-22 14-36t36-14q9 0 16.5 1.5T557 44l3 2V0q-10-5-30-5-40 0-67.5 25.5T435 80zM190 560l75 130h55l-90-130h-40zm145 0 75 130h55l-90-130h-40z"/><glyph glyph-name="umacron.alt" d="m435 80-5-10-16.5-21.5L384 21 340-.5 280-10q-83 0-139 58T85 195v285h45V195q0-70 43-115t107-45q67 0 111 50t44 125v270h45V90q0-22 14-36t36-14q9 0 16.5 1.5T557 44l3 2V0q-10-5-30-5-40 0-67.5 25.5T435 80zm-10 570v-40H155v40h270z"/><glyph glyph-name="uogonek.alt" d="m435 80-5-10-16.5-21.5L384 21 340-.5 280-10q-83 0-139 58T85 195v285h45V195q0-70 43-115t107-45q67 0 111 50t44 125v270h45V90q0-22 14-36t36-14q9 0 16.5 1.5T557 44l3 2V0q-9-4-26-5-59-59-59-110 0-23 14.5-36.5T530-165q13 0 28 3.5t24 7.5l8 4v-35q-30-15-60-15-41 0-65.5 23.5T440-115q0 62 63 114-31 7-49.5 29.5T435 80z"/><glyph glyph-name="uring.alt" d="M235 640q0-55 55-55t55 55-55 55-55-55zm150 0q0-41-27-68t-68-27-68 27-27 68 27 68 68 27 68-27 27-68zm50-560-5-10-16.5-21.5L384 21 340-.5 280-10q-83 0-139 58T85 195v285h45V195q0-70 43-115t107-45q67 0 111 50t44 125v270h45V90q0-22 14-36t36-14q9 0 16.5 1.5T557 44l3 2V0q-10-5-30-5-40 0-67.5 25.5T435 80z"/><glyph glyph-name="a.alt" horiz-adv-x="510" d="m180 270 190 30q0 62-38.5 103.5T235 445q-39 0-74-17.5T110 392l-15-17-30 30q3 3 7.5 9t21 20.5 35 26T176 481t59 9q77 0 128.5-54.5T415 300V90q0-22 13.5-36T465 40q9 0 16.5 1.5T492 44l3 2V0q-10-5-30-5-40 0-67.5 25.5T370 80q-2-4-6.5-10T343 48.5 308.5 21t-49-21.5T195-10q-69 0-114.5 40.5T35 125q0 56 39 95.5T180 270zm15-235q75 0 125 50t50 125v45l-180-30Q80 207 80 125q0-36 32.5-63T195 35z"/><glyph glyph-name="l.alt" horiz-adv-x="285" d="M85 120v580h45V120q0-41 21-63t59-22q13 0 28 3.5t24 7.5l8 4V5q-30-15-60-15-57 0-91 35t-34 95z"/><glyph glyph-name="afii10085.alt" horiz-adv-x="480" d="M125-210 210 0 15 480h50L235 65l170 415h50L175-210h-50z"/><glyph glyph-name="y.alt" horiz-adv-x="585" d="M445 15v100l-5.5-10.5-18-22.5L390 53.5l-46.5-23L280 20q-83 0-139 58T85 225v255h45V225q0-70 43-115t107-45q68 0 116.5 50.5T445 240v240h45V15q0-96-61.5-160.5T280-210q-36 0-69 10.5t-54 25-37 29T97-120l-7 10 30 30q2-3 6.5-9t19.5-20.5 32-26 45-20.5 57-9q69 0 117 51t48 129z"/><glyph glyph-name="I.alt" horiz-adv-x="370" d="M45 650v50h280v-50H210V50h115V0H45v50h115v600H45z"/><glyph glyph-name="u.alt" d="m435 80-5-10-16.5-21.5L384 21 340-.5 280-10q-83 0-139 58T85 195v285h45V195q0-70 43-115t107-45q67 0 111 50t44 125v270h45V90q0-22 14-36t36-14q9 0 16.5 1.5T557 44l3 2V0q-10-5-30-5-40 0-67.5 25.5T435 80z"/><glyph glyph-name="afii10065.alt" horiz-adv-x="510" d="m180 270 190 30q0 62-38.5 103.5T235 445q-39 0-74-17.5T110 392l-15-17-30 30q3 3 7.5 9t21 20.5 35 26T176 481t59 9q77 0 128.5-54.5T415 300V90q0-22 13.5-36T465 40q9 0 16.5 1.5T492 44l3 2V0q-10-5-30-5-40 0-67.5 25.5T370 80q-2-4-6.5-10T343 48.5 308.5 21t-49-21.5T195-10q-69 0-114.5 40.5T35 125q0 56 39 95.5T180 270zm15-235q75 0 125 50t50 125v45l-180-30Q80 207 80 125q0-36 32.5-63T195 35z"/><glyph glyph-name="at.case" horiz-adv-x="890" d="M435 485q-54 0-89.5-38.5T310 345t35.5-101.5T435 205t89.5 38.5T560 345t-35.5 101.5T435 485zm0 45q25 0 47-7t36-17.5 24-21 14-17.5l4-7v65h45V303q0-98 75-98 41 0 68 40.5T775 370q0 133-94 224t-236 91q-135 0-232.5-98.5T115 350t97.5-236.5T445 15q56 0 106 17.5T623 68l22 17 25-35q-3-3-9.5-8.5t-28-19.5T587-2.5t-62.5-19T445-30Q295-30 182.5 83.5T70 350t112.5 266.5T445 730q156 0 265.5-106.5T820 370q0-103-40-156.5T680 160q-24 0-44 9t-31.5 21-20 24.5T573 236l-3 9q-1-3-4-9t-14.5-20.5-25.5-26-38.5-20.5-52.5-9q-69 0-119.5 53.5T265 345t50.5 131.5T435 530z"/><glyph glyph-name="parenleft.case" horiz-adv-x="330" d="M125 350q0-76 17-149.5T183.5 76 232-15.5 273-76l17-19-40-25-18.5 22L191-37l-51.5 98.5-41 130L80 350l17.5 157.5L140 639l50 96.5 42 63.5 18 21 40-25q-7-7-18-20.5t-39.5-58-50-93-39.5-123T125 350z"/><glyph glyph-name="parenright.case" horiz-adv-x="330" d="M205 350q0 76-17 149.5T146.5 624 98 715.5 57 776l-17 19 40 25 18.5-22 40.5-61 51.5-98.5 41-130L250 350l-17.5-157.5L190 61l-50-96.5L98-99l-18-21-40 25q7 7 18 20.5t39.5 58 50 93 39.5 123T205 350z"/><glyph glyph-name="bracketleft.case" horiz-adv-x="340" d="M150 760V-60h145v-50H100v920h195v-50H150z"/><glyph glyph-name="bracketright.case" horiz-adv-x="340" d="M190-60v820H45v50h195v-920H45v50h145z"/><glyph glyph-name="braceleft.case" horiz-adv-x="355" d="M65 330v40q75 0 75 75v235q0 61 36.5 95.5T280 810h35v-45h-35q-95 0-95-85V445q0-36-16.5-59.5T136 356l-16-6q3-1 7-2.5t15.5-8 20-16 15.5-28 7-40.5V20q0-85 95-85h35v-45h-35q-67 0-103.5 34.5T140 20v235q0 75-75 75z"/><glyph glyph-name="braceright.case" horiz-adv-x="355" d="M290 370v-40q-75 0-75-75V20q0-61-36.5-95.5T75-110H40v45h35q95 0 95 85v235q0 22 6.5 40t16 28 19.5 16.5 16 8.5l7 2q-3 1-7 2.5t-15.5 8-20 16-15.5 28-7 40.5v235q0 85-95 85H40v45h35q67 0 103.5-34.5T215 680V445q0-75 75-75z"/><glyph glyph-name="exclamdown.case" horiz-adv-x="300" d="M130 540h40L180 0h-60zm-15 130q0 15 10 25t25 10 25-10 10-25-10-25-25-10-25 10-10 25z"/><glyph glyph-name="questiondown.case" horiz-adv-x="515" d="M245 540h45q5-20 5-45 0-45-20-81.5T226.5 352L169 303.5l-49-56-20-72.5q0-58 43.5-96.5T260 40q39 0 70.5 12.5t48.5 30 28 35 15 30.5l3 12 45-15-5.5-16.5L445 91l-37.5-47L347 7l-87-17q-92 0-151 54T50 175q0 43 14.5 77t36 54.5 47 42.5l47 41.5 36 51.5 14.5 73v25zm60 130q0-15-10-25t-25-10-25 10-10 25 10 25 25 10 25-10 10-25z"/><glyph glyph-name="guillemotleft.case" horiz-adv-x="440" d="M165 190 50 350l115 160h55L105 350l115-160h-55zm170 0L220 350l115 160h55L275 350l115-160h-55z"/><glyph glyph-name="guillemotright.case" horiz-adv-x="440" d="M390 350 275 190h-55l115 160-115 160h55zm-170 0L105 190H50l115 160L50 510h55z"/><glyph glyph-name="guilsinglleft.case" horiz-adv-x="270" d="M220 510 105 350l115-160h-55L50 350l115 160h55z"/><glyph glyph-name="guilsinglright.case" horiz-adv-x="270" d="M165 350 50 510h55l115-160-115-160H50z"/><glyph glyph-name="hyphen.case" horiz-adv-x="420" d="M375 347v-45H45v45h330z"/><glyph glyph-name="endash.case" horiz-adv-x="475" d="M430 368v-45H45v45h385z"/><glyph glyph-name="emdash.case" horiz-adv-x="715" d="M670 368v-45H45v45h625z"/><glyph glyph-name="periodcentered.case" horiz-adv-x="185" d="M60 353q0 15 10 25t25 10 25-10 10-25-10-25-25-10-25 10-10 25z"/><glyph glyph-name="zero.tab" horiz-adv-x="620" d="M90 350q0-142 66-226t154-84 154 84 66 226-66 226-154 84-154-84-66-226zm490 0q0-161-81.5-260.5T310-10 121.5 89.5 40 350t81.5 260.5T310 710t188.5-99.5T580 350z"/><glyph glyph-name="one.tab" horiz-adv-x="620" d="M320 700h40V0h-50v610q-5-6-14-15t-44-24.5-77-15.5v40q42 0 78.5 26.5T305 674z"/><glyph glyph-name="two.tab" horiz-adv-x="620" d="M530 0H90q0 56 21.5 103.5t56 81.5 76 64.5l83 58.5 76 56.5 56 66L480 510q0 63-47 106.5T310 660q-39 0-70-13t-48-31-28.5-36.5T148 548l-3-13-45 20q1 6 4.5 16.5t19 37.5 36.5 47 61 37 89 17q95 0 157.5-59T530 510q0-46-19-85.5t-49.5-69-68.5-57L315.5 244l-74-54.5-61-63.5L145 50h385V0z"/><glyph glyph-name="three.tab" horiz-adv-x="620" d="M380 370q6-1 15.5-4t34.5-16 44.5-31 35-52.5T525 190q0-80-65.5-140T295-10q-42 0-80 11t-62.5 26-43 30.5T83 84l-8 11 35 35q2-4 7-10t22-21.5T176 71t52-21.5 67-9.5q80 0 130 44t50 106-50 106-130 44h-65v50h65q70 0 112.5 39.5T450 530q0 54-43 92t-112 38q-48 0-89-20t-58-40l-18-20-35 40q3 4 8.5 10t24.5 21.5 40.5 27.5 56 21.5T295 710q88 0 146.5-53.5T500 530q0-36-12.5-66t-30-46.5-35-28T392 374z"/><glyph glyph-name="four.tab" horiz-adv-x="620" d="M475 210h90v-50h-90V0h-50v160H65v60l350 480h60V210zm-50 0v425L115 210h310z"/><glyph glyph-name="five.tab" horiz-adv-x="620" d="M310 445q94 0 159.5-66.5T535 215q0-94-67.5-159.5T300-10q-41 0-78 11t-61 26-42 30.5T93 84l-8 11 35 35q2-4 7-10t22-21.5T185 71t50-21.5 65-9.5q82 0 133.5 49.5T485 215q0 78-50 129t-125 51q-49 0-89-21.5T166 331l-16-21h-40l25 390h355v-50H180l-15-260q6 6 18 15t49.5 24.5T310 445z"/><glyph glyph-name="six.tab" horiz-adv-x="620" d="M305 440q97 0 163.5-65.5T535 215 468.5 55.5 305-10 141.5 55.5 75 215q0 38 12.5 75.5T112 346l13 19 210 335h55L215 420q35 20 90 20zm180-225q0 75-51 125t-129 50-129-50-51-125 51-125 129-50 129 50 51 125z"/><glyph glyph-name="seven.tab" horiz-adv-x="620" d="M100 700h430v-50L210 0h-50l320 650H100v50z"/><glyph glyph-name="eight.tab" horiz-adv-x="620" d="M310 405q63 0 104 35.5t41 89.5-41 92-104 38-104-38-41-92 41-89.5T310 405zm0-365q77 0 126 45t49 110-50.5 112.5T310 355t-124.5-47.5T135 195t49-110 126-45zm0-50q-96 0-160.5 60.5T85 195q0 39 14 72.5t33.5 53.5 39.5 34 34 19l14 6q-4 1-11 4.5T183.5 400t-32 27.5-25 43T115 530q0 72 57 126t138 54 138-54 57-126q0-32-11-59.5T467.5 427 437 400t-26-16l-11-4 14.5-6 32.5-19 41-34 32.5-53 14.5-73q0-84-64.5-144.5T310-10z"/><glyph glyph-name="nine.tab" horiz-adv-x="620" d="M315 260q-97 0-163.5 65.5T85 485t66.5 159.5T315 710t163.5-65.5T545 485q0-38-12.5-75.5T508 354l-13-19L285 0h-55l175 280q-35-20-90-20zM135 485q0-75 51-125t129-50 129 50 51 125-51 125-129 50-129-50-51-125z"/><glyph glyph-name="c_t" horiz-adv-x="850" d="M45 240q0 104 70 177t165 73q16 0 32-2.5t24-5.5l9-2q-10 25-10 70 0 68 47 114t118 46q72 0 118.5-47.5T665 540v-60h110v-45H665V120q0-41 20.5-63T740 35q16 0 32 3.5t24 7.5l9 4V5q-30-15-65-15-57 0-88.5 33.5T620 120v315h-95v45h95v60q0 59-33.5 94.5T500 670q-56 0-90.5-33.5T375 550q0-31 8.5-56t17.5-34l9-10 60-60-35-30-6 9-18.5 20.5-31 26L336 436l-56 9q-76 0-133-60T90 240t57-145 133-60q47 0 85.5 21.5T420 99l15 21 35-30-8-11-23-24-38-30-53-24-68-11q-95 0-165 73T45 240z"/><glyph glyph-name="s_p" horiz-adv-x="1020" d="M555 95v-305h-45v750q0 58-31 94t-74 36q-46 0-78-34t-32-86q0-29 10-55t20-38l10-12 25-25-35-35q-2 2-5 6.5T306 406t-23 18-32 14.5-41 6.5q-50 0-80-25t-30-60q0-31 28.5-51t69-31 80.5-25 68.5-43 28.5-75q0-62-46.5-103.5T205-10q-31 0-59.5 8t-48 20-34 24T42 62l-7 8 35 35q6-8 16.5-19.5t45.5-31T205 35q58 0 91.5 28.5T330 135q0 33-28.5 53.5t-69 32-80.5 25-68.5 42T55 360q0 51 45 90.5T210 490q28 0 54-8-9 22-9 68 0 67 44.5 113.5T405 710t105.5-48.5T555 540V385q2 4 7 11t22 25.5 37 32 52 25 67 11.5q88 0 156.5-73.5T965 240 896.5 63.5 740-10q-35 0-67 11t-52.5 26-36 30.5T562 84zm0 145q0-85 56-145t129-60q69 0 124.5 60.5T920 240t-55.5 144.5T740 445q-73 0-129-60t-56-145z"/><glyph glyph-name="f_t" horiz-adv-x="615" d="M395 520v120h40V480h110v-45H435V120q0-41 20.5-63T510 35q16 0 32 3.5t24 7.5l9 4V5q-30-15-65-15-57 0-88.5 33.5T390 120v315H155V0h-45v435H30v45h80v100q0 63 31.5 96.5T230 710q16 0 32-4t24-8l9-3v-45q-30 15-65 15-34 0-54.5-22T155 580V480h205q15 0 25 11t10 29z"/><glyph glyph-name="zero.numr" horiz-adv-x="350" d="M75 525q0-64 30-102t70-38 70 38 30 102-30 102-70 38-70-38-30-102zm240 0q0-83-40.5-131.5T175 345t-99.5 48.5T35 525t40.5 131.5T175 705t99.5-48.5T315 525z"/><glyph glyph-name="one.numr" horiz-adv-x="200" d="M105 700h35V350h-40v290q-20-30-70-30v35q22 0 41 13.5T98 686z"/><glyph glyph-name="two.numr" horiz-adv-x="285" d="M255 350H25q0 42 19.5 75T92 479t56 39.5 47.5 40T215 604t-20.5 42.5T145 665q-27 0-47-15t-26-30l-7-15-35 15 3 9 11.5 20.5 21 26 33 20.5 46.5 9q50 0 80-30t30-71q0-39-25-69t-56.5-47-63.5-43-42-55h187v-40z"/><glyph glyph-name="three.numr" horiz-adv-x="295" d="M205 535q2 0 6.5-1.5t14.5-7 18-14 14.5-25T265 450q0-44-34-74.5T145 345q-36 0-67 15t-44 30l-14 15 30 30q4-6 11.5-14t32-22 51.5-14q37 0 58.5 18t21.5 47-20.5 47-57.5 18h-47v40h45q65 0 65 55 0 23-18.5 39T140 665q-24 0-44-11.5T68 631l-8-11-30 30q4 6 12.5 15t37 24.5T140 705q48 0 79-28t31-67q0-27-11-45.5T216 540z"/><glyph glyph-name="four.numr" horiz-adv-x="300" d="M230 475h45v-40h-45v-85h-40v85H20v40l160 225h50V475zm-40 0v175L65 475h125z"/><glyph glyph-name="five.numr" horiz-adv-x="280" d="M140 570q52 0 86-33t34-82q0-46-35-78t-90-32q-38 0-69 13.5T22 386l-12 14 30 30q3-5 10-12.5t31.5-20T135 385q40 0 62.5 19.5T220 455q0 34-21.5 54.5T140 530q-22 0-39.5-6T76 512l-6-7H35l15 195h190v-40H85L75 550q25 20 65 20z"/><glyph glyph-name="six.numr" horiz-adv-x="290" d="M145 585q52 0 88.5-35.5T270 465t-36.5-84.5T145 345t-88.5 35.5T20 465q0 20 7.5 41.5T42 539l8 11 100 150h45l-80-120q15 5 30 5zm85-120q0 34-24 57t-61 23-61-23-24-57 24-57 61-23 61 23 24 57z"/><glyph glyph-name="seven.numr" horiz-adv-x="265" d="M20 700h225v-40L110 350H70l135 310H20v40z"/><glyph glyph-name="eight.numr" horiz-adv-x="270" d="M135 385q33 0 54 19t21 46-21 46-54 19-54-19-21-46 21-46 54-19zm0 170q29 0 47 16t18 39-18 39-47 16-47-16-18-39 18-39 47-16zm0-210q-48 0-81.5 31.5T20 450q0 29 15 50t30 28l15 7q-2 1-5.5 2.5t-12 8-15 14.5-12 21.5T30 610q0 38 30.5 66.5T135 705t74.5-28.5T240 610q0-24-12.5-43T202 542l-12-7q2-1 6.5-2.5T211 524t18-16 14.5-24.5T250 450q0-42-33.5-73.5T135 345z"/><glyph glyph-name="nine.numr" horiz-adv-x="290" d="M145 465q-52 0-88.5 35.5T20 585t36.5 84.5T145 705t88.5-35.5T270 585q0-20-7.5-41.5T248 511l-8-11-100-150H95l80 120q-15-5-30-5zM60 585q0-34 24-57t61-23 61 23 24 57-24 57-61 23-61-23-24-57z"/><glyph glyph-name="zero.dnom" horiz-adv-x="350" d="M75 175q0-64 30-102t70-38 70 38 30 102-30 102-70 38-70-38-30-102zm240 0q0-83-40.5-131.5T175-5 75.5 43.5 35 175t40.5 131.5T175 355t99.5-48.5T315 175z"/><glyph glyph-name="one.dnom" horiz-adv-x="200" d="M105 350h35V0h-40v290q-20-30-70-30v35q22 0 41 13.5T98 336z"/><glyph glyph-name="two.dnom" horiz-adv-x="285" d="M255 0H25q0 42 19.5 75T92 129t56 39.5 47.5 40T215 254t-20.5 42.5T145 315q-27 0-47-15t-26-30l-7-15-35 15 3 9 11.5 20.5 21 26 33 20.5 46.5 9q50 0 80-30t30-71q0-39-25-69t-56.5-47T110 95 68 40h187V0z"/><glyph glyph-name="three.dnom" horiz-adv-x="295" d="M205 185q2 0 6.5-1.5t14.5-7 18-14 14.5-25T265 100q0-44-34-74.5T145-5q-36 0-67 15T34 40L20 55l30 30q4-6 11.5-14t32-22T145 35q37 0 58.5 18t21.5 47-20.5 47-57.5 18h-47v40h45q65 0 65 55 0 23-18.5 39T140 315q-24 0-44-11.5T68 281l-8-11-30 30q4 6 12.5 15t37 24.5T140 355q48 0 79-28t31-67q0-27-11-45.5T216 190z"/><glyph glyph-name="four.dnom" horiz-adv-x="300" d="M230 125h45V85h-45V0h-40v85H20v40l160 225h50V125zm-40 0v175L65 125h125z"/><glyph glyph-name="five.dnom" horiz-adv-x="280" d="M140 220q52 0 86-33t34-82q0-46-35-78T135-5Q97-5 66 8.5T22 36L10 50l30 30q3-5 10-12.5t31.5-20T135 35q40 0 62.5 19.5T220 105q0 34-21.5 54.5T140 180q-22 0-39.5-6T76 162l-6-7H35l15 195h190v-40H85L75 200q25 20 65 20z"/><glyph glyph-name="six.dnom" horiz-adv-x="290" d="M145 235q52 0 88.5-35.5T270 115t-36.5-84.5T145-5 56.5 30.5 20 115q0 20 7.5 41.5T42 189l8 11 100 150h45l-80-120q15 5 30 5zm85-120q0 34-24 57t-61 23-61-23-24-57 24-57 61-23 61 23 24 57z"/><glyph glyph-name="seven.dnom" horiz-adv-x="265" d="M20 350h225v-40L110 0H70l135 310H20v40z"/><glyph glyph-name="eight.dnom" horiz-adv-x="270" d="M135 35q33 0 54 19t21 46-21 46-54 19-54-19-21-46 21-46 54-19zm0 170q29 0 47 16t18 39-18 39-47 16-47-16-18-39 18-39 47-16zm0-210Q87-5 53.5 26.5T20 100q0 29 15 50t30 28l15 7q-2 1-5.5 2.5t-12 8-15 14.5-12 21.5T30 260q0 38 30.5 66.5T135 355t74.5-28.5T240 260q0-24-12.5-43T202 192l-12-7q2-1 6.5-2.5T211 174t18-16 14.5-24.5T250 100q0-42-33.5-73.5T135-5z"/><glyph glyph-name="nine.dnom" horiz-adv-x="290" d="M145 115q-52 0-88.5 35.5T20 235t36.5 84.5T145 355t88.5-35.5T270 235q0-20-7.5-41.5T248 161l-8-11L140 0H95l80 120q-15-5-30-5zM60 235q0-34 24-57t61-23 61 23 24 57-24 57-61 23-61-23-24-57z"/><glyph glyph-name="foundryicon" horiz-adv-x="1538" d="M278 460v-31h-72V230h-35v199h-71v31h178zm241-64q32 0 54.5-25t22.5-59q0-36-22.5-60.5T519 227q-29 0-47 21v-79h-34v224h24l9-19q19 22 48 22zm-3-138q19 0 33 16t14 38q0 21-14 36.5T516 364t-33-15.5-14-36.5q0-22 13.5-38t33.5-16zm-183 19 44 116h37l-77-190q-16-34-49-34-7 0-10 1v28q23 0 31 20l6 16-63 159h37zm368 119q32 0 54-24.5t22-58.5l-1-15H657q2-17 14.5-29t29.5-12q27 0 37 17h35q-9-22-28.5-34.5T701 227q-32 0-55 24.5T623 312q0 35 23 59.5t55 24.5zm-44-71h88q-1 17-14.5 28.5T701 365t-29-11-15-29zm282 135v-31h-72V230h-35v199h-71v31h178zm241-64q32 0 54.5-25t22.5-59q0-36-22.5-60.5T1180 227q-29 0-47 21v-79h-34v224h24l9-19q19 22 48 22zm-3-138q19 0 33 16t14 38q0 21-14 36.5t-33 15.5-33-15.5-14-36.5q0-22 13.5-38t33.5-16zm-183 19 44 116h37l-77-190q-16-34-49-34-7 0-10 1v28q23 0 31 20l6 16-63 159h37zm368 119q32 0 54-24.5t22-58.5l-1-15h-119q2-17 14.5-29t29.5-12q27 0 37 17h35q-9-22-28.5-34.5T1362 227q-32 0-55 24.5t-23 60.5q0 35 23 59.5t55 24.5zm-44-71h88q-1 17-14.5 28.5T1362 365t-29-11-15-29z"/></font>
</defs>
</svg>
