<?xml version="1.0" standalone="no"?>
<!DOCTYPE svg PUBLIC "-//W3C//DTD SVG 1.1//EN" "http://www.w3.org/Graphics/SVG/1.1/DTD/svg11.dtd" >
<svg>
<metadata>
Created by FontForge 20090622 at Sat Aug 19 12:19:24 2017
 By deploy user
Copyright (c) 2017 by TypeType. Designers Ivan Gladkikh, Pavel Emelyanov. Technical designers Olexa Volochay, Nadyr Rakhimov, Dmitriy Greshnev. All rights reserved.
</metadata>
<defs>
<font id="TTNorms-Bold" horiz-adv-x="600" >
  <font-face 
    font-family="TT Norms"
    font-weight="700"
    font-stretch="normal"
    units-per-em="1000"
    panose-1="2 0 8 3 4 0 0 2 0 4"
    ascent="800"
    descent="-200"
    x-height="490"
    cap-height="700"
    bbox="-175 -230 1438 980"
    underline-thickness="50"
    underline-position="-50"
    unicode-range="U+000D-U+FB06"
  />
<missing-glyph horiz-adv-x="0" 
 />
    <glyph glyph-name="f_f" unicode="ff" horiz-adv-x="680" 
d="M650 475v-120h-110v-355h-135v355h-180v-355h-135v355h-70v120h70v50q0 170 155 170q22 0 44.5 -3.5t34.5 -7.5l11 -4v-115q-20 10 -50 10q-26 0 -43 -16t-17 -39v-45h180v70q0 170 155 170q22 0 44.5 -3.5t33.5 -7.5l12 -4v-115q-20 10 -50 10q-26 0 -43 -16t-17 -39
v-65h110z" />
    <glyph glyph-name="uniFB01" unicode="fi" horiz-adv-x="615" 
d="M540 475v-475h-135v355h-180v-355h-135v355h-70v120h70v65q0 170 155 170q22 0 44.5 -4t34.5 -8l11 -3v-115q-20 10 -50 10q-26 0 -43 -16t-17 -39v-60h315zM550 630q0 -34 -21.5 -54.5t-58.5 -20.5q-34 0 -54.5 20.5t-20.5 54.5t20.5 54.5t54.5 20.5q37 0 58.5 -20.5
t21.5 -54.5z" />
    <glyph glyph-name="f_f_i" unicode="ffi" horiz-adv-x="930" 
d="M855 475v-475h-135v355h-180v-355h-135v355h-180v-355h-135v355h-70v120h70v50q0 170 155 170q22 0 44.5 -3.5t34.5 -7.5l11 -4v-115q-20 10 -50 10q-26 0 -43 -16t-17 -39v-45h180v70q0 170 155 170q22 0 44.5 -3.5t33.5 -7.5l12 -4v-115q-20 10 -50 10q-26 0 -43 -16
t-17 -39v-65h315zM865 630q0 -34 -21.5 -54.5t-58.5 -20.5q-34 0 -54.5 20.5t-20.5 54.5t20.5 54.5t54.5 20.5q37 0 58.5 -20.5t21.5 -54.5z" />
    <glyph glyph-name=".notdef" horiz-adv-x="0" 
 />
    <glyph glyph-name=".null" horiz-adv-x="0" 
 />
    <glyph glyph-name=".null" horiz-adv-x="0" 
 />
    <glyph glyph-name="nonmarkingreturn" horiz-adv-x="333" 
 />
    <glyph glyph-name="CR" unicode="&#xd;" horiz-adv-x="0" 
 />
    <glyph glyph-name="space" unicode=" " horiz-adv-x="205" 
 />
    <glyph glyph-name="exclam" unicode="!" horiz-adv-x="330" 
d="M220 200h-110l-25 500h160zM85 65q0 30 23.5 52.5t56.5 22.5t56.5 -22.5t23.5 -52.5t-23.5 -52.5t-56.5 -22.5t-56.5 22.5t-23.5 52.5z" />
    <glyph glyph-name="quotedbl" unicode="&#x22;" horiz-adv-x="415" 
d="M175 700v-230h-120v230h120zM360 700v-230h-120v230h120z" />
    <glyph glyph-name="numbersign" unicode="#" horiz-adv-x="760" 
d="M555 285h135l-20 -100h-135l-35 -185h-115l35 185h-145l-35 -185h-115l35 185h-135l20 100h135l25 130h-135l20 100h135l35 185h115l-35 -185h145l35 185h115l-35 -185h135l-20 -100h-135zM440 285l25 130h-145l-25 -130h145z" />
    <glyph glyph-name="dollar" unicode="$" 
d="M365 708q48 -10 88 -32t56 -39l16 -17l-90 -95q-6 7 -16.5 17t-44 26.5t-69.5 16.5q-43 0 -69 -22t-26 -53q0 -35 35.5 -56.5t86 -36t101.5 -34t86.5 -64.5t35.5 -114q0 -80 -50 -137.5t-140 -75.5v-97h-130v94q-39 6 -75 19.5t-59.5 28.5t-41.5 29.5t-26 23.5l-8 10
l90 90q7 -8 19.5 -20.5t55.5 -33.5t90 -21q54 0 84.5 25.5t30.5 64.5q0 35 -35.5 56.5t-86.5 36t-101.5 34t-86 64.5t-35.5 114q0 72 50 128t135 71v96h130v-97z" />
    <glyph glyph-name="percent" unicode="%" horiz-adv-x="815" 
d="M130 550q0 -30 20 -50t50 -20t50 20t20 50t-20 50t-50 20t-50 -20t-20 -50zM125 0l440 700h125l-440 -700h-125zM370 550q0 -65 -50 -115t-120 -50t-120 50t-50 115t50 115t120 50t120 -50t50 -115zM685 150q0 30 -20 50t-50 20t-50 -20t-20 -50t20 -50t50 -20t50 20
t20 50zM445 150q0 65 50 115t120 50t120 -50t50 -115t-50 -115t-120 -50t-120 50t-50 115z" />
    <glyph glyph-name="ampersand" unicode="&#x26;" horiz-adv-x="655" 
d="M550 145q25 -40 60 -40l25 5v-115q-25 -15 -60 -15q-33 0 -64.5 17.5t-46.5 34.5l-14 18q-7 -8 -20 -19.5t-58.5 -31t-96.5 -19.5q-98 0 -159 54t-61 131q0 36 13.5 70.5t32.5 58t38 41.5t33 27l13 8q-10 10 -25 27.5t-40 63.5t-25 84q0 72 53.5 123.5t131.5 51.5
q81 0 133 -49t52 -121q0 -28 -12 -57t-28.5 -50t-33.5 -38t-29 -26l-12 -9l105 -130q30 45 30 105h125q0 -53 -15 -103t-30 -74zM280 100q27 0 52 10t36 20l12 10l-120 145q-8 -6 -19.5 -16t-31 -38.5t-19.5 -55.5q0 -35 23 -55t67 -20zM340 540q0 26 -17 43t-43 17
q-30 0 -47.5 -16.5t-17.5 -43.5q0 -20 16.5 -45t32.5 -40l16 -15q7 6 17 16.5t26.5 37t16.5 46.5z" />
    <glyph glyph-name="quotesingle" unicode="'" horiz-adv-x="230" 
d="M175 700v-230h-120v230h120z" />
    <glyph glyph-name="parenleft" unicode="(" horiz-adv-x="365" 
d="M205 250q0 -67 14 -135t34 -117t39.5 -88.5t33.5 -59.5l14 -20l-105 -60q-7 8 -18 22.5t-39.5 63t-50 100.5t-39.5 132.5t-18 161.5t17 160.5t41 134.5t48.5 98.5t41.5 64.5l17 22l105 -65l-14.5 -20.5t-32.5 -56.5t-41 -88.5t-32.5 -114t-14.5 -135.5z" />
    <glyph glyph-name="parenright" unicode=")" horiz-adv-x="365" 
d="M160 250q0 67 -14 134.5t-34 116t-39.5 87t-33.5 58.5l-14 19l105 65q7 -8 18 -22.5t39.5 -63t50 -100.5t39.5 -132.5t18 -161.5t-17 -160.5t-41.5 -134.5t-48.5 -98.5t-41 -64.5l-17 -22l-105 60l14.5 20.5t32.5 57.5t41 90.5t32.5 115.5t14.5 136z" />
    <glyph glyph-name="asterisk" unicode="*" horiz-adv-x="400" 
d="M200 455l-65 -95l-75 60l70 85l-105 30l30 90l105 -40l-10 115h100l-10 -115l105 40l30 -90l-105 -30l70 -85l-75 -60z" />
    <glyph glyph-name="plus" unicode="+" horiz-adv-x="525" 
d="M320 60h-115v170h-170v125h170v170h115v-170h170v-125h-170v-170z" />
    <glyph glyph-name="comma" unicode="," horiz-adv-x="260" 
d="M105 145l110 -65l-130 -210l-90 45z" />
    <glyph glyph-name="hyphen" unicode="-" horiz-adv-x="430" 
d="M395 355v-120h-360v120h360z" />
    <glyph glyph-name="period" unicode="." horiz-adv-x="250" 
d="M45 65q0 30 23.5 52.5t56.5 22.5t56.5 -22.5t23.5 -52.5t-23.5 -52.5t-56.5 -22.5t-56.5 22.5t-23.5 52.5z" />
    <glyph glyph-name="slash" unicode="/" horiz-adv-x="485" 
d="M455 710l-300 -920h-125l300 920h125z" />
    <glyph glyph-name="zero" unicode="0" horiz-adv-x="710" 
d="M205 350q0 -110 44.5 -170t105.5 -60t105.5 60t44.5 170t-44.5 170t-105.5 60t-105.5 -60t-44.5 -170zM655 350q0 -164 -87.5 -264.5t-212.5 -100.5t-212.5 100.5t-87.5 264.5t87.5 264.5t212.5 100.5t212.5 -100.5t87.5 -264.5z" />
    <glyph glyph-name="one" unicode="1" horiz-adv-x="400" 
d="M185 700h125v-700h-150v510h-120v95q32 4 59 15.5t42 24.5t25.5 25.5t14.5 21.5z" />
    <glyph glyph-name="two" unicode="2" horiz-adv-x="580" 
d="M525 0h-490q0 77 25 139.5t62 99t80.5 69.5t80.5 56t62 54t25 67q0 42 -26 66t-74 24q-38 0 -65.5 -21.5t-36.5 -42.5l-8 -21l-125 60q2 7 6.5 18t23.5 39.5t44 50t70.5 39.5t100.5 18q107 0 176 -65t69 -160q0 -53 -23 -96.5t-60 -74t-76 -56t-79.5 -58t-61.5 -65.5h300
v-140z" />
    <glyph glyph-name="three" unicode="3" horiz-adv-x="575" 
d="M410 370l13.5 -5.5t30 -17.5t38 -32t30 -50t13.5 -70q0 -86 -71.5 -148t-188.5 -62q-50 0 -96 11.5t-75.5 27.5t-51.5 32t-32 28l-10 11l90 95q2 -3 6.5 -8t20 -18t33 -23t44.5 -18t56 -8q58 0 89 25.5t31 64.5t-30.5 64.5t-84.5 25.5h-75v125h70q44 0 69.5 23.5
t25.5 61.5q0 35 -25.5 57.5t-69.5 22.5q-38 0 -71.5 -16.5t-48.5 -32.5l-15 -16l-90 90q3 4 9 11t28 25.5t47.5 32t67.5 25t88 11.5q106 0 170.5 -56t64.5 -139q0 -31 -10.5 -57.5t-25 -43t-29 -28t-25.5 -16.5z" />
    <glyph glyph-name="four" unicode="4" horiz-adv-x="610" 
d="M510 255h80v-130h-80v-125h-150v125h-330v150l305 425h175v-445zM360 255v270l-190 -270h190z" />
    <glyph glyph-name="five" unicode="5" horiz-adv-x="620" 
d="M340 465q101 0 168 -67t67 -168q0 -106 -73.5 -175.5t-191.5 -69.5q-50 0 -95.5 11.5t-74 27.5t-50 32t-30.5 28l-10 11l90 95q7 -8 19.5 -19.5t54.5 -31t86 -19.5q56 0 88 30.5t32 79.5t-34 82t-86 33q-36 0 -64.5 -13.5t-39.5 -27.5l-11 -14l-105 10l25 400h425v-130
h-290l-10 -130q40 25 110 25z" />
    <glyph glyph-name="six" unicode="6" horiz-adv-x="615" 
d="M330 475q94 0 167 -74t73 -171q0 -103 -75 -174t-190 -71t-190 71t-75 174q0 42 15 84.5t30 63.5l15 22l195 300h155l-150 -230q13 5 30 5zM425 230q0 49 -34 82t-86 33t-86 -33t-34 -82t34 -82t86 -33t86 33t34 82z" />
    <glyph glyph-name="seven" unicode="7" horiz-adv-x="535" 
d="M30 700h480v-120l-275 -580h-155l270 565h-320v135z" />
    <glyph glyph-name="eight" unicode="8" horiz-adv-x="610" 
d="M305 110q47 0 81 30.5t34 69.5t-34 69.5t-81 30.5t-81 -30.5t-34 -69.5t34 -69.5t81 -30.5zM305 430q40 0 65 23t25 57t-25 57t-65 23t-65 -23t-25 -57t25 -57t65 -23zM305 -15q-110 0 -182.5 66.5t-72.5 158.5q0 32 11 61.5t26 48.5t30.5 33t26.5 21l11 6l-8.5 5.5
t-19.5 16.5t-24.5 28t-19 39t-8.5 51q0 78 66 136.5t164 58.5t164 -58.5t66 -136.5q0 -42 -20 -77t-40 -49l-20 -14q4 -2 11 -6.5t25.5 -20t32 -34t25 -48t11.5 -61.5q0 -92 -72.5 -158.5t-182.5 -66.5z" />
    <glyph glyph-name="nine" unicode="9" horiz-adv-x="615" 
d="M285 225q-94 0 -167 74t-73 171q0 103 75 174t190 71t190 -71t75 -174q0 -42 -15 -84.5t-30 -63.5l-15 -22l-195 -300h-155l150 230q-13 -5 -30 -5zM190 470q0 -49 34 -82t86 -33t86 33t34 82t-34 82t-86 33t-86 -33t-34 -82z" />
    <glyph glyph-name="colon" unicode=":" horiz-adv-x="250" 
d="M45 65q0 30 23.5 52.5t56.5 22.5t56.5 -22.5t23.5 -52.5t-23.5 -52.5t-56.5 -22.5t-56.5 22.5t-23.5 52.5zM45 425q0 30 23.5 52.5t56.5 22.5t56.5 -22.5t23.5 -52.5t-23.5 -52.5t-56.5 -22.5t-56.5 22.5t-23.5 52.5z" />
    <glyph glyph-name="semicolon" unicode=";" horiz-adv-x="270" 
d="M65 425q0 30 23.5 52.5t56.5 22.5t56.5 -22.5t23.5 -52.5t-23.5 -52.5t-56.5 -22.5t-56.5 22.5t-23.5 52.5zM105 145l110 -65l-130 -210l-90 45z" />
    <glyph glyph-name="less" unicode="&#x3c;" horiz-adv-x="510" 
d="M40 200v90l430 205v-130l-260 -120l260 -120v-130z" />
    <glyph glyph-name="equal" unicode="=" horiz-adv-x="495" 
d="M455 255v-115h-415v115h415zM455 450v-115h-415v115h415z" />
    <glyph glyph-name="greater" unicode="&#x3e;" horiz-adv-x="510" 
d="M470 290v-90l-430 -205v130l260 120l-260 120v130z" />
    <glyph glyph-name="question" unicode="?" horiz-adv-x="550" 
d="M185 245q0 40 17.5 71t42.5 50l50 36.5t42.5 40.5t17.5 52q0 31 -25 53t-65 22q-42 0 -72 -20t-39 -40l-9 -20l-125 55q2 7 6.5 18.5t24 40.5t45 51.5t72 41t102.5 18.5q106 0 173 -59t67 -141q0 -51 -18.5 -90.5t-45 -64t-53 -46t-45 -50.5t-18.5 -64h-135
q-10 25 -10 45zM175 65q0 30 23.5 52.5t56.5 22.5t56.5 -22.5t23.5 -52.5t-23.5 -52.5t-56.5 -22.5t-56.5 22.5t-23.5 52.5z" />
    <glyph glyph-name="at" unicode="@" horiz-adv-x="900" 
d="M445 335q-36 0 -60.5 -25.5t-24.5 -64.5t24.5 -64.5t60.5 -25.5q34 0 57 25t23 65t-23 65t-57 25zM430 430q29 0 52.5 -10t33.5 -20l9 -10v35h95v-220q0 -23 16 -39t39 -16q70 0 70 120q0 114 -84.5 194.5t-210.5 80.5q-120 0 -205 -86t-85 -209t85 -209t205 -86
q51 0 96 15t64 30l20 15l55 -70q-3 -3 -10 -9t-29.5 -20.5t-48 -26t-65.5 -20.5t-82 -9q-103 0 -193 53.5t-143.5 143.5t-53.5 193t53.5 193t143.5 143.5t193 53.5q167 0 281 -109t114 -261q0 -98 -48 -154t-122 -56q-35 0 -64 15t-40 30l-11 15q-4 -7 -12.5 -17
t-40.5 -26.5t-72 -16.5q-73 0 -124 52.5t-51 132.5q0 79 50.5 132t119.5 53z" />
    <glyph glyph-name="A" unicode="A" horiz-adv-x="730" 
d="M450 295l-85 230l-85 -230h170zM500 165h-270l-60 -165h-160l275 700h160l275 -700h-160z" />
    <glyph glyph-name="B" unicode="B" horiz-adv-x="695" 
d="M407 0h-317v700h300q95 0 157.5 -55.5t62.5 -129.5q0 -28 -8 -53t-20 -41.5t-24 -28.5t-20 -17l-8 -5q5 -2 12.5 -5.5t27.5 -18t35 -31.5t27.5 -46.5t12.5 -63.5q0 -84 -67 -144.5t-171 -60.5zM240 125h160q41 0 68 26t27 64t-27 64t-68 26h-160v-180zM380 575h-140v-150
h140q37 0 58.5 20.5t21.5 54.5t-21.5 54.5t-58.5 20.5z" />
    <glyph glyph-name="C" unicode="C" horiz-adv-x="755" 
d="M430 715q55 0 105 -14.5t82 -35t56.5 -41t35.5 -34.5l11 -15l-95 -95l-8 11t-23 24t-39 30t-55 24t-70 11q-98 0 -164 -66t-66 -164t66 -164t164 -66q38 0 73 10.5t58 25t40.5 29t25.5 25.5l8 10l90 -95q-4 -6 -12 -15.5t-35.5 -33.5t-59 -42.5t-82.5 -33.5t-106 -15
q-160 0 -270 107t-110 258t110 258t270 107z" />
    <glyph glyph-name="D" unicode="D" horiz-adv-x="760" 
d="M90 700h260q153 0 256.5 -101.5t103.5 -248.5t-103.5 -248.5t-256.5 -101.5h-260v700zM350 565h-110v-430h110q87 0 148.5 62.5t61.5 152.5t-60 152.5t-150 62.5z" />
    <glyph glyph-name="E" unicode="E" horiz-adv-x="665" 
d="M240 135h375v-135h-525v700h515v-135h-365v-140h285v-135h-285v-155z" />
    <glyph glyph-name="F" unicode="F" horiz-adv-x="645" 
d="M90 700h515v-135h-365v-155h285v-135h-285v-275h-150v700z" />
    <glyph glyph-name="G" unicode="G" horiz-adv-x="810" 
d="M460 380h275v-260q-4 -5 -12.5 -14.5t-37.5 -32.5t-61.5 -41t-85 -32.5t-108.5 -14.5q-160 0 -270 107t-110 258t110 258t270 107q55 0 105 -14.5t82 -35t56.5 -41t35.5 -34.5l11 -15l-95 -95l-8 11t-23 24t-39 30t-55 24t-70 11q-98 0 -164 -66t-66 -164t66 -164
t164 -66q47 0 85.5 14t54.5 28l15 13v95h-125v110z" />
    <glyph glyph-name="H" unicode="H" horiz-adv-x="780" 
d="M690 700v-700h-150v285h-300v-285h-150v700h150v-280h300v280h150z" />
    <glyph glyph-name="I" unicode="I" horiz-adv-x="330" 
d="M90 0v700h150v-700h-150z" />
    <glyph glyph-name="J" unicode="J" horiz-adv-x="515" 
d="M280 700h150v-475q0 -107 -67.5 -173.5t-177.5 -66.5q-53 0 -99.5 21.5t-65.5 42.5l-20 21l90 90q3 -4 9.5 -11t29 -18t46.5 -11q49 0 77 28t28 77v475z" />
    <glyph glyph-name="K" unicode="K" horiz-adv-x="710" 
d="M240 700v-305l275 305h175l-260 -290l280 -410h-175l-205 300l-90 -100v-200h-150v700h150z" />
    <glyph glyph-name="L" unicode="L" horiz-adv-x="590" 
d="M565 0h-475v700h150v-565h325v-135z" />
    <glyph glyph-name="M" unicode="M" horiz-adv-x="930" 
d="M465 395l242 305h133v-700h-150v467l-225 -287l-225 285v-465h-150v700h135z" />
    <glyph glyph-name="N" unicode="N" horiz-adv-x="805" 
d="M565 700h150v-700h-130l-345 445v-445h-150v700h130l345 -445v445z" />
    <glyph glyph-name="O" unicode="O" horiz-adv-x="860" 
d="M205 350q0 -97 65.5 -163.5t159.5 -66.5t159.5 66.5t65.5 163.5t-65.5 163.5t-159.5 66.5t-159.5 -66.5t-65.5 -163.5zM50 350q0 151 110 258t270 107t270 -107t110 -258t-110 -258t-270 -107t-270 107t-110 258z" />
    <glyph glyph-name="P" unicode="P" horiz-adv-x="680" 
d="M90 700h295q108 0 179 -67.5t71 -167.5t-71 -167.5t-179 -67.5h-145v-230h-150v700zM380 565h-140v-200h140q45 0 75 29t30 71t-30 71t-75 29z" />
    <glyph glyph-name="Q" unicode="Q" horiz-adv-x="865" 
d="M50 350q0 151 110 258t270 107t270 -107t110 -258q0 -63 -20 -119t-48 -90.5t-56.5 -60.5t-48.5 -37l-20 -11q2 -3 6 -8t19 -17t33.5 -21.5t50.5 -17.5t69 -8h20v-120h-30q-60 0 -113 15t-86 37t-58 44t-36 37l-10 15q-22 -3 -52 -3q-160 0 -270 107t-110 258zM205 350
q0 -97 65.5 -163.5t159.5 -66.5t159.5 66.5t65.5 163.5t-65.5 163.5t-159.5 66.5t-159.5 -66.5t-65.5 -163.5z" />
    <glyph glyph-name="R" unicode="R" horiz-adv-x="710" 
d="M90 0v700h310q104 0 172 -66.5t68 -163.5q0 -42 -13 -78.5t-31 -59t-36.5 -38.5t-31.5 -22l-13 -7l150 -265h-160l-135 245h-130v-245h-150zM490 470q0 41 -27 68t-68 27h-155v-185h155q41 0 68 26t27 64z" />
    <glyph glyph-name="S" unicode="S" 
d="M395 205q0 35 -35.5 56.5t-86.5 36t-101.5 34t-86 64.5t-35.5 114q0 85 68 145t177 60q43 0 83 -10t65.5 -23.5t45 -27.5t27.5 -24l9 -10l-90 -95q-6 7 -16.5 17t-44 26.5t-69.5 16.5q-43 0 -69 -22t-26 -53q0 -35 35.5 -56.5t86 -36t101.5 -34t86.5 -64.5t35.5 -114
q0 -97 -70.5 -158.5t-194.5 -61.5q-49 0 -94.5 12t-75 28.5t-52 33.5t-32.5 29l-11 12l90 90q7 -8 19.5 -20.5t55.5 -33.5t90 -21q54 0 84.5 25.5t30.5 64.5z" />
    <glyph glyph-name="T" unicode="T" horiz-adv-x="590" 
d="M20 700h550v-135h-200v-565h-150v565h-200v135z" />
    <glyph glyph-name="U" unicode="U" horiz-adv-x="780" 
d="M390 120q64 0 109.5 47.5t45.5 117.5v415h150v-415q0 -128 -87 -214t-218 -86t-218 86t-87 214v415h150v-415q0 -70 45.5 -117.5t109.5 -47.5z" />
    <glyph glyph-name="V" unicode="V" horiz-adv-x="720" 
d="M280 0l-260 700h160l180 -520l180 520h160l-260 -700h-160z" />
    <glyph glyph-name="W" unicode="W" horiz-adv-x="1080" 
d="M470 700h140l145 -480l145 480h160l-230 -700h-140l-150 470l-150 -470h-140l-230 700h160l145 -480z" />
    <glyph glyph-name="X" unicode="X" horiz-adv-x="700" 
d="M350 255l-170 -255h-170l245 365l-225 335h170l150 -225l150 225h170l-225 -335l245 -365h-170z" />
    <glyph glyph-name="Y" unicode="Y" horiz-adv-x="670" 
d="M170 700l165 -300l165 300h160l-250 -450v-250h-150v250l-250 450h160z" />
    <glyph glyph-name="Z" unicode="Z" horiz-adv-x="650" 
d="M405 565h-340v135h525v-135l-355 -430h365v-135h-550v135z" />
    <glyph glyph-name="bracketleft" unicode="[" horiz-adv-x="360" 
d="M210 595v-690h120v-115h-250v920h250v-115h-120z" />
    <glyph glyph-name="backslash" unicode="\" horiz-adv-x="485" 
d="M330 -210l-300 920h125l300 -920h-125z" />
    <glyph glyph-name="bracketright" unicode="]" horiz-adv-x="360" 
d="M150 -95v690h-120v115h250v-920h-250v115h120z" />
    <glyph glyph-name="asciicircum" unicode="^" horiz-adv-x="430" 
d="M165 700h100l135 -300h-115l-70 160l-70 -160h-115z" />
    <glyph glyph-name="underscore" unicode="_" horiz-adv-x="345" 
d="M355 -85v-125h-365v125h365z" />
    <glyph glyph-name="grave" unicode="`" horiz-adv-x="280" 
d="M170 705l80 -150h-110l-110 150h140z" />
    <glyph glyph-name="a" unicode="a" horiz-adv-x="535" 
d="M330 0v50q-6 -7 -16.5 -17t-45.5 -26.5t-73 -16.5q-73 0 -119 41t-46 99q0 60 38.5 100t106.5 52l155 28q0 31 -22.5 50.5t-62.5 19.5q-33 0 -60.5 -12.5t-38.5 -25.5l-11 -12l-75 75l8 10.5t23 22.5t39 28.5t55 23t70 10.5q93 0 151.5 -55.5t58.5 -139.5v-305h-135z
M230 100q46 0 73 29t27 81v15l-110 -20q-55 -9 -55 -55q0 -50 65 -50z" />
    <glyph glyph-name="b" unicode="b" horiz-adv-x="620" 
d="M345 500q95 0 165 -74t70 -181t-70 -181t-165 -74q-42 0 -78.5 17.5t-51.5 34.5l-15 18v-60h-135v700h135v-270q2 3 6 7.5t17.5 16.5t29 21.5t40.5 17t52 7.5zM320 110q50 0 85 38t35 97t-35 97t-85 38t-85 -38t-35 -97t35 -97t85 -38z" />
    <glyph glyph-name="c" unicode="c" horiz-adv-x="525" 
d="M30 245q0 102 78.5 178.5t186.5 76.5q38 0 72.5 -10.5t56.5 -25t39 -29t25 -25.5l7 -10l-85 -85q-4 7 -13 18t-39 29t-63 18q-53 0 -91.5 -39.5t-38.5 -95.5t38.5 -95.5t91.5 -39.5q33 0 63 16t44 32l13 17l80 -85l-8 -11t-23.5 -24t-40 -30t-56 -24t-72.5 -11
q-108 0 -186.5 76.5t-78.5 178.5z" />
    <glyph glyph-name="d" unicode="d" horiz-adv-x="620" 
d="M265 500q42 0 78.5 -17.5t51.5 -34.5l15 -18v270h135v-700h-135v60q-2 -3 -6 -7.5t-17.5 -16.5t-29 -21.5t-40.5 -17t-52 -7.5q-95 0 -165 74t-70 181t70 181t165 74zM290 110q50 0 85 38t35 97t-35 97t-85 38t-85 -38t-35 -97t35 -97t85 -38z" />
    <glyph glyph-name="e" unicode="e" horiz-adv-x="570" 
d="M525 200h-355q8 -40 42.5 -67.5t87.5 -27.5q38 0 70.5 15t45.5 30l14 15l70 -90l-9 -9t-26 -20.5t-42.5 -26t-58.5 -20.5t-74 -9q-108 0 -184 75t-76 180t75 180t180 75t175 -70t70 -175zM285 385q-43 0 -73 -25t-42 -65h225q-8 39 -37.5 64.5t-72.5 25.5z" />
    <glyph glyph-name="f" unicode="f" horiz-adv-x="365" 
d="M335 475v-120h-110v-355h-135v355h-70v120h70v65q0 170 155 170q22 0 44.5 -4t34.5 -8l11 -3v-115q-20 10 -50 10q-26 0 -43 -16t-17 -39v-60h110z" />
    <glyph glyph-name="g" unicode="g" 
d="M395 40v40q-2 -3 -6 -7.5t-17.5 -16.5t-29 -21.5t-40.5 -17t-52 -7.5q-84 0 -152 73t-68 172t68 172t152 73q42 0 78.5 -17.5t51.5 -34.5l15 -18v60h135v-450q0 -106 -74 -178t-186 -72q-42 0 -80.5 11t-64 26t-44.5 30.5t-27 26.5l-9 11l85 80q5 -7 15 -18t45 -29
t75 -18q60 0 95 35t35 95zM170 255q0 -52 32 -86t78 -34t80.5 35t34.5 85t-34.5 85t-80.5 35t-78 -34t-32 -86z" />
    <glyph glyph-name="h" unicode="h" 
d="M200 700v-270q6 8 16.5 19.5t47 31t76.5 19.5q84 0 137 -58t53 -157v-285h-135v270q0 45 -26.5 72.5t-68.5 27.5q-46 0 -73 -30t-27 -85v-255h-135v700h135z" />
    <glyph glyph-name="i" unicode="i" horiz-adv-x="275" 
d="M200 490v-490h-135v490h135zM210 630q0 -34 -21.5 -54.5t-58.5 -20.5q-34 0 -54.5 20.5t-20.5 54.5t20.5 54.5t54.5 20.5q37 0 58.5 -20.5t21.5 -54.5z" />
    <glyph glyph-name="j" unicode="j" horiz-adv-x="275" 
d="M65 -30v520h135v-530q0 -82 -42 -126t-118 -44q-22 0 -43.5 4t-31.5 8l-10 3v120q25 -10 50 -10q26 0 43 16t17 39zM210 630q0 -34 -21.5 -54.5t-58.5 -20.5q-34 0 -54.5 20.5t-20.5 54.5t20.5 54.5t54.5 20.5q37 0 58.5 -20.5t21.5 -54.5z" />
    <glyph glyph-name="k" unicode="k" horiz-adv-x="545" 
d="M260 190l-60 -70v-120h-135v700h135v-410l175 200h155l-185 -210l195 -280h-150z" />
    <glyph glyph-name="l" unicode="l" horiz-adv-x="275" 
d="M200 700v-700h-135v700h135z" />
    <glyph glyph-name="m" unicode="m" horiz-adv-x="875" 
d="M670 0v270q0 47 -22.5 73.5t-57.5 26.5q-39 0 -64.5 -30.5t-25.5 -84.5v-255h-135v270q0 47 -22.5 73.5t-57.5 26.5q-39 0 -64.5 -30.5t-25.5 -84.5v-255h-135v490h135v-60q5 8 15 19.5t43.5 31t71.5 19.5q29 0 54.5 -9t40.5 -21t26 -24.5t15 -21.5l4 -9q2 3 6.5 9
t20 20.5t33 26t46 20.5t59.5 9q81 0 128 -54.5t47 -160.5v-285h-135z" />
    <glyph glyph-name="n" unicode="n" horiz-adv-x="595" 
d="M195 490v-60q6 8 16.5 19.5t47 31t76.5 19.5q84 0 137 -58t53 -157v-285h-135v270q0 45 -26.5 72.5t-68.5 27.5q-46 0 -73 -30t-27 -85v-255h-135v490h135z" />
    <glyph glyph-name="o" unicode="o" horiz-adv-x="590" 
d="M170 245q0 -55 35.5 -92.5t84.5 -37.5t84.5 37.5t35.5 92.5t-35.5 92.5t-84.5 37.5t-84.5 -37.5t-35.5 -92.5zM550 245q0 -102 -77.5 -178.5t-182.5 -76.5t-182.5 76.5t-77.5 178.5t77.5 178.5t182.5 76.5t182.5 -76.5t77.5 -178.5z" />
    <glyph glyph-name="p" unicode="p" horiz-adv-x="615" 
d="M340 -10q-42 0 -78.5 17.5t-51.5 34.5l-15 18v-270h-135v700h135v-60q2 3 6 7.5t17.5 16.5t29 21.5t40.5 17t52 7.5q95 0 165 -74t70 -181t-70 -181t-165 -74zM315 380q-50 0 -85 -38t-35 -97t35 -97t85 -38t85 38t35 97t-35 97t-85 38z" />
    <glyph glyph-name="q" unicode="q" horiz-adv-x="615" 
d="M265 -10q-95 0 -165 74t-70 181t70 181t165 74q42 0 78.5 -17.5t51.5 -34.5l15 -18v60h135v-700h-135v270q-2 -3 -6 -7.5t-17.5 -16.5t-29 -21.5t-40.5 -17t-52 -7.5zM290 380q-50 0 -85 -38t-35 -97t35 -97t85 -38t85 38t35 97t-35 97t-85 38z" />
    <glyph glyph-name="r" unicode="r" horiz-adv-x="370" 
d="M355 495v-135q-15 5 -45 5q-53 0 -84 -33.5t-31 -96.5v-235h-135v490h135v-60q6 7 16.5 18t47 29t76.5 18h20z" />
    <glyph glyph-name="s" unicode="s" horiz-adv-x="455" 
d="M400 425l-70 -80q-3 4 -9.5 11t-27.5 18t-43 11q-28 0 -44 -12t-16 -28q0 -19 23 -31.5t56 -22.5t66.5 -24t56.5 -45t23 -77q0 -66 -52 -110.5t-143 -44.5q-39 0 -74 9.5t-57 22.5t-38.5 26t-23.5 22l-7 10l75 75q4 -6 12.5 -15t36 -24.5t56.5 -15.5q32 0 48.5 12.5
t16.5 32.5t-23 33.5t-56.5 23.5t-66.5 24t-56 44t-23 75q0 59 55 107t135 48q51 0 93.5 -19t59.5 -37z" />
    <glyph glyph-name="t" unicode="t" horiz-adv-x="405" 
d="M120 545v90h120v-155h100v-120h-100v-195q0 -23 17 -39t43 -16q13 0 25.5 2.5t18.5 5.5l6 2v-115q-40 -15 -90 -15q-155 0 -155 170v200h-85v120h45q23 0 39 18t16 47z" />
    <glyph glyph-name="u" unicode="u" 
d="M390 0v50q-6 -7 -16.5 -17t-47 -26.5t-76.5 -16.5q-84 0 -137 56.5t-53 150.5v293h135v-280q0 -41 27 -68t68 -27q46 0 73 30t27 85v260h135v-490h-135z" />
    <glyph glyph-name="v" unicode="v" horiz-adv-x="520" 
d="M325 0h-140l-185 490h140l115 -325l115 325h140z" />
    <glyph glyph-name="w" unicode="w" horiz-adv-x="770" 
d="M330 490h100l95 -295l95 295h140l-167 -490h-118l-95 280l-95 -280h-118l-167 490h140l95 -295z" />
    <glyph glyph-name="x" unicode="x" horiz-adv-x="510" 
d="M250 155l-105 -155h-145l165 250l-155 240h150l90 -145l90 145h150l-155 -240l165 -250h-145z" />
    <glyph glyph-name="y" unicode="y" horiz-adv-x="520" 
d="M175 -30l15 35l-190 485h140l115 -325l115 325h140l-195 -520q-67 -180 -190 -180q-22 0 -43.5 4t-31.5 8l-10 3v120q20 -10 50 -10q61 0 85 55z" />
    <glyph glyph-name="z" unicode="z" horiz-adv-x="500" 
d="M445 490v-120l-240 -250h250v-120h-420v120l240 250h-230v120h400z" />
    <glyph glyph-name="braceleft" unicode="{" horiz-adv-x="395" 
d="M55 195v110q30 0 47.5 17.5t17.5 47.5v170q0 82 43 126t122 44h75v-120h-50q-26 0 -43 -17.5t-17 -45.5v-162q0 -28 -6.5 -50t-16 -33.5t-19.5 -19.5t-16 -10l-7 -2q3 -1 7 -2.5t15.5 -9.5t20 -19.5t15.5 -33.5t7 -50v-163q0 -28 17 -45t43 -17h50v-120h-75
q-79 0 -122 44t-43 126v170q0 30 -17.5 47.5t-47.5 17.5z" />
    <glyph glyph-name="bar" unicode="|" horiz-adv-x="375" 
d="M255 710v-920h-135v920h135z" />
    <glyph glyph-name="braceright" unicode="}" horiz-adv-x="395" 
d="M340 305v-110q-30 0 -47.5 -17.5t-17.5 -47.5v-170q0 -82 -43 -126t-122 -44h-75v120h50q26 0 43 17t17 45v163q0 28 6.5 50t16.5 33.5t19.5 19.5t16.5 10l6 2q-3 1 -7 2.5t-15.5 9.5t-20 19.5t-15.5 33.5t-7 50v162q0 28 -17 45.5t-43 17.5h-50v120h75q79 0 122 -44
t43 -126v-170q0 -30 17.5 -47.5t47.5 -17.5z" />
    <glyph glyph-name="asciitilde" unicode="~" horiz-adv-x="565" 
d="M200 270q-27 0 -49.5 -12.5t-31.5 -25.5l-9 -12l-80 55q2 4 5 11t16 25.5t28.5 32t42.5 25t58 11.5q51 0 103.5 -30t81.5 -30q27 0 49.5 12.5t31.5 25.5l9 12l80 -55q-2 -4 -5 -11t-16 -25.5t-28.5 -32t-42.5 -25t-58 -11.5q-51 0 -103.5 30t-81.5 30z" />
    <glyph glyph-name="nbspace" unicode="&#xa0;" horiz-adv-x="205" 
 />
    <glyph glyph-name="exclamdown" unicode="&#xa1;" horiz-adv-x="310" 
d="M100 290h110l25 -500h-160zM75 425q0 30 23.5 52.5t56.5 22.5t56.5 -22.5t23.5 -52.5t-23.5 -52.5t-56.5 -22.5t-56.5 22.5t-23.5 52.5z" />
    <glyph glyph-name="cent" unicode="&#xa2;" horiz-adv-x="510" 
d="M170 245q0 -55 37.5 -95t87.5 -40q31 0 56.5 13t35.5 26l10 13l83 -85q-6 -7 -16.5 -18t-45.5 -33t-73 -31v-100h-120v100q-85 27 -140 94.5t-55 155.5t55 155t140 90v100h120v-100q38 -9 70.5 -29t46.5 -35l13 -16l-80 -80q-3 6 -10 14t-33 22t-57 14q-50 0 -87.5 -40
t-37.5 -95z" />
    <glyph glyph-name="sterling" unicode="&#xa3;" horiz-adv-x="585" 
d="M120 480q0 105 66 170t174 65q38 0 73 -10t58 -23.5t40.5 -27.5t25.5 -24l8 -10l-100 -95q-4 6 -11.5 14t-33.5 22t-55 14q-45 0 -75 -30t-30 -75v-85h175v-105h-175v-95q0 -16 -5 -29.5t-10 -19.5l-5 -6h320v-130h-500v130q60 0 60 55v95h-60v105h60v95z" />
    <glyph glyph-name="currency" unicode="&#xa4;" horiz-adv-x="695" 
d="M270 385h140q41 0 68 26t27 64q0 41 -27 68t-68 27h-140v-185zM410 265h-140v-55h210v-120h-210v-90h-150v90h-75v120h75v55h-75v120h75v315h292q105 0 174 -64t69 -156t-67.5 -153.5t-177.5 -61.5z" />
    <glyph glyph-name="yen" unicode="&#xa5;" horiz-adv-x="670" 
d="M555 250h-145v-50h145v-105h-145v-95h-150v95h-145v105h145v50h-145v105h86l-191 345h160l165 -300l165 300h160l-192 -345h87v-105z" />
    <glyph glyph-name="brokenbar" unicode="&#xa6;" horiz-adv-x="375" 
d="M120 170h135v-380h-135v380zM255 330h-135v380h135v-380z" />
    <glyph glyph-name="section" unicode="&#xa7;" horiz-adv-x="545" 
d="M460 640l-70 -75q-35 35 -85 35q-75 0 -75 -50q0 -22 27.5 -39t66 -32t77.5 -34.5t66.5 -56.5t27.5 -88q0 -25 -9.5 -48t-22.5 -37t-26 -25t-23 -16l-9 -4q3 -2 8 -5t18 -14t23 -23t18 -32t8 -41q0 -71 -59 -120.5t-159 -49.5q-41 0 -77.5 10.5t-59 25t-39.5 29t-24 24.5
l-7 11l75 75q2 -2 5 -6.5t14 -14.5t23 -18t32 -14.5t41 -6.5q85 0 85 60q0 24 -29 42.5t-70 33.5t-82 34.5t-70 56.5t-29 88q0 25 9.5 48t22.5 37t26 25t22 15l10 5q-7 5 -17 14t-26.5 39t-16.5 62q0 63 56 109t149 46q34 0 64 -7.5t49.5 -18.5t34 -22.5t21.5 -18.5z
M365 295q0 31 -32.5 55t-64.5 32l-33 8q-2 0 -6 -1t-13.5 -6t-16.5 -12t-13 -20.5t-6 -30.5q0 -31 32.5 -55t65.5 -32l32 -8q2 1 6 2t13.5 6.5t16.5 13t13 20.5t6 28z" />
    <glyph glyph-name="dieresis" unicode="&#xa8;" horiz-adv-x="430" 
d="M30 635q0 30 22.5 52.5t52.5 22.5t52.5 -22.5t22.5 -52.5t-22.5 -52.5t-52.5 -22.5t-52.5 22.5t-22.5 52.5zM250 635q0 30 22.5 52.5t52.5 22.5t52.5 -22.5t22.5 -52.5t-22.5 -52.5t-52.5 -22.5t-52.5 22.5t-22.5 52.5z" />
    <glyph glyph-name="copyright" unicode="&#xa9;" horiz-adv-x="870" 
d="M720 350q0 116 -84.5 200.5t-200.5 84.5t-200.5 -84.5t-84.5 -200.5t84.5 -200.5t200.5 -84.5t200.5 84.5t84.5 200.5zM810 350q0 -151 -109 -258t-266 -107t-266 107t-109 258t109 258t266 107t266 -107t109 -258zM340 350q0 -42 32.5 -73.5t77.5 -31.5q18 0 34 5.5
t26 13.5t17 16.5t10 13.5l3 6l65 -60l-6 -9t-19 -20.5t-32 -26t-44.5 -20.5t-58.5 -9q-86 0 -143 56t-57 139t57 139t143 56q31 0 58 -8t44 -20t29.5 -24t17.5 -20l6 -8l-60 -60q-3 6 -9 14t-29 22t-52 14q-45 0 -77.5 -31.5t-32.5 -73.5z" />
    <glyph glyph-name="ordfeminine" unicode="&#xaa;" horiz-adv-x="365" 
d="M140 385q-48 0 -76.5 26.5t-28.5 68.5q0 34 28 61t74 34l98 15q0 16 -15 28t-40 12q-22 0 -41 -7.5t-27 -14.5l-7 -8l-55 50q2 2 5 6.5t15 14.5t26.5 18t38 14.5t50.5 6.5q63 0 99 -35t36 -95v-185h-85v35q-3 -5 -10 -12.5t-31.5 -20t-53.5 -12.5zM235 535l-75 -15
q-15 -3 -25 -13.5t-10 -21.5q0 -12 11 -21t29 -9q26 0 48 22t22 48v10z" />
    <glyph glyph-name="guillemotleft" unicode="&#xab;" horiz-adv-x="550" 
d="M295 415l-125 -175l125 -175h-130l-125 175l125 175h130zM510 415l-125 -175l125 -175h-130l-125 175l125 175h130z" />
    <glyph glyph-name="logicalnot" unicode="&#xac;" horiz-adv-x="475" 
d="M440 410v-247h-125v127h-280v120h405z" />
    <glyph glyph-name="uni00AD" unicode="&#xad;" horiz-adv-x="430" 
d="M395 355v-120h-360v120h360z" />
    <glyph glyph-name="registered" unicode="&#xae;" horiz-adv-x="870" 
d="M525 310l85 -150h-100l-70 130h-50v-130h-95v380h165q55 0 95 -37.5t40 -87.5q0 -36 -17.5 -62t-35.5 -35zM390 455v-80h65q40 0 40 40t-40 40h-65zM720 350q0 116 -84.5 200.5t-200.5 84.5t-200.5 -84.5t-84.5 -200.5t84.5 -200.5t200.5 -84.5t200.5 84.5t84.5 200.5z
M810 350q0 -151 -109 -258t-266 -107t-266 107t-109 258t109 258t266 107t266 -107t109 -258z" />
    <glyph glyph-name="macron" unicode="&#xaf;" horiz-adv-x="380" 
d="M350 715v-100h-320v100h320z" />
    <glyph glyph-name="degree" unicode="&#xb0;" horiz-adv-x="380" 
d="M130 560q0 -30 16.5 -47.5t43.5 -17.5t43.5 17.5t16.5 47.5t-16.5 47.5t-43.5 17.5t-43.5 -17.5t-16.5 -47.5zM345 560q0 -60 -46 -105t-109 -45t-109 45t-46 105t46 105t109 45t109 -45t46 -105z" />
    <glyph glyph-name="plusminus" unicode="&#xb1;" horiz-adv-x="525" 
d="M35 0v115h455v-115h-455zM320 170h-115v160h-170v125h170v160h115v-160h170v-125h-170v-160z" />
    <glyph glyph-name="twosuperior" unicode="&#xb2;" horiz-adv-x="330" 
d="M295 690q0 -31 -17 -56t-37.5 -38.5l-47 -30.5t-38.5 -30h135v-90h-255q0 46 16.5 81t40 55t47 36t40 32.5t16.5 35.5q0 15 -11 25t-29 10q-13 0 -25.5 -10t-18.5 -20l-6 -10l-75 26q1 4 3.5 10.5t12.5 24t23.5 30.5t39 23.5t56.5 10.5q59 0 94.5 -32.5t35.5 -82.5z" />
    <glyph glyph-name="threesuperior" unicode="&#xb3;" horiz-adv-x="335" 
d="M245 635q2 -1 6 -2.5t13.5 -8.5t16.5 -16t13 -24.5t6 -33.5q0 -47 -36.5 -78.5t-98.5 -31.5q-29 0 -54.5 6.5t-40.5 16t-26 19.5t-15 16l-4 7l55 55l8.5 -11t25.5 -18t43 -11q48 0 48 35q0 40 -55 40h-35v75h35q40 0 40 25q0 30 -40 30q-16 0 -32 -8.5t-24 -17.5l-9 -9
l-50 55q2 2 5 6.5t14.5 14.5t25 18t35.5 14.5t46 6.5q57 0 93 -30t36 -70q0 -22 -11 -39.5t-23 -23.5z" />
    <glyph glyph-name="acute" unicode="&#xb4;" horiz-adv-x="280" 
d="M30 555l80 150h140l-110 -150h-110z" />
    <glyph glyph-name="mu" unicode="&#xb5;" horiz-adv-x="595" 
d="M60 -210v700h135v-275q0 -44 26 -72t64 -28q43 0 69 30t26 85v260h135v-345q0 -15 10 -25t25 -10l20 5v-115q-20 -10 -50 -10q-44 0 -74 19t-38 37l-8 19l-5.5 -8t-17.5 -18t-30 -23t-43.5 -18t-58.5 -8q-13 0 -25.5 2.5t-18.5 5.5l-6 2v-210h-135z" />
    <glyph glyph-name="paragraph" unicode="&#xb6;" horiz-adv-x="610" 
d="M210 -100v440q-71 0 -125.5 54.5t-54.5 125.5t54.5 125.5t125.5 54.5h325v-800h-120v670h-85v-670h-120z" />
    <glyph glyph-name="periodcentered" unicode="&#xb7;" horiz-adv-x="200" 
d="M20 245q0 30 23.5 52.5t56.5 22.5t56.5 -22.5t23.5 -52.5t-23.5 -52.5t-56.5 -22.5t-56.5 22.5t-23.5 52.5z" />
    <glyph glyph-name="cedilla" unicode="&#xb8;" horiz-adv-x="280" 
d="M125 20h70l-35 -70q4 0 10 -0.5t21.5 -5t27.5 -12.5t21.5 -25.5t9.5 -41.5q0 -42 -29.5 -68.5t-80.5 -26.5q-30 0 -57.5 11t-40.5 23l-12 11l30 55q30 -25 70 -25q35 0 35 25t-35 25l-25 -5l-25 30z" />
    <glyph glyph-name="onesuperior" unicode="&#xb9;" horiz-adv-x="230" 
d="M100 800h80v-355h-95v235h-60v75q31 3 50.5 17t24.5 28z" />
    <glyph glyph-name="ordmasculine" unicode="&#xba;" horiz-adv-x="380" 
d="M120 545q0 -33 20 -54t50 -21t50 21t20 54t-20 54t-50 21t-50 -21t-20 -54zM355 545q0 -67 -48.5 -116t-116.5 -49t-116.5 49t-48.5 116t48.5 116t116.5 49t116.5 -49t48.5 -116z" />
    <glyph glyph-name="guillemotright" unicode="&#xbb;" horiz-adv-x="550" 
d="M380 240l-125 175h130l125 -175l-125 -175h-130zM165 240l-125 175h130l125 -175l-125 -175h-130z" />
    <glyph glyph-name="onequarter" unicode="&#xbc;" horiz-adv-x="705" 
d="M65 0l435 700h125l-435 -700h-125zM110 700h80v-355h-95v235h-60v75q31 3 50.5 17t24.5 28zM645 355v-205h35v-85h-35v-65h-95v65h-160v85l155 205h100zM485 150h65v85z" />
    <glyph glyph-name="onehalf" unicode="&#xbd;" horiz-adv-x="745" 
d="M65 0l435 700h125l-435 -700h-125zM110 700h80v-355h-95v235h-60v75q31 3 50.5 17t24.5 28zM710 245q0 -31 -17 -56t-37.5 -38.5l-47 -30.5t-38.5 -30h135v-90h-255q0 46 16.5 81t40 55t47 36t40 32.5t16.5 35.5q0 15 -11 25t-29 10q-13 0 -25.5 -10t-18.5 -20l-6 -10
l-75 26q1 4 3.5 10.5t12.5 24t23.5 30.5t39 23.5t56.5 10.5q59 0 94.5 -32.5t35.5 -82.5z" />
    <glyph glyph-name="threequarters" unicode="&#xbe;" horiz-adv-x="765" 
d="M125 0l435 700h125l-435 -700h-125zM705 355v-205h35v-85h-35v-65h-95v65h-160v85l155 205h100zM545 150h65v85zM240 535q2 -1 6 -2.5t13.5 -8.5t16.5 -16t13 -24.5t6 -33.5q0 -47 -36.5 -78.5t-98.5 -31.5q-29 0 -54.5 6.5t-40.5 16t-26 19.5t-15 16l-4 7l55 55l8.5 -11
t25.5 -18t43 -11q48 0 48 35q0 40 -55 40h-35v75h35q40 0 40 25q0 30 -40 30q-16 0 -32 -8.5t-25 -17.5l-8 -9l-50 55q2 2 5 6.5t14.5 14.5t25 18t35.5 14.5t46 6.5q57 0 93 -30t36 -70q0 -22 -11.5 -39.5t-22.5 -23.5z" />
    <glyph glyph-name="questiondown" unicode="&#xbf;" horiz-adv-x="475" 
d="M350 245q0 -40 -17.5 -71t-42.5 -50l-50 -36.5t-42.5 -40.5t-17.5 -52q0 -31 25 -53t65 -22q42 0 72 20t39 40l9 20l125 -55q-2 -7 -6.5 -18.5t-24 -40.5t-45 -51.5t-72 -41t-102.5 -18.5q-106 0 -173 59t-67 141q0 51 18.5 90.5t45 64t53 46t45 50.5t18.5 64h135
q10 -25 10 -45zM360 425q0 -30 -23.5 -52.5t-56.5 -22.5t-56.5 22.5t-23.5 52.5t23.5 52.5t56.5 22.5t56.5 -22.5t23.5 -52.5z" />
    <glyph glyph-name="Agrave" unicode="&#xc0;" horiz-adv-x="730" 
d="M450 295l-85 230l-85 -230h170zM500 165h-270l-60 -165h-160l275 700h160l275 -700h-160zM335 935l80 -150h-110l-110 150h140z" />
    <glyph glyph-name="Aacute" unicode="&#xc1;" horiz-adv-x="730" 
d="M450 295l-85 230l-85 -230h170zM500 165h-270l-60 -165h-160l275 700h160l275 -700h-160zM315 785l80 150h140l-110 -150h-110z" />
    <glyph glyph-name="Acircumflex" unicode="&#xc2;" horiz-adv-x="730" 
d="M450 295l-85 230l-85 -230h170zM500 165h-270l-60 -165h-160l275 700h160l275 -700h-160zM420 935l120 -150h-120l-60 80l-60 -80h-120l120 150h120z" />
    <glyph glyph-name="Atilde" unicode="&#xc3;" horiz-adv-x="730" 
d="M450 295l-85 230l-85 -230h170zM500 165h-270l-60 -165h-160l275 700h160l275 -700h-160zM435 780q-38 0 -74.5 25t-55.5 25q-35 0 -35 -50h-85q0 76 29 113t78 37q29 0 52.5 -14t41.5 -27.5t34 -13.5q35 0 35 55h85q0 -75 -28.5 -112.5t-76.5 -37.5z" />
    <glyph glyph-name="Adieresis" unicode="&#xc4;" horiz-adv-x="730" 
d="M450 295l-85 230l-85 -230h170zM500 165h-270l-60 -165h-160l275 700h160l275 -700h-160zM185 855q0 30 22.5 52.5t52.5 22.5t52.5 -22.5t22.5 -52.5t-22.5 -52.5t-52.5 -22.5t-52.5 22.5t-22.5 52.5zM405 855q0 30 22.5 52.5t52.5 22.5t52.5 -22.5t22.5 -52.5
t-22.5 -52.5t-52.5 -22.5t-52.5 22.5t-22.5 52.5z" />
    <glyph glyph-name="Aring" unicode="&#xc5;" horiz-adv-x="730" 
d="M450 295l-85 230l-85 -230h170zM500 165h-270l-60 -165h-160l275 700h160l275 -700h-160zM330 865q0 -40 40 -40t40 40t-40 40t-40 -40zM485 865q0 -45 -33.5 -77.5t-81.5 -32.5t-81.5 32.5t-33.5 77.5t33.5 77.5t81.5 32.5t81.5 -32.5t33.5 -77.5z" />
    <glyph glyph-name="AE" unicode="&#xc6;" horiz-adv-x="1000" 
d="M-30 0l390 700h585v-130h-330v-150h250v-125h-250v-165h340v-130h-490v170h-245l-90 -170h-160zM440 570l-150 -270h175v270h-25z" />
    <glyph glyph-name="Ccedilla" unicode="&#xc7;" horiz-adv-x="755" 
d="M430 715q55 0 105 -14.5t82 -35t56.5 -41t35.5 -34.5l11 -15l-95 -95l-8 11t-23 24t-39 30t-55 24t-70 11q-98 0 -164 -66t-66 -164t66 -164t164 -66q38 0 73 10.5t58 25t40.5 29t25.5 25.5l8 10l90 -95l-11.5 -14t-33.5 -32t-55.5 -41t-77.5 -34t-99 -18l-18 -36
q4 0 10 -0.5t21.5 -5t27.5 -12.5t21.5 -25.5t9.5 -41.5q0 -42 -29.5 -68.5t-80.5 -26.5q-30 0 -57.5 11t-40.5 23l-12 11l30 55q30 -25 70 -25q35 0 35 25t-35 25l-25 -5l-25 30l30 68q-142 17 -236 120t-94 242q0 151 110 258t270 107z" />
    <glyph glyph-name="Egrave" unicode="&#xc8;" horiz-adv-x="665" 
d="M240 135h375v-135h-525v700h515v-135h-365v-140h285v-135h-285v-155zM335 935l80 -150h-110l-110 150h140z" />
    <glyph glyph-name="Eacute" unicode="&#xc9;" horiz-adv-x="665" 
d="M240 135h375v-135h-525v700h515v-135h-365v-140h285v-135h-285v-155zM295 785l80 150h140l-110 -150h-110z" />
    <glyph glyph-name="Ecircumflex" unicode="&#xca;" horiz-adv-x="665" 
d="M240 135h375v-135h-525v700h515v-135h-365v-140h285v-135h-285v-155zM405 935l120 -150h-120l-60 80l-60 -80h-120l120 150h120z" />
    <glyph glyph-name="Edieresis" unicode="&#xcb;" horiz-adv-x="665" 
d="M240 135h375v-135h-525v700h515v-135h-365v-140h285v-135h-285v-155zM170 855q0 30 22.5 52.5t52.5 22.5t52.5 -22.5t22.5 -52.5t-22.5 -52.5t-52.5 -22.5t-52.5 22.5t-22.5 52.5zM390 855q0 30 22.5 52.5t52.5 22.5t52.5 -22.5t22.5 -52.5t-22.5 -52.5t-52.5 -22.5
t-52.5 22.5t-22.5 52.5z" />
    <glyph glyph-name="Igrave" unicode="&#xcc;" horiz-adv-x="330" 
d="M90 0v700h150v-700h-150zM140 935l80 -150h-110l-110 150h140z" />
    <glyph glyph-name="Iacute" unicode="&#xcd;" horiz-adv-x="330" 
d="M90 0v700h150v-700h-150zM110 785l80 150h140l-110 -150h-110z" />
    <glyph glyph-name="Icircumflex" unicode="&#xce;" horiz-adv-x="330" 
d="M90 0v700h150v-700h-150zM224 935l120 -150h-120l-60 80l-60 -80h-120l120 150h120z" />
    <glyph glyph-name="Idieresis" unicode="&#xcf;" horiz-adv-x="330" 
d="M90 0v700h150v-700h-150zM-20 855q0 30 22.5 52.5t52.5 22.5t52.5 -22.5t22.5 -52.5t-22.5 -52.5t-52.5 -22.5t-52.5 22.5t-22.5 52.5zM200 855q0 30 22.5 52.5t52.5 22.5t52.5 -22.5t22.5 -52.5t-22.5 -52.5t-52.5 -22.5t-52.5 22.5t-22.5 52.5z" />
    <glyph glyph-name="Eth" unicode="&#xd0;" horiz-adv-x="780" 
d="M110 700h260q153 0 256.5 -101.5t103.5 -248.5t-103.5 -248.5t-256.5 -101.5h-260v290h-85v120h85v290zM370 565h-110v-155h135v-120h-135v-155h110q87 0 148.5 62.5t61.5 152.5t-60 152.5t-150 62.5z" />
    <glyph glyph-name="Ntilde" unicode="&#xd1;" horiz-adv-x="805" 
d="M565 700h150v-700h-130l-345 445v-445h-150v700h130l345 -445v445zM475 780q-38 0 -74.5 25t-55.5 25q-35 0 -35 -50h-85q0 76 29 113t78 37q29 0 52.5 -14t41.5 -27.5t34 -13.5q35 0 35 55h85q0 -75 -28.5 -112.5t-76.5 -37.5z" />
    <glyph glyph-name="Ograve" unicode="&#xd2;" horiz-adv-x="860" 
d="M205 350q0 -97 65.5 -163.5t159.5 -66.5t159.5 66.5t65.5 163.5t-65.5 163.5t-159.5 66.5t-159.5 -66.5t-65.5 -163.5zM50 350q0 151 110 258t270 107t270 -107t110 -258t-110 -258t-270 -107t-270 107t-110 258zM405 935l80 -150h-110l-110 150h140z" />
    <glyph glyph-name="Oacute" unicode="&#xd3;" horiz-adv-x="860" 
d="M205 350q0 -97 65.5 -163.5t159.5 -66.5t159.5 66.5t65.5 163.5t-65.5 163.5t-159.5 66.5t-159.5 -66.5t-65.5 -163.5zM50 350q0 151 110 258t270 107t270 -107t110 -258t-110 -258t-270 -107t-270 107t-110 258zM380 785l80 150h140l-110 -150h-110z" />
    <glyph glyph-name="Ocircumflex" unicode="&#xd4;" horiz-adv-x="860" 
d="M205 350q0 -97 65.5 -163.5t159.5 -66.5t159.5 66.5t65.5 163.5t-65.5 163.5t-159.5 66.5t-159.5 -66.5t-65.5 -163.5zM50 350q0 151 110 258t270 107t270 -107t110 -258t-110 -258t-270 -107t-270 107t-110 258zM485 935l120 -150h-120l-60 80l-60 -80h-120l120 150h120
z" />
    <glyph glyph-name="Otilde" unicode="&#xd5;" horiz-adv-x="860" 
d="M205 350q0 -97 65.5 -163.5t159.5 -66.5t159.5 66.5t65.5 163.5t-65.5 163.5t-159.5 66.5t-159.5 -66.5t-65.5 -163.5zM50 350q0 151 110 258t270 107t270 -107t110 -258t-110 -258t-270 -107t-270 107t-110 258zM505 780q-38 0 -74.5 25t-55.5 25q-35 0 -35 -50h-85
q0 76 29 113t78 37q29 0 52.5 -14t41.5 -27.5t34 -13.5q35 0 35 55h85q0 -75 -28.5 -112.5t-76.5 -37.5z" />
    <glyph glyph-name="Odieresis" unicode="&#xd6;" horiz-adv-x="860" 
d="M205 350q0 -97 65.5 -163.5t159.5 -66.5t159.5 66.5t65.5 163.5t-65.5 163.5t-159.5 66.5t-159.5 -66.5t-65.5 -163.5zM50 350q0 151 110 258t270 107t270 -107t110 -258t-110 -258t-270 -107t-270 107t-110 258zM245 855q0 30 22.5 52.5t52.5 22.5t52.5 -22.5
t22.5 -52.5t-22.5 -52.5t-52.5 -22.5t-52.5 22.5t-22.5 52.5zM465 855q0 30 22.5 52.5t52.5 22.5t52.5 -22.5t22.5 -52.5t-22.5 -52.5t-52.5 -22.5t-52.5 22.5t-22.5 52.5z" />
    <glyph glyph-name="multiply" unicode="&#xd7;" horiz-adv-x="490" 
d="M325 310l130 -130l-80 -80l-130 130l-130 -130l-80 80l130 130l-130 130l80 80l130 -130l130 130l80 -80z" />
    <glyph glyph-name="Oslash" unicode="&#xd8;" horiz-adv-x="860" 
d="M235 235l315 310q-50 35 -120 35q-94 0 -159.5 -66.5t-65.5 -163.5q0 -33 7.5 -62t15.5 -41zM655 350q0 33 -7.5 62t-15.5 41l-7 12l-315 -310q50 -35 120 -35q94 0 159.5 66.5t65.5 163.5zM810 350q0 -151 -110 -258t-270 -107q-60 0 -116 17.5t-82 35.5l-27 17l-85 -85
l-80 80l85 85q-3 3 -8 9.5t-18 27.5t-23 44t-18 59.5t-8 74.5q0 151 110 258t270 107q60 0 116 -17.5t82 -35.5l27 -17l85 85l80 -80l-85 -85q3 -3 8 -9.5t18 -27.5t23 -44t18 -59.5t8 -74.5z" />
    <glyph glyph-name="Ugrave" unicode="&#xd9;" horiz-adv-x="780" 
d="M390 120q64 0 109.5 47.5t45.5 117.5v415h150v-415q0 -128 -87 -214t-218 -86t-218 86t-87 214v415h150v-415q0 -70 45.5 -117.5t109.5 -47.5zM380 935l80 -150h-110l-110 150h140z" />
    <glyph glyph-name="Uacute" unicode="&#xda;" horiz-adv-x="780" 
d="M390 120q64 0 109.5 47.5t45.5 117.5v415h150v-415q0 -128 -87 -214t-218 -86t-218 86t-87 214v415h150v-415q0 -70 45.5 -117.5t109.5 -47.5zM335 785l80 150h140l-110 -150h-110z" />
    <glyph glyph-name="Ucircumflex" unicode="&#xdb;" horiz-adv-x="780" 
d="M390 120q64 0 109.5 47.5t45.5 117.5v415h150v-415q0 -128 -87 -214t-218 -86t-218 86t-87 214v415h150v-415q0 -70 45.5 -117.5t109.5 -47.5zM450 935l120 -150h-120l-60 80l-60 -80h-120l120 150h120z" />
    <glyph glyph-name="Udieresis" unicode="&#xdc;" horiz-adv-x="780" 
d="M390 120q64 0 109.5 47.5t45.5 117.5v415h150v-415q0 -128 -87 -214t-218 -86t-218 86t-87 214v415h150v-415q0 -70 45.5 -117.5t109.5 -47.5zM210 855q0 30 22.5 52.5t52.5 22.5t52.5 -22.5t22.5 -52.5t-22.5 -52.5t-52.5 -22.5t-52.5 22.5t-22.5 52.5zM430 855
q0 30 22.5 52.5t52.5 22.5t52.5 -22.5t22.5 -52.5t-22.5 -52.5t-52.5 -22.5t-52.5 22.5t-22.5 52.5z" />
    <glyph glyph-name="Yacute" unicode="&#xdd;" horiz-adv-x="670" 
d="M170 700l165 -300l165 300h160l-250 -450v-250h-150v250l-250 450h160zM285 785l80 150h140l-110 -150h-110z" />
    <glyph glyph-name="Thorn" unicode="&#xde;" horiz-adv-x="670" 
d="M240 645h70q136 0 225.5 -83.5t89.5 -201.5t-89.5 -201.5t-225.5 -83.5h-70v-95h-150v740h150v-75zM240 515v-310h55q88 0 134 41t46 114t-46 114t-134 41h-55z" />
    <glyph glyph-name="germandbls" unicode="&#xdf;" horiz-adv-x="610" 
d="M440 385l13.5 -5.5t30 -18.5t38 -33t30 -50t13.5 -68q0 -88 -66.5 -149t-171.5 -61h-47v130h50q40 0 67.5 25.5t27.5 59.5q0 38 -27 64t-68 26h-50v125h10q40 0 65 22t25 53q0 34 -26.5 59.5t-63.5 25.5q-38 0 -64 -27t-26 -68v-495h-135v495q0 95 63 155t167 60
q95 0 157.5 -56.5t62.5 -133.5q0 -27 -7.5 -50.5t-18.5 -38.5t-22.5 -26t-18.5 -15z" />
    <glyph glyph-name="agrave" unicode="&#xe0;" horiz-adv-x="535" 
d="M330 0v50q-6 -7 -16.5 -17t-45.5 -26.5t-73 -16.5q-73 0 -119 41t-46 99q0 60 38.5 100t106.5 52l155 28q0 31 -22.5 50.5t-62.5 19.5q-33 0 -60.5 -12.5t-38.5 -25.5l-11 -12l-75 75l8 10.5t23 22.5t39 28.5t55 23t70 10.5q93 0 151.5 -55.5t58.5 -139.5v-305h-135z
M230 100q46 0 73 29t27 81v15l-110 -20q-55 -9 -55 -55q0 -50 65 -50zM250 705l80 -150h-110l-110 150h140z" />
    <glyph glyph-name="aacute" unicode="&#xe1;" horiz-adv-x="535" 
d="M330 0v50q-6 -7 -16.5 -17t-45.5 -26.5t-73 -16.5q-73 0 -119 41t-46 99q0 60 38.5 100t106.5 52l155 28q0 31 -22.5 50.5t-62.5 19.5q-33 0 -60.5 -12.5t-38.5 -25.5l-11 -12l-75 75l8 10.5t23 22.5t39 28.5t55 23t70 10.5q93 0 151.5 -55.5t58.5 -139.5v-305h-135z
M230 100q46 0 73 29t27 81v15l-110 -20q-55 -9 -55 -55q0 -50 65 -50zM215 555l80 150h140l-110 -150h-110z" />
    <glyph glyph-name="acircumflex" unicode="&#xe2;" horiz-adv-x="535" 
d="M330 0v50q-6 -7 -16.5 -17t-45.5 -26.5t-73 -16.5q-73 0 -119 41t-46 99q0 60 38.5 100t106.5 52l155 28q0 31 -22.5 50.5t-62.5 19.5q-33 0 -60.5 -12.5t-38.5 -25.5l-11 -12l-75 75l8 10.5t23 22.5t39 28.5t55 23t70 10.5q93 0 151.5 -55.5t58.5 -139.5v-305h-135z
M230 100q46 0 73 29t27 81v15l-110 -20q-55 -9 -55 -55q0 -50 65 -50zM330 705l120 -150h-120l-60 80l-60 -80h-120l120 150h120z" />
    <glyph glyph-name="atilde" unicode="&#xe3;" horiz-adv-x="535" 
d="M330 0v50q-6 -7 -16.5 -17t-45.5 -26.5t-73 -16.5q-73 0 -119 41t-46 99q0 60 38.5 100t106.5 52l155 28q0 31 -22.5 50.5t-62.5 19.5q-33 0 -60.5 -12.5t-38.5 -25.5l-11 -12l-75 75l8 10.5t23 22.5t39 28.5t55 23t70 10.5q93 0 151.5 -55.5t58.5 -139.5v-305h-135z
M230 100q46 0 73 29t27 81v15l-110 -20q-55 -9 -55 -55q0 -50 65 -50zM350 550q-38 0 -74.5 25t-55.5 25q-35 0 -35 -50h-85q0 76 29 113t78 37q37 0 74 -27.5t54 -27.5q35 0 35 55h85q0 -75 -28.5 -112.5t-76.5 -37.5z" />
    <glyph glyph-name="adieresis" unicode="&#xe4;" horiz-adv-x="535" 
d="M330 0v50q-6 -7 -16.5 -17t-45.5 -26.5t-73 -16.5q-73 0 -119 41t-46 99q0 60 38.5 100t106.5 52l155 28q0 31 -22.5 50.5t-62.5 19.5q-33 0 -60.5 -12.5t-38.5 -25.5l-11 -12l-75 75l8 10.5t23 22.5t39 28.5t55 23t70 10.5q93 0 151.5 -55.5t58.5 -139.5v-305h-135z
M230 100q46 0 73 29t27 81v15l-110 -20q-55 -9 -55 -55q0 -50 65 -50zM95 625q0 30 22.5 52.5t52.5 22.5t52.5 -22.5t22.5 -52.5t-22.5 -52.5t-52.5 -22.5t-52.5 22.5t-22.5 52.5zM315 625q0 30 22.5 52.5t52.5 22.5t52.5 -22.5t22.5 -52.5t-22.5 -52.5t-52.5 -22.5
t-52.5 22.5t-22.5 52.5z" />
    <glyph glyph-name="aring" unicode="&#xe5;" horiz-adv-x="535" 
d="M330 0v50q-6 -7 -16.5 -17t-45.5 -26.5t-73 -16.5q-73 0 -119 41t-46 99q0 60 38.5 100t106.5 52l155 28q0 31 -22.5 50.5t-62.5 19.5q-33 0 -60.5 -12.5t-38.5 -25.5l-11 -12l-75 75l8 10.5t23 22.5t39 28.5t55 23t70 10.5q93 0 151.5 -55.5t58.5 -139.5v-305h-135z
M230 100q46 0 73 29t27 81v15l-110 -20q-55 -9 -55 -55q0 -50 65 -50zM240 645q0 -40 40 -40t40 40t-40 40t-40 -40zM395 645q0 -45 -33.5 -77.5t-81.5 -32.5t-81.5 32.5t-33.5 77.5t33.5 77.5t81.5 32.5t81.5 -32.5t33.5 -77.5z" />
    <glyph glyph-name="ae" unicode="&#xe6;" horiz-adv-x="875" 
d="M255 500q29 0 56.5 -8t45.5 -20t31.5 -24t19.5 -20l7 -8q3 3 8 8.5t22.5 19.5t36.5 24.5t50 19t63 8.5q102 0 171 -70t69 -175l-5 -55h-350q8 -40 42.5 -67.5t87.5 -27.5q36 0 67 15t45 30l13 15l70 -90l-9 -9t-26 -20.5t-42 -26t-57 -20.5t-71 -9q-35 0 -68 9.5
t-55 22.5t-39 26t-25 22l-8 10q-2 -4 -7 -10t-22.5 -21.5t-38.5 -27.5t-55 -21.5t-72 -9.5q-80 0 -130 43.5t-50 103.5q0 66 56.5 112t153.5 46h100q0 90 -85 90q-33 0 -62 -13.5t-41 -27.5l-12 -14l-75 75l8 10.5t23 22.5t38 28.5t53 23t68 10.5zM590 385
q-43 0 -72.5 -25.5t-37.5 -64.5h220q-8 39 -37.5 64.5t-72.5 25.5zM225 100q49 0 82 31.5t33 78.5h-90q-43 0 -66.5 -18t-23.5 -44q0 -18 18 -33t47 -15z" />
    <glyph glyph-name="ccedilla" unicode="&#xe7;" horiz-adv-x="525" 
d="M30 245q0 102 78.5 178.5t186.5 76.5q38 0 72.5 -10.5t56.5 -25t39 -29t25 -25.5l7 -10l-85 -85q-4 7 -13 18t-39 29t-63 18q-53 0 -91.5 -39.5t-38.5 -95.5t38.5 -95.5t91.5 -39.5q33 0 63 16t44 32l13 17l80 -85q-2 -4 -7 -10t-21.5 -22t-36 -28.5t-50.5 -24t-65 -14.5
l-20 -41q4 0 10 -0.5t21.5 -5t27.5 -12.5t21.5 -25.5t9.5 -41.5q0 -42 -29.5 -68.5t-80.5 -26.5q-30 0 -57.5 11t-39.5 23l-13 11l30 55q30 -25 70 -25q35 0 35 25t-35 25l-25 -5l-25 30l33 75q-92 17 -155 88.5t-63 161.5z" />
    <glyph glyph-name="egrave" unicode="&#xe8;" horiz-adv-x="570" 
d="M525 200h-355q8 -40 42.5 -67.5t87.5 -27.5q38 0 70.5 15t45.5 30l14 15l70 -90l-9 -9t-26 -20.5t-42.5 -26t-58.5 -20.5t-74 -9q-108 0 -184 75t-76 180t75 180t180 75t175 -70t70 -175zM285 385q-43 0 -73 -25t-42 -65h225q-8 39 -37.5 64.5t-72.5 25.5zM270 705
l80 -150h-110l-110 150h140z" />
    <glyph glyph-name="eacute" unicode="&#xe9;" horiz-adv-x="570" 
d="M525 200h-355q8 -40 42.5 -67.5t87.5 -27.5q38 0 70.5 15t45.5 30l14 15l70 -90l-9 -9t-26 -20.5t-42.5 -26t-58.5 -20.5t-74 -9q-108 0 -184 75t-76 180t75 180t180 75t175 -70t70 -175zM285 385q-43 0 -73 -25t-42 -65h225q-8 39 -37.5 64.5t-72.5 25.5zM235 555
l80 150h140l-110 -150h-110z" />
    <glyph glyph-name="ecircumflex" unicode="&#xea;" horiz-adv-x="570" 
d="M525 200h-355q8 -40 42.5 -67.5t87.5 -27.5q38 0 70.5 15t45.5 30l14 15l70 -90l-9 -9t-26 -20.5t-42.5 -26t-58.5 -20.5t-74 -9q-108 0 -184 75t-76 180t75 180t180 75t175 -70t70 -175zM285 385q-43 0 -73 -25t-42 -65h225q-8 39 -37.5 64.5t-72.5 25.5zM344 705
l120 -150h-120l-60 80l-60 -80h-120l120 150h120z" />
    <glyph glyph-name="edieresis" unicode="&#xeb;" horiz-adv-x="570" 
d="M525 200h-355q8 -40 42.5 -67.5t87.5 -27.5q38 0 70.5 15t45.5 30l14 15l70 -90l-9 -9t-26 -20.5t-42.5 -26t-58.5 -20.5t-74 -9q-108 0 -184 75t-76 180t75 180t180 75t175 -70t70 -175zM285 385q-43 0 -73 -25t-42 -65h225q-8 39 -37.5 64.5t-72.5 25.5zM105 625
q0 30 22.5 52.5t52.5 22.5t52.5 -22.5t22.5 -52.5t-22.5 -52.5t-52.5 -22.5t-52.5 22.5t-22.5 52.5zM325 625q0 30 22.5 52.5t52.5 22.5t52.5 -22.5t22.5 -52.5t-22.5 -52.5t-52.5 -22.5t-52.5 22.5t-22.5 52.5z" />
    <glyph glyph-name="igrave" unicode="&#xec;" horiz-adv-x="275" 
d="M105 705l80 -150h-110l-110 150h140zM195 490v-490h-135v490h135z" />
    <glyph glyph-name="iacute" unicode="&#xed;" horiz-adv-x="275" 
d="M70 555l80 150h140l-110 -150h-110zM195 490v-490h-135v490h135z" />
    <glyph glyph-name="icircumflex" unicode="&#xee;" horiz-adv-x="275" 
d="M195 490v-490h-135v490h135zM185 705l120 -150h-120l-60 80l-60 -80h-120l120 150h120z" />
    <glyph glyph-name="idieresis" unicode="&#xef;" horiz-adv-x="275" 
d="M-53 625q0 30 22.5 52.5t52.5 22.5t52.5 -22.5t22.5 -52.5t-22.5 -52.5t-52.5 -22.5t-52.5 22.5t-22.5 52.5zM167 625q0 30 22.5 52.5t52.5 22.5t52.5 -22.5t22.5 -52.5t-22.5 -52.5t-52.5 -22.5t-52.5 22.5t-22.5 52.5zM195 490v-490h-135v490h135z" />
    <glyph glyph-name="eth" unicode="&#xf0;" 
d="M407 411q-16 48 -44 89t-48 58l-20 17l-115 -75l-55 80l70 50q-45 20 -100 35l35 100q49 -13 91.5 -29.5t60.5 -25.5l18 -10l115 80l60 -80l-90 -60l16.5 -14t37.5 -42t47 -70.5t37 -99.5t17 -129q0 -140 -70.5 -217.5t-189.5 -77.5q-104 0 -177 71t-73 169
q0 97 69.5 168.5t160.5 71.5q40 0 77 -15t53 -29zM395 230q0 48 -35 84t-80 36t-80 -36t-35 -84t35 -84t80 -36t80 36t35 84z" />
    <glyph glyph-name="ntilde" unicode="&#xf1;" horiz-adv-x="595" 
d="M195 490v-60q6 8 16.5 19.5t47 31t76.5 19.5q84 0 137 -58t53 -157v-285h-135v270q0 45 -26.5 72.5t-68.5 27.5q-46 0 -73 -30t-27 -85v-255h-135v490h135zM370 555q-38 0 -74.5 25t-55.5 25q-35 0 -35 -50h-85q0 76 29 113t78 37q37 0 74 -27.5t54 -27.5q35 0 35 55h85
q0 -75 -28.5 -112.5t-76.5 -37.5z" />
    <glyph glyph-name="ograve" unicode="&#xf2;" horiz-adv-x="590" 
d="M170 245q0 -55 35.5 -92.5t84.5 -37.5t84.5 37.5t35.5 92.5t-35.5 92.5t-84.5 37.5t-84.5 -37.5t-35.5 -92.5zM550 245q0 -102 -77.5 -178.5t-182.5 -76.5t-182.5 76.5t-77.5 178.5t77.5 178.5t182.5 76.5t182.5 -76.5t77.5 -178.5zM265 705l80 -150h-110l-110 150h140z
" />
    <glyph glyph-name="oacute" unicode="&#xf3;" horiz-adv-x="590" 
d="M170 245q0 -55 35.5 -92.5t84.5 -37.5t84.5 37.5t35.5 92.5t-35.5 92.5t-84.5 37.5t-84.5 -37.5t-35.5 -92.5zM550 245q0 -102 -77.5 -178.5t-182.5 -76.5t-182.5 76.5t-77.5 178.5t77.5 178.5t182.5 76.5t182.5 -76.5t77.5 -178.5zM235 555l80 150h140l-110 -150h-110z
" />
    <glyph glyph-name="ocircumflex" unicode="&#xf4;" horiz-adv-x="590" 
d="M170 245q0 -55 35.5 -92.5t84.5 -37.5t84.5 37.5t35.5 92.5t-35.5 92.5t-84.5 37.5t-84.5 -37.5t-35.5 -92.5zM550 245q0 -102 -77.5 -178.5t-182.5 -76.5t-182.5 76.5t-77.5 178.5t77.5 178.5t182.5 76.5t182.5 -76.5t77.5 -178.5zM350 705l120 -150h-120l-60 80
l-60 -80h-120l120 150h120z" />
    <glyph glyph-name="otilde" unicode="&#xf5;" horiz-adv-x="590" 
d="M170 245q0 -55 35.5 -92.5t84.5 -37.5t84.5 37.5t35.5 92.5t-35.5 92.5t-84.5 37.5t-84.5 -37.5t-35.5 -92.5zM550 245q0 -102 -77.5 -178.5t-182.5 -76.5t-182.5 76.5t-77.5 178.5t77.5 178.5t182.5 76.5t182.5 -76.5t77.5 -178.5zM365 555q-38 0 -74.5 25t-55.5 25
q-35 0 -35 -50h-85q0 76 29 113t78 37q29 0 52.5 -13.5t41.5 -27.5t34 -14q35 0 35 55h85q0 -75 -28.5 -112.5t-76.5 -37.5z" />
    <glyph glyph-name="odieresis" unicode="&#xf6;" horiz-adv-x="590" 
d="M170 245q0 -55 35.5 -92.5t84.5 -37.5t84.5 37.5t35.5 92.5t-35.5 92.5t-84.5 37.5t-84.5 -37.5t-35.5 -92.5zM550 245q0 -102 -77.5 -178.5t-182.5 -76.5t-182.5 76.5t-77.5 178.5t77.5 178.5t182.5 76.5t182.5 -76.5t77.5 -178.5zM110 630q0 30 22.5 52.5t52.5 22.5
t52.5 -22.5t22.5 -52.5t-22.5 -52.5t-52.5 -22.5t-52.5 22.5t-22.5 52.5zM330 630q0 30 22.5 52.5t52.5 22.5t52.5 -22.5t22.5 -52.5t-22.5 -52.5t-52.5 -22.5t-52.5 22.5t-22.5 52.5z" />
    <glyph glyph-name="divide" unicode="&#xf7;" horiz-adv-x="520" 
d="M485 345v-105h-450v105h450zM340 475q0 -30 -23.5 -52.5t-56.5 -22.5t-56.5 22.5t-23.5 52.5t23.5 52.5t56.5 22.5t56.5 -22.5t23.5 -52.5zM340 110q0 -30 -23.5 -52.5t-56.5 -22.5t-56.5 22.5t-23.5 52.5t23.5 52.5t56.5 22.5t56.5 -22.5t23.5 -52.5z" />
    <glyph glyph-name="oslash" unicode="&#xf8;" horiz-adv-x="590" 
d="M180 195l155 170q-20 10 -45 10q-49 0 -84.5 -37.5t-35.5 -92.5q0 -13 2.5 -25.5t5.5 -18.5zM550 245q0 -102 -77.5 -178.5t-182.5 -76.5q-40 0 -74 10t-48 20l-13 10l-60 -65l-70 70l55 60q-6 7 -14 20.5t-22 52.5t-14 77q0 102 77.5 178.5t182.5 76.5q40 0 74 -10
t48 -20l13 -10l60 65l70 -70l-55 -60q6 -7 14 -20.5t22 -52.5t14 -77zM400 295l-155 -170q20 -10 45 -10q49 0 84.5 37.5t35.5 92.5q0 13 -2.5 25.5t-5.5 18.5z" />
    <glyph glyph-name="ugrave" unicode="&#xf9;" 
d="M390 0v50q-6 -7 -16.5 -17t-47 -26.5t-76.5 -16.5q-84 0 -137 56.5t-53 150.5v293h135v-280q0 -41 27 -68t68 -27q46 0 73 30t27 85v260h135v-490h-135zM265 705l80 -150h-110l-110 150h140z" />
    <glyph glyph-name="uacute" unicode="&#xfa;" 
d="M390 0v50q-6 -7 -16.5 -17t-47 -26.5t-76.5 -16.5q-84 0 -137 56.5t-53 150.5v293h135v-280q0 -41 27 -68t68 -27q46 0 73 30t27 85v260h135v-490h-135zM230 555l80 150h140l-110 -150h-110z" />
    <glyph glyph-name="ucircumflex" unicode="&#xfb;" 
d="M390 0v50q-6 -7 -16.5 -17t-47 -26.5t-76.5 -16.5q-84 0 -137 56.5t-53 150.5v293h135v-280q0 -41 27 -68t68 -27q46 0 73 30t27 85v260h135v-490h-135zM345 705l120 -150h-120l-60 80l-60 -80h-120l120 150h120z" />
    <glyph glyph-name="udieresis" unicode="&#xfc;" 
d="M390 0v50q-6 -7 -16.5 -17t-47 -26.5t-76.5 -16.5q-84 0 -137 56.5t-53 150.5v293h135v-280q0 -41 27 -68t68 -27q46 0 73 30t27 85v260h135v-490h-135zM105 630q0 30 22.5 52.5t52.5 22.5t52.5 -22.5t22.5 -52.5t-22.5 -52.5t-52.5 -22.5t-52.5 22.5t-22.5 52.5z
M325 630q0 30 22.5 52.5t52.5 22.5t52.5 -22.5t22.5 -52.5t-22.5 -52.5t-52.5 -22.5t-52.5 22.5t-22.5 52.5z" />
    <glyph glyph-name="yacute" unicode="&#xfd;" horiz-adv-x="520" 
d="M175 -30l15 35l-190 485h140l115 -325l115 325h140l-195 -520q-67 -180 -190 -180q-22 0 -43.5 4t-31.5 8l-10 3v120q20 -10 50 -10q61 0 85 55zM205 555l80 150h140l-110 -150h-110z" />
    <glyph glyph-name="thorn" unicode="&#xfe;" horiz-adv-x="620" 
d="M345 -10q-42 0 -78.5 17.5t-51.5 34.5l-15 18v-270h-135v910h135v-270q2 3 6 7.5t17.5 16.5t29 21.5t40.5 17t52 7.5q95 0 165 -74t70 -181t-70 -181t-165 -74zM320 380q-50 0 -85 -38t-35 -97t35 -97t85 -38t85 38t35 97t-35 97t-85 38z" />
    <glyph glyph-name="ydieresis" unicode="&#xff;" horiz-adv-x="520" 
d="M175 -30l15 35l-190 485h140l115 -325l115 325h140l-195 -520q-67 -180 -190 -180q-22 0 -43.5 4t-31.5 8l-10 3v120q20 -10 50 -10q61 0 85 55zM75 630q0 30 22.5 52.5t52.5 22.5t52.5 -22.5t22.5 -52.5t-22.5 -52.5t-52.5 -22.5t-52.5 22.5t-22.5 52.5zM295 630
q0 30 22.5 52.5t52.5 22.5t52.5 -22.5t22.5 -52.5t-22.5 -52.5t-52.5 -22.5t-52.5 22.5t-22.5 52.5z" />
    <glyph glyph-name="Amacron" unicode="&#x100;" horiz-adv-x="730" 
d="M450 295l-85 230l-85 -230h170zM500 165h-270l-60 -165h-160l275 700h160l275 -700h-160zM525 915v-100h-320v100h320z" />
    <glyph glyph-name="amacron" unicode="&#x101;" horiz-adv-x="535" 
d="M330 0v50q-6 -7 -16.5 -17t-45.5 -26.5t-73 -16.5q-73 0 -119 41t-46 99q0 60 38.5 100t106.5 52l155 28q0 31 -22.5 50.5t-62.5 19.5q-33 0 -60.5 -12.5t-38.5 -25.5l-11 -12l-75 75l8 10.5t23 22.5t39 28.5t55 23t70 10.5q93 0 151.5 -55.5t58.5 -139.5v-305h-135z
M230 100q46 0 73 29t27 81v15l-110 -20q-55 -9 -55 -55q0 -50 65 -50zM435 695v-100h-320v100h320z" />
    <glyph glyph-name="Abreve" unicode="&#x102;" horiz-adv-x="730" 
d="M450 295l-85 230l-85 -230h170zM500 165h-270l-60 -165h-160l275 700h160l275 -700h-160zM370 875q26 0 43 17t17 43h100q0 -64 -45 -107t-115 -43t-115 43t-45 107h100q0 -26 17 -43t43 -17z" />
    <glyph glyph-name="abreve" unicode="&#x103;" horiz-adv-x="535" 
d="M330 0v50q-6 -7 -16.5 -17t-45.5 -26.5t-73 -16.5q-73 0 -119 41t-46 99q0 60 38.5 100t106.5 52l155 28q0 31 -22.5 50.5t-62.5 19.5q-33 0 -60.5 -12.5t-38.5 -25.5l-11 -12l-75 75l8 10.5t23 22.5t39 28.5t55 23t70 10.5q93 0 151.5 -55.5t58.5 -139.5v-305h-135z
M230 100q46 0 73 29t27 81v15l-110 -20q-55 -9 -55 -55q0 -50 65 -50zM275 645q26 0 43 17t17 43h100q0 -64 -45 -107t-115 -43t-115 43t-45 107h100q0 -26 17 -43t43 -17z" />
    <glyph glyph-name="Aogonek" unicode="&#x104;" horiz-adv-x="730" 
d="M560 0l-60 165h-270l-60 -165h-160l275 700h160l275 -700h-90q-35 -50 -35 -100q0 -40 45 -40q13 0 25.5 2.5t18.5 5.5l6 2v-75q-30 -15 -80 -15q-48 0 -79 29.5t-31 72.5q0 30 15 59.5t30 44.5zM450 295l-85 230l-85 -230h170z" />
    <glyph glyph-name="aogonek" unicode="&#x105;" horiz-adv-x="535" 
d="M230 100q46 0 73 29t27 81v15l-110 -20q-55 -9 -55 -55q0 -50 65 -50zM330 0v50q-6 -7 -16.5 -17t-45.5 -26.5t-73 -16.5q-73 0 -119 41t-46 99q0 60 38.5 100t106.5 52l155 28q0 31 -22.5 50.5t-62.5 19.5q-33 0 -60.5 -12.5t-38.5 -25.5l-11 -12l-75 75l8 10.5t23 22.5
t39 28.5t55 23t70 10.5q93 0 151.5 -55.5t58.5 -139.5v-305h-65q-35 -50 -35 -100q0 -40 45 -40q13 0 25.5 2.5t18.5 5.5l6 2v-75q-30 -15 -80 -15q-48 0 -79 29.5t-31 72.5q0 30 15 59.5t30 44.5z" />
    <glyph glyph-name="Cacute" unicode="&#x106;" horiz-adv-x="755" 
d="M430 715q55 0 105 -14.5t82 -35t56.5 -41t35.5 -34.5l11 -15l-95 -95l-8 11t-23 24t-39 30t-55 24t-70 11q-98 0 -164 -66t-66 -164t66 -164t164 -66q38 0 73 10.5t58 25t40.5 29t25.5 25.5l8 10l90 -95q-4 -6 -12 -15.5t-35.5 -33.5t-59 -42.5t-82.5 -33.5t-106 -15
q-160 0 -270 107t-110 258t110 258t270 107zM355 785l80 150h140l-110 -150h-110z" />
    <glyph glyph-name="cacute" unicode="&#x107;" horiz-adv-x="525" 
d="M30 245q0 102 78.5 178.5t186.5 76.5q38 0 72.5 -10.5t56.5 -25t39 -29t25 -25.5l7 -10l-85 -85q-4 7 -13 18t-39 29t-63 18q-53 0 -91.5 -39.5t-38.5 -95.5t38.5 -95.5t91.5 -39.5q33 0 63 16t44 32l13 17l80 -85l-8 -11t-23.5 -24t-40 -30t-56 -24t-72.5 -11
q-108 0 -186.5 76.5t-78.5 178.5zM225 555l80 150h140l-110 -150h-110z" />
    <glyph glyph-name="Ccircumflex" unicode="&#x108;" horiz-adv-x="755" 
d="M430 715q55 0 105 -14.5t82 -35t56.5 -41t35.5 -34.5l11 -15l-95 -95l-8 11t-23 24t-39 30t-55 24t-70 11q-98 0 -164 -66t-66 -164t66 -164t164 -66q38 0 73 10.5t58 25t40.5 29t25.5 25.5l8 10l90 -95q-4 -6 -12 -15.5t-35.5 -33.5t-59 -42.5t-82.5 -33.5t-106 -15
q-160 0 -270 107t-110 258t110 258t270 107zM475 935l120 -150h-120l-60 80l-60 -80h-120l120 150h120z" />
    <glyph glyph-name="ccircumflex" unicode="&#x109;" horiz-adv-x="525" 
d="M30 245q0 102 78.5 178.5t186.5 76.5q38 0 72.5 -10.5t56.5 -25t39 -29t25 -25.5l7 -10l-85 -85q-4 7 -13 18t-39 29t-63 18q-53 0 -91.5 -39.5t-38.5 -95.5t38.5 -95.5t91.5 -39.5q33 0 63 16t44 32l13 17l80 -85l-8 -11t-23.5 -24t-40 -30t-56 -24t-72.5 -11
q-108 0 -186.5 76.5t-78.5 178.5zM339 705l120 -150h-120l-60 80l-60 -80h-120l120 150h120z" />
    <glyph glyph-name="Ccaron" unicode="&#x10c;" horiz-adv-x="755" 
d="M430 715q55 0 105 -14.5t82 -35t56.5 -41t35.5 -34.5l11 -15l-95 -95l-8 11t-23 24t-39 30t-55 24t-70 11q-98 0 -164 -66t-66 -164t66 -164t164 -66q38 0 73 10.5t58 25t40.5 29t25.5 25.5l8 10l90 -95q-4 -6 -12 -15.5t-35.5 -33.5t-59 -42.5t-82.5 -33.5t-106 -15
q-160 0 -270 107t-110 258t110 258t270 107zM595 935l-120 -150h-120l-120 150h121l59 -80l60 80h120z" />
    <glyph glyph-name="ccaron" unicode="&#x10d;" horiz-adv-x="525" 
d="M30 245q0 102 78.5 178.5t186.5 76.5q38 0 72.5 -10.5t56.5 -25t39 -29t25 -25.5l7 -10l-85 -85q-4 7 -13 18t-39 29t-63 18q-53 0 -91.5 -39.5t-38.5 -95.5t38.5 -95.5t91.5 -39.5q33 0 63 16t44 32l13 17l80 -85l-8 -11t-23.5 -24t-40 -30t-56 -24t-72.5 -11
q-108 0 -186.5 76.5t-78.5 178.5zM460 705l-120 -150h-120l-120 150h121l59 -80l60 80h120z" />
    <glyph glyph-name="Dcaron" unicode="&#x10e;" horiz-adv-x="760" 
d="M90 700h260q153 0 256.5 -101.5t103.5 -248.5t-103.5 -248.5t-256.5 -101.5h-260v700zM350 565h-110v-430h110q87 0 148.5 62.5t61.5 152.5t-60 152.5t-150 62.5zM557 935l-120 -150h-120l-120 150h121l59 -80l60 80h120z" />
    <glyph glyph-name="dcaron" unicode="&#x10f;" horiz-adv-x="690" 
d="M265 500q42 0 78.5 -17.5t51.5 -34.5l15 -18v270h135v-700h-135v60q-2 -3 -6 -7.5t-17.5 -16.5t-29 -21.5t-40.5 -17t-52 -7.5q-95 0 -165 74t-70 181t70 181t165 74zM290 110q50 0 85 38t35 97t-35 97t-85 38t-85 -38t-35 -97t35 -97t85 -38zM580 550l45 150h125
l-70 -150h-100z" />
    <glyph glyph-name="Dcroat" unicode="&#x110;" horiz-adv-x="780" 
d="M110 700h260q153 0 256.5 -101.5t103.5 -248.5t-103.5 -248.5t-256.5 -101.5h-260v290h-85v120h85v290zM370 565h-110v-155h135v-120h-135v-155h110q87 0 148.5 62.5t61.5 152.5t-60 152.5t-150 62.5z" />
    <glyph glyph-name="dcroat" unicode="&#x111;" horiz-adv-x="610" 
d="M285 510v120h110v70h135v-70h75v-120h-75v-510h-135v55q-6 -7 -16.5 -18t-48 -29t-78.5 -18q-93 0 -157.5 68t-64.5 172q0 103 64.5 171.5t155.5 68.5q42 0 78.5 -17.5t51.5 -34.5l15 -18v110h-110zM280 105q46 0 80.5 36.5t34.5 88.5t-34.5 88.5t-80.5 36.5t-80.5 -36.5
t-34.5 -88.5t34.5 -88.5t80.5 -36.5z" />
    <glyph glyph-name="Emacron" unicode="&#x112;" horiz-adv-x="665" 
d="M240 135h375v-135h-525v700h515v-135h-365v-140h285v-135h-285v-155zM515 915v-100h-320v100h320z" />
    <glyph glyph-name="emacron" unicode="&#x113;" horiz-adv-x="570" 
d="M525 200h-355q8 -40 42.5 -67.5t87.5 -27.5q38 0 70.5 15t45.5 30l14 15l70 -90l-9 -9t-26 -20.5t-42.5 -26t-58.5 -20.5t-74 -9q-108 0 -184 75t-76 180t75 180t180 75t175 -70t70 -175zM285 385q-43 0 -73 -25t-42 -65h225q-8 39 -37.5 64.5t-72.5 25.5zM445 685v-100
h-320v100h320z" />
    <glyph glyph-name="Edotaccent" unicode="&#x116;" horiz-adv-x="665" 
d="M240 135h375v-135h-525v700h515v-135h-365v-140h285v-135h-285v-155zM440 860q0 -34 -21.5 -54.5t-58.5 -20.5q-34 0 -54.5 20.5t-20.5 54.5t20.5 54.5t54.5 20.5q37 0 58.5 -20.5t21.5 -54.5z" />
    <glyph glyph-name="edotaccent" unicode="&#x117;" horiz-adv-x="570" 
d="M525 200h-355q8 -40 42.5 -67.5t87.5 -27.5q38 0 70.5 15t45.5 30l14 15l70 -90l-9 -9t-26 -20.5t-42.5 -26t-58.5 -20.5t-74 -9q-108 0 -184 75t-76 180t75 180t180 75t175 -70t70 -175zM285 385q-43 0 -73 -25t-42 -65h225q-8 39 -37.5 64.5t-72.5 25.5zM368 630
q0 -34 -21.5 -54.5t-58.5 -20.5q-34 0 -54.5 20.5t-20.5 54.5t20.5 54.5t54.5 20.5q37 0 58.5 -20.5t21.5 -54.5z" />
    <glyph glyph-name="Eogonek" unicode="&#x118;" horiz-adv-x="665" 
d="M545 0h-455v700h515v-135h-365v-140h285v-135h-285v-155h375v-135q-35 -50 -35 -100q0 -40 45 -40q13 0 25.5 2.5t18.5 5.5l6 2v-75q-30 -15 -80 -15q-48 0 -79 29.5t-31 72.5q0 30 15 59.5t30 44.5z" />
    <glyph glyph-name="eogonek" unicode="&#x119;" horiz-adv-x="570" 
d="M525 200h-355q8 -40 42.5 -67.5t87.5 -27.5q38 0 70.5 15t45.5 30l14 15l70 -90q-7 -8 -20 -19.5t-57.5 -34t-92.5 -28.5q-30 -50 -30 -93q0 -40 45 -40q13 0 25.5 2.5t18.5 5.5l6 2v-75q-30 -15 -80 -15q-48 0 -79 29.5t-31 72.5q0 59 51 110q-97 12 -161.5 84
t-64.5 169q0 105 75 180t180 75t175 -70t70 -175zM285 385q-43 0 -73 -25t-42 -65h225q-8 39 -37.5 64.5t-72.5 25.5z" />
    <glyph glyph-name="Ecaron" unicode="&#x11a;" horiz-adv-x="665" 
d="M240 135h375v-135h-525v700h515v-135h-365v-140h285v-135h-285v-155zM535 935l-120 -150h-120l-120 150h121l59 -80l60 80h120z" />
    <glyph glyph-name="ecaron" unicode="&#x11b;" horiz-adv-x="570" 
d="M525 200h-355q8 -40 42.5 -67.5t87.5 -27.5q38 0 70.5 15t45.5 30l14 15l70 -90l-9 -9t-26 -20.5t-42.5 -26t-58.5 -20.5t-74 -9q-108 0 -184 75t-76 180t75 180t180 75t175 -70t70 -175zM285 385q-43 0 -73 -25t-42 -65h225q-8 39 -37.5 64.5t-72.5 25.5zM465 705
l-120 -150h-120l-120 150h121l59 -80l60 80h120z" />
    <glyph glyph-name="Gbreve" unicode="&#x11e;" horiz-adv-x="810" 
d="M460 380h275v-260q-4 -5 -12.5 -14.5t-37.5 -32.5t-61.5 -41t-85 -32.5t-108.5 -14.5q-160 0 -270 107t-110 258t110 258t270 107q55 0 105 -14.5t82 -35t56.5 -41t35.5 -34.5l11 -15l-95 -95l-8 11t-23 24t-39 30t-55 24t-70 11q-98 0 -164 -66t-66 -164t66 -164
t164 -66q47 0 85.5 14t54.5 28l15 13v95h-125v110zM420 875q26 0 43 17t17 43h100q0 -64 -45 -107t-115 -43t-115 43t-45 107h100q0 -26 17 -43t43 -17z" />
    <glyph glyph-name="gbreve" unicode="&#x11f;" 
d="M395 40v40q-2 -3 -6 -7.5t-17.5 -16.5t-29 -21.5t-40.5 -17t-52 -7.5q-84 0 -152 73t-68 172t68 172t152 73q42 0 78.5 -17.5t51.5 -34.5l15 -18v60h135v-450q0 -106 -74 -178t-186 -72q-42 0 -80.5 11t-64 26t-44.5 30.5t-27 26.5l-9 11l85 80q5 -7 15 -18t45 -29
t75 -18q60 0 95 35t35 95zM170 255q0 -52 32 -86t78 -34t80.5 35t34.5 85t-34.5 85t-80.5 35t-78 -34t-32 -86zM297 647q26 0 43 17t17 43h100q0 -64 -45 -107t-115 -43t-115 43t-45 107h100q0 -26 17 -43t43 -17z" />
    <glyph glyph-name="Gcommaaccent" unicode="&#x122;" horiz-adv-x="810" 
d="M460 380h275v-260q-4 -5 -12.5 -14.5t-37.5 -32.5t-61.5 -41t-85 -32.5t-108.5 -14.5q-160 0 -270 107t-110 258t110 258t270 107q55 0 105 -14.5t82 -35t56.5 -41t35.5 -34.5l11 -15l-95 -95l-8 11t-23 24t-39 30t-55 24t-70 11q-98 0 -164 -66t-66 -164t66 -164
t164 -66q47 0 85.5 14t54.5 28l15 13v95h-125v110zM315 -230l45 150h125l-70 -150h-100z" />
    <glyph glyph-name="gcommaaccent" unicode="&#x123;" 
d="M395 40v40q-2 -3 -6 -7.5t-17.5 -16.5t-29 -21.5t-40.5 -17t-52 -7.5q-84 0 -152 73t-68 172t68 172t152 73q42 0 78.5 -17.5t51.5 -34.5l15 -18v60h135v-450q0 -106 -74 -178t-186 -72q-42 0 -80.5 11t-64 26t-44.5 30.5t-27 26.5l-9 11l85 80q5 -7 15 -18t45 -29
t75 -18q60 0 95 35t35 95zM170 255q0 -52 32 -86t78 -34t80.5 35t34.5 85t-34.5 85t-80.5 35t-78 -34t-32 -86zM390 705l-45 -150h-125l70 150h100z" />
    <glyph glyph-name="Imacron" unicode="&#x12a;" horiz-adv-x="330" 
d="M90 0v700h150v-700h-150zM325 915v-100h-320v100h320z" />
    <glyph glyph-name="imacron" unicode="&#x12b;" horiz-adv-x="275" 
d="M290 685v-100h-320v100h320zM195 490v-490h-135v490h135z" />
    <glyph glyph-name="Iogonek" unicode="&#x12e;" horiz-adv-x="330" 
d="M30 -118q0 30 15 59.5t30 44.5l15 14v700h150v-700h-80q-35 -50 -35 -100q0 -40 45 -40q13 0 25.5 2.5t18.5 5.5l6 2v-75q-30 -15 -80 -15q-48 0 -79 29.5t-31 72.5z" />
    <glyph glyph-name="iogonek" unicode="&#x12f;" horiz-adv-x="275" 
d="M65 0v490h135v-490h-65q-35 -50 -35 -100q0 -40 45 -40q13 0 25.5 2.5t18.5 5.5l6 2v-75q-30 -15 -80 -15q-48 0 -79 29.5t-31 72.5q0 30 15 59.5t30 44.5zM210 630q0 -34 -21.5 -54.5t-58.5 -20.5q-34 0 -54.5 20.5t-20.5 54.5t20.5 54.5t54.5 20.5q37 0 58.5 -20.5
t21.5 -54.5z" />
    <glyph glyph-name="Idotaccent" unicode="&#x130;" horiz-adv-x="330" 
d="M90 0v700h150v-700h-150zM245 860q0 -34 -21.5 -54.5t-58.5 -20.5q-34 0 -54.5 20.5t-20.5 54.5t20.5 54.5t54.5 20.5q37 0 58.5 -20.5t21.5 -54.5z" />
    <glyph glyph-name="dotlessi" unicode="&#x131;" horiz-adv-x="275" 
d="M195 490v-490h-135v490h135z" />
    <glyph glyph-name="i_j" unicode="&#x133;" horiz-adv-x="560" 
d="M350 -30v42q-35 -22 -95 -22q-83 0 -136.5 55.5t-53.5 144.5v300h135v-300q0 -38 24 -61.5t61 -23.5q18 0 34 5t23 10l8 5v365h135v-530q0 -82 -42 -126t-118 -44q-22 0 -43.5 4t-31.5 8l-10 3v120q25 -10 50 -10q26 0 43 16t17 39zM210 630q0 -34 -21.5 -54.5
t-58.5 -20.5q-34 0 -54.5 20.5t-20.5 54.5t20.5 54.5t54.5 20.5q37 0 58.5 -20.5t21.5 -54.5zM495 630q0 -34 -21.5 -54.5t-58.5 -20.5q-34 0 -54.5 20.5t-20.5 54.5t20.5 54.5t54.5 20.5q37 0 58.5 -20.5t21.5 -54.5z" />
    <glyph glyph-name="Kcommaaccent" unicode="&#x136;" horiz-adv-x="710" 
d="M240 700v-305l275 305h175l-260 -290l280 -410h-175l-205 300l-90 -100v-200h-150v700h150zM270 -230l45 150h125l-70 -150h-100z" />
    <glyph glyph-name="kcommaaccent" unicode="&#x137;" horiz-adv-x="545" 
d="M260 190l-60 -70v-120h-135v700h135v-410l175 200h155l-185 -210l195 -280h-150zM190 -230l45 150h125l-70 -150h-100z" />
    <glyph glyph-name="Lacute" unicode="&#x139;" horiz-adv-x="590" 
d="M565 0h-475v700h150v-565h325v-135zM115 785l80 150h140l-110 -150h-110z" />
    <glyph glyph-name="lacute" unicode="&#x13a;" horiz-adv-x="280" 
d="M200 700v-700h-135v700h135zM85 785l80 150h140l-110 -150h-110z" />
    <glyph glyph-name="Lcommaaccent" unicode="&#x13b;" horiz-adv-x="590" 
d="M565 0h-475v700h150v-565h325v-135zM222 -230l45 150h125l-70 -150h-100z" />
    <glyph glyph-name="lcommaaccent" unicode="&#x13c;" horiz-adv-x="280" 
d="M200 700v-700h-135v700h135zM25 -230l45 150h125l-70 -150h-100z" />
    <glyph glyph-name="Lcaron" unicode="&#x13d;" horiz-adv-x="590" 
d="M565 0h-475v700h150v-565h325v-135zM290 550l45 150h125l-70 -150h-100z" />
    <glyph glyph-name="lcaron" unicode="&#x13e;" horiz-adv-x="350" 
d="M200 700v-700h-135v700h135zM240 550l45 150h125l-70 -150h-100z" />
    <glyph glyph-name="Lslash" unicode="&#x141;" horiz-adv-x="650" 
d="M625 0h-475v235l-95 -55l-65 115l160 90v315h150v-235l100 55l65 -110l-165 -95v-180h325v-135z" />
    <glyph glyph-name="lslash" unicode="&#x142;" horiz-adv-x="385" 
d="M410 420l-155 -95v-325h-135v245l-95 -55l-60 100l155 90v320h135v-240l100 60z" />
    <glyph glyph-name="Nacute" unicode="&#x143;" horiz-adv-x="805" 
d="M565 700h150v-700h-130l-345 445v-445h-150v700h130l345 -445v445zM350 785l80 150h140l-110 -150h-110z" />
    <glyph glyph-name="nacute" unicode="&#x144;" horiz-adv-x="595" 
d="M195 490v-60q6 8 16.5 19.5t47 31t76.5 19.5q84 0 137 -58t53 -157v-285h-135v270q0 45 -26.5 72.5t-68.5 27.5q-46 0 -73 -30t-27 -85v-255h-135v490h135zM245 555l80 150h140l-110 -150h-110z" />
    <glyph glyph-name="Ncommaaccent" unicode="&#x145;" horiz-adv-x="805" 
d="M565 700h150v-700h-130l-345 445v-445h-150v700h130l345 -445v445zM310 -230l45 150h125l-70 -150h-100z" />
    <glyph glyph-name="ncommaaccent" unicode="&#x146;" horiz-adv-x="595" 
d="M195 490v-60q6 8 16.5 19.5t47 31t76.5 19.5q84 0 137 -58t53 -157v-285h-135v270q0 45 -26.5 72.5t-68.5 27.5q-46 0 -73 -30t-27 -85v-255h-135v490h135zM185 -230l45 150h125l-70 -150h-100z" />
    <glyph glyph-name="Ncaron" unicode="&#x147;" horiz-adv-x="805" 
d="M565 700h150v-700h-130l-345 445v-445h-150v700h130l345 -445v445zM580 935l-120 -150h-120l-120 150h121l59 -80l60 80h120z" />
    <glyph glyph-name="ncaron" unicode="&#x148;" horiz-adv-x="595" 
d="M195 490v-60q6 8 16.5 19.5t47 31t76.5 19.5q84 0 137 -58t53 -157v-285h-135v270q0 45 -26.5 72.5t-68.5 27.5q-46 0 -73 -30t-27 -85v-255h-135v490h135zM475 705l-120 -150h-120l-120 150h121l59 -80l60 80h120z" />
    <glyph glyph-name="Omacron" unicode="&#x14c;" horiz-adv-x="860" 
d="M205 350q0 -97 65.5 -163.5t159.5 -66.5t159.5 66.5t65.5 163.5t-65.5 163.5t-159.5 66.5t-159.5 -66.5t-65.5 -163.5zM50 350q0 151 110 258t270 107t270 -107t110 -258t-110 -258t-270 -107t-270 107t-110 258zM590 915v-100h-320v100h320z" />
    <glyph glyph-name="omacron" unicode="&#x14d;" horiz-adv-x="590" 
d="M170 245q0 -55 35.5 -92.5t84.5 -37.5t84.5 37.5t35.5 92.5t-35.5 92.5t-84.5 37.5t-84.5 -37.5t-35.5 -92.5zM550 245q0 -102 -77.5 -178.5t-182.5 -76.5t-182.5 76.5t-77.5 178.5t77.5 178.5t182.5 76.5t182.5 -76.5t77.5 -178.5zM450 685v-100h-320v100h320z" />
    <glyph glyph-name="Ohungarumlaut" unicode="&#x150;" horiz-adv-x="860" 
d="M205 350q0 -97 65.5 -163.5t159.5 -66.5t159.5 66.5t65.5 163.5t-65.5 163.5t-159.5 66.5t-159.5 -66.5t-65.5 -163.5zM50 350q0 151 110 258t270 107t270 -107t110 -258t-110 -258t-270 -107t-270 107t-110 258zM285 785l80 150h135l-115 -150h-100zM475 785l80 150h135
l-115 -150h-100z" />
    <glyph glyph-name="ohungarumlaut" unicode="&#x151;" horiz-adv-x="592" 
d="M170 245q0 -55 35.5 -92.5t84.5 -37.5t84.5 37.5t35.5 92.5t-35.5 92.5t-84.5 37.5t-84.5 -37.5t-35.5 -92.5zM550 245q0 -102 -77.5 -178.5t-182.5 -76.5t-182.5 76.5t-77.5 178.5t77.5 178.5t182.5 76.5t182.5 -76.5t77.5 -178.5zM145 555l80 150h135l-115 -150h-100z
M335 555l80 150h135l-115 -150h-100z" />
    <glyph glyph-name="OE" unicode="&#x152;" horiz-adv-x="1020" 
d="M420 700h545v-130h-325v-148h245v-125h-245v-167h335v-130h-555q-156 0 -263 103t-107 247t107 247t263 103zM490 565h-70q-93 0 -156.5 -62.5t-63.5 -152.5q0 -100 64.5 -157.5t155.5 -57.5h70v430z" />
    <glyph glyph-name="oe" unicode="&#x153;" horiz-adv-x="945" 
d="M900 200h-355q8 -40 42.5 -67.5t87.5 -27.5q38 0 70.5 15t46.5 30l13 15l70 -85q-3 -4 -9 -10t-26 -21.5t-42.5 -27.5t-58.5 -21.5t-74 -9.5q-36 0 -69 9t-54 21t-37 24.5t-23 21.5l-7 9q-3 -3 -8 -9t-23.5 -20.5t-38.5 -26t-53 -20.5t-67 -9q-105 0 -180 75t-75 180
t75 180t180 75q53 0 100.5 -22.5t68.5 -45.5l21 -22q3 4 8 10t22.5 21.5t37.5 27.5t51.5 21.5t65.5 9.5q104 0 174.5 -71.5t70.5 -173.5zM400 245q0 58 -34.5 96.5t-80.5 38.5t-80.5 -38.5t-34.5 -96.5t34.5 -96.5t80.5 -38.5t80.5 38.5t34.5 96.5zM660 390q-44 0 -73.5 -26
t-41.5 -69h225q-8 42 -37 68.5t-73 26.5z" />
    <glyph glyph-name="Racute" unicode="&#x154;" horiz-adv-x="710" 
d="M90 0v700h310q104 0 172 -66.5t68 -163.5q0 -42 -13 -78.5t-31 -59t-36.5 -38.5t-31.5 -22l-13 -7l150 -265h-160l-135 245h-130v-245h-150zM490 470q0 41 -27 68t-68 27h-155v-185h155q41 0 68 26t27 64zM295 785l80 150h140l-110 -150h-110z" />
    <glyph glyph-name="racute" unicode="&#x155;" horiz-adv-x="370" 
d="M355 495v-135q-15 5 -45 5q-53 0 -84 -33.5t-31 -96.5v-235h-135v490h135v-60q6 7 16.5 18t47 29t76.5 18h20zM150 555l80 150h140l-110 -150h-110z" />
    <glyph glyph-name="Rcommaaccent" unicode="&#x156;" horiz-adv-x="710" 
d="M90 0v700h310q104 0 172 -66.5t68 -163.5q0 -42 -13 -78.5t-31 -59t-36.5 -38.5t-31.5 -22l-13 -7l150 -265h-160l-135 245h-130v-245h-150zM490 470q0 41 -27 68t-68 27h-155v-185h155q41 0 68 26t27 64zM255 -230l45 150h125l-70 -150h-100z" />
    <glyph glyph-name="rcommaaccent" unicode="&#x157;" horiz-adv-x="370" 
d="M355 495v-135q-15 5 -45 5q-53 0 -84 -33.5t-31 -96.5v-235h-135v490h135v-60q6 7 16.5 18t47 29t76.5 18h20zM20 -230l45 150h125l-70 -150h-100z" />
    <glyph glyph-name="Rcaron" unicode="&#x158;" horiz-adv-x="710" 
d="M90 0v700h310q104 0 172 -66.5t68 -163.5q0 -42 -13 -78.5t-31 -59t-36.5 -38.5t-31.5 -22l-13 -7l150 -265h-160l-135 245h-130v-245h-150zM490 470q0 41 -27 68t-68 27h-155v-185h155q41 0 68 26t27 64zM530 935l-120 -150h-120l-120 150h121l59 -80l60 80h120z" />
    <glyph glyph-name="rcaron" unicode="&#x159;" horiz-adv-x="370" 
d="M355 495v-135q-15 5 -45 5q-53 0 -84 -33.5t-31 -96.5v-235h-135v490h135v-60q6 7 16.5 18t47 29t76.5 18h20zM380 705l-120 -150h-120l-120 150h121l59 -80l60 80h120z" />
    <glyph glyph-name="Sacute" unicode="&#x15a;" 
d="M395 205q0 35 -35.5 56.5t-86.5 36t-101.5 34t-86 64.5t-35.5 114q0 85 68 145t177 60q43 0 83 -10t65.5 -23.5t45 -27.5t27.5 -24l9 -10l-90 -95q-6 7 -16.5 17t-44 26.5t-69.5 16.5q-43 0 -69 -22t-26 -53q0 -35 35.5 -56.5t86 -36t101.5 -34t86.5 -64.5t35.5 -114
q0 -97 -70.5 -158.5t-194.5 -61.5q-49 0 -94.5 12t-75 28.5t-52 33.5t-32.5 29l-11 12l90 90q7 -8 19.5 -20.5t55.5 -33.5t90 -21q54 0 84.5 25.5t30.5 64.5zM235 785l80 150h140l-110 -150h-110z" />
    <glyph glyph-name="sacute" unicode="&#x15b;" horiz-adv-x="455" 
d="M400 425l-70 -80q-3 4 -9.5 11t-27.5 18t-43 11q-28 0 -44 -12t-16 -28q0 -19 23 -31.5t56 -22.5t66.5 -24t56.5 -45t23 -77q0 -66 -52 -110.5t-143 -44.5q-39 0 -74 9.5t-57 22.5t-38.5 26t-23.5 22l-7 10l75 75q4 -6 12.5 -15t36 -24.5t56.5 -15.5q32 0 48.5 12.5
t16.5 32.5t-23 33.5t-56.5 23.5t-66.5 24t-56 44t-23 75q0 59 55 107t135 48q51 0 93.5 -19t59.5 -37zM165 555l80 150h140l-110 -150h-110z" />
    <glyph glyph-name="Scedilla" unicode="&#x15e;" 
d="M395 205q0 35 -35.5 56.5t-86.5 36t-101.5 34t-86 64.5t-35.5 114q0 85 68 145t177 60q43 0 83 -10t65.5 -23.5t45 -27.5t27.5 -24l9 -10l-90 -95q-6 7 -16.5 17t-44 26.5t-69.5 16.5q-43 0 -69 -22t-26 -53q0 -35 35.5 -56.5t86 -36t101.5 -34t86.5 -64.5t35.5 -114
q0 -90 -61.5 -150t-170.5 -69l-18 -36q4 0 10 -0.5t21.5 -5t27.5 -12.5t21.5 -25.5t9.5 -41.5q0 -42 -29.5 -68.5t-80.5 -26.5q-30 0 -57.5 11t-39.5 23l-13 11l30 55q30 -25 70 -25q35 0 35 25t-35 25l-25 -5l-25 30l30 67q-43 4 -82 17t-65 29t-45.5 31t-28.5 26l-9 10
l90 90q7 -8 19.5 -20.5t55.5 -33.5t90 -21q54 0 84.5 25.5t30.5 64.5z" />
    <glyph glyph-name="scedilla" unicode="&#x15f;" horiz-adv-x="455" 
d="M400 425l-70 -80q-3 4 -9.5 11t-27.5 18t-43 11q-28 0 -44 -12t-16 -28q0 -19 23 -31.5t56 -22.5t66.5 -24t56.5 -45t23 -77q0 -60 -44 -103t-121 -50l-20 -42q4 0 10 -0.5t21.5 -5t27.5 -12.5t21.5 -25.5t9.5 -41.5q0 -42 -29.5 -68.5t-80.5 -26.5q-30 0 -57.5 11
t-40.5 23l-12 11l30 55q30 -25 70 -25q35 0 35 25t-35 25l-25 -5l-25 30l32 73q-50 6 -90.5 27.5t-55.5 40.5l-16 19l75 75q4 -6 12.5 -15t36 -24.5t56.5 -15.5q32 0 48.5 12.5t16.5 32.5t-23 33.5t-56.5 23.5t-66.5 24t-56 44t-23 75q0 59 55 107t135 48q51 0 93.5 -19
t59.5 -37z" />
    <glyph glyph-name="Scaron" unicode="&#x160;" 
d="M395 205q0 35 -35.5 56.5t-86.5 36t-101.5 34t-86 64.5t-35.5 114q0 85 68 145t177 60q43 0 83 -10t65.5 -23.5t45 -27.5t27.5 -24l9 -10l-90 -95q-6 7 -16.5 17t-44 26.5t-69.5 16.5q-43 0 -69 -22t-26 -53q0 -35 35.5 -56.5t86 -36t101.5 -34t86.5 -64.5t35.5 -114
q0 -97 -70.5 -158.5t-194.5 -61.5q-49 0 -94.5 12t-75 28.5t-52 33.5t-32.5 29l-11 12l90 90q7 -8 19.5 -20.5t55.5 -33.5t90 -21q54 0 84.5 25.5t30.5 64.5zM475 935l-120 -150h-120l-120 150h121l59 -80l60 80h120z" />
    <glyph glyph-name="scaron" unicode="&#x161;" horiz-adv-x="455" 
d="M400 425l-70 -80q-3 4 -9.5 11t-27.5 18t-43 11q-28 0 -44 -12t-16 -28q0 -19 23 -31.5t56 -22.5t66.5 -24t56.5 -45t23 -77q0 -66 -52 -110.5t-143 -44.5q-39 0 -74 9.5t-57 22.5t-38.5 26t-23.5 22l-7 10l75 75q4 -6 12.5 -15t36 -24.5t56.5 -15.5q32 0 48.5 12.5
t16.5 32.5t-23 33.5t-56.5 23.5t-66.5 24t-56 44t-23 75q0 59 55 107t135 48q51 0 93.5 -19t59.5 -37zM405 705l-120 -150h-120l-120 150h121l59 -80l60 80h120z" />
    <glyph glyph-name="Tcommaaccent" unicode="&#x162;" horiz-adv-x="590" 
d="M20 700h550v-135h-200v-565h-150v565h-200v135zM185 -230l45 150h125l-70 -150h-100z" />
    <glyph glyph-name="tcommaaccent" unicode="&#x163;" horiz-adv-x="405" 
d="M120 545v90h120v-155h100v-120h-100v-195q0 -23 17 -39t43 -16q13 0 25.5 2.5t18.5 5.5l6 2v-115q-40 -15 -90 -15q-155 0 -155 170v200h-85v120h45q23 0 39 18t16 47zM125 -230l45 150h125l-70 -150h-100z" />
    <glyph glyph-name="Tcaron" unicode="&#x164;" horiz-adv-x="590" 
d="M20 700h550v-135h-200v-565h-150v565h-200v135zM475 935l-120 -150h-120l-120 150h121l59 -80l60 80h120z" />
    <glyph glyph-name="tcaron" unicode="&#x165;" horiz-adv-x="425" 
d="M120 545v90h120v-155h100v-120h-100v-195q0 -23 17 -39t43 -16q13 0 25.5 2.5t18.5 5.5l6 2v-115q-40 -15 -90 -15q-155 0 -155 170v200h-85v120h45q23 0 39 18t16 47zM315 550l45 150h125l-70 -150h-100z" />
    <glyph glyph-name="Umacron" unicode="&#x16a;" horiz-adv-x="780" 
d="M390 120q64 0 109.5 47.5t45.5 117.5v415h150v-415q0 -128 -87 -214t-218 -86t-218 86t-87 214v415h150v-415q0 -70 45.5 -117.5t109.5 -47.5zM550 915v-100h-320v100h320z" />
    <glyph glyph-name="umacron" unicode="&#x16b;" 
d="M390 0v50q-6 -7 -16.5 -17t-47 -26.5t-76.5 -16.5q-84 0 -137 56.5t-53 150.5v293h135v-280q0 -41 27 -68t68 -27q46 0 73 30t27 85v260h135v-490h-135zM450 685v-100h-320v100h320z" />
    <glyph glyph-name="Uring" unicode="&#x16e;" horiz-adv-x="780" 
d="M390 120q64 0 109.5 47.5t45.5 117.5v415h150v-415q0 -128 -87 -214t-218 -86t-218 86t-87 214v415h150v-415q0 -70 45.5 -117.5t109.5 -47.5zM350 870q0 -40 40 -40t40 40t-40 40t-40 -40zM505 870q0 -45 -33.5 -77.5t-81.5 -32.5t-81.5 32.5t-33.5 77.5t33.5 77.5
t81.5 32.5t81.5 -32.5t33.5 -77.5z" />
    <glyph glyph-name="uring" unicode="&#x16f;" 
d="M390 0v50q-6 -7 -16.5 -17t-47 -26.5t-76.5 -16.5q-84 0 -137 56.5t-53 150.5v293h135v-280q0 -41 27 -68t68 -27q46 0 73 30t27 85v260h135v-490h-135zM250 650q0 -40 40 -40t40 40t-40 40t-40 -40zM405 650q0 -45 -33.5 -77.5t-81.5 -32.5t-81.5 32.5t-33.5 77.5
t33.5 77.5t81.5 32.5t81.5 -32.5t33.5 -77.5z" />
    <glyph glyph-name="Uhungarumlaut" unicode="&#x170;" horiz-adv-x="780" 
d="M390 120q64 0 109.5 47.5t45.5 117.5v415h150v-415q0 -128 -87 -214t-218 -86t-218 86t-87 214v415h150v-415q0 -70 45.5 -117.5t109.5 -47.5zM240 785l80 150h135l-115 -150h-100zM430 785l80 150h135l-115 -150h-100z" />
    <glyph glyph-name="uhungarumlaut" unicode="&#x171;" 
d="M390 0v50q-6 -7 -16.5 -17t-47 -26.5t-76.5 -16.5q-84 0 -137 56.5t-53 150.5v293h135v-280q0 -41 27 -68t68 -27q46 0 73 30t27 85v260h135v-490h-135zM135 555l80 150h135l-115 -150h-100zM325 555l80 150h135l-115 -150h-100z" />
    <glyph glyph-name="Uogonek" unicode="&#x172;" horiz-adv-x="780" 
d="M390 120q64 0 109.5 47.5t45.5 117.5v415h150v-415q0 -115 -72 -197.5t-185 -98.5q-28 -48 -28 -89q0 -40 45 -40q13 0 25.5 2.5t18.5 5.5l6 2v-75q-30 -15 -80 -15q-48 0 -79 29.5t-31 72.5q0 54 46 105q-120 10 -198 93.5t-78 204.5v415h150v-415q0 -70 45.5 -117.5
t109.5 -47.5z" />
    <glyph glyph-name="uogonek" unicode="&#x173;" 
d="M390 0v50q-6 -7 -16.5 -17t-47 -26.5t-76.5 -16.5q-84 0 -137 56.5t-53 150.5v293h135v-280q0 -41 27 -68t68 -27q46 0 73 30t27 85v260h135v-490h-65q-35 -50 -35 -100q0 -40 45 -40q13 0 25.5 2.5t18.5 5.5l6 2v-75q-30 -15 -80 -15q-48 0 -79 29.5t-31 72.5
q0 30 15 59.5t30 44.5z" />
    <glyph glyph-name="Ydieresis" unicode="&#x178;" horiz-adv-x="670" 
d="M170 700l165 -300l165 300h160l-250 -450v-250h-150v250l-250 450h160zM155 855q0 30 22.5 52.5t52.5 22.5t52.5 -22.5t22.5 -52.5t-22.5 -52.5t-52.5 -22.5t-52.5 22.5t-22.5 52.5zM375 855q0 30 22.5 52.5t52.5 22.5t52.5 -22.5t22.5 -52.5t-22.5 -52.5t-52.5 -22.5
t-52.5 22.5t-22.5 52.5z" />
    <glyph glyph-name="Zacute" unicode="&#x179;" horiz-adv-x="650" 
d="M405 565h-340v135h525v-135l-355 -430h365v-135h-550v135zM270 785l80 150h140l-110 -150h-110z" />
    <glyph glyph-name="zacute" unicode="&#x17a;" horiz-adv-x="500" 
d="M445 490v-120l-240 -250h250v-120h-420v120l240 250h-230v120h400zM190 555l80 150h140l-110 -150h-110z" />
    <glyph glyph-name="Zdotaccent" unicode="&#x17b;" horiz-adv-x="650" 
d="M405 565h-340v135h525v-135l-355 -430h365v-135h-550v135zM405 860q0 -34 -21.5 -54.5t-58.5 -20.5q-34 0 -54.5 20.5t-20.5 54.5t20.5 54.5t54.5 20.5q37 0 58.5 -20.5t21.5 -54.5z" />
    <glyph glyph-name="zdotaccent" unicode="&#x17c;" horiz-adv-x="500" 
d="M445 490v-120l-240 -250h250v-120h-420v120l240 250h-230v120h400zM325 630q0 -34 -21.5 -54.5t-58.5 -20.5q-34 0 -54.5 20.5t-20.5 54.5t20.5 54.5t54.5 20.5q37 0 58.5 -20.5t21.5 -54.5z" />
    <glyph glyph-name="Zcaron" unicode="&#x17d;" horiz-adv-x="650" 
d="M405 565h-340v135h525v-135l-355 -430h365v-135h-550v135zM500 935l-120 -150h-120l-120 150h121l59 -80l60 80h120z" />
    <glyph glyph-name="zcaron" unicode="&#x17e;" horiz-adv-x="500" 
d="M445 490v-120l-240 -250h250v-120h-420v120l240 250h-230v120h400zM420 705l-120 -150h-120l-120 150h121l59 -80l60 80h120z" />
    <glyph glyph-name="florin" unicode="&#x192;" horiz-adv-x="385" 
d="M250 300l-66 -340q-16 -86 -57.5 -128t-121.5 -42q-18 0 -36.5 2.5t-28.5 5.5l-10 2v115q25 -10 50 -10q59 0 70 55l65 340h-65v120h85l21 120q15 85 57 127.5t122 42.5q18 0 36.5 -2.5t28.5 -5.5l10 -2v-115q-25 10 -50 10q-61 0 -70 -55l-20 -120h95v-120h-115z" />
    <glyph glyph-name="Scommaaccent" unicode="&#x218;" 
d="M395 205q0 35 -35.5 56.5t-86.5 36t-101.5 34t-86 64.5t-35.5 114q0 85 68 145t177 60q43 0 83 -10t65.5 -23.5t45 -27.5t27.5 -24l9 -10l-90 -95q-6 7 -16.5 17t-44 26.5t-69.5 16.5q-43 0 -69 -22t-26 -53q0 -35 35.5 -56.5t86 -36t101.5 -34t86.5 -64.5t35.5 -114
q0 -97 -70.5 -158.5t-194.5 -61.5q-49 0 -94.5 12t-75 28.5t-52 33.5t-32.5 29l-11 12l90 90q7 -8 19.5 -20.5t55.5 -33.5t90 -21q54 0 84.5 25.5t30.5 64.5zM190 -230l45 150h125l-70 -150h-100z" />
    <glyph glyph-name="scommaaccent" unicode="&#x219;" horiz-adv-x="455" 
d="M400 425l-70 -80q-3 4 -9.5 11t-27.5 18t-43 11q-28 0 -44 -12t-16 -28q0 -19 23 -31.5t56 -22.5t66.5 -24t56.5 -45t23 -77q0 -66 -52 -110.5t-143 -44.5q-39 0 -74 9.5t-57 22.5t-38.5 26t-23.5 22l-7 10l75 75q4 -6 12.5 -15t36 -24.5t56.5 -15.5q32 0 48.5 12.5
t16.5 32.5t-23 33.5t-56.5 23.5t-66.5 24t-56 44t-23 75q0 59 55 107t135 48q51 0 93.5 -19t59.5 -37zM120 -230l45 150h125l-70 -150h-100z" />
    <glyph glyph-name="uni021A" unicode="&#x21a;" horiz-adv-x="590" 
d="M20 700h550v-135h-200v-565h-150v565h-200v135zM185 -230l45 150h125l-70 -150h-100z" />
    <glyph glyph-name="uni021B" unicode="&#x21b;" horiz-adv-x="405" 
d="M120 545v90h120v-155h100v-120h-100v-195q0 -23 17 -39t43 -16q13 0 25.5 2.5t18.5 5.5l6 2v-115q-40 -15 -90 -15q-155 0 -155 170v200h-85v120h45q23 0 39 18t16 47zM125 -230l45 150h125l-70 -150h-100z" />
    <glyph glyph-name="afii57929" unicode="&#x2bc;" horiz-adv-x="230" 
d="M30 555l45 150h125l-70 -150h-100z" />
    <glyph glyph-name="circumflex" unicode="&#x2c6;" horiz-adv-x="420" 
d="M270 705l120 -150h-120l-60 80l-60 -80h-120l120 150h120z" />
    <glyph glyph-name="caron" unicode="&#x2c7;" horiz-adv-x="420" 
d="M390 705l-120 -150h-120l-120 150h121l59 -80l60 80h120z" />
    <glyph glyph-name="breve" unicode="&#x2d8;" horiz-adv-x="380" 
d="M190 645q26 0 43 17t17 43h100q0 -64 -45 -107t-115 -43t-115 43t-45 107h100q0 -26 17 -43t43 -17z" />
    <glyph glyph-name="dotaccent" unicode="&#x2d9;" horiz-adv-x="215" 
d="M185 640q0 -34 -21.5 -54.5t-58.5 -20.5q-34 0 -54.5 20.5t-20.5 54.5t20.5 54.5t54.5 20.5q37 0 58.5 -20.5t21.5 -54.5z" />
    <glyph glyph-name="ring" unicode="&#x2da;" horiz-adv-x="290" 
d="M105 605q0 -40 40 -40t40 40t-40 40t-40 -40zM260 605q0 -45 -33.5 -77.5t-81.5 -32.5t-81.5 32.5t-33.5 77.5t33.5 77.5t81.5 32.5t81.5 -32.5t33.5 -77.5z" />
    <glyph glyph-name="ogonek" unicode="&#x2db;" horiz-adv-x="250" 
d="M90 0h70q-35 -50 -35 -100q0 -40 45 -40q13 0 25.5 2.5t18.5 5.5l6 2v-75q-30 -15 -80 -15q-48 0 -79 29.5t-31 72.5q0 30 15 59.5t30 44.5z" />
    <glyph glyph-name="tilde" unicode="&#x2dc;" horiz-adv-x="415" 
d="M280 560q-38 0 -74.5 25t-55.5 25q-35 0 -35 -50h-85q0 76 29 113t78 37q37 0 74 -27.5t54 -27.5q35 0 35 55h85q0 -75 -28.5 -112.5t-76.5 -37.5z" />
    <glyph glyph-name="hungarumlaut" unicode="&#x2dd;" horiz-adv-x="465" 
d="M30 555l80 150h135l-115 -150h-100zM220 555l80 150h135l-115 -150h-100z" />
    <glyph glyph-name="afii10023" unicode="&#x401;" horiz-adv-x="665" 
d="M240 135h375v-135h-525v700h515v-135h-365v-140h285v-135h-285v-155zM169 857q0 30 22.5 52.5t52.5 22.5t52.5 -22.5t22.5 -52.5t-22.5 -52.5t-52.5 -22.5t-52.5 22.5t-22.5 52.5zM389 857q0 30 22.5 52.5t52.5 22.5t52.5 -22.5t22.5 -52.5t-22.5 -52.5t-52.5 -22.5
t-52.5 22.5t-22.5 52.5z" />
    <glyph glyph-name="afii10051" unicode="&#x402;" horiz-adv-x="735" 
d="M545 225q0 42 -31 71t-79 29q-55 0 -90 -33t-35 -82v-210h-150v565h-160v135h470v-135h-160v-155q6 6 18 14t51 22t81 14q235 0 235 -235q0 -112 -63 -176t-172 -64h-30v135q56 0 85.5 28t29.5 77z" />
    <glyph glyph-name="afii10052" unicode="&#x403;" horiz-adv-x="575" 
d="M270 785l80 150h140l-110 -150h-110zM90 0v700h475v-135h-325v-565h-150z" />
    <glyph glyph-name="afii10053" unicode="&#x404;" horiz-adv-x="755" 
d="M430 715q55 0 105 -14.5t82 -35t56.5 -41t35.5 -34.5l11 -15l-95 -95l-8 11t-23 24t-39 30t-55 24t-70 11q-82 0 -141 -46t-79 -114h310v-135h-310q20 -72 77 -118.5t143 -46.5q38 0 73 10.5t58 25t40.5 29t25.5 25.5l8 10l90 -95q-4 -6 -12 -15.5t-35.5 -33.5t-59 -42.5
t-82.5 -33.5t-106 -15q-160 0 -270 107t-110 258t109.5 258t270.5 107z" />
    <glyph glyph-name="afii10054" unicode="&#x405;" 
d="M395 205q0 35 -35.5 56.5t-86.5 36t-101.5 34t-86 64.5t-35.5 114q0 85 68 145t177 60q43 0 83 -10t65.5 -23.5t45 -27.5t27.5 -24l9 -10l-90 -95q-6 7 -16.5 17t-44 26.5t-69.5 16.5q-43 0 -69 -22t-26 -53q0 -35 35.5 -56.5t86 -36t101.5 -34t86.5 -64.5t35.5 -114
q0 -97 -70.5 -158.5t-194.5 -61.5q-49 0 -94.5 12t-75 28.5t-52 33.5t-32.5 29l-11 12l90 90q7 -8 19.5 -20.5t55.5 -33.5t90 -21q54 0 84.5 25.5t30.5 64.5z" />
    <glyph glyph-name="afii10055" unicode="&#x406;" horiz-adv-x="330" 
d="M90 0v700h150v-700h-150z" />
    <glyph glyph-name="afii10056" unicode="&#x407;" horiz-adv-x="330" 
d="M90 0v700h150v-700h-150zM-20 850q0 30 22.5 52.5t52.5 22.5t52.5 -22.5t22.5 -52.5t-22.5 -52.5t-52.5 -22.5t-52.5 22.5t-22.5 52.5zM200 850q0 30 22.5 52.5t52.5 22.5t52.5 -22.5t22.5 -52.5t-22.5 -52.5t-52.5 -22.5t-52.5 22.5t-22.5 52.5z" />
    <glyph glyph-name="afii10057" unicode="&#x408;" horiz-adv-x="515" 
d="M280 700h150v-475q0 -107 -67.5 -173.5t-177.5 -66.5q-53 0 -99.5 21.5t-65.5 42.5l-20 21l90 90q3 -4 9.5 -11t29 -18t46.5 -11q49 0 77 28t28 77v475z" />
    <glyph glyph-name="afii10058" unicode="&#x409;" horiz-adv-x="1095" 
d="M800 0h-290v565h-190v-80q0 -148 -16.5 -248.5t-48.5 -154t-71.5 -75.5t-93.5 -22q-22 0 -44.5 4.5t-33.5 8.5l-12 4v143q25 -10 50 -10q39 0 63 23.5t40.5 103t16.5 222.5v216h490v-230h140q108 0 179 -67.5t71 -167.5t-71 -167.5t-179 -67.5zM660 135h135q45 0 75 29
t30 71t-30 71t-75 29h-135v-200z" />
    <glyph glyph-name="afii10059" unicode="&#x40a;" horiz-adv-x="1105" 
d="M810 0h-290v335h-280v-335h-150v700h150v-230h280v230h150v-230h140q108 0 179 -67.5t71 -167.5t-71 -167.5t-179 -67.5zM670 135h135q45 0 75 29t30 71t-30 71t-75 29h-135v-200z" />
    <glyph glyph-name="afii10060" unicode="&#x40b;" horiz-adv-x="765" 
d="M545 220q0 45 -31 75t-79 30q-55 0 -90 -31t-35 -74v-220h-150v565h-160v135h470v-135h-160v-155q6 6 18 14t51 22t81 14q235 0 235 -240v-220h-150v220z" />
    <glyph glyph-name="afii10061" unicode="&#x40c;" horiz-adv-x="710" 
d="M240 700v-305l275 305h175l-260 -290l280 -410h-175l-205 300l-90 -100v-200h-150v700h150zM317 785l80 150h140l-110 -150h-110z" />
    <glyph glyph-name="afii10062" unicode="&#x40e;" horiz-adv-x="640" 
d="M335 875q26 0 43 17t17 43h100q0 -68 -44.5 -111.5t-115.5 -43.5t-115.5 43.5t-44.5 111.5h100q0 -26 17 -43t43 -17zM175 700l165 -330l140 330h160l-245 -525q-43 -91 -101 -138t-144 -47q-20 0 -40 4t-30 8l-10 3v130q25 -10 60 -10q75 0 115 70l20 35l-250 470h160z
" />
    <glyph glyph-name="afii10145" unicode="&#x40f;" horiz-adv-x="775" 
d="M685 700v-700h-225v-145h-150v145h-220v700h150v-565h295v565h150z" />
    <glyph glyph-name="afii10017" unicode="&#x410;" horiz-adv-x="730" 
d="M450 295l-85 230l-85 -230h170zM500 165h-270l-60 -165h-160l275 700h160l275 -700h-160z" />
    <glyph glyph-name="afii10018" unicode="&#x411;" horiz-adv-x="680" 
d="M240 135h150q40 0 67.5 25.5t27.5 59.5t-27.5 59.5t-67.5 25.5h-150v-170zM395 0h-305v700h485v-135h-335v-125h155q103 0 171.5 -64.5t68.5 -155.5t-68.5 -155.5t-171.5 -64.5z" />
    <glyph glyph-name="afii10019" unicode="&#x412;" horiz-adv-x="695" 
d="M407 0h-317v700h300q95 0 157.5 -55.5t62.5 -129.5q0 -28 -8 -53t-20 -41.5t-24 -28.5t-20 -17l-8 -5q5 -2 12.5 -5.5t27.5 -18t35 -31.5t27.5 -46.5t12.5 -63.5q0 -84 -67 -144.5t-171 -60.5zM240 125h160q41 0 68 26t27 64t-27 64t-68 26h-160v-180zM380 575h-140v-150
h140q37 0 58.5 20.5t21.5 54.5t-21.5 54.5t-58.5 20.5z" />
    <glyph glyph-name="afii10020" unicode="&#x413;" horiz-adv-x="575" 
d="M90 0v700h475v-135h-325v-565h-150z" />
    <glyph glyph-name="afii10021" unicode="&#x414;" horiz-adv-x="745" 
d="M0 135h40q4 4 11.5 12.5t26.5 39t33.5 67t26.5 99t12 132.5v215h485v-565h85v-280h-150v145h-420v-145h-150v280zM300 485q0 -70 -11.5 -132t-27.5 -100t-32 -66t-27 -40l-12 -12h295v430h-185v-80z" />
    <glyph glyph-name="afii10022" unicode="&#x415;" horiz-adv-x="665" 
d="M240 135h375v-135h-525v700h515v-135h-365v-140h285v-135h-285v-155z" />
    <glyph glyph-name="afii10024" unicode="&#x416;" horiz-adv-x="1030" 
d="M440 235l-60 65l-205 -300h-175l280 410l-260 290h175l245 -270v270h150v-270l245 270h175l-260 -290l280 -410h-175l-205 300l-60 -65v-235h-150v235z" />
    <glyph glyph-name="afii10025" unicode="&#x417;" horiz-adv-x="630" 
d="M450 370l14 -5.5t31.5 -18t39.5 -32.5t31 -50t14 -69q0 -88 -75 -149t-205 -61q-50 0 -97 12.5t-78 30t-54.5 35t-34.5 29.5l-11 13l90 90l8 -8t22 -18t36 -23t48.5 -18t60.5 -8q62 0 96 26t34 64q0 39 -31.5 64.5t-93.5 25.5h-90v130h85q51 0 78 21t27 54
q0 32 -28.5 53.5t-81.5 21.5q-38 0 -74 -16t-53 -32l-18 -17l-90 95q3 4 10 11t30.5 25.5t50 32t70 25t89.5 11.5q115 0 185 -58t70 -137q0 -33 -11 -60.5t-26.5 -43t-30.5 -27t-26 -15.5z" />
    <glyph glyph-name="afii10026" unicode="&#x418;" horiz-adv-x="805" 
d="M715 0h-150v445l-345 -445h-130v700h150v-445l345 445h130v-700z" />
    <glyph glyph-name="afii10027" unicode="&#x419;" horiz-adv-x="805" 
d="M400 875q26 0 43 17t17 43h100q0 -68 -44.5 -111.5t-115.5 -43.5t-115.5 43.5t-44.5 111.5h100q0 -26 17 -43t43 -17zM715 0h-150v445l-345 -445h-130v700h150v-445l345 445h130v-700z" />
    <glyph glyph-name="afii10028" unicode="&#x41a;" horiz-adv-x="710" 
d="M240 700v-305l275 305h175l-260 -290l280 -410h-175l-205 300l-90 -100v-200h-150v700h150z" />
    <glyph glyph-name="afii10029" unicode="&#x41b;" horiz-adv-x="765" 
d="M675 700v-700h-150v565h-205v-80q0 -148 -16.5 -248.5t-48.5 -154t-71.5 -75.5t-93.5 -22q-22 0 -44.5 4.5t-33.5 8.5l-12 4v143q25 -10 50 -10q39 0 63 23.5t40.5 103t16.5 222.5v216h505z" />
    <glyph glyph-name="afii10030" unicode="&#x41c;" horiz-adv-x="930" 
d="M465 395l242 305h133v-700h-150v467l-225 -287l-225 285v-465h-150v700h135z" />
    <glyph glyph-name="afii10031" unicode="&#x41d;" horiz-adv-x="780" 
d="M690 700v-700h-150v285h-300v-285h-150v700h150v-280h300v280h150z" />
    <glyph glyph-name="afii10032" unicode="&#x41e;" horiz-adv-x="860" 
d="M205 350q0 -97 65.5 -163.5t159.5 -66.5t159.5 66.5t65.5 163.5t-65.5 163.5t-159.5 66.5t-159.5 -66.5t-65.5 -163.5zM50 350q0 151 110 258t270 107t270 -107t110 -258t-110 -258t-270 -107t-270 107t-110 258z" />
    <glyph glyph-name="afii10033" unicode="&#x41f;" horiz-adv-x="775" 
d="M685 700v-700h-150v565h-295v-565h-150v700h595z" />
    <glyph glyph-name="afii10034" unicode="&#x420;" horiz-adv-x="680" 
d="M90 700h295q108 0 179 -67.5t71 -167.5t-71 -167.5t-179 -67.5h-145v-230h-150v700zM380 565h-140v-200h140q45 0 75 29t30 71t-30 71t-75 29z" />
    <glyph glyph-name="afii10035" unicode="&#x421;" horiz-adv-x="755" 
d="M430 715q55 0 105 -14.5t82 -35t56.5 -41t35.5 -34.5l11 -15l-95 -95l-8 11t-23 24t-39 30t-55 24t-70 11q-98 0 -164 -66t-66 -164t66 -164t164 -66q38 0 73 10.5t58 25t40.5 29t25.5 25.5l8 10l90 -95q-4 -6 -12 -15.5t-35.5 -33.5t-59 -42.5t-82.5 -33.5t-106 -15
q-160 0 -270 107t-110 258t110 258t270 107z" />
    <glyph glyph-name="afii10036" unicode="&#x422;" horiz-adv-x="590" 
d="M20 700h550v-135h-200v-565h-150v565h-200v135z" />
    <glyph glyph-name="afii10037" unicode="&#x423;" horiz-adv-x="640" 
d="M175 700l165 -330l140 330h160l-245 -525q-43 -91 -101 -138t-144 -47q-20 0 -40 4t-30 8l-10 3v130q25 -10 60 -10q75 0 115 70l20 35l-250 470h160z" />
    <glyph glyph-name="afii10038" unicode="&#x424;" horiz-adv-x="870" 
d="M190 360q0 -68 46 -112t124 -48v320q-78 -4 -124 -48t-46 -112zM510 70v-90h-150v90q-140 4 -230 88t-90 202t90 202t230 88v75h150v-75q140 -4 230 -88t90 -202t-90 -202t-230 -88zM680 360q0 68 -46 112t-124 48v-320q78 4 124 48t46 112z" />
    <glyph glyph-name="afii10039" unicode="&#x425;" horiz-adv-x="700" 
d="M350 255l-170 -255h-170l245 365l-225 335h170l150 -225l150 225h170l-225 -335l245 -365h-170z" />
    <glyph glyph-name="afii10040" unicode="&#x426;" horiz-adv-x="785" 
d="M90 0v700h150v-565h285v565h150v-565h85v-280h-150v145h-520z" />
    <glyph glyph-name="afii10041" unicode="&#x427;" horiz-adv-x="735" 
d="M230 700v-215q0 -63 32.5 -96.5t92.5 -33.5q37 0 72 12.5t51 24.5l17 13v295h150v-700h-150v260q-65 -40 -165 -40q-117 0 -183.5 69.5t-66.5 195.5v215h150z" />
    <glyph glyph-name="afii10042" unicode="&#x428;" horiz-adv-x="1060" 
d="M970 700v-700h-880v700h150v-565h215v565h150v-565h215v565h150z" />
    <glyph glyph-name="afii10043" unicode="&#x429;" horiz-adv-x="1080" 
d="M970 700v-565h85v-280h-150v145h-815v700h150v-565h215v565h150v-565h215v565h150z" />
    <glyph glyph-name="afii10044" unicode="&#x42a;" horiz-adv-x="745" 
d="M450 0h-285v565h-165v135h315v-230h135q108 0 179 -67.5t71 -167.5t-71 -167.5t-179 -67.5zM315 135h130q45 0 75 29t30 71t-30 71t-75 29h-130v-200z" />
    <glyph glyph-name="afii10045" unicode="&#x42b;" horiz-adv-x="945" 
d="M855 700v-700h-150v700h150zM375 0h-285v700h150v-230h135q108 0 179 -67.5t71 -167.5t-71 -167.5t-179 -67.5zM240 135h130q45 0 75 29t30 71t-30 71t-75 29h-130v-200z" />
    <glyph glyph-name="afii10046" unicode="&#x42c;" horiz-adv-x="680" 
d="M385 0h-295v700h150v-230h145q108 0 179 -67.5t71 -167.5t-71 -167.5t-179 -67.5zM240 135h140q45 0 75 29t30 71t-30 71t-75 29h-140v-200z" />
    <glyph glyph-name="afii10047" unicode="&#x42d;" horiz-adv-x="755" 
d="M325 715q161 0 270.5 -107t109.5 -258t-110 -258t-270 -107q-55 0 -105.5 14.5t-83.5 35t-58 41t-36 34.5l-12 15l90 95l8.5 -11t25 -24t41 -30t57 -24t73.5 -11q86 0 143 46.5t77 118.5h-310v135h310q-20 68 -79 114t-141 46q-36 0 -69.5 -10.5t-55.5 -25t-38.5 -29
t-23.5 -25.5l-8 -10l-95 95q4 6 11.5 15.5t34.5 33.5t58 42.5t81 33.5t105 15z" />
    <glyph glyph-name="afii10048" unicode="&#x42e;" horiz-adv-x="1090" 
d="M1040 350q0 -153 -104 -259t-251 -106q-135 0 -231 86t-119 214h-95v-285h-150v700h150v-275h95q23 121 119.5 205.5t230.5 84.5q147 0 251 -106t104 -259zM890 350q0 99 -60.5 164.5t-144.5 65.5t-144.5 -65.5t-60.5 -164.5t60.5 -164.5t144.5 -65.5t144.5 65.5
t60.5 164.5z" />
    <glyph glyph-name="afii10049" unicode="&#x42f;" horiz-adv-x="700" 
d="M610 700v-700h-150v245h-130l-135 -245h-160l150 265q-5 2 -13.5 6.5t-30 22.5t-38 39t-30 58t-13.5 79q0 97 68 163.5t172 66.5h310zM210 470q0 -38 27 -64t68 -26h155v185h-155q-41 0 -68 -27t-27 -68z" />
    <glyph glyph-name="afii10065" unicode="&#x430;" horiz-adv-x="535" 
d="M330 0v50q-6 -7 -16.5 -17t-45.5 -26.5t-73 -16.5q-73 0 -119 41t-46 99q0 60 38.5 100t106.5 52l155 28q0 31 -22.5 50.5t-62.5 19.5q-33 0 -60.5 -12.5t-38.5 -25.5l-11 -12l-75 75l8 10.5t23 22.5t39 28.5t55 23t70 10.5q93 0 151.5 -55.5t58.5 -139.5v-305h-135z
M230 100q46 0 73 29t27 81v15l-110 -20q-55 -9 -55 -55q0 -50 65 -50z" />
    <glyph glyph-name="afii10066" unicode="&#x431;" horiz-adv-x="605" 
d="M555 235q0 -103 -69 -174t-176 -71q-120 0 -192.5 83.5t-72.5 236.5q0 171 65 258.5t185 111.5q53 11 97 24.5t61 21.5l17 9l60 -100q-4 -4 -14 -10.5t-60 -25t-121 -34.5q-64 -14 -104 -54.5t-51 -100.5q2 3 6.5 7.5t18.5 16.5t30 21.5t40.5 17t49.5 7.5
q91 0 160.5 -72.5t69.5 -172.5zM195 235q0 -55 33 -90t82 -35q46 0 78 35t32 90t-32 90t-78 35q-49 0 -82 -35t-33 -90z" />
    <glyph glyph-name="afii10067" unicode="&#x432;" horiz-adv-x="530" 
d="M60 490h245q73 0 119 -40t46 -95q0 -33 -15 -58t-30 -33l-15 -9q3 -1 8.5 -3t19.5 -11t24.5 -20.5t19 -31.5t8.5 -44q0 -62 -47.5 -103.5t-127.5 -41.5h-255v490zM305 210h-110v-100h110q23 0 36.5 14t13.5 36t-13.5 36t-36.5 14zM335 340q0 40 -40 40h-100v-80h100
q40 0 40 40z" />
    <glyph glyph-name="afii10068" unicode="&#x433;" horiz-adv-x="430" 
d="M415 490v-125h-220v-365h-135v490h355z" />
    <glyph glyph-name="afii10069" unicode="&#x434;" horiz-adv-x="575" 
d="M-5 120h30l8.5 8.5t19.5 26.5t24.5 46t19 66.5t8.5 87.5v135h375v-370h65v-235h-135v115h-280v-115h-135v235zM230 370v-30q0 -58 -16 -113t-32 -81l-17 -26h180v250h-115z" />
    <glyph glyph-name="afii10070" unicode="&#x435;" horiz-adv-x="570" 
d="M525 200h-355q8 -40 42.5 -67.5t87.5 -27.5q38 0 70.5 15t45.5 30l14 15l70 -90l-9 -9t-26 -20.5t-42.5 -26t-58.5 -20.5t-74 -9q-108 0 -184 75t-76 180t75 180t180 75t175 -70t70 -175zM285 385q-43 0 -73 -25t-42 -65h225q-8 39 -37.5 64.5t-72.5 25.5z" />
    <glyph glyph-name="afii10072" unicode="&#x436;" horiz-adv-x="785" 
d="M320 0v140l-45 50l-130 -190h-150l195 280l-185 210h155l160 -185v185h135v-185l160 185h155l-185 -210l195 -280h-150l-130 190l-45 -50v-140h-135z" />
    <glyph glyph-name="afii10073" unicode="&#x437;" horiz-adv-x="465" 
d="M405 355q0 -22 -8 -40.5t-20 -29t-24 -18t-20 -9.5l-8 -3q4 -1 11 -3.5t24 -11.5t30 -21.5t24 -34.5t11 -49q0 -60 -55 -102.5t-155 -42.5q-39 0 -74.5 9.5t-58.5 22.5t-40 26t-24 22l-8 10l75 75q4 -6 13 -15t39 -24.5t63 -15.5q39 0 59.5 15.5t20.5 39.5q0 50 -80 50
h-50v90h50q32 0 48.5 12.5t16.5 32.5q0 50 -65 50q-24 0 -49 -11t-38 -23l-13 -11l-75 75q2 3 7 8.5t22.5 19.5t37.5 24.5t53.5 19t69.5 8.5q86 0 138 -43t52 -102z" />
    <glyph glyph-name="afii10074" unicode="&#x438;" horiz-adv-x="595" 
d="M407 490h118v-490h-135v275l-213 -275h-117v490h135v-275z" />
    <glyph glyph-name="afii10075" unicode="&#x439;" horiz-adv-x="595" 
d="M290 645q26 0 43 17t17 43h100q0 -64 -45 -107t-115 -43t-115 43t-45 107h100q0 -26 17 -43t43 -17zM407 490h118v-490h-135v275l-213 -275h-117v490h135v-275z" />
    <glyph glyph-name="afii10076" unicode="&#x43a;" horiz-adv-x="540" 
d="M525 490l-185 -210l195 -280h-150l-130 190l-60 -70v-120h-135v490h135v-200l175 200h155z" />
    <glyph glyph-name="afii10077" unicode="&#x43b;" horiz-adv-x="575" 
d="M110 490h395v-490h-135v370h-130v-30q0 -137 -23 -218t-59.5 -109t-92.5 -28q-18 0 -35.5 4t-25.5 7l-9 4v120q15 -5 30 -5q30 0 47 15.5t27.5 69t10.5 155.5v135z" />
    <glyph glyph-name="afii10078" unicode="&#x43c;" horiz-adv-x="660" 
d="M325 120l-130 170v-290h-135v490h115l150 -195l150 195h115v-490h-135v290z" />
    <glyph glyph-name="afii10079" unicode="&#x43d;" horiz-adv-x="590" 
d="M195 185v-185h-135v490h135v-185h190v185h135v-490h-135v185h-190z" />
    <glyph glyph-name="afii10080" unicode="&#x43e;" horiz-adv-x="590" 
d="M170 245q0 -55 35.5 -92.5t84.5 -37.5t84.5 37.5t35.5 92.5t-35.5 92.5t-84.5 37.5t-84.5 -37.5t-35.5 -92.5zM550 245q0 -102 -77.5 -178.5t-182.5 -76.5t-182.5 76.5t-77.5 178.5t77.5 178.5t182.5 76.5t182.5 -76.5t77.5 -178.5z" />
    <glyph glyph-name="afii10081" unicode="&#x43f;" horiz-adv-x="590" 
d="M195 370v-370h-135v490h460v-490h-135v370h-190z" />
    <glyph glyph-name="afii10082" unicode="&#x440;" horiz-adv-x="615" 
d="M340 -10q-42 0 -78.5 17.5t-51.5 34.5l-15 18v-270h-135v700h135v-60q2 3 6 7.5t17.5 16.5t29 21.5t40.5 17t52 7.5q95 0 165 -74t70 -181t-70 -181t-165 -74zM315 380q-50 0 -85 -38t-35 -97t35 -97t85 -38t85 38t35 97t-35 97t-85 38z" />
    <glyph glyph-name="afii10083" unicode="&#x441;" horiz-adv-x="525" 
d="M30 245q0 102 78.5 178.5t186.5 76.5q38 0 72.5 -10.5t56.5 -25t39 -29t25 -25.5l7 -10l-85 -85q-4 7 -13 18t-39 29t-63 18q-53 0 -91.5 -39.5t-38.5 -95.5t38.5 -95.5t91.5 -39.5q33 0 63 16t44 32l13 17l80 -85l-8 -11t-23.5 -24t-40 -30t-56 -24t-72.5 -11
q-108 0 -186.5 76.5t-78.5 178.5z" />
    <glyph glyph-name="afii10084" unicode="&#x442;" horiz-adv-x="475" 
d="M10 360v130h445v-130h-155v-360h-135v360h-155z" />
    <glyph glyph-name="afii10085" unicode="&#x443;" horiz-adv-x="520" 
d="M175 -30l15 35l-190 485h140l115 -325l115 325h140l-195 -520q-67 -180 -190 -180q-22 0 -43.5 4t-31.5 8l-10 3v120q20 -10 50 -10q61 0 85 55z" />
    <glyph glyph-name="afii10086" unicode="&#x444;" horiz-adv-x="755" 
d="M305 105v270q-67 -4 -103.5 -39.5t-36.5 -95.5t36.5 -95.5t103.5 -39.5zM440 -15v-195h-135v195q-118 4 -196.5 78t-78.5 177t78.5 177t196.5 78v205h135v-205q118 -4 196.5 -78t78.5 -177t-78.5 -177t-196.5 -78zM440 375v-270q67 4 103.5 39.5t36.5 95.5t-36.5 95.5
t-103.5 39.5z" />
    <glyph glyph-name="afii10087" unicode="&#x445;" horiz-adv-x="510" 
d="M250 155l-105 -155h-145l165 250l-155 240h150l90 -145l90 145h150l-155 -240l165 -250h-145z" />
    <glyph glyph-name="afii10088" unicode="&#x446;" 
d="M60 0v490h135v-370h175v370h135v-370h65v-235h-135v115h-375z" />
    <glyph glyph-name="afii10089" unicode="&#x447;" horiz-adv-x="555" 
d="M350 0v165q-50 -35 -115 -35q-84 0 -134.5 53.5t-50.5 146.5v160h135v-150q0 -37 23 -61t57 -24q24 0 45.5 7.5t30.5 15.5l9 7v205h135v-490h-135z" />
    <glyph glyph-name="afii10090" unicode="&#x448;" horiz-adv-x="800" 
d="M60 0v490h135v-370h135v370h135v-370h135v370h135v-490h-675z" />
    <glyph glyph-name="afii10091" unicode="&#x449;" horiz-adv-x="830" 
d="M60 0v490h135v-370h135v370h135v-370h135v370h135v-370h65v-235h-135v115h-605z" />
    <glyph glyph-name="afii10092" unicode="&#x44a;" horiz-adv-x="555" 
d="M520 170q0 -76 -50.5 -123t-139.5 -47h-220v360h-115v130h250v-150h85q89 0 139.5 -47t50.5 -123zM245 110h80q26 0 43 17t17 43t-17 43t-43 17h-80v-120z" />
    <glyph glyph-name="afii10093" unicode="&#x44b;" horiz-adv-x="735" 
d="M665 490v-490h-135v490h135zM195 110h80q26 0 43 17t17 43t-17 43t-43 17h-80v-120zM470 170q0 -76 -50.5 -123t-139.5 -47h-220v490h135v-150h85q89 0 139.5 -47t50.5 -123z" />
    <glyph glyph-name="afii10094" unicode="&#x44c;" horiz-adv-x="510" 
d="M195 110h85q26 0 43 17t17 43t-17 43t-43 17h-85v-120zM475 170q0 -76 -50.5 -123t-139.5 -47h-225v490h135v-150h90q89 0 139.5 -47t50.5 -123z" />
    <glyph glyph-name="afii10095" unicode="&#x44d;" horiz-adv-x="520" 
d="M480 245q0 -102 -78.5 -178.5t-186.5 -76.5q-36 0 -70 10.5t-56.5 25t-40 29t-25.5 25.5l-8 10l70 75q2 -3 5.5 -7t16 -15.5t26.5 -20t36.5 -15.5t45.5 -7q44 0 75.5 24t40.5 48l9 23h-200v100h200q-1 4 -3.5 10.5t-12 22.5t-22 28.5t-36 23t-51.5 10.5q-38 0 -69 -16
t-44 -32l-12 -17l-75 75l8 11t24 24t40 30t56 24t72 11q108 0 186.5 -76.5t78.5 -178.5z" />
    <glyph glyph-name="afii10096" unicode="&#x44e;" horiz-adv-x="820" 
d="M775 245q0 -105 -75 -180t-180 -75q-93 0 -163.5 59.5t-86.5 135.5h-75v-185h-135v490h135v-185h75q16 76 86.5 135.5t163.5 59.5q105 0 180 -75t75 -180zM640 245q0 59 -35 97t-85 38t-85 -38t-35 -97t35 -97t85 -38t85 38t35 97z" />
    <glyph glyph-name="afii10097" unicode="&#x44f;" horiz-adv-x="535" 
d="M230 490h235v-490h-135v145h-70l-90 -145h-145l105 165l-10 5t-21.5 16t-27.5 28.5t-21.5 42.5t-9.5 58q0 72 54.5 123.5t135.5 51.5zM330 375h-90q-30 0 -47.5 -16.5t-17.5 -43.5t17.5 -43.5t47.5 -16.5h90v120z" />
    <glyph glyph-name="afii10071" unicode="&#x451;" horiz-adv-x="570" 
d="M525 200h-355q8 -40 42.5 -67.5t87.5 -27.5q38 0 70.5 15t45.5 30l14 15l70 -90l-9 -9t-26 -20.5t-42.5 -26t-58.5 -20.5t-74 -9q-108 0 -184 75t-76 180t75 180t180 75t175 -70t70 -175zM285 385q-43 0 -73 -25t-42 -65h225q-8 39 -37.5 64.5t-72.5 25.5zM101 635
q0 30 22.5 52.5t52.5 22.5t52.5 -22.5t22.5 -52.5t-22.5 -52.5t-52.5 -22.5t-52.5 22.5t-22.5 52.5zM321 635q0 30 22.5 52.5t52.5 22.5t52.5 -22.5t22.5 -52.5t-22.5 -52.5t-52.5 -22.5t-52.5 22.5t-22.5 52.5z" />
    <glyph glyph-name="afii10099" unicode="&#x452;" horiz-adv-x="595" 
d="M210 700v-70h115v-120h-115v-120q6 8 16.5 19.5t47 31t76.5 19.5q85 0 140 -62t55 -168q0 -116 -64.5 -180.5t-180.5 -64.5v125q49 0 79.5 32t30.5 88q0 45 -27.5 72.5t-72.5 27.5q-46 0 -73 -30t-27 -85v-215h-135v510h-80v120h80v70h135z" />
    <glyph glyph-name="afii10100" unicode="&#x453;" horiz-adv-x="430" 
d="M175 555l80 150h140l-110 -150h-110zM415 490v-125h-220v-365h-135v490h355z" />
    <glyph glyph-name="afii10101" unicode="&#x454;" horiz-adv-x="525" 
d="M30 245q0 102 78.5 178.5t186.5 76.5q37 0 71.5 -10.5t57 -25t39.5 -29t25 -25.5l7 -10l-75 -75q-2 3 -5 7t-14.5 15.5t-25 20t-35 15.5t-45.5 7q-44 0 -75.5 -24t-40.5 -48l-9 -23h200v-100h-200q1 -4 3.5 -10.5t12 -22.5t22 -28.5t36 -23t51.5 -10.5q23 0 45 6.5t37 16
t26 19.5t17 16l5 7l70 -75l-8.5 -11t-24.5 -24t-40.5 -30t-56 -24t-70.5 -11q-108 0 -186.5 76.5t-78.5 178.5z" />
    <glyph glyph-name="afii10102" unicode="&#x455;" horiz-adv-x="455" 
d="M400 425l-70 -80q-3 4 -9.5 11t-27.5 18t-43 11q-28 0 -44 -12t-16 -28q0 -19 23 -31.5t56 -22.5t66.5 -24t56.5 -45t23 -77q0 -66 -52 -110.5t-143 -44.5q-39 0 -74 9.5t-57 22.5t-38.5 26t-23.5 22l-7 10l75 75q4 -6 12.5 -15t36 -24.5t56.5 -15.5q32 0 48.5 12.5
t16.5 32.5t-23 33.5t-56.5 23.5t-66.5 24t-56 44t-23 75q0 59 55 107t135 48q51 0 93.5 -19t59.5 -37z" />
    <glyph glyph-name="afii10103" unicode="&#x456;" horiz-adv-x="275" 
d="M200 490v-490h-135v490h135zM210 630q0 -34 -21.5 -54.5t-58.5 -20.5q-34 0 -54.5 20.5t-20.5 54.5t20.5 54.5t54.5 20.5q37 0 58.5 -20.5t21.5 -54.5z" />
    <glyph glyph-name="afii10104" unicode="&#x457;" horiz-adv-x="275" 
d="M-50 635q0 30 22.5 52.5t52.5 22.5t52.5 -22.5t22.5 -52.5t-22.5 -52.5t-52.5 -22.5t-52.5 22.5t-22.5 52.5zM170 635q0 30 22.5 52.5t52.5 22.5t52.5 -22.5t22.5 -52.5t-22.5 -52.5t-52.5 -22.5t-52.5 22.5t-22.5 52.5zM200 490v-490h-135v490h135z" />
    <glyph glyph-name="afii10105" unicode="&#x458;" horiz-adv-x="275" 
d="M65 -30v520h135v-530q0 -82 -42 -126t-118 -44q-22 0 -43.5 4t-31.5 8l-10 3v120q25 -10 50 -10q26 0 43 16t17 39zM210 630q0 -34 -21.5 -54.5t-58.5 -20.5q-34 0 -54.5 20.5t-20.5 54.5t20.5 54.5t54.5 20.5q37 0 58.5 -20.5t21.5 -54.5z" />
    <glyph glyph-name="afii10106" unicode="&#x459;" horiz-adv-x="810" 
d="M110 490h385v-160h90q88 0 139 -46t51 -119t-51 -119t-139 -46h-225v370h-120v-30q0 -137 -23 -218t-59.5 -109t-92.5 -28q-18 0 -35.5 4t-25.5 7l-9 4v120q15 -5 30 -5q30 0 47 15.5t27.5 69t10.5 155.5v135zM640 165q0 55 -60 55h-85v-110h85q60 0 60 55z" />
    <glyph glyph-name="afii10107" unicode="&#x45a;" horiz-adv-x="820" 
d="M195 210v-210h-135v490h135v-160h175v160h135v-160h90q88 0 139 -46t51 -119t-51 -119t-139 -46h-225v210h-175zM650 165q0 55 -60 55h-85v-110h85q60 0 60 55z" />
    <glyph glyph-name="afii10108" unicode="&#x45b;" horiz-adv-x="605" 
d="M210 700v-70h115v-120h-115v-120q6 8 16.5 19.5t47 31t76.5 19.5q84 0 137 -58t53 -157v-245h-135v230q0 45 -26.5 72.5t-68.5 27.5q-46 0 -73 -30t-27 -85v-215h-135v510h-80v120h80v70h135z" />
    <glyph glyph-name="afii10109" unicode="&#x45c;" horiz-adv-x="540" 
d="M225 555l80 150h140l-110 -150h-110zM525 490l-185 -210l195 -280h-150l-130 190l-60 -70v-120h-135v490h135v-200l175 200h155z" />
    <glyph glyph-name="afii10110" unicode="&#x45e;" horiz-adv-x="520" 
d="M175 -30l15 35l-190 485h140l115 -325l115 325h140l-195 -520q-67 -180 -190 -180q-22 0 -43.5 4t-31.5 8l-10 3v120q20 -10 50 -10q61 0 85 55zM260 645q26 0 43 17t17 43h100q0 -64 -45 -107t-115 -43t-115 43t-45 107h100q0 -26 17 -43t43 -17z" />
    <glyph glyph-name="afii10193" unicode="&#x45f;" horiz-adv-x="585" 
d="M60 0v490h135v-370h185v370h135v-490h-160v-115h-135v115h-160z" />
    <glyph glyph-name="afii10050" unicode="&#x490;" horiz-adv-x="575" 
d="M425 700v135h140v-270h-325v-565h-150v700h335z" />
    <glyph glyph-name="afii10098" unicode="&#x491;" horiz-adv-x="430" 
d="M60 0v490h230v105h125v-230h-220v-365h-135z" />
    <glyph glyph-name="uni1E9E" unicode="&#x1e9e;" horiz-adv-x="675" 
d="M465 410q7 -1 17.5 -4t38 -17t48.5 -33.5t38.5 -57t17.5 -83.5q0 -88 -69.5 -151.5t-175.5 -63.5h-60v120h50q45 0 72.5 26.5t27.5 68.5t-27.5 68.5t-72.5 26.5h-50v110l110 150h-100q-45 0 -72.5 -27.5t-27.5 -72.5v-470h-150v470q0 99 68.5 164.5t176.5 65.5h260v-125z
" />
    <glyph glyph-name="endash" unicode="&#x2013;" horiz-adv-x="495" 
d="M460 352v-117h-425v117h425z" />
    <glyph glyph-name="emdash" unicode="&#x2014;" horiz-adv-x="735" 
d="M700 352v-117h-665v117h665z" />
    <glyph glyph-name="quoteleft" unicode="&#x2018;" horiz-adv-x="260" 
d="M135 440l-115 65l135 215l85 -50z" />
    <glyph glyph-name="quoteright" unicode="&#x2019;" horiz-adv-x="260" 
d="M125 720l115 -65l-135 -215l-85 50z" />
    <glyph glyph-name="quotesinglbase" unicode="&#x201a;" horiz-adv-x="260" 
d="M105 145l110 -65l-130 -210l-90 45z" />
    <glyph glyph-name="quotedblleft" unicode="&#x201c;" horiz-adv-x="455" 
d="M130 445l-110 60l135 215l80 -45zM330 445l-110 60l135 215l80 -45z" />
    <glyph glyph-name="quotedblright" unicode="&#x201d;" horiz-adv-x="455" 
d="M325 720l110 -60l-135 -215l-80 45zM125 720l110 -60l-135 -215l-80 45z" />
    <glyph glyph-name="quotedblbase" unicode="&#x201e;" horiz-adv-x="450" 
d="M100 145l110 -65l-135 -210l-80 45zM300 145l110 -65l-135 -210l-80 45z" />
    <glyph glyph-name="dagger" unicode="&#x2020;" horiz-adv-x="455" 
d="M170 575v125h115v-125h115v-105h-115v-300h-115v300h-115v105h115z" />
    <glyph glyph-name="daggerdbl" unicode="&#x2021;" horiz-adv-x="455" 
d="M170 585v115h115v-115h115v-105h-115v-90h115v-105h-115v-115h-115v115h-115v105h115v90h-115v105h115z" />
    <glyph glyph-name="bullet" unicode="&#x2022;" horiz-adv-x="430" 
d="M90 240q0 52 36 88.5t89 36.5t89 -36.5t36 -88.5t-36 -88.5t-89 -36.5t-89 36.5t-36 88.5z" />
    <glyph glyph-name="ellipsis" unicode="&#x2026;" horiz-adv-x="790" 
d="M45 65q0 30 23.5 52.5t56.5 22.5t56.5 -22.5t23.5 -52.5t-23.5 -52.5t-56.5 -22.5t-56.5 22.5t-23.5 52.5zM315 65q0 30 23.5 52.5t56.5 22.5t56.5 -22.5t23.5 -52.5t-23.5 -52.5t-56.5 -22.5t-56.5 22.5t-23.5 52.5zM585 65q0 30 23.5 52.5t56.5 22.5t56.5 -22.5
t23.5 -52.5t-23.5 -52.5t-56.5 -22.5t-56.5 22.5t-23.5 52.5z" />
    <glyph glyph-name="perthousand" unicode="&#x2030;" horiz-adv-x="1190" 
d="M130 550q0 -30 20 -50t50 -20t50 20t20 50t-20 50t-50 20t-50 -20t-20 -50zM125 0l440 700h125l-440 -700h-125zM370 550q0 -65 -50 -115t-120 -50t-120 50t-50 115t50 115t120 50t120 -50t50 -115zM685 150q0 30 -20 50t-50 20t-50 -20t-20 -50t20 -50t50 -20t50 20
t20 50zM445 150q0 65 50 115t120 50t120 -50t50 -115t-50 -115t-120 -50t-120 50t-50 115zM1060 150q0 30 -20 50t-50 20t-50 -20t-20 -50t20 -50t50 -20t50 20t20 50zM820 150q0 65 50 115t120 50t120 -50t50 -115t-50 -115t-120 -50t-120 50t-50 115z" />
    <glyph glyph-name="guilsinglleft" unicode="&#x2039;" horiz-adv-x="340" 
d="M300 415l-125 -175l125 -175h-135l-125 175l125 175h135z" />
    <glyph glyph-name="guilsinglright" unicode="&#x203a;" horiz-adv-x="340" 
d="M165 240l-125 175h135l125 -175l-125 -175h-135z" />
    <glyph glyph-name="fraction" unicode="&#x2044;" horiz-adv-x="210" 
d="M-175 0l435 700h125l-435 -700h-125z" />
    <glyph glyph-name="zerosuperior" unicode="&#x2070;" horiz-adv-x="370" 
d="M120 620q0 -46 18.5 -70.5t46.5 -24.5t46.5 24.5t18.5 70.5q0 50 -18.5 75t-46.5 25t-46.5 -25t-18.5 -75zM345 620q0 -81 -45.5 -130.5t-114.5 -49.5t-114.5 49.5t-45.5 130.5q0 84 45.5 134.5t114.5 50.5t114.5 -50.5t45.5 -134.5z" />
    <glyph glyph-name="foursuperior" unicode="&#x2074;" horiz-adv-x="330" 
d="M270 800v-205h35v-85h-35v-65h-95v65h-160v85l155 205h100zM110 595h65v85z" />
    <glyph glyph-name="fivesuperior" unicode="&#x2075;" horiz-adv-x="310" 
d="M180 675q48 0 81.5 -33.5t33.5 -81.5q0 -54 -37 -87t-103 -33q-47 0 -83 12.5t-49 25.5l-13 12l50 60q30 -30 80 -30q25 0 40 13t15 32t-14 32t-36 13q-13 0 -24.5 -4t-16.5 -8l-4 -3h-65l20 205h215v-80h-135l-5 -55q20 10 50 10z" />
    <glyph glyph-name="sixsuperior" unicode="&#x2076;" horiz-adv-x="315" 
d="M250 800l-70 -100q57 -11 88.5 -44.5t31.5 -85.5q0 -57 -39.5 -93.5t-105.5 -36.5q-63 0 -101.5 36.5t-38.5 93.5q0 22 6.5 42t12.5 29l6 9l110 150h100zM210 570q0 23 -14.5 36.5t-40.5 13.5q-23 0 -36.5 -14t-13.5 -36t13.5 -36t36.5 -14q26 0 40.5 13.5t14.5 36.5z
" />
    <glyph glyph-name="sevensuperior" unicode="&#x2077;" horiz-adv-x="290" 
d="M15 800h260v-90l-125 -265h-95l125 265h-165v90z" />
    <glyph glyph-name="eightsuperior" unicode="&#x2078;" horiz-adv-x="320" 
d="M160 520q50 0 50 35t-50 35t-50 -35t50 -35zM160 665q18 0 29 9t11 21t-11 21t-29 9t-29 -9t-11 -21t11 -21t29 -9zM160 440q-68 0 -106.5 30.5t-38.5 74.5q0 31 17.5 52.5t35.5 26.5l17 6q-2 1 -6 2.5t-13.5 8t-16.5 14.5t-13 21.5t-6 28.5q0 43 34.5 71.5t95.5 28.5
t95.5 -28.5t34.5 -71.5q0 -24 -14 -43t-28 -26l-13 -6q3 -1 7.5 -2t16.5 -7.5t21.5 -15t17 -24.5t7.5 -36q0 -44 -38.5 -74.5t-106.5 -30.5z" />
    <glyph glyph-name="ninesuperior" unicode="&#x2079;" horiz-adv-x="315" 
d="M65 445l70 100q-57 11 -88.5 44.5t-31.5 85.5q0 57 39.5 93.5t105.5 36.5q63 0 101.5 -36.5t38.5 -93.5q0 -22 -6 -42t-12 -29l-7 -9l-110 -150h-100zM105 675q0 -23 14.5 -36.5t40.5 -13.5q22 0 36 13.5t14 36.5t-14 36.5t-36 13.5q-26 0 -40.5 -13.5t-14.5 -36.5z" />
    <glyph glyph-name="zeroinferior" unicode="&#x2080;" horiz-adv-x="370" 
d="M120 75q0 -46 18.5 -70.5t46.5 -24.5t46.5 24.5t18.5 70.5q0 50 -18.5 75t-46.5 25t-46.5 -25t-18.5 -75zM345 75q0 -81 -45.5 -130.5t-114.5 -49.5t-114.5 49.5t-45.5 130.5q0 84 45.5 134.5t114.5 50.5t114.5 -50.5t45.5 -134.5z" />
    <glyph glyph-name="oneinferior" unicode="&#x2081;" horiz-adv-x="230" 
d="M100 255h80v-355h-95v235h-60v75q31 3 50.5 17t24.5 28z" />
    <glyph glyph-name="twoinferior" unicode="&#x2082;" horiz-adv-x="330" 
d="M295 145q0 -31 -17 -56t-37.5 -38.5l-47 -30.5t-38.5 -30h135v-90h-255q0 46 16.5 81t40 55t47 36t40 32.5t16.5 35.5q0 15 -11 25t-29 10q-13 0 -25.5 -10t-18.5 -20l-6 -10l-75 26q1 4 3.5 10.5t12.5 24t23.5 30.5t39 23.5t56.5 10.5q59 0 94.5 -32.5t35.5 -82.5z" />
    <glyph glyph-name="threeinferior" unicode="&#x2083;" horiz-adv-x="335" 
d="M245 90q2 -1 6 -2.5t13.5 -8.5t16.5 -16t13 -24.5t6 -33.5q0 -47 -36.5 -78.5t-98.5 -31.5q-47 0 -82 16.5t-47 32.5l-11 16l55 55l8.5 -11t25.5 -18t43 -11q48 0 48 35q0 40 -55 40h-35v75h35q40 0 40 25q0 30 -40 30q-16 0 -32 -9t-24 -17l-9 -9l-50 55q2 2 5 6.5
t14.5 14.5t25 18t35.5 14.5t46 6.5q57 0 93 -30t36 -70q0 -22 -11 -39.5t-23 -24.5z" />
    <glyph glyph-name="fourinferior" unicode="&#x2084;" horiz-adv-x="330" 
d="M270 255v-205h35v-85h-35v-65h-95v65h-160v85l155 205h100zM110 50h65v85z" />
    <glyph glyph-name="fiveinferior" unicode="&#x2085;" horiz-adv-x="310" 
d="M180 130q48 0 81.5 -33.5t33.5 -81.5q0 -54 -37 -87t-103 -33q-47 0 -83 12.5t-49 24.5l-13 13l50 60q30 -30 80 -30q25 0 40 13t15 32t-14 32t-36 13q-13 0 -24.5 -3.5t-16.5 -7.5l-4 -4h-65l20 205h215v-80h-135l-5 -55q20 10 50 10z" />
    <glyph glyph-name="sixinferior" unicode="&#x2086;" horiz-adv-x="315" 
d="M250 255l-70 -100q57 -11 88.5 -44.5t31.5 -85.5q0 -57 -39.5 -93.5t-105.5 -36.5q-63 0 -101.5 36.5t-38.5 93.5q0 22 6.5 42t12.5 29l6 9l110 150h100zM210 25q0 23 -14.5 36.5t-40.5 13.5q-23 0 -36.5 -13.5t-13.5 -36.5t13.5 -36.5t36.5 -13.5q26 0 40.5 13.5
t14.5 36.5z" />
    <glyph glyph-name="seveninferior" unicode="&#x2087;" horiz-adv-x="290" 
d="M15 255h260v-90l-125 -265h-95l125 265h-165v90z" />
    <glyph glyph-name="eightinferior" unicode="&#x2088;" horiz-adv-x="320" 
d="M160 -25q50 0 50 35t-50 35t-50 -35t50 -35zM160 120q18 0 29 9t11 21t-11 21t-29 9t-29 -9t-11 -21t11 -21t29 -9zM160 -105q-68 0 -106.5 30.5t-38.5 74.5q0 31 17.5 52.5t35.5 27.5l17 5q-2 1 -6 2.5t-13.5 8t-16.5 14.5t-13 21.5t-6 28.5q0 43 34.5 71.5t95.5 28.5
t95.5 -28.5t34.5 -71.5q0 -24 -14 -43t-28 -25l-13 -7q3 -1 7.5 -2t16.5 -7.5t21.5 -15t17 -24.5t7.5 -36q0 -44 -38.5 -74.5t-106.5 -30.5z" />
    <glyph glyph-name="nineinferior" unicode="&#x2089;" horiz-adv-x="315" 
d="M65 -100l70 100q-57 11 -88.5 44.5t-31.5 85.5q0 57 39.5 93.5t105.5 36.5q63 0 101.5 -36.5t38.5 -93.5q0 -22 -6 -42t-12 -29l-7 -9l-110 -150h-100zM105 130q0 -23 14.5 -36.5t40.5 -13.5q22 0 36 14t14 36t-14 36t-36 14q-26 0 -40.5 -13.5t-14.5 -36.5z" />
    <glyph glyph-name="Euro" unicode="&#x20ac;" horiz-adv-x="750" 
d="M265 385v-70h210v-90h-180l5.5 -11.5t18.5 -26.5t33 -33.5t50 -26.5t68 -12q44 0 84 18.5t58 37.5l18 19l85 -90q-3 -5 -9 -12.5t-28 -27.5t-48 -35t-69 -27.5t-91 -12.5q-51 0 -97.5 13t-79.5 34.5t-61.5 47t-46.5 51t-31 47t-18 34.5l-6 13h-95v90h80v70h-80v90h95
q4 10 11.5 26t36.5 57.5t64.5 73t96.5 57.5t131 26q48 0 90.5 -11.5t69.5 -27.5t47.5 -32t28.5 -28l9 -11l-90 -90q-2 3 -6.5 7.5t-19.5 16.5t-31.5 21.5t-43 17t-54.5 7.5q-36 0 -67.5 -11.5t-50.5 -27.5t-32.5 -32t-19.5 -28l-5 -11h180v-90h-210z" />
    <glyph glyph-name="uni20B4" unicode="&#x20b4;" horiz-adv-x="650" 
d="M50 480h335q10 10 10 30q0 31 -26 53t-69 22q-36 0 -68.5 -15t-47.5 -30l-14 -15l-90 95q3 4 9 10.5t27.5 22.5t46 28.5t64.5 23t83 10.5q109 0 177 -60t68 -145q0 -6 -0.5 -11t-1.5 -8t-1.5 -5.5t-1.5 -3.5v-2h50v-95h-550v95zM600 220h-335q-10 -10 -10 -30
q0 -31 26 -53t69 -22q36 0 68.5 15t47.5 30l14 15l90 -95q-3 -4 -9 -10.5t-27.5 -22.5t-46 -28.5t-64.5 -23t-83 -10.5q-109 0 -177 60t-68 145q0 6 0.5 11t1.5 8t1.5 5.5t1.5 3.5v2h-50v95h550v-95z" />
    <glyph glyph-name="uni20BD" unicode="&#x20bd;" horiz-adv-x="695" 
d="M270 385h140q41 0 68 26t27 64q0 41 -27 68t-68 27h-140v-185zM410 265h-140v-55h210v-120h-210v-90h-150v90h-75v120h75v55h-75v120h75v315h292q105 0 174 -64t69 -156t-67.5 -153.5t-177.5 -61.5z" />
    <glyph glyph-name="afii61352" unicode="&#x2116;" horiz-adv-x="1170" 
d="M1130 120v-120h-330v120h330zM565 700h150v-700h-130l-345 445v-445h-150v700h130l345 -445v445zM1035 360q0 30 -20 50t-50 20t-50 -20t-20 -50t20 -50t50 -20t50 20t20 50zM795 360q0 65 50 115t120 50t120 -50t50 -115t-50 -115t-120 -50t-120 50t-50 115z" />
    <glyph glyph-name="trademark" unicode="&#x2122;" horiz-adv-x="710" 
d="M10 615v85h260v-85h-85v-225h-90v225h-85zM580 700h80v-310h-90v167l-85 -107l-85 107v-167h-90v310h80l95 -125z" />
    <glyph glyph-name="minus" unicode="&#x2212;" horiz-adv-x="530" 
d="M495 355v-120h-460v120h460z" />
    <glyph glyph-name="approxequal" unicode="&#x2248;" horiz-adv-x="575" 
d="M205 365q-17 0 -32.5 -5.5t-25.5 -13.5t-17.5 -16.5t-11.5 -13.5l-3 -6l-85 60l5.5 11t17.5 25.5t30 32t43.5 25t58.5 11.5q51 0 102 -30t83 -30q17 0 32.5 5.5t25.5 13.5t17.5 16.5t10.5 13.5l4 6l85 -60l-5.5 -11t-17.5 -25.5t-30 -32t-43.5 -25t-58.5 -11.5
q-51 0 -102 30t-83 30zM205 175q-17 0 -32.5 -5.5t-25.5 -13.5t-17.5 -16.5t-11.5 -13.5l-3 -6l-85 60l5.5 11t17.5 25.5t30 32t43.5 25t58.5 11.5q51 0 102 -30t83 -30q27 0 49.5 14t31.5 27l9 14l85 -60l-5.5 -11t-17.5 -25.5t-30 -32t-43.5 -25t-58.5 -11.5
q-51 0 -102 30t-83 30z" />
    <glyph glyph-name="notequal" unicode="&#x2260;" horiz-adv-x="485" 
d="M450 255v-115h-210l-40 -100h-120l40 100h-85v115h130l35 80h-165v115h210l40 100h120l-40 -100h85v-115h-130l-35 -80h165z" />
    <glyph glyph-name="lessequal" unicode="&#x2264;" horiz-adv-x="505" 
d="M35 0v110h435v-110h-435zM470 590v-120l-250 -105l250 -105v-120l-435 190v70z" />
    <glyph glyph-name="greaterequal" unicode="&#x2265;" horiz-adv-x="505" 
d="M470 110v-110h-435v110h435zM35 470v120l435 -190v-70l-435 -190v120l250 105z" />
    <glyph glyph-name="commaaccent" unicode="&#xf6c3;" horiz-adv-x="230" 
d="M30 -230l45 150h125l-70 -150h-100z" />
    <glyph glyph-name="cyrBreve" unicode="&#xf6d1;" horiz-adv-x="380" 
d="M190 875q26 0 43 17t17 43h100q0 -68 -44.5 -111.5t-115.5 -43.5t-115.5 43.5t-44.5 111.5h100q0 -26 17 -43t43 -17z" />
    <glyph glyph-name="cyrbreve" unicode="&#xf6d4;" horiz-adv-x="380" 
d="M190 645q26 0 43 17t17 43h100q0 -64 -45 -107t-115 -43t-115 43t-45 107h100q0 -26 17 -43t43 -17z" />
    <glyph glyph-name="uniFB02" unicode="&#xfb02;" horiz-adv-x="615" 
d="M405 505q0 34 -26.5 59.5t-63.5 25.5t-63.5 -25.5t-26.5 -59.5v-30h110v-120h-110v-355h-135v355h-70v120h70v30q0 91 62.5 150.5t162.5 59.5t162.5 -59.5t62.5 -150.5v-505h-135v505z" />
    <glyph glyph-name="s_t" unicode="&#xfb06;" horiz-adv-x="845" 
d="M230 500h5v15q0 88 60 144t160 56q102 0 163.5 -63.5t61.5 -171.5h100v-120h-100v-195q0 -23 17 -39t43 -16q13 0 25.5 2.5t18.5 5.5l6 2v-115q-40 -15 -90 -15q-155 0 -155 170v200h-85v120h85q0 55 -26 85t-69 30q-41 0 -65.5 -24.5t-24.5 -65.5q0 -20 10 -40t20 -30
l10 -10l-70 -80q-3 4 -9.5 11t-27.5 18t-43 11q-28 0 -44 -12t-16 -28q0 -19 23 -31.5t56 -22.5t66.5 -24t56.5 -45t23 -77q0 -66 -52 -110.5t-143 -44.5q-39 0 -74 9.5t-57 22.5t-38.5 26t-23.5 22l-7 10l75 75q4 -6 12.5 -15t36 -24.5t56.5 -15.5q32 0 48.5 12.5
t16.5 32.5t-23 33.5t-56.5 23.5t-66.5 24t-56 44t-23 75q0 59 55 107t135 48z" />
    <glyph glyph-name="lslash.alt" horiz-adv-x="410" 
d="M260 700v-240l100 60l55 -100l-155 -90v-160q0 -23 17 -39t43 -16q11 0 23.5 1.5t19.5 3.5l7 2v-120q-35 -12 -85 -12q-76 0 -118 44t-42 126v90l-100 -60l-55 100l155 90v320h135z" />
    <glyph glyph-name="Germandbls" horiz-adv-x="675" 
d="M465 410q7 -1 17.5 -4t38 -17t48.5 -33.5t38.5 -57t17.5 -83.5q0 -88 -69.5 -151.5t-175.5 -63.5h-60v120h50q45 0 72.5 26.5t27.5 68.5t-27.5 68.5t-72.5 26.5h-50v110l110 150h-100q-45 0 -72.5 -27.5t-27.5 -72.5v-470h-150v470q0 99 68.5 164.5t176.5 65.5h260v-125z
" />
    <glyph glyph-name="afii10110.alt" horiz-adv-x="520" 
d="M255 645q26 0 43 17t17 43h100q0 -64 -45 -107t-115 -43t-115 43t-45 107h100q0 -26 17 -43t43 -17zM100 -210l90 210l-190 490h140l115 -325l115 325h140l-270 -700h-140z" />
    <glyph glyph-name="agrave.alt" horiz-adv-x="545" 
d="M470 -10q-44 0 -74 19t-38 37l-8 19l-5.5 -8t-17.5 -18t-30 -23t-43.5 -18t-58.5 -8q-73 0 -119 41t-46 99q0 60 38.5 100t106.5 52l155 28q0 31 -22.5 50.5t-62.5 19.5q-33 0 -60.5 -12.5t-38.5 -25.5l-11 -12l-75 75l8 10.5t23 22.5t39 28.5t55 23t70 10.5
q93 0 151.5 -55.5t58.5 -139.5v-165q0 -15 10 -25t25 -10l20 5v-110q-20 -10 -50 -10zM230 100q46 0 73 29t27 81v15l-110 -20q-55 -9 -55 -55q0 -50 65 -50zM260 705l80 -150h-110l-110 150h140z" />
    <glyph glyph-name="aacute.alt" horiz-adv-x="545" 
d="M470 -10q-44 0 -74 19t-38 37l-8 19l-5.5 -8t-17.5 -18t-30 -23t-43.5 -18t-58.5 -8q-73 0 -119 41t-46 99q0 60 38.5 100t106.5 52l155 28q0 31 -22.5 50.5t-62.5 19.5q-33 0 -60.5 -12.5t-38.5 -25.5l-11 -12l-75 75l8 10.5t23 22.5t39 28.5t55 23t70 10.5
q93 0 151.5 -55.5t58.5 -139.5v-165q0 -15 10 -25t25 -10l20 5v-110q-20 -10 -50 -10zM230 100q46 0 73 29t27 81v15l-110 -20q-55 -9 -55 -55q0 -50 65 -50zM220 555l80 150h140l-110 -150h-110z" />
    <glyph glyph-name="abreve.alt" horiz-adv-x="545" 
d="M470 -10q-44 0 -74 19t-38 37l-8 19l-5.5 -8t-17.5 -18t-30 -23t-43.5 -18t-58.5 -8q-73 0 -119 41t-46 99q0 60 38.5 100t106.5 52l155 28q0 31 -22.5 50.5t-62.5 19.5q-33 0 -60.5 -12.5t-38.5 -25.5l-11 -12l-75 75l8 10.5t23 22.5t39 28.5t55 23t70 10.5
q93 0 151.5 -55.5t58.5 -139.5v-165q0 -15 10 -25t25 -10l20 5v-110q-20 -10 -50 -10zM230 100q46 0 73 29t27 81v15l-110 -20q-55 -9 -55 -55q0 -50 65 -50zM275 645q26 0 43 17t17 43h100q0 -64 -45 -107t-115 -43t-115 43t-45 107h100q0 -26 17 -43t43 -17z" />
    <glyph glyph-name="acircumflex.alt" horiz-adv-x="545" 
d="M470 -10q-44 0 -74 19t-38 37l-8 19l-5.5 -8t-17.5 -18t-30 -23t-43.5 -18t-58.5 -8q-73 0 -119 41t-46 99q0 60 38.5 100t106.5 52l155 28q0 31 -22.5 50.5t-62.5 19.5q-33 0 -60.5 -12.5t-38.5 -25.5l-11 -12l-75 75l8 10.5t23 22.5t39 28.5t55 23t70 10.5
q93 0 151.5 -55.5t58.5 -139.5v-165q0 -15 10 -25t25 -10l20 5v-110q-20 -10 -50 -10zM230 100q46 0 73 29t27 81v15l-110 -20q-55 -9 -55 -55q0 -50 65 -50zM330 705l120 -150h-120l-60 80l-60 -80h-120l120 150h120z" />
    <glyph glyph-name="adieresis.alt" horiz-adv-x="545" 
d="M470 -10q-44 0 -74 19t-38 37l-8 19l-5.5 -8t-17.5 -18t-30 -23t-43.5 -18t-58.5 -8q-73 0 -119 41t-46 99q0 60 38.5 100t106.5 52l155 28q0 31 -22.5 50.5t-62.5 19.5q-33 0 -60.5 -12.5t-38.5 -25.5l-11 -12l-75 75l8 10.5t23 22.5t39 28.5t55 23t70 10.5
q93 0 151.5 -55.5t58.5 -139.5v-165q0 -15 10 -25t25 -10l20 5v-110q-20 -10 -50 -10zM230 100q46 0 73 29t27 81v15l-110 -20q-55 -9 -55 -55q0 -50 65 -50zM100 625q0 30 22.5 52.5t52.5 22.5t52.5 -22.5t22.5 -52.5t-22.5 -52.5t-52.5 -22.5t-52.5 22.5t-22.5 52.5z
M320 625q0 30 22.5 52.5t52.5 22.5t52.5 -22.5t22.5 -52.5t-22.5 -52.5t-52.5 -22.5t-52.5 22.5t-22.5 52.5z" />
    <glyph glyph-name="amacron.alt" horiz-adv-x="545" 
d="M470 -10q-44 0 -74 19t-38 37l-8 19l-5.5 -8t-17.5 -18t-30 -23t-43.5 -18t-58.5 -8q-73 0 -119 41t-46 99q0 60 38.5 100t106.5 52l155 28q0 31 -22.5 50.5t-62.5 19.5q-33 0 -60.5 -12.5t-38.5 -25.5l-11 -12l-75 75l8 10.5t23 22.5t39 28.5t55 23t70 10.5
q93 0 151.5 -55.5t58.5 -139.5v-165q0 -15 10 -25t25 -10l20 5v-110q-20 -10 -50 -10zM230 100q46 0 73 29t27 81v15l-110 -20q-55 -9 -55 -55q0 -50 65 -50zM435 695v-100h-320v100h320z" />
    <glyph glyph-name="aogonek.alt" horiz-adv-x="545" 
d="M230 100q46 0 73 29t27 81v15l-110 -20q-55 -9 -55 -55q0 -50 65 -50zM350 65l-5.5 -8t-17.5 -18t-30 -23t-43.5 -18t-58.5 -8q-73 0 -119 41t-46 99q0 60 38.5 100t106.5 52l155 28q0 31 -22.5 50.5t-62.5 19.5q-33 0 -60.5 -12.5t-38.5 -25.5l-11 -12l-75 75l8 10.5
t23 22.5t39 28.5t55 23t70 10.5q93 0 151.5 -55.5t58.5 -139.5v-165q0 -15 10 -25t25 -10l20 5v-110q-17 -8 -42 -10q-28 -45 -28 -90q0 -40 45 -40q13 0 25.5 2.5t18.5 5.5l6 2v-75q-30 -15 -80 -15q-48 0 -79 29.5t-31 72.5q0 30 14.5 59.5t29.5 44.5l15 14
q-23 8 -39 24.5t-21 28.5z" />
    <glyph glyph-name="aring.alt" horiz-adv-x="545" 
d="M245 645q0 -40 40 -40t40 40t-40 40t-40 -40zM400 645q0 -45 -33.5 -77.5t-81.5 -32.5t-81.5 32.5t-33.5 77.5t33.5 77.5t81.5 32.5t81.5 -32.5t33.5 -77.5zM470 -10q-44 0 -74 19t-38 37l-8 19l-5.5 -8t-17.5 -18t-30 -23t-43.5 -18t-58.5 -8q-73 0 -119 41t-46 99
q0 60 38.5 100t106.5 52l155 28q0 31 -22.5 50.5t-62.5 19.5q-33 0 -60.5 -12.5t-38.5 -25.5l-11 -12l-75 75l8 10.5t23 22.5t39 28.5t55 23t70 10.5q93 0 151.5 -55.5t58.5 -139.5v-165q0 -15 10 -25t25 -10l20 5v-110q-20 -10 -50 -10zM230 100q46 0 73 29t27 81v15
l-110 -20q-55 -9 -55 -55q0 -50 65 -50z" />
    <glyph glyph-name="atilde.alt" horiz-adv-x="545" 
d="M470 -10q-44 0 -74 19t-38 37l-8 19l-5.5 -8t-17.5 -18t-30 -23t-43.5 -18t-58.5 -8q-73 0 -119 41t-46 99q0 60 38.5 100t106.5 52l155 28q0 31 -22.5 50.5t-62.5 19.5q-33 0 -60.5 -12.5t-38.5 -25.5l-11 -12l-75 75l8 10.5t23 22.5t39 28.5t55 23t70 10.5
q93 0 151.5 -55.5t58.5 -139.5v-165q0 -15 10 -25t25 -10l20 5v-110q-20 -10 -50 -10zM230 100q46 0 73 29t27 81v15l-110 -20q-55 -9 -55 -55q0 -50 65 -50zM360 550q-38 0 -74.5 25t-55.5 25q-35 0 -35 -50h-85q0 76 29 113t78 37q37 0 74 -27.5t54 -27.5q35 0 35 55h85
q0 -75 -28.5 -112.5t-76.5 -37.5z" />
    <glyph glyph-name="lacute.alt" horiz-adv-x="335" 
d="M80 785l80 150h140l-110 -150h-110zM200 700v-530q0 -23 17 -39t43 -16q11 0 23.5 1.5t19.5 3.5l7 2v-120q-35 -12 -85 -12q-76 0 -118 44t-42 126v540h135z" />
    <glyph glyph-name="lcaron.alt" horiz-adv-x="350" 
d="M200 700v-530q0 -23 17 -39t43 -16q11 0 23.5 1.5t19.5 3.5l7 2v-120q-35 -12 -85 -12q-76 0 -118 44t-42 126v540h135zM240 550l45 150h125l-70 -150h-100z" />
    <glyph glyph-name="lcommaaccent.alt" horiz-adv-x="335" 
d="M200 700v-530q0 -23 17 -39t43 -16q11 0 23.5 1.5t19.5 3.5l7 2v-120q-35 -12 -85 -12q-76 0 -118 44t-42 126v540h135zM75 -230l45 150h125l-70 -150h-100z" />
    <glyph glyph-name="Igrave.alt" horiz-adv-x="420" 
d="M40 565v135h340v-135h-95v-430h95v-135h-340v135h95v430h-95zM180 935l80 -150h-110l-110 150h140z" />
    <glyph glyph-name="Iacute.alt" horiz-adv-x="420" 
d="M40 565v135h340v-135h-95v-430h95v-135h-340v135h95v430h-95zM150 785l80 150h140l-110 -150h-110z" />
    <glyph glyph-name="Icircumflex.alt" horiz-adv-x="420" 
d="M40 565v135h340v-135h-95v-430h95v-135h-340v135h95v430h-95zM267 935l120 -150h-120l-60 80l-60 -80h-120l120 150h120z" />
    <glyph glyph-name="Idieresis.alt" horiz-adv-x="420" 
d="M40 565v135h340v-135h-95v-430h95v-135h-340v135h95v430h-95zM25 855q0 30 22.5 52.5t52.5 22.5t52.5 -22.5t22.5 -52.5t-22.5 -52.5t-52.5 -22.5t-52.5 22.5t-22.5 52.5zM245 855q0 30 22.5 52.5t52.5 22.5t52.5 -22.5t22.5 -52.5t-22.5 -52.5t-52.5 -22.5t-52.5 22.5
t-22.5 52.5z" />
    <glyph glyph-name="Idotaccent.alt" horiz-adv-x="420" 
d="M40 565v135h340v-135h-95v-430h95v-135h-340v135h95v430h-95zM285 860q0 -34 -21.5 -54.5t-58.5 -20.5q-34 0 -54.5 20.5t-20.5 54.5t20.5 54.5t54.5 20.5q37 0 58.5 -20.5t21.5 -54.5z" />
    <glyph glyph-name="Imacron.alt" horiz-adv-x="420" 
d="M40 565v135h340v-135h-95v-430h95v-135h-340v135h95v430h-95zM370 915v-100h-320v100h320z" />
    <glyph glyph-name="Iogonek.alt" horiz-adv-x="420" 
d="M310 0h-270v135h95v430h-95v135h340v-135h-95v-430h95v-135q-35 -50 -35 -100q0 -40 45 -40q13 0 25.5 2.5t18.5 5.5l6 2v-75q-30 -15 -80 -15q-48 0 -79 29.5t-31 72.5q0 30 15 59.5t30 44.5z" />
    <glyph glyph-name="yacute.alt" 
d="M240 555l80 150h140l-110 -150h-110zM395 490h135v-460q0 -102 -71 -171t-179 -69q-42 0 -80 10.5t-62.5 25t-43 29t-26.5 25.5l-8 10l75 80q6 -7 16.5 -18t47 -29t76.5 -18q53 0 86.5 34.5t33.5 90.5v45q-2 -2 -6 -6.5t-17.5 -14.5t-29 -18t-40.5 -14.5t-52 -6.5
q-80 0 -132.5 56.5t-52.5 148.5v270h135v-255q0 -41 26 -68t64 -27q46 0 75.5 31.5t29.5 83.5v235z" />
    <glyph glyph-name="ydieresis.alt" 
d="M395 490h135v-460q0 -102 -71 -171t-179 -69q-42 0 -80 10.5t-62.5 25t-43 29t-26.5 25.5l-8 10l75 80q6 -7 16.5 -18t47 -29t76.5 -18q53 0 86.5 34.5t33.5 90.5v45q-2 -2 -6 -6.5t-17.5 -14.5t-29 -18t-40.5 -14.5t-52 -6.5q-80 0 -132.5 56.5t-52.5 148.5v270h135
v-255q0 -41 26 -68t64 -27q46 0 75.5 31.5t29.5 83.5v235zM115 625q0 30 22.5 52.5t52.5 22.5t52.5 -22.5t22.5 -52.5t-22.5 -52.5t-52.5 -22.5t-52.5 22.5t-22.5 52.5zM335 625q0 30 22.5 52.5t52.5 22.5t52.5 -22.5t22.5 -52.5t-22.5 -52.5t-52.5 -22.5t-52.5 22.5
t-22.5 52.5z" />
    <glyph glyph-name="ugrave.alt" 
d="M265 705l80 -150h-110l-110 150h140zM60 200v290h135v-275q0 -44 26 -72t64 -28q43 0 69 30t26 85v260h135v-345q0 -15 10 -25t25 -10l20 5v-115q-20 -10 -50 -10q-44 0 -74 19t-38 37l-8 19l-5.5 -8t-17.5 -18t-30 -23t-43.5 -18t-58.5 -8q-80 0 -132.5 57t-52.5 153z
" />
    <glyph glyph-name="uacute.alt" 
d="M230 555l80 150h140l-110 -150h-110zM60 200v290h135v-275q0 -44 26 -72t64 -28q43 0 69 30t26 85v260h135v-345q0 -15 10 -25t25 -10l20 5v-115q-20 -10 -50 -10q-44 0 -74 19t-38 37l-8 19l-5.5 -8t-17.5 -18t-30 -23t-43.5 -18t-58.5 -8q-80 0 -132.5 57t-52.5 153z
" />
    <glyph glyph-name="ucircumflex.alt" 
d="M60 200v290h135v-275q0 -44 26 -72t64 -28q43 0 69 30t26 85v260h135v-345q0 -15 10 -25t25 -10l20 5v-115q-20 -10 -50 -10q-44 0 -74 19t-38 37l-8 19l-5.5 -8t-17.5 -18t-30 -23t-43.5 -18t-58.5 -8q-80 0 -132.5 57t-52.5 153zM345 705l120 -150h-120l-60 80l-60 -80
h-120l120 150h120z" />
    <glyph glyph-name="udieresis.alt" 
d="M60 200v290h135v-275q0 -44 26 -72t64 -28q43 0 69 30t26 85v260h135v-345q0 -15 10 -25t25 -10l20 5v-115q-20 -10 -50 -10q-44 0 -74 19t-38 37l-8 19l-5.5 -8t-17.5 -18t-30 -23t-43.5 -18t-58.5 -8q-80 0 -132.5 57t-52.5 153zM105 625q0 30 22.5 52.5t52.5 22.5
t52.5 -22.5t22.5 -52.5t-22.5 -52.5t-52.5 -22.5t-52.5 22.5t-22.5 52.5zM325 625q0 30 22.5 52.5t52.5 22.5t52.5 -22.5t22.5 -52.5t-22.5 -52.5t-52.5 -22.5t-52.5 22.5t-22.5 52.5z" />
    <glyph glyph-name="uhungarumlaut.alt" 
d="M60 200v290h135v-275q0 -44 26 -72t64 -28q43 0 69 30t26 85v260h135v-345q0 -15 10 -25t25 -10l20 5v-115q-20 -10 -50 -10q-44 0 -74 19t-38 37l-8 19l-5.5 -8t-17.5 -18t-30 -23t-43.5 -18t-58.5 -8q-80 0 -132.5 57t-52.5 153zM140 555l80 150h135l-115 -150h-100z
M330 555l80 150h135l-115 -150h-100z" />
    <glyph glyph-name="umacron.alt" 
d="M60 200v290h135v-275q0 -44 26 -72t64 -28q43 0 69 30t26 85v260h135v-345q0 -15 10 -25t25 -10l20 5v-115q-20 -10 -50 -10q-44 0 -74 19t-38 37l-8 19l-5.5 -8t-17.5 -18t-30 -23t-43.5 -18t-58.5 -8q-80 0 -132.5 57t-52.5 153zM450 685v-100h-320v100h320z" />
    <glyph glyph-name="uogonek.alt" 
d="M60 200v290h135v-275q0 -44 26 -72t64 -28q43 0 69 30t26 85v260h135v-345q0 -15 10 -25t25 -10l20 5v-115q-17 -8 -42 -10q-28 -45 -28 -90q0 -40 45 -40q13 0 25.5 2.5t18.5 5.5l6 2v-75q-30 -15 -80 -15q-48 0 -79 29.5t-31 72.5q0 30 14.5 59.5t29.5 44.5l15 14
q-23 8 -39 24.5t-21 28.5l-4 12l-5.5 -8t-17.5 -18t-30 -23t-43.5 -18t-58.5 -8q-80 0 -132.5 57t-52.5 153z" />
    <glyph glyph-name="uring.alt" 
d="M255 645q0 -40 40 -40t40 40t-40 40t-40 -40zM410 645q0 -45 -33.5 -77.5t-81.5 -32.5t-81.5 32.5t-33.5 77.5t33.5 77.5t81.5 32.5t81.5 -32.5t33.5 -77.5zM60 200v290h135v-275q0 -44 26 -72t64 -28q43 0 69 30t26 85v260h135v-345q0 -15 10 -25t25 -10l20 5v-115
q-20 -10 -50 -10q-44 0 -74 19t-38 37l-8 19l-5.5 -8t-17.5 -18t-30 -23t-43.5 -18t-58.5 -8q-80 0 -132.5 57t-52.5 153z" />
    <glyph glyph-name="a.alt" horiz-adv-x="545" 
d="M470 -10q-44 0 -74 19t-38 37l-8 19l-5.5 -8t-17.5 -18t-30 -23t-43.5 -18t-58.5 -8q-73 0 -119 41t-46 99q0 60 38.5 100t106.5 52l155 28q0 31 -22.5 50.5t-62.5 19.5q-33 0 -60.5 -12.5t-38.5 -25.5l-11 -12l-75 75l8 10.5t23 22.5t39 28.5t55 23t70 10.5
q93 0 151.5 -55.5t58.5 -139.5v-165q0 -15 10 -25t25 -10l20 5v-110q-20 -10 -50 -10zM230 100q46 0 73 29t27 81v15l-110 -20q-55 -9 -55 -55q0 -50 65 -50z" />
    <glyph glyph-name="l.alt" horiz-adv-x="330" 
d="M200 700v-530q0 -23 17 -39t43 -16q11 0 23.5 1.5t19.5 3.5l7 2v-120q-35 -12 -85 -12q-76 0 -118 44t-42 126v540h135z" />
    <glyph glyph-name="afii10085.alt" horiz-adv-x="520" 
d="M100 -210l90 210l-190 490h140l115 -325l115 325h140l-270 -700h-140z" />
    <glyph glyph-name="y.alt" 
d="M395 490h135v-460q0 -102 -71 -171t-179 -69q-42 0 -80 10.5t-62.5 25t-43 29t-26.5 25.5l-8 10l75 80q6 -7 16.5 -18t47 -29t76.5 -18q53 0 86.5 34.5t33.5 90.5v45q-2 -2 -6 -6.5t-17.5 -14.5t-29 -18t-40.5 -14.5t-52 -6.5q-80 0 -132.5 56.5t-52.5 148.5v270h135
v-255q0 -41 26 -68t64 -27q46 0 75.5 31.5t29.5 83.5v235z" />
    <glyph glyph-name="I.alt" horiz-adv-x="420" 
d="M40 565v135h340v-135h-95v-430h95v-135h-340v135h95v430h-95z" />
    <glyph glyph-name="u.alt" 
d="M60 200v290h135v-275q0 -44 26 -72t64 -28q43 0 69 30t26 85v260h135v-345q0 -15 10 -25t25 -10l20 5v-115q-20 -10 -50 -10q-44 0 -74 19t-38 37l-8 19l-5.5 -8t-17.5 -18t-30 -23t-43.5 -18t-58.5 -8q-80 0 -132.5 57t-52.5 153z" />
    <glyph glyph-name="afii10065.alt" horiz-adv-x="545" 
d="M470 -10q-44 0 -74 19t-38 37l-8 19l-5.5 -8t-17.5 -18t-30 -23t-43.5 -18t-58.5 -8q-73 0 -119 41t-46 99q0 60 38.5 100t106.5 52l155 28q0 31 -22.5 50.5t-62.5 19.5q-33 0 -60.5 -12.5t-38.5 -25.5l-11 -12l-75 75l8 10.5t23 22.5t39 28.5t55 23t70 10.5
q93 0 151.5 -55.5t58.5 -139.5v-165q0 -15 10 -25t25 -10l20 5v-110q-20 -10 -50 -10zM230 100q46 0 73 29t27 81v15l-110 -20q-55 -9 -55 -55q0 -50 65 -50z" />
    <glyph glyph-name="at.case" horiz-adv-x="900" 
d="M445 435q-36 0 -60.5 -25.5t-24.5 -64.5t24.5 -64.5t60.5 -25.5q34 0 57 25t23 65t-23 65t-57 25zM430 530q29 0 52.5 -10t33.5 -20l9 -10v35h95v-220q0 -23 16 -39t39 -16q70 0 70 120q0 114 -84.5 194.5t-210.5 80.5q-120 0 -205 -86t-85 -209t85 -209t205 -86
q51 0 96 15t64 30l20 15l55 -70q-3 -3 -10 -9t-29.5 -20.5t-48 -26t-65.5 -20.5t-82 -9q-103 0 -193 53.5t-143.5 143.5t-53.5 193t53.5 193t143.5 143.5t193 53.5q167 0 281 -109t114 -261q0 -98 -48 -154t-122 -56q-35 0 -64 15t-40 30l-11 15q-4 -7 -12.5 -17
t-40.5 -26.5t-72 -16.5q-73 0 -124 52.5t-51 132.5q0 79 50.5 132t119.5 53z" />
    <glyph glyph-name="parenleft.case" horiz-adv-x="365" 
d="M205 350q0 -67 14 -135t34 -117t39.5 -88.5t33.5 -59.5l14 -20l-105 -60q-7 8 -18 22.5t-39.5 63t-50 100.5t-39.5 132.5t-18 161.5t17 160.5t41 134.5t48.5 98.5t41.5 64.5l17 22l105 -65l-14.5 -20.5t-32.5 -56.5t-41 -88.5t-32.5 -114t-14.5 -135.5z" />
    <glyph glyph-name="parenright.case" horiz-adv-x="365" 
d="M160 350q0 67 -14 134.5t-34 116t-39.5 87t-33.5 58.5l-14 19l105 65q7 -8 18 -22.5t39.5 -63t50 -100.5t39.5 -132.5t18 -161.5t-17 -160.5t-41.5 -134.5t-48.5 -98.5t-41 -64.5l-17 -22l-105 60l14.5 20.5t32.5 57.5t41 90.5t32.5 115.5t14.5 136z" />
    <glyph glyph-name="bracketleft.case" horiz-adv-x="360" 
d="M210 695v-690h120v-115h-250v920h250v-115h-120z" />
    <glyph glyph-name="bracketright.case" horiz-adv-x="360" 
d="M150 5v690h-120v115h250v-920h-250v115h120z" />
    <glyph glyph-name="braceleft.case" horiz-adv-x="395" 
d="M55 295v110q30 0 47.5 17.5t17.5 47.5v170q0 82 43 126t122 44h75v-120h-50q-26 0 -43 -17.5t-17 -45.5v-162q0 -28 -6.5 -50t-16 -33.5t-19.5 -19.5t-16 -10l-7 -2q3 -1 7 -2.5t15.5 -9.5t20 -19.5t15.5 -33.5t7 -50v-163q0 -28 17 -45t43 -17h50v-120h-75
q-79 0 -122 44t-43 126v170q0 30 -17.5 47.5t-47.5 17.5z" />
    <glyph glyph-name="braceright.case" horiz-adv-x="395" 
d="M340 405v-110q-30 0 -47.5 -17.5t-17.5 -47.5v-170q0 -82 -43 -126t-122 -44h-75v120h50q26 0 43 17t17 45v163q0 28 6.5 50t16.5 33.5t19.5 19.5t16.5 10l6 2q-3 1 -7 2.5t-15.5 9.5t-20 19.5t-15.5 33.5t-7 50v162q0 28 -17 45.5t-43 17.5h-50v120h75q79 0 122 -44
t43 -126v-170q0 -30 17.5 -47.5t47.5 -17.5z" />
    <glyph glyph-name="exclamdown.case" horiz-adv-x="330" 
d="M110 500h110l25 -500h-160zM85 635q0 30 23.5 52.5t56.5 22.5t56.5 -22.5t23.5 -52.5t-23.5 -52.5t-56.5 -22.5t-56.5 22.5t-23.5 52.5z" />
    <glyph glyph-name="questiondown.case" horiz-adv-x="550" 
d="M365 450q0 -40 -17.5 -71t-42.5 -50l-50 -36.5t-42.5 -40.5t-17.5 -52q0 -31 25 -53t65 -22q42 0 72 20t39 40l9 20l125 -55q-2 -7 -6.5 -18.5t-24 -40.5t-45 -51.5t-72 -41t-102.5 -18.5q-106 0 -173 59t-67 141q0 51 18.5 90.5t45 64t53 46t45 50.5t18.5 64h135
q10 -25 10 -45zM375 630q0 -30 -23.5 -52.5t-56.5 -22.5t-56.5 22.5t-23.5 52.5t23.5 52.5t56.5 22.5t56.5 -22.5t23.5 -52.5z" />
    <glyph glyph-name="guillemotleft.case" horiz-adv-x="560" 
d="M300 525l-125 -175l125 -175h-130l-125 175l125 175h130zM515 525l-125 -175l125 -175h-130l-125 175l125 175h130z" />
    <glyph glyph-name="guillemotright.case" horiz-adv-x="560" 
d="M385 350l-125 175h130l125 -175l-125 -175h-130zM170 350l-125 175h130l125 -175l-125 -175h-130z" />
    <glyph glyph-name="guilsinglleft.case" horiz-adv-x="350" 
d="M305 525l-125 -175l125 -175h-135l-125 175l125 175h135z" />
    <glyph glyph-name="guilsinglright.case" horiz-adv-x="350" 
d="M170 350l-125 175h135l125 -175l-125 -175h-135z" />
    <glyph glyph-name="hyphen.case" horiz-adv-x="430" 
d="M395 399v-120h-360v120h360z" />
    <glyph glyph-name="endash.case" horiz-adv-x="495" 
d="M460 403v-117h-425v117h425z" />
    <glyph glyph-name="emdash.case" horiz-adv-x="735" 
d="M700 403v-117h-665v117h665z" />
    <glyph glyph-name="periodcentered.case" horiz-adv-x="200" 
d="M20 350q0 30 23.5 52.5t56.5 22.5t56.5 -22.5t23.5 -52.5t-23.5 -52.5t-56.5 -22.5t-56.5 22.5t-23.5 52.5z" />
    <glyph glyph-name="c_t" horiz-adv-x="920" 
d="M495 400l-85 -85q-4 7 -13 18t-39 29t-63 18q-53 0 -91.5 -39.5t-38.5 -95.5t38.5 -95.5t91.5 -39.5q33 0 63 16t44 32l13 17l80 -85l-8 -11t-23.5 -24t-40 -30t-56 -24t-72.5 -11q-108 0 -186.5 76.5t-78.5 178.5t78.5 178.5t186.5 76.5h15v15q0 88 60 144t160 56
q102 0 163.5 -63.5t61.5 -171.5h100v-120h-100v-195q0 -23 17 -39t43 -16q13 0 25.5 2.5t18.5 5.5l6 2v-115q-40 -15 -90 -15q-155 0 -155 170v200h-85v120h85q0 55 -26 85t-69 30q-41 0 -65.5 -24.5t-24.5 -65.5q0 -24 15 -50.5t30 -40.5z" />
    <glyph glyph-name="s_p" horiz-adv-x="1070" 
d="M795 -10q-42 0 -78.5 17.5t-51.5 34.5l-15 18v-270h-135v700q0 51 -22.5 78t-57.5 27q-30 0 -52.5 -23.5t-22.5 -56.5q0 -24 10 -46.5t20 -32.5l10 -11l-70 -80q-3 4 -9.5 11t-27.5 18t-43 11q-28 0 -44 -12t-16 -28q0 -19 23 -31.5t56 -22.5t66.5 -24t56.5 -45t23 -77
q0 -66 -52 -110.5t-143 -44.5q-39 0 -74 9.5t-57 22.5t-38.5 26t-23.5 22l-7 10l75 75q4 -6 12.5 -15t36 -24.5t56.5 -15.5q32 0 48.5 12.5t16.5 32.5t-23 33.5t-56.5 23.5t-66.5 24t-56 44t-23 75q0 59 55 107t135 48h5v15q0 87 57.5 143.5t147.5 56.5q95 0 152.5 -60.5
t57.5 -164.5v-60q2 3 6 7.5t17.5 16.5t29 21.5t40.5 17t52 7.5q95 0 165 -74t70 -181t-70 -181t-165 -74zM770 380q-50 0 -85 -38t-35 -97t35 -97t85 -38t85 38t35 97t-35 97t-85 38z" />
    <glyph glyph-name="f_t" horiz-adv-x="715" 
d="M430 540v95h120v-160h100v-120h-100v-190q0 -23 17 -39t43 -16q13 0 25.5 2.5t18.5 5.5l6 2v-115q-40 -15 -90 -15q-155 0 -155 170v195h-190v-355h-135v355h-70v120h70v65q0 170 155 170q22 0 44.5 -4t34.5 -8l11 -3v-115q-20 10 -50 10q-26 0 -43 -16t-17 -39v-60h150
q23 0 39 18t16 47z" />
    <glyph glyph-name="zero.tab" horiz-adv-x="650" 
d="M175 350q0 -110 44.5 -170t105.5 -60t105.5 60t44.5 170t-44.5 170t-105.5 60t-105.5 -60t-44.5 -170zM625 350q0 -164 -87.5 -264.5t-212.5 -100.5t-212.5 100.5t-87.5 264.5t87.5 264.5t212.5 100.5t212.5 -100.5t87.5 -264.5z" />
    <glyph glyph-name="one.tab" horiz-adv-x="650" 
d="M305 700h125v-700h-150v510h-120v95q32 4 59 15.5t42 24.5t25.5 25.5t14.5 21.5z" />
    <glyph glyph-name="two.tab" horiz-adv-x="650" 
d="M565 0h-490q0 77 25 139.5t62 99t80.5 69.5t80.5 56t62 54t25 67q0 42 -26 66t-74 24q-38 0 -65.5 -21.5t-36.5 -42.5l-8 -21l-125 60q2 7 6.5 18t23.5 39.5t44 50t70.5 39.5t100.5 18q107 0 176 -65t69 -160q0 -53 -23 -96.5t-60 -74t-76 -56t-79.5 -58t-61.5 -65.5h300
v-140z" />
    <glyph glyph-name="three.tab" horiz-adv-x="650" 
d="M450 370l13.5 -5.5t30 -17.5t38 -32t30 -50t13.5 -70q0 -86 -71.5 -148t-188.5 -62q-50 0 -96 11.5t-75.5 27.5t-51.5 32t-32 28l-10 11l90 95q2 -3 6.5 -8t20 -18t33 -23t44.5 -18t56 -8q58 0 89 25.5t31 64.5t-30.5 64.5t-84.5 25.5h-75v125h70q44 0 69.5 23.5
t25.5 61.5q0 35 -25.5 57.5t-69.5 22.5q-38 0 -71.5 -16.5t-48.5 -32.5l-15 -16l-90 90q3 4 9 11t28 25.5t47.5 32t67.5 25t88 11.5q106 0 170.5 -56t64.5 -139q0 -31 -10.5 -57.5t-25 -43t-29 -28t-25.5 -16.5z" />
    <glyph glyph-name="four.tab" horiz-adv-x="650" 
d="M525 255h80v-130h-80v-125h-150v125h-330v150l305 425h175v-445zM375 255v270l-190 -270h190z" />
    <glyph glyph-name="five.tab" horiz-adv-x="650" 
d="M355 465q101 0 168 -67t67 -168q0 -106 -73 -175.5t-192 -69.5q-50 0 -95.5 11.5t-74 27.5t-50 32t-31.5 28l-9 11l90 95q7 -8 19.5 -19.5t54.5 -31t86 -19.5q56 0 88 30.5t32 79.5t-34 82t-86 33q-36 0 -64.5 -13.5t-39.5 -27.5l-11 -14l-105 10l25 400h425v-130h-290
l-10 -130q40 25 110 25z" />
    <glyph glyph-name="six.tab" horiz-adv-x="650" 
d="M350 475q94 0 167 -74t73 -171q0 -103 -75 -174t-190 -71t-190 71t-75 174q0 42 15 84.5t30 63.5l15 22l195 300h155l-150 -230q13 5 30 5zM445 230q0 49 -34 82t-86 33t-86 -33t-34 -82t34 -82t86 -33t86 33t34 82z" />
    <glyph glyph-name="seven.tab" horiz-adv-x="650" 
d="M85 700h480v-120l-275 -580h-155l270 565h-320v135z" />
    <glyph glyph-name="eight.tab" horiz-adv-x="650" 
d="M325 110q47 0 81 30.5t34 69.5t-34 69.5t-81 30.5t-81 -30.5t-34 -69.5t34 -69.5t81 -30.5zM325 430q40 0 65 23t25 57t-25 57t-65 23t-65 -23t-25 -57t25 -57t65 -23zM325 -15q-110 0 -182.5 66.5t-72.5 158.5q0 32 11 61.5t26 48.5t30.5 33t26.5 21l11 6l-8.5 5.5
t-19.5 16.5t-24.5 28t-19 39t-8.5 51q0 78 66 136.5t164 58.5t164 -58.5t66 -136.5q0 -42 -20 -77t-40 -49l-20 -14q4 -2 11 -6.5t25.5 -20t32 -34t25 -48t11.5 -61.5q0 -92 -72.5 -158.5t-182.5 -66.5z" />
    <glyph glyph-name="nine.tab" horiz-adv-x="650" 
d="M300 225q-94 0 -167 74t-73 171q0 103 75 174t190 71t190 -71t75 -174q0 -42 -15 -84.5t-30 -63.5l-15 -22l-195 -300h-155l150 230q-13 -5 -30 -5zM205 470q0 -49 34 -82t86 -33t86 33t34 82t-34 82t-86 33t-86 -33t-34 -82z" />
    <glyph glyph-name="zero.numr" horiz-adv-x="370" 
d="M120 520q0 -46 18.5 -70.5t46.5 -24.5t46.5 24.5t18.5 70.5q0 50 -18.5 75t-46.5 25t-46.5 -25t-18.5 -75zM345 520q0 -81 -45.5 -130.5t-114.5 -49.5t-114.5 49.5t-45.5 130.5q0 84 45.5 134.5t114.5 50.5t114.5 -50.5t45.5 -134.5z" />
    <glyph glyph-name="one.numr" horiz-adv-x="230" 
d="M100 700h80v-355h-95v235h-60v75q31 3 50.5 17t24.5 28z" />
    <glyph glyph-name="two.numr" horiz-adv-x="330" 
d="M295 590q0 -31 -17 -56t-37.5 -38.5l-47 -30.5t-38.5 -30h135v-90h-255q0 46 16.5 81t40 55t47 36t40 32.5t16.5 35.5q0 15 -11 25t-29 10q-13 0 -25.5 -10t-18.5 -20l-6 -10l-75 26q1 4 3.5 10.5t12.5 24t23.5 30.5t39 23.5t56.5 10.5q59 0 94.5 -32.5t35.5 -82.5z" />
    <glyph glyph-name="three.numr" horiz-adv-x="335" 
d="M245 535q2 -1 6 -2.5t13.5 -8.5t16.5 -16t13 -24.5t6 -33.5q0 -47 -36.5 -78.5t-98.5 -31.5q-29 0 -54.5 6.5t-40.5 16t-26 19.5t-15 16l-4 7l55 55l8.5 -11t25.5 -18t43 -11q48 0 48 35q0 40 -55 40h-35v75h35q40 0 40 25q0 30 -40 30q-16 0 -32 -8.5t-24 -17.5l-9 -9
l-50 55q2 2 5 6.5t14.5 14.5t25 18t35.5 14.5t46 6.5q57 0 93 -30t36 -70q0 -22 -11 -39.5t-23 -23.5z" />
    <glyph glyph-name="four.numr" horiz-adv-x="330" 
d="M270 700v-205h35v-85h-35v-65h-95v65h-160v85l155 205h100zM110 495h65v85z" />
    <glyph glyph-name="five.numr" horiz-adv-x="310" 
d="M180 575q48 0 81.5 -33.5t33.5 -81.5q0 -54 -37 -87t-103 -33q-47 0 -83 12.5t-49 25.5l-13 12l50 60q30 -30 80 -30q25 0 40 13t15 32t-14 32t-36 13q-13 0 -24.5 -4t-16.5 -8l-4 -3h-65l20 205h215v-80h-135l-5 -55q20 10 50 10z" />
    <glyph glyph-name="six.numr" horiz-adv-x="315" 
d="M250 700l-70 -100q57 -11 88.5 -44.5t31.5 -85.5q0 -57 -39.5 -93.5t-105.5 -36.5q-63 0 -101.5 36.5t-38.5 93.5q0 22 6.5 42t12.5 29l6 9l110 150h100zM210 470q0 23 -14.5 36.5t-40.5 13.5q-23 0 -36.5 -14t-13.5 -36t13.5 -36t36.5 -14q26 0 40.5 13.5t14.5 36.5z
" />
    <glyph glyph-name="seven.numr" horiz-adv-x="290" 
d="M15 700h260v-90l-125 -265h-95l125 265h-165v90z" />
    <glyph glyph-name="eight.numr" horiz-adv-x="320" 
d="M160 420q50 0 50 35t-50 35t-50 -35t50 -35zM160 565q18 0 29 9t11 21t-11 21t-29 9t-29 -9t-11 -21t11 -21t29 -9zM160 340q-68 0 -106.5 30.5t-38.5 74.5q0 31 17.5 52.5t35.5 26.5l17 6q-2 1 -6 2.5t-13.5 8t-16.5 14.5t-13 21.5t-6 28.5q0 43 34.5 71.5t95.5 28.5
t95.5 -28.5t34.5 -71.5q0 -24 -14 -43t-28 -26l-13 -6q3 -1 7.5 -2t16.5 -7.5t21.5 -15t17 -24.5t7.5 -36q0 -44 -38.5 -74.5t-106.5 -30.5z" />
    <glyph glyph-name="nine.numr" horiz-adv-x="315" 
d="M65 345l70 100q-57 11 -88.5 44.5t-31.5 85.5q0 57 39.5 93.5t105.5 36.5q63 0 101.5 -36.5t38.5 -93.5q0 -22 -6 -42t-12 -29l-7 -9l-110 -150h-100zM105 575q0 -23 14.5 -36.5t40.5 -13.5q22 0 36 13.5t14 36.5t-14 36.5t-36 13.5q-26 0 -40.5 -13.5t-14.5 -36.5z" />
    <glyph glyph-name="zero.dnom" horiz-adv-x="370" 
d="M120 170q0 -46 18.5 -70.5t46.5 -24.5t46.5 24.5t18.5 70.5q0 50 -18.5 75t-46.5 25t-46.5 -25t-18.5 -75zM345 170q0 -81 -45.5 -130.5t-114.5 -49.5t-114.5 49.5t-45.5 130.5q0 84 45.5 134.5t114.5 50.5t114.5 -50.5t45.5 -134.5z" />
    <glyph glyph-name="one.dnom" horiz-adv-x="230" 
d="M100 350h80v-355h-95v235h-60v75q31 3 50.5 17t24.5 28z" />
    <glyph glyph-name="two.dnom" horiz-adv-x="330" 
d="M295 240q0 -31 -17 -56t-37.5 -38.5l-47 -30.5t-38.5 -30h135v-90h-255q0 46 16.5 81t40 55t47 36t40 32.5t16.5 35.5q0 15 -11 25t-29 10q-13 0 -25.5 -10t-18.5 -20l-6 -10l-75 26q1 4 3.5 10.5t12.5 24t23.5 30.5t39 23.5t56.5 10.5q59 0 94.5 -32.5t35.5 -82.5z" />
    <glyph glyph-name="three.dnom" horiz-adv-x="335" 
d="M245 185q2 -1 6 -2.5t13.5 -8.5t16.5 -16t13 -24.5t6 -33.5q0 -47 -36.5 -78.5t-98.5 -31.5q-29 0 -54.5 6.5t-40.5 16t-26 19.5t-15 16l-4 7l55 55l8.5 -11t25.5 -18t43 -11q48 0 48 35q0 40 -55 40h-35v75h35q40 0 40 25q0 30 -40 30q-16 0 -32 -8.5t-24 -17.5l-9 -9
l-50 55q2 2 5 6.5t14.5 14.5t25 18t35.5 14.5t46 6.5q57 0 93 -30t36 -70q0 -22 -11 -39.5t-23 -23.5z" />
    <glyph glyph-name="four.dnom" horiz-adv-x="330" 
d="M270 350v-205h35v-85h-35v-65h-95v65h-160v85l155 205h100zM110 145h65v85z" />
    <glyph glyph-name="five.dnom" horiz-adv-x="310" 
d="M180 225q48 0 81.5 -33.5t33.5 -81.5q0 -54 -37 -87t-103 -33q-47 0 -83 12.5t-49 25.5l-13 12l50 60q30 -30 80 -30q25 0 40 13t15 32t-14 32t-36 13q-13 0 -24.5 -4t-16.5 -8l-4 -3h-65l20 205h215v-80h-135l-5 -55q20 10 50 10z" />
    <glyph glyph-name="six.dnom" horiz-adv-x="315" 
d="M250 350l-70 -100q57 -11 88.5 -44.5t31.5 -85.5q0 -57 -39.5 -93.5t-105.5 -36.5q-63 0 -101.5 36.5t-38.5 93.5q0 22 6.5 42t12.5 29l6 9l110 150h100zM210 120q0 23 -14.5 36.5t-40.5 13.5q-23 0 -36.5 -14t-13.5 -36t13.5 -36t36.5 -14q26 0 40.5 13.5t14.5 36.5z
" />
    <glyph glyph-name="seven.dnom" horiz-adv-x="290" 
d="M15 350h260v-90l-125 -265h-95l125 265h-165v90z" />
    <glyph glyph-name="eight.dnom" horiz-adv-x="320" 
d="M160 70q50 0 50 35t-50 35t-50 -35t50 -35zM160 215q18 0 29 9t11 21t-11 21t-29 9t-29 -9t-11 -21t11 -21t29 -9zM160 -10q-68 0 -106.5 30.5t-38.5 74.5q0 31 17.5 52.5t35.5 26.5l17 6q-2 1 -6 2.5t-13.5 8t-16.5 14.5t-13 21.5t-6 28.5q0 43 34.5 71.5t95.5 28.5
t95.5 -28.5t34.5 -71.5q0 -24 -14 -43t-28 -26l-13 -6q3 -1 7.5 -2t16.5 -7.5t21.5 -15t17 -24.5t7.5 -36q0 -44 -38.5 -74.5t-106.5 -30.5z" />
    <glyph glyph-name="nine.dnom" horiz-adv-x="315" 
d="M65 -5l70 100q-57 11 -88.5 44.5t-31.5 85.5q0 57 39.5 93.5t105.5 36.5q63 0 101.5 -36.5t38.5 -93.5q0 -22 -6 -42t-12 -29l-7 -9l-110 -150h-100zM105 225q0 -23 14.5 -36.5t40.5 -13.5q22 0 36 13.5t14 36.5t-14 36.5t-36 13.5q-26 0 -40.5 -13.5t-14.5 -36.5z" />
    <glyph glyph-name="foundryicon" horiz-adv-x="1538" 
d="M278 460v-31h-72v-199h-35v199h-71v31h178zM519 396q32 0 54.5 -25t22.5 -59q0 -36 -22.5 -60.5t-54.5 -24.5q-29 0 -47 21v-79h-34v224h24l9 -19q19 22 48 22zM516 258q19 0 33 16t14 38q0 21 -14 36.5t-33 15.5t-33 -15.5t-14 -36.5q0 -22 13.5 -38t33.5 -16zM333 277
l44 116h37l-77 -190q-16 -34 -49 -34q-7 0 -10 1v28q23 0 31 20l6 16l-63 159h37zM701 396q32 0 54 -24.5t22 -58.5l-1 -15h-119q2 -17 14.5 -29t29.5 -12q27 0 37 17h35q-9 -22 -28.5 -34.5t-43.5 -12.5q-32 0 -55 24.5t-23 60.5q0 35 23 59.5t55 24.5zM657 325h88
q-1 17 -14.5 28.5t-29.5 11.5t-29 -11t-15 -29zM939 460v-31h-72v-199h-35v199h-71v31h178zM1180 396q32 0 54.5 -25t22.5 -59q0 -36 -22.5 -60.5t-54.5 -24.5q-29 0 -47 21v-79h-34v224h24l9 -19q19 22 48 22zM1177 258q19 0 33 16t14 38q0 21 -14 36.5t-33 15.5t-33 -15.5
t-14 -36.5q0 -22 13.5 -38t33.5 -16zM994 277l44 116h37l-77 -190q-16 -34 -49 -34q-7 0 -10 1v28q23 0 31 20l6 16l-63 159h37zM1362 396q32 0 54 -24.5t22 -58.5l-1 -15h-119q2 -17 14.5 -29t29.5 -12q27 0 37 17h35q-9 -22 -28.5 -34.5t-43.5 -12.5q-32 0 -55 24.5
t-23 60.5q0 35 23 59.5t55 24.5zM1318 325h88q-1 17 -14.5 28.5t-29.5 11.5t-29 -11t-15 -29z" />
    </font>
</defs>
</svg>
